<svg xmlns="http://www.w3.org/2000/svg" viewBox="0 0 48 48"><defs><style>.cls-1{fill:#231f20;}</style></defs><title>Album</title><g id="Layer_2" data-name="Layer 2"><g id="Icons"><g id="Photo_Audio_Video" data-name="Photo / Audio / Video"><g id="Album"><path class="cls-1" d="M42,6V0H0V42H6v6H48V6ZM2,40V2H40V6H6V40Zm44,6H8V8H46Z"/><path class="cls-1" d="M19.35,39l2-.26A3,3,0,0,0,24,35.77V21l10-2.54V29.14l-3.39.43a3,3,0,1,0,.74,5.91l2-.26A3,3,0,0,0,36,32.27V15L22,18.5V32.64l-3.39.43A3,3,0,1,0,19.35,39Z"/></g></g></g></g></svg>