<svg xmlns="http://www.w3.org/2000/svg" viewBox="0 0 48 38"><defs><style>.cls-1{fill:#231f20}</style></defs><g id="Layer_2" data-name="Layer 2"><g id="Icons"><g id="Photo_Audio_Video" data-name="Photo / Audio / Video"><g id="Camera"><path class="cls-1" d="M35.49 6L31 0H16.46l-4 6H0v23a9 9 0 009 9h30a9 9 0 009-9V6zM46 29a7 7 0 01-7 7H9a7 7 0 01-7-7V8h11.53l4-6H30l4.49 6H46z"/><path class="cls-1" d="M0 2h8v2H0zm24 10a10 10 0 1010 10 10 10 0 00-10-10zm0 18a8 8 0 118-8 8 8 0 01-8 8z"/><circle class="cls-1" cx="41" cy="13" r="2"/></g></g></g></g></svg>