<svg xmlns="http://www.w3.org/2000/svg" viewBox="0 0 48 38"><defs><style>.cls-1{fill:#231f20;}</style></defs><title>Camera</title><g id="Layer_2" data-name="Layer 2"><g id="Icons"><g id="Photo_Audio_Video" data-name="Photo / Audio / Video"><g id="Camera"><path class="cls-1" d="M35.49,6,31,0H16.46l-4,6H0V29a9,9,0,0,0,9,9H39a9,9,0,0,0,9-9V6ZM46,29a7,7,0,0,1-7,7H9a7,7,0,0,1-7-7V8H13.53l4-6H30l4.49,6H46Z"/><rect class="cls-1" y="2" width="8" height="2"/><path class="cls-1" d="M24,12A10,10,0,1,0,34,22,10,10,0,0,0,24,12Zm0,18a8,8,0,1,1,8-8A8,8,0,0,1,24,30Z"/><circle class="cls-1" cx="41" cy="13" r="2"/></g></g></g></g></svg>