<svg xmlns="http://www.w3.org/2000/svg" viewBox="0 0 48 48"><defs><style>.cls-1{fill:#231f20;}</style></defs><title>Equalizer</title><g id="Layer_2" data-name="Layer 2"><g id="Icons"><g id="Photo_Audio_Video" data-name="Photo / Audio / Video"><g id="Equalizer"><path class="cls-1" d="M48,6A6,6,0,0,0,43,.09V0H41V.09a6,6,0,0,0,0,11.82V48h2V11.91A6,6,0,0,0,48,6Zm-6,4a4,4,0,1,1,4-4A4,4,0,0,1,42,10Z"/><path class="cls-1" d="M25,25.09V0H23V25.09a6,6,0,0,0,0,11.82V48h2V36.91a6,6,0,0,0,0-11.82ZM24,35a4,4,0,1,1,4-4A4,4,0,0,1,24,35Z"/><path class="cls-1" d="M7,.09V0H5V.09A6,6,0,0,0,5,11.91V48H7V11.91A6,6,0,0,0,7,.09ZM6,10a4,4,0,1,1,4-4A4,4,0,0,1,6,10Z"/></g></g></g></g></svg>