<svg xmlns="http://www.w3.org/2000/svg" viewBox="0 0 46 48"><defs><style>.cls-1{fill:#231f20;}</style></defs><title>Headphones</title><g id="Layer_2" data-name="Layer 2"><g id="Icons"><g id="Photo_Audio_Video" data-name="Photo / Audio / Video"><g id="Headphones"><path class="cls-1" d="M16.46,28a5,5,0,1,0-9.85,2.1L9.55,44a5,5,0,0,0,4.91,4,5.53,5.53,0,0,0,1.06-.11,5.06,5.06,0,0,0,3.87-6ZM15.1,45.93a3,3,0,0,1-2.27-.42,3,3,0,0,1-1.33-1.93L8.57,29.69a3.05,3.05,0,0,1,2.34-3.62,2.7,2.7,0,0,1,.63-.07,3,3,0,0,1,3,2.42l2.93,13.89A3,3,0,0,1,15.1,45.93Z"/><path class="cls-1" d="M35.52,24.11a5,5,0,0,0-6,3.9L26.61,41.89a5.07,5.07,0,0,0,3.88,6,5.35,5.35,0,0,0,1.05.11,5,5,0,0,0,4.92-4l2.93-13.88A5.06,5.06,0,0,0,35.52,24.11Zm1.91,5.58L34.5,43.58a3,3,0,0,1-1.32,1.93,3,3,0,0,1-2.27.42,3.05,3.05,0,0,1-2.34-3.62L31.5,28.42a3.06,3.06,0,0,1,3-2.42,2.79,2.79,0,0,1,.64.07A3,3,0,0,1,37.43,29.69Z"/><path class="cls-1" d="M40.45,7.62a23.82,23.82,0,0,0-34.94,0A20.15,20.15,0,0,0,.07,23.11l4,16.17L6,38.8l-4-15.94A18.16,18.16,0,0,1,7,9,22.08,22.08,0,0,1,23,2,21.75,21.75,0,0,1,39,9a18.3,18.3,0,0,1,5,13.89L40,38.8l1.94.48,4-16,0-.16A20.25,20.25,0,0,0,40.45,7.62Z"/></g></g></g></g></svg>