<svg xmlns="http://www.w3.org/2000/svg" viewBox="0 0 46 48"><defs><style>.cls-1{fill:#231f20}</style></defs><g id="Layer_2" data-name="Layer 2"><g id="Icons"><g id="Photo_Audio_Video" data-name="Photo / Audio / Video"><g id="Headphones"><path class="cls-1" d="M16.46 28a5 5 0 10-9.85 2.1L9.55 44a5 5 0 004.91 4 5.53 5.53 0 001.06-.11 5.06 5.06 0 003.87-6zM15.1 45.93a3 3 0 01-2.27-.42 3 3 0 01-1.33-1.93L8.57 29.69a3.05 3.05 0 012.34-3.62 2.7 2.7 0 01.63-.07 3 3 0 013 2.42l2.93 13.89a3 3 0 01-2.37 3.62zm20.42-21.82a5 5 0 00-6 3.9l-2.91 13.88a5.07 5.07 0 003.88 6 5.35 5.35 0 001.05.11 5 5 0 004.92-4l2.93-13.88a5.06 5.06 0 00-3.87-6.01zm1.91 5.58L34.5 43.58a3 3 0 01-1.32 1.93 3 3 0 01-2.27.42 3.05 3.05 0 01-2.34-3.62l2.93-13.89a3.06 3.06 0 013-2.42 2.79 2.79 0 01.64.07 3 3 0 012.29 3.62z"/><path class="cls-1" d="M40.45 7.62a23.82 23.82 0 00-34.94 0A20.15 20.15 0 00.07 23.11l4 16.17L6 38.8 2 22.86A18.16 18.16 0 017 9a22.08 22.08 0 0116-7 21.75 21.75 0 0116 7 18.3 18.3 0 015 13.89L40 38.8l1.94.48 4-16v-.16a20.25 20.25 0 00-5.49-15.5z"/></g></g></g></g></svg>