<svg xmlns="http://www.w3.org/2000/svg" viewBox="0 0 48 38"><defs><style>.cls-1{fill:#231f20;}</style></defs><title>Image</title><g id="Layer_2" data-name="Layer 2"><g id="Icons"><g id="Photo_Audio_Video" data-name="Photo / Audio / Video"><g id="Image"><path class="cls-1" d="M0,0V38H48V0ZM9.71,36,19.83,18,27.2,31.26l4.7-6.43L38.28,36ZM46,36H40.58L32.1,21.17l-4.67,6.39L19.84,14,7.42,36H2V2H46Z"/><path class="cls-1" d="M37.5,17A4.5,4.5,0,1,0,33,12.5,4.51,4.51,0,0,0,37.5,17Zm0-7A2.5,2.5,0,1,1,35,12.5,2.5,2.5,0,0,1,37.5,10Z"/></g></g></g></g></svg>