<svg xmlns="http://www.w3.org/2000/svg" viewBox="0 0 48 48"><defs><style>.cls-1{fill:#231f20}</style></defs><g id="Layer_2" data-name="Layer 2"><g id="Icons"><g id="Photo_Audio_Video" data-name="Photo / Audio / Video"><g id="Movie"><path class="cls-1" d="M48 24a24 24 0 10-24 24h24v-2H33.58A24 24 0 0048 24zM2 24a22 22 0 1122 22A22 22 0 012 24z"/><circle class="cls-1" cx="24" cy="24" r="2.5"/><path class="cls-1" d="M40.3 24a6 6 0 00-6.74-8.79A6 6 0 0035.11 27a6 6 0 005.19-3zm-1.73-1a4 4 0 01-2.43 1.87 4 4 0 01-2.07-7.73 4.19 4.19 0 011-.14A4 4 0 0139 20a3.92 3.92 0 01-.43 3zm-27.23-1.82a6 6 0 00-4.24 7.35 6 6 0 007.34 4.24 6 6 0 10-3.1-11.59zm2.59 9.66a4 4 0 112.83-4.9 4 4 0 01-2.83 4.9zm11.49-1.53a6 6 0 103.11 11.59 6 6 0 004.24-7.34 6 6 0 00-7.35-4.25zM28 39a4 4 0 01-2.07-7.73 4.12 4.12 0 011-.13A4 4 0 0128 39zm-7-20.11a5.94 5.94 0 001.55-.2A6 6 0 0024 7.7a6 6 0 00-8.79 6.74A6 6 0 0021 18.89zM20 9a4 4 0 014.9 2.83A4 4 0 1120 9z"/></g></g></g></g></svg>