<svg xmlns="http://www.w3.org/2000/svg" viewBox="0 0 48 48"><defs><style>.cls-1{fill:#231f20;}</style></defs><title>Movie</title><g id="Layer_2" data-name="Layer 2"><g id="Icons"><g id="Photo_Audio_Video" data-name="Photo / Audio / Video"><g id="Movie"><path class="cls-1" d="M48,24A24,24,0,1,0,24,48H48V46H33.58A24,24,0,0,0,48,24ZM2,24A22,22,0,1,1,24,46,22,22,0,0,1,2,24Z"/><circle class="cls-1" cx="24" cy="24" r="2.5"/><path class="cls-1" d="M40.3,24a6,6,0,0,0-6.74-8.79A6,6,0,0,0,35.11,27a6,6,0,0,0,5.19-3Zm-1.73-1a4,4,0,0,1-2.43,1.87,4,4,0,0,1-2.07-7.73,4.19,4.19,0,0,1,1-.14A4,4,0,0,1,39,20,3.92,3.92,0,0,1,38.57,23Z"/><path class="cls-1" d="M11.34,21.18A6,6,0,0,0,7.1,28.53a6,6,0,0,0,7.34,4.24,6,6,0,1,0-3.1-11.59Zm2.59,9.66a4,4,0,1,1,2.83-4.9A4,4,0,0,1,13.93,30.84Z"/><path class="cls-1" d="M25.42,29.31A6,6,0,1,0,28.53,40.9a6,6,0,0,0,4.24-7.34A6,6,0,0,0,25.42,29.31ZM28,39a4,4,0,0,1-2.07-7.73,4.12,4.12,0,0,1,1-.13A4,4,0,0,1,28,39Z"/><path class="cls-1" d="M21,18.89a5.94,5.94,0,0,0,1.55-.2A6,6,0,0,0,24,7.7a6,6,0,0,0-8.79,6.74A6,6,0,0,0,21,18.89ZM20,9a4,4,0,0,1,4.9,2.83A4,4,0,1,1,20,9Z"/></g></g></g></g></svg>