<svg xmlns="http://www.w3.org/2000/svg" viewBox="0 0 42 48"><g data-name="Layer 2"><g data-name="Photo / Audio / Video"><path data-name="Music Note - Alt" d="M14 6v28.76l-8.89 1.36A6 6 0 006 48a5.93 5.93 0 00.84-.06l4.1-.59A6 6 0 0016 41.44V17.93l24-5.56v16.45l-8.89 1.27A6 6 0 0032 42a5.93 5.93 0 00.84-.06l4.1-.58A6 6 0 0042 35.42V0zm0 35.44a4 4 0 01-3.39 3.93l-4.1.63a4 4 0 01-1.11-7.9l8.6-1.32zm26-6a4 4 0 01-3.39 3.93l-4.1.58a3.9 3.9 0 01-3.14-.95 4 4 0 012-6.94L40 30.84zM16 15.88V7.59l24-5.07v7.79z" fill="#231f20"/></g></g></svg>