<svg xmlns="http://www.w3.org/2000/svg" viewBox="0 0 48 48"><defs><style>.cls-1{fill:#231f20;}</style></defs><title>Playlist</title><g id="Layer_2" data-name="Layer 2"><g id="Icons"><g id="Photo_Audio_Video" data-name="Photo / Audio / Video"><g id="Playlist"><path class="cls-1" d="M36,0V32.91l-9.91,1.24A7,7,0,0,0,27,48a8.46,8.46,0,0,0,.87,0l4.09-.52A7,7,0,0,0,38,40.53V10l10,2V2Zm0,40.53a5,5,0,0,1-4.34,4.92L27.57,46a5,5,0,1,1-1.23-9.83L36,34.92Zm10-31L38,8V2.44l8,1.2Z"/><rect class="cls-1" y="4" width="26" height="2"/><rect class="cls-1" y="16" width="26" height="2"/><rect class="cls-1" y="28" width="16" height="2"/></g></g></g></g></svg>