<svg xmlns="http://www.w3.org/2000/svg" viewBox="0 0 48 48"><defs><style>.cls-1{fill:#231f20;}</style></defs><title>Podcast</title><g id="Layer_2" data-name="Layer 2"><g id="Icons"><g id="Photo_Audio_Video" data-name="Photo / Audio / Video"><g id="Podcast"><path class="cls-1" d="M24,27a5,5,0,1,0-5-5A5,5,0,0,0,24,27Zm0-8a3,3,0,1,1-3,3A3,3,0,0,1,24,19Z"/><path class="cls-1" d="M24,0A24,24,0,0,0,11.88,44.72l1-1.73a22,22,0,1,1,22,.13l1,1.73A24,24,0,0,0,24,0Z"/><path class="cls-1" d="M24,9.09A15,15,0,0,0,16.34,37l1-1.72a13,13,0,1,1,13.06.13l1,1.74A15,15,0,0,0,24,9.09Z"/><path class="cls-1" d="M24,28a5.44,5.44,0,0,0-5.4,6.08L20.28,48h7.44L29.4,34.08A5.44,5.44,0,0,0,24,28Zm3.41,5.84L26,46h-3.9L20.59,33.84a3.43,3.43,0,1,1,6.82,0Z"/></g></g></g></g></svg>