<svg xmlns="http://www.w3.org/2000/svg" viewBox="0 0 48 48"><defs><style>.cls-1{fill:#231f20}</style></defs><g id="Layer_2" data-name="Layer 2"><g id="Icons"><g id="Photo_Audio_Video" data-name="Photo / Audio / Video"><g id="Podcast"><path class="cls-1" d="M24 27a5 5 0 10-5-5 5 5 0 005 5zm0-8a3 3 0 11-3 3 3 3 0 013-3z"/><path class="cls-1" d="M24 0a24 24 0 00-12.12 44.72l1-1.73a22 22 0 1122 .13l1 1.73A24 24 0 0024 0z"/><path class="cls-1" d="M24 9.09A15 15 0 0016.34 37l1-1.72a13 13 0 1113.06.13l1 1.74A15 15 0 0024 9.09z"/><path class="cls-1" d="M24 28a5.44 5.44 0 00-5.4 6.08L20.28 48h7.44l1.68-13.92A5.44 5.44 0 0024 28zm3.41 5.84L26 46h-3.9l-1.51-12.16a3.43 3.43 0 116.82 0z"/></g></g></g></g></svg>