<svg xmlns="http://www.w3.org/2000/svg" viewBox="0 0 48 37.98"><defs><style>.cls-1{fill:#231f20;}</style></defs><title>Repeat</title><g id="Layer_2" data-name="Layer 2"><g id="Icons"><g id="Photo_Audio_Video" data-name="Photo / Audio / Video"><g id="Repeat"><path class="cls-1" d="M42.54,8.79l-1.09,1.7A10.08,10.08,0,0,1,36,29H14.41l5.3-5.3L18.29,22.3,10.57,30l7.72,8,1.42-1.52L14.41,31H36A12,12,0,0,0,48,19h0A12.2,12.2,0,0,0,42.54,8.79Z"/><path class="cls-1" d="M2,19.08A10,10,0,0,1,12,9H33.59l-5.3,5.3,1.42,1.39L37.4,8,29.71,0,28.29,1.53,33.59,7H12A12.15,12.15,0,0,0,5.46,29.28l1.09-1.69A10.14,10.14,0,0,1,2,19.08Z"/></g></g></g></g></svg>