<svg xmlns="http://www.w3.org/2000/svg" viewBox="0 0 48 37.99"><g data-name="Layer 2"><path d="M39.29 23.71l5.3 5.29H34.07a6.9 6.9 0 01-5.66-2.84L23.24 19l5.17-7.14A6.91 6.91 0 0134.07 9h10.52l-5.3 5.31 1.42 1.4L48 8l-7.29-8-1.42 1.53L44.59 7H34.07a8.9 8.9 0 00-7.28 3.68L22 17.34l-4.79-6.64A8.92 8.92 0 009.93 7H0v2h9.93a6.92 6.92 0 015.66 2.86l5.17 7.2-5.17 7.12A6.88 6.88 0 019.93 29H0v2h9.93a8.86 8.86 0 007.28-3.66L22 20.69l4.79 6.63A8.9 8.9 0 0034.07 31h10.52l-5.3 5.5 1.42 1.5L48 30l-7.29-7.72z" fill="#231f20" data-name="Photo / Audio / Video"/></g></svg>