<svg xmlns="http://www.w3.org/2000/svg" viewBox="0 0 48 37.99"><defs><style>.cls-1{fill:#231f20;}</style></defs><title>Shuffle</title><g id="Layer_2" data-name="Layer 2"><g id="Icons"><g id="Photo_Audio_Video" data-name="Photo / Audio / Video"><path id="Shuffle" class="cls-1" d="M39.29,23.71,44.59,29H34.07a6.9,6.9,0,0,1-5.66-2.84L23.24,19l5.17-7.14A6.91,6.91,0,0,1,34.07,9H44.59l-5.3,5.31,1.42,1.4L48,8,40.71,0,39.29,1.53,44.59,7H34.07a8.9,8.9,0,0,0-7.28,3.68L22,17.34,17.21,10.7A8.92,8.92,0,0,0,9.93,7H0V9H9.93a6.92,6.92,0,0,1,5.66,2.86l5.17,7.2-5.17,7.12A6.88,6.88,0,0,1,9.93,29H0v2H9.93a8.86,8.86,0,0,0,7.28-3.66L22,20.69l4.79,6.63A8.9,8.9,0,0,0,34.07,31H44.59l-5.3,5.5L40.71,38,48,30l-7.29-7.72Z"/></g></g></g></svg>