<svg xmlns="http://www.w3.org/2000/svg" viewBox="0 0 48 34"><defs><style>.cls-1{fill:#231f20;}</style></defs><title>Streaming Music</title><g id="Layer_2" data-name="Layer 2"><g id="Icons"><g id="Photo_Audio_Video" data-name="Photo / Audio / Video"><g id="Streaming_Music" data-name="Streaming Music"><path class="cls-1" d="M22,10V21.64l-3.39.43A3,3,0,1,0,19.35,28l2-.26A3,3,0,0,0,24,24.77V15l5,1V11.2Z"/><path class="cls-1" d="M37.86,12A14,14,0,0,0,10,14v1H9.5A9.5,9.5,0,0,0,.13,23H0V34H37a11,11,0,0,0,.86-22ZM37,32H2V24.46l0-.4A7.5,7.5,0,0,1,9.5,17H12V14a12,12,0,0,1,24-.92l.1,1L37,14a9,9,0,0,1,0,18Z"/></g></g></g></g></svg>