<svg xmlns="http://www.w3.org/2000/svg" viewBox="0 0 48 34"><defs><style>.cls-1{fill:#231f20}</style></defs><g id="Layer_2" data-name="Layer 2"><g id="Icons"><g id="Photo_Audio_Video" data-name="Photo / Audio / Video"><g id="Streaming_Music" data-name="Streaming Music"><path class="cls-1" d="M22 10v11.64l-3.39.43a3 3 0 10.74 5.93l2-.26A3 3 0 0024 24.77V15l5 1v-4.8z"/><path class="cls-1" d="M37.86 12A14 14 0 0010 14v1h-.5a9.5 9.5 0 00-9.37 8H0v11h37a11 11 0 00.86-22zM37 32H2v-7.94A7.5 7.5 0 019.5 17H12v-3a12 12 0 0124-.92l.1 1L37 14a9 9 0 010 18z"/></g></g></g></g></svg>