<svg xmlns="http://www.w3.org/2000/svg" viewBox="0 0 40 34"><defs><style>.cls-1{fill:#231f20;}</style></defs><title>Volume - Medium</title><g id="Layer_2" data-name="Layer 2"><g id="Icons"><g id="Photo_Audio_Video" data-name="Photo / Audio / Video"><g id="Volume_-_Medium" data-name="Volume - Medium"><path class="cls-1" d="M0,11V23H8.63L22,34V0L8.64,11ZM20,4.26V29.72L9.36,21H2V13H9.36Z"/><path class="cls-1" d="M35.23,2.14,33.61,3.32A23.4,23.4,0,0,1,38,17a22.63,22.63,0,0,1-4.52,13.57l1.6,1.2A24.64,24.64,0,0,0,40,17,25.43,25.43,0,0,0,35.23,2.14Z"/><path class="cls-1" d="M26.92,6.92a18,18,0,0,1,.12,20L28.71,28A20,20,0,0,0,28.58,5.8Z"/></g></g></g></g></svg>