<svg xmlns="http://www.w3.org/2000/svg" viewBox="0 0 48 38"><g data-name="Layer 2"><g data-name="Photo / Audio / Video"><path d="M0 13v12h8.64L22 36V2L8.64 13zm20-6.74v25.46L9.36 23H2v-8h7.36zM42 0l-1.55 1.58a30 30 0 010 34.84L42 38a33.44 33.44 0 006-19 33.54 33.54 0 00-6-19zm-8.39 5.35A23.36 23.36 0 0138 19a22.65 22.65 0 01-4.52 13.6l1.61 1.2A24.74 24.74 0 0040 19a25.38 25.38 0 00-4.77-14.83zM26.93 9a18 18 0 01.11 20l1.67 1A20 20 0 0032 19a19.85 19.85 0 00-3.42-11.17z" fill="#231f20" data-name="Volume - Max"/></g></g></svg>