<svg xmlns="http://www.w3.org/2000/svg" viewBox="0 0 46.25 47.69"><defs><style>.cls-1{fill:#231f20;}</style></defs><title>Asset 207</title><g id="Layer_2" data-name="Layer 2"><g id="Icons"><g id="Communication"><path class="cls-1" d="M40.59,33.46l-7.87-2.32V26.88a9.24,9.24,0,0,0,.93-3.24,4.22,4.22,0,0,0,2.83-3.36,4.1,4.1,0,0,0-.78-3.82L36.58,11A10,10,0,0,0,34.2,4c-2.32-2.63-6-4-11.07-4h0c-5,0-8.76,1.33-11.07,4A10,10,0,0,0,9.68,11l.88,5.43a4,4,0,0,0-.78,3.82,4.22,4.22,0,0,0,2.83,3.36,8.83,8.83,0,0,0,.93,3.2v4.3L5.59,33.48A8.92,8.92,0,0,0,0,41.8v5a.9.9,0,0,0,.88.9H45.37a.89.89,0,0,0,.88-.9v-5A8.93,8.93,0,0,0,40.59,33.46ZM13.46,21.94c-1.1,0-1.74-1.12-2-2.08s-.05-1.94.42-2.19a.9.9,0,0,0,.48-1l-1-5.93a8.22,8.22,0,0,1,1.94-5.62c1.95-2.23,5.23-3.36,9.75-3.36h0c4.5,0,7.78,1.13,9.74,3.35a8.24,8.24,0,0,1,2,5.58l-1,6a.91.91,0,0,0,.47,1c.47.25.66,1.19.43,2.2s-.87,2.07-2,2.07a.9.9,0,0,0-.89.91,7.66,7.66,0,0,1-1.37,4.26c-.82-1.57-2-3.35-3.39-4L27,23.06,19,23l-.23.09c-1.28.59-2.39,2.17-3.2,3.65a7.46,7.46,0,0,1-1.18-3.92A.89.89,0,0,0,13.46,21.94ZM30.8,27.63,31,27.4v.53ZM23,33l-.09,0-.09,0c-.15,0-3.61.74-7.32-2.81L15.41,30l.06-.16c.3-.76,1.87-4.57,3.65-5.54l.12,0,7.51,0c1.78,1,3.36,4.78,3.65,5.54l.07.16-.13.11A9.23,9.23,0,0,1,24,33,4.53,4.53,0,0,1,23,33Zm-.09,1.28a7.3,7.3,0,0,0,1,.07,10.42,10.42,0,0,0,7-3c-.31,3.29-3.42,5.54-7.79,5.54-4.21,0-7.25-2.09-7.74-5.18A9.73,9.73,0,0,0,22.94,34.24ZM44.48,45.88H1.77V41.8a7.06,7.06,0,0,1,4.38-6.6l7.7-2.27c1,3.45,4.62,5.78,9.28,5.78s8.23-2.33,9.27-5.78L40,35.18a7.07,7.07,0,0,1,4.44,6.62Z"/><path class="cls-1" d="M22.79,26.93a3.2,3.2,0,0,0-3,2.8v.7h6v-.7A3.2,3.2,0,0,0,22.79,26.93Zm-2,2.34a2.56,2.56,0,0,1,2-1.17,2.56,2.56,0,0,1,2,1.17Z"/></g></g></g></svg>