<svg xmlns="http://www.w3.org/2000/svg" viewBox="0 0 42.53 48.43"><defs><style>.cls-1{fill:#231f20;}</style></defs><title>Asset 209</title><g id="Layer_2" data-name="Layer 2"><g id="Icons"><g id="Communication"><path class="cls-1" d="M37.3,33,37.1,33c-1.61-.48-5.53-1.66-7.66-2.4a23.6,23.6,0,0,1-.33-4.6,2,2,0,0,0-.1-.59,9.1,9.1,0,0,0,1.81-3.67,4,4,0,0,0,2-3.6,4.78,4.78,0,0,0-.2-1.34c.69-2.3,2.47-9.15.13-12h0A3.46,3.46,0,0,0,30,3.53,12.73,12.73,0,0,0,21.37,0c-4.07,0-7.14,1.17-9.13,3.47A10.76,10.76,0,0,0,10,11.4a11.25,11.25,0,0,0,.63,4.23,4.49,4.49,0,0,0-.69,2.47,3.8,3.8,0,0,0,2.28,3.73c.35.73.85,1.72,1.46,2.76a1.88,1.88,0,0,0-.07.53,38.67,38.67,0,0,1-.17,5.32c-2.27.78-6.31,2-7.65,2.42L5.22,33l-.06,0C2.07,34.42,0,38,0,41.89v4.85a1.59,1.59,0,0,0,1.45,1.69H41.07a1.59,1.59,0,0,0,1.46-1.69V41.89C42.53,38,40.43,34.41,37.3,33Zm-22-6c1.43,1.89,3.17,3.5,5,3.66l.62,0a6.65,6.65,0,0,0,4.64-2.07c.31-.26.62-.53,1-.79a9.38,9.38,0,0,0,.87-.74c0,1.51.18,4,.7,4.81l.17.24.26.09.16.06c-.75,1.9-3.57,5.52-7.85,5.52-3.5,0-6.09-3.54-7.24-5.45l.76-.27.36-.12.16-.39a17.92,17.92,0,0,0,.4-4.5A.22.22,0,0,1,15.28,27.05ZM27.73,7.18A1.44,1.44,0,0,0,26,7.76c-.56.87-3.32.48-5.33.19-2.23-.31-4.34-.61-6,0-2.07.73-2.76,3-3,5,0-.44-.06-1-.07-1.57v-.09a9.11,9.11,0,0,1,1.86-6.66c1.65-1.91,4.28-2.87,7.83-2.87A11.33,11.33,0,0,1,29.09,5l.27.23.35,0a1.85,1.85,0,0,1,1.68.65c1.26,1.51.82,5.5-.05,8.92a3,3,0,0,0-1.3-.57c-.45-.43-1.65-1.94-1.33-5.57A1.47,1.47,0,0,0,27.73,7.18ZM13.42,15.11c-.06-1.14-.1-4.88,1.87-5.57A5,5,0,0,1,17,9.31a26.36,26.36,0,0,1,3.51.34c2.51.36,5.09.72,6.46-.39-.18,4.34,1.63,6.06,2.22,6.49l.2.15.25,0c1,.08,1.44,1.19,1.44,2.18s-.38,1.92-1.22,2.14l-.57.14L29.2,21a7.07,7.07,0,0,1-1.46,3.27h0v0a11.61,11.61,0,0,1-2.19,2.23c-.4.3-.74.59-1.1.9-1.11,1-2.07,1.78-4,1.61-2.21-.2-5.12-4.42-6.89-8.26l-.18-.41-.45-.08C12,20.1,11.62,19,11.62,18.1A2.83,2.83,0,0,1,12,16.57a1.43,1.43,0,0,1,.77-.6l.65-.19Zm7.43,24.46c4.85,0,8.42-4,9.46-6.69,2.17.71,5,1.56,6.36,2h0a7.66,7.66,0,0,1,4.11,7v4.59H1.72v-4.6a7.63,7.63,0,0,1,4-7l.47-.14c1-.32,3.57-1.09,5.73-1.78C13.12,35.06,16.2,39.57,20.85,39.57Z"/></g></g></g></svg>