<svg xmlns="http://www.w3.org/2000/svg" viewBox="0 0 46.85 47.94"><defs><style>.cls-1{fill:#231f20;}</style></defs><title>Asset 205</title><g id="Layer_2" data-name="Layer 2"><g id="Icons"><g id="Communication"><path class="cls-1" d="M41.19,34.77a8.6,8.6,0,0,0-3.11-1.41c-.42-.76-.31-4.43-.22-7.17C38.12,18,38.47,6.67,32.42,2,29.57-.18,25.6-.59,20.61.82a7.92,7.92,0,0,0-6.85,1.57C8.56,6.84,9.08,18.85,9.42,26.83a42,42,0,0,1,0,6.37,9.32,9.32,0,0,0-3.79,1.57C1.3,38,.13,46,0,46.92a1,1,0,0,0,.22.72.92.92,0,0,0,.68.3h45a.93.93,0,0,0,.69-.31.89.89,0,0,0,.21-.71C46.8,46.56,45.73,38.15,41.19,34.77Zm-26.25-31a6.23,6.23,0,0,1,5.55-1.12,1,1,0,0,0,.42,0c4.5-1.3,8-1,10.4.83C36.62,7.54,36.26,18.73,36,26.13A42.58,42.58,0,0,0,36.11,33l-.88-.14c-3.37-.5-5.59-.84-5.59-4.71V26.47c1.45-1.19,2.85-3.66,2.49-9.32.43,0,.88.07,1.33.07a.91.91,0,0,0,0-1.82C26.69,15.4,23,9.66,22.88,8.9a.91.91,0,0,0-1.82,0c0,1.16,3.19,6.45,9.22,7.92.45,5.71-1,7.67-2.21,8.51h-.26v.16a6.25,6.25,0,0,1-.76.36,5.85,5.85,0,0,0-.66.32.9.9,0,0,0,.49,1.67.91.91,0,0,0,.49-.14l.31-.14.07,0,.06,0v.6c0,3.61,1.75,5.08,3.85,5.8C31,35.45,29,38.47,23.83,38.47a11.37,11.37,0,0,1-9.17-4.38C17,33.43,19,32,19,28.12v-.89l.11.05a1,1,0,0,0,.34.07.92.92,0,0,0,.85-.57.9.9,0,0,0,0-.7.92.92,0,0,0-.5-.49c-2.56-1-4-3.33-2.92-11.27a.92.92,0,0,0-.78-1,.91.91,0,0,0-1,.78c-.9,6.34-.29,10.05,2.11,12.07v2c0,3.87-2.23,4.21-5.6,4.71l-.3.05a52.19,52.19,0,0,0-.07-6.14C10.91,19.14,10.42,7.65,14.94,3.77ZM2,46.12c.39-2.07,1.7-7.61,4.77-9.9A7.4,7.4,0,0,1,9.65,35h.18a1.27,1.27,0,0,0,.6-.15c.42-.08.85-.15,1.27-.21l.19,0,.82-.13a13.2,13.2,0,0,0,11.12,5.79c6.49,0,8.87-4,9.62-5.91.51.1,1,.18,1.52.25,1.84.28,3.74.56,5.12,1.59,3.07,2.28,4.38,7.83,4.77,9.9Z"/></g></g></g></svg>