<svg xmlns="http://www.w3.org/2000/svg" viewBox="0 0 47.31 48.09"><defs><style>.cls-1{fill:#231f20;}</style></defs><title>Asset 208</title><g id="Layer_2" data-name="Layer 2"><g id="Icons"><g id="Communication"><path class="cls-1" d="M41.58,34.94c-1.77-1.29-3.92-1.61-6-1.92-3.37-.5-5.59-.83-5.59-4.61V26.5c.39-.36.77-.74,1.15-1.14A6.23,6.23,0,0,0,36,22.89c2.51-3.15,2.94-8.69,1.07-13.76C35.53,5,32.81,1.9,29.6.66a11,11,0,0,0-8.94.67C15,1.1,11.05,4.06,10,9.48c-1.17,5.89,1.46,13.15,5.24,14.67A8.76,8.76,0,0,0,17.32,27l0,1.37c0,3-1.39,3.82-3.64,4.28l-.25.05c-.53.1-1.11.19-1.73.28-2.08.31-4.23.63-6,1.92C1.16,38.29.05,46.66,0,47a.92.92,0,0,0,.23.75,1,1,0,0,0,.73.33H46.34a1,1,0,0,0,.73-.32A1,1,0,0,0,47.3,47C47.26,46.66,46.15,38.29,41.58,34.94ZM16.21,14.88a.88.88,0,0,0-.18-.7,1,1,0,0,0-.64-.38,1,1,0,0,0-1.1.81,20.56,20.56,0,0,0,0,6.43c-1.91-2.34-3.22-7-2.39-11.2.52-2.62,2.37-7,8.93-6.59a.82.82,0,0,0,.49-.1,9.22,9.22,0,0,1,7.58-.72c2.7,1,5,3.73,6.36,7.35,1.66,4.48,1.35,9.27-.77,11.94a4.8,4.8,0,0,1-1.73,1.37,8.83,8.83,0,0,0,.8-2.37l.1.1a1,1,0,0,0,.65.24,1,1,0,0,0,.71-.31.93.93,0,0,0,.26-.68,1,1,0,0,0-.32-.67,10.33,10.33,0,0,1-1.4-1.52l0,0A16.44,16.44,0,0,1,31.3,13c-1.23-3.73-2.38-7.25-9.6-7.92a1,1,0,0,0-1.06.86,1,1,0,0,0,.88,1c5.94.55,6.77,3.09,7.93,6.61a18.67,18.67,0,0,0,2.31,5.11,7.18,7.18,0,0,1-1.86,5.16A20.57,20.57,0,0,1,28,25.65h0a9.18,9.18,0,0,1-3.92,2.27c-1.09.16-2.91-.54-5-1.91C17.89,25.2,15.12,22.47,16.21,14.88ZM2.12,46.18c.46-2.4,1.77-7.51,4.77-9.7A11.5,11.5,0,0,1,12,34.91l1.13-.18L23.28,43l.06,3.18Zm13.39-12c2.08-.74,3.78-2.22,3.78-5.77v0a9.84,9.84,0,0,0,4.5,1.49,5.49,5.49,0,0,0,.58,0A9,9,0,0,0,28,28.09v.32c0,3.28,1.47,4.79,3.35,5.58l-7,7.41Zm9.77,12-.05-2.87,8.21-8.71c.62.13,1.24.22,1.84.31,1.85.27,3.76.55,5.14,1.57,3,2.18,4.31,7.3,4.77,9.7Z"/></g></g></g></svg>