<svg xmlns="http://www.w3.org/2000/svg" viewBox="0 0 47.31 48.09"><path d="M41.58 34.94c-1.77-1.29-3.92-1.61-6-1.92-3.37-.5-5.59-.83-5.59-4.61V26.5c.39-.36.77-.74 1.15-1.14A6.23 6.23 0 0036 22.89c2.51-3.15 2.94-8.69 1.07-13.76C35.53 5 32.81 1.9 29.6.66a11 11 0 00-8.94.67C15 1.1 11.05 4.06 10 9.48c-1.17 5.89 1.46 13.15 5.24 14.67A8.76 8.76 0 0017.32 27v1.37c0 3-1.39 3.82-3.64 4.28l-.25.05c-.53.1-1.11.19-1.73.28-2.08.31-4.23.63-6 1.92C1.16 38.29.05 46.66 0 47a.92.92 0 00.23.75 1 1 0 00.73.33h45.38a1 1 0 00.73-.32 1 1 0 00.23-.76c-.04-.34-1.15-8.71-5.72-12.06zM16.21 14.88a.88.88 0 00-.18-.7 1 1 0 00-.64-.38 1 1 0 00-1.1.81 20.56 20.56 0 000 6.43c-1.91-2.34-3.22-7-2.39-11.2.52-2.62 2.37-7 8.93-6.59a.82.82 0 00.49-.1 9.22 9.22 0 017.58-.72c2.7 1 5 3.73 6.36 7.35 1.66 4.48 1.35 9.27-.77 11.94a4.8 4.8 0 01-1.73 1.37 8.83 8.83 0 00.8-2.37l.1.1a1 1 0 00.65.24 1 1 0 00.71-.31.93.93 0 00.26-.68 1 1 0 00-.32-.67 10.33 10.33 0 01-1.4-1.52A16.44 16.44 0 0131.3 13c-1.23-3.73-2.38-7.25-9.6-7.92a1 1 0 00-1.06.86 1 1 0 00.88 1c5.94.55 6.77 3.09 7.93 6.61a18.67 18.67 0 002.31 5.11 7.18 7.18 0 01-1.86 5.16 20.57 20.57 0 01-1.9 1.83 9.18 9.18 0 01-3.92 2.27c-1.09.16-2.91-.54-5-1.91-1.19-.81-3.96-3.54-2.87-11.13zM2.12 46.18c.46-2.4 1.77-7.51 4.77-9.7A11.5 11.5 0 0112 34.91l1.13-.18L23.28 43l.06 3.18zm13.39-12c2.08-.74 3.78-2.22 3.78-5.77a9.84 9.84 0 004.5 1.49 5.49 5.49 0 00.58 0A9 9 0 0028 28.09v.32c0 3.28 1.47 4.79 3.35 5.58l-7 7.41zm9.77 12l-.05-2.87 8.21-8.71c.62.13 1.24.22 1.84.31 1.85.27 3.76.55 5.14 1.57 3 2.18 4.31 7.3 4.77 9.7z" fill="#231f20" data-name="Layer 2"/></svg>