<svg xmlns="http://www.w3.org/2000/svg" viewBox="0 0 46.85 47.94"><path d="M41.19 34.77a8.6 8.6 0 00-3.11-1.41c-.42-.76-.31-4.43-.22-7.17.26-8.19.61-19.52-5.44-24.19C29.57-.18 25.6-.59 20.61.82a7.92 7.92 0 00-6.85 1.57c-5.2 4.45-4.68 16.46-4.34 24.44a42 42 0 010 6.37 9.32 9.32 0 00-3.79 1.57C1.3 38 .13 46 0 46.92a1 1 0 00.22.72.92.92 0 00.68.3h45a.93.93 0 00.69-.31.89.89 0 00.21-.71c0-.36-1.07-8.77-5.61-12.15zm-26.25-31a6.23 6.23 0 015.55-1.12 1 1 0 00.42 0c4.5-1.3 8-1 10.4.83 5.31 4.06 4.95 15.25 4.69 22.65a42.58 42.58 0 00.11 6.87l-.88-.14c-3.37-.5-5.59-.84-5.59-4.71v-1.68c1.45-1.19 2.85-3.66 2.49-9.32.43 0 .88.07 1.33.07a.91.91 0 000-1.82c-6.77 0-10.46-5.74-10.58-6.5a.91.91 0 00-1.82 0c0 1.16 3.19 6.45 9.22 7.92.45 5.71-1 7.67-2.21 8.51h-.26v.16a6.25 6.25 0 01-.76.36 5.85 5.85 0 00-.66.32.9.9 0 00.49 1.67.91.91 0 00.49-.14l.31-.14h.13v.6c0 3.61 1.75 5.08 3.85 5.8-.66 1.49-2.66 4.51-7.83 4.51a11.37 11.37 0 01-9.17-4.38C17 33.43 19 32 19 28.12v-.89l.11.05a1 1 0 00.34.07.92.92 0 00.85-.57.9.9 0 000-.7.92.92 0 00-.5-.49c-2.56-1-4-3.33-2.92-11.27a.92.92 0 00-.78-1 .91.91 0 00-1 .78c-.9 6.34-.29 10.05 2.11 12.07v2c0 3.87-2.23 4.21-5.6 4.71l-.3.05a52.19 52.19 0 00-.07-6.14c-.33-7.65-.82-19.14 3.7-23.02zM2 46.12c.39-2.07 1.7-7.61 4.77-9.9A7.4 7.4 0 019.65 35h.18a1.27 1.27 0 00.6-.15c.42-.08.85-.15 1.27-.21h.19l.82-.13a13.2 13.2 0 0011.12 5.79c6.49 0 8.87-4 9.62-5.91.51.1 1 .18 1.52.25 1.84.28 3.74.56 5.12 1.59 3.07 2.28 4.38 7.83 4.77 9.9z" fill="#231f20" data-name="Layer 2"/></svg>