<svg xmlns="http://www.w3.org/2000/svg" viewBox="0 0 42.53 48.43"><path d="M37.3 33h-.2c-1.61-.48-5.53-1.66-7.66-2.4a23.6 23.6 0 01-.33-4.6 2 2 0 00-.1-.59 9.1 9.1 0 001.81-3.67 4 4 0 002-3.6 4.78 4.78 0 00-.2-1.34c.69-2.3 2.47-9.15.13-12A3.46 3.46 0 0030 3.53 12.73 12.73 0 0021.37 0c-4.07 0-7.14 1.17-9.13 3.47A10.76 10.76 0 0010 11.4a11.25 11.25 0 00.63 4.23 4.49 4.49 0 00-.69 2.47 3.8 3.8 0 002.28 3.73c.35.73.85 1.72 1.46 2.76a1.88 1.88 0 00-.07.53 38.67 38.67 0 01-.17 5.32c-2.27.78-6.31 2-7.65 2.42l-.57.14h-.06C2.07 34.42 0 38 0 41.89v4.85a1.59 1.59 0 001.45 1.69h39.62a1.59 1.59 0 001.46-1.69v-4.85c0-3.89-2.1-7.48-5.23-8.89zm-22-6c1.43 1.89 3.17 3.5 5 3.66h.62a6.65 6.65 0 004.64-2.07c.31-.26.62-.53 1-.79a9.38 9.38 0 00.87-.74c0 1.51.18 4 .7 4.81l.17.24.26.09.16.06c-.75 1.9-3.57 5.52-7.85 5.52-3.5 0-6.09-3.54-7.24-5.45l.76-.27.36-.12.16-.39a17.92 17.92 0 00.4-4.5.22.22 0 01-.03 0zM27.73 7.18a1.44 1.44 0 00-1.73.58c-.56.87-3.32.48-5.33.19-2.23-.31-4.34-.61-6 0-2.07.73-2.76 3-3 5 0-.44-.06-1-.07-1.57v-.09a9.11 9.11 0 011.86-6.66c1.65-1.91 4.28-2.87 7.83-2.87A11.33 11.33 0 0129.09 5l.27.23h.35a1.85 1.85 0 011.68.65c1.26 1.51.82 5.5-.05 8.92a3 3 0 00-1.3-.57c-.45-.43-1.65-1.94-1.33-5.57a1.47 1.47 0 00-.98-1.48zm-14.31 7.93c-.06-1.14-.1-4.88 1.87-5.57A5 5 0 0117 9.31a26.36 26.36 0 013.51.34c2.51.36 5.09.72 6.46-.39-.18 4.34 1.63 6.06 2.22 6.49l.2.15h.25c1 .08 1.44 1.19 1.44 2.18s-.38 1.92-1.22 2.14l-.57.14-.09.64a7.07 7.07 0 01-1.46 3.27 11.61 11.61 0 01-2.19 2.23c-.4.3-.74.59-1.1.9-1.11 1-2.07 1.78-4 1.61-2.21-.2-5.12-4.42-6.89-8.26l-.18-.41-.45-.08C12 20.1 11.62 19 11.62 18.1a2.83 2.83 0 01.38-1.53 1.43 1.43 0 01.77-.6l.65-.19zm7.43 24.46c4.85 0 8.42-4 9.46-6.69 2.17.71 5 1.56 6.36 2a7.66 7.66 0 014.11 7v4.59H1.72v-4.6a7.63 7.63 0 014-7l.47-.14c1-.32 3.57-1.09 5.73-1.78 1.2 2.11 4.28 6.62 8.93 6.62z" fill="#231f20" data-name="Layer 2"/></svg>