<svg xmlns="http://www.w3.org/2000/svg" viewBox="0 0 42.7 47.47"><path d="M37.53 35.3a11.69 11.69 0 00-5.44-1.78c-3-.46-5-.76-5-4.23v-1.76c.34-.33.69-.67 1-1a5.62 5.62 0 004.41-2.28c2.16-2.79 2.6-7.56 1.17-12.06 2.23-.44 4.37-1 6.37-1.52l.24-.07-.49-1.69-.24.07c-1.75.5-3.61 1-5.54 1.35C33 7.92 28.47-1.39 20.23.18 18.19.56 11.48 2.57 10 12.34c-2.93 0-5.33-.16-6.84-.26h-.25l-.11 1.74h.25c1.67.11 4.12.23 7.06.27a12.08 12.08 0 00.36 6.47 9.32 9.32 0 003.24 4.79 8.19 8.19 0 001.9 2.65v1.26c0 2.73-1.24 3.5-3.25 3.93l-.24.05-1.56.26a11.56 11.56 0 00-5.39 1.8C1 38.43 0 46.38 0 46.45a.87.87 0 00.21.71.93.93 0 00.68.31H41.8a.94.94 0 00.68-.31.88.88 0 00.21-.71c-.01-.07-.99-8.02-5.16-11.15zm-6.45-12.2a4.21 4.21 0 01-1.49 1.23 8.22 8.22 0 00.69-2.09v.05a.88.88 0 001.27-.06.79.79 0 00.18-.29 6.61 6.61 0 01-.65 1.16zm.7-1.17a.8.8 0 000-.34.87.87 0 00-.29-.63 9.45 9.45 0 01-1.25-1.4 15.12 15.12 0 01-2-4.48 39.2 39.2 0 00-.61-1.76c1.38-.22 2.78-.48 4.18-.81h.05c1.14 3.4 1.14 6.96-.08 9.42zm-20.56-9.17v-.27a17.75 17.75 0 011.4-4.67 10.56 10.56 0 017.8-6.41c7.21-1.35 11.3 6.74 12.38 9.25l.12.27-.28.07-1 .26a115.37 115.37 0 01-18.88 1.58l-1.23-.06zm4 11.57l-.08-.24a14.71 14.71 0 01-.46-7.29.9.9 0 00-1.79-.24 22.75 22.75 0 00-.22 4.06 13.9 13.9 0 01-.41-6.52h.43c1.07.05 2.18.07 3.3.07a78.86 78.86 0 009.84-.61c.27.64.5 1.33.73 2a17.52 17.52 0 002.08 4.71A6.65 6.65 0 0127 25.06a18.57 18.57 0 01-1.67 1.66 8.39 8.39 0 01-3.52 2.08c-1 .15-2.6-.5-4.45-1.76a6 6 0 01-2.15-2.71zM2 45.66c.37-1.89 1.55-6.86 4.29-8.92a10.3 10.3 0 014.63-1.44l1-.16L21 42.76l.05 2.9zM14.05 34.6c1.86-.69 3.38-2.06 3.39-5.31a8.72 8.72 0 004 1.36 3.15 3.15 0 00.53 0A8.06 8.06 0 0025.26 29v.25c0 3 1.32 4.42 3 5.15L22 41.25zm8.79 11.06v-2.62l7.38-8c.55.12 1.11.2 1.64.28a10.22 10.22 0 014.63 1.44c2.68 2 3.86 6.71 4.29 8.92z" fill="#231f20" data-name="Layer 2"/></svg>