<svg xmlns="http://www.w3.org/2000/svg" viewBox="0 0 46.25 47.69"><defs><style>.cls-1{fill:#231f20}</style></defs><g id="Layer_2" data-name="Layer 2"><g id="Icons"><g id="Communication"><path class="cls-1" d="M40.59 33.46l-7.87-2.32v-4.26a9.24 9.24 0 00.93-3.24 4.22 4.22 0 002.83-3.36 4.1 4.1 0 00-.78-3.82l.88-5.46a10 10 0 00-2.38-7c-2.32-2.63-6-4-11.07-4-5 0-8.76 1.33-11.07 4a10 10 0 00-2.38 7l.88 5.43a4 4 0 00-.78 3.82 4.22 4.22 0 002.83 3.36 8.83 8.83 0 00.93 3.2v4.3l-7.95 2.37A8.92 8.92 0 000 41.8v5a.9.9 0 00.88.9h44.49a.89.89 0 00.88-.9v-5a8.93 8.93 0 00-5.66-8.34zM13.46 21.94c-1.1 0-1.74-1.12-2-2.08s-.05-1.94.42-2.19a.9.9 0 00.48-1l-1-5.93a8.22 8.22 0 011.94-5.62c1.95-2.23 5.23-3.36 9.75-3.36 4.5 0 7.78 1.13 9.74 3.35a8.24 8.24 0 012 5.58l-1 6a.91.91 0 00.47 1c.47.25.66 1.19.43 2.2s-.87 2.07-2 2.07a.9.9 0 00-.89.91 7.66 7.66 0 01-1.37 4.26c-.82-1.57-2-3.35-3.39-4l-.04-.07-8-.06-.23.09c-1.28.59-2.39 2.17-3.2 3.65a7.46 7.46 0 01-1.18-3.92.89.89 0 00-.93-.88zm17.34 5.69l.2-.23v.53zM23 33h-.18c-.15 0-3.61.74-7.32-2.81l-.09-.19.06-.16c.3-.76 1.87-4.57 3.65-5.54h7.63c1.78 1 3.36 4.78 3.65 5.54l.07.16-.13.11A9.23 9.23 0 0124 33a4.53 4.53 0 01-1 0zm-.09 1.28a7.3 7.3 0 001 .07 10.42 10.42 0 007-3c-.31 3.29-3.42 5.54-7.79 5.54-4.21 0-7.25-2.09-7.74-5.18a9.73 9.73 0 007.56 2.53zm21.57 11.6H1.77V41.8a7.06 7.06 0 014.38-6.6l7.7-2.27c1 3.45 4.62 5.78 9.28 5.78s8.23-2.33 9.27-5.78l7.6 2.25a7.07 7.07 0 014.44 6.62z"/><path class="cls-1" d="M22.79 26.93a3.2 3.2 0 00-3 2.8v.7h6v-.7a3.2 3.2 0 00-3-2.8zm-2 2.34a2.56 2.56 0 012-1.17 2.56 2.56 0 012 1.17z"/></g></g></g></svg>