<svg xmlns="http://www.w3.org/2000/svg" viewBox="0 0 48 48"><defs><style>.cls-1{fill:#231f20}</style></defs><g id="Layer_2" data-name="Layer 2"><g id="Icons"><g id="Communication"><g id="Box_-_Out" data-name="Box - Out"><path class="cls-1" d="M23 3.41V24h2V3.41l7.55 7.3L34 9.29 24 0 14 9.29l1.47 1.42L23 3.41z"/><path class="cls-1" d="M39.54 16H33v2h5.46l6.67 10H30.25l-.84 2.92a5.63 5.63 0 01-10.82 0L17.75 28H2.87l6.67-10H15v-2H8.46L0 29l1.9 11.48A9 9 0 0010.78 48h26.44a9 9 0 008.88-7.52L48 29zm-2.32 30H10.78a7 7 0 01-6.91-5.85L2.18 30h14.07l.42 1.47a7.62 7.62 0 0014.66 0l.42-1.47h14.07l-1.69 10.15A7 7 0 0137.22 46z"/></g></g></g></g></svg>