<svg xmlns="http://www.w3.org/2000/svg" viewBox="0 0 48 48"><defs><style>.cls-1{fill:#231f20}</style></defs><g id="Layer_2" data-name="Layer 2"><g id="Icons"><g id="Communication"><g id="Box_-_In" data-name="Box - In"><path class="cls-1" d="M34 14.71l-1.49-1.42-7.51 7.3V0h-2v20.59l-7.45-7.3L14 14.71 24 24l10-9.29z"/><path class="cls-1" d="M39.83 16.45l-1.66 1.1 7 10.45H30.25l-.84 2.92a5.63 5.63 0 01-10.82 0L17.75 28H2.87l7-10.45-1.66-1.1L0 29l1.9 11.48A9 9 0 0010.78 48h26.44a9 9 0 008.88-7.52L48 29zM37.22 46H10.78a7 7 0 01-6.91-5.85L2.18 30h14.07l.42 1.47a7.62 7.62 0 0014.66 0l.42-1.47h14.07l-1.69 10.15A7 7 0 0137.22 46z"/></g></g></g></g></svg>