<svg xmlns="http://www.w3.org/2000/svg" viewBox="0 0 48 48"><defs><style>.cls-1{fill:#231f20;}</style></defs><title>Box - Out</title><g id="Layer_2" data-name="Layer 2"><g id="Icons"><g id="Communication"><g id="Box_-_Out" data-name="Box - Out"><polygon class="cls-1" points="23 3.41 23 24 25 24 25 3.41 32.55 10.71 34 9.29 24 0 14 9.29 15.47 10.71 23 3.41"/><path class="cls-1" d="M39.54,16H33v2h5.46l6.67,10H30.25l-.84,2.92a5.63,5.63,0,0,1-10.82,0L17.75,28H2.87L9.54,18H15V16H8.46L0,29,1.9,40.48A9,9,0,0,0,10.78,48H37.22a9,9,0,0,0,8.88-7.52L48,29ZM37.22,46H10.78a7,7,0,0,1-6.91-5.85L2.18,30H16.25l.42,1.47a7.62,7.62,0,0,0,14.66,0L31.75,30H45.82L44.13,40.15A7,7,0,0,1,37.22,46Z"/></g></g></g></g></svg>