<svg xmlns="http://www.w3.org/2000/svg" viewBox="0 0 48 48"><defs><style>.cls-1{fill:#231f20;}</style></defs><title>Box - In</title><g id="Layer_2" data-name="Layer 2"><g id="Icons"><g id="Communication"><g id="Box_-_In" data-name="Box - In"><polygon class="cls-1" points="34 14.71 32.51 13.29 25 20.59 25 0 23 0 23 20.59 15.55 13.29 14 14.71 24 24 34 14.71"/><path class="cls-1" d="M39.83,16.45l-1.66,1.1,7,10.45H30.25l-.84,2.92a5.63,5.63,0,0,1-10.82,0L17.75,28H2.87l7-10.45-1.66-1.1L0,29,1.9,40.48A9,9,0,0,0,10.78,48H37.22a9,9,0,0,0,8.88-7.52L48,29ZM37.22,46H10.78a7,7,0,0,1-6.91-5.85L2.18,30H16.25l.42,1.47a7.62,7.62,0,0,0,14.66,0L31.75,30H45.82L44.13,40.15A7,7,0,0,1,37.22,46Z"/></g></g></g></g></svg>