<svg xmlns="http://www.w3.org/2000/svg" viewBox="0 0 48 48"><defs><style>.cls-1{fill:#231f20;}</style></defs><title>Box</title><g id="Layer_2" data-name="Layer 2"><g id="Icons"><g id="Communication"><path id="Box" class="cls-1" d="M39.75,0H8.25L0,29,1.9,40.48A9,9,0,0,0,10.78,48H37.22a9,9,0,0,0,8.88-7.52L48,29Zm-30,2h28.5l7.42,26H30.25l-.84,2.92a5.63,5.63,0,0,1-10.82,0L17.75,28H2.33ZM37.22,46H10.78a7,7,0,0,1-6.91-5.85L2.18,30H16.25l.42,1.47a7.62,7.62,0,0,0,14.66,0L31.75,30H45.82L44.13,40.15A7,7,0,0,1,37.22,46Z"/></g></g></g></svg>