<svg xmlns="http://www.w3.org/2000/svg" viewBox="0 0 38 48"><defs><style>.cls-1{fill:#231f20;}</style></defs><title>Brain</title><g id="Layer_2" data-name="Layer 2"><g id="Icons"><g id="Communication"><path id="Brain" class="cls-1" d="M38,17.05A16.83,16.83,0,0,0,32.88,4.91,17.66,17.66,0,0,0,3,17.58v2L0,31l5,1.1v4.65A5.31,5.31,0,0,0,10.37,42h5.81L18,48l17-4L33.1,29.17A17.62,17.62,0,0,0,38,17.05ZM19.25,45.56,17.58,40H10.37A3.31,3.31,0,0,1,7,36.74V30.53l-4.41-1L5,20V17.58A15.57,15.57,0,0,1,31.36,6.34a14.91,14.91,0,0,1,4.58,10.71A15.55,15.55,0,0,1,31.3,28.11l-.35.36,1.79,14.09Z"/></g></g></g></svg>