<svg xmlns="http://www.w3.org/2000/svg" viewBox="0 0 40 48"><defs><style>.cls-1{fill:#231f20;}</style></defs><title>Contacts</title><g id="Layer_2" data-name="Layer 2"><g id="Icons"><g id="Communication"><g id="Contacts"><path class="cls-1" d="M20.52,26.67l-1.67.72A15.46,15.46,0,0,1,16,25.13a15,15,0,0,1-2.24-2.91l.55-1.53a1.9,1.9,0,0,0,.11-1.08L13.48,16,9,16.65a16.47,16.47,0,0,0,4.74,10.6A16.27,16.27,0,0,0,24.52,32L25,27.31l-3.35-.78A1.76,1.76,0,0,0,20.52,26.67Z"/><path class="cls-1" d="M33,3H31.7c-.17-.19-.35-.38-.54-.56A8.88,8.88,0,0,0,24.44,0L0,1.55V46.44L24.43,48,25,48a8.88,8.88,0,0,0,6.14-2.44c.19-.18.37-.37.54-.56H33a7,7,0,0,0,7-7V10A7,7,0,0,0,33,3ZM29.79,44.1A6.94,6.94,0,0,1,24.56,46L2,44.57V3.43L24.56,2A7,7,0,0,1,32,9V39A6.9,6.9,0,0,1,29.79,44.1ZM38,38a5,5,0,0,1-4.94,5A8.91,8.91,0,0,0,34,39V9a8.91,8.91,0,0,0-.94-4A5,5,0,0,1,38,10Z"/></g></g></g></g></svg>