<svg xmlns="http://www.w3.org/2000/svg" viewBox="0 0 48 40"><defs><style>.cls-1{fill:#231f20}</style></defs><g id="Layer_2" data-name="Layer 2"><g id="Icons"><g id="Communication"><g id="Junk_Box" data-name="Junk Box"><path class="cls-1" d="M48 0H0v10h3.06L4.5 31.6a9 9 0 009 8.4h21a9 9 0 009-8.4L44.94 10H48zm-6.5 31.47a7 7 0 01-7 6.53h-21a7 7 0 01-7-6.53L5.07 10h37.86zM46 8H2V2h44z"/><path class="cls-1" d="M18.71 30.71l5.29-5.3 5.29 5.3 1.42-1.42-5.3-5.29 5.3-5.29-1.42-1.42-5.29 5.3-5.29-5.3-1.42 1.42 5.3 5.29-5.3 5.29 1.42 1.42z"/></g></g></g></g></svg>