<svg xmlns="http://www.w3.org/2000/svg" viewBox="0 0 48 40"><defs><style>.cls-1{fill:#231f20;}</style></defs><title>Junk Box</title><g id="Layer_2" data-name="Layer 2"><g id="Icons"><g id="Communication"><g id="Junk_Box" data-name="Junk Box"><path class="cls-1" d="M48,0H0V10H3.06L4.5,31.6a9,9,0,0,0,9,8.4h21a9,9,0,0,0,9-8.4L44.94,10H48ZM41.5,31.47a7,7,0,0,1-7,6.53h-21a7,7,0,0,1-7-6.53L5.07,10H42.93ZM46,8H2V2H46Z"/><polygon class="cls-1" points="18.71 30.71 24 25.41 29.29 30.71 30.71 29.29 25.41 24 30.71 18.71 29.29 17.29 24 22.59 18.71 17.29 17.29 18.71 22.59 24 17.29 29.29 18.71 30.71"/></g></g></g></g></svg>