<svg xmlns="http://www.w3.org/2000/svg" viewBox="0 0 44 44"><path d="M6 0a6 6 0 106 6 6 6 0 00-6-6zm0 10a4 4 0 114-4 4 4 0 01-4 4zm0 6a6 6 0 106 6 6 6 0 00-6-6zm0 10a4 4 0 114-4 4 4 0 01-4 4zM22 0a6 6 0 106 6 6 6 0 00-6-6zm0 10a4 4 0 114-4 4 4 0 01-4 4zm0 6a6 6 0 106 6 6 6 0 00-6-6zm0 10a4 4 0 114-4 4 4 0 01-4 4zm0 6a6 6 0 106 6 6 6 0 00-6-6zm0 10a4 4 0 114-4 4 4 0 01-4 4zm16-30a6 6 0 10-6-6 6 6 0 006 6zm0-10a4 4 0 11-4 4 4 4 0 014-4zm0 14a6 6 0 106 6 6 6 0 00-6-6zm0 10a4 4 0 114-4 4 4 0 01-4 4zM6 32a6 6 0 106 6 6 6 0 00-6-6zm0 10a4 4 0 114-4 4 4 0 01-4 4zm32-10a6 6 0 106 6 6 6 0 00-6-6zm0 10a4 4 0 114-4 4 4 0 01-4 4z" fill="#231f20" data-name="Layer 2"/></svg>