<svg xmlns="http://www.w3.org/2000/svg" viewBox="0 0 48 44"><defs><style>.cls-1{fill:#231f20;}</style></defs><title>Loudspeaker</title><g id="Layer_2" data-name="Layer 2"><g id="Icons"><g id="Communication"><path id="Loudspeaker" class="cls-1" d="M48,0,8.81,16H6A6,6,0,0,0,6,28H8.81l4.6,1.82-1.08,2.8a5,5,0,0,0,2.88,6.46l9.33,3.59a5.14,5.14,0,0,0,1.79.33A5,5,0,0,0,31,39.79l1-2.63L48,44ZM2,22a4,4,0,0,1,4-4H8v8H6A4,4,0,0,1,2,22ZM29.14,39.07a3,3,0,0,1-3.88,1.73l-9.33-3.58a3,3,0,0,1-1.73-3.88l1.08-2.79,14.87,5.88Zm16.86,2L10,26.32V17.68L46,3Z"/></g></g></g></svg>