<svg xmlns="http://www.w3.org/2000/svg" viewBox="0 0 42 48"><defs><style>.cls-1{fill:#231f20}</style></defs><g id="Layer_2" data-name="Layer 2"><g id="Icons"><g id="Communication"><g id="Man"><circle class="cls-1" cx="14.5" cy="24.5" r="2.5"/><circle class="cls-1" cx="27.5" cy="24.5" r="2.5"/><path class="cls-1" d="M25.89 35a5.47 5.47 0 01-9.78 0l-.22-.43-1.78.9.21.42a7.47 7.47 0 0013.36 0l.21-.42-1.78-.9z"/><path class="cls-1" d="M39 20.05V19A16 16 0 0024 3V0l-6.67.59A16 16 0 003 16.5v3.55a3.5 3.5 0 00-3 3.45V26a6 6 0 005 5.92 14.24 14.24 0 004.82 9.79l3.61 3.17a10.66 10.66 0 0015 0l3.66-3.21A14.24 14.24 0 0037 31.92 6 6 0 0042 26v-2.5a3.5 3.5 0 00-3-3.45zM17.53 2.58L22 2.11V5h1a14 14 0 0114 14v.75l-3.18-2.38-2-5.09-.34-.17A25 25 0 0021 10a25 25 0 00-10.45 2.11l-.34.17-2 5.09L5 19.75V16.5A14 14 0 0117.53 2.58zM40 26a4 4 0 01-4 4h-1v1a12.26 12.26 0 01-4.17 9.21l-3.71 3.25a8.66 8.66 0 01-12.29 0l-3.66-3.21A12.26 12.26 0 017 31v-1H6a4 4 0 01-4-4v-2.5a1.5 1.5 0 013 0V27h2v-3.5a3.52 3.52 0 00-.77-2.17l3.59-2.7 2-4.89A24.36 24.36 0 0121 12a24.29 24.29 0 019.22 1.75l2 4.88 3.59 2.7A3.52 3.52 0 0035 23.5V27h2v-3.5a1.5 1.5 0 013 0z"/></g></g></g></g></svg>