<svg xmlns="http://www.w3.org/2000/svg" viewBox="0 0 42 48"><defs><style>.cls-1{fill:#231f20;}</style></defs><title>Man</title><g id="Layer_2" data-name="Layer 2"><g id="Icons"><g id="Communication"><g id="Man"><circle class="cls-1" cx="14.5" cy="24.5" r="2.5"/><circle class="cls-1" cx="27.5" cy="24.5" r="2.5"/><path class="cls-1" d="M25.89,35a5.47,5.47,0,0,1-9.78,0l-.22-.43-1.78.9.21.42a7.47,7.47,0,0,0,13.36,0l.21-.42-1.78-.9Z"/><path class="cls-1" d="M39,20.05V19A16,16,0,0,0,24,3V0L17.33.59A16,16,0,0,0,3,16.5v3.55A3.5,3.5,0,0,0,0,23.5V26a6,6,0,0,0,5,5.92,14.24,14.24,0,0,0,4.82,9.79l3.61,3.17a10.66,10.66,0,0,0,15,0l3.66-3.21A14.24,14.24,0,0,0,37,31.92,6,6,0,0,0,42,26V23.5A3.5,3.5,0,0,0,39,20.05ZM17.53,2.58,22,2.11V5h1A14,14,0,0,1,37,19v.75l-3.18-2.38-2-5.09-.34-.17A25,25,0,0,0,21,10a25,25,0,0,0-10.45,2.11l-.34.17-2,5.09L5,19.75V16.5A14,14,0,0,1,17.53,2.58ZM40,26a4,4,0,0,1-4,4H35v1a12.26,12.26,0,0,1-4.17,9.21l-3.71,3.25a8.66,8.66,0,0,1-12.29,0l-3.66-3.21A12.26,12.26,0,0,1,7,31V30H6a4,4,0,0,1-4-4V23.5a1.5,1.5,0,0,1,3,0V27H7V23.5a3.52,3.52,0,0,0-.77-2.17l3.59-2.7,2-4.89A24.36,24.36,0,0,1,21,12a24.29,24.29,0,0,1,9.22,1.75l2,4.88,3.59,2.7A3.52,3.52,0,0,0,35,23.5V27h2V23.5a1.5,1.5,0,0,1,3,0Z"/></g></g></g></g></svg>