<svg xmlns="http://www.w3.org/2000/svg" viewBox="0 0 48 48"><defs><style>.cls-1{fill:#231f20;}</style></defs><title>Message - Smile</title><g id="Layer_2" data-name="Layer 2"><g id="Icons"><g id="Communication"><g id="Message_-_Smile" data-name="Message - Smile"><path class="cls-1" d="M24,0A24,24,0,0,0,3,35.57L0,48l12.13-3.14A24,24,0,1,0,24,0Zm0,46a22,22,0,0,1-11.21-3.07l-.37-.22L2.83,45.17l2.29-9.88-.21-.35A22,22,0,1,1,24,46Z"/><path class="cls-1" d="M24,32a9,9,0,0,1-9-9H13a11,11,0,0,0,22,0H33A9,9,0,0,1,24,32Z"/></g></g></g></g></svg>