<svg xmlns="http://www.w3.org/2000/svg" viewBox="0 0 48 48"><defs><style>.cls-1{fill:#231f20;}</style></defs><title>Note</title><g id="Layer_2" data-name="Layer 2"><g id="Icons"><g id="Communication"><g id="Note"><path class="cls-1" d="M0,0V31a9,9,0,0,0,9,9h6.59L24,48l8.41-8H39a9,9,0,0,0,9-9V0ZM46,31a7,7,0,0,1-7,7H31.59L24,45.17,16.41,38H9a7,7,0,0,1-7-7V2H46Z"/><rect class="cls-1" x="11" y="10" width="26" height="2"/><rect class="cls-1" x="11" y="18" width="26" height="2"/><rect class="cls-1" x="11" y="26" width="20" height="2"/></g></g></g></g></svg>