<svg xmlns="http://www.w3.org/2000/svg" viewBox="0 0 18 48"><defs><style>.cls-1{fill:#231f20;}</style></defs><title>People</title><g id="Layer_2" data-name="Layer 2"><g id="Icons"><g id="Communication"><g id="People"><path class="cls-1" d="M9,10A5,5,0,1,0,4,5,5,5,0,0,0,9,10ZM9,2A3,3,0,1,1,6,5,3,3,0,0,1,9,2Z"/><path class="cls-1" d="M9,12a9.1,9.1,0,0,0-9,9v8.46l4.34,2.91L6,48h6l1.72-15.73L18,28.65V21A9.12,9.12,0,0,0,9,12Zm7,15.72-4.19,3.54L10.19,46H7.81L6.23,31.2,2,28.37V21a7.07,7.07,0,0,1,7-7,7.08,7.08,0,0,1,7,7Z"/></g></g></g></g></svg>