<svg xmlns="http://www.w3.org/2000/svg" viewBox="0 0 30 48"><defs><style>.cls-1{fill:#231f20;}</style></defs><title>People Female</title><g id="Layer_2" data-name="Layer 2"><g id="Icons"><g id="Communication"><g id="People_Female" data-name="People Female"><path class="cls-1" d="M15,10a5,5,0,1,0-5-5A5,5,0,0,0,15,10Zm0-8a3,3,0,1,1-3,3A3,3,0,0,1,15,2Z"/><path class="cls-1" d="M23,19.44C21.33,15.78,19.64,12,15,12c-4.33,0-6,3.5-7.68,6.88L0,33.64l9.68,1.68L12.55,48h5.21l1.93-12.72L30,33.06Zm-5.1,14.19L16,46H14.21L11.4,33.59,3,32.13,8.92,20.27l.26-.53C10.92,16.18,12.13,14,15,14c3.13,0,4.34,2.37,6.09,6.29L27,31.67Z"/></g></g></g></g></svg>