<svg xmlns="http://www.w3.org/2000/svg" viewBox="0 0 64.55 27.06"><title>pet bowl</title><g id="Layer_2" data-name="Layer 2"><g id="Icons"><g id="Communication"><path d="M64.45,21.84l-6.3-18C57,.18,36.47,0,32.36,0A159.42,159.42,0,0,0,14.61.89c-6.87.84-8,2-8.12,2.92L.09,21.87v0s0,0,0,.07a.38.38,0,0,0,0,.17c0,1.22,1.19,2.62,10,3.77a192.47,192.47,0,0,0,22.28,1.14,194.67,194.67,0,0,0,22.29-1.14c8.29-1.07,10-2.28,10-3.77A.42.42,0,0,0,64.45,21.84ZM8.66,4.1c2.08-.94,10.66-2.23,23.7-2.23,13.4,0,21.73,1.27,23.71,2.23-1.92,1-10.21,2.22-23.71,2.22S10.65,5.05,8.66,4.1ZM62.82,22.27c-1.72,1.31-13.08,3.08-30.46,3.08a184.06,184.06,0,0,1-21.44-1.09c-5.59-.68-8.23-1.46-8.87-2L7.89,5.81c1.15.57,3.27,1,6.8,1.48a157,157,0,0,0,17.75.9,157.08,157.08,0,0,0,17.75-.9A24.74,24.74,0,0,0,57,5.81Z"/><path d="M32.27,14a4.5,4.5,0,1,0,4.5,4.5A4.51,4.51,0,0,0,32.27,14Zm0,7a2.5,2.5,0,1,1,2.5-2.5A2.51,2.51,0,0,1,32.27,21Z"/><circle cx="27.1" cy="13.53" r="1.5"/><path d="M31.93,13a1.5,1.5,0,1,0-1.32-1.66A1.5,1.5,0,0,0,31.93,13Z"/><path d="M37.27,12a1.5,1.5,0,1,0,1.32,1.66A1.5,1.5,0,0,0,37.27,12Z"/></g></g></g></svg>