<svg xmlns="http://www.w3.org/2000/svg" viewBox="0 0 48 48"><path d="M37.52 30.31a6.16 6.16 0 00-3.84.45l-4.31 1.86a42.11 42.11 0 01-7.64-6.06 41.15 41.15 0 01-6-7.75l1.41-3.88a6.31 6.31 0 00.36-3.73L14.64 0 0 2.11.06 3a48.33 48.33 0 0013.87 31 47.64 47.64 0 0031.56 14h.95L48 32.76zm7.13 15.59a45.54 45.54 0 01-29.3-13.25A46.3 46.3 0 012.11 3.82l11-1.59 2.38 9.41a4.29 4.29 0 01-.28 2.56L13.5 19l.25.41A43.53 43.53 0 0020.31 28a44.89 44.89 0 008.43 6.62l.44.29 5.32-2.29a4.16 4.16 0 012.59-.33l8.75 2z" fill="#231f20" data-name="Layer 2"/></svg>