<svg xmlns="http://www.w3.org/2000/svg" viewBox="0 0 48 48"><defs><style>.cls-1{fill:#231f20;}</style></defs><title>Phone</title><g id="Layer_2" data-name="Layer 2"><g id="Icons"><g id="Communication"><path id="Phone" class="cls-1" d="M37.52,30.31a6.16,6.16,0,0,0-3.84.45l-4.31,1.86a42.11,42.11,0,0,1-7.64-6.06,41.15,41.15,0,0,1-6-7.75l1.41-3.88a6.31,6.31,0,0,0,.36-3.73L14.64,0,0,2.11.06,3a48.33,48.33,0,0,0,13.87,31A47.64,47.64,0,0,0,45.49,48l.95,0L48,32.76ZM44.65,45.9a45.54,45.54,0,0,1-29.3-13.25A46.3,46.3,0,0,1,2.11,3.82l11-1.59,2.38,9.41a4.29,4.29,0,0,1-.28,2.56L13.5,19l.25.41A43.53,43.53,0,0,0,20.31,28a44.89,44.89,0,0,0,8.43,6.62l.44.29,5.32-2.29a4.16,4.16,0,0,1,2.59-.33l8.75,2Z"/></g></g></g></svg>