<svg xmlns="http://www.w3.org/2000/svg" viewBox="0 0 48 46"><defs><style>.cls-1{fill:#231f20;}</style></defs><title>Quill</title><g id="Layer_2" data-name="Layer 2"><g id="Icons"><g id="Communication"><path id="Quill" class="cls-1" d="M48,3.88v-1A21.27,21.27,0,0,0,32.29.63a19.49,19.49,0,0,0-12,9.33L11,26.46h0L0,45l1.63,1L11.88,28.28a19.69,19.69,0,0,0,9,2.21A20.15,20.15,0,0,0,38.35,20.4l2.93-4.85L37.18,13h5.37ZM30.82,11l7.82,5.15-2,3.41a18,18,0,0,1-11,8.39,17.8,17.8,0,0,1-12.76-1.36l9-15.65A17.53,17.53,0,0,1,45.58,4.13L41.45,11Z"/></g></g></g></svg>