<svg xmlns="http://www.w3.org/2000/svg" viewBox="0 0 50 36"><defs><style>.cls-1{fill:#231f20;}</style></defs><title>Reply All - Alt</title><g id="Layer_2" data-name="Layer 2"><g id="Icons"><g id="Communication"><path id="Reply_All_-_Alt" data-name="Reply All - Alt" class="cls-1" d="M30,11V0L20,8V0L0,17,20,34V25.57L30,34V23c8.07.26,14.65,3.69,18.14,9.5L50,36V31.53A20.77,20.77,0,0,0,30,11ZM18,29.82,3,17,18,4.09V9.58L9,17l9,6.85ZM29,21H28v8.82L12,17,28,4.09V13h1A18.9,18.9,0,0,1,47.77,28.62C43.48,23.74,36.83,21,29,21Z"/></g></g></g></svg>