<svg xmlns="http://www.w3.org/2000/svg" viewBox="0 0 48 48"><defs><style>.cls-1{fill:#231f20;}</style></defs><title>User Female</title><g id="Layer_2" data-name="Layer 2"><g id="Icons"><g id="Communication"><g id="User_Female" data-name="User Female"><path class="cls-1" d="M46.77,38.84A9.32,9.32,0,0,0,39,30.91L33.35,30a8.47,8.47,0,0,0-6.11,1.25L24,33.7l-3.28-2.43a8,8,0,0,0-6.08-1.21l-5.59.87a9.3,9.3,0,0,0-7.82,7.92L0,48H48ZM2.16,46l1-6.86a7.32,7.32,0,0,1,6.15-6.23L14.92,32a6,6,0,0,1,4.61.84L24,36.19l4.43-3.33A6.23,6.23,0,0,1,33.08,32l5.59.9a7.33,7.33,0,0,1,6.12,6.24L45.84,46Z"/><path class="cls-1" d="M13.64,24.47A43.5,43.5,0,0,0,24,26a43.36,43.36,0,0,0,10.38-1.53C40,23,40,22.67,40,22V21H39a3.75,3.75,0,0,1-2.8-1.1C34,17.68,34,12.79,34,11.19V11C34,4.73,29.7,0,24,0S14,4.73,14,11v.46c0,2.06.05,6.35-2,8.4A4,4,0,0,1,9,21H8v1C8,22.67,8,23,13.64,24.47Zm-.2-3.2C16.06,18.63,16,13.78,16,11.45V11c0-5.21,3.36-9,8-9s8,3.79,8,9v.18c0,1.81,0,7.32,2.78,10.13a6,6,0,0,0,.88.73A44.41,44.41,0,0,1,24,24a44.26,44.26,0,0,1-11.55-1.93A5.88,5.88,0,0,0,13.44,21.27Z"/></g></g></g></g></svg>