<svg xmlns="http://www.w3.org/2000/svg" viewBox="0 0 48 48"><g data-name="Layer 2"><path d="M46.77 38.84A9.32 9.32 0 0039 30.91L33.35 30a8.47 8.47 0 00-6.11 1.25L24 33.7l-3.28-2.43a8 8 0 00-6.08-1.21l-5.59.87a9.3 9.3 0 00-7.82 7.92L0 48h48zM2.16 46l1-6.86a7.32 7.32 0 016.15-6.23l5.61-.91a6 6 0 014.61.84L24 36.19l4.43-3.33a6.23 6.23 0 014.65-.86l5.59.9a7.33 7.33 0 016.12 6.24L45.84 46zm11.48-21.53A43.5 43.5 0 0024 26a43.36 43.36 0 0010.38-1.53C40 23 40 22.67 40 22v-1h-1a3.75 3.75 0 01-2.8-1.1C34 17.68 34 12.79 34 11.19V11c0-6.27-4.3-11-10-11S14 4.73 14 11v.46c0 2.06.05 6.35-2 8.4A4 4 0 019 21H8v1c0 .67 0 1 5.64 2.47zm-.2-3.2c2.62-2.64 2.56-7.49 2.56-9.82V11c0-5.21 3.36-9 8-9s8 3.79 8 9v.18c0 1.81 0 7.32 2.78 10.13a6 6 0 00.88.73A44.41 44.41 0 0124 24a44.26 44.26 0 01-11.55-1.93 5.88 5.88 0 00.99-.8z" fill="#231f20" data-name="User Female"/></g></svg>