<svg xmlns="http://www.w3.org/2000/svg" viewBox="0 0 48 48"><defs><style>.cls-1{fill:#231f20;}</style></defs><title>User Alt</title><g id="Layer_2" data-name="Layer 2"><g id="Icons"><g id="Communication"><g id="User_Alt" data-name="User Alt"><path class="cls-1" d="M24,0A24,24,0,1,0,48,24,24,24,0,0,0,24,0Zm0,2A22,22,0,0,1,41.73,37C41,34.6,39,32.67,36,31.72L24,29.48,12.15,31.71A7.76,7.76,0,0,0,6.27,37,22,22,0,0,1,24,2Zm0,44A22,22,0,0,1,8,39.08v-.25c0-3,2.39-4.62,4.58-5.17L24,31.52l11.41,2.12c1.42.46,4.59,1.85,4.59,5.18v.26A22,22,0,0,1,24,46Z"/><path class="cls-1" d="M16.8,18.91C17.57,23.22,20.4,26,24,26s6.38-2.71,7.2-7.07c.13-.67.76-4,.79-4.84a7.59,7.59,0,0,0-2.11-5.6,8.18,8.18,0,0,0-11.81.06A7.43,7.43,0,0,0,16,14.1C16.06,14.93,16.73,18.52,16.8,18.91Zm2.72-9A6.2,6.2,0,0,1,24,8a6.11,6.11,0,0,1,4.43,1.88A5.51,5.51,0,0,1,30,14c0,.52-.47,3.07-.76,4.55C28.74,21.19,27.1,24,24,24s-4.78-2.93-5.23-5.44c-.28-1.49-.73-4-.76-4.57A5.42,5.42,0,0,1,19.52,9.92Z"/></g></g></g></g></svg>