<svg xmlns="http://www.w3.org/2000/svg" viewBox="0 0 56 40"><defs><style>.cls-1{fill:#231f20;}</style></defs><title>Users</title><g id="Layer_2" data-name="Layer 2"><g id="Icons"><g id="Communication"><g id="Users"><path class="cls-1" d="M11.6,13.57c.81,4.51,3.81,7.43,7.64,7.43s6.76-2.84,7.64-7.42c.13-.7.81-4.24.85-5.1a7.87,7.87,0,0,0-2.21-5.82,8.77,8.77,0,0,0-12.63,0,7.75,7.75,0,0,0-2.14,5.78C10.8,9.37,11.52,13.15,11.6,13.57Zm2.75-9.48a6.76,6.76,0,0,1,9.73,0,5.9,5.9,0,0,1,1.65,4.35c0,.55-.51,3.25-.82,4.81C24.38,16,22.61,19,19.24,19s-5.19-3.12-5.68-5.8c-.3-1.56-.78-4.26-.81-4.82A5.65,5.65,0,0,1,14.35,4.09Z"/><path class="cls-1" d="M31.46,25.72,19.24,24.08,7.09,25.69c-3,.59-6.27,2.68-6.7,6L0,40H38.77l-.48-7.91C38.08,28.82,35.54,26.44,31.46,25.72ZM1.85,38,2.38,32c.29-2.33,2.84-3.86,5-4.29L19.23,26.1l11.92,1.59c1.47.27,4.93,1.23,5.15,4.52L36.65,38Z"/><path class="cls-1" d="M33.93,17.46c.67,3.67,3.15,6,6.31,6s5.59-2.31,6.31-6c.1-.55.65-3.36.68-4h0a6.38,6.38,0,0,0-1.79-4.72A7.27,7.27,0,0,0,35,8.74a6.22,6.22,0,0,0-1.74,4.69C33.29,14.12,33.82,16.92,33.93,17.46Zm2.51-7.35a5.25,5.25,0,0,1,3.8-1.61A5.18,5.18,0,0,1,44,10.07a4.35,4.35,0,0,1,1.24,3.25c0,.41-.39,2.45-.65,3.77-.2,1-1.1,4.41-4.34,4.41-2.61,0-4-2.27-4.35-4.41-.24-1.23-.62-3.35-.65-3.78A4.27,4.27,0,0,1,36.44,10.11Z"/><path class="cls-1" d="M44,40H56l-.11-7.52c-.2-2.71-2.3-4.68-5.66-5.28L40.36,26l-.24,2,9.82,1.18c1.12.2,3.77.95,4,3.44L54.18,38H44Z"/></g></g></g></g></svg>