<svg xmlns="http://www.w3.org/2000/svg" viewBox="0 0 56 40"><path d="M11.6 13.57c.81 4.51 3.81 7.43 7.64 7.43s6.76-2.84 7.64-7.42c.13-.7.81-4.24.85-5.1a7.87 7.87 0 00-2.21-5.82 8.77 8.77 0 00-12.63 0 7.75 7.75 0 00-2.14 5.78c.05.93.77 4.71.85 5.13zm2.75-9.48a6.76 6.76 0 019.73 0 5.9 5.9 0 011.65 4.35c0 .55-.51 3.25-.82 4.81C24.38 16 22.61 19 19.24 19s-5.19-3.12-5.68-5.8c-.3-1.56-.78-4.26-.81-4.82a5.65 5.65 0 011.6-4.29zm17.11 21.63l-12.22-1.64-12.15 1.61c-3 .59-6.27 2.68-6.7 6L0 40h38.77l-.48-7.91c-.21-3.27-2.75-5.65-6.83-6.37zM1.85 38l.53-6c.29-2.33 2.84-3.86 5-4.29l11.85-1.61 11.92 1.59c1.47.27 4.93 1.23 5.15 4.52l.35 5.79zm32.08-20.54c.67 3.67 3.15 6 6.31 6s5.59-2.31 6.31-6c.1-.55.65-3.36.68-4a6.38 6.38 0 00-1.79-4.72 7.27 7.27 0 00-10.44 0 6.22 6.22 0 00-1.74 4.69c.03.69.56 3.49.67 4.03zm2.51-7.35a5.25 5.25 0 013.8-1.61A5.18 5.18 0 0144 10.07a4.35 4.35 0 011.24 3.25c0 .41-.39 2.45-.65 3.77-.2 1-1.1 4.41-4.34 4.41-2.61 0-4-2.27-4.35-4.41-.24-1.23-.62-3.35-.65-3.78a4.27 4.27 0 011.19-3.2zM44 40h12l-.11-7.52c-.2-2.71-2.3-4.68-5.66-5.28L40.36 26l-.24 2 9.82 1.18c1.12.2 3.77.95 4 3.44l.24 5.38H44z" fill="#231f20" data-name="Layer 2"/></svg>