<svg xmlns="http://www.w3.org/2000/svg" viewBox="0 0 48 48"><defs><style>.cls-1{fill:#231f20;}</style></defs><title>User</title><g id="Layer_2" data-name="Layer 2"><g id="Icons"><g id="Communication"><g id="User"><path class="cls-1" d="M14.58,16.83C15.59,22.4,19.29,26,24,26s8.33-3.51,9.42-9.16c.1-.54,1-5.31,1.07-6.4a9.62,9.62,0,0,0-2.71-7.15,10.86,10.86,0,0,0-15.63.06,9.47,9.47,0,0,0-2.63,7.1C13.58,11.53,14.48,16.3,14.58,16.83Zm3-12.1a8.85,8.85,0,0,1,12.73-.06,7.62,7.62,0,0,1,2.16,5.68c0,.72-.64,4.05-1,6.11-.7,3.65-3,7.54-7.46,7.54S17.18,20,16.55,16.46c-.39-2.06-1-5.4-1-6.13A7.49,7.49,0,0,1,17.6,4.73Z"/><path class="cls-1" d="M46.88,38.62c-.48-2.8-2.84-4.94-6.37-5.73L24,30,7.45,32.91c-3.42.72-5.84,2.91-6.34,5.76L0,48H48ZM2.14,46l.95-7c.41-2.38,2.73-3.69,4.74-4.1L24,32l16.12,2.83c1.28.29,4.3,1.27,4.78,4.07l1,7.08Z"/></g></g></g></g></svg>