<svg xmlns="http://www.w3.org/2000/svg" viewBox="0 0 46 47.99"><defs><style>.cls-1{fill:#231f20;}</style></defs><title>Woman</title><g id="Layer_2" data-name="Layer 2"><g id="Icons"><g id="Communication"><g id="Woman"><path class="cls-1" d="M39.64,7A15,15,0,0,0,28.41,2l-2-2H26C17.61,0,11.16,2.44,6.83,7.25,1.08,13.63-1,24.34.48,39.1l.07.67L13.82,43.7l2.07,1.73A11.08,11.08,0,0,0,23,48a11.25,11.25,0,0,0,7.2-2.62c.61-.51,1.19-1,1.75-1.62C36.71,42.33,45.39,40,45.39,40l.1-.9C47.05,24.08,45,13,39.64,7ZM28.83,43.89a9.12,9.12,0,0,1-11.66,0l-3.68-3.07A12.43,12.43,0,0,1,9,31.23V22.28a52.27,52.27,0,0,0,8.89-3c4.47-1.88,7.47-3.9,9-6C29.13,17.61,35,21.09,37,22.1v4.43A22.51,22.51,0,0,1,28.83,43.89Zm14.73-5.67c-1.08.31-3.54,1-9.26,2.73A24.38,24.38,0,0,0,39,26.53V20.88l-.55-.28C35.54,19.15,28,14,28,10H26c0,5-13.16,9.32-18.23,10.53L7,20.71V31.23a14.48,14.48,0,0,0,3.48,9.4l-8.07-2.4c-1.35-13.83.64-23.8,5.9-29.65C12.19,4.29,18,2.08,25.57,2l2,2H28A13.11,13.11,0,0,1,38.16,8.35C43.08,13.8,44.94,24.12,43.56,38.22Z"/><path class="cls-1" d="M19,25.5A2.5,2.5,0,1,0,16.5,28,2.5,2.5,0,0,0,19,25.5Z"/><circle class="cls-1" cx="29.5" cy="25.5" r="2.5"/><path class="cls-1" d="M26.83,36a4.6,4.6,0,0,1-7.66,0l-.34-.5-1.66,1.11.33.5a6.61,6.61,0,0,0,11,0l.34-.5-1.66-1.11Z"/></g></g></g></g></svg>