<svg xmlns="http://www.w3.org/2000/svg" viewBox="0 0 46 47.99"><defs><style>.cls-1{fill:#231f20}</style></defs><g id="Layer_2" data-name="Layer 2"><g id="Icons"><g id="Communication"><g id="Woman"><path class="cls-1" d="M39.64 7a15 15 0 00-11.23-5l-2-2H26C17.61 0 11.16 2.44 6.83 7.25 1.08 13.63-1 24.34.48 39.1l.07.67 13.27 3.93 2.07 1.73A11.08 11.08 0 0023 48a11.25 11.25 0 007.2-2.62c.61-.51 1.19-1 1.75-1.62C36.71 42.33 45.39 40 45.39 40l.1-.9C47.05 24.08 45 13 39.64 7zM28.83 43.89a9.12 9.12 0 01-11.66 0l-3.68-3.07A12.43 12.43 0 019 31.23v-8.95a52.27 52.27 0 008.89-3c4.47-1.88 7.47-3.9 9-6C29.13 17.61 35 21.09 37 22.1v4.43a22.51 22.51 0 01-8.17 17.36zm14.73-5.67c-1.08.31-3.54 1-9.26 2.73A24.38 24.38 0 0039 26.53v-5.65l-.55-.28C35.54 19.15 28 14 28 10h-2c0 5-13.16 9.32-18.23 10.53l-.77.18v10.52a14.48 14.48 0 003.48 9.4l-8.07-2.4c-1.35-13.83.64-23.8 5.9-29.65C12.19 4.29 18 2.08 25.57 2l2 2H28a13.11 13.11 0 0110.16 4.35c4.92 5.45 6.78 15.77 5.4 29.87z"/><path class="cls-1" d="M19 25.5a2.5 2.5 0 10-2.5 2.5 2.5 2.5 0 002.5-2.5z"/><circle class="cls-1" cx="29.5" cy="25.5" r="2.5"/><path class="cls-1" d="M26.83 36a4.6 4.6 0 01-7.66 0l-.34-.5-1.66 1.11.33.5a6.61 6.61 0 0011 0l.34-.5-1.66-1.11z"/></g></g></g></g></svg>