<svg width="90" height="30" xmlns="http://www.w3.org/2000/svg"><path d="M73.615 18.115l-3 11.135h2.943l3-11.135zm1.212-4.615l-.692 2.538h3l.692-2.538zm-41.712 0l-4.269 15.75h2.885L36 13.5zm16.673 7.442c-.576 2.25 1.616 3 3 3.577 1.847.808 2.597 1.154 2.424 1.846-.289.981-1.154 1.327-3.058 1.327-1.616 0-3.173-.75-3.635-1.327l-.75 2.712c1.443.404 3 .635 4.5.635 2.423 0 5.308-.981 6-3.52.635-2.25-1.615-3.057-3.288-3.807-.866-.347-2.366-.808-2.135-1.731.058-.289.289-1.154 2.712-1.154 1.904 0 3.346.808 3.577 1.212l.692-2.539a15.063 15.063 0 00-3.98-.52c-3.924.059-5.655 1.732-6.059 3.29m11.308-.001c-.577 2.25 1.673 3 3 3.577 1.846.808 2.596 1.154 2.423 1.846-.23.981-1.154 1.327-3.057 1.327-1.616 0-3.174-.75-3.693-1.327l-.692 2.712c1.442.404 3 .635 4.5.635 2.423 0 5.308-.981 6-3.52.577-2.25-1.615-3.057-3.289-3.807-.865-.347-2.365-.808-2.134-1.731.058-.289.288-1.154 2.711-1.154 1.962 0 3.347.808 3.577 1.212l.693-2.539a15.063 15.063 0 00-3.981-.52c-3.98.059-5.654 1.732-6.058 3.29M78 20.942c-.577 2.25 1.673 3 3 3.577 1.846.808 2.596 1.154 2.423 1.846-.288.981-1.154 1.327-3.058 1.327-1.615 0-3.173-.75-3.692-1.327l-.692 2.712c1.442.404 3 .635 4.5.635 2.423 0 5.307-.981 6-3.52.634-2.25-1.616-3.057-3.289-3.807-.865-.347-2.365-.808-2.134-1.731.057-.289.288-1.154 2.711-1.154 1.962 0 3.346.808 3.577 1.212l.692-2.539a15.063 15.063 0 00-3.98-.52c-3.981.059-5.654 1.732-6.058 3.29M20.48 18l-.922.173-.635 2.25.346-.115c1.327-.52 2.712-.75 4.154-.808.98 0 1.615.173 1.904.577.173.288.23.635.115.98l-.057.116v.115l-.173.693h-.404c-6.693 0-8.712 2.192-9.173 3.98-.75 2.712 1.673 3.693 3.98 3.693 1.5 0 3-.52 4.154-1.442 0 .288 0 .634.058.923l.058.115h2.942a.796.796 0 01-.173-.23c-.116-.693 0-1.443.23-2.078l1.328-5.019c.75-2.827-.635-4.211-4.27-4.211a13.59 13.59 0 00-3.461.288m-1.962 7.962c.346-1.212 2.366-1.847 5.827-1.847h.346c-.057.116-.057.289-.057.289a4.227 4.227 0 01-4.212 3c-.692 0-2.25-.173-1.904-1.442M39.462 18l-.924.173-.634 2.25.346-.115c1.327-.52 2.712-.75 4.154-.808.98 0 1.615.173 1.904.577.173.288.23.635.115.98v.231l-.173.693h-.404c-6.692 0-8.711 2.192-9.173 3.98-.75 2.712 1.673 3.693 3.98 3.693 1.5 0 2.943-.52 4.155-1.442 0 .288 0 .634.057.923v.115h2.943a.796.796 0 01-.173-.23c-.116-.693 0-1.443.23-2.078l1.327-5.019c.75-2.827-.634-4.211-4.269-4.211-1.154-.058-2.308.057-3.461.288m-1.904 7.962c.346-1.212 2.365-1.847 5.827-1.847h.346c-.058.116-.058.289-.058.289a4.227 4.227 0 01-4.211 3c-.75 0-2.25-.173-1.904-1.442M5.596 29.308h5.077l-1.558-4.385zM0 13.5l5.25 14.77 3.52-4.443L5.076 13.5zM28.5.52L9.808 24l1.5 4.27L29.019.52zm60.115 26.422c-.75 0-1.327.577-1.327 1.327s.577 1.327 1.327 1.327 1.327-.577 1.327-1.327c0-.692-.577-1.327-1.327-1.327zm-1.038 1.327c0-.577.461-1.096 1.096-1.154.635 0 1.154.52 1.154 1.154 0 .635-.52 1.154-1.154 1.154-.635-.058-1.096-.52-1.096-1.154zm.577-.692v1.5h.23v-.635h.174c.173 0 .288.058.288.231v.058c0 .115.058.288.116.404h.23c-.057-.116-.057-.231-.115-.347-.058-.23-.115-.346-.23-.346.172-.057.288-.173.288-.346a.44.44 0 00-.116-.288 1.087 1.087 0 00-.461-.116c-.116-.115-.289-.115-.404-.115zm.23.173h.174c.288 0 .346.115.346.288 0 .174-.173.231-.346.231h-.173v-.519z" fill="#FFF"/></svg>