<svg xmlns="http://www.w3.org/2000/svg" viewBox="0 0 48 48"><defs><style>.cls-1{fill:#231f20;}</style></defs><title>Attachment</title><g id="Layer_2" data-name="Layer 2"><g id="Icons"><g id="General"><path id="Attachment" class="cls-1" d="M44.49,3.51a12,12,0,0,0-17,0l-24,24a12,12,0,0,0,17,17L36.72,28.24A7,7,0,0,0,31.77,16.3a6.94,6.94,0,0,0-4.94,2.05L9.87,35.3l1.41,1.42,17-17a5,5,0,0,1,7.06,7.07L19.05,43.07a10,10,0,0,1-14.12,0A10,10,0,0,1,4.93,29l24-24A10,10,0,0,1,46,12a9.89,9.89,0,0,1-2.93,7.06l-.35.36,1.41,1.41.36-.35a12,12,0,0,0,0-17Z"/></g></g></g></svg>