<svg xmlns="http://www.w3.org/2000/svg" viewBox="0 0 48 34"><defs><style>.cls-1{fill:#231f20}</style></defs><g id="Layer_2" data-name="Layer 2"><g id="Icons"><g id="General"><g id="Backspace"><path class="cls-1" d="M39.08 0H16.85L0 17l16.85 17h22.23C44 34 48 29.72 48 24.47V9.53C48 4.28 44 0 39.08 0zM46 24.47c0 4.15-3.1 7.53-6.92 7.53h-21.4L2.8 17 17.68 2h21.4C42.9 2 46 5.38 46 9.53z"/><path class="cls-1" d="M33.29 10.29L28 15.59l-5.29-5.3-1.42 1.42 5.3 5.29-5.3 5.29 1.42 1.42 5.29-5.3 5.29 5.3 1.42-1.42-5.3-5.29 5.3-5.29-1.42-1.42z"/></g></g></g></g></svg>