<svg xmlns="http://www.w3.org/2000/svg" viewBox="0 0 48 34"><defs><style>.cls-1{fill:#231f20;}</style></defs><title>Backspace</title><g id="Layer_2" data-name="Layer 2"><g id="Icons"><g id="General"><g id="Backspace"><path class="cls-1" d="M39.08,0H16.85L0,17,16.85,34H39.08C44,34,48,29.72,48,24.47V9.53C48,4.28,44,0,39.08,0ZM46,24.47C46,28.62,42.9,32,39.08,32H17.68L2.8,17,17.68,2h21.4C42.9,2,46,5.38,46,9.53Z"/><polygon class="cls-1" points="33.29 10.29 28 15.59 22.71 10.29 21.29 11.71 26.59 17 21.29 22.29 22.71 23.71 28 18.41 33.29 23.71 34.71 22.29 29.41 17 34.71 11.71 33.29 10.29"/></g></g></g></g></svg>