<svg xmlns="http://www.w3.org/2000/svg" viewBox="0 0 48 34"><defs><style>.cls-1{fill:#231f20;}</style></defs><title>Binoculars</title><g id="Layer_2" data-name="Layer 2"><g id="Icons"><g id="General"><path id="Binoculars" class="cls-1" d="M46.67,19h0l-8.41-16A5.88,5.88,0,0,0,33.07,0a5.86,5.86,0,0,0-5.85,6.11l.06,1.34a6.14,6.14,0,0,0-6.56,0l.06-1.34a5.86,5.86,0,0,0-11-3L1.32,19h0A9.91,9.91,0,0,0,0,24a10,10,0,0,0,20,.23A4.15,4.15,0,0,1,24,22a4.16,4.16,0,0,1,4,2.23A10,10,0,1,0,46.67,19ZM30.29,3.19a3.88,3.88,0,0,1,6.2.82l5.78,11a10,10,0,0,0-12.51,3.38L29.22,6A3.78,3.78,0,0,1,30.29,3.19Zm-18.77.87A3.84,3.84,0,0,1,14.93,2a3.86,3.86,0,0,1,3.85,4l-.54,12.33A10,10,0,0,0,10,14a9.87,9.87,0,0,0-4.27,1ZM10,32a8,8,0,1,1,8-8A8,8,0,0,1,10,32ZM24,20a6.59,6.59,0,0,0-3.87,1.12l.46-10.77a4.07,4.07,0,0,1,6.82,0l.46,10.77A6.59,6.59,0,0,0,24,20ZM38,32a8,8,0,1,1,8-8A8,8,0,0,1,38,32Z"/></g></g></g></svg>