<svg xmlns="http://www.w3.org/2000/svg" viewBox="0 0 48 34"><path d="M46.67 19L38.26 3a5.88 5.88 0 00-5.19-3 5.86 5.86 0 00-5.85 6.11l.06 1.34a6.14 6.14 0 00-6.56 0l.06-1.34a5.86 5.86 0 00-11-3L1.32 19A9.91 9.91 0 000 24a10 10 0 0020 .23A4.15 4.15 0 0124 22a4.16 4.16 0 014 2.23A10 10 0 1046.67 19zM30.29 3.19a3.88 3.88 0 016.2.82l5.78 11a10 10 0 00-12.51 3.38L29.22 6a3.78 3.78 0 011.07-2.81zm-18.77.87A3.84 3.84 0 0114.93 2a3.86 3.86 0 013.85 4l-.54 12.33A10 10 0 0010 14a9.87 9.87 0 00-4.27 1zM10 32a8 8 0 118-8 8 8 0 01-8 8zm14-12a6.59 6.59 0 00-3.87 1.12l.46-10.77a4.07 4.07 0 016.82 0l.46 10.77A6.59 6.59 0 0024 20zm14 12a8 8 0 118-8 8 8 0 01-8 8z" fill="#231f20" data-name="Layer 2"/></svg>