<svg xmlns="http://www.w3.org/2000/svg" viewBox="0 0 40 48"><defs><style>.cls-1{fill:#231f20}</style></defs><g id="Layer_2" data-name="Layer 2"><g id="Icons"><g id="General"><g id="Compose"><path class="cls-1" d="M38 21v25H2V8h20V6H0v42h40V21h-2z"/><path class="cls-1" d="M14.58 40.65l9.47-7.23 11.53-20-7.94-4.56-11.53 20zm3.47-11.16l10.33-17.9 4.47 2.59-10.33 17.89-5.34 4.08zM39.39 6.88A4.59 4.59 0 0037.71.62a4.58 4.58 0 00-6.26 1.67L28.8 6.88l7.94 4.59zm-7.86-.73l1.65-2.86a2.57 2.57 0 011.57-1.2 2.54 2.54 0 012 .26 2.58 2.58 0 01.94 3.53L36 8.74z"/></g></g></g></g></svg>