<svg xmlns="http://www.w3.org/2000/svg" viewBox="0 0 40 48"><defs><style>.cls-1{fill:#231f20;}</style></defs><title>Compose</title><g id="Layer_2" data-name="Layer 2"><g id="Icons"><g id="General"><g id="Compose"><polygon class="cls-1" points="38 21 38 46 2 46 2 8 22 8 22 6 0 6 0 48 40 48 40 21 38 21"/><path class="cls-1" d="M14.58,40.65l9.47-7.23,11.53-20L27.64,8.86l-11.53,20Zm3.47-11.16,10.33-17.9,4.47,2.59L22.52,32.07l-5.34,4.08Z"/><path class="cls-1" d="M39.39,6.88A4.59,4.59,0,0,0,37.71.62a4.58,4.58,0,0,0-6.26,1.67L28.8,6.88l7.94,4.59Zm-7.86-.73,1.65-2.86a2.57,2.57,0,0,1,1.57-1.2,2.54,2.54,0,0,1,2,.26,2.58,2.58,0,0,1,.94,3.53L36,8.74Z"/></g></g></g></g></svg>