<svg xmlns="http://www.w3.org/2000/svg" viewBox="0 0 48 32.01"><path d="M39.76 12.43a6.61 6.61 0 01-5.11 1.07 6.45 6.45 0 01-4.25-2.95L24 0l-6.4 10.55a6.45 6.45 0 01-4.25 2.95 6.61 6.61 0 01-5.11-1.07L0 6.59l5 18.63A9.16 9.16 0 0013.47 32h21.06A9.16 9.16 0 0043 25.22l5-18.39zm1.37 12.25a7.2 7.2 0 01-6.6 5.32H13.47a7.2 7.2 0 01-6.6-5.33L3.3 11.47l3.79 2.58a8.62 8.62 0 006.65 1.35 8.48 8.48 0 005.54-3.87L24 3.73l4.72 7.78a8.44 8.44 0 005.54 3.84A8.64 8.64 0 0040.91 14l3.79-2.48z" fill="#231f20" data-name="Layer 2"/></svg>