<svg xmlns="http://www.w3.org/2000/svg" viewBox="0 0 48 32.01"><defs><style>.cls-1{fill:#231f20;}</style></defs><title>Crown</title><g id="Layer_2" data-name="Layer 2"><g id="Icons"><g id="General"><path id="Crown" class="cls-1" d="M39.76,12.43a6.61,6.61,0,0,1-5.11,1.07,6.45,6.45,0,0,1-4.25-2.95L24,0,17.6,10.55a6.45,6.45,0,0,1-4.25,2.95,6.61,6.61,0,0,1-5.11-1.07L0,6.59,5,25.22A9.16,9.16,0,0,0,13.47,32H34.53A9.16,9.16,0,0,0,43,25.22L48,6.83Zm1.37,12.25A7.2,7.2,0,0,1,34.53,30H13.47a7.2,7.2,0,0,1-6.6-5.33L3.3,11.47l3.79,2.58a8.62,8.62,0,0,0,6.65,1.35,8.48,8.48,0,0,0,5.54-3.87L24,3.73l4.72,7.78a8.44,8.44,0,0,0,5.54,3.84A8.64,8.64,0,0,0,40.91,14l3.79-2.48Z"/></g></g></g></svg>