<svg xmlns="http://www.w3.org/2000/svg" viewBox="0 0 44 48"><path d="M44 16c-.4-9.34-8.32-16-10.75-16h-18A12.83 12.83 0 002.6 11.23L0 28h7.46L21 48h1a9.46 9.46 0 005.13-5.76 10.64 10.64 0 00-1.23-8.34l-1.65-3a2.33 2.33 0 01-.2-2.21A2.18 2.18 0 0126 28h8.5a9.41 9.41 0 006.73-2.72c1.98-2.09 2.92-5.19 2.77-9.28zm-4.22 7.9a7.39 7.39 0 01-5.3 2.1H26a4 4 0 00-3.64 1.66 4.19 4.19 0 00.12 4.2l1.68 3a8.63 8.63 0 011 6.76 7.23 7.23 0 01-3.39 4.05L8.53 26H2.18l2.39-14.47A10.86 10.86 0 0115.19 2h18c1.34.17 8.41 5.58 8.77 14 .16 3.57-.58 6.21-2.2 7.9z" fill="#231f20" data-name="Layer 2"/></svg>