<svg xmlns="http://www.w3.org/2000/svg" viewBox="0 0 44 48"><defs><style>.cls-1{fill:#231f20;}</style></defs><title>Dislike</title><g id="Layer_2" data-name="Layer 2"><g id="Icons"><g id="General"><path id="Dislike" class="cls-1" d="M44,16c-.4-9.34-8.32-16-10.75-16h-18A12.83,12.83,0,0,0,2.6,11.23L0,28H7.46L21,48h1a9.46,9.46,0,0,0,5.13-5.76A10.64,10.64,0,0,0,25.9,33.9l-1.65-3a2.33,2.33,0,0,1-.2-2.21A2.18,2.18,0,0,1,26,28h8.5a9.41,9.41,0,0,0,6.73-2.72C43.21,23.19,44.15,20.09,44,16Zm-4.22,7.9A7.39,7.39,0,0,1,34.48,26H26a4,4,0,0,0-3.64,1.66,4.19,4.19,0,0,0,.12,4.2l1.68,3a8.63,8.63,0,0,1,1,6.76,7.23,7.23,0,0,1-3.39,4.05L8.53,26H2.18L4.57,11.53A10.86,10.86,0,0,1,15.19,2h18c1.34.17,8.41,5.58,8.77,14C42.12,19.57,41.38,22.21,39.76,23.9Z"/></g></g></g></svg>