<svg xmlns="http://www.w3.org/2000/svg" viewBox="0 0 55.42 53.21"><g data-name="Layer 2"><path d="M24.13 24.41a1.56 1.56 0 00-.77-.15h-1.84v2.15h1.79a1.89 1.89 0 00.81-.13.9.9 0 00.47-.9 1 1 0 00-.46-.97z"/><path d="M52.52 22.61l-1.18-.34A4 4 0 0149.26 16l.74-1a4 4 0 00-4.57-6.21l-1.15.42a4 4 0 01-5.38-3.87V4.11a4 4 0 00-7.34-2.34l-.69 1a4 4 0 01-6.63 0l-.7-1a4 4 0 00-7.31 2.42v1.23A4 4 0 0111 9.4L9.79 9a4 4 0 00-4.5 6.26l.76 1a4 4 0 01-2 6.32l-1.17.35a4 4 0 000 7.71l1.18.34a4 4 0 012.09 6.29l-.74 1A4 4 0 0010 44.42l1.14-.42a4 4 0 015.39 3.87v1.22a4 4 0 007.35 2.34l.68-1a4 4 0 016.63 0l.7 1A4 4 0 0039.18 49v-1.22a4 4 0 015.34-3.93l1.16.4A4 4 0 0050.13 38l-.75-1a4 4 0 012-6.31l1.17-.36a4 4 0 00-.03-7.72zm-34.31 1.68h-4v1.84h3.54v1.39h-3.58v3.35h-1.66v-8h5.7zm8.18 6.58h-1.84c-.05-.18-.08-.32-.11-.43a5.38 5.38 0 01-.07-.69V29a1.47 1.47 0 00-.26-1 1.35 1.35 0 00-1-.26h-1.59v3.14h-1.63v-8h3.82a3.68 3.68 0 011.26.2 2 2 0 01.74.56 2.57 2.57 0 01.41.67 2.47 2.47 0 01.14.84 2.38 2.38 0 01-.26 1.12 1.59 1.59 0 01-.95.78 1.48 1.48 0 01.78.63 2.57 2.57 0 01.17 1.25v.54a3.83 3.83 0 00.05.74.66.66 0 00.3.46zm8.13 0h-6.05v-8h5.86v1.41H30.1V26H34v1.39h-3.9v2.05h4.42zm8 0h-6v-8h5.86v1.41h-4.32V26h3.88v1.39h-3.88v2.05h4.42z"/></g></svg>