<svg xmlns="http://www.w3.org/2000/svg" viewBox="0 0 55.42 53.21"><title>free</title><g id="Layer_2" data-name="Layer 2"><g id="Icons"><g id="General"><path d="M24.13,24.41a1.56,1.56,0,0,0-.77-.15H21.52v2.15h1.79a1.89,1.89,0,0,0,.81-.13.9.9,0,0,0,.47-.9A1,1,0,0,0,24.13,24.41Z"/><path d="M52.52,22.61l-1.18-.34A4,4,0,0,1,49.26,16L50,15a4,4,0,0,0-4.57-6.21l-1.15.42A4,4,0,0,1,38.9,5.34l0-1.23a4,4,0,0,0-7.34-2.34l-.69,1a4,4,0,0,1-6.63,0l-.7-1a4,4,0,0,0-7.31,2.42l0,1.23A4,4,0,0,1,11,9.4L9.79,9a4,4,0,0,0-4.5,6.26l.76,1a4,4,0,0,1-2,6.32l-1.17.35a4,4,0,0,0,0,7.71l1.18.34a4,4,0,0,1,2.09,6.29l-.74,1A4,4,0,0,0,10,44.42L11.14,44a4,4,0,0,1,5.39,3.87l0,1.22a4,4,0,0,0,7.35,2.34l.68-1a4,4,0,0,1,6.63,0l.7,1A4,4,0,0,0,39.18,49l0-1.22a4,4,0,0,1,5.34-3.93l1.16.4A4,4,0,0,0,50.13,38l-.75-1a4,4,0,0,1,2-6.31l1.17-.36A4,4,0,0,0,52.52,22.61ZM18.21,24.29h-4v1.84h3.54v1.39H14.17v3.35H12.51v-8h5.7Zm8.18,6.58H24.55c-.05-.18-.08-.32-.11-.43a5.38,5.38,0,0,1-.07-.69V29a1.47,1.47,0,0,0-.26-1,1.35,1.35,0,0,0-1-.26H21.52v3.14H19.89v-8h3.82a3.68,3.68,0,0,1,1.26.2,2,2,0,0,1,.74.56,2.57,2.57,0,0,1,.41.67,2.47,2.47,0,0,1,.14.84A2.38,2.38,0,0,1,26,26.27a1.59,1.59,0,0,1-.95.78,1.48,1.48,0,0,1,.78.63A2.57,2.57,0,0,1,26,28.93v.54a3.83,3.83,0,0,0,.05.74.66.66,0,0,0,.3.46Zm8.13,0H28.47v-8h5.86v1.41H30.1V26H34v1.39H30.1v2.05h4.42Zm8,0h-6v-8h5.86v1.41H38.06V26h3.88v1.39H38.06v2.05h4.42Z"/></g></g></g></svg>