<svg xmlns="http://www.w3.org/2000/svg" viewBox="0 0 48 42"><defs><style>.cls-1{fill:#231f20;}</style></defs><title>Heart</title><g id="Layer_2" data-name="Layer 2"><g id="Icons"><g id="General"><path id="Heart" class="cls-1" d="M34.8,0A13.17,13.17,0,0,0,24,5.62,13.2,13.2,0,0,0,0,13.19c0,6.25,3.33,12.53,9.9,18.66a91.53,91.53,0,0,0,13.59,10L24,42l.52-.15a104.31,104.31,0,0,0,13.57-10C44.85,25.73,48,19.8,48,13.19A13.21,13.21,0,0,0,34.8,0Zm2,30.38A102.69,102.69,0,0,1,24,39.82a89.14,89.14,0,0,1-12.72-9.43C5.12,24.65,2,18.86,2,13.19A11.19,11.19,0,0,1,23.11,8L24,9.69,24.89,8A11.19,11.19,0,0,1,46,13.19C46,19.19,43.06,24.66,36.75,30.38Z"/></g></g></g></svg>