<svg xmlns="http://www.w3.org/2000/svg" viewBox="0 0 48 46"><defs><style>.cls-1{fill:#231f20}</style></defs><g id="Layer_2" data-name="Layer 2"><g id="Icons"><g id="General"><g id="Key"><path class="cls-1" d="M36 8a4 4 0 104 4 4 4 0 00-4-4zm0 6a2 2 0 112-2 2 2 0 01-2 2z"/><path class="cls-1" d="M42.66 3.88a15.53 15.53 0 00-20.5 0 15.86 15.86 0 00-4.05 18.2l-3.59 3.62-.6 4.26-4.63.66-.66 4.67-4.22.61L0 40.31l4 4a5.71 5.71 0 008.11 0l14.02-14.18a15.48 15.48 0 0017.3-3.28A15.86 15.86 0 0048 15.21a15.61 15.61 0 00-5.34-11.33zM42 25.44A13.51 13.51 0 0126.36 28l-.64-.31-15.06 15.2a3.81 3.81 0 01-5.3 0L2.8 40.31l2.54-2.56 5-.72.66-4.67 4.63-.66.72-5.08 4.12-4.16-.32-.64a13.84 13.84 0 013.32-16.46 13.54 13.54 0 0117.88 0A13.81 13.81 0 0142 25.44z"/></g></g></g></g></svg>