<svg xmlns="http://www.w3.org/2000/svg" viewBox="0 0 48 46"><defs><style>.cls-1{fill:#231f20;}</style></defs><title>Key</title><g id="Layer_2" data-name="Layer 2"><g id="Icons"><g id="General"><g id="Key"><path class="cls-1" d="M36,8a4,4,0,1,0,4,4A4,4,0,0,0,36,8Zm0,6a2,2,0,1,1,2-2A2,2,0,0,1,36,14Z"/><path class="cls-1" d="M42.66,3.88a15.53,15.53,0,0,0-20.5,0,15.86,15.86,0,0,0-4.05,18.2l-3.59,3.62-.6,4.26-4.63.66-.66,4.67-4.22.61L0,40.31l4,4a5.71,5.71,0,0,0,8.11,0L26.13,30.13a15.48,15.48,0,0,0,17.3-3.28A15.86,15.86,0,0,0,48,15.21,15.61,15.61,0,0,0,42.66,3.88ZM42,25.44A13.51,13.51,0,0,1,26.36,28l-.64-.31L10.66,42.89a3.81,3.81,0,0,1-5.3,0L2.8,40.31l2.54-2.56,5-.72L11,32.36l4.63-.66.72-5.08,4.12-4.16-.32-.64A13.84,13.84,0,0,1,23.47,5.36a13.54,13.54,0,0,1,17.88,0A13.81,13.81,0,0,1,42,25.44Z"/></g></g></g></g></svg>