<svg xmlns="http://www.w3.org/2000/svg" viewBox="0 0 44 48"><defs><style>.cls-1{fill:#231f20;}</style></defs><title>Like</title><g id="Layer_2" data-name="Layer 2"><g id="Icons"><g id="General"><path id="Like" class="cls-1" d="M41.22,22.72A9.43,9.43,0,0,0,34.48,20H26a2.15,2.15,0,0,1-1.91-.72,2.32,2.32,0,0,1,.17-2.17l1.67-3a10.63,10.63,0,0,0,1.22-8.35A9.45,9.45,0,0,0,22,0H21L7.45,20H0L2.57,36.74A12.86,12.86,0,0,0,15.18,48h18C35.66,48,43.58,41.38,44,32,44.15,28,43.22,24.81,41.22,22.72ZM42,32c-.36,8.46-7.44,13.87-8.75,14h-18A10.87,10.87,0,0,1,4.55,36.44L2.16,22H8.51L21.81,2.3a7.17,7.17,0,0,1,3.38,4.05,8.65,8.65,0,0,1-1,6.78l-1.7,3a4.15,4.15,0,0,0-.09,4.16A3.94,3.94,0,0,0,26,22h8.5a7.41,7.41,0,0,1,5.29,2.1C41.39,25.79,42.13,28.43,42,32Z"/></g></g></g></svg>