<svg xmlns="http://www.w3.org/2000/svg" viewBox="0 0 44 48"><path d="M41.22 22.72A9.43 9.43 0 0034.48 20H26a2.15 2.15 0 01-1.91-.72 2.32 2.32 0 01.17-2.17l1.67-3a10.63 10.63 0 001.22-8.35A9.45 9.45 0 0022 0h-1L7.45 20H0l2.57 16.74A12.86 12.86 0 0015.18 48h18c2.48 0 10.4-6.62 10.82-16 .15-4-.78-7.19-2.78-9.28zM42 32c-.36 8.46-7.44 13.87-8.75 14h-18a10.87 10.87 0 01-10.7-9.56L2.16 22h6.35l13.3-19.7a7.17 7.17 0 013.38 4.05 8.65 8.65 0 01-1 6.78l-1.7 3a4.15 4.15 0 00-.09 4.16A3.94 3.94 0 0026 22h8.5a7.41 7.41 0 015.29 2.1c1.6 1.69 2.34 4.33 2.21 7.9z" fill="#231f20" data-name="Layer 2"/></svg>