<svg xmlns="http://www.w3.org/2000/svg" viewBox="0 0 48 48"><defs><style>.cls-1{fill:#231f20;}</style></defs><title>Link</title><g id="Layer_2" data-name="Layer 2"><g id="Icons"><g id="General"><g id="Link"><path class="cls-1" d="M45,3.09a10.26,10.26,0,0,0-14.68,0L19.94,13.63A10.69,10.69,0,0,0,19,27.48h0a8.92,8.92,0,0,0,.9,1.05l1.44-1.42a9.54,9.54,0,0,1-.73-.84l-.81.61.81-.61a8.65,8.65,0,0,1,.73-11.22L31.73,4.51a8.23,8.23,0,0,1,11.8,0,8.66,8.66,0,0,1,0,12.09l-6.92,7.48,1.49,1.37L45,18A10.67,10.67,0,0,0,45,3.09Z"/><path class="cls-1" d="M26.26,21.26a8.64,8.64,0,0,1,0,12.06l-10,10.17a8.23,8.23,0,0,1-11.8,0,8.65,8.65,0,0,1,0-12.08l6.66-7L9.68,23,3,30a10.67,10.67,0,0,0,0,14.9,10.26,10.26,0,0,0,14.68,0l10-10.17a10.69,10.69,0,0,0,0-14.9Z"/></g></g></g></g></svg>