<svg xmlns="http://www.w3.org/2000/svg" viewBox="0 0 12 48"><defs><style>.cls-1{fill:#231f20;}</style></defs><title>More - Alt</title><g id="Layer_2" data-name="Layer 2"><g id="Icons"><g id="General"><g id="More_-_Alt" data-name="More - Alt"><path class="cls-1" d="M6,12A6,6,0,1,0,0,6,6,6,0,0,0,6,12ZM6,2A4,4,0,1,1,2,6,4,4,0,0,1,6,2Z"/><path class="cls-1" d="M6,18a6,6,0,1,0,6,6A6,6,0,0,0,6,18ZM6,28a4,4,0,1,1,4-4A4,4,0,0,1,6,28Z"/><path class="cls-1" d="M6,36a6,6,0,1,0,6,6A6,6,0,0,0,6,36ZM6,46a4,4,0,1,1,4-4A4,4,0,0,1,6,46Z"/></g></g></g></g></svg>