<svg xmlns="http://www.w3.org/2000/svg" viewBox="0 0 48 12"><defs><style>.cls-1{fill:#231f20;}</style></defs><title>More</title><g id="Layer_2" data-name="Layer 2"><g id="Icons"><g id="General"><g id="More"><path class="cls-1" d="M6,0a6,6,0,1,0,6,6A6,6,0,0,0,6,0ZM6,10a4,4,0,1,1,4-4A4,4,0,0,1,6,10Z"/><path class="cls-1" d="M24,0a6,6,0,1,0,6,6A6,6,0,0,0,24,0Zm0,10a4,4,0,1,1,4-4A4,4,0,0,1,24,10Z"/><path class="cls-1" d="M42,0a6,6,0,1,0,6,6A6,6,0,0,0,42,0Zm0,10a4,4,0,1,1,4-4A4,4,0,0,1,42,10Z"/></g></g></g></g></svg>