<svg xmlns="http://www.w3.org/2000/svg" viewBox="0 0 48 48"><defs><style>.cls-1{fill:#231f20;}</style></defs><title>Move</title><g id="Layer_2" data-name="Layer 2"><g id="Icons"><g id="General"><polygon id="Move" class="cls-1" points="39.44 15.44 38.05 16.82 44.24 23 25 23 25 3.76 31.18 9.95 32.56 8.56 24 0 15.44 8.56 16.82 9.95 23 3.76 23 23 3.76 23 9.95 16.82 8.56 15.44 0 24 8.56 32.56 9.95 31.18 3.76 25 23 25 23 44.24 16.82 38.05 15.44 39.44 24 48 32.56 39.44 31.18 38.05 25 44.24 25 25 44.24 25 38.05 31.18 39.44 32.56 48 24 39.44 15.44"/></g></g></g></svg>