<svg xmlns="http://www.w3.org/2000/svg" viewBox="0 0 47.14 55.97"><defs><style>.cls-1{fill:#231f20;}</style></defs><title>Pets</title><g id="Layer_2" data-name="Layer 2"><g id="Icons"><g id="Location"><path class="cls-1" d="M46.74,31.3h0a35.33,35.33,0,0,0-4.08-7.2c1.85-2.19,1.38-6,1.1-8.37-.31-2.59-1.18-9-1.64-12.41C41.94,2,41.8,1,41.79.91a.89.89,0,0,0-.61-.82,1.15,1.15,0,0,0-1,.11,25,25,0,0,0-9.42,13,15.49,15.49,0,0,0-7.24-2,15.48,15.48,0,0,0-7.23,2A24.57,24.57,0,0,0,6.9.19a.93.93,0,0,0-1-.09.88.88,0,0,0-.58.8c0,.11-.23,1.76-.49,3.67-.48,3.52-1.21,8.84-1.48,11.15S2.61,22,4.46,24.1A35.72,35.72,0,0,0,.39,31.3c-1,2.76,0,6.74,3.09,11.19C8,49,16.52,56,23.56,56s15.58-6.91,20-13.41C46.71,38,47.81,34.11,46.74,31.3Zm-41-8.88c-1-1.57-.64-4.54-.44-6.36l0-.21c.16-1.31.46-3.57.77-5.93.34-2.64.71-5.42.92-7.14,3.05,2.55,5.52,5.54,7.55,11.4A38.06,38.06,0,0,0,5.74,22.42ZM23.56,46.11a11.09,11.09,0,0,0,2.11,1.41,3.52,3.52,0,0,1-2.11.64,3.42,3.42,0,0,1-2.1-.64A14.24,14.24,0,0,0,23.56,46.11Zm1.87-4.42a1.87,1.87,0,1,1-3.73,0c0-.41,0-.92,1.86-.92S25.43,41.28,25.43,41.69Zm2,.07c0-1.91-1.29-2.88-3.84-2.88s-3.83,1-3.83,2.88a3.81,3.81,0,0,0,1.95,3.34c-2.18,1.54-3.38,1.72-4.21.67a3.49,3.49,0,0,1-.6-2.94c.55-3.18,3.95-7.38,6.69-9.1,2.7,1.76,6.07,5.88,6.7,9.1a3.46,3.46,0,0,1-.6,2.93c-.91,1-2.15.84-4.22-.66A3.8,3.8,0,0,0,27.4,41.76ZM38.16,26c-1.64-2.06-3.32-4.19-6-4.19h-.07c-3.57,0-6.81,5.16-8.56,8.55-2.1-4-5.23-8.55-8.62-8.55-2.65,0-4.33,2.13-6,4.22s-3.46,4.34-6.43,5.29c2.77-6.44,12.26-18.14,21-18.14s18.29,11.7,21.06,18.14C41.65,30.34,39.81,28,38.16,26Zm-27.8,1.47L10.7,27c1.49-1.83,2.67-3.28,4.24-3.28,2.55,0,5.76,5,7.36,8.51-2.6,1.78-6.62,6.16-7.39,10.28a5.26,5.26,0,0,0,1,4.51,3.51,3.51,0,0,0,3.5,1.28,5,5,0,0,0,4.07,1.88,4.76,4.76,0,0,0,4.07-1.87,3.09,3.09,0,0,0,.75.11,3.64,3.64,0,0,0,2.75-1.33,5.05,5.05,0,0,0,1-4.52c-.71-3.81-4.34-8.24-7.38-10.27,1.91-4,4.94-8.5,7.35-8.5,1.58,0,2.77,1.38,4.41,3.48,1.79,2.28,4.24,5.39,8.59,6.27.19,1.9-.89,4.67-3,7.83C37.77,47.51,29.88,54,23.56,54,18.85,54,10.79,49.59,5.14,41.4,3.08,38.39,2,35.59,2,33.49,6.11,32.64,8.47,29.76,10.36,27.44Zm31-5a39.66,39.66,0,0,0-8.82-8.24C34.5,8.39,37,5.38,40.12,2.78,40.58,6,41.52,13,41.8,15.85l0,.24C42,17.88,42.36,20.81,41.38,22.42Z"/><path class="cls-1" d="M12.13,34.17a5.67,5.67,0,0,0,2.52.61A10.16,10.16,0,0,0,18.32,34c.31-.12.65-.31.67-.71a1,1,0,0,0-.19-.84,8.54,8.54,0,0,0-8.46-3.17,1,1,0,0,0-.69.36,1,1,0,0,0-.22.76A5.9,5.9,0,0,0,12.13,34.17ZM11.84,31H12a6.44,6.44,0,0,1,4.29,1.5,4,4,0,0,1-3.15-.13A3.16,3.16,0,0,1,11.84,31Z"/><path class="cls-1" d="M34.86,34.17a5.54,5.54,0,0,0,2.69-3.76.85.85,0,0,0-.19-.77.77.77,0,0,0-.49-.37l-.12,0a8.55,8.55,0,0,0-8.47,3.14,1.14,1.14,0,0,0-.22.83l0,.08a1.28,1.28,0,0,0,.58.67,10.16,10.16,0,0,0,3.67.82A5.68,5.68,0,0,0,34.86,34.17Zm-4.07-1.59a6.39,6.39,0,0,1,4.45-1.47A3.27,3.27,0,0,1,34,32.41,4.61,4.61,0,0,1,30.79,32.58Z"/></g></g></g></svg>