<svg xmlns="http://www.w3.org/2000/svg" viewBox="0 0 42.18 42.75"><title>Porcentage off</title><g id="Layer_2" data-name="Layer 2"><g id="Icons"><g id="General"><path d="M40,20,22.71,0,3.17.3,0,19.6l17.29,20A9,9,0,0,0,30,40.57l9.08-7.84A9,9,0,0,0,40,20ZM37.76,31.21l-9.09,7.84a7,7,0,0,1-9.87-.72L2.12,19,4.89,2.3,21.8,2,38.48,21.34A7,7,0,0,1,37.76,31.21Z"/><path d="M17.4,9.15a5,5,0,1,0-.52,7A5,5,0,0,0,17.4,9.15Zm-1.82,5.54a3,3,0,1,1,.31-4.23A3,3,0,0,1,15.58,14.69Z"/><polygon points="22.56 17.16 26.48 34.09 27.67 33.04 23.72 16.13 22.56 17.16"/><path d="M19.14,21.8a3.81,3.81,0,0,0-3.08,6.34,3.83,3.83,0,0,0,5.39.32,3.82,3.82,0,0,0-2.31-6.66Zm.85,5a1.62,1.62,0,0,1-2.3-.14,1.6,1.6,0,0,1-.41-1.18A1.64,1.64,0,0,1,19,24a1.6,1.6,0,0,1,1.12.54,1.56,1.56,0,0,1,.41,1.18A1.59,1.59,0,0,1,20,26.83Z"/><path d="M31.54,20.76a3.81,3.81,0,0,0-3.07,6.34,3.82,3.82,0,0,0,6.66-2.31,3.81,3.81,0,0,0-3.59-4Zm.86,5a1.63,1.63,0,0,1-2.3-.13,1.6,1.6,0,0,1-.41-1.18,1.57,1.57,0,0,1,.55-1.12A1.63,1.63,0,0,1,33,24.66,1.57,1.57,0,0,1,32.4,25.78Z"/></g></g></g></svg>