<svg xmlns="http://www.w3.org/2000/svg" viewBox="0 0 42.18 42.75"><g data-name="Layer 2"><path d="M40 20L22.71 0 3.17.3 0 19.6l17.29 20a9 9 0 0012.71.97l9.08-7.84A9 9 0 0040 20zm-2.24 11.21l-9.09 7.84a7 7 0 01-9.87-.72L2.12 19 4.89 2.3 21.8 2l16.68 19.34a7 7 0 01-.72 9.87z"/><path d="M17.4 9.15a5 5 0 10-.52 7 5 5 0 00.52-7zm-1.82 5.54a3 3 0 11.31-4.23 3 3 0 01-.31 4.23zm6.98 2.47l3.92 16.93 1.19-1.05-3.95-16.91-1.16 1.03zm-3.42 4.64a3.81 3.81 0 00-3.08 6.34 3.83 3.83 0 005.39.32 3.82 3.82 0 00-2.31-6.66zm.85 5a1.62 1.62 0 01-2.3-.14 1.6 1.6 0 01-.41-1.18A1.64 1.64 0 0119 24a1.6 1.6 0 011.12.54 1.56 1.56 0 01.41 1.18 1.59 1.59 0 01-.53 1.11zm11.55-6.04a3.81 3.81 0 00-3.07 6.34 3.82 3.82 0 006.66-2.31 3.81 3.81 0 00-3.59-4zm.86 5a1.63 1.63 0 01-2.3-.13 1.6 1.6 0 01-.41-1.18 1.57 1.57 0 01.55-1.12A1.63 1.63 0 0133 24.66a1.57 1.57 0 01-.6 1.12z"/></g></svg>