<svg xmlns="http://www.w3.org/2000/svg" viewBox="0 0 42.18 42.75"><defs><style>.cls-1{fill:#231f20;}</style></defs><title>Price Point</title><g id="Layer_2" data-name="Layer 2"><g id="Icons"><g id="General"><path class="cls-1" d="M40,20,22.71,0,3.17.3,0,19.6l17.29,20A9,9,0,0,0,30,40.57l9.08-7.84A9,9,0,0,0,40,20ZM37.76,31.21l-9.09,7.84a7,7,0,0,1-9.87-.72L2.12,19,4.89,2.3,21.8,2,38.48,21.34A7,7,0,0,1,37.76,31.21Z"/><path class="cls-1" d="M10.35,8.63a5,5,0,1,0,7,.52A5,5,0,0,0,10.35,8.63Zm5.23,6.06a3,3,0,1,1,.31-4.23A3,3,0,0,1,15.58,14.69Z"/><path class="cls-1" d="M30.64,25.19c-1.38-1.34-2.87-1.48-5.48-.47L22,20.82a7.29,7.29,0,0,1,1.56-.6l.24-.06-.41-1.49-.25.07a8.71,8.71,0,0,0-2.12.87l-1.19-1.47-1.19,1,1.18,1.47a4.08,4.08,0,0,0-.11,5.31c1.18,1.16,2.8,1.37,5,.66l3.52,4.32a5.92,5.92,0,0,1-1.7.67l-.36.1.39,1.48.36-.1a6.69,6.69,0,0,0,2.27-1l1.17,1.45,1.19-1-1.19-1.47C31.81,29.45,32.33,26.85,30.64,25.19Zm-9.85-.39a2.53,2.53,0,0,1,0-3l2.8,3.46A2.89,2.89,0,0,1,20.79,24.8Zm8.55,5.07L26.19,26c1.89-.67,2.64-.42,3.37.3C30.66,27.36,30.06,29,29.34,29.87Z"/></g></g></g></svg>