<svg xmlns="http://www.w3.org/2000/svg" viewBox="0 0 42.18 42.75"><defs><style>.cls-1{fill:#231f20}</style></defs><g id="Layer_2" data-name="Layer 2"><g id="Icons"><g id="General"><path class="cls-1" d="M40 20L22.71 0 3.17.3 0 19.6l17.29 20a9 9 0 0012.71.97l9.08-7.84A9 9 0 0040 20zm-2.24 11.21l-9.09 7.84a7 7 0 01-9.87-.72L2.12 19 4.89 2.3 21.8 2l16.68 19.34a7 7 0 01-.72 9.87z"/><path class="cls-1" d="M10.35 8.63a5 5 0 107 .52 5 5 0 00-7-.52zm5.23 6.06a3 3 0 11.31-4.23 3 3 0 01-.31 4.23zm15.06 10.5c-1.38-1.34-2.87-1.48-5.48-.47L22 20.82a7.29 7.29 0 011.56-.6l.24-.06-.41-1.49-.25.07a8.71 8.71 0 00-2.12.87l-1.19-1.47-1.19 1 1.18 1.47a4.08 4.08 0 00-.11 5.31c1.18 1.16 2.8 1.37 5 .66l3.52 4.32a5.92 5.92 0 01-1.7.67l-.36.1.39 1.48.36-.1a6.69 6.69 0 002.27-1l1.17 1.45 1.19-1-1.19-1.47c1.45-1.58 1.97-4.18.28-5.84zm-9.85-.39a2.53 2.53 0 010-3l2.8 3.46a2.89 2.89 0 01-2.8-.46zm8.55 5.07L26.19 26c1.89-.67 2.64-.42 3.37.3 1.1 1.06.5 2.7-.22 3.57z"/></g></g></g></svg>