<svg xmlns="http://www.w3.org/2000/svg" viewBox="0 0 48 48"><defs><style>.cls-1{fill:#231f20;}</style></defs><title>Settings</title><g id="Layer_2" data-name="Layer 2"><g id="Icons"><g id="General"><g id="Settings"><path class="cls-1" d="M24,16a8,8,0,1,0,8,8A8,8,0,0,0,24,16Zm0,14a6,6,0,1,1,6-6A6,6,0,0,1,24,30Z"/><path class="cls-1" d="M43.08,28.59,48,28.23V19.52l-4.92-.36a3.31,3.31,0,0,1-2.25-5.44L44.05,10,37.89,3.83,34.16,7.05a3.27,3.27,0,0,1-3.44.52,3.15,3.15,0,0,1-2-2.71L28.35,0H19.64l-.36,5.1C19.2,6.25,18.51,7,17.46,8h0l-.21-.15a3.32,3.32,0,0,1-3.39-.67L10.11,3.89,4,10l3.22,3.72a3.3,3.3,0,0,1-2.25,5.43L0,19.52v8.71l4.92.36a3.26,3.26,0,0,1,2.79,2.06A3.23,3.23,0,0,1,7.17,34L4,37.77l6.15,6.16,3.74-3.23a3.27,3.27,0,0,1,3.44-.51,3.32,3.32,0,0,1,2,2.83l.36,5h8.71l.36-5a3.29,3.29,0,0,1,2-2.8l.18-.09a3.27,3.27,0,0,1,3.26.58l3.73,3.22,6.16-6.16L40.83,34a3.32,3.32,0,0,1,2.25-5.45Zm-3.77,6.76,2,2.32-3.53,3.54-2.33-2A5.2,5.2,0,0,0,30,38.33l-.2.1a5.31,5.31,0,0,0-3.1,4.44L26.49,46h-5l-.22-3.13A5.35,5.35,0,0,0,18,38.32a5.23,5.23,0,0,0-5.46.87l-2.33,2L6.67,37.67l2-2.33A5.32,5.32,0,0,0,5.07,26.6L2,26.37v-5l3.07-.22a5.24,5.24,0,0,0,4.49-3.29,5.21,5.21,0,0,0-.87-5.45l-2-2.33L10.2,6.56l2.34,2a5.24,5.24,0,0,0,5.25,1h0L18,9.45A5.21,5.21,0,0,0,21.28,5l.22-3h5l.23,3a5.31,5.31,0,0,0,8.74,3.56l2.33-2,3.53,3.53-2,2.33a5.32,5.32,0,0,0,3.63,8.75l3.06.22v5l-3.07.23a5.32,5.32,0,0,0-3.62,8.75Z"/></g></g></g></g></svg>