<svg xmlns="http://www.w3.org/2000/svg" viewBox="0 0 48 48"><defs><style>.cls-1{fill:#231f20}</style></defs><g id="Layer_2" data-name="Layer 2"><g id="Icons"><g id="General"><g id="Settings"><path class="cls-1" d="M24 16a8 8 0 108 8 8 8 0 00-8-8zm0 14a6 6 0 116-6 6 6 0 01-6 6z"/><path class="cls-1" d="M43.08 28.59l4.92-.36v-8.71l-4.92-.36a3.31 3.31 0 01-2.25-5.44L44.05 10l-6.16-6.17-3.73 3.22a3.27 3.27 0 01-3.44.52 3.15 3.15 0 01-2-2.71L28.35 0h-8.71l-.36 5.1C19.2 6.25 18.51 7 17.46 8l-.21-.15a3.32 3.32 0 01-3.39-.67l-3.75-3.29L4 10l3.22 3.72a3.3 3.3 0 01-2.25 5.43L0 19.52v8.71l4.92.36a3.26 3.26 0 012.79 2.06A3.23 3.23 0 017.17 34L4 37.77l6.15 6.16 3.74-3.23a3.27 3.27 0 013.44-.51 3.32 3.32 0 012 2.83l.36 5h8.71l.36-5a3.29 3.29 0 012-2.8l.18-.09a3.27 3.27 0 013.26.58l3.73 3.22 6.16-6.16L40.83 34a3.32 3.32 0 012.25-5.45zm-3.77 6.76l2 2.32-3.53 3.54-2.33-2a5.2 5.2 0 00-5.45-.88l-.2.1a5.31 5.31 0 00-3.1 4.44L26.49 46h-5l-.22-3.13A5.35 5.35 0 0018 38.32a5.23 5.23 0 00-5.46.87l-2.33 2-3.54-3.52 2-2.33a5.32 5.32 0 00-3.6-8.74L2 26.37v-5l3.07-.22a5.24 5.24 0 004.49-3.29 5.21 5.21 0 00-.87-5.45l-2-2.33 3.51-3.52 2.34 2a5.24 5.24 0 005.25 1l.21-.11A5.21 5.21 0 0021.28 5l.22-3h5l.23 3a5.31 5.31 0 008.74 3.56l2.33-2 3.53 3.53-2 2.33a5.32 5.32 0 003.63 8.75l3.06.22v5l-3.07.23a5.32 5.32 0 00-3.62 8.75z"/></g></g></g></g></svg>