<svg xmlns="http://www.w3.org/2000/svg" viewBox="0 0 57.42 55.22"><defs><style>.cls-1{fill:#231f20;}</style></defs><title>special</title><g id="Layer_2" data-name="Layer 2"><g id="Icons"><g id="General"><path class="cls-1" d="M53.8,22.65l-1.18-.34a3,3,0,0,1-1.57-4.73l.75-1a5,5,0,0,0-5.71-7.76l-1.15.42a3,3,0,0,1-2.79-.39A2.93,2.93,0,0,1,40.9,6.37l0-1.23a5,5,0,0,0-9.17-2.92l-.69,1a3,3,0,0,1-2.48,1.33h0a3,3,0,0,1-2.48-1.3l-.7-1A4.9,4.9,0,0,0,19.68.35a4.92,4.92,0,0,0-3.43,4.93l0,1.23a3,3,0,0,1-4,3l-1.16-.41A5,5,0,0,0,5.5,16.87l.76,1a3,3,0,0,1,.49,2.77,3,3,0,0,1-2,2l-1.18.35a5,5,0,0,0,.06,9.62l1.18.34a3,3,0,0,1,1.56,4.73l-.74,1a5,5,0,0,0,5.7,7.75L12.48,46a3,3,0,0,1,2.79.38,3,3,0,0,1,1.26,2.52l0,1.22A4.93,4.93,0,0,0,20,55a5.43,5.43,0,0,0,1.58.25A4.92,4.92,0,0,0,25.68,53l.68-1a3,3,0,0,1,2.48-1.33h0A3,3,0,0,1,31.34,52l.7,1a5,5,0,0,0,9.14-3l0-1.22a3,3,0,0,1,1.22-2.53,3,3,0,0,1,2.79-.42l1.16.4a5,5,0,0,0,5.61-7.82l-.75-1a3,3,0,0,1,1.51-4.74l1.17-.35a5,5,0,0,0-.05-9.63Zm-.52,7.71-1.18.36a5,5,0,0,0-2.51,7.88l.75,1A3,3,0,0,1,47,44.27l-1.16-.4a5,5,0,0,0-6.67,4.9l0,1.23a3,3,0,0,1-5.5,1.82l-.7-1a5,5,0,0,0-4.12-2.16h0a5,5,0,0,0-4.12,2.2l-.69,1a3,3,0,0,1-5.52-1.76l0-1.23a5,5,0,0,0-5-5.13,5.09,5.09,0,0,0-1.71.3l-1.15.42a3,3,0,0,1-3.43-4.66l.74-1A5,5,0,0,0,5.36,31l-1.18-.34a3,3,0,0,1,0-5.79l1.17-.35a5,5,0,0,0,3.34-3.28,5.05,5.05,0,0,0-.82-4.61l-.76-1a3,3,0,0,1,3.38-4.7l1.16.41a5,5,0,0,0,6.67-4.91l-.05-1.22a3,3,0,0,1,5.5-1.83l.7,1a5,5,0,0,0,4.12,2.16h0a5,5,0,0,0,4.13-2.2l.69-1a2.91,2.91,0,0,1,3.41-1.18,2.92,2.92,0,0,1,2.1,2.94l0,1.22a5,5,0,0,0,6.72,4.83l1.15-.42A3,3,0,0,1,50.2,15.4l-.74,1a5,5,0,0,0,2.61,7.86l1.17.34a3,3,0,0,1,0,5.79Z"/><path class="cls-1" d="M29.34,26l1-9.11a11.18,11.18,0,0,1,3.1,1.32l.86-1.47a12.85,12.85,0,0,0-3.77-1.56l.36-3.07-1.7-.2L28.88,15H28.8c-3.25,0-6.32,2.73-6.32,5.63,0,2.62,1.65,4.73,5,6.41L26.37,37A9.37,9.37,0,0,1,23,35.58l-.17-.1L22,37l.17.1a11,11,0,0,0,4,1.61l-.34,3,1.69.19.35-3.08H28c3.56,0,7.24-2.26,7.24-6.06C35.19,29.65,33.65,27.86,29.34,26Zm-1.63-.79c-2.36-1.3-3.53-2.81-3.53-4.59s2.26-3.86,4.51-3.92Zm.36,11.92,1.06-9.35c3.66,1.68,4.36,3,4.36,5C33.49,35.7,30.36,37.05,28.07,37.1Z"/></g></g></g></svg>