<svg xmlns="http://www.w3.org/2000/svg" viewBox="0 0 57.42 55.22"><defs><style>.cls-1{fill:#231f20}</style></defs><g id="Layer_2" data-name="Layer 2"><g id="Icons"><g id="General"><path class="cls-1" d="M53.8 22.65l-1.18-.34a3 3 0 01-1.57-4.73l.75-1a5 5 0 00-5.71-7.76l-1.15.42a3 3 0 01-2.79-.39 2.93 2.93 0 01-1.25-2.48V5.14a5 5 0 00-9.17-2.92l-.69 1a3 3 0 01-2.48 1.33 3 3 0 01-2.48-1.3l-.7-1a4.9 4.9 0 00-5.7-1.9 4.92 4.92 0 00-3.43 4.93v1.23a3 3 0 01-4 3l-1.16-.41a5 5 0 00-5.59 7.77l.76 1a3 3 0 01.49 2.77 3 3 0 01-2 2l-1.18.35a5 5 0 00.06 9.62l1.18.34a3 3 0 011.56 4.73l-.74 1a5 5 0 005.7 7.75l1.15-.43a3 3 0 012.79.38 3 3 0 011.26 2.52v1.22A4.93 4.93 0 0020 55a5.43 5.43 0 001.58.25 4.92 4.92 0 004.1-2.25l.68-1a3 3 0 012.48-1.33 3 3 0 012.5 1.33l.7 1a5 5 0 009.14-3v-1.22a3 3 0 011.22-2.53 3 3 0 012.79-.42l1.16.4a5 5 0 005.61-7.82l-.75-1a3 3 0 011.51-4.74l1.17-.35a5 5 0 00-.05-9.63zm-.52 7.71l-1.18.36a5 5 0 00-2.51 7.88l.75 1A3 3 0 0147 44.27l-1.16-.4a5 5 0 00-6.67 4.9V50a3 3 0 01-5.5 1.82l-.7-1a5 5 0 00-4.12-2.16 5 5 0 00-4.12 2.2l-.69 1a3 3 0 01-5.52-1.76v-1.23a5 5 0 00-5-5.13 5.09 5.09 0 00-1.71.3l-1.15.42a3 3 0 01-3.43-4.66l.74-1A5 5 0 005.36 31l-1.18-.34a3 3 0 010-5.79l1.17-.35a5 5 0 003.34-3.28 5.05 5.05 0 00-.82-4.61l-.76-1a3 3 0 013.38-4.7l1.16.41a5 5 0 006.67-4.91l-.05-1.22a3 3 0 015.5-1.83l.7 1a5 5 0 004.12 2.16 5 5 0 004.13-2.2l.69-1a2.91 2.91 0 013.41-1.18 2.92 2.92 0 012.1 2.94v1.22a5 5 0 006.72 4.83l1.15-.42a3 3 0 013.41 4.67l-.74 1a5 5 0 002.61 7.86l1.17.34a3 3 0 010 5.79z"/><path class="cls-1" d="M29.34 26l1-9.11a11.18 11.18 0 013.1 1.32l.86-1.47a12.85 12.85 0 00-3.77-1.56l.36-3.07-1.7-.2-.31 3.09h-.08c-3.25 0-6.32 2.73-6.32 5.63 0 2.62 1.65 4.73 5 6.41L26.37 37A9.37 9.37 0 0123 35.58l-.17-.1L22 37l.17.1a11 11 0 004 1.61l-.34 3 1.69.19.35-3.08H28c3.56 0 7.24-2.26 7.24-6.06-.05-3.11-1.59-4.9-5.9-6.76zm-1.63-.79c-2.36-1.3-3.53-2.81-3.53-4.59s2.26-3.86 4.51-3.92zm.36 11.92l1.06-9.35c3.66 1.68 4.36 3 4.36 5 0 2.92-3.13 4.27-5.42 4.32z"/></g></g></g></svg>