<svg xmlns="http://www.w3.org/2000/svg" viewBox="0 0 51.25 56.76"><path d="M38 39.08A20.14 20.14 0 0031.12 0h-.91v19.22h-17.4v-5.49H7.19a3.67 3.67 0 100 1.83H11v4.58a20.18 20.18 0 0013.34 19l5.47 5.12-3.19 3a5.49 5.49 0 101.78 4 5.28 5.28 0 00-.66-2.59l3.4-3.18 3.4 3.18a5.38 5.38 0 00-.65 2.59 5.5 5.5 0 101.78-4l-3.19-3zM3.66 16.48a1.84 1.84 0 111.84-1.84 1.84 1.84 0 01-1.84 1.84zm19.22 38.44a3.67 3.67 0 113.66-3.67 3.68 3.68 0 01-3.66 3.67zm16.47-7.32a3.67 3.67 0 11-3.66 3.66 3.66 3.66 0 013.66-3.66zm10-28.38H32V1.85a18.29 18.29 0 0117.37 17.37zm-36.51 1.84h36.53a18.29 18.29 0 01-36.53 0zM28 40a19.31 19.31 0 003.15.25 20.49 20.49 0 003.11-.25l-3.15 3z" data-name="Layer 2"/></svg>