<svg xmlns="http://www.w3.org/2000/svg" viewBox="0 0 40 48"><defs><style>.cls-1{fill:#231f20}</style></defs><g id="Layer_2" data-name="Layer 2"><g id="Icons"><g id="General"><g id="Trash"><path class="cls-1" d="M40 6H28.72l-.86-2.58A5 5 0 0023.12 0h-6.24a5 5 0 00-4.74 3.42L11.28 6H0v2h3.05l1.57 31.45a9 9 0 009 8.55h12.77a9 9 0 009-8.55L37 8h3zM14 4.05a3 3 0 012.84-2h6.24a3 3 0 012.92 2l.65 2H13.39zm19.34 35.3a7 7 0 01-7 6.65H13.61a7 7 0 01-7-6.65L5.05 8H35z"/><path class="cls-1" transform="rotate(-2.6 15.058 26.134)" d="M14 14.99h2v22.02h-2z"/><path class="cls-1" transform="rotate(-87.4 24.996 25.999)" d="M13.99 25h22.02v2H13.99z"/></g></g></g></g></svg>