<svg xmlns="http://www.w3.org/2000/svg" viewBox="0 0 40 48"><defs><style>.cls-1{fill:#231f20;}</style></defs><title>Trash</title><g id="Layer_2" data-name="Layer 2"><g id="Icons"><g id="General"><g id="Trash"><path class="cls-1" d="M40,6H28.72l-.86-2.58A5,5,0,0,0,23.12,0H16.88a5,5,0,0,0-4.74,3.42L11.28,6H0V8H3.05L4.62,39.45a9,9,0,0,0,9,8.55H26.39a9,9,0,0,0,9-8.55L37,8h3ZM14,4.05a3,3,0,0,1,2.84-2h6.24A3,3,0,0,1,26,4.05l.65,2H13.39Zm19.34,35.3a7,7,0,0,1-7,6.65H13.61a7,7,0,0,1-7-6.65L5.05,8H35Z"/><rect class="cls-1" x="14" y="14.99" width="2" height="22.02" transform="translate(-1.17 0.71) rotate(-2.6)"/><rect class="cls-1" x="13.99" y="25" width="22.02" height="2" transform="translate(-2.11 49.79) rotate(-87.4)"/></g></g></g></g></svg>