<svg xmlns="http://www.w3.org/2000/svg" viewBox="0 0 48 48"><defs><style>.cls-1{fill:#231f20;}</style></defs><title>Unlink</title><g id="Layer_2" data-name="Layer 2"><g id="Icons"><g id="General"><g id="Unlink"><path class="cls-1" d="M34.67,23.29l1.41,1.42,7.23-7.24A9.05,9.05,0,1,0,30.52,4.66L23.29,11.9l1.42,1.42,7.23-7.24a7.06,7.06,0,0,1,10,0,7.08,7.08,0,0,1-.05,10Z"/><path class="cls-1" d="M16,41.94a7,7,0,1,1-9.88-9.89l7.34-7.34L12,23.29,4.67,30.64a9,9,0,1,0,12.7,12.71L24.71,36,23.29,34.6Z"/><rect class="cls-1" x="37.67" y="34.67" width="2" height="8" transform="translate(-16.02 38.67) rotate(-45)"/><rect class="cls-1" x="8.33" y="5.17" width="2" height="8" transform="translate(-3.75 9.28) rotate(-45)"/><rect class="cls-1" x="39" y="29" width="9" height="2"/><rect class="cls-1" x="29" y="40" width="2" height="8"/><rect class="cls-1" x="17" width="2" height="9"/><rect class="cls-1" y="17" width="8" height="2"/></g></g></g></g></svg>