<svg xmlns="http://www.w3.org/2000/svg" viewBox="0 0 48 48"><defs><style>.cls-1{fill:#231f20}</style></defs><g id="Layer_2" data-name="Layer 2"><g id="Icons"><g id="General"><g id="Unlink"><path class="cls-1" d="M34.67 23.29l1.41 1.42 7.23-7.24A9.05 9.05 0 1030.52 4.66l-7.23 7.24 1.42 1.42 7.23-7.24a7.06 7.06 0 0110 0 7.08 7.08 0 01-.05 10zM16 41.94a7 7 0 11-9.88-9.89l7.34-7.34L12 23.29l-7.33 7.35a9 9 0 1012.7 12.71L24.71 36l-1.42-1.4z"/><path class="cls-1" transform="rotate(-45 38.669 38.673)" d="M37.67 34.67h2v8h-2z"/><path class="cls-1" transform="rotate(-45 9.327 9.167)" d="M8.33 5.17h2v8h-2z"/><path class="cls-1" d="M39 29h9v2h-9zM29 40h2v8h-2zM17 0h2v9h-2zM0 17h8v2H0z"/></g></g></g></g></svg>