<svg xmlns="http://www.w3.org/2000/svg" viewBox="0 0 48 30"><defs><style>.cls-1{fill:#231f20;}</style></defs><title>View</title><g id="Layer_2" data-name="Layer 2"><g id="Icons"><g id="General"><g id="View"><path class="cls-1" d="M47.56,14.41C47.13,13.82,37.06,0,24,0S.87,13.82.44,14.41L0,15l.44.59C.87,16.18,10.94,30,24,30S47.13,16.18,47.56,15.59L48,15ZM24,28C13.42,28,4.62,17.62,2.51,15,4.62,12.38,13.42,2,24,2S43.38,12.38,45.49,15C43.38,17.62,34.58,28,24,28Z"/><path class="cls-1" d="M24,7a8,8,0,1,0,8,8A8,8,0,0,0,24,7Zm0,14a6,6,0,1,1,6-6A6,6,0,0,1,24,21Z"/></g></g></g></g></svg>