<svg xmlns="http://www.w3.org/2000/svg" viewBox="0 0 48 48"><path d="M35.64 28.23l-1.06 1.05-4.23-4.23 3.88-3.88 2.66.12a7 7 0 006.36-3.48L48 9.58l-3.2-3.2-5.28 5.28-2.83-2.82L42 3.55 38.43 0l-8 5a7 7 0 00-3.28 6.13l.09 3L23 18.36l-9.29-9.3-1.16-6.32L2.93.34 0 3.27l2.8 9.22L8.72 14 18 23.29 1.83 39.5a5 5 0 107 7l16.2-16.21 4.24 4.23L27.89 36l10.52 10.4a5.48 5.48 0 007.73-7.76zM9.68 12l-5.4-1.35-2.15-7 1.31-1.37 7.34 1.84 1 5.69 9.82 9.79-2.14 2.13zM7.39 45.12a3 3 0 11-4.26-4.26l16.33-16.3 5-5 4.88-4.87-.12-3.85a5 5 0 012.36-4.41l6.76-4.2 1 1L34 8.62l5.68 5.66L45 9l.73.72-4 7a5 5 0 01-4.58 2.5L33.58 19l-4.53 4.53-5.32 5.31zm19.17-16.3l2.49-2.49 4.26 4.26-2.49 2.48zM45 45a3.53 3.53 0 01-5 0l-9.18-9.1 5-5L45 40a3.5 3.5 0 010 5z" fill="#231f20" data-name="Layer 2"/></svg>