<svg xmlns="http://www.w3.org/2000/svg" viewBox="0 0 48 48"><defs><style>.cls-1{fill:#231f20;}</style></defs><title>Wranch</title><g id="Layer_2" data-name="Layer 2"><g id="Icons"><g id="General"><path id="Wranch" class="cls-1" d="M35.64,28.23l-1.06,1.05-4.23-4.23,3.88-3.88,2.66.12a7,7,0,0,0,6.36-3.48L48,9.58l-3.2-3.2-5.28,5.28L36.69,8.84,42,3.55,38.43,0l-8,5a7,7,0,0,0-3.28,6.13l.09,3L23,18.36l-9.29-9.3L12.55,2.74,2.93.34,0,3.27l2.8,9.22L8.72,14,18,23.29,1.83,39.5a5,5,0,1,0,7,7l16.2-16.21,4.24,4.23L27.89,36,38.41,46.4a5.48,5.48,0,0,0,7.73-7.76ZM9.68,12l-5.4-1.35-2.15-7L3.44,2.28l7.34,1.84,1,5.69L21.6,19.6l-2.14,2.13ZM7.39,45.12a3,3,0,1,1-4.26-4.26l16.33-16.3h0l5-5h0l4.88-4.87-.12-3.85a5,5,0,0,1,2.36-4.41l6.76-4.2,1,1L34,8.62l5.68,5.66L45,9l.73.72-4,7a5,5,0,0,1-4.58,2.5L33.58,19l-4.53,4.53h0l-5.32,5.31h0Zm19.17-16.3,2.49-2.49,4.26,4.26-2.49,2.48ZM45,45a3.53,3.53,0,0,1-5,0L30.82,35.9l5-5L45,40a3.5,3.5,0,0,1,0,5Z"/></g></g></g></svg>