<svg height="70" viewBox="0 0 70 70" width="70" xmlns="http://www.w3.org/2000/svg"><g fill="none" fill-rule="evenodd"><path d="m-636-4526h1440v5630h-1440z" fill="#fff"/><g fill-rule="nonzero" transform="translate(3 3)"><path d="m32.5079365 0c-18.1079365 0-32.5079365 14.4-32.5079365 31.4920635 0 18.1079365 14.4 32.5079365 32.5079365 32.5079365 17.0920635 0 31.4920635-14.4 31.4920635-32.5079365 0-17.0920635-14.4-31.4920635-31.4920635-31.4920635z" fill="#ff4141"/><g fill="#fff" transform="translate(20 11)"><path d="m19.5478217 0h-15.29829524c-2.37973482 0-4.24952646 1.86979164-4.24952646 4.24952646v32.29640114c0 2.3797348 1.86979164 4.2495264 4.24952646 4.2495264h15.29829524c2.3797349 0 4.2495265-1.8697916 4.2495265-4.2495264v-32.29640114c0-2.37973482-1.8697916-4.24952646-4.2495265-4.24952646zm-15.29829524 1.69981059h15.29829524c1.444839 0 2.5497159 1.1898674 2.5497159 2.54971587v28.04687464h-20.39772701v-28.04687464c0-1.35984847 1.1898674-2.54971587 2.54971587-2.54971587zm15.29829524 37.39583291h-15.29829524c-1.44483899 0-2.54971587-1.1898674-2.54971587-2.5497159v-2.5497159h20.39772701v2.5497159c0 1.3598485-1.1898674 2.5497159-2.5497159 2.5497159z"/><circle cx="11.898674" cy="36.545928" r="1.699811"/></g></g></g></svg>