<svg height="70" viewBox="0 0 70 70" width="70" xmlns="http://www.w3.org/2000/svg"><g fill="none" fill-rule="evenodd"><path d="m-251-4874h1440v5630h-1440z" fill="#fff"/><g transform="translate(3 3)"><path d="m32 0c-17.6 0-32 14.4-32 32s14.4 32 32 32 32-14.4 32-32-14.4-32-32-32z" fill="#ff4141" fill-rule="nonzero"/><g stroke="#fff" stroke-linecap="round" stroke-linejoin="round" stroke-width="1.5"><path d="m46 29.0310141v17.9689859h-28v-18"/><path d="m33 43h-12v-9h12z"/><path d="m42 47h-7v-13h7z"/><path d="m46.0434783 18h-28.0869566l-2.9565217 6h34z"/><path d="m15 24v5h34v-5z" transform="matrix(1 0 0 -1 0 53)"/></g><path d="m40.5 41c-.276 0-.5.224-.5.5 0 .277.224.5.5.5s.5-.223.5-.5c0-.276-.224-.5-.5-.5" fill="#fff"/></g></g></svg>