<svg height="70" viewBox="0 0 70 70" width="70" xmlns="http://www.w3.org/2000/svg"><g fill="none" fill-rule="evenodd"><path d="m-251-4524h1440v5630h-1440z" fill="#fff"/><g fill-rule="nonzero" transform="translate(3 3)"><path d="m32 0c-17.6 0-32 14.4-32 32s14.4 32 32 32 32-14.4 32-32-14.4-32-32-32z" fill="#ff4141"/><g fill="#fff" transform="translate(13.382353 16.568627)"><path d="m0 0v23.6687751c0 3.8175444 3.05403549 6.8715798 6.87157986 6.8715798h22.90526624c3.8175443 0 6.8715798-3.0540354 6.8715798-6.8715798v-23.6687751zm35.1214082 1.52701775v6.10807099h-33.59439045v-6.10807099zm-5.3445621 27.48631945h-22.90526624c-2.9776846 0-5.34456211-2.3668775-5.34456211-5.3445621v-14.50666862h33.59439045v14.50666862c0 2.9776846-2.3668775 5.3445621-5.3445621 5.3445621z"/><circle cx="4.581053" cy="4.581053" r="1.527018"/><circle cx="9.162106" cy="4.581053" r="1.527018"/><circle cx="13.74316" cy="4.581053" r="1.527018"/></g></g></g></svg>