<svg xmlns="http://www.w3.org/2000/svg" viewBox="0 0 50 48.89"><path d="M49.53 15.54v-.4L48.38 4.69V1.22A1.22 1.22 0 0047.17 0H2.89a1.22 1.22 0 00-1.22 1.22v3.41L.58 15.14H.52v.38a1 1 0 00-.51.87 6.75 6.75 0 00.47 2.51 3.13 3.13 0 00.73 1.38c.15.2.3.39.46.58v26.81a1.22 1.22 0 001.22 1.22H47a1.23 1.23 0 001.23-1.22V21c.14-.17.28-.33.41-.51a3 3 0 001-1.81 6.57 6.57 0 00.4-2.27 1 1 0 00-.51-.87zM47 15h-3.41V5.79H46zM4 2.27h42v2H4zm37.14 3.52V15H37.7V5.79zm-5.89 0V15h-3.17V5.79zm-5.62 0V15h-3.37V5.79zm-5.82 0V15h-3.4V5.79zm-5.81 0V15h-3.42V5.79zm-5.83 0V15H8.65V5.79zM4 5.79h2.2V15H3.05zM2.09 17.27h9.64a4.9 4.9 0 01-9.64 0zm14.5 29.18H4.12v-8.16h12.47zm0-10.18H4.12V22.68a7 7 0 002.79.59 6.92 6.92 0 005.21-2.39 3.48 3.48 0 00.91-.79 5.4 5.4 0 00.41.42 7 7 0 003.15 2.32zm-2.44-19h9.64a4.9 4.9 0 01-9.64 0zm16.71 29.18H19v-1.18h11.86zm0-2.89H19v-20.3a6.9 6.9 0 005.21-2.46 3.55 3.55 0 00.78-.71 3.89 3.89 0 00.65.63 7 7 0 005.18 2.54zm-4.65-26.29h9.64a4.9 4.9 0 01-9.64 0zm19.57 29.18H33.3v-8.16h12.48zm0-10.18H33.3v-13.4a7 7 0 003.08-2.15 3.89 3.89 0 00.65-.63 3.79 3.79 0 00.78.71 6.87 6.87 0 008 1.92zm-2.69-15a4.9 4.9 0 01-4.82-4h9.64a4.91 4.91 0 01-4.82 4z" fill="#231f20" data-name="Layer 2"/></svg>