<svg xmlns="http://www.w3.org/2000/svg" viewBox="0 0 50 48.89"><defs><style>.cls-1{fill:#231f20;}</style></defs><title>Asset 251</title><g id="Layer_2" data-name="Layer 2"><g id="Icons"><g id="Shopping"><path class="cls-1" d="M49.53,15.54l0-.4h0L48.38,4.69V1.22A1.22,1.22,0,0,0,47.17,0H2.89A1.22,1.22,0,0,0,1.67,1.22V4.63L.58,15.14H.52v.38a1,1,0,0,0-.51.87A6.75,6.75,0,0,0,.48,18.9a3.13,3.13,0,0,0,.73,1.38c.15.2.3.39.46.58V47.67a1.22,1.22,0,0,0,1.22,1.22H47a1.23,1.23,0,0,0,1.23-1.22V21c.14-.17.28-.33.41-.51a3,3,0,0,0,1-1.81,6.57,6.57,0,0,0,.4-2.27A1,1,0,0,0,49.53,15.54ZM47,15H43.59V5.79H46ZM4,2.27H46v2H4ZM41.14,5.79V15H37.7V5.79Zm-5.89,0V15H32.08V5.79Zm-5.62,0V15H26.26V5.79Zm-5.82,0V15h-3.4V5.79ZM18,5.79V15H14.58V5.79Zm-5.83,0V15H8.65V5.79ZM4,5.79H6.2V15H3.05ZM2.09,17.27h9.64a4.9,4.9,0,0,1-9.64,0Zm14.5,29.18H4.12V38.29H16.59Zm0-10.18H4.12V22.68a7,7,0,0,0,2.79.59,6.92,6.92,0,0,0,5.21-2.39,3.48,3.48,0,0,0,.91-.79,5.4,5.4,0,0,0,.41.42,7,7,0,0,0,3.15,2.32Zm-2.44-19h9.64a4.9,4.9,0,0,1-9.64,0ZM30.86,46.45H19V45.27H30.86Zm0-2.89H19V23.26a6.9,6.9,0,0,0,5.21-2.46,3.55,3.55,0,0,0,.78-.71,3.89,3.89,0,0,0,.65.63,7,7,0,0,0,5.18,2.54ZM26.21,17.27h9.64a4.9,4.9,0,0,1-9.64,0ZM45.78,46.45H33.3V38.29H45.78Zm0-10.18H33.3V22.87a7,7,0,0,0,3.08-2.15,3.89,3.89,0,0,0,.65-.63,3.79,3.79,0,0,0,.78.71,6.87,6.87,0,0,0,8,1.92Zm-2.69-15a4.9,4.9,0,0,1-4.82-4h9.64A4.91,4.91,0,0,1,43.09,21.27Z"/></g></g></g></svg>