<svg xmlns="http://www.w3.org/2000/svg" viewBox="0 0 48 40"><defs><style>.cls-1{fill:#231f20;}</style></defs><title>Barcode Scan</title><g id="Layer_2" data-name="Layer 2"><g id="Icons"><g id="Shopping"><g id="Barcode_Scan" data-name="Barcode Scan"><path class="cls-1" d="M6,5A3,3,0,0,1,9,2h6V0H9A5,5,0,0,0,4,5v6H6Z"/><path class="cls-1" d="M42,5v6h2V5a5,5,0,0,0-5-5H33V2h6A3,3,0,0,1,42,5Z"/><path class="cls-1" d="M6,35V29H4v6a5,5,0,0,0,5,5h6V38H9A3,3,0,0,1,6,35Z"/><path class="cls-1" d="M42,35a3,3,0,0,1-3,3H33v2h6a5,5,0,0,0,5-5V29H42Z"/><rect class="cls-1" y="19" width="48" height="2"/></g></g></g></g></svg>