<svg xmlns="http://www.w3.org/2000/svg" viewBox="0 0 37 48"><defs><style>.cls-1{fill:#231f20;}</style></defs><title>Calculator</title><g id="Layer_2" data-name="Layer 2"><g id="Icons"><g id="Shopping"><g id="Calculator"><path class="cls-1" d="M0,0V39a9,9,0,0,0,9,9H28a9,9,0,0,0,9-9V0ZM35,2v8H2V2ZM28,46H9a7,7,0,0,1-7-7V12H35V39A7,7,0,0,1,28,46Z"/><circle class="cls-1" cx="9.5" cy="19.5" r="2.5"/><circle class="cls-1" cx="18.5" cy="19.5" r="2.5"/><circle class="cls-1" cx="27.5" cy="19.5" r="2.5"/><circle class="cls-1" cx="9.5" cy="28.5" r="2.5"/><circle class="cls-1" cx="18.5" cy="28.5" r="2.5"/><circle class="cls-1" cx="27.5" cy="28.5" r="2.5"/><circle class="cls-1" cx="9.5" cy="37.5" r="2.5"/><circle class="cls-1" cx="18.5" cy="37.5" r="2.5"/><circle class="cls-1" cx="27.5" cy="37.5" r="2.5"/></g></g></g></g></svg>