<svg xmlns="http://www.w3.org/2000/svg" viewBox="0 0 37 48"><defs><style>.cls-1{fill:#231f20}</style></defs><g id="Layer_2" data-name="Layer 2"><g id="Icons"><g id="Shopping"><g id="Calculator"><path class="cls-1" d="M0 0v39a9 9 0 009 9h19a9 9 0 009-9V0zm35 2v8H2V2zm-7 44H9a7 7 0 01-7-7V12h33v27a7 7 0 01-7 7z"/><circle class="cls-1" cx="9.5" cy="19.5" r="2.5"/><circle class="cls-1" cx="18.5" cy="19.5" r="2.5"/><circle class="cls-1" cx="27.5" cy="19.5" r="2.5"/><circle class="cls-1" cx="9.5" cy="28.5" r="2.5"/><circle class="cls-1" cx="18.5" cy="28.5" r="2.5"/><circle class="cls-1" cx="27.5" cy="28.5" r="2.5"/><circle class="cls-1" cx="9.5" cy="37.5" r="2.5"/><circle class="cls-1" cx="18.5" cy="37.5" r="2.5"/><circle class="cls-1" cx="27.5" cy="37.5" r="2.5"/></g></g></g></g></svg>