<svg xmlns="http://www.w3.org/2000/svg" viewBox="0 0 50.78 33.04"><path d="M26.26 15.67l.68-6a8.68 8.68 0 011.82.84l.25.15.99-1.57-.28-.15a9.85 9.85 0 00-2.51-1.09l.25-2.24-1.86-.21-.28 2.25c-2.39.12-4.62 2.17-4.62 4.35 0 2 1.17 3.53 3.59 4.78l-.75 6.62a6.92 6.92 0 01-2-.9l-.39-.22-.93 1.58.39.22a7.87 7.87 0 002.7 1.14l-.26 2.21 1.84.2.25-2.24c2.64-.08 5.29-1.82 5.29-4.65.01-2.3-1.13-3.69-4.17-5.07zm-.9 7.87l.64-5.93c2.16 1.05 2.56 1.9 2.56 3.13.04 1.83-1.81 2.65-3.2 2.8zM22.54 12a3 3 0 012.58-2.48l-.61 5.28c-1.33-.8-1.97-1.75-1.97-2.8zm26.41 17.68v1.52h-1.53v1.84h3.36v-3.36h-1.83zM8.26 33h4.89v-1.8H8.26zm9.79 0h4.89v-1.8h-4.89zm9.79 0h4.89v-1.8h-4.89zm9.79 0h4.89v-1.8h-4.89zM0 29.68v3.36h3.37V31.2H1.84v-1.52H0zm0-5.27h1.84v-5.26H0zm0-10.52h1.84V8.63H0zM0 0v3.37h1.84V1.84h1.53V0H0zm8.26 1.84h4.89V0H8.26zm9.79 0h4.89V0h-4.89zm9.79 0h4.89V0h-4.89zm9.79 0h4.89V0h-4.89zM47.42 0v1.84h1.53v1.53h1.83V0h-3.36zM49 24.41h1.83v-5.26H49zm0-10.52h1.83V8.63H49z" fill="#231f20" data-name="Layer 2"/></svg>