<svg xmlns="http://www.w3.org/2000/svg" viewBox="0 0 50.78 33.04"><defs><style>.cls-1{fill:#231f20;}</style></defs><title>coupon</title><g id="Layer_2" data-name="Layer 2"><g id="Icons"><g id="General"><path class="cls-1" d="M26.26,15.67l.68-6a8.68,8.68,0,0,1,1.82.84l.25.15L30,9.09l-.28-.15a9.85,9.85,0,0,0-2.51-1.09l.25-2.24L25.6,5.4l-.28,2.25C22.93,7.77,20.7,9.82,20.7,12c0,2,1.17,3.53,3.59,4.78l-.75,6.62a6.92,6.92,0,0,1-2-.9l-.39-.22-.93,1.58.39.22a7.87,7.87,0,0,0,2.7,1.14l-.26,2.21,1.84.2.25-2.24c2.64-.08,5.29-1.82,5.29-4.65C30.44,18.44,29.3,17.05,26.26,15.67Zm-.9,7.87L26,17.61c2.16,1.05,2.56,1.9,2.56,3.13C28.6,22.57,26.75,23.39,25.36,23.54ZM22.54,12a3,3,0,0,1,2.58-2.48l-.61,5.28C23.18,14,22.54,13.05,22.54,12Z"/><polygon class="cls-1" points="48.95 29.68 48.95 31.2 47.42 31.2 47.42 33.04 50.78 33.04 50.78 29.68 48.95 29.68"/><path class="cls-1" d="M8.26,33h4.89V31.2H8.26Zm9.79,0h4.89V31.2H18.05Zm9.79,0h4.89V31.2H27.84Zm9.79,0h4.89V31.2H37.63Z"/><polygon class="cls-1" points="0 29.68 0 33.04 3.37 33.04 3.37 31.2 1.84 31.2 1.84 29.68 0 29.68"/><path class="cls-1" d="M0,24.41H1.84V19.15H0ZM0,13.89H1.84V8.63H0Z"/><polygon class="cls-1" points="0 0 0 3.37 1.84 3.37 1.84 1.84 3.37 1.84 3.37 0 0 0"/><path class="cls-1" d="M8.26,1.84h4.89V0H8.26Zm9.79,0h4.89V0H18.05Zm9.79,0h4.89V0H27.84Zm9.79,0h4.89V0H37.63Z"/><polygon class="cls-1" points="47.42 0 47.42 1.84 48.95 1.84 48.95 3.37 50.78 3.37 50.78 0 47.42 0"/><path class="cls-1" d="M49,24.41h1.83V19.15H49Zm0-10.52h1.83V8.63H49Z"/></g></g></g></svg>