<svg xmlns="http://www.w3.org/2000/svg" viewBox="0 0 48 34"><defs><style>.cls-1{fill:#231f20;}</style></defs><title>Credit Card</title><g id="Layer_2" data-name="Layer 2"><g id="Icons"><g id="Shopping"><g id="Credit_Card" data-name="Credit Card"><path class="cls-1" d="M43,0H5.05A5.06,5.06,0,0,0,0,5.05V29A5.06,5.06,0,0,0,5.05,34H43A5.06,5.06,0,0,0,48,29V5.05A5.06,5.06,0,0,0,43,0ZM5.05,2H43a3.06,3.06,0,0,1,3,3.05v5H2V5.05A3.06,3.06,0,0,1,5.05,2ZM43,32H5.05A3.06,3.06,0,0,1,2,29V12H46V29A3.06,3.06,0,0,1,43,32Z"/><rect class="cls-1" x="6" y="18" width="10" height="2"/></g></g></g></g></svg>