<svg xmlns="http://www.w3.org/2000/svg" viewBox="0 0 48 34"><defs><style>.cls-1{fill:#231f20}</style></defs><g id="Layer_2" data-name="Layer 2"><g id="Icons"><g id="Shopping"><g id="Credit_Card" data-name="Credit Card"><path class="cls-1" d="M43 0H5.05A5.06 5.06 0 000 5.05V29a5.06 5.06 0 005.05 5H43a5.06 5.06 0 005-5V5.05A5.06 5.06 0 0043 0zM5.05 2H43a3.06 3.06 0 013 3.05v5H2v-5A3.06 3.06 0 015.05 2zM43 32H5.05A3.06 3.06 0 012 29V12h44v17a3.06 3.06 0 01-3 3z"/><path class="cls-1" d="M6 18h10v2H6z"/></g></g></g></g></svg>