<svg xmlns="http://www.w3.org/2000/svg" viewBox="0 0 48 48"><defs><style>.cls-1{fill:#231f20;}</style></defs><title>Pie Chart</title><g id="Layer_2" data-name="Layer 2"><g id="Icons"><g id="Shopping"><path id="Pie_Chart" data-name="Pie Chart" class="cls-1" d="M27,6a19.51,19.51,0,0,0-3,.29V0H23A23.75,23.75,0,0,0,8.53,5,24.75,24.75,0,0,0,0,18v1l7,1.69A20.7,20.7,0,0,0,6,27,21,21,0,1,0,27,6ZM9.75,6.54A21.81,21.81,0,0,1,22,2V22.69L2.24,17.33A22.15,22.15,0,0,1,9.75,6.54ZM27,46A19,19,0,0,1,8.92,21.21L24,25.31v-17A17.71,17.71,0,0,1,27,8a19,19,0,0,1,0,38Z"/></g></g></g></svg>