<svg xmlns="http://www.w3.org/2000/svg" viewBox="0 0 48 48"><defs><style>.cls-1{fill:#231f20;}</style></defs><title>Pie Chart - Alt</title><g id="Layer_2" data-name="Layer 2"><g id="Icons"><g id="Shopping"><path id="Pie_Chart_-_Alt" data-name="Pie Chart - Alt" class="cls-1" d="M24,0A24,24,0,1,0,48,24,24,24,0,0,0,24,0Zm1,2a21.49,21.49,0,0,1,7.52,1.69L25,11.22Zm0,12,9.43-9.41a22.38,22.38,0,0,1,4.4,3.13L25,21.58ZM40.24,9.18a21.85,21.85,0,0,1,3.25,4.64L34.29,23H26.41Zm4.15,6.57A21.86,21.86,0,0,1,46,23H37.12ZM23,2V23.58L7.75,38.81A22,22,0,0,1,23,2Zm1,44A21.9,21.9,0,0,1,9.17,40.23L24.4,25H46c0,.34,0,.67-.06,1A22,22,0,0,1,24,46Z"/></g></g></g></svg>