<svg xmlns="http://www.w3.org/2000/svg" viewBox="0 0 46 48"><defs><style>.cls-1{fill:#231f20;}</style></defs><title>Safe</title><g id="Layer_2" data-name="Layer 2"><g id="Icons"><g id="Shopping"><g id="Safe"><path class="cls-1" d="M0,0V35a9,9,0,0,0,9,9H37a9,9,0,0,0,9-9V0ZM44,35a7,7,0,0,1-7,7H9a7,7,0,0,1-7-7V2H44Z"/><rect class="cls-1" x="4" y="46" width="6" height="2"/><rect class="cls-1" x="36" y="46" width="6" height="2"/><path class="cls-1" d="M28,31a9,9,0,1,0-9-9A9,9,0,0,0,28,31Zm0-16a7,7,0,1,1-7,7A7,7,0,0,1,28,15Z"/><rect class="cls-1" x="10" y="12" width="2" height="20"/></g></g></g></g></svg>