<svg xmlns="http://www.w3.org/2000/svg" viewBox="0 0 48 48"><defs><style>.cls-1{fill:#231f20}</style></defs><g id="Layer_2" data-name="Layer 2"><g id="Icons"><g id="Shopping"><g id="Shopping_Basket" data-name="Shopping Basket"><path class="cls-1" d="M48 14h-9.46L29 0l-1.66 1.11L36.13 14H11.87l8.79-12.89L19 0 9.46 14H0v8h4.14L7 40.37A9 9 0 0015.86 48h16.28A9 9 0 0041 40.37L43.86 22H48zm-8.94 26.06A7 7 0 0132.14 46H15.86a7 7 0 01-6.92-5.94L6.17 22h35.66zM46 20H2v-4h44z"/><path class="cls-1" transform="rotate(-84.65 29.748 32.998)" d="M21.71 32h16.07v2H21.71z"/><path class="cls-1" transform="rotate(-5.36 18.261 32.97)" d="M17.25 24.96h2v16.07h-2z"/></g></g></g></g></svg>