<svg xmlns="http://www.w3.org/2000/svg" viewBox="0 0 48 48"><g data-name="Layer 2"><path d="M45.54 20.78L48 8H8.71L7.34 0H0v2h5.66l4.71 27.52A9 9 0 0019.25 37H44v-2H19.25a7 7 0 01-6.36-4.06l22.6-1.45a11 11 0 0010.05-8.71zM12.31 29L9.06 10h36.71l-2.18 10.36a9 9 0 01-8.23 7.13zm3.19 10a4.5 4.5 0 104.5 4.5 4.51 4.51 0 00-4.5-4.5zm0 7a2.5 2.5 0 112.5-2.5 2.5 2.5 0 01-2.5 2.5zm24-7a4.5 4.5 0 104.5 4.5 4.51 4.51 0 00-4.5-4.5zm0 7a2.5 2.5 0 112.5-2.5 2.5 2.5 0 01-2.5 2.5z" fill="#231f20" data-name="Shopping Cart"/></g></svg>