<svg xmlns="http://www.w3.org/2000/svg" viewBox="0 0 48 48"><defs><style>.cls-1{fill:#231f20;}</style></defs><title>Shopping Cart</title><g id="Layer_2" data-name="Layer 2"><g id="Icons"><g id="Shopping"><g id="Shopping_Cart" data-name="Shopping Cart"><path class="cls-1" d="M45.54,20.78,48,8H8.71L7.34,0H0V2H5.66l4.71,27.52A9,9,0,0,0,19.25,37H44V35H19.25a7,7,0,0,1-6.36-4.06l22.6-1.45A11,11,0,0,0,45.54,20.78ZM12.31,29,9.06,10H45.77L43.59,20.36a9,9,0,0,1-8.23,7.13Z"/><path class="cls-1" d="M15.5,39A4.5,4.5,0,1,0,20,43.5,4.51,4.51,0,0,0,15.5,39Zm0,7A2.5,2.5,0,1,1,18,43.5,2.5,2.5,0,0,1,15.5,46Z"/><path class="cls-1" d="M39.5,39A4.5,4.5,0,1,0,44,43.5,4.51,4.51,0,0,0,39.5,39Zm0,7A2.5,2.5,0,1,1,42,43.5,2.5,2.5,0,0,1,39.5,46Z"/></g></g></g></g></svg>