<svg xmlns="http://www.w3.org/2000/svg" viewBox="0 0 48 44"><defs><style>.cls-1{fill:#231f20}</style></defs><g id="Layer_2" data-name="Layer 2"><g id="Icons"><g id="Shopping"><g id="Wallet"><path class="cls-1" d="M44 10V0L3.76 3.83A4.12 4.12 0 000 8v27.05a9 9 0 009 9h30a8.93 8.93 0 009-8.9V10zM4 5.82L42 2.2V10H4.17A2.12 2.12 0 012 7.9a2.09 2.09 0 012-2.08zM46 31h-9a5 5 0 010-10h9zm-9-12a7 7 0 000 14h9v2.1a6.92 6.92 0 01-7 6.9H9a6.92 6.92 0 01-7-6.9V11.49a4 4 0 002.17.51H46v7z"/><circle class="cls-1" cx="38" cy="26" r="2"/></g></g></g></g></svg>