<svg id="fdd1375e-a4bd-4509-8e36-afa8df54b11d" data-name="Layer 1" xmlns="http://www.w3.org/2000/svg" viewBox="0 0 155.87 50.6"><title>Valassis-Logo_All-Navy</title><polygon points="127.53 30.5 122.33 49.87 127.46 49.87 132.64 30.5 127.53 30.5" style="fill:#121c4f"/><polygon points="129.69 22.49 128.49 26.98 133.61 26.98 134.81 22.49 129.69 22.49" style="fill:#121c4f"/><polygon points="57.34 22.48 49.99 49.87 54.99 49.87 62.32 22.48 57.34 22.48" style="fill:#121c4f"/><path d="M88.35,37.26c-1,3.91,2.85,5.21,5.15,6.22,3.15,1.39,4.47,2,4.16,3.21-.45,1.65-2,2.34-5.33,2.34-2.78,0-5.53-1.32-6.34-2.34l-1.25,4.66a29.63,29.63,0,0,0,7.83,1.12c4.21,0,9.2-1.71,10.37-6.07,1.06-3.92-2.84-5.31-5.7-6.55-1.47-.64-4.12-1.4-3.68-3,.12-.46.55-2,4.71-2,3.35,0,5.79,1.45,6.24,2.07l1.16-4.35a29.85,29.85,0,0,0-6.85-.89c-6.86,0-9.79,2.93-10.47,5.58" transform="translate(-2.04 -1.87)" style="fill:#121c4f"/><path d="M107.91,37.26c-1,3.91,2.86,5.21,5.15,6.22,3.17,1.39,4.48,2,4.16,3.21-.44,1.65-2,2.34-5.31,2.34-2.78,0-5.54-1.32-6.36-2.34l-1.24,4.66a29.63,29.63,0,0,0,7.83,1.12c4.21,0,9.21-1.71,10.38-6.07,1-3.92-2.85-5.31-5.71-6.55-1.47-.64-4.12-1.4-3.68-3,.13-.46.55-2,4.71-2,3.36,0,5.79,1.45,6.25,2.07l1.16-4.35a29.85,29.85,0,0,0-6.85-.89c-6.85,0-9.79,2.93-10.48,5.58" transform="translate(-2.04 -1.87)" style="fill:#121c4f"/><path d="M137.16,37.26c-1,3.91,2.86,5.21,5.15,6.22,3.16,1.39,4.47,2,4.16,3.21-.45,1.65-2,2.34-5.32,2.34-2.78,0-5.54-1.32-6.35-2.34l-1.24,4.66a29.57,29.57,0,0,0,7.83,1.12c4.21,0,9.2-1.71,10.38-6.07,1-3.92-2.85-5.31-5.71-6.55-1.47-.64-4.12-1.4-3.68-3,.13-.46.55-2,4.71-2,3.36,0,5.78,1.45,6.24,2.07l1.17-4.35a29.85,29.85,0,0,0-6.85-.89c-6.86,0-9.8,2.93-10.48,5.58" transform="translate(-2.04 -1.87)" style="fill:#121c4f"/><path d="M37.46,32.22l-1.6.29L34.8,36.42l.62-.2a21.89,21.89,0,0,1,7.16-1.39c1.72,0,2.84.34,3.33,1a1.93,1.93,0,0,1,.2,1.67l-.06.22a.23.23,0,0,1,0,.17l-.31,1.19H45c-11.61,0-15,3.78-15.9,6.94C27.84,50.7,32,52.36,36,52.36a11.69,11.69,0,0,0,7.2-2.51,6,6,0,0,0,.1,1.63l.06.23h5.07a.86.86,0,0,1-.27-.38h0a8,8,0,0,1,.37-3.64L50.83,39c1.31-4.9-1.11-7.31-7.4-7.31a26.7,26.7,0,0,0-6,.59M34.12,46c.55-2.08,4.12-3.23,10.05-3.23h.56c-.06.24-.13.49-.13.49a7.36,7.36,0,0,1-7.27,5.24c-1.17,0-3.82-.25-3.21-2.5" transform="translate(-2.04 -1.87)" style="fill:#121c4f"/><path d="M70.43,32.22l-1.59.29-1.06,3.91.62-.2a21.89,21.89,0,0,1,7.16-1.39c1.72,0,2.83.34,3.34,1a2,2,0,0,1,.19,1.67L79,37.7v.17l-.31,1.19H78C66.42,39.06,63,42.84,62.13,46c-1.26,4.7,2.94,6.36,6.85,6.36a11.76,11.76,0,0,0,7.18-2.51,6,6,0,0,0,.1,1.63v.23h5.09a.79.79,0,0,1-.27-.38h0a8,8,0,0,1,.37-3.64L83.79,39c1.31-4.9-1.11-7.31-7.4-7.31a26.85,26.85,0,0,0-6,.59M67.07,46c.56-2.08,4.14-3.23,10.06-3.23h.56c-.07.24-.13.49-.13.49a7.39,7.39,0,0,1-7.27,5.24c-1.17,0-3.82-.25-3.22-2.5" transform="translate(-2.04 -1.87)" style="fill:#121c4f"/><polygon points="9.7 49.95 18.48 49.95 15.77 42.3 9.7 49.95" style="fill:#121c4f"/><polygon points="0 22.53 9.05 48.1 15.12 40.46 8.77 22.53 0 22.53" style="fill:#121c4f"/><polygon points="49.33 0 16.98 40.76 19.6 48.17 50.3 0 49.33 0" style="fill:#121c4f"/><path d="M155.62,47.72a2.32,2.32,0,1,0,2.29,2.35v0a2.3,2.3,0,0,0-2.28-2.32ZM153.8,50a2,2,0,0,1,1.85-1.95h0a2,2,0,1,1,0,3.91h0a2,2,0,0,1-1.86-2m1-1.24v2.59h.41V50.28h.3a.47.47,0,0,1,.54.38s0,.05,0,.07a2.14,2.14,0,0,0,.17.66h.43a2.3,2.3,0,0,1-.15-.64c-.06-.38-.21-.59-.44-.63h0a.65.65,0,0,0,.51-.62.64.64,0,0,0-.24-.54,1.33,1.33,0,0,0-.8-.2,4.62,4.62,0,0,0-.74.06m.41.28h.31c.46,0,.62.23.62.45s-.29.44-.62.44h-.31Z" transform="translate(-2.04 -1.87)" style="fill:#121c4f"/></svg>