<svg viewBox="0 0 237 52" xmlns="http://www.w3.org/2000/svg" xmlns:xlink="http://www.w3.org/1999/xlink"><defs><path d="M3.248.41a2.506 2.506 0 00-2.5 2.522c0 1.427 1.123 2.536 2.5 2.536 1.392 0 2.493-1.109 2.493-2.536C5.741 1.528 4.64.41 3.259.41h-.011zM1.232 2.932c0-1.176.909-2.13 2.016-2.13h.011c1.123 0 2.023.954 2.023 2.144 0 1.183-.889 2.13-2.002 2.13h-.021c-1.118 0-2.027-.942-2.027-2.144zM2.33 1.589v2.815h.45V3.191h.315c.357 0 .538.137.603.493.059.371.126.63.189.72h.472c-.042-.09-.108-.259-.178-.696-.058-.416-.224-.638-.47-.684v-.022c.302-.092.547-.317.547-.684 0-.272-.09-.464-.256-.585-.169-.124-.448-.214-.876-.214-.335 0-.557.034-.796.07zm.45.299c.076-.009.178-.018.326-.018.502 0 .684.246.684.493 0 .346-.313.482-.684.482H2.78v-.957z" id="a"/></defs><g fill="#121C4F" fill-rule="evenodd"><path d="M111.036 26.626l-4.518 16.863h4.459l4.518-16.863h-4.459m1.89-6.972l-1.046 3.9h4.459l1.046-3.9h-4.459m-63.004-.01l-6.39 23.845h4.343l6.39-23.845h-4.343m25.228 11.24c-.912 3.405 2.482 4.534 4.484 5.414 2.75 1.214 3.895 1.76 3.621 2.792-.387 1.442-1.744 2.04-4.633 2.04-2.421 0-4.818-1.145-5.527-2.036l-1.088 4.053c1.295.37 3.921.98 6.822.98 3.667 0 8.016-1.487 9.035-5.29.918-3.433-2.477-4.61-4.965-5.694-1.28-.558-3.591-1.222-3.206-2.657.105-.4.475-1.703 4.095-1.703 2.925 0 5.044 1.26 5.442 1.806l1.015-3.795c-1.327-.3-3.49-.777-5.978-.777-5.978 0-8.489 2.525-9.117 4.867m17.037 0c-.914 3.405 2.482 4.534 4.484 5.414 2.745 1.214 3.895 1.76 3.619 2.792-.388 1.442-1.742 2.04-4.631 2.04-2.421 0-4.818-1.145-5.529-2.036l-1.086 4.053c1.294.37 3.922.98 6.824.98 3.665 0 8.014-1.487 9.031-5.29.919-3.433-2.477-4.61-4.965-5.694-1.278-.558-3.589-1.222-3.206-2.657.107-.4.481-1.703 4.097-1.703 2.921 0 5.04 1.26 5.44 1.806l1.019-3.795c-1.329-.3-3.492-.777-5.983-.777-5.975 0-8.488 2.525-9.114 4.867m25.481 0c-.913 3.405 2.482 4.534 4.484 5.414 2.748 1.214 3.897 1.76 3.621 2.792-.388 1.442-1.744 2.04-4.631 2.04-2.423 0-4.82-1.145-5.53-2.036l-1.083 4.053c1.294.37 3.916.98 6.82.98 3.666 0 8.019-1.487 9.034-5.29.918-3.433-2.477-4.61-4.966-5.694-1.28-.558-3.59-1.222-3.206-2.657.104-.4.479-1.703 4.095-1.703 2.925 0 5.042 1.26 5.443 1.806l1.015-3.795c-1.324-.3-3.492-.777-5.979-.777-5.975 0-8.491 2.525-9.117 4.867m-86.835-4.355l-1.387.255-.917 3.416.533-.185c2.299-.8 4.397-1.206 6.237-1.206 1.494 0 2.47.297 2.907.884.36.486.266 1.07.162 1.462l-.048.18-.038.16-.278 1.029h-.595c-10.109 0-13.11 3.29-13.846 6.048-1.098 4.086 2.529 5.535 5.962 5.535 2.934 0 5.11-1.304 6.294-2.242a5.32 5.32 0 00.092 1.427l.045.198h4.423a.75.75 0 01-.239-.337c-.003-.003-.004-.01-.006-.014-.173-.517-.056-1.746.326-3.163l2.035-7.594c1.149-4.287-.959-6.37-6.442-6.37-2.437 0-3.423.184-5.22.517m-2.887 11.966c.485-1.813 3.595-2.814 8.754-2.814h.489l-.117.43c-.589 2.193-2.819 4.556-6.332 4.556-1.014 0-3.32-.214-2.794-2.172m31.6-11.967l-1.39.255-.914 3.417.533-.186c2.297-.8 4.397-1.204 6.237-1.204 1.492 0 2.469.297 2.905.882.362.487.268 1.073.163 1.464l-.05.18a5.695 5.695 0 01-.034.156l-.279 1.034h-.598c-10.107 0-13.107 3.29-13.845 6.046-1.096 4.087 2.531 5.535 5.965 5.535 2.932 0 5.108-1.305 6.297-2.241a5.177 5.177 0 00.087 1.427l.044.195 4.424.003a.764.764 0 01-.239-.336h.001c-.001-.006-.005-.011-.007-.015-.172-.518-.056-1.748.326-3.163l2.034-7.595c1.15-4.288-.956-6.37-6.442-6.37-2.436 0-3.422.183-5.218.516m-2.888 11.966c.485-1.812 3.595-2.813 8.754-2.813h.49l-.116.428c-.588 2.196-2.82 4.556-6.336 4.556-1.011 0-3.317-.211-2.792-2.171M42.948.07L14.787 35.566l2.281 6.446L43.792.07h-.844M8.446 43.554h7.641l-2.358-6.658-5.283 6.658M0 19.69l7.88 22.262 5.285-6.654L7.641 19.69H0" fill-rule="nonzero"/><use xlink:href="#a" transform="translate(230.474 39.58)"/><path d="M145.994 41.552c.797.144 1.955.144 3.186.144 6.734.038 10.392-3.764 10.392-10.353.034-5.757-3.223-9.413-9.886-9.413-1.629 0-2.859.144-3.692.326v19.296zm-3.186-21.613a46.108 46.108 0 016.734-.507c4.525 0 7.747 1.049 9.884 3.04 2.208 1.993 3.476 4.817 3.476 8.762 0 3.982-1.268 7.24-3.513 9.486-2.316 2.28-6.082 3.51-10.825 3.51-2.28 0-4.127-.072-5.756-.288V19.939zm22.62 24.076h3.186V26.492h-3.186v17.523zm1.521-20.493c-1.159 0-1.919-.904-1.919-1.955 0-1.121.796-1.991 1.991-1.991 1.159 0 1.955.87 1.955 1.99 0 1.052-.76 1.956-1.991 1.956h-.036zm17.303 9.848c0-.507-.036-.977-.182-1.411-.577-1.884-2.099-3.404-4.452-3.404-3.041 0-5.214 2.57-5.214 6.66 0 3.404 1.773 6.3 5.176 6.3 1.994 0 3.766-1.231 4.418-3.294.18-.507.254-1.121.254-1.701v-3.15zm3.186 8.074c0 4.053-.833 6.48-2.498 8.036-1.738 1.557-4.2 2.1-6.408 2.1-2.099 0-4.416-.506-5.829-1.448l.795-2.46c1.16.759 2.971 1.41 5.141 1.41 3.26 0 5.648-1.7 5.648-6.155V41.01h-.071c-.941 1.628-2.86 2.932-5.577 2.932-4.343 0-7.457-3.694-7.457-8.581 0-5.938 3.874-9.268 7.929-9.268 3.041 0 4.67 1.557 5.466 3.042h.073l.109-2.644h2.822c-.107 1.23-.143 2.68-.143 4.779v10.174zm2.889 2.571h3.186V26.492h-3.186v17.523zm1.521-20.493c-1.159 0-1.918-.904-1.918-1.955 0-1.121.797-1.991 1.99-1.991 1.159 0 1.957.87 1.957 1.99 0 1.052-.761 1.956-1.993 1.956h-.036zm10.1-1.23v4.199h4.561v2.425h-4.561v9.414c0 2.173.614 3.404 2.388 3.404.869 0 1.377-.074 1.847-.218l.144 2.426c-.614.216-1.593.434-2.823.434-1.486 0-2.681-.508-3.441-1.34-.867-.978-1.23-2.533-1.23-4.598v-9.522h-2.714V26.49h2.714v-3.222l3.115-.977m15.961 12.779c-3.476-.071-7.423.545-7.423 3.949 0 2.098 1.377 3.04 2.971 3.04 2.317 0 3.8-1.45 4.308-2.932a3.32 3.32 0 00.144-1.014V35.07zm3.114 4.744c0 1.52.072 3.005.254 4.199h-2.861l-.29-2.208h-.107c-.943 1.375-2.862 2.606-5.359 2.606-3.547 0-5.359-2.498-5.359-5.03 0-4.236 3.766-6.555 10.536-6.518V32.5c0-1.447-.4-4.092-3.982-4.054-1.666 0-3.369.47-4.599 1.303l-.723-2.136c1.449-.906 3.584-1.521 5.794-1.521 5.393 0 6.696 3.657 6.696 7.169v6.552zm2.927 4.199h3.186V18.309h-3.186z" fill-rule="nonzero"/></g></svg>