<?xml version="1.0" encoding="utf-8"?>
<!-- Generator: Adobe Illustrator 23.0.2, SVG Export Plug-In . SVG Version: 6.00 Build 0)  -->
<svg version="1.1" id="Layer_1" xmlns="http://www.w3.org/2000/svg" xmlns:xlink="http://www.w3.org/1999/xlink" x="0px" y="0px"
	 viewBox="0 0 323.5 131" style="enable-background:new 0 0 323.5 131;" xml:space="preserve">
<style type="text/css">
	.st0{fill:#FFFFFF;}
	.st1{clip-path:url(#SVGID_2_);fill:#FFFFFF;}
	.st2{clip-path:url(#SVGID_4_);enable-background:new    ;}
	.st3{clip-path:url(#SVGID_6_);}
	.st4{clip-path:url(#SVGID_8_);}
	.st5{clip-path:url(#SVGID_10_);fill:#FFFFFF;}
</style>
<polyline class="st0" points="153.2,62.4 147.8,82.6 153.2,82.6 158.6,62.4 153.2,62.4 "/>
<polyline class="st0" points="155.5,54 154.2,58.7 159.6,58.7 160.9,54 155.5,54 "/>
<polyline class="st0" points="79.7,54 72,82.6 77.3,82.6 85,54 79.7,54 "/>
<path class="st0" d="M110.1,67.5c-1.1,4.1,3,5.5,5.4,6.5c3.3,1.5,4.7,2.1,4.4,3.4c-0.5,1.7-2.1,2.5-5.6,2.5c-2.9,0-5.8-1.4-6.6-2.4
	l-1.3,4.9c1.6,0.4,4.7,1.2,8.2,1.2c4.4,0,9.6-1.8,10.9-6.4c1.1-4.1-3-5.5-6-6.8c-1.5-0.7-4.3-1.5-3.9-3.2c0.1-0.5,0.6-2,4.9-2
	c3.5,0,6.1,1.5,6.5,2.2l1.2-4.6c-1.6-0.4-4.2-0.9-7.2-0.9C113.8,61.6,110.8,64.7,110.1,67.5"/>
<path class="st0" d="M130.6,67.5c-1.1,4.1,3,5.5,5.4,6.5c3.3,1.5,4.7,2.1,4.4,3.4c-0.5,1.7-2.1,2.5-5.6,2.5c-2.9,0-5.8-1.4-6.6-2.4
	l-1.3,4.9c1.6,0.4,4.7,1.2,8.2,1.2c4.4,0,9.6-1.8,10.9-6.4c1.1-4.1-3-5.5-6-6.8c-1.5-0.7-4.3-1.5-3.9-3.2c0.1-0.5,0.6-2,4.9-2
	c3.5,0,6.1,1.5,6.5,2.2l1.2-4.6c-1.6-0.4-4.2-0.9-7.2-0.9C134.3,61.6,131.3,64.7,130.6,67.5"/>
<path class="st0" d="M161.2,67.5c-1.1,4.1,3,5.5,5.4,6.5c3.3,1.5,4.7,2.1,4.4,3.4c-0.5,1.7-2.1,2.5-5.6,2.5c-2.9,0-5.8-1.4-6.7-2.4
	l-1.3,4.9c1.6,0.4,4.7,1.2,8.2,1.2c4.4,0,9.6-1.8,10.9-6.4c1.1-4.1-3-5.5-6-6.8c-1.5-0.7-4.3-1.5-3.9-3.2c0.1-0.5,0.6-2,4.9-2
	c3.5,0,6.1,1.5,6.5,2.2l1.2-4.6c-1.6-0.4-4.2-0.9-7.2-0.9C165,61.6,162,64.7,161.2,67.5"/>
<path class="st0" d="M56.8,62.2l-1.7,0.3L54,66.7l0.6-0.2c2.8-1,5.3-1.5,7.5-1.5c1.8,0,3,0.4,3.5,1.1c0.4,0.6,0.3,1.3,0.2,1.8
	L65.8,68c0,0.1,0,0.1,0,0.2l-0.3,1.2h-0.7c-12.2,0-15.8,4-16.7,7.3c-1.3,4.9,3,6.7,7.2,6.7c3.5,0,6.1-1.6,7.6-2.7
	c-0.1,0.8,0,1.4,0.1,1.7l0.1,0.2l5.3,0c-0.1-0.1-0.2-0.2-0.3-0.4c0,0,0,0,0,0c-0.2-0.6-0.1-2.1,0.4-3.8l2.4-9.1
	c1.4-5.2-1.2-7.7-7.7-7.7C60.1,61.6,58.9,61.8,56.8,62.2 M53.3,76.6c0.6-2.2,4.3-3.4,10.5-3.4h0.6c-0.1,0.3-0.1,0.5-0.1,0.5
	c-0.7,2.6-3.4,5.5-7.6,5.5C55.4,79.2,52.7,79,53.3,76.6"/>
<path class="st0" d="M91.3,62.2l-1.7,0.3l-1.1,4.1l0.6-0.2c2.8-1,5.3-1.4,7.5-1.4c1.8,0,3,0.4,3.5,1.1c0.4,0.6,0.3,1.3,0.2,1.8
	l-0.1,0.2c0,0.1,0,0.1,0,0.2l-0.3,1.2h-0.7c-12.2,0-15.8,4-16.7,7.3c-1.3,4.9,3,6.7,7.2,6.7c3.5,0,6.1-1.6,7.6-2.7
	c-0.1,0.8,0,1.4,0.1,1.7l0.1,0.2l5.3,0c-0.1-0.1-0.2-0.2-0.3-0.4h0c0,0,0,0,0,0c-0.2-0.6-0.1-2.1,0.4-3.8l2.4-9.1
	c1.4-5.2-1.1-7.7-7.7-7.7C94.6,61.6,93.5,61.8,91.3,62.2 M87.8,76.6c0.6-2.2,4.3-3.4,10.5-3.4h0.6c-0.1,0.3-0.1,0.5-0.1,0.5
	c-0.7,2.6-3.4,5.5-7.6,5.5C90,79.2,87.2,79,87.8,76.6"/>
<g>
	<polygon class="st0" points="71.3,30.4 37.5,73.1 40.2,80.9 72.4,30.4 	"/>
	<polygon class="st0" points="29.8,82.7 39,82.7 36.2,74.7 	"/>
	<polygon class="st0" points="28.9,54 19.7,54 29.2,80.8 35.5,72.8 	"/>
</g>
<path class="st0" d="M195.3,80.3c1,0.2,2.4,0.2,3.8,0.2c8.1,0,12.5-4.5,12.5-12.5c0-6.9-3.9-11.3-11.9-11.3c-2,0-3.4,0.2-4.4,0.4
	V80.3L195.3,80.3z M191.4,54.3c2.4-0.3,5.1-0.6,8.1-0.6c5.4,0,9.3,1.3,11.9,3.7c2.7,2.4,4.2,5.8,4.2,10.5c0,4.8-1.5,8.7-4.2,11.4
	c-2.8,2.7-7.3,4.2-13,4.2c-2.7,0-5-0.1-6.9-0.3V54.3L191.4,54.3z"/>
<path class="st0" d="M218.6,83.3h3.8V62.2h-3.8V83.3L218.6,83.3z M220.5,58.6c-1.4,0-2.3-1.1-2.3-2.4c0-1.3,1-2.4,2.4-2.4
	c1.4,0,2.4,1,2.4,2.4C222.9,57.5,222,58.6,220.5,58.6L220.5,58.6L220.5,58.6z"/>
<path class="st0" d="M241.3,70.5c0-0.6,0-1.2-0.2-1.7c-0.7-2.3-2.5-4.1-5.4-4.1c-3.7,0-6.3,3.1-6.3,8c0,4.1,2.1,7.6,6.2,7.6
	c2.4,0,4.5-1.5,5.3-4c0.2-0.6,0.3-1.3,0.3-2V70.5L241.3,70.5z M245.1,80.2c0,4.9-1,7.8-3,9.7c-2.1,1.9-5.1,2.5-7.7,2.5
	c-2.5,0-5.3-0.6-7-1.7l1-3c1.4,0.9,3.6,1.7,6.2,1.7c3.9,0,6.8-2,6.8-7.4v-2.3h-0.1c-1.1,2-3.4,3.5-6.7,3.5c-5.2,0-9-4.4-9-10.3
	c0-7.1,4.7-11.1,9.5-11.1c3.7,0,5.6,1.9,6.6,3.7h0.1l0.1-3.2h3.4c-0.1,1.5-0.2,3.2-0.2,5.7V80.2L245.1,80.2z"/>
<path class="st0" d="M248.6,83.3h3.8V62.2h-3.8V83.3L248.6,83.3z M250.4,58.6c-1.4,0-2.3-1.1-2.3-2.4c0-1.3,1-2.4,2.4-2.4
	c1.4,0,2.4,1,2.4,2.4C252.9,57.5,251.9,58.6,250.4,58.6L250.4,58.6L250.4,58.6z"/>
<path class="st0" d="M262.6,57.1v5.1h5.5v2.9h-5.5v11.3c0,2.6,0.7,4.1,2.9,4.1c1,0,1.7-0.1,2.2-0.3l0.2,2.9
	c-0.7,0.3-1.9,0.5-3.4,0.5c-1.8,0-3.2-0.6-4.1-1.6c-1-1.2-1.5-3-1.5-5.5V65.1h-3.3v-2.9h3.3v-3.9L262.6,57.1"/>
<path class="st0" d="M281.8,72.5c-4.2-0.1-8.9,0.7-8.9,4.7c0,2.5,1.7,3.7,3.6,3.7c2.8,0,4.6-1.7,5.2-3.5c0.1-0.4,0.2-0.8,0.2-1.2
	V72.5L281.8,72.5z M285.5,78.2c0,1.8,0.1,3.6,0.3,5.1h-3.4l-0.3-2.7h-0.1c-1.1,1.7-3.4,3.1-6.4,3.1c-4.3,0-6.4-3-6.4-6
	c0-5.1,4.5-7.9,12.7-7.8v-0.4c0-1.7-0.5-4.9-4.8-4.9c-2,0-4.1,0.6-5.5,1.6l-0.9-2.6c1.7-1.1,4.3-1.8,7-1.8c6.5,0,8.1,4.4,8.1,8.6
	V78.2L285.5,78.2z"/>
<g>
	<defs>
		<rect id="SVGID_1_" x="289" y="52.4" width="3.8" height="30.9"/>
	</defs>
	<use xlink:href="#SVGID_1_"  style="overflow:visible;fill:#FFFFFF;"/>
	<clipPath id="SVGID_2_">
		<use xlink:href="#SVGID_1_"  style="overflow:visible;"/>
	</clipPath>
	<rect x="283" y="46.3" class="st1" width="15.9" height="42.9"/>
</g>
<g>
	<defs>
		<path id="SVGID_3_" d="M300.3,80.2c0.1,0,0.2,0,0.4,0c0.6,0,0.8,0.3,0.8,0.6c0,0.4-0.4,0.6-0.8,0.6h-0.4V80.2z M299.7,79.9v3.4
			h0.5v-1.5h0.4c0.4,0,0.6,0.2,0.7,0.6c0.1,0.4,0.2,0.8,0.2,0.9h0.6c-0.1-0.1-0.1-0.3-0.2-0.8c-0.1-0.5-0.3-0.8-0.6-0.8v0
			c0.4-0.1,0.7-0.4,0.7-0.8c0-0.3-0.1-0.6-0.3-0.7c-0.2-0.1-0.5-0.3-1.1-0.3C300.3,79.8,300,79.8,299.7,79.9z M298.4,81.5
			c0-1.4,1.1-2.6,2.4-2.6h0c1.4,0,2.4,1.1,2.4,2.6c0,1.4-1.1,2.6-2.4,2.6h0C299.5,84,298.4,82.9,298.4,81.5z M300.8,78.4
			c-1.7,0-3,1.3-3,3c0,1.7,1.4,3.1,3,3.1c1.7,0,3-1.3,3-3.1C303.8,79.8,302.5,78.4,300.8,78.4L300.8,78.4z"/>
	</defs>
	<use xlink:href="#SVGID_3_"  style="overflow:visible;fill-rule:evenodd;clip-rule:evenodd;fill:#FFFFFF;"/>
	<clipPath id="SVGID_4_">
		<use xlink:href="#SVGID_3_"  style="overflow:visible;"/>
	</clipPath>
	<g class="st2">
		<g>
			<defs>
				<rect id="SVGID_5_" x="297.5" y="77.2" width="7.2" height="8.4"/>
			</defs>
			<use xlink:href="#SVGID_5_"  style="overflow:visible;fill:#FFFFFF;"/>
			<clipPath id="SVGID_6_">
				<use xlink:href="#SVGID_5_"  style="overflow:visible;"/>
			</clipPath>
			<g class="st3">
				<defs>
					<rect id="SVGID_7_" x="297.8" y="78.4" width="6" height="6.1"/>
				</defs>
				<use xlink:href="#SVGID_7_"  style="overflow:visible;fill-rule:evenodd;clip-rule:evenodd;fill:#FFFFFF;"/>
				<clipPath id="SVGID_8_">
					<use xlink:href="#SVGID_7_"  style="overflow:visible;"/>
				</clipPath>
				<g class="st4">
					<defs>
						<rect id="SVGID_9_" x="297.5" y="78.4" width="7.2" height="7.2"/>
					</defs>
					<use xlink:href="#SVGID_9_"  style="overflow:visible;fill:#FFFFFF;"/>
					<clipPath id="SVGID_10_">
						<use xlink:href="#SVGID_9_"  style="overflow:visible;"/>
					</clipPath>
					<rect x="291.8" y="72.4" class="st5" width="18" height="18.1"/>
				</g>
			</g>
		</g>
	</g>
</g>
</svg>
