<svg version="1.1" id="Layer_1" xmlns="http://www.w3.org/2000/svg" x="0" y="0" viewBox="0 0 159.2 67.2" xml:space="preserve"><style>.st0{fill:#121c4f}</style><path class="st0" d="M129.6 32.4l-5.2 19.3h5.1l5.2-19.3zm2.1-8l-1.2 4.4h5.2l1.2-4.4zm-72.3 0L52 51.7h5l7.4-27.3zm28.9 12.9c-1 3.9 2.8 5.2 5.2 6.2 3.2 1.4 4.5 2 4.2 3.2-.5 1.7-2 2.3-5.3 2.3-2.8 0-5.5-1.3-6.3-2.3l-1.3 4.7c2.5.7 5.2 1.1 7.8 1.1 4.2 0 9.2-1.7 10.4-6.1 1.1-3.9-2.8-5.3-5.7-6.6-1.5-.6-4.1-1.4-3.7-3 .1-.5.5-2 4.7-2 3.3 0 5.8 1.4 6.2 2.1l1.2-4.4c-2.2-.6-4.5-.9-6.9-.9-6.8.1-9.8 3-10.5 5.7m19.6 0c-1 3.9 2.9 5.2 5.2 6.2 3.2 1.4 4.5 2 4.2 3.2-.4 1.7-2 2.3-5.3 2.3-2.8 0-5.5-1.3-6.4-2.3l-1.2 4.7c2.5.7 5.2 1.1 7.8 1.1 4.2 0 9.2-1.7 10.4-6.1 1-3.9-2.8-5.3-5.7-6.6-1.5-.6-4.1-1.4-3.7-3 .1-.5.5-2 4.7-2 3.4 0 5.8 1.4 6.2 2.1l1.2-4.4c-2.2-.6-4.5-.9-6.9-.9-6.9.1-9.8 3-10.5 5.7m29.3 0c-1 3.9 2.9 5.2 5.2 6.2 3.2 1.4 4.5 2 4.2 3.2-.5 1.7-2 2.3-5.3 2.3-2.8 0-5.5-1.3-6.4-2.3l-1.2 4.7c2.5.7 5.2 1.1 7.8 1.1 4.2 0 9.2-1.7 10.4-6.1 1.1-3.9-2.8-5.3-5.7-6.6-1.5-.6-4.1-1.4-3.7-3 .1-.5.5-2 4.7-2 3.4 0 5.8 1.4 6.2 2.1l1.2-4.4c-2.2-.6-4.5-.9-6.9-.9-6.9.1-9.8 3-10.5 5.7m-99.7-5.1l-1.6.3-1.1 3.9.6-.2c2.3-.9 4.7-1.3 7.2-1.4 1.7 0 2.8.3 3.3 1 .3.5.4 1.1.2 1.7l-.1.2v.2l-.3 1.2H45c-11.6 0-15.1 3.8-15.9 6.9-1.3 4.7 2.9 6.4 6.9 6.4 2.6 0 5.2-.9 7.2-2.5 0 .5 0 1.1.1 1.6l.1.2h5.1c-.1-.1-.2-.2-.3-.4-.2-1.2 0-2.5.4-3.6l2.3-8.7c1.3-4.9-1.1-7.3-7.4-7.3-2.1-.1-4.1.1-6 .5M34.1 46c.6-2.1 4.1-3.2 10.1-3.2h.6c-.1.2-.1.5-.1.5-1 3.2-3.9 5.3-7.3 5.2-1.2 0-3.9-.3-3.3-2.5m36.3-13.8l-1.6.3-1.1 3.9.6-.2c2.3-.9 4.7-1.3 7.2-1.4 1.7 0 2.8.3 3.3 1 .3.5.4 1.1.2 1.7v.4l-.3 1.2H78c-11.6 0-15.1 3.8-15.9 6.9-1.3 4.7 2.9 6.4 6.9 6.4 2.6 0 5.1-.9 7.2-2.5 0 .5 0 1.1.1 1.6v.2h5.1c-.1-.1-.2-.2-.3-.4-.2-1.2 0-2.5.4-3.6l2.3-8.7c1.3-4.9-1.1-7.3-7.4-7.3-2-.1-4 .1-6 .5M67.1 46c.6-2.1 4.1-3.2 10.1-3.2h.6c-.1.2-.1.5-.1.5-1 3.2-3.9 5.3-7.3 5.2-1.3 0-3.9-.3-3.3-2.5m-55.4 5.8h8.8l-2.7-7.6zM2 24.4L11.1 50l6.1-7.7-6.4-17.9zM51.4 1.9L19 42.6l2.6 7.4L52.3 1.9zm104.3 45.8c-1.3 0-2.3 1-2.4 2.3 0 1.3 1 2.3 2.3 2.3s2.3-1 2.3-2.3c.1-1.2-.9-2.3-2.2-2.3zm-.1 4.3c-1-.1-1.9-.9-1.9-2 0-1 .8-1.9 1.9-2 1.1 0 2 .9 2 2s-.9 2-2 2z"/><path class="st0" d="M156 50.1c.3-.1.5-.3.5-.6 0-.2-.1-.4-.2-.5-.2-.1-.5-.2-.8-.2-.2 0-.5 0-.7.1v2.6h.4v-1.1h.3c.3 0 .5.1.5.4v.1c0 .2.1.5.2.7h.4c-.1-.2-.1-.4-.2-.6 0-.6-.1-.8-.4-.9zm-.5-.1h-.3v-.9h.3c.5 0 .6.2.6.5 0 .2-.3.4-.6.4z"/></svg>