<svg xmlns="http://www.w3.org/2000/svg" xmlns:xlink="http://www.w3.org/1999/xlink" viewBox="0 0 323.5 131"><path d="M153.2 62.4l-5.4 20.2h5.4l5.4-20.2h-5.4m2.3-8.4l-1.3 4.7h5.4l1.3-4.7h-5.4m-75.8 0L72 82.6h5.3L85 54h-5.3m30.4 13.5c-1.1 4.1 3 5.5 5.4 6.5 3.3 1.5 4.7 2.1 4.4 3.4-.5 1.7-2.1 2.5-5.6 2.5-2.9 0-5.8-1.4-6.6-2.4l-1.3 4.9c1.6.4 4.7 1.2 8.2 1.2 4.4 0 9.6-1.8 10.9-6.4 1.1-4.1-3-5.5-6-6.8-1.5-.7-4.3-1.5-3.9-3.2.1-.5.6-2 4.9-2 3.5 0 6.1 1.5 6.5 2.2l1.2-4.6c-1.6-.4-4.2-.9-7.2-.9-7.2-.3-10.2 2.8-10.9 5.6m20.5 0c-1.1 4.1 3 5.5 5.4 6.5 3.3 1.5 4.7 2.1 4.4 3.4-.5 1.7-2.1 2.5-5.6 2.5-2.9 0-5.8-1.4-6.6-2.4l-1.3 4.9c1.6.4 4.7 1.2 8.2 1.2 4.4 0 9.6-1.8 10.9-6.4 1.1-4.1-3-5.5-6-6.8-1.5-.7-4.3-1.5-3.9-3.2.1-.5.6-2 4.9-2 3.5 0 6.1 1.5 6.5 2.2l1.2-4.6c-1.6-.4-4.2-.9-7.2-.9-7.2-.3-10.2 2.8-10.9 5.6m30.6 0c-1.1 4.1 3 5.5 5.4 6.5 3.3 1.5 4.7 2.1 4.4 3.4-.5 1.7-2.1 2.5-5.6 2.5-2.9 0-5.8-1.4-6.7-2.4l-1.3 4.9c1.6.4 4.7 1.2 8.2 1.2 4.4 0 9.6-1.8 10.9-6.4 1.1-4.1-3-5.5-6-6.8-1.5-.7-4.3-1.5-3.9-3.2.1-.5.6-2 4.9-2 3.5 0 6.1 1.5 6.5 2.2l1.2-4.6c-1.6-.4-4.2-.9-7.2-.9-7-.3-10 2.8-10.8 5.6M56.8 62.2l-1.7.3-1.1 4.2.6-.2c2.8-1 5.3-1.5 7.5-1.5 1.8 0 3 .4 3.5 1.1.4.6.3 1.3.2 1.8v.3l-.3 1.2h-.7c-12.2 0-15.8 4-16.7 7.3-1.3 4.9 3 6.7 7.2 6.7 3.5 0 6.1-1.6 7.6-2.7-.1.8 0 1.4.1 1.7l.1.2h5.3c-.1-.1-.2-.2-.3-.4-.2-.6-.1-2.1.4-3.8l2.4-9.1c1.4-5.2-1.2-7.7-7.7-7.7-3.1 0-4.3.2-6.4.6m-3.5 14.4c.6-2.2 4.3-3.4 10.5-3.4h.6c-.1.3-.1.5-.1.5-.7 2.6-3.4 5.5-7.6 5.5-1.3 0-4-.2-3.4-2.6m38-14.4l-1.7.3-1.1 4.1.6-.2c2.8-1 5.3-1.4 7.5-1.4 1.8 0 3 .4 3.5 1.1.4.6.3 1.3.2 1.8l-.1.2v.2l-.3 1.2h-.7c-12.2 0-15.8 4-16.7 7.3-1.3 4.9 3 6.7 7.2 6.7 3.5 0 6.1-1.6 7.6-2.7-.1.8 0 1.4.1 1.7l.1.2h5.3c-.1-.1-.2-.2-.3-.4-.2-.6-.1-2.1.4-3.8l2.4-9.1c1.4-5.2-1.1-7.7-7.7-7.7-3-.1-4.1.1-6.3.5m-3.5 14.4c.6-2.2 4.3-3.4 10.5-3.4h.6c-.1.3-.1.5-.1.5-.7 2.6-3.4 5.5-7.6 5.5-1.2 0-4-.2-3.4-2.6M71.3 30.4L37.5 73.1l2.7 7.8 32.2-50.5zM29.8 82.7H39l-2.8-8zM28.9 54h-9.2l9.5 26.8 6.3-8zm166.4 26.3c1 .2 2.4.2 3.8.2 8.1 0 12.5-4.5 12.5-12.5 0-6.9-3.9-11.3-11.9-11.3-2 0-3.4.2-4.4.4v23.2zm-3.9-26c2.4-.3 5.1-.6 8.1-.6 5.4 0 9.3 1.3 11.9 3.7 2.7 2.4 4.2 5.8 4.2 10.5 0 4.8-1.5 8.7-4.2 11.4-2.8 2.7-7.3 4.2-13 4.2-2.7 0-5-.1-6.9-.3V54.3h-.1zm27.2 29h3.8V62.2h-3.8v21.1zm1.9-24.7c-1.4 0-2.3-1.1-2.3-2.4 0-1.3 1-2.4 2.4-2.4s2.4 1 2.4 2.4c-.1 1.3-1 2.4-2.5 2.4zm20.8 11.9c0-.6 0-1.2-.2-1.7-.7-2.3-2.5-4.1-5.4-4.1-3.7 0-6.3 3.1-6.3 8 0 4.1 2.1 7.6 6.2 7.6 2.4 0 4.5-1.5 5.3-4 .2-.6.3-1.3.3-2v-3.8h.1zm3.8 9.7c0 4.9-1 7.8-3 9.7-2.1 1.9-5.1 2.5-7.7 2.5-2.5 0-5.3-.6-7-1.7l1-3c1.4.9 3.6 1.7 6.2 1.7 3.9 0 6.8-2 6.8-7.4v-2.3h-.1c-1.1 2-3.4 3.5-6.7 3.5-5.2 0-9-4.4-9-10.3 0-7.1 4.7-11.1 9.5-11.1 3.7 0 5.6 1.9 6.6 3.7h.1l.1-3.2h3.4c-.1 1.5-.2 3.2-.2 5.7v12.2zm3.5 3.1h3.8V62.2h-3.8v21.1zm1.8-24.7c-1.4 0-2.3-1.1-2.3-2.4 0-1.3 1-2.4 2.4-2.4s2.4 1 2.4 2.4c0 1.3-1 2.4-2.5 2.4zm12.2-1.5v5.1h5.5v2.9h-5.5v11.3c0 2.6.7 4.1 2.9 4.1 1 0 1.7-.1 2.2-.3l.2 2.9c-.7.3-1.9.5-3.4.5-1.8 0-3.2-.6-4.1-1.6-1-1.2-1.5-3-1.5-5.5V65.1h-3.3v-2.9h3.3v-3.9l3.7-1.2m19.2 15.4c-4.2-.1-8.9.7-8.9 4.7 0 2.5 1.7 3.7 3.6 3.7 2.8 0 4.6-1.7 5.2-3.5.1-.4.2-.8.2-1.2v-3.7h-.1zm3.7 5.7c0 1.8.1 3.6.3 5.1h-3.4l-.3-2.7h-.1c-1.1 1.7-3.4 3.1-6.4 3.1-4.3 0-6.4-3-6.4-6 0-5.1 4.5-7.9 12.7-7.8v-.4c0-1.7-.5-4.9-4.8-4.9-2 0-4.1.6-5.5 1.6l-.9-2.6c1.7-1.1 4.3-1.8 7-1.8 6.5 0 8.1 4.4 8.1 8.6v7.8h-.3z" fill="#fff"/><defs><path id="a" d="M289 52.4h3.8v30.9H289z"/></defs><use xlink:href="#a" overflow="visible" fill="#fff"/><clipPath id="b"><use xlink:href="#a" overflow="visible"/></clipPath><path clip-path="url(#b)" fill="#fff" d="M283 46.3h15.9v42.9H283z"/><defs><path id="c" d="M300.3 80.2h.4c.6 0 .8.3.8.6 0 .4-.4.6-.8.6h-.4v-1.2zm-.6-.3v3.4h.5v-1.5h.4c.4 0 .6.2.7.6.1.4.2.8.2.9h.6c-.1-.1-.1-.3-.2-.8s-.3-.8-.6-.8c.4-.1.7-.4.7-.8 0-.3-.1-.6-.3-.7-.2-.1-.5-.3-1.1-.3-.3-.1-.6-.1-.9 0zm-1.3 1.6c0-1.4 1.1-2.6 2.4-2.6 1.4 0 2.4 1.1 2.4 2.6 0 1.4-1.1 2.6-2.4 2.6-1.3-.1-2.4-1.2-2.4-2.6zm2.4-3.1c-1.7 0-3 1.3-3 3s1.4 3.1 3 3.1c1.7 0 3-1.3 3-3.1 0-1.6-1.3-3-3-3z"/></defs><use xlink:href="#c" overflow="visible" fill-rule="evenodd" clip-rule="evenodd" fill="#fff"/><clipPath id="d"><use xlink:href="#c" overflow="visible"/></clipPath><g clip-path="url(#d)"><defs><path id="e" d="M297.5 77.2h7.2v8.4h-7.2z"/></defs><use xlink:href="#e" overflow="visible" fill="#fff"/><clipPath id="f"><use xlink:href="#e" overflow="visible"/></clipPath><g clip-path="url(#f)"><defs><path id="g" d="M297.8 78.4h6v6.1h-6z"/></defs><use xlink:href="#g" overflow="visible" fill-rule="evenodd" clip-rule="evenodd" fill="#fff"/><clipPath id="h"><use xlink:href="#g" overflow="visible"/></clipPath><g clip-path="url(#h)"><defs><path id="i" d="M297.5 78.4h7.2v7.2h-7.2z"/></defs><use xlink:href="#i" overflow="visible" fill="#fff"/><clipPath id="j"><use xlink:href="#i" overflow="visible"/></clipPath><path clip-path="url(#j)" fill="#fff" d="M291.8 72.4h18v18.1h-18z"/></g></g></g></svg>