<?xml version="1.0" encoding="UTF-8"?>
<svg viewBox="0 0 237 52" version="1.1" xmlns="http://www.w3.org/2000/svg" xmlns:xlink="http://www.w3.org/1999/xlink">
    <!-- Generator: Sketch 49.3 (51167) - http://www.bohemiancoding.com/sketch -->
    <title>valassis-blue-navy</title>
    <desc>Created with Sketch.</desc>
    <defs>
        <path d="M3.248,0.41 C1.871,0.41 0.748,1.528 0.748,2.932 C0.748,4.359 1.871,5.468 3.248,5.468 C4.64,5.468 5.741,4.359 5.741,2.932 C5.741,1.528 4.64,0.41 3.259,0.41 L3.248,0.41 Z M1.232,2.932 C1.232,1.756 2.141,0.802 3.248,0.802 L3.259,0.802 C4.382,0.802 5.282,1.756 5.282,2.946 C5.282,4.129 4.393,5.076 3.28,5.076 L3.259,5.076 C2.141,5.076 1.232,4.134 1.232,2.932 Z M2.33,1.589 L2.33,4.404 L2.78,4.404 L2.78,3.191 L3.095,3.191 C3.452,3.191 3.633,3.328 3.698,3.684 C3.757,4.055 3.824,4.314 3.887,4.404 L4.359,4.404 C4.317,4.314 4.251,4.145 4.181,3.708 C4.123,3.292 3.957,3.07 3.711,3.024 L3.711,3.002 C4.013,2.91 4.258,2.685 4.258,2.318 C4.258,2.046 4.168,1.854 4.002,1.733 C3.833,1.609 3.554,1.519 3.126,1.519 C2.791,1.519 2.569,1.553 2.33,1.589 Z M2.78,1.888 C2.856,1.879 2.958,1.87 3.106,1.87 C3.608,1.87 3.79,2.116 3.79,2.363 C3.79,2.709 3.477,2.845 3.106,2.845 L2.78,2.845 L2.78,1.888 Z" id="path-1"></path>
    </defs>
    <g id="Page-1" stroke="none" stroke-width="1" fill="none" fill-rule="evenodd">
        <g id="valassis-blue-navy" transform="translate(0.000000, -1.000000)">
            <g id="Valassis" transform="translate(0.000000, 0.580729)" fill="#121C4F" fill-rule="nonzero">
                <polyline id="Fill-1" points="111.036 27.045 106.518 43.908 110.977 43.908 115.495 27.045 111.036 27.045"></polyline>
                <polyline id="Fill-3" points="112.926 20.073 111.88 23.973 116.339 23.973 117.385 20.073 112.926 20.073"></polyline>
                <polyline id="Fill-5" points="49.922 20.063 43.532 43.908 47.875 43.908 54.265 20.063 49.922 20.063"></polyline>
                <path d="M75.15,31.303 C74.238,34.708 77.632,35.837 79.634,36.717 C82.384,37.931 83.529,38.478 83.255,39.509 C82.868,40.951 81.511,41.549 78.622,41.549 C76.201,41.549 73.804,40.404 73.095,39.513 L72.007,43.566 C73.302,43.937 75.928,44.547 78.829,44.547 C82.496,44.547 86.845,43.059 87.864,39.257 C88.782,35.823 85.387,34.647 82.899,33.562 C81.619,33.004 79.308,32.34 79.693,30.905 C79.798,30.506 80.168,29.202 83.788,29.202 C86.713,29.202 88.832,30.462 89.23,31.008 L90.245,27.213 C88.918,26.913 86.755,26.436 84.267,26.436 C78.289,26.436 75.778,28.961 75.15,31.303" id="Fill-8"></path>
                <path d="M92.187,31.303 C91.273,34.708 94.669,35.837 96.671,36.717 C99.416,37.931 100.566,38.478 100.29,39.509 C99.902,40.951 98.548,41.549 95.659,41.549 C93.238,41.549 90.841,40.404 90.13,39.513 L89.044,43.566 C90.338,43.937 92.966,44.547 95.868,44.547 C99.533,44.547 103.882,43.059 104.899,39.257 C105.818,35.823 102.422,34.647 99.934,33.562 C98.656,33.004 96.345,32.34 96.728,30.905 C96.835,30.506 97.209,29.202 100.825,29.202 C103.746,29.202 105.865,30.462 106.265,31.008 L107.284,27.213 C105.955,26.913 103.792,26.436 101.301,26.436 C95.326,26.436 92.813,28.961 92.187,31.303" id="Fill-12"></path>
                <path d="M117.668,31.303 C116.755,34.708 120.15,35.837 122.152,36.717 C124.9,37.931 126.049,38.478 125.773,39.509 C125.385,40.951 124.029,41.549 121.142,41.549 C118.719,41.549 116.322,40.404 115.612,39.513 L114.529,43.566 C115.823,43.937 118.445,44.547 121.349,44.547 C125.015,44.547 129.368,43.059 130.383,39.257 C131.301,35.823 127.906,34.647 125.417,33.562 C124.137,33.004 121.827,32.34 122.211,30.905 C122.315,30.506 122.69,29.202 126.306,29.202 C129.231,29.202 131.348,30.462 131.749,31.008 L132.764,27.213 C131.44,26.913 129.272,26.436 126.785,26.436 C120.81,26.436 118.294,28.961 117.668,31.303" id="Fill-17"></path>
                <path d="M30.833,26.948 L29.446,27.203 L28.529,30.619 L29.062,30.434 C31.361,29.635 33.459,29.228 35.299,29.228 C36.793,29.228 37.769,29.525 38.206,30.112 C38.566,30.598 38.472,31.183 38.368,31.574 L38.32,31.755 C38.307,31.811 38.294,31.863 38.282,31.914 L38.004,32.943 L37.409,32.943 C27.3,32.943 24.299,36.234 23.563,38.991 C22.465,43.077 26.092,44.526 29.525,44.526 C32.459,44.526 34.635,43.222 35.819,42.284 C35.772,42.919 35.859,43.462 35.911,43.711 L35.956,43.909 L40.379,43.91 C40.282,43.837 40.199,43.725 40.14,43.572 C40.137,43.569 40.136,43.563 40.134,43.558 C39.961,43.041 40.078,41.812 40.46,40.395 L42.495,32.801 C43.644,28.514 41.536,26.431 36.053,26.431 C33.616,26.431 32.63,26.615 30.833,26.948 M27.946,38.914 C28.431,37.101 31.541,36.1 36.7,36.1 L37.189,36.1 C37.132,36.313 37.072,36.531 37.072,36.531 C36.483,38.723 34.253,41.086 30.74,41.086 C29.726,41.086 27.42,40.872 27.946,38.914" id="Fill-21"></path>
                <path d="M59.546,26.947 L58.156,27.202 L57.242,30.619 L57.775,30.433 C60.072,29.634 62.172,29.229 64.012,29.229 C65.504,29.229 66.481,29.526 66.917,30.111 C67.279,30.598 67.185,31.184 67.08,31.575 L67.03,31.755 C67.019,31.81 67.007,31.863 66.996,31.911 L66.717,32.945 L66.119,32.945 C56.012,32.945 53.012,36.235 52.274,38.991 C51.178,43.078 54.805,44.526 58.239,44.526 C61.171,44.526 63.347,43.221 64.536,42.285 C64.485,42.918 64.57,43.462 64.623,43.712 L64.667,43.907 L69.091,43.91 C68.996,43.838 68.911,43.725 68.852,43.574 L68.853,43.574 C68.852,43.568 68.848,43.563 68.846,43.559 C68.674,43.041 68.79,41.811 69.172,40.396 L71.206,32.801 C72.356,28.513 70.25,26.431 64.764,26.431 C62.328,26.431 61.342,26.614 59.546,26.947 M56.658,38.913 C57.143,37.101 60.253,36.1 65.412,36.1 L65.902,36.1 C65.844,36.312 65.786,36.528 65.786,36.528 C65.198,38.724 62.966,41.084 59.45,41.084 C58.439,41.084 56.133,40.873 56.658,38.913" id="Fill-27"></path>
                <g id="V">
                    <polyline id="Fill-41" points="42.948 0.489 14.787 35.985 17.068 42.431 43.792 0.489 42.948 0.489"></polyline>
                    <polyline id="Fill-31" points="8.446 43.973 16.087 43.973 13.729 37.315 8.446 43.973"></polyline>
                    <polyline id="Fill-36" points="0 20.109 7.88 42.371 13.165 35.717 7.641 20.109 0 20.109"></polyline>
                </g>
            </g>
            <g id="COPYRIGHT" transform="translate(230.474163, 40.580729)">
                <mask id="mask-2" fill="white">
                    <use xlink:href="#path-1"></use>
                </mask>
                <use id="path-1" fill="#121C4F" xlink:href="#path-1"></use>
            </g>
            <g id="DIGITAL" transform="translate(142.000000, 18.580729)" fill="#121C4F" fill-rule="nonzero">
                <path d="M3.994,23.971 C4.791,24.115 5.949,24.115 7.18,24.115 C13.914,24.153 17.572,20.351 17.572,13.762 C17.606,8.005 14.349,4.349 7.686,4.349 C6.057,4.349 4.827,4.493 3.994,4.675 L3.994,23.971 Z M0.808,2.358 C2.763,2.069 5.043,1.851 7.542,1.851 C12.067,1.851 15.289,2.9 17.426,4.891 C19.634,6.884 20.902,9.708 20.902,13.653 C20.902,17.635 19.634,20.893 17.389,23.139 C15.073,25.42 11.307,26.649 6.564,26.649 C4.284,26.649 2.437,26.577 0.808,26.361 L0.808,2.358 Z" id="Fill-53"></path>
                <path d="M23.428,26.434 L26.614,26.434 L26.614,8.911 L23.428,8.911 L23.428,26.434 Z M24.949,5.941 C23.79,5.941 23.03,5.037 23.03,3.986 C23.03,2.865 23.826,1.995 25.021,1.995 C26.18,1.995 26.976,2.865 26.976,3.986 C26.976,5.037 26.216,5.941 24.985,5.941 L24.949,5.941 Z" id="Fill-54"></path>
                <path d="M42.252,15.789 C42.252,15.282 42.216,14.812 42.07,14.378 C41.493,12.494 39.971,10.974 37.618,10.974 C34.577,10.974 32.404,13.545 32.404,17.635 C32.404,21.038 34.177,23.934 37.58,23.934 C39.574,23.934 41.346,22.703 41.998,20.64 C42.178,20.133 42.252,19.519 42.252,18.939 L42.252,15.789 Z M45.438,23.863 C45.438,27.916 44.605,30.343 42.94,31.899 C41.202,33.456 38.74,34 36.532,34 C34.433,34 32.116,33.493 30.703,32.551 L31.498,30.091 C32.658,30.85 34.469,31.502 36.639,31.502 C39.899,31.502 42.287,29.801 42.287,25.346 L42.287,23.429 L42.216,23.429 C41.275,25.057 39.356,26.361 36.639,26.361 C32.296,26.361 29.182,22.667 29.182,17.78 C29.182,11.842 33.056,8.512 37.111,8.512 C40.152,8.512 41.781,10.069 42.577,11.554 L42.65,11.554 L42.759,8.91 L45.581,8.91 C45.474,10.141 45.438,11.59 45.438,13.689 L45.438,23.863 Z" id="Fill-55"></path>
                <path d="M48.327,26.434 L51.513,26.434 L51.513,8.911 L48.327,8.911 L48.327,26.434 Z M49.848,5.941 C48.689,5.941 47.93,5.037 47.93,3.986 C47.93,2.865 48.727,1.995 49.92,1.995 C51.079,1.995 51.877,2.865 51.877,3.986 C51.877,5.037 51.116,5.941 49.884,5.941 L49.848,5.941 Z" id="Fill-56"></path>
                <path d="M59.948,4.711 L59.948,8.91 L64.509,8.91 L64.509,11.335 L59.948,11.335 L59.948,20.749 C59.948,22.922 60.562,24.153 62.336,24.153 C63.205,24.153 63.713,24.079 64.183,23.935 L64.327,26.361 C63.713,26.577 62.734,26.795 61.504,26.795 C60.018,26.795 58.823,26.287 58.063,25.456 C57.196,24.477 56.833,22.922 56.833,20.857 L56.833,11.335 L54.119,11.335 L54.119,8.91 L56.833,8.91 L56.833,5.688 L59.948,4.711" id="Fill-57"></path>
                <path d="M75.909,17.49 C72.433,17.418 68.486,18.034 68.486,21.438 C68.486,23.536 69.863,24.478 71.457,24.478 C73.774,24.478 75.257,23.029 75.765,21.546 C75.872,21.22 75.909,20.858 75.909,20.532 L75.909,17.49 Z M79.023,22.233 C79.023,23.754 79.095,25.238 79.277,26.432 L76.416,26.432 L76.126,24.224 L76.019,24.224 C75.076,25.599 73.157,26.83 70.66,26.83 C67.113,26.83 65.301,24.332 65.301,21.8 C65.301,17.564 69.067,15.245 75.837,15.282 L75.837,14.92 C75.837,13.473 75.437,10.828 71.855,10.866 C70.189,10.866 68.486,11.336 67.256,12.169 L66.533,10.033 C67.982,9.127 70.117,8.512 72.327,8.512 C77.72,8.512 79.023,12.169 79.023,15.681 L79.023,22.233 Z" id="Fill-58"></path>
                <polygon id="Fill-59" points="81.95 26.432 85.136 26.432 85.136 0.728 81.95 0.728"></polygon>
            </g>
        </g>
    </g>
</svg>
