<?xml version="1.0" encoding="utf-8"?>
<!-- Generator: Adobe Illustrator 23.0.3, SVG Export Plug-In . SVG Version: 6.00 Build 0)  -->
<svg version="1.1" id="Layer_1" xmlns="http://www.w3.org/2000/svg" xmlns:xlink="http://www.w3.org/1999/xlink" x="0px" y="0px"
	 viewBox="0 0 159.2 67.2" style="enable-background:new 0 0 159.2 67.2;" xml:space="preserve">
<style type="text/css">
	.st0{fill:#121C4F;}
</style>
<title>Valassis logo</title>
<polygon class="st0" points="129.6,32.4 124.4,51.7 129.5,51.7 134.7,32.4 "/>
<polygon class="st0" points="131.7,24.4 130.5,28.8 135.7,28.8 136.9,24.4 "/>
<polygon class="st0" points="59.4,24.4 52,51.7 57,51.7 64.4,24.4 "/>
<path class="st0" d="M88.3,37.3c-1,3.9,2.8,5.2,5.2,6.2c3.2,1.4,4.5,2,4.2,3.2c-0.5,1.7-2,2.3-5.3,2.3c-2.8,0-5.5-1.3-6.3-2.3
	l-1.3,4.7c2.5,0.7,5.2,1.1,7.8,1.1c4.2,0,9.2-1.7,10.4-6.1c1.1-3.9-2.8-5.3-5.7-6.6c-1.5-0.6-4.1-1.4-3.7-3c0.1-0.5,0.5-2,4.7-2
	c3.3,0,5.8,1.4,6.2,2.1l1.2-4.4c-2.2-0.6-4.5-0.9-6.9-0.9C92,31.7,89,34.6,88.3,37.3"/>
<path class="st0" d="M107.9,37.3c-1,3.9,2.9,5.2,5.2,6.2c3.2,1.4,4.5,2,4.2,3.2c-0.4,1.7-2,2.3-5.3,2.3c-2.8,0-5.5-1.3-6.4-2.3
	l-1.2,4.7c2.5,0.7,5.2,1.1,7.8,1.1c4.2,0,9.2-1.7,10.4-6.1c1-3.9-2.8-5.3-5.7-6.6c-1.5-0.6-4.1-1.4-3.7-3c0.1-0.5,0.5-2,4.7-2
	c3.4,0,5.8,1.4,6.2,2.1l1.2-4.4c-2.2-0.6-4.5-0.9-6.9-0.9C111.5,31.7,108.6,34.6,107.9,37.3"/>
<path class="st0" d="M137.2,37.3c-1,3.9,2.9,5.2,5.2,6.2c3.2,1.4,4.5,2,4.2,3.2c-0.5,1.7-2,2.3-5.3,2.3c-2.8,0-5.5-1.3-6.4-2.3
	l-1.2,4.7c2.5,0.7,5.2,1.1,7.8,1.1c4.2,0,9.2-1.7,10.4-6.1c1.1-3.9-2.8-5.3-5.7-6.6c-1.5-0.6-4.1-1.4-3.7-3c0.1-0.5,0.5-2,4.7-2
	c3.4,0,5.8,1.4,6.2,2.1l1.2-4.4c-2.2-0.6-4.5-0.9-6.9-0.9C140.8,31.7,137.9,34.6,137.2,37.3"/>
<path class="st0" d="M37.5,32.2l-1.6,0.3l-1.1,3.9l0.6-0.2c2.3-0.9,4.7-1.3,7.2-1.4c1.7,0,2.8,0.3,3.3,1c0.3,0.5,0.4,1.1,0.2,1.7
	l-0.1,0.2c0,0.1,0,0.1,0,0.2l-0.3,1.2H45c-11.6,0-15.1,3.8-15.9,6.9c-1.3,4.7,2.9,6.4,6.9,6.4c2.6,0,5.2-0.9,7.2-2.5
	c0,0.5,0,1.1,0.1,1.6l0.1,0.2h5.1c-0.1-0.1-0.2-0.2-0.3-0.4l0,0c-0.2-1.2,0-2.5,0.4-3.6l2.3-8.7c1.3-4.9-1.1-7.3-7.4-7.3
	C41.4,31.6,39.4,31.8,37.5,32.2 M34.1,46c0.6-2.1,4.1-3.2,10.1-3.2h0.6c-0.1,0.2-0.1,0.5-0.1,0.5c-1,3.2-3.9,5.3-7.3,5.2
	C36.2,48.5,33.5,48.2,34.1,46"/>
<path class="st0" d="M70.4,32.2l-1.6,0.3l-1.1,3.9l0.6-0.2c2.3-0.9,4.7-1.3,7.2-1.4c1.7,0,2.8,0.3,3.3,1c0.3,0.5,0.4,1.1,0.2,1.7
	L79,37.7c0,0.1,0,0.1,0,0.2l-0.3,1.2H78c-11.6,0-15.1,3.8-15.9,6.9c-1.3,4.7,2.9,6.4,6.9,6.4c2.6,0,5.1-0.9,7.2-2.5
	c0,0.5,0,1.1,0.1,1.6v0.2h5.1c-0.1-0.1-0.2-0.2-0.3-0.4l0,0l0,0c-0.2-1.2,0-2.5,0.4-3.6l2.3-8.7c1.3-4.9-1.1-7.3-7.4-7.3
	C74.4,31.6,72.4,31.8,70.4,32.2 M67.1,46c0.6-2.1,4.1-3.2,10.1-3.2h0.6c-0.1,0.2-0.1,0.5-0.1,0.5c-1,3.2-3.9,5.3-7.3,5.2
	C69.1,48.5,66.5,48.2,67.1,46"/>
<polygon class="st0" points="11.7,51.8 20.5,51.8 17.8,44.2 "/>
<polygon class="st0" points="2,24.4 11.1,50 17.2,42.3 10.8,24.4 "/>
<polygon class="st0" points="51.4,1.9 19,42.6 21.6,50 52.3,1.9 "/>
<g>
	<path class="st0" d="M155.7,47.7C155.7,47.7,155.7,47.7,155.7,47.7c-1.3,0-2.3,1-2.4,2.3c0,1.3,1,2.3,2.3,2.3s2.3-1,2.3-2.3
		c0,0,0,0,0,0C158,48.8,157,47.7,155.7,47.7z M155.6,52c-1-0.1-1.9-0.9-1.9-2h0c0-1,0.8-1.9,1.9-2c1.1,0,2,0.9,2,2
		S156.7,52,155.6,52z"/>
	<path class="st0" d="M156,50.1c0.3-0.1,0.5-0.3,0.5-0.6c0-0.2-0.1-0.4-0.2-0.5c-0.2-0.1-0.5-0.2-0.8-0.2c-0.2,0-0.5,0-0.7,0.1v2.6
		h0.4v-1.1h0.3c0.3,0,0.5,0.1,0.5,0.4c0,0,0,0,0,0.1c0,0.2,0.1,0.5,0.2,0.7h0.4c-0.1-0.2-0.1-0.4-0.2-0.6
		C156.4,50.4,156.3,50.2,156,50.1z M155.5,50h-0.3v-0.9h0.3c0.5,0,0.6,0.2,0.6,0.5C156.1,49.8,155.8,50,155.5,50z"/>
</g>
</svg>
