<svg xmlns="http://www.w3.org/2000/svg" viewBox="0 0 87.07 67.89"><defs><style>.cls-1{fill:#231f20;}</style></defs><title>Asset 270</title><g id="Layer_2" data-name="Layer 2"><g id="Icons"><g id="Location"><rect class="cls-1" x="44.16" y="38.63" width="1.7" height="24"/><rect class="cls-1" x="48.82" y="38.63" width="1.7" height="24"/><rect class="cls-1" x="53.49" y="38.63" width="1.7" height="24"/><path class="cls-1" d="M77.48,65.55V0h-25V6H29.85V19.07H14.35V65.53a0,0,0,0,0,0,0H0v2.34H87.07V65.55Zm-40.5,0-20.29,0V21.43s0,0,0,0l20.28,0Zm2-45.42H50v-1.7H34.69v.64h-2.5V8.3H52.5V33.37H39.34V30.43H50v-1.7H39.34v-3.6H50v-1.7H39.34v-2a2.09,2.09,0,0,0,0-.35A2.39,2.39,0,0,0,38.93,20.13ZM59.65,65.55H39.34V35.71H59.65Zm15.49,0H62V56.29h1.44v-4H62V48h1.44V44H62V37.62h1.44v-4H62v-.25H54.83v-31H75.14Z"/><rect class="cls-1" x="21.42" y="27.63" width="4" height="4"/><rect class="cls-1" x="28.42" y="27.63" width="4" height="4"/><rect class="cls-1" x="59.42" y="8.63" width="4" height="4"/><rect class="cls-1" x="66.42" y="8.63" width="4" height="4"/><rect class="cls-1" x="21.42" y="35.96" width="4" height="4"/><rect class="cls-1" x="21.42" y="44.29" width="4" height="4"/><rect class="cls-1" x="21.42" y="52.63" width="4" height="4"/><rect class="cls-1" x="28.42" y="35.96" width="4" height="4"/><rect class="cls-1" x="28.42" y="44.29" width="4" height="4"/><rect class="cls-1" x="28.42" y="52.63" width="4" height="4"/><rect class="cls-1" x="59.42" y="16.96" width="4" height="4"/><rect class="cls-1" x="59.42" y="25.29" width="4" height="4"/><rect class="cls-1" x="66.42" y="16.96" width="4" height="4"/><rect class="cls-1" x="66.42" y="25.29" width="4" height="4"/><rect class="cls-1" x="66.42" y="33.63" width="4" height="4"/><rect class="cls-1" x="66.42" y="43.96" width="4" height="4"/><rect class="cls-1" x="66.42" y="52.29" width="4" height="4"/></g></g></g></svg>