<svg xmlns="http://www.w3.org/2000/svg" viewBox="0 0 56.1 56.24"><defs><style>.cls-1{fill:#231f20;}</style></defs><title>Asset 271</title><g id="Layer_2" data-name="Layer 2"><g id="Icons"><g id="Location"><path class="cls-1" d="M54.49,54.09V0H31.79V13.45L1.93,5.79V19H0V21.1H1.93V39.91H0v2.14H1.93v12H0v2.15H56.1V54.09Zm-37.41-.33H14.23v-5.5h2.85Zm5,0H19.23v-5.5h2.85Zm9.71.33H24.22V46H12.08v8.09h-8v-12H31.79Zm0-14.18H4.08V21.1H31.79Zm0-21H4.08V8.56l27.71,7.11ZM52.34,54.09H33.93V2.15H52.34Z"/><rect class="cls-1" x="10.33" y="24.63" width="3" height="4"/><rect class="cls-1" x="16.33" y="24.63" width="3" height="4"/><rect class="cls-1" x="22.33" y="24.63" width="3" height="4"/><rect class="cls-1" x="45.33" y="7.63" width="3" height="4"/><rect class="cls-1" x="45.33" y="13.82" width="3" height="4"/><rect class="cls-1" x="45.33" y="20.02" width="3" height="4"/><rect class="cls-1" x="45.33" y="26.23" width="3" height="4"/><rect class="cls-1" x="45.33" y="32.43" width="3" height="4"/><rect class="cls-1" x="45.33" y="38.63" width="3" height="4"/><rect class="cls-1" x="38.33" y="7.63" width="3" height="4"/><rect class="cls-1" x="38.33" y="13.82" width="3" height="4"/><rect class="cls-1" x="38.33" y="20.02" width="3" height="4"/><rect class="cls-1" x="38.33" y="26.23" width="3" height="4"/><rect class="cls-1" x="38.33" y="32.43" width="3" height="4"/><rect class="cls-1" x="38.33" y="38.63" width="3" height="4"/><rect class="cls-1" x="10.33" y="30.63" width="3" height="4"/><rect class="cls-1" x="16.33" y="30.63" width="3" height="4"/><rect class="cls-1" x="22.33" y="30.63" width="3" height="4"/></g></g></g></svg>