<svg xmlns="http://www.w3.org/2000/svg" viewBox="0 0 50 49.96"><defs><style>.cls-1{fill:#231f20;}</style></defs><title>Asset 272</title><g id="Layer_2" data-name="Layer 2"><g id="Icons"><g id="Location"><rect class="cls-1" x="16.04" y="23.86" width="18.23" height="1.79"/><path class="cls-1" d="M33.79,31.83v5.8a1.45,1.45,0,0,0,1.45,1.45h4.51a1.45,1.45,0,0,0,1.46-1.45v-5.8a1.46,1.46,0,0,0-1.46-1.46H35.24A1.45,1.45,0,0,0,33.79,31.83Zm1.62.16h4.18v5.47H35.41Z"/><path class="cls-1" d="M10.24,39.08h4.51a1.45,1.45,0,0,0,1.46-1.45v-5.8a1.46,1.46,0,0,0-1.46-1.46H10.24a1.45,1.45,0,0,0-1.45,1.46v5.8A1.45,1.45,0,0,0,10.24,39.08ZM10.41,32h4.18v5.47H10.41Z"/><path class="cls-1" d="M25.16,9.41A4.55,4.55,0,1,0,29.7,14,4.55,4.55,0,0,0,25.16,9.41Zm0,7.31A2.77,2.77,0,1,1,27.92,14,2.77,2.77,0,0,1,25.16,16.72Z"/><path class="cls-1" d="M45.27,47.92V22.21l2.37,2.31,1.42-1.46-3.79-3.69V7.1a1.43,1.43,0,0,0-1.42-1.42H37.34A1.42,1.42,0,0,0,35.92,7.1v3.19L25.32,0,5.22,19.25H5v.17L1.25,23.05l1.41,1.47L5,22.24V47.92H0v2H50v-2Zm-20-45.09,16.9,16.42h-34Zm4.92,45.09H20.08V31.28H30.23Zm13,0h-11V30.82a1.51,1.51,0,0,0-1.43-1.58H19.47A1.51,1.51,0,0,0,18,30.82v17.1h-11V21.28H43.23Zm0-31L38,12.07V7.72h5.27Z"/></g></g></g></svg>