<svg xmlns="http://www.w3.org/2000/svg" viewBox="0 0 50 49.96"><defs><style>.cls-1{fill:#231f20}</style></defs><g id="Layer_2" data-name="Layer 2"><g id="Icons"><g id="Location"><path class="cls-1" d="M16.04 23.86h18.23v1.79H16.04zm17.75 7.97v5.8a1.45 1.45 0 001.45 1.45h4.51a1.45 1.45 0 001.46-1.45v-5.8a1.46 1.46 0 00-1.46-1.46h-4.51a1.45 1.45 0 00-1.45 1.46zm1.62.16h4.18v5.47h-4.18zm-25.17 7.09h4.51a1.45 1.45 0 001.46-1.45v-5.8a1.46 1.46 0 00-1.46-1.46h-4.51a1.45 1.45 0 00-1.45 1.46v5.8a1.45 1.45 0 001.45 1.45zm.17-7.08h4.18v5.47h-4.18zM25.16 9.41A4.55 4.55 0 1029.7 14a4.55 4.55 0 00-4.54-4.59zm0 7.31A2.77 2.77 0 1127.92 14a2.77 2.77 0 01-2.76 2.72z"/><path class="cls-1" d="M45.27 47.92V22.21l2.37 2.31 1.42-1.46-3.79-3.69V7.1a1.43 1.43 0 00-1.42-1.42h-6.51a1.42 1.42 0 00-1.42 1.42v3.19L25.32 0 5.22 19.25H5v.17l-3.75 3.63 1.41 1.47L5 22.24v25.68H0v2h50v-2zm-20-45.09l16.9 16.42h-34zm4.92 45.09H20.08V31.28h10.15zm13 0h-11v-17.1a1.51 1.51 0 00-1.43-1.58H19.47A1.51 1.51 0 0018 30.82v17.1H7V21.28h36.23zm0-31L38 12.07V7.72h5.27z"/></g></g></g></svg>