<svg xmlns="http://www.w3.org/2000/svg" viewBox="0 0 87.07 67.89"><defs><style>.cls-1{fill:#231f20}</style></defs><g id="Layer_2" data-name="Layer 2"><g id="Icons"><g id="Location"><path class="cls-1" d="M44.16 38.63h1.7v24h-1.7zm4.66 0h1.7v24h-1.7zm4.67 0h1.7v24h-1.7z"/><path class="cls-1" d="M77.48 65.55V0h-25v6H29.85v13.07h-15.5v46.46H0v2.34h87.07v-2.32zm-40.5 0H16.69V21.43h20.28zm2-45.42H50v-1.7H34.69v.64h-2.5V8.3H52.5v25.07H39.34v-2.94H50v-1.7H39.34v-3.6H50v-1.7H39.34v-2a2.09 2.09 0 000-.35 2.39 2.39 0 00-.41-.95zm20.67 45.42H39.34V35.71h20.31zm15.49 0H62v-9.26h1.44v-4H62V48h1.44v-4H62v-6.38h1.44v-4H62v-.25h-7.17v-31h20.31z"/><path class="cls-1" d="M21.42 27.63h4v4h-4zm7 0h4v4h-4zm31-19h4v4h-4zm7 0h4v4h-4zm-45 27.33h4v4h-4zm0 8.33h4v4h-4zm0 8.34h4v4h-4zm7-16.67h4v4h-4zm0 8.33h4v4h-4zm0 8.34h4v4h-4zm31-35.67h4v4h-4zm0 8.33h4v4h-4zm7-8.33h4v4h-4zm0 8.33h4v4h-4zm0 8.34h4v4h-4zm0 10.33h4v4h-4zm0 8.33h4v4h-4z"/></g></g></g></svg>