<svg xmlns="http://www.w3.org/2000/svg" viewBox="0 0 56.1 56.24"><defs><style>.cls-1{fill:#231f20}</style></defs><g id="Layer_2" data-name="Layer 2"><g id="Icons"><g id="Location"><path class="cls-1" d="M54.49 54.09V0h-22.7v13.45L1.93 5.79V19H0v2.1h1.93v18.81H0v2.14h1.93v12H0v2.15h56.1v-2.11zm-37.41-.33h-2.85v-5.5h2.85zm5 0h-2.85v-5.5h2.85zm9.71.33h-7.57V46H12.08v8.09h-8v-12h27.71zm0-14.18H4.08V21.1h27.71zm0-21H4.08V8.56l27.71 7.11zm20.55 35.18H33.93V2.15h18.41z"/><path class="cls-1" d="M10.33 24.63h3v4h-3zm6 0h3v4h-3zm6 0h3v4h-3zm23-17h3v4h-3zm0 6.19h3v4h-3zm0 6.2h3v4h-3zm0 6.21h3v4h-3zm0 6.2h3v4h-3zm0 6.2h3v4h-3zm-7-31h3v4h-3zm0 6.19h3v4h-3zm0 6.2h3v4h-3zm0 6.21h3v4h-3zm0 6.2h3v4h-3zm0 6.2h3v4h-3zm-28-8h3v4h-3zm6 0h3v4h-3zm6 0h3v4h-3z"/></g></g></g></svg>