<svg xmlns="http://www.w3.org/2000/svg" viewBox="0 0 40 48"><defs><style>.cls-1{fill:#231f20}</style></defs><g id="Layer_2" data-name="Layer 2"><g id="Icons"><g id="Location"><g id="Building"><path class="cls-1" d="M23 10h-6v10h6zm-2 8h-2v-6h2zm2 6h-6v10h6zm-2 8h-2v-6h2zm-7-22H8v10h6zm-2 8h-2v-6h2zm20-8h-6v10h6zm-2 8h-2v-6h2zm-16 6H8v10h6zm-2 8h-2v-6h2zm20-8h-6v10h6zm-2 8h-2v-6h2z"/><path class="cls-1" d="M40 0H0v6h2v35a7 7 0 007 7h22a7 7 0 007-7V6h2zM23 46h-6v-6h6zm13-5a5 5 0 01-5 5h-6v-8H15v8H9a5 5 0 01-5-5V6h32zm2-37H2V2h36z"/></g></g></g></g></svg>