<svg xmlns="http://www.w3.org/2000/svg" viewBox="0 0 39.98 48"><defs><style>.cls-1{fill:#231f20;}</style></defs><title>Pin - 1</title><g id="Layer_2" data-name="Layer 2"><g id="Icons"><g id="Location"><g id="Pin_-_1" data-name="Pin - 1"><path class="cls-1" d="M34.16,6l-.1-.1a19.85,19.85,0,0,0-28.14,0l-.1.1a20,20,0,0,0,0,28.24L20,48,34.16,34.19A20,20,0,0,0,34.16,6ZM32.75,32.78,20,45.17,7.23,32.78a18,18,0,0,1,0-25.41l.11-.11a17.84,17.84,0,0,1,25.3,0l.11.11A18,18,0,0,1,32.75,32.78Z"/><path class="cls-1" d="M20,13a6,6,0,1,0,6,6A6,6,0,0,0,20,13Zm0,10a4,4,0,1,1,4-4A4,4,0,0,1,20,23Z"/></g></g></g></g></svg>