<svg xmlns="http://www.w3.org/2000/svg" viewBox="0 0 39.98 48"><defs><style>.cls-1{fill:#231f20}</style></defs><g id="Layer_2" data-name="Layer 2"><g id="Icons"><g id="Location"><g id="Pin_-_1" data-name="Pin - 1"><path class="cls-1" d="M34.16 6l-.1-.1a19.85 19.85 0 00-28.14 0l-.1.1a20 20 0 000 28.24L20 48l14.16-13.81a20 20 0 000-28.19zm-1.41 26.78L20 45.17 7.23 32.78a18 18 0 010-25.41l.11-.11a17.84 17.84 0 0125.3 0l.11.11a18 18 0 010 25.41z"/><path class="cls-1" d="M20 13a6 6 0 106 6 6 6 0 00-6-6zm0 10a4 4 0 114-4 4 4 0 01-4 4z"/></g></g></g></g></svg>