<svg xmlns="http://www.w3.org/2000/svg" viewBox="0 0 48 48"><defs><style>.cls-1{fill:#231f20;}</style></defs><title>World</title><g id="Layer_2" data-name="Layer 2"><g id="Icons"><g id="Location"><path id="World" class="cls-1" d="M48,24A24,24,0,0,0,24.38,0H24a24,24,0,0,0,0,48h.38A24,24,0,0,0,48,24ZM24.25,46h-.08c-2.75,0-5.61-3.83-7.27-10.1a48.37,48.37,0,0,1,7-.45,47.45,47.45,0,0,1,7.56.54C29.82,42.2,27,46,24.25,46Zm-.33-12.54a51.17,51.17,0,0,0-7.48.5,42.78,42.78,0,0,1-.87-9H33c0,.34,0,.67-.05,1a52.82,52.82,0,0,1-1,8A49,49,0,0,0,23.92,33.45Zm-17.29,4A21.85,21.85,0,0,1,2,25H13.48a50.1,50.1,0,0,0,1,9.3,23.32,23.32,0,0,0-7.62,3.05Zm.26-27.29a21.58,21.58,0,0,0,7.69,3A50.5,50.5,0,0,0,13.48,23H2A21.81,21.81,0,0,1,6.89,10.19ZM24.17,2h.08c2.66,0,5.43,3.6,7.11,9.53A48.85,48.85,0,0,1,24,12a50.17,50.17,0,0,1-7-.43C18.71,5.62,21.5,2,24.17,2ZM24,14a52,52,0,0,0,7.85-.52A48.25,48.25,0,0,1,32.91,23H15.49a48.57,48.57,0,0,1,1.06-9.45A53.1,53.1,0,0,0,24,14Zm17.06-3.89A21.79,21.79,0,0,1,46,23h-11a49.68,49.68,0,0,0-1.12-9.87,22.16,22.16,0,0,0,7-2.86ZM34.92,25H46c0,.34,0,.67-.06,1a21.79,21.79,0,0,1-4.58,11.52,22.49,22.49,0,0,0-7.43-3.1A50.43,50.43,0,0,0,34.92,25ZM39.69,8.6a20.11,20.11,0,0,1-6.37,2.58,21.9,21.9,0,0,0-4.18-8.57A22,22,0,0,1,39.69,8.6ZM19.37,2.5a21.72,21.72,0,0,0-4.31,8.76A19.78,19.78,0,0,1,8.24,8.67,22,22,0,0,1,19.37,2.5ZM8,39a21.22,21.22,0,0,1,7-2.79,22.35,22.35,0,0,0,4.44,9.26A21.92,21.92,0,0,1,8,39Zm21.19,6.36a22.6,22.6,0,0,0,4.3-9A20.24,20.24,0,0,1,40,39.06,22,22,0,0,1,29.14,45.39Z"/></g></g></g></svg>