<svg xmlns="http://www.w3.org/2000/svg" viewBox="0 0 48 48"><path d="M48 24A24 24 0 0024.38 0H24a24 24 0 000 48h.38A24 24 0 0048 24zM24.25 46h-.08c-2.75 0-5.61-3.83-7.27-10.1a48.37 48.37 0 017-.45 47.45 47.45 0 017.56.54C29.82 42.2 27 46 24.25 46zm-.33-12.54a51.17 51.17 0 00-7.48.5 42.78 42.78 0 01-.87-9H33c0 .34 0 .67-.05 1a52.82 52.82 0 01-1 8 49 49 0 00-8.03-.51zm-17.29 4A21.85 21.85 0 012 25h11.48a50.1 50.1 0 001 9.3 23.32 23.32 0 00-7.62 3.05zm.26-27.29a21.58 21.58 0 007.69 3 50.5 50.5 0 00-1.1 9.83H2a21.81 21.81 0 014.89-12.81zM24.17 2h.08c2.66 0 5.43 3.6 7.11 9.53A48.85 48.85 0 0124 12a50.17 50.17 0 01-7-.43C18.71 5.62 21.5 2 24.17 2zM24 14a52 52 0 007.85-.52A48.25 48.25 0 0132.91 23H15.49a48.57 48.57 0 011.06-9.45A53.1 53.1 0 0024 14zm17.06-3.89A21.79 21.79 0 0146 23H35a49.68 49.68 0 00-1.12-9.87 22.16 22.16 0 007-2.86zM34.92 25H46c0 .34 0 .67-.06 1a21.79 21.79 0 01-4.58 11.52 22.49 22.49 0 00-7.43-3.1 50.43 50.43 0 00.99-9.42zm4.77-16.4a20.11 20.11 0 01-6.37 2.58 21.9 21.9 0 00-4.18-8.57A22 22 0 0139.69 8.6zM19.37 2.5a21.72 21.72 0 00-4.31 8.76 19.78 19.78 0 01-6.82-2.59A22 22 0 0119.37 2.5zM8 39a21.22 21.22 0 017-2.79 22.35 22.35 0 004.44 9.26A21.92 21.92 0 018 39zm21.19 6.36a22.6 22.6 0 004.3-9 20.24 20.24 0 016.51 2.7 22 22 0 01-10.86 6.33z" fill="#231f20" data-name="Layer 2"/></svg>