<svg xmlns="http://www.w3.org/2000/svg" viewBox="0 0 48 26"><defs><style>.cls-1{fill:#231f20;}</style></defs><title>Anchor</title><g id="Layer_2" data-name="Layer 2"><g id="Icons"><g id="Design"><path id="Anchor" class="cls-1" d="M45,8a3,3,0,1,0-2.82-4H28.9a5,5,0,0,0-9.8,0H5.82a3,3,0,1,0,0,2h9.1a17,17,0,0,0-1.5,1,18.43,18.43,0,0,0-6.55,9,5,5,0,0,0-4.75,6.08,5,5,0,0,0,3.79,3.79,5,5,0,0,0,2.94-9.52A16.41,16.41,0,0,1,19.18,6.24a5,5,0,0,0,9.64,0A16.36,16.36,0,0,1,39.11,16.38a5,5,0,1,0,2-.37,18.19,18.19,0,0,0-8-10h9.06A3,3,0,0,0,45,8ZM10,21a3,3,0,1,1-3-3A3,3,0,0,1,10,21ZM24,8a3,3,0,1,1,3-3A3,3,0,0,1,24,8ZM44,21a3,3,0,1,1-3-3A3,3,0,0,1,44,21Z"/></g></g></g></svg>