<svg xmlns="http://www.w3.org/2000/svg" viewBox="0 0 46 46"><defs><style>.cls-1{fill:#231f20;}</style></defs><title>Eye Dropper</title><g id="Layer_2" data-name="Layer 2"><g id="Icons"><g id="Design"><g id="Eye_Dropper" data-name="Eye Dropper"><polygon class="cls-1" points="12.58 39.15 2.84 43.16 6.85 33.42 25.31 14.96 23.9 13.54 5.15 32.29 0 46 13.71 40.85 32.45 22.1 31.04 20.69 12.58 39.15"/><path class="cls-1" d="M44.25,1.83l-.08-.08a6,6,0,0,0-8.48,0L28.9,8.54,24,3.63,22.57,5,27.48,10h0L36,18.52h0L41,23.43,42.37,22,37.46,17.1l6.79-6.79A6,6,0,0,0,44.25,1.83ZM42.83,8.9,36,15.69,30.31,10,37.1,3.17a4.1,4.1,0,0,1,5.66,0l.07.07a4,4,0,0,1,0,5.66Z"/></g></g></g></g></svg>