<svg xmlns="http://www.w3.org/2000/svg" viewBox="0 0 30.8 46.94"><title>office </title><g id="Layer_2" data-name="Layer 2"><g id="Icons"><g id="Design"><path d="M29,11.55A6.28,6.28,0,0,0,30.6,5.39,6.89,6.89,0,0,0,25.33.15a.78.78,0,0,0-.84,1.19c1.13,1.73.29,2.79-.69,4a7.15,7.15,0,0,0-1,1.53,3.84,3.84,0,0,0-.08,3,3.65,3.65,0,0,0,.91,1.3l-4.45,8h-.67V.79A.79.79,0,0,0,17.7,0H10a.79.79,0,0,0-.79.79v18.4H8.71l-2.4-8,0-.09h0v0h0a.79.79,0,0,0-.19-.25L2,7a.8.8,0,0,0-.84-.16.79.79,0,0,0-.49.69L.4,13.34a.63.63,0,0,0,0,.27l1.43,5.58H1.79a1.81,1.81,0,0,0-1.32.58A1.76,1.76,0,0,0,0,21.13L1.59,40.18v0l.27,3.23a3.82,3.82,0,0,0,3.79,3.49H22.09a3.83,3.83,0,0,0,3.8-3.49l1.86-22.32A1.8,1.8,0,0,0,26,19.19H24.6l2.57-6.81A3.61,3.61,0,0,0,29,11.55Zm-18.22-10h6.11V3.84H13.86a.79.79,0,0,0,0,1.57h3.06V7.67H15.78a.79.79,0,0,0,0,1.58h1.14v2.26H13.86a.79.79,0,0,0,0,1.57h3.06v2.27H15.78a.79.79,0,0,0,0,1.57h1.14v2.27H10.81ZM2.18,9.31l2,1.87L2,12.15Zm-.07,4.53L5.06,12.5l2,6.69H3.49ZM26.18,21,24.32,43.32a2.25,2.25,0,0,1-2.23,2H5.66a2.26,2.26,0,0,1-2.23-2l-.2-2.42H19.92a.79.79,0,0,0,0-1.57H3.1L1.57,21l.22-.24H26Zm-3.27-1.81H21l4-7.16.6.21Zm2.6-8.62a3.39,3.39,0,0,1-.38-.2L25,10.29a.05.05,0,0,1,0,0,2.21,2.21,0,0,1-.81-1,2.33,2.33,0,0,1,.07-1.79A5.93,5.93,0,0,1,25,6.35c.76-1,1.82-2.29,1.53-4a5.29,5.29,0,0,1,2.5,3.44c.43,1.79,0,3.73-1,4.6A2.27,2.27,0,0,1,25.51,10.57Z"/></g></g></g></svg>