<svg xmlns="http://www.w3.org/2000/svg" viewBox="0 0 30.8 46.94"><path d="M29 11.55a6.28 6.28 0 001.6-6.16A6.89 6.89 0 0025.33.15a.78.78 0 00-.84 1.19c1.13 1.73.29 2.79-.69 4a7.15 7.15 0 00-1 1.53 3.84 3.84 0 00-.08 3 3.65 3.65 0 00.91 1.3l-4.45 8h-.67V.79A.79.79 0 0017.7 0H10a.79.79 0 00-.79.79v18.4h-.5l-2.4-8v-.09a.79.79 0 00-.19-.25L2 7a.8.8 0 00-.84-.16.79.79 0 00-.49.69L.4 13.34a.63.63 0 000 .27l1.43 5.58h-.04a1.81 1.81 0 00-1.32.58A1.76 1.76 0 000 21.13l1.59 19.05.27 3.23a3.82 3.82 0 003.79 3.49h16.44a3.83 3.83 0 003.8-3.49l1.86-22.32a1.8 1.8 0 00-1.75-1.9h-1.4l2.57-6.81a3.61 3.61 0 001.83-.83zm-18.22-10h6.11v2.29h-3.03a.79.79 0 000 1.57h3.06v2.26h-1.14a.79.79 0 000 1.58h1.14v2.26h-3.06a.79.79 0 000 1.57h3.06v2.27h-1.14a.79.79 0 000 1.57h1.14v2.27h-6.11zm-8.6 7.76l2 1.87-2.18.97zm-.07 4.53l2.95-1.34 2 6.69H3.49zM26.18 21l-1.86 22.32a2.25 2.25 0 01-2.23 2H5.66a2.26 2.26 0 01-2.23-2l-.2-2.42h16.69a.79.79 0 000-1.57H3.1L1.57 21l.22-.24H26zm-3.27-1.81H21l4-7.16.6.21zm2.6-8.62a3.39 3.39 0 01-.38-.2l-.13-.08a2.21 2.21 0 01-.81-1 2.33 2.33 0 01.07-1.79A5.93 5.93 0 0125 6.35c.76-1 1.82-2.29 1.53-4a5.29 5.29 0 012.5 3.44c.43 1.79 0 3.73-1 4.6a2.27 2.27 0 01-2.52.18z" data-name="Layer 2"/></svg>