<svg xmlns="http://www.w3.org/2000/svg" viewBox="0 0 46 48"><defs><style>.cls-1{fill:#231f20;}</style></defs><title>Paint Bucket</title><g id="Layer_2" data-name="Layer 2"><g id="Icons"><g id="Design"><g id="Paint_Bucket" data-name="Paint Bucket"><path class="cls-1" d="M44.25,37.83,40,33.63l-4.24,4.2a6,6,0,0,0,0,8.43,6,6,0,0,0,8.47,0,6,6,0,0,0,0-8.43Zm-1.39,7a4,4,0,0,1-5.69,0,4,4,0,0,1,0-5.63L40,36.41l2.84,2.82a4,4,0,0,1,0,5.63Z"/><path class="cls-1" d="M38,32.25l1.42-1.42L22,13.41V0H20V11.44L15.36,6.79,14,8.21l2.12,2.12L2.64,23.76a9,9,0,0,0,0,12.73l7.07,7.07a9,9,0,0,0,12.73,0L35.87,30.13Zm-17,9.9a7,7,0,0,1-9.9,0L4.05,35.08a7,7,0,0,1,0-9.9L17.48,11.74,20,14.27v7.91A3.24,3.24,0,0,0,18,25a3,3,0,0,0,6,0,3.24,3.24,0,0,0-2-2.82V16.24L34.46,28.71Z"/></g></g></g></g></svg>