<svg xmlns="http://www.w3.org/2000/svg" viewBox="0 0 32 48"><defs><style>.cls-1{fill:#231f20;}</style></defs><title>Paint Brush</title><g id="Layer_2" data-name="Layer 2"><g id="Icons"><g id="Design"><path id="Paint_Brush" data-name="Paint Brush" class="cls-1" d="M0,0V19.44a7,7,0,0,0,3.65,6.14l3.16,1.73a7,7,0,0,1,3.6,6.92l-.74,6.7a6.37,6.37,0,1,0,12.66,0l-.74-6.7a7,7,0,0,1,3.6-6.92l3.16-1.73A7,7,0,0,0,32,19.44V0ZM30,2V16H2V2ZM27.39,23.83l-3.16,1.72a9,9,0,0,0-4.63,8.9l.74,6.7a4.37,4.37,0,1,1-8.68,0l.74-6.7a9,9,0,0,0-4.63-8.9L4.61,23.83A5,5,0,0,1,2,19.44V18H30v1.44A5,5,0,0,1,27.39,23.83Z"/></g></g></g></svg>