<svg xmlns="http://www.w3.org/2000/svg" viewBox="0 0 46 48"><g data-name="Layer 2"><path d="M44.25 37.83L40 33.63l-4.24 4.2a6 6 0 000 8.43 6 6 0 008.47 0 6 6 0 000-8.43zm-1.39 7a4 4 0 01-5.69 0 4 4 0 010-5.63L40 36.41l2.84 2.82a4 4 0 010 5.63zM38 32.25l1.42-1.42L22 13.41V0h-2v11.44l-4.64-4.65L14 8.21l2.12 2.12L2.64 23.76a9 9 0 000 12.73l7.07 7.07a9 9 0 0012.73 0l13.43-13.43zm-17 9.9a7 7 0 01-9.9 0l-7.05-7.07a7 7 0 010-9.9l13.43-13.44L20 14.27v7.91A3.24 3.24 0 0018 25a3 3 0 006 0 3.24 3.24 0 00-2-2.82v-5.94l12.46 12.47z" fill="#231f20" data-name="Paint Bucket"/></g></svg>