<svg xmlns="http://www.w3.org/2000/svg" viewBox="0 0 47.6 47.6"><defs><style>.cls-1{fill:#231f20;}</style></defs><title>Pencil</title><g id="Layer_2" data-name="Layer 2"><g id="Icons"><g id="Design"><path class="cls-1" d="M46.34,1.26a4.31,4.31,0,0,0-6.09,0L4.48,37,.76,45.62l-.51.51a.87.87,0,0,0,0,1.22.88.88,0,0,0,1.23,0l.5-.51,8.55-3.69L46.34,7.36A4.32,4.32,0,0,0,46.34,1.26ZM9.29,41.81,4.47,43.89l-.75-.75L5.8,38.32,39.3,4.65l0,0L43.27,8ZM45.12,6.14l-.43.43L40.76,3.2l.71-.71a2.58,2.58,0,0,1,3.65,0,2.53,2.53,0,0,1,.76,1.82A2.57,2.57,0,0,1,45.12,6.14Z"/></g></g></g></svg>