<svg xmlns="http://www.w3.org/2000/svg" viewBox="0 0 48 48"><defs><style>.cls-1{fill:#231f20;}</style></defs><title>Ruler</title><g id="Layer_2" data-name="Layer 2"><g id="Icons"><g id="Design"><path id="Ruler" class="cls-1" d="M46,10.63,35.34,0,0,35.34,10.64,46a6.94,6.94,0,0,0,9.81,0L46,20.45a7,7,0,0,0,0-9.82ZM44.57,19,19.05,44.57a5,5,0,0,1-7,0L2.8,35.34l4.26-4.26,7.78,7.78,1.4-1.4L8.46,29.68l4.25-4.25,5,4.95,1.4-1.4-5-5,4.25-4.25,7.78,7.78,1.41-1.4-7.79-7.78L24,14.12l4.95,5,1.4-1.4-4.95-5,4.25-4.25,7.79,7.78,1.4-1.4L31.09,7.06,35.34,2.8,44.57,12A4.94,4.94,0,0,1,44.57,19Z"/></g></g></g></svg>