<svg xmlns="http://www.w3.org/2000/svg" viewBox="0 0 42 48"><path d="M34 32h-.08l-6.64-9.51 6.55-9.39A9.51 9.51 0 0031.45 0h-1l-9.4 13.51L11.62 0h-.94a9.52 9.52 0 00-2.41 13.05l6.56 9.38L8.18 32H8a8 8 0 108 8 8.12 8.12 0 00-.1-1.21l5.16-7.4 5.07 7.24A7.85 7.85 0 0026 40a8 8 0 108-8zM31.2 2.45a7.27 7.27 0 011 9.46l-6.13 8.78-3.79-5.43zM8 46a6 6 0 116-6 6 6 0 01-6 6zm7.13-9.64a8 8 0 00-4.75-4l5.67-8.13 3.79 5.43zM9.91 11.91a7.28 7.28 0 011-9.46l20.8 29.84a8 8 0 00-4.79 4zM34 46a6 6 0 116-6 6 6 0 01-6 6z" fill="#231f20" data-name="Layer 2"/></svg>