<svg xmlns="http://www.w3.org/2000/svg" viewBox="0 0 42 48"><defs><style>.cls-1{fill:#231f20;}</style></defs><title>Scissors</title><g id="Layer_2" data-name="Layer 2"><g id="Icons"><g id="Design"><path id="Scissors" class="cls-1" d="M34,32h-.08l-6.64-9.51,6.55-9.39A9.51,9.51,0,0,0,31.45,0h-1L21.05,13.51,11.62,0h-.94A9.52,9.52,0,0,0,8.27,13.05l6.56,9.38L8.18,32H8a8,8,0,1,0,8,8,8.12,8.12,0,0,0-.1-1.21l5.16-7.4,5.07,7.24A7.85,7.85,0,0,0,26,40a8,8,0,1,0,8-8ZM31.2,2.45a7.27,7.27,0,0,1,1,9.46l-6.13,8.78-3.79-5.43ZM8,46a6,6,0,1,1,6-6A6,6,0,0,1,8,46Zm7.13-9.64a8,8,0,0,0-4.75-4l5.67-8.13,3.79,5.43ZM9.91,11.91a7.28,7.28,0,0,1,1-9.46L31.71,32.29a8,8,0,0,0-4.79,4ZM34,46a6,6,0,1,1,6-6A6,6,0,0,1,34,46Z"/></g></g></g></svg>