<svg xmlns="http://www.w3.org/2000/svg" viewBox="0 0 34 48"><defs><style>.cls-1{fill:#231f20}</style></defs><g id="Layer_2" data-name="Layer 2"><g id="Icons"><g id="Device_Electronic" data-name="Device / Electronic"><g id="Apple_Watch" data-name="Apple Watch"><path class="cls-1" d="M29 13h-1a5.14 5.14 0 00-5.13-5h-.07l-2-8H7.25l-2 8h-.1A5.16 5.16 0 000 13.15v21.7A5.16 5.16 0 005.15 40h.07l2 8h13.5l2-8h.07A5.16 5.16 0 0028 34.85V23h1a5 5 0 000-10zM8.81 2h10.38l1.52 6H7.29zm10.38 44H8.81l-1.52-6h13.42zM26 34.85A3.15 3.15 0 0122.85 38H5.15A3.15 3.15 0 012 34.85v-21.7A3.15 3.15 0 015.15 10h17.7A3.15 3.15 0 0126 13.15zM29 21h-1v-6h1a3 3 0 010 6z"/><path class="cls-1" d="M30 25h2v10h-2z"/></g></g></g></g></svg>