<svg xmlns="http://www.w3.org/2000/svg" viewBox="0 0 34 48"><defs><style>.cls-1{fill:#231f20;}</style></defs><title>Apple Watch</title><g id="Layer_2" data-name="Layer 2"><g id="Icons"><g id="Device_Electronic" data-name="Device / Electronic"><g id="Apple_Watch" data-name="Apple Watch"><path class="cls-1" d="M29,13H28a5.14,5.14,0,0,0-5.13-5h-.07l-2-8H7.25l-2,8H5.15A5.16,5.16,0,0,0,0,13.15v21.7A5.16,5.16,0,0,0,5.15,40h.07l2,8h13.5l2-8h.07A5.16,5.16,0,0,0,28,34.85V23h1a5,5,0,0,0,0-10ZM8.81,2H19.19l1.52,6H7.29ZM19.19,46H8.81L7.29,40H20.71ZM26,34.85A3.15,3.15,0,0,1,22.85,38H5.15A3.15,3.15,0,0,1,2,34.85V13.15A3.15,3.15,0,0,1,5.15,10h17.7A3.15,3.15,0,0,1,26,13.15ZM29,21H28V15h1a3,3,0,0,1,0,6Z"/><rect class="cls-1" x="30" y="25" width="2" height="10"/></g></g></g></g></svg>