<svg xmlns="http://www.w3.org/2000/svg" viewBox="0 0 48 26"><defs><style>.cls-1{fill:#231f20;}</style></defs><title>Battery Charging</title><g id="Layer_2" data-name="Layer 2"><g id="Icons"><g id="Device_Electronic" data-name="Device / Electronic"><g id="Battery_Charging" data-name="Battery Charging"><path class="cls-1" d="M48,8H44V0H7A7,7,0,0,0,0,7V19a7,7,0,0,0,7,7H44V18h4ZM42,24H7a5,5,0,0,1-5-5V7A5,5,0,0,1,7,2H42V24Zm4-8H44V10h2Z"/><polygon class="cls-1" points="22 12 11 12 22 18 22 14 33 14 22 8 22 12"/></g></g></g></g></svg>