<svg xmlns="http://www.w3.org/2000/svg" viewBox="0 0 48 40"><defs><style>.cls-1{fill:#231f20}</style></defs><g id="Layer_2" data-name="Layer 2"><g id="Icons"><g id="Device_Electronic" data-name="Device / Electronic"><g id="Chip"><path class="cls-1" d="M16 28h16V12H16zm2-14h12v12H18z"/><path class="cls-1" d="M48 11V9h-4V5a5 5 0 00-5-5H9a5 5 0 00-5 5v4H0v2h4v8H0v2h4v8H0v2h4v4a5 5 0 005 5h30a5 5 0 005-5v-4h4v-2h-4v-8h4v-2h-4v-8zm-6 24a3 3 0 01-3 3H9a3 3 0 01-3-3V5a3 3 0 013-3h30a3 3 0 013 3z"/></g></g></g></g></svg>