<svg xmlns="http://www.w3.org/2000/svg" viewBox="0 0 48 40"><defs><style>.cls-1{fill:#231f20;}</style></defs><title>Chip</title><g id="Layer_2" data-name="Layer 2"><g id="Icons"><g id="Device_Electronic" data-name="Device / Electronic"><g id="Chip"><path class="cls-1" d="M16,28H32V12H16Zm2-14H30V26H18Z"/><path class="cls-1" d="M48,11V9H44V5a5,5,0,0,0-5-5H9A5,5,0,0,0,4,5V9H0v2H4v8H0v2H4v8H0v2H4v4a5,5,0,0,0,5,5H39a5,5,0,0,0,5-5V31h4V29H44V21h4V19H44V11ZM42,35a3,3,0,0,1-3,3H9a3,3,0,0,1-3-3V5A3,3,0,0,1,9,2H39a3,3,0,0,1,3,3Z"/></g></g></g></g></svg>