<svg xmlns="http://www.w3.org/2000/svg" viewBox="0 0 48 48"><defs><style>.cls-1{fill:#231f20}</style></defs><g id="Layer_2" data-name="Layer 2"><g id="Icons"><g id="Device_Electronic" data-name="Device / Electronic"><g id="Flashlight"><path class="cls-1" d="M30.15 0l-2.52 2.53A8.86 8.86 0 0025 8.78v2.81a10.8 10.8 0 01-3.13 7.65L0 41.13 6.88 48l21.9-21.87A10.72 10.72 0 0136.43 23h2.81a8.79 8.79 0 006.25-2.62L48 17.87zm14 19a6.85 6.85 0 01-4.87 2h-2.85a12.64 12.64 0 00-9 3.73L6.92 45.24l-4.06-4.09 20.42-20.52a12.77 12.77 0 003.73-9V8.78a6.94 6.94 0 012-4.89l1.07-1.06 15.05 15z"/><path class="cls-1" transform="rotate(-45 25.374 33.76)" d="M21.43 32.76h7.89v2h-7.89z"/></g></g></g></g></svg>