<svg xmlns="http://www.w3.org/2000/svg" viewBox="0 0 48 48"><defs><style>.cls-1{fill:#231f20;}</style></defs><title>Flashlight</title><g id="Layer_2" data-name="Layer 2"><g id="Icons"><g id="Device_Electronic" data-name="Device / Electronic"><g id="Flashlight"><path class="cls-1" d="M30.15,0,27.63,2.53A8.86,8.86,0,0,0,25,8.78v2.81a10.8,10.8,0,0,1-3.13,7.65L0,41.13,6.88,48l21.9-21.87A10.72,10.72,0,0,1,36.43,23h2.81a8.79,8.79,0,0,0,6.25-2.62L48,17.87Zm14,19a6.85,6.85,0,0,1-4.87,2H36.43a12.64,12.64,0,0,0-9,3.73L6.92,45.24,2.86,41.15,23.28,20.63a12.77,12.77,0,0,0,3.73-9V8.78a6.94,6.94,0,0,1,2-4.89l1.07-1.06,15.05,15Z"/><rect class="cls-1" x="21.43" y="32.76" width="7.89" height="2" transform="translate(-16.44 27.83) rotate(-45)"/></g></g></g></g></svg>