<svg xmlns="http://www.w3.org/2000/svg" viewBox="0 0 47.99 32"><defs><style>.cls-1{fill:#231f20;}</style></defs><title>Gamepad</title><g id="Layer_2" data-name="Layer 2"><g id="Icons"><g id="Device_Electronic" data-name="Device / Electronic"><g id="Gamepad"><path class="cls-1" d="M14,8a6,6,0,1,0,6,6A6,6,0,0,0,14,8Zm0,10a4,4,0,1,1,4-4A4,4,0,0,1,14,18Z"/><circle class="cls-1" cx="34" cy="10" r="2"/><circle class="cls-1" cx="34" cy="18" r="2"/><circle class="cls-1" cx="38" cy="14" r="2"/><circle class="cls-1" cx="30" cy="14" r="2"/><path class="cls-1" d="M47.68,20.29,42.87,4.38l-.29-.2C42.34,4,36.43,0,24,0S5.66,4,5.41,4.18l-.28.2L.31,20.29a9.56,9.56,0,0,0,1,7.22A9,9,0,0,0,15.46,29.4,11.94,11.94,0,0,1,24,26a12,12,0,0,1,8.54,3.4A8.9,8.9,0,0,0,38.85,32a9.47,9.47,0,0,0,2.35-.3,8.93,8.93,0,0,0,5.49-4.19A9.56,9.56,0,0,0,47.68,20.29ZM45,26.5a6.9,6.9,0,0,1-4.26,3.27A7,7,0,0,1,34,28a13.91,13.91,0,0,0-10-4,13.93,13.93,0,0,0-10,4,7,7,0,0,1-6.75,1.79A6.93,6.93,0,0,1,3,26.5a7.46,7.46,0,0,1-.79-5.66L6.83,5.65C8.1,4.9,13.71,2,24,2S39.9,4.91,41.16,5.65l4.59,15.18A7.47,7.47,0,0,1,45,26.5Z"/></g></g></g></g></svg>