<svg xmlns="http://www.w3.org/2000/svg" viewBox="0 0 47.99 32"><defs><style>.cls-1{fill:#231f20}</style></defs><g id="Layer_2" data-name="Layer 2"><g id="Icons"><g id="Device_Electronic" data-name="Device / Electronic"><g id="Gamepad"><path class="cls-1" d="M14 8a6 6 0 106 6 6 6 0 00-6-6zm0 10a4 4 0 114-4 4 4 0 01-4 4z"/><circle class="cls-1" cx="34" cy="10" r="2"/><circle class="cls-1" cx="34" cy="18" r="2"/><circle class="cls-1" cx="38" cy="14" r="2"/><circle class="cls-1" cx="30" cy="14" r="2"/><path class="cls-1" d="M47.68 20.29L42.87 4.38l-.29-.2C42.34 4 36.43 0 24 0S5.66 4 5.41 4.18l-.28.2L.31 20.29a9.56 9.56 0 001 7.22 9 9 0 0014.15 1.89A11.94 11.94 0 0124 26a12 12 0 018.54 3.4 8.9 8.9 0 006.31 2.6 9.47 9.47 0 002.35-.3 8.93 8.93 0 005.49-4.19 9.56 9.56 0 00.99-7.22zM45 26.5a6.9 6.9 0 01-4.26 3.27A7 7 0 0134 28a13.91 13.91 0 00-10-4 13.93 13.93 0 00-10 4 7 7 0 01-6.75 1.79A6.93 6.93 0 013 26.5a7.46 7.46 0 01-.79-5.66L6.83 5.65C8.1 4.9 13.71 2 24 2s15.9 2.91 17.16 3.65l4.59 15.18A7.47 7.47 0 0145 26.5z"/></g></g></g></g></svg>