<svg xmlns="http://www.w3.org/2000/svg" viewBox="0 0 42 48"><defs><style>.cls-1{fill:#231f20;}</style></defs><title>Hair Dryer</title><g id="Layer_2" data-name="Layer 2"><g id="Icons"><g id="Device_Electronic" data-name="Device / Electronic"><g id="Hair_Dryer" data-name="Hair Dryer"><path class="cls-1" d="M13,.05A12,12,0,0,0,3.91,20.88a12.11,12.11,0,0,0,3.88,2.36L13.2,43.55a6,6,0,0,0,11.59-3.1L20.14,23,42,19.9V4.1ZM22.86,41A4,4,0,0,1,15.14,43L10,23.83A12.85,12.85,0,0,0,12,24a10.31,10.31,0,0,0,1.11,0l5.05-.7ZM40,18.16,12.86,22a9.81,9.81,0,0,1-7.6-2.56,10,10,0,0,1,0-14.8A9.82,9.82,0,0,1,11.91,2c.3,0,.6,0,.9.05L40,5.84Z"/><path class="cls-1" d="M7,11.5a5,5,0,1,0,5-5A5,5,0,0,0,7,11.5Zm8,0a3,3,0,1,1-3-3A3,3,0,0,1,15,11.5Z"/><rect class="cls-1" x="23.5" y="25.32" width="2" height="6" transform="translate(-6.49 7.31) rotate(-15)"/></g></g></g></g></svg>