<svg xmlns="http://www.w3.org/2000/svg" viewBox="0 0 42 48"><defs><style>.cls-1{fill:#231f20}</style></defs><g id="Layer_2" data-name="Layer 2"><g id="Icons"><g id="Device_Electronic" data-name="Device / Electronic"><g id="Hair_Dryer" data-name="Hair Dryer"><path class="cls-1" d="M13 .05a12 12 0 00-9.09 20.83 12.11 12.11 0 003.88 2.36l5.41 20.31a6 6 0 0011.59-3.1L20.14 23 42 19.9V4.1zM22.86 41a4 4 0 01-7.72 2L10 23.83a12.85 12.85 0 002 .17 10.31 10.31 0 001.11 0l5.05-.7zM40 18.16L12.86 22a9.81 9.81 0 01-7.6-2.56 10 10 0 010-14.8A9.82 9.82 0 0111.91 2c.3 0 .6 0 .9.05L40 5.84z"/><path class="cls-1" d="M7 11.5a5 5 0 105-5 5 5 0 00-5 5zm8 0a3 3 0 11-3-3 3 3 0 013 3z"/><path class="cls-1" transform="rotate(-15 24.517 28.303)" d="M23.5 25.32h2v6h-2z"/></g></g></g></g></svg>