<svg xmlns="http://www.w3.org/2000/svg" viewBox="0 0 32 48"><defs><style>.cls-1{fill:#231f20;}</style></defs><title>Lightbulb</title><g id="Layer_2" data-name="Layer 2"><g id="Icons"><g id="Device_Electronic" data-name="Device / Electronic"><g id="Lightbulb"><path class="cls-1" d="M16,0C7.18,0,0,6.76,0,15.07,0,18.76,2.56,27,3.09,28.15c.37.84.71,1.71,1,2.55C5.9,35.27,7.74,40,16,40c8,0,10.32-5.56,12.34-10.47.19-.47.38-.94.58-1.4C29.4,27,32,18.81,32,15.07,32,6.76,24.82,0,16,0ZM27.08,27.35l-.59,1.41C24.53,33.51,22.68,38,16,38c-6.89,0-8.27-3.54-10-8-.33-.86-.68-1.75-1.08-2.64S2,18.36,2,15.07C2,7.87,8.28,2,16,2S30,7.87,30,15.07C30,18.32,27.58,26.17,27.08,27.35Z"/><rect class="cls-1" x="11" y="42" width="10" height="2"/><rect class="cls-1" x="11" y="46" width="10" height="2"/></g></g></g></g></svg>