<svg xmlns="http://www.w3.org/2000/svg" viewBox="0 0 30 48"><defs><style>.cls-1{fill:#231f20;}</style></defs><title>Magic Mouse</title><g id="Layer_2" data-name="Layer 2"><g id="Icons"><g id="Device_Electronic" data-name="Device / Electronic"><g id="Magic_Mouse" data-name="Magic Mouse"><path class="cls-1" d="M18.33.19C17.06.07,15.93,0,15,0s-2.06.07-3.33.19A13,13,0,0,0,0,13.13V34.87A13,13,0,0,0,11.66,47.8c1.29.13,2.41.2,3.34.2s2.05-.07,3.34-.2A13,13,0,0,0,30,34.87V13.13A13,13,0,0,0,18.33.19ZM28,34.87a11,11,0,0,1-9.86,10.94A30.32,30.32,0,0,1,15,46a30.32,30.32,0,0,1-3.14-.19A11,11,0,0,1,2,34.87V13.13A11,11,0,0,1,11.87,2.19,29.84,29.84,0,0,1,15,2a29.84,29.84,0,0,1,3.13.19A11,11,0,0,1,28,13.13Z"/><circle class="cls-1" cx="15" cy="38" r="3"/></g></g></g></g></svg>