<svg xmlns="http://www.w3.org/2000/svg" viewBox="0 0 30 48"><defs><style>.cls-1{fill:#231f20}</style></defs><g id="Layer_2" data-name="Layer 2"><g id="Icons"><g id="Device_Electronic" data-name="Device / Electronic"><g id="Magic_Mouse" data-name="Magic Mouse"><path class="cls-1" d="M18.33.19C17.06.07 15.93 0 15 0s-2.06.07-3.33.19A13 13 0 000 13.13v21.74A13 13 0 0011.66 47.8c1.29.13 2.41.2 3.34.2s2.05-.07 3.34-.2A13 13 0 0030 34.87V13.13A13 13 0 0018.33.19zM28 34.87a11 11 0 01-9.86 10.94A30.32 30.32 0 0115 46a30.32 30.32 0 01-3.14-.19A11 11 0 012 34.87V13.13a11 11 0 019.87-10.94A29.84 29.84 0 0115 2a29.84 29.84 0 013.13.19A11 11 0 0128 13.13z"/><circle class="cls-1" cx="15" cy="38" r="3"/></g></g></g></g></svg>