<svg xmlns="http://www.w3.org/2000/svg" viewBox="0 0 28 48"><defs><style>.cls-1{fill:#231f20;}</style></defs><title>Mouse</title><g id="Layer_2" data-name="Layer 2"><g id="Icons"><g id="Device_Electronic" data-name="Device / Electronic"><path id="Mouse" class="cls-1" d="M18.06,7h4.87A5,5,0,0,0,28,2V0H26V2a3,3,0,0,1-3.07,3H18.06A5,5,0,0,0,13,10v2A24,24,0,0,0,.4,15.91l-.4.3V34a14,14,0,0,0,28,0V16.21l-.4-.3A24,24,0,0,0,15,12V10A3,3,0,0,1,18.06,7ZM26,17.25V34A12,12,0,0,1,2,34V17.25A22.88,22.88,0,0,1,13,14V26h2V14A23,23,0,0,1,26,17.25Z"/></g></g></g></svg>