<svg xmlns="http://www.w3.org/2000/svg" viewBox="0 0 48 36"><defs><style>.cls-1{fill:#231f20}</style></defs><g id="Layer_2" data-name="Layer 2"><g id="Icons"><g id="Device_Electronic" data-name="Device / Electronic"><g id="Power_Socket" data-name="Power Socket"><path class="cls-1" d="M14 10h2v10h-2zm18 0h2v10h-2zm-8 13a4.85 4.85 0 00-5 5h10a4.85 4.85 0 00-5-5z"/><path class="cls-1" d="M39.57.24L39.29 0H8.71l-.28.24a24 24 0 00-1.15 35.48l.29.28h32.86l.29-.28A24 24 0 0039.57.24zm0 33.76H8.39A21.58 21.58 0 012 18.5 21.68 21.68 0 019.45 2h29.1A21.68 21.68 0 0146 18.5 21.58 21.58 0 0139.61 34z"/></g></g></g></g></svg>