<svg xmlns="http://www.w3.org/2000/svg" viewBox="0 0 48 36"><defs><style>.cls-1{fill:#231f20;}</style></defs><title>Power Socket</title><g id="Layer_2" data-name="Layer 2"><g id="Icons"><g id="Device_Electronic" data-name="Device / Electronic"><g id="Power_Socket" data-name="Power Socket"><rect class="cls-1" x="14" y="10" width="2" height="10"/><rect class="cls-1" x="32" y="10" width="2" height="10"/><path class="cls-1" d="M24,23a4.85,4.85,0,0,0-5,5H29A4.85,4.85,0,0,0,24,23Z"/><path class="cls-1" d="M39.57.24,39.29,0H8.71L8.43.24A24,24,0,0,0,7.28,35.72l.29.28H40.43l.29-.28A24,24,0,0,0,39.57.24Zm0,33.76H8.39A21.58,21.58,0,0,1,2,18.5,21.68,21.68,0,0,1,9.45,2h29.1A21.68,21.68,0,0,1,46,18.5,21.58,21.58,0,0,1,39.61,34Z"/></g></g></g></g></svg>