<svg xmlns="http://www.w3.org/2000/svg" viewBox="0 0 48 44"><defs><style>.cls-1{fill:#231f20}</style></defs><g id="Layer_2" data-name="Layer 2"><g id="Icons"><g id="Device_Electronic" data-name="Device / Electronic"><g id="Radio"><path class="cls-1" d="M10.61 12L28 1.71 27 0 6.72 12H0v23a9 9 0 009 9h30a9 9 0 009-9V12zM46 35a7 7 0 01-7 7H9a7 7 0 01-7-7V14h44z"/><circle class="cls-1" cx="10" cy="25" r="2"/><circle class="cls-1" cx="16" cy="22" r="2"/><circle class="cls-1" cx="16" cy="35" r="2"/><circle class="cls-1" cx="22" cy="32" r="2"/><circle class="cls-1" cx="22" cy="25" r="2"/><circle class="cls-1" cx="10" cy="32" r="2"/><circle class="cls-1" cx="16" cy="28.5" r="2"/><path class="cls-1" d="M34 34a6 6 0 10-6-6 6 6 0 006 6zm0-10a4 4 0 11-4 4 4 4 0 014-4z"/></g></g></g></g></svg>