<svg xmlns="http://www.w3.org/2000/svg" viewBox="0 0 48 44"><defs><style>.cls-1{fill:#231f20;}</style></defs><title>Radio</title><g id="Layer_2" data-name="Layer 2"><g id="Icons"><g id="Device_Electronic" data-name="Device / Electronic"><g id="Radio"><path class="cls-1" d="M10.61,12,28,1.71,27,0,6.72,12H0V35a9,9,0,0,0,9,9H39a9,9,0,0,0,9-9V12ZM46,35a7,7,0,0,1-7,7H9a7,7,0,0,1-7-7V14H46Z"/><circle class="cls-1" cx="10" cy="25" r="2"/><circle class="cls-1" cx="16" cy="22" r="2"/><circle class="cls-1" cx="16" cy="35" r="2"/><circle class="cls-1" cx="22" cy="32" r="2"/><circle class="cls-1" cx="22" cy="25" r="2"/><circle class="cls-1" cx="10" cy="32" r="2"/><circle class="cls-1" cx="16" cy="28.5" r="2"/><path class="cls-1" d="M34,34a6,6,0,1,0-6-6A6,6,0,0,0,34,34Zm0-10a4,4,0,1,1-4,4A4,4,0,0,1,34,24Z"/></g></g></g></g></svg>