<svg xmlns="http://www.w3.org/2000/svg" viewBox="0 0 48 44"><defs><style>.cls-1{fill:#231f20}</style></defs><g id="Layer_2" data-name="Layer 2"><g id="Icons"><g id="Device_Electronic" data-name="Device / Electronic"><g id="Router"><path class="cls-1" d="M34 28V16h-2v12H0v9a7 7 0 007 7h34a7 7 0 007-7v-9zm12 9a5 5 0 01-5 5H7a5 5 0 01-5-5v-7h44z"/><circle class="cls-1" cx="8" cy="36" r="2"/><path class="cls-1" d="M26.21 12.85a9.61 9.61 0 0113.66 0l1.42-1.41a11.61 11.61 0 00-16.5 0z"/><path class="cls-1" d="M33 2a18.61 18.61 0 0113.29 5.53l1.42-1.42a20.76 20.76 0 00-29.42 0l1.42 1.42A18.61 18.61 0 0133 2z"/></g></g></g></g></svg>