<svg xmlns="http://www.w3.org/2000/svg" viewBox="0 0 48 44"><defs><style>.cls-1{fill:#231f20;}</style></defs><title>Router</title><g id="Layer_2" data-name="Layer 2"><g id="Icons"><g id="Device_Electronic" data-name="Device / Electronic"><g id="Router"><path class="cls-1" d="M34,28V16H32V28H0v9a7,7,0,0,0,7,7H41a7,7,0,0,0,7-7V28Zm12,9a5,5,0,0,1-5,5H7a5,5,0,0,1-5-5V30H46Z"/><circle class="cls-1" cx="8" cy="36" r="2"/><path class="cls-1" d="M26.21,12.85a9.61,9.61,0,0,1,13.66,0l1.42-1.41a11.61,11.61,0,0,0-16.5,0Z"/><path class="cls-1" d="M33,2A18.61,18.61,0,0,1,46.29,7.53l1.42-1.42a20.76,20.76,0,0,0-29.42,0l1.42,1.42A18.61,18.61,0,0,1,33,2Z"/></g></g></g></g></svg>