<svg xmlns="http://www.w3.org/2000/svg" viewBox="0 0 40 48"><defs><style>.cls-1{fill:#231f20}</style></defs><g id="Layer_2" data-name="Layer 2"><g id="Icons"><g id="Device_Electronic" data-name="Device / Electronic"><g id="Security_Camera" data-name="Security Camera"><path class="cls-1" d="M40 20a20 20 0 10-26.38 18.94L11.34 46H8v2h24v-2h-3.3l-2.28-7.08A20 20 0 0040 20zM2 20a18 18 0 1118 18A18 18 0 012 20zm24.6 26H13.44l2.1-6.52A19.93 19.93 0 0020 40a19.65 19.65 0 004.5-.53z"/><path class="cls-1" d="M28 20a8 8 0 10-8 8 8 8 0 008-8zm-14 0a6 6 0 116 6 6 6 0 01-6-6z"/></g></g></g></g></svg>