<svg xmlns="http://www.w3.org/2000/svg" viewBox="0 0 40 48"><defs><style>.cls-1{fill:#231f20;}</style></defs><title>Security Camera</title><g id="Layer_2" data-name="Layer 2"><g id="Icons"><g id="Device_Electronic" data-name="Device / Electronic"><g id="Security_Camera" data-name="Security Camera"><path class="cls-1" d="M40,20A20,20,0,1,0,13.62,38.94L11.34,46H8v2H32V46H28.7l-2.28-7.08A20,20,0,0,0,40,20ZM2,20A18,18,0,1,1,20,38,18,18,0,0,1,2,20ZM26.6,46H13.44l2.1-6.52A19.93,19.93,0,0,0,20,40a19.65,19.65,0,0,0,4.5-.53Z"/><path class="cls-1" d="M28,20a8,8,0,1,0-8,8A8,8,0,0,0,28,20ZM14,20a6,6,0,1,1,6,6A6,6,0,0,1,14,20Z"/></g></g></g></g></svg>