<svg xmlns="http://www.w3.org/2000/svg" viewBox="0 0 48 44"><defs><style>.cls-1{fill:#231f20;}</style></defs><title>Shredder</title><g id="Layer_2" data-name="Layer 2"><g id="Icons"><g id="Device_Electronic" data-name="Device / Electronic"><g id="Shredder"><rect class="cls-1" x="17" y="26" width="2" height="14"/><rect class="cls-1" x="23" y="26" width="2" height="18"/><rect class="cls-1" x="29" y="26" width="2" height="14"/><path class="cls-1" d="M38,8V0H10V8H0V27a7,7,0,0,0,7,7h4V44h2V26H11v6H7a5,5,0,0,1-5-5V10H46V27a5,5,0,0,1-5,5H37V26H35V44h2V34h4a7,7,0,0,0,7-7V8ZM12,2H36V8H12Z"/><circle class="cls-1" cx="41" cy="15" r="2"/></g></g></g></g></svg>