<svg xmlns="http://www.w3.org/2000/svg" viewBox="0 0 28 48"><defs><style>.cls-1{fill:#231f20;}</style></defs><title>Smart Phone</title><g id="Layer_2" data-name="Layer 2"><g id="Icons"><g id="Device_Electronic" data-name="Device / Electronic"><g id="Smart_Phone" data-name="Smart Phone"><path class="cls-1" d="M23,0H5A5,5,0,0,0,0,5V43a5,5,0,0,0,5,5H23a5,5,0,0,0,5-5V5A5,5,0,0,0,23,0ZM5,2H23a3,3,0,0,1,3,3V38H2V5A3,3,0,0,1,5,2ZM23,46H5a3,3,0,0,1-3-3V40H26v3A3,3,0,0,1,23,46Z"/><circle class="cls-1" cx="14" cy="43" r="2"/></g></g></g></g></svg>