<svg xmlns="http://www.w3.org/2000/svg" viewBox="0 0 40 48"><defs><style>.cls-1{fill:#231f20;}</style></defs><title>Speaker</title><g id="Layer_2" data-name="Layer 2"><g id="Icons"><g id="Device_Electronic" data-name="Device / Electronic"><g id="Speaker"><path class="cls-1" d="M0,0V39.06A9,9,0,0,0,8.94,48H31.06A9,9,0,0,0,40,39.06V0ZM38,39.06A6.94,6.94,0,0,1,31.06,46H8.94A6.94,6.94,0,0,1,2,39.06V2H38Z"/><path class="cls-1" d="M20,18a6,6,0,1,0-6-6A6,6,0,0,0,20,18ZM20,8a4,4,0,1,1-4,4A4,4,0,0,1,20,8Z"/><path class="cls-1" d="M20,42A10,10,0,1,0,10,32,10,10,0,0,0,20,42Zm0-18a8,8,0,1,1-8,8A8,8,0,0,1,20,24Z"/><circle class="cls-1" cx="20" cy="32" r="2"/></g></g></g></g></svg>