<svg xmlns="http://www.w3.org/2000/svg" viewBox="0 0 40 48"><defs><style>.cls-1{fill:#231f20}</style></defs><g id="Layer_2" data-name="Layer 2"><g id="Icons"><g id="Device_Electronic" data-name="Device / Electronic"><g id="Speaker"><path class="cls-1" d="M0 0v39.06A9 9 0 008.94 48h22.12A9 9 0 0040 39.06V0zm38 39.06A6.94 6.94 0 0131.06 46H8.94A6.94 6.94 0 012 39.06V2h36z"/><path class="cls-1" d="M20 18a6 6 0 10-6-6 6 6 0 006 6zm0-10a4 4 0 11-4 4 4 4 0 014-4zm0 34a10 10 0 10-10-10 10 10 0 0010 10zm0-18a8 8 0 11-8 8 8 8 0 018-8z"/><circle class="cls-1" cx="20" cy="32" r="2"/></g></g></g></g></svg>