<svg xmlns="http://www.w3.org/2000/svg" viewBox="0 0 48 33.08"><defs><style>.cls-1{fill:#231f20;}</style></defs><title>Video Camera</title><g id="Layer_2" data-name="Layer 2"><g id="Icons"><g id="Device_Electronic" data-name="Device / Electronic"><g id="Video_Camera" data-name="Video Camera"><path class="cls-1" d="M27,6H22.63l-3-6H6V2H18.38l2,4L0,6V32H27a9,9,0,0,0,9-9V15A9,9,0,0,0,27,6Zm7,17a7,7,0,0,1-7,7H2V8L27,8a7,7,0,0,1,7,7Z"/><path class="cls-1" d="M37.76,19,48,33.08V4.93Zm8.24,8L40.24,19,46,11.07Z"/></g></g></g></g></svg>