<svg xmlns="http://www.w3.org/2000/svg" viewBox="0 0 40 48"><defs><style>.cls-1{fill:#231f20}</style></defs><g id="Layer_2" data-name="Layer 2"><g id="Icons"><g id="Device_Electronic" data-name="Device / Electronic"><g id="Washing_Machine" data-name="Washing Machine"><path class="cls-1" d="M0 0v39a9 9 0 009 9h22a9 9 0 009-9V0zm38 2v8H2V2zm-7 44H9a7 7 0 01-7-7V12h36v27a7 7 0 01-7 7z"/><circle class="cls-1" cx="34" cy="6" r="2"/><circle class="cls-1" cx="28" cy="6" r="2"/><path class="cls-1" d="M20 18a11 11 0 1011 11 11 11 0 00-11-11zm0 20a9 9 0 119-9 9 9 0 01-9 9z"/></g></g></g></g></svg>