<svg height="70" viewBox="0 0 70 70" width="70" xmlns="http://www.w3.org/2000/svg"><g fill="none" fill-rule="evenodd"><path d="m-252-5111h1440v5630h-1440z" fill="#fff"/><g transform="translate(2 3)"><path d="m32 0c-17.6 0-32 14.4-32 32s14.4 32 32 32 32-14.4 32-32-14.4-32-32-32z" fill="#ff4141" fill-rule="nonzero"/><g stroke="#fff" stroke-linejoin="round" stroke-width="1.5"><path d="m20 47h30v-23h-30z"/><path d="m44 21.2857143v-3.2857143h-30v23h3.9473684"/><path d="m30 35c-1.658 0-3-1.344-3-3s1.342-3 3-3c1.656 0 3 1.344 3 3s-1.344 3-3 3z"/><path d="m24 41h12c0-2.4898354-1.714-6-6-6s-6 3.5101646-6 6z"/><path d="m38 38h7"/><path d="m38 35h7"/><path d="m38 32h4"/></g></g></g></svg>