<svg height="70" width="70" xmlns="http://www.w3.org/2000/svg"><g fill="none" fill-rule="evenodd"><path d="M-252-5111h1440V519H-252z" fill="#fff"/><path d="M34 3C16.4 3 2 17.4 2 35s14.4 32 32 32 32-14.4 32-32S51.6 3 34 3z" fill="#ff4141" fill-rule="nonzero"/><g stroke="#fff" stroke-linejoin="round" stroke-width="1.5"><path d="M22 50h30V27H22z"/><path d="M46 24.286V21H16v23h3.947"/><path d="M32 38a3 3 0 110-6 3 3 0 010 6zm-6 6h12c0-2.49-1.714-6-6-6s-6 3.51-6 6zm14-3h7m-7-3h7m-7-3h4"/></g></g></svg>