<svg height="70" width="70" xmlns="http://www.w3.org/2000/svg"><g fill="none" fill-rule="evenodd"><path d="M-637-5111H803V519H-637z" fill="#fff"/><path d="M35 2C17.4 2 3 16.4 3 34s14.4 32 32 32 32-14.4 32-32S52.6 2 35 2z" fill="#ff4141" fill-rule="nonzero"/><path d="M24.964 37.217v6.319h-5.643v-6.319c-.99-.31-1.38-1.292-1.38-2.717v-4.893h8.404v4.894c-.001 1.424-.392 2.406-1.38 2.716zm26.857 0v6.319H46.18v-6.319c-.99-.31-1.381-1.292-1.381-2.717v-4.893h8.404v4.894c-.001 1.424-.392 2.406-1.38 2.716zm-13.428 3.476v8.367H32.75v-8.367a3.522 3.522 0 01-2.762-3.431v-7.655h11.167v7.655a3.523 3.523 0 01-2.762 3.43zM24.964 26.524a2.822 2.822 0 11-5.644-.002 2.822 2.822 0 015.644.002zm26.857 0a2.822 2.822 0 11-5.644-.002 2.822 2.822 0 015.644.002zm-12.047-1.381a4.202 4.202 0 11-8.404 0 4.202 4.202 0 018.404 0z" stroke="#fff" stroke-linejoin="round" stroke-width="1.5"/></g></svg>