<svg height="70" viewBox="0 0 70 70" width="70" xmlns="http://www.w3.org/2000/svg"><g fill="none" fill-rule="evenodd"><path d="m-637-5111h1440v5630h-1440z" fill="#fff"/><g transform="translate(3 2)"><path d="m32 0c-17.6 0-32 14.4-32 32s14.4 32 32 32 32-14.4 32-32-14.4-32-32-32z" fill="#ff4141" fill-rule="nonzero"/><g stroke="#fff" stroke-linejoin="round" stroke-width="1.5"><path d="m21.9642857 35.2168055v6.3189088h-5.6428571v-6.3187088c-.9900177-.3098782-1.3809524-1.2922978-1.3809524-2.7170055v-4.8928571h8.4047619v.75l-.0000006 4.1437673c-.001728 1.4239359-.3924467 2.4058655-1.3809518 2.7158953z"/><path d="m48.8214286 35.2168055v6.3189088h-5.6428572v-6.3187088c-.9900176-.3098782-1.3809524-1.2922978-1.3809524-2.7170055v-4.8928571h8.404762v.75l-.0000006 4.1437673c-.0017281 1.4239359-.3924468 2.4058655-1.3809518 2.7158953z"/><path d="m35.3928571 38.6928437v8.3666801h-5.6428571v-8.3665976c-1.5759986-.345235-2.7619048-1.7545347-2.7619048-3.4310214v-7.6547619h11.1666667v7.6547619c0 1.6760215-1.1864848 3.0855177-2.7619048 3.4309389z"/><path d="m21.9642857 24.5238095c0 1.5576422-1.2637864 2.8214286-2.8214286 2.8214286-1.5576421 0-2.8214285-1.2637864-2.8214285-2.8214286 0-1.5576421 1.2637864-2.8214285 2.8214285-2.8214285 1.5576422 0 2.8214286 1.2637864 2.8214286 2.8214285z"/><path d="m48.8214286 24.5238095c0 1.5576422-1.2637865 2.8214286-2.8214286 2.8214286s-2.8214286-1.2637864-2.8214286-2.8214286c0-1.5576421 1.2637865-2.8214285 2.8214286-2.8214285s2.8214286 1.2637864 2.8214286 2.8214285z"/><path d="m36.7738095 23.1428571c0 2.3213088-1.8810721 4.202381-4.2023809 4.202381s-4.202381-1.8810722-4.202381-4.202381 1.8810722-4.2023809 4.202381-4.2023809 4.2023809 1.8810721 4.2023809 4.2023809z"/></g></g></g></svg>