<svg height="70" viewBox="0 0 70 70" width="70" xmlns="http://www.w3.org/2000/svg" xmlns:xlink="http://www.w3.org/1999/xlink"><defs><path id="a" d="m0 .24626115h44v29.75373885h-44z"/><mask id="b" fill="#fff" height="29.753739" width="44" x="0" y="0"><use xlink:href="#a"/></mask></defs><g fill="none" fill-rule="evenodd"><path d="m-636-4641h1440v5630h-1440z" fill="#fff"/><g transform="translate(3 2)"><path d="m32.5 0c-17.875 0-32.5 14.625-32.5 32.5s14.625 32.5 32.5 32.5 32.5-14.625 32.5-32.5-14.625-32.5-32.5-32.5z" fill="#ff4141" fill-rule="nonzero"/><g stroke="#fff" transform="translate(10.5 17.5)"><path d="m22.5012229 14.4783239.7034255-6.27221084c.8206631.17585637 1.5240886.58618792 2.1102765.87928188l.5861879-.99651947c-.7034255-.41033155-1.5827074-.87928189-2.5792268-1.05513826l.2344751-2.11027653-1.1723758-.11723759-.2344752 2.11027653h-.0586188c-2.2275141 0-4.3377906 1.87580136-4.3377906 3.86884028 0 1.8171826 1.113757 3.2826524 3.4585087 4.3964095l-.7620443 6.8583987c-.9965194-.1758564-1.699945-.5861879-2.2861329-.9379007l-.1172376-.0586188-.5861879.9965195.1172376.0586188c.7034255.4103315 1.5240886.8792819 2.7550832 1.113757l-.2344751 2.1102766 1.1723758.1172376.2344752-2.1102766h.0586188c2.4619893 0 4.9825974-1.5827074 4.9825974-4.1619342 0-2.1102766-1.0551383-3.3412712-4.0446967-4.6895034zm-3.5171276-3.692984c0-1.28961341 1.5240886-2.63784564 3.106796-2.69646443l-.6448067 5.86187923c-1.699945-.8792819-2.4619893-1.9344201-2.4619893-3.1654148zm2.6378457 11.3720458.7620443-6.4480672c2.5206081 1.1723758 2.9895584 2.1102765 2.9895584 3.4585088 0 2.0516577-2.1688953 2.9309396-3.7516027 2.9895584z" fill="#fff" fill-rule="nonzero" stroke-width=".5"/><use mask="url(#b)" stroke-dasharray="4 2" stroke-width="3" xlink:href="#a"/></g></g></g></svg>