<svg height="70" width="70" xmlns="http://www.w3.org/2000/svg" xmlns:xlink="http://www.w3.org/1999/xlink"><defs><path id="a" d="M0 .246h44V30H0z"/><mask id="b" fill="#fff" height="29.754" width="44" x="0" y="0"><use xlink:href="#a"/></mask></defs><g fill="none" fill-rule="evenodd"><path d="M-636-4641H804V989H-636z" fill="#fff"/><path d="M35.5 2C17.625 2 3 16.625 3 34.5S17.625 67 35.5 67 68 52.375 68 34.5 53.375 2 35.5 2z" fill="#ff4141" fill-rule="nonzero"/><g stroke="#fff" transform="translate(13.5 19.5)"><path d="M22.501 14.478l.704-6.272c.82.176 1.524.586 2.11.88l.586-.997c-.703-.41-1.583-.88-2.58-1.055l.235-2.11-1.172-.118-.234 2.11h-.06c-2.227 0-4.337 1.876-4.337 3.87 0 1.817 1.114 3.282 3.459 4.396l-.762 6.858c-.997-.176-1.7-.586-2.287-.938l-.117-.058-.586.996.117.059c.704.41 1.524.879 2.755 1.114l-.234 2.11 1.172.117.235-2.11h.058c2.462 0 4.983-1.583 4.983-4.162 0-2.11-1.055-3.341-4.045-4.69zm-3.517-3.693c0-1.29 1.524-2.638 3.107-2.696l-.645 5.862c-1.7-.88-2.462-1.935-2.462-3.166zm2.638 11.372l.762-6.448c2.52 1.173 2.99 2.11 2.99 3.459 0 2.051-2.17 2.93-3.752 2.99z" fill="#fff" fill-rule="nonzero" stroke-width=".5"/><use mask="url(#b)" stroke-dasharray="4 2" stroke-width="3" xlink:href="#a"/></g></g></svg>