<svg height="70" width="70" xmlns="http://www.w3.org/2000/svg"><g fill="none" fill-rule="evenodd"><path d="M-251-4524h1440v5630H-251z" fill="#fff"/><g fill-rule="nonzero"><path d="M35 3C17.4 3 3 17.4 3 35s14.4 32 32 32 32-14.4 32-32S52.6 3 35 3z" fill="#ff4141"/><g fill="#fff" transform="translate(16.382 19.569)"><path d="M0 0v23.669a6.843 6.843 0 006.872 6.871h22.905a6.843 6.843 0 006.871-6.871V0zm35.121 1.527v6.108H1.527V1.527zm-5.344 27.486H6.872a5.312 5.312 0 01-5.345-5.344V9.162h33.594V23.67a5.312 5.312 0 01-5.344 5.344z"/><circle cx="4.581" cy="4.581" r="1.527"/><circle cx="9.162" cy="4.581" r="1.527"/><circle cx="13.743" cy="4.581" r="1.527"/></g></g></g></svg>