<svg height="70" width="70" xmlns="http://www.w3.org/2000/svg"><g fill="none" fill-rule="evenodd"><path d="M-251-4874h1440V756H-251z" fill="#fff"/><path d="M35 3C17.4 3 3 17.4 3 35s14.4 32 32 32 32-14.4 32-32S52.6 3 35 3z" fill="#ff4141" fill-rule="nonzero"/><g stroke="#fff" stroke-linecap="round" stroke-linejoin="round" stroke-width="1.5"><path d="M49 32.031V50H21V32"/><path d="M36 46H24v-9h12zm9 4h-7V37h7zm4.043-29H20.957L18 27h34zM18 32v-5h34v5z"/></g><path d="M43.5 44a.5.5 0 100 1 .5.5 0 000-1" fill="#fff"/></g></svg>