<svg width="36" height="25" xmlns="http://www.w3.org/2000/svg" xmlns:xlink="http://www.w3.org/1999/xlink"><defs><path d="M0 .201h36v24.344H0V.201z" id="a"/><mask id="b" maskContentUnits="userSpaceOnUse" maskUnits="objectBoundingBox" x="0" y="0" width="36" height="24.344" fill="#fff"><use xlink:href="#a"/></mask></defs><g transform="translate(0 .31)" stroke="#FF4141" fill="none" fill-rule="evenodd"><path d="M18.41 11.846l.576-5.132c.671.144 1.247.48 1.726.72l.48-.816c-.576-.336-1.295-.72-2.11-.863l.191-1.727-.959-.096-.192 1.727h-.048c-1.822 0-3.549 1.535-3.549 3.165 0 1.487.912 2.686 2.83 3.597l-.624 5.612c-.815-.144-1.39-.48-1.87-.768l-.096-.047-.48.815.096.048c.576.336 1.247.72 2.255.911l-.192 1.727.959.096.192-1.727h.048c2.014 0 4.076-1.295 4.076-3.405 0-1.727-.863-2.734-3.309-3.837zm-2.878-3.022c0-1.055 1.247-2.158 2.542-2.206l-.527 4.796c-1.391-.72-2.015-1.582-2.015-2.59zm2.159 9.305l.623-5.276c2.062.96 2.446 1.727 2.446 2.83 0 1.678-1.774 2.398-3.07 2.446z" stroke-width=".5" fill="#FF4141" fill-rule="nonzero"/><use mask="url(#b)" stroke-width="3" stroke-dasharray="5,2" xlink:href="#a"/></g></svg>