<svg height="57" viewBox="0 0 55 57" width="55" xmlns="http://www.w3.org/2000/svg" xmlns:xlink="http://www.w3.org/1999/xlink"><mask id="a" fill="#fff"><path d="m0 33.04h50.784v-33.04h-50.784z" fill="none"/></mask><g fill="none" fill-rule="evenodd"><path d="m-1029-4118h1440v5630h-1440z" fill="#fff"/><g fill="#ff4141" transform="translate(2 11)"><path d="m22.5367 11.9992c0-1.105 1.241-2.261 2.583-2.481l-.612 5.285c-1.325-.832-1.971-1.75-1.971-2.804m2.821 11.54.68-5.932c2.159 1.054 2.566 1.904 2.566 3.128 0 1.836-1.852 2.651-3.246 2.804m.901-7.869.68-5.966c.731.221 1.376.561 1.818.834l.256.152.934-1.597-.272-.154c-.578-.339-1.478-.815-2.515-1.087l.254-2.244-1.818-.203-.272 2.243c-2.396.119-4.623 2.176-4.623 4.351 0 1.972 1.173 3.535 3.586 4.776l-.748 6.628c-.832-.204-1.41-.561-1.988-.9l-.391-.222-.935 1.581.391.221c.68.408 1.496.901 2.703 1.138l-.255 2.21 1.835.203.255-2.242c2.634-.085 5.286-1.819 5.286-4.657 0-2.295-1.139-3.688-4.181-5.065"/><path d="m48.9483 29.6748v1.53h-1.53v1.835h3.365v-3.365z"/><path d="m37.629 33.04h4.895v-1.835h-4.895zm-9.79 0h4.895v-1.835h-4.895zm-9.79 0h4.895v-1.835h-4.895zm-9.789 0h4.895v-1.835h-4.895z" mask="url(#a)"/><path d="m.0001 29.6748v3.365h3.365v-1.835h-1.53v-1.53z" mask="url(#a)"/><path d="m0 13.889h1.835v-5.262h-1.835zm0 10.524h1.835v-5.262h-1.835z" mask="url(#a)"/><path d="m.0001 0v3.365h1.835v-1.529h1.53v-1.836z" mask="url(#a)"/><path d="m37.629 1.836h4.895v-1.836h-4.895zm-9.79 0h4.895v-1.836h-4.895zm-9.79 0h4.895v-1.836h-4.895zm-9.789 0h4.895v-1.836h-4.895z" mask="url(#a)"/><path d="m47.4186 0v1.836h1.53v1.529h1.835v-3.365z" mask="url(#a)"/><path d="m48.948 13.889h1.835v-5.262h-1.835zm0 10.524h1.835v-5.262h-1.835z" mask="url(#a)"/></g></g></svg>