<svg height="57" width="55" xmlns="http://www.w3.org/2000/svg"><mask id="a" fill="#fff"><path d="M0 33.04h50.784V0H0z" fill="none"/></mask><g fill="none" fill-rule="evenodd"><path d="M-1029-4118H411v5630h-1440z" fill="#fff"/><g fill="#ff4141"><path d="M24.537 23c0-1.106 1.24-2.262 2.583-2.482l-.612 5.285c-1.325-.832-1.971-1.75-1.971-2.804m2.82 11.54l.68-5.932c2.16 1.054 2.567 1.904 2.567 3.128 0 1.836-1.852 2.651-3.246 2.804m.9-7.869l.68-5.966a7.916 7.916 0 011.819.834l.256.152.934-1.597-.272-.154c-.578-.339-1.478-.815-2.515-1.087l.254-2.244-1.818-.203-.272 2.243c-2.396.12-4.623 2.176-4.623 4.351 0 1.972 1.173 3.535 3.586 4.776l-.748 6.628c-.832-.204-1.41-.56-1.988-.9l-.391-.222-.935 1.581.39.221c.68.408 1.497.901 2.704 1.138l-.255 2.21 1.835.203.255-2.242c2.634-.085 5.286-1.819 5.286-4.657 0-2.295-1.14-3.688-4.181-5.065m22.689 14.005v1.53h-1.53v1.835h3.365v-3.365z"/><path d="M37.629 33.04h4.895v-1.835h-4.895zm-9.79 0h4.895v-1.835h-4.895zm-9.79 0h4.895v-1.835h-4.895zm-9.789 0h4.895v-1.835H8.26zM0 29.675v3.365h3.365v-1.835h-1.53v-1.53zm0-15.786h1.835V8.627H0zm0 10.524h1.835v-5.262H0zM0 0v3.365h1.835V1.836h1.53V0zm37.629 1.836h4.895V0h-4.895zm-9.79 0h4.895V0h-4.895zm-9.79 0h4.895V0h-4.895zm-9.789 0h4.895V0H8.26zM47.419 0v1.836h1.53v1.529h1.835V0zm1.529 13.889h1.835V8.627h-1.835zm0 10.524h1.835v-5.262h-1.835z" mask="url(#a)" transform="translate(2 11)"/></g></g></svg>