<svg height="57" viewBox="0 0 55 57" width="55" xmlns="http://www.w3.org/2000/svg"><g fill="none" fill-rule="evenodd"><path d="m-644-4019h1440v5630h-1440z" fill="#fff"/><g fill="#ff4141" fill-rule="nonzero" transform="translate(3 3)"><path d="m14.6 17.8c1 5.6 4.7 9.2 9.4 9.2s8.3-3.5 9.4-9.2c.1-.5 1-5.3 1.1-6.4.1-2.7-.8-5.2-2.7-7.2-2-2.1-4.8-3.3-7.8-3.3s-5.8 1.2-7.9 3.4c-1.8 2-2.8 4.5-2.6 7.1.1 1.1 1 5.9 1.1 6.4zm3-12.1c1.6-1.7 4-2.7 6.4-2.7s4.7 1 6.3 2.7c1.5 1.6 2.3 3.6 2.2 5.7 0 .7-.6 4.1-1 6.1-.7 3.6-3 7.5-7.5 7.5s-6.8-4.1-7.5-7.5c-.4-2.1-1-5.4-1-6.1-.1-2.1.6-4.1 2.1-5.7z"/><path d="m46.9 39.6c-.5-2.8-2.8-4.9-6.4-5.7l-16.5-2.9-16.6 2.9c-3.4.7-5.8 2.9-6.3 5.8l-1.1 9.3h48zm-44.8 7.4.9-7c.4-2.4 2.7-3.7 4.7-4.1l16.2-2.9 16.1 2.8c1.3.3 4.3 1.3 4.8 4.1l1 7.1z"/></g></g></svg>