<svg height="57" width="55" xmlns="http://www.w3.org/2000/svg"><g fill="none" fill-rule="evenodd"><path d="M-644-4019H796v5630H-644z" fill="#fff"/><path d="M17.6 20.8c1 5.6 4.7 9.2 9.4 9.2s8.3-3.5 9.4-9.2c.1-.5 1-5.3 1.1-6.4.1-2.7-.8-5.2-2.7-7.2-2-2.1-4.8-3.3-7.8-3.3s-5.8 1.2-7.9 3.4c-1.8 2-2.8 4.5-2.6 7.1.1 1.1 1 5.9 1.1 6.4zm3-12.1C22.2 7 24.6 6 27 6s4.7 1 6.3 2.7c1.5 1.6 2.3 3.6 2.2 5.7 0 .7-.6 4.1-1 6.1-.7 3.6-3 7.5-7.5 7.5s-6.8-4.1-7.5-7.5c-.4-2.1-1-5.4-1-6.1-.1-2.1.6-4.1 2.1-5.7zm29.3 33.9c-.5-2.8-2.8-4.9-6.4-5.7L27 34l-16.6 2.9c-3.4.7-5.8 2.9-6.3 5.8L3 52h48zM5.1 50l.9-7c.4-2.4 2.7-3.7 4.7-4.1L26.9 36 43 38.8c1.3.3 4.3 1.3 4.8 4.1l1 7.1z" fill="#ff4141" fill-rule="nonzero"/></g></svg>