<svg height="57" width="55" xmlns="http://www.w3.org/2000/svg"><g fill="none" fill-rule="evenodd"><path d="M-259-4018h1440v5630H-259z" fill="#fff"/><g fill="#ff4141" fill-rule="nonzero" transform="translate(3 13)"><circle cx="24" cy="15" r="3"/><path d="M34.4 7.3c1.7 2.3 2.6 5 2.6 7.8 0 2.6-.8 5.1-2.2 7.3l1.7 1.1c1.7-2.5 2.6-5.4 2.6-8.4 0-3.3-1-6.4-3-9zm-20.8 0L12 6.1c-2 2.6-3 5.7-3 9 0 3.4 1.1 6.6 3.2 9.2l1.6-1.2C12 20.8 11 18 11 15.1c0-2.8.9-5.5 2.6-7.8zM4.8.3C1.7 4.6 0 9.7 0 15.1s1.6 10.5 4.8 14.8l1.6-1.2C3.5 24.8 2 20.1 2 15.1S3.5 5.4 6.4 1.5zM43 0l-1.6 1.3c3 4 4.6 8.8 4.6 13.9 0 5-1.5 9.7-4.4 13.6l1.6 1.2c3.1-4.3 4.8-9.4 4.8-14.8C48 9.6 46.3 4.4 43 0z"/></g></g></svg>