<svg height="57" viewBox="0 0 55 57" width="55" xmlns="http://www.w3.org/2000/svg"><g fill="none" fill-rule="evenodd"><path d="m-259-4018h1440v5630h-1440z" fill="#fff"/><g fill="#ff4141" fill-rule="nonzero" transform="translate(3 13)"><circle cx="24" cy="15" r="3"/><path d="m34.4 7.3c1.7 2.3 2.6 5 2.6 7.8 0 2.6-.8 5.1-2.2 7.3l1.7 1.1c1.7-2.5 2.6-5.4 2.6-8.4 0-3.3-1-6.4-3-9z"/><path d="m13.6 7.3-1.6-1.2c-2 2.6-3 5.7-3 9 0 3.4 1.1 6.6 3.2 9.2l1.6-1.2c-1.8-2.3-2.8-5.1-2.8-8 0-2.8.9-5.5 2.6-7.8z"/><path d="m4.8.3c-3.1 4.3-4.8 9.4-4.8 14.8s1.6 10.5 4.8 14.8l1.6-1.2c-2.9-3.9-4.4-8.6-4.4-13.6s1.5-9.7 4.4-13.6z"/><path d="m43 0-1.6 1.3c3 4 4.6 8.8 4.6 13.9 0 5-1.5 9.7-4.4 13.6l1.6 1.2c3.1-4.3 4.8-9.4 4.8-14.8 0-5.6-1.7-10.8-5-15.2z"/></g></g></svg>