<svg height="57" viewBox="0 0 55 57" width="55" xmlns="http://www.w3.org/2000/svg"><g fill="none" fill-rule="evenodd"><path d="m-644-4119h1440v5630h-1440z" fill="#fff"/><g fill="#ff4141" fill-rule="nonzero" transform="translate(3 3)"><path d="m45.5 20.8 2.5-12.8h-39.3l-1.4-8h-7.3v2h5.7l4.7 27.5c.7 4.3 4.5 7.5 8.9 7.5h24.8v-2h-24.8c-2.8 0-5.2-1.6-6.4-4.1l22.6-1.5c4.9-.2 9-3.8 10-8.6zm-33.2 8.2-3.3-19h36.7l-2.2 10.4c-.8 3.9-4.2 6.9-8.2 7.1z"/><path d="m15.5 39c-2.5 0-4.5 2-4.5 4.5s2 4.5 4.5 4.5 4.5-2 4.5-4.5-2-4.5-4.5-4.5zm0 7c-1.4 0-2.5-1.1-2.5-2.5s1.1-2.5 2.5-2.5 2.5 1.1 2.5 2.5-1.1 2.5-2.5 2.5z"/><path d="m39.5 39c-2.5 0-4.5 2-4.5 4.5s2 4.5 4.5 4.5 4.5-2 4.5-4.5-2-4.5-4.5-4.5zm0 7c-1.4 0-2.5-1.1-2.5-2.5s1.1-2.5 2.5-2.5 2.5 1.1 2.5 2.5-1.1 2.5-2.5 2.5z"/></g></g></svg>