<svg height="57" width="55" xmlns="http://www.w3.org/2000/svg"><g fill="none" fill-rule="evenodd"><path d="M-644-4119H796v5630H-644z" fill="#fff"/><path d="M48.5 23.8L51 11H11.7l-1.4-8H3v2h5.7l4.7 27.5c.7 4.3 4.5 7.5 8.9 7.5h24.8v-2H22.3c-2.8 0-5.2-1.6-6.4-4.1l22.6-1.5c4.9-.2 9-3.8 10-8.6zM15.3 32L12 13h36.7l-2.2 10.4c-.8 3.9-4.2 6.9-8.2 7.1zm3.2 10C16 42 14 44 14 46.5s2 4.5 4.5 4.5 4.5-2 4.5-4.5-2-4.5-4.5-4.5zm0 7c-1.4 0-2.5-1.1-2.5-2.5s1.1-2.5 2.5-2.5 2.5 1.1 2.5 2.5-1.1 2.5-2.5 2.5zm24-7C40 42 38 44 38 46.5s2 4.5 4.5 4.5 4.5-2 4.5-4.5-2-4.5-4.5-4.5zm0 7c-1.4 0-2.5-1.1-2.5-2.5s1.1-2.5 2.5-2.5 2.5 1.1 2.5 2.5-1.1 2.5-2.5 2.5z" fill="#ff4141" fill-rule="nonzero"/></g></svg>