<?xml version="1.0" encoding="UTF-8"?>
<svg width="33px" height="31px" viewBox="0 0 33 31" version="1.1" xmlns="http://www.w3.org/2000/svg" xmlns:xlink="http://www.w3.org/1999/xlink">
    <!-- Generator: Sketch 45 (43475) - http://www.bohemiancoding.com/sketch -->
    <title>car</title>
    <desc>Created with Sketch.</desc>
    <defs></defs>
    <g id="Page-1" stroke="none" stroke-width="1" fill="none" fill-rule="evenodd">
        <g id="6-14-5" transform="translate(-417.000000, -2587.000000)">
            <g id="Product-Page-icons" transform="translate(153.000000, 2269.000000)">
                <g id="car" transform="translate(265.000000, 319.000000)">
                    <path d="M2.1188567,8.55317341 C2.35671486,8.55317341 2.55090958,8.35884383 2.55090958,8.12047327 L2.55090958,4.8974931 C2.55090958,4.65912254 2.35671486,4.46479297 2.1188567,4.46479297 L0.932052876,4.46479297 C0.694194718,4.46479297 0.5,4.65912254 0.5,4.8974931 L0.5,8.12047327 C0.5,8.35884383 0.694194718,8.55317341 0.932052876,8.55317341 L2.1188567,8.55317341 Z" id="Shape" stroke="#071D49"></path>
                    <path d="M29.452816,8.55317341 C29.6906741,8.55317341 29.8848688,8.35884383 29.8848688,8.12047327 L29.8848688,4.8974931 C29.8848688,4.65912254 29.6906741,4.46479297 29.452816,4.46479297 L28.2660121,4.46479297 C28.028154,4.46479297 27.8339593,4.65912254 27.8339593,4.8974931 L27.8339593,8.12047327 C27.8339593,8.35884383 28.028154,8.55317341 28.2660121,8.55317341 L29.452816,8.55317341 Z" id="Shape-Copy" stroke="#071D49"></path>
                    <path d="M26.708237,25.5771528 L22.1064179,25.5771528 L22.1064179,27.371343 C22.1064179,28.0797427 22.68297,28.6566952 23.3903576,28.6566952 L25.4242973,28.6566952 C26.1316849,28.6566952 26.708237,28.0797427 26.708237,27.371343 L26.708237,25.5771528 Z" id="Shape" stroke="#071D49" stroke-width="1.5"></path>
                    <path d="M8.48559753,25.5771528 L3.88377838,25.5771528 L3.88377838,27.371343 C3.88377838,28.0797427 4.4603305,28.6566952 5.16771809,28.6566952 L7.20165781,28.6566952 C7.90904541,28.6566952 8.48559753,28.0797427 8.48559753,27.371343 L8.48559753,25.5771528 Z" id="Shape-Copy-2" stroke="#071D49" stroke-width="1.5"></path>
                    <path d="M28.9836918,25.4211833 L1.52550564,25.4211833 C0.684471563,25.4211833 5.08484936e-05,24.8075657 5.08484936e-05,24.0535363 L5.08484936e-05,23.1417716 C5.08484936e-05,22.3877422 0.684471563,21.7741245 1.52550564,21.7741245 L28.9836918,21.7741245 C29.8247259,21.7741245 30.5091466,22.3877422 30.5091466,23.1417716 L30.5091466,24.0535363 C30.5091466,24.8075657 29.8247259,25.4211833 28.9836918,25.4211833 L28.9836918,25.4211833 L28.9836918,25.4211833 Z" id="Shape" stroke="#071D49" stroke-width="1.5"></path>
                    <path d="M1.12285859,21.7741245 L29.3861729,21.7741245 L29.3861729,15.2412259 C29.3861729,15.002072 29.3263851,14.763427 29.2122448,14.5502239 L27.9632237,12.2121131 L2.54580776,12.2121131 L1.29678668,14.5502239 C1.18264637,14.763427 1.12285859,15.002072 1.12285859,15.2412259 L1.12285859,20.8623598 L1.12285859,21.7741245 Z" id="Shape" stroke="#071D49" stroke-width="1.5"></path>
                    <path d="M28.1241489,12.2121131 L2.38515026,12.2121131 L5.143681,2.0918332 C5.47928105,0.859936294 6.6045582,0 7.88034689,0 L22.6289523,0 C23.904741,0 25.0300181,0.859936294 25.3656182,2.0918332 L28.1241489,12.2121131 L28.1241489,12.2121131 Z" id="Shape" stroke="#071D49" stroke-width="1.5"></path>
                    <path d="M5.59333422,18.7210962 L8.6442438,18.7210962 L8.6442438,17.1945821 L5.59333422,17.1945821 L5.59333422,18.7210962 L5.59333422,18.7210962 Z M9.15272873,19.7387723 L5.08484929,19.7387723 C4.80365713,19.7387723 4.57636436,19.5108129 4.57636436,19.2299343 L4.57636436,16.6857441 C4.57636436,16.4048655 4.80365713,16.176906 5.08484929,16.176906 L9.15272873,16.176906 C9.43392089,16.176906 9.66121366,16.4048655 9.66121366,16.6857441 L9.66121366,19.2299343 C9.66121366,19.5108129 9.43392089,19.7387723 9.15272873,19.7387723 L9.15272873,19.7387723 L9.15272873,19.7387723 Z" id="Shape" fill="#071D49"></path>
                    <path d="M21.864852,18.7210962 L24.9157615,18.7210962 L24.9157615,17.1945821 L21.864852,17.1945821 L21.864852,18.7210962 L21.864852,18.7210962 Z M25.4242465,19.7387723 L21.356367,19.7387723 C21.0751749,19.7387723 20.8478821,19.5108129 20.8478821,19.2299343 L20.8478821,16.6857441 C20.8478821,16.4048655 21.0751749,16.176906 21.356367,16.176906 L25.4242465,16.176906 C25.7054386,16.176906 25.9327314,16.4048655 25.9327314,16.6857441 L25.9327314,19.2299343 C25.9327314,19.5108129 25.7054386,19.7387723 25.4242465,19.7387723 L25.4242465,19.7387723 L25.4242465,19.7387723 Z" id="Shape" fill="#071D49"></path>
                    <path d="M17.2885384,17.1945821 L13.220659,17.1945821 C12.9394668,17.1945821 12.7121741,16.9666227 12.7121741,16.6857441 C12.7121741,16.4048655 12.9394668,16.176906 13.220659,16.176906 L17.2885384,16.176906 C17.5697306,16.176906 17.7970234,16.4048655 17.7970234,16.6857441 C17.7970234,16.9666227 17.5697306,17.1945821 17.2885384,17.1945821" id="Shape" fill="#071D49"></path>
                    <path d="M18.8139932,19.2299343 L11.6952042,19.2299343 C11.4140121,19.2299343 11.1867193,19.0019748 11.1867193,18.7210962 C11.1867193,18.4402176 11.4140121,18.2122582 11.6952042,18.2122582 L18.8139932,18.2122582 C19.0951854,18.2122582 19.3224782,18.4402176 19.3224782,18.7210962 C19.3224782,19.0019748 19.0951854,19.2299343 18.8139932,19.2299343" id="Shape" fill="#071D49"></path>
                    <path d="M9.15277958,12.2121131 C9.02260744,12.2121131 8.89243529,12.1622469 8.79328073,12.0630235 C8.59446313,11.8640678 8.59446313,11.5424822 8.79328073,11.3435265 L13.3696451,6.76398412 C13.5684627,6.56502844 13.8898252,6.56502844 14.0886428,6.76398412 C14.2874604,6.96293979 14.2874604,7.28452544 14.0886428,7.48348111 L9.51227842,12.0630235 C9.41312386,12.1622469 9.28295172,12.2121131 9.15277958,12.2121131" id="Shape" fill="#071D49"></path>
                    <path d="M11.1867193,10.1767609 C10.9055271,10.1767609 10.6782344,9.94880143 10.6782344,9.66792283 L10.6782344,7.63257066 C10.6782344,7.35169206 10.9055271,7.12373261 11.1867193,7.12373261 C11.4679115,7.12373261 11.6952042,7.35169206 11.6952042,7.63257066 L11.6952042,9.66792283 C11.6952042,9.94880143 11.4679115,10.1767609 11.1867193,10.1767609" id="Shape" fill="#071D49"></path>
                    <path d="M16.2715686,12.2121131 C16.1413964,12.2121131 16.0112243,12.1622469 15.9120697,12.0630235 C15.7132521,11.8640678 15.7132521,11.5424822 15.9120697,11.3435265 L20.4884341,6.76398412 C20.6872517,6.56502844 21.0086142,6.56502844 21.2074318,6.76398412 C21.4062494,6.96293979 21.4062494,7.28452544 21.2074318,7.48348111 L16.6310674,12.0630235 C16.5319129,12.1622469 16.4017407,12.2121131 16.2715686,12.2121131" id="Shape" fill="#071D49"></path>
                    <path d="M18.3055083,10.1767609 C18.0243161,10.1767609 17.7970234,9.94880143 17.7970234,9.66792283 L17.7970234,7.63257066 C17.7970234,7.35169206 18.0243161,7.12373261 18.3055083,7.12373261 C18.5867005,7.12373261 18.8139932,7.35169206 18.8139932,7.63257066 L18.8139932,9.66792283 C18.8139932,9.94880143 18.5867005,10.1767609 18.3055083,10.1767609" id="Shape" fill="#071D49"></path>
                </g>
            </g>
        </g>
    </g>
</svg>