<svg width="33" height="31" xmlns="http://www.w3.org/2000/svg"><g fill="none" fill-rule="evenodd"><path d="M3.119 9.553a.433.433 0 00.432-.433V5.897a.433.433 0 00-.432-.432H1.932a.433.433 0 00-.432.432V9.12c0 .239.194.433.432.433H3.12zm27.334 0a.433.433 0 00.432-.433V5.897a.433.433 0 00-.432-.432h-1.187a.433.433 0 00-.432.432V9.12c0 .239.194.433.432.433h1.187z" stroke="#071D49"/><path d="M27.708 26.577h-4.602v1.794c0 .709.577 1.286 1.284 1.286h2.034c.708 0 1.284-.577 1.284-1.286v-1.794zm-18.222 0H4.884v1.794c0 .709.576 1.286 1.284 1.286h2.034c.707 0 1.284-.577 1.284-1.286v-1.794zm20.498-.156H2.526c-.842 0-1.526-.613-1.526-1.367v-.912c0-.754.684-1.368 1.526-1.368h27.458c.84 0 1.525.614 1.525 1.368v.912c0 .754-.684 1.367-1.525 1.367h0zM2.123 22.774h28.263v-6.533c0-.239-.06-.478-.174-.69l-1.249-2.339H3.546l-1.25 2.338a1.468 1.468 0 00-.173.691v6.533zm27.001-9.562H3.385l2.759-10.12A2.843 2.843 0 018.88 1h14.75c1.276 0 2.401.86 2.737 2.092l2.758 10.12h0z" stroke="#071D49" stroke-width="1.5"/><path d="M6.593 19.721h3.051v-1.526h-3.05v1.526zm3.56 1.018H6.085a.509.509 0 01-.509-.51v-2.543a.51.51 0 01.509-.51h4.068a.51.51 0 01.508.51v2.544c0 .28-.227.509-.508.509zm12.712-1.018h3.05v-1.526h-3.05v1.526zm3.56 1.018h-4.069a.509.509 0 01-.508-.51v-2.543a.51.51 0 01.508-.51h4.068a.51.51 0 01.509.51v2.544a.51.51 0 01-.509.509zm-8.136-2.544H14.22a.509.509 0 010-1.018h4.068a.509.509 0 010 1.018m1.526 2.035h-7.119a.509.509 0 010-1.018h7.119a.509.509 0 010 1.018m-9.661-7.018a.509.509 0 01-.36-.869l4.577-4.579a.508.508 0 11.719.72l-4.577 4.579a.504.504 0 01-.36.15" fill="#071D49"/><path d="M12.187 11.177a.509.509 0 01-.509-.51V8.634a.509.509 0 111.017 0v2.035c0 .28-.227.509-.508.509m5.085 2.034a.509.509 0 01-.36-.869l4.576-4.579a.508.508 0 11.72.72l-4.577 4.579c-.1.1-.23.15-.36.15" fill="#071D49"/><path d="M19.306 11.177a.509.509 0 01-.509-.51V8.634a.509.509 0 111.017 0v2.035c0 .28-.227.509-.508.509" fill="#071D49"/></g></svg>