<?xml version="1.0" encoding="UTF-8"?>
<svg width="742px" height="259px" viewBox="0 0 742 259" version="1.1" xmlns="http://www.w3.org/2000/svg" xmlns:xlink="http://www.w3.org/1999/xlink">
    <!-- Generator: Sketch 45.2 (43514) - http://www.bohemiancoding.com/sketch -->
    <title>dash length export 3</title>
    <desc>Created with Sketch.</desc>
    <defs></defs>
    <g id="Page-1" stroke="none" stroke-width="1" fill="none" fill-rule="evenodd">
        <g id="7-12-4" transform="translate(-449.000000, -4372.000000)">
            <g id="dash-length-export-3" transform="translate(448.000000, 4372.000000)">
                <polygon id="Rectangle-2" fill="#C8102E" points="167.770551 0 743 0 743 259 98 259"></polygon>
                <g id="outline" transform="translate(0.000000, 32.000000)">
                    <path d="M1.336,10.688 C1.336,7.792 2.68,5.168 5.672,5.168 C7.048,5.168 7.976,5.696 8.632,6.448 L7.96,7.44 C7.416,6.8 6.792,6.352 5.672,6.352 C3.608,6.352 2.664,8.448 2.664,10.544 C2.664,10.688 2.664,10.816 2.68,10.96 C3.144,10.224 4.328,9.296 5.704,9.296 C7.624,9.296 9.192,10.432 9.192,12.704 C9.192,14.56 7.784,16.192 5.448,16.192 C2.472,16.192 1.336,13.584 1.336,10.688 Z M7.848,12.752 C7.848,11.184 6.76,10.448 5.384,10.448 C4.328,10.448 3.304,11.104 2.712,12.048 C2.84,13.376 3.544,15.008 5.4,15.008 C7.048,15.008 7.848,13.776 7.848,12.752 Z M10.792,10.672 C10.792,8.064 11.944,5.168 14.872,5.168 C17.784,5.168 18.952,8.064 18.952,10.672 C18.952,13.264 17.784,16.192 14.872,16.192 C11.944,16.192 10.792,13.264 10.792,10.672 Z M17.592,10.672 C17.592,8.544 16.904,6.352 14.872,6.352 C12.84,6.352 12.152,8.544 12.152,10.672 C12.152,12.8 12.84,15.008 14.872,15.008 C16.904,15.008 17.592,12.8 17.592,10.672 Z M22.168,18.944 L20.968,18.944 L20.968,8.272 L22.168,8.272 L22.168,9.424 C22.728,8.64 23.688,8.08 24.776,8.08 C26.808,8.08 28.216,9.616 28.216,12.128 C28.216,14.624 26.808,16.192 24.776,16.192 C23.72,16.192 22.792,15.696 22.168,14.832 L22.168,18.944 Z M26.952,12.128 C26.952,10.416 26.024,9.152 24.472,9.152 C23.528,9.152 22.584,9.712 22.168,10.384 L22.168,13.872 C22.584,14.544 23.528,15.12 24.472,15.12 C26.024,15.12 26.952,13.84 26.952,12.128 Z M35.16,16 L36.552,16 L33.576,12.032 L36.376,8.272 L34.984,8.272 L32.84,11.216 L30.696,8.272 L29.304,8.272 L32.104,12.032 L29.144,16 L30.52,16 L32.84,12.832 L35.16,16 Z M42.056,16 L43.256,16 L43.256,5.328 L42.056,5.328 L42.056,16 Z M45.208,12.128 C45.208,9.888 46.808,8.08 49.016,8.08 C51.352,8.08 52.728,9.904 52.728,12.224 L52.728,12.528 L46.472,12.528 C46.568,13.984 47.592,15.2 49.256,15.2 C50.136,15.2 51.032,14.848 51.64,14.224 L52.216,15.008 C51.448,15.776 50.408,16.192 49.144,16.192 C46.856,16.192 45.208,14.544 45.208,12.128 Z M49,9.072 C47.352,9.072 46.536,10.464 46.472,11.648 L51.544,11.648 C51.528,10.496 50.76,9.072 49,9.072 Z M59.88,16 L61.08,16 L61.08,10.576 C61.08,8.896 60.232,8.08 58.616,8.08 C57.464,8.08 56.408,8.752 55.864,9.392 L55.864,8.272 L54.664,8.272 L54.664,16 L55.864,16 L55.864,10.352 C56.312,9.728 57.208,9.152 58.152,9.152 C59.192,9.152 59.88,9.584 59.88,10.944 L59.88,16 Z M63.464,17.984 L64.072,17.088 C64.712,17.856 65.48,18.144 66.584,18.144 C67.864,18.144 69.064,17.52 69.064,15.824 L69.064,14.72 C68.504,15.504 67.56,16.096 66.472,16.096 C64.456,16.096 63.032,14.592 63.032,12.096 C63.032,9.616 64.44,8.08 66.472,8.08 C67.512,8.08 68.44,8.592 69.064,9.44 L69.064,8.272 L70.264,8.272 L70.264,15.776 C70.264,18.336 68.472,19.136 66.584,19.136 C65.272,19.136 64.376,18.88 63.464,17.984 Z M69.064,13.776 L69.064,10.4 C68.648,9.728 67.72,9.152 66.76,9.152 C65.208,9.152 64.28,10.384 64.28,12.096 C64.28,13.792 65.208,15.04 66.76,15.04 C67.72,15.04 68.648,14.448 69.064,13.776 Z M74.616,16.192 C75.32,16.192 75.752,15.984 76.056,15.696 L75.704,14.8 C75.544,14.976 75.224,15.12 74.888,15.12 C74.36,15.12 74.104,14.704 74.104,14.128 L74.104,9.328 L75.672,9.328 L75.672,8.272 L74.104,8.272 L74.104,6.16 L72.904,6.16 L72.904,8.272 L71.624,8.272 L71.624,9.328 L72.904,9.328 L72.904,14.384 C72.904,15.536 73.48,16.192 74.616,16.192 Z M82.6,16 L83.8,16 L83.8,10.544 C83.8,8.864 82.952,8.08 81.336,8.08 C80.168,8.08 79.112,8.752 78.568,9.392 L78.568,5.328 L77.368,5.328 L77.368,16 L78.568,16 L78.568,10.352 C79.032,9.728 79.928,9.152 80.856,9.152 C81.896,9.152 82.6,9.552 82.6,10.912 L82.6,16 Z M11.56,35 L18.888,35 L18.888,33.816 L13.656,33.816 C16.632,31.464 18.84,29.48 18.84,27.304 C18.84,25.176 17.032,24.168 15.256,24.168 C13.752,24.168 12.36,24.776 11.544,25.848 L12.36,26.696 C12.984,25.896 13.976,25.352 15.256,25.352 C16.36,25.352 17.48,25.944 17.48,27.304 C17.48,29.144 15.4,30.92 11.56,33.944 L11.56,35 Z M22.504,37.944 L21.304,37.944 L21.304,27.272 L22.504,27.272 L22.504,28.424 C23.064,27.64 24.024,27.08 25.112,27.08 C27.144,27.08 28.552,28.616 28.552,31.128 C28.552,33.624 27.144,35.192 25.112,35.192 C24.056,35.192 23.128,34.696 22.504,33.832 L22.504,37.944 Z M27.288,31.128 C27.288,29.416 26.36,28.152 24.808,28.152 C23.864,28.152 22.92,28.712 22.504,29.384 L22.504,32.872 C22.92,33.544 23.864,34.12 24.808,34.12 C26.36,34.12 27.288,32.84 27.288,31.128 Z M35.496,35 L36.888,35 L33.912,31.032 L36.712,27.272 L35.32,27.272 L33.176,30.216 L31.032,27.272 L29.64,27.272 L32.44,31.032 L29.48,35 L30.856,35 L33.176,31.832 L35.496,35 Z M41.72,33.976 C42.504,34.808 43.576,35.192 44.84,35.192 C46.84,35.192 47.88,34.152 47.88,32.856 C47.88,31.144 46.328,30.76 44.984,30.456 C43.976,30.216 43.096,29.976 43.096,29.224 C43.096,28.536 43.752,28.056 44.808,28.056 C45.8,28.056 46.648,28.472 47.112,29.032 L47.672,28.2 C47.048,27.576 46.12,27.08 44.808,27.08 C42.968,27.08 41.928,28.104 41.928,29.304 C41.928,30.904 43.416,31.256 44.728,31.56 C45.768,31.816 46.712,32.088 46.712,32.936 C46.712,33.688 46.072,34.216 44.888,34.216 C43.832,34.216 42.856,33.704 42.344,33.112 L41.72,33.976 Z M51.784,35.192 C52.488,35.192 52.92,34.984 53.224,34.696 L52.872,33.8 C52.712,33.976 52.392,34.12 52.056,34.12 C51.528,34.12 51.272,33.704 51.272,33.128 L51.272,28.328 L52.84,28.328 L52.84,27.272 L51.272,27.272 L51.272,25.16 L50.072,25.16 L50.072,27.272 L48.792,27.272 L48.792,28.328 L50.072,28.328 L50.072,33.384 C50.072,34.536 50.648,35.192 51.784,35.192 Z M54.536,35 L55.736,35 L55.736,29.528 C56.088,28.904 57.096,28.296 57.832,28.296 C58.024,28.296 58.168,28.312 58.312,28.344 L58.312,27.112 C57.256,27.112 56.36,27.704 55.736,28.52 L55.736,27.272 L54.536,27.272 L54.536,35 Z M63.192,35.192 C60.84,35.192 59.368,33.368 59.368,31.128 C59.368,28.888 60.84,27.08 63.192,27.08 C65.544,27.08 67.016,28.888 67.016,31.128 C67.016,33.368 65.544,35.192 63.192,35.192 Z M63.192,34.12 C64.84,34.12 65.752,32.712 65.752,31.128 C65.752,29.56 64.84,28.152 63.192,28.152 C61.544,28.152 60.616,29.56 60.616,31.128 C60.616,32.712 61.544,34.12 63.192,34.12 Z M74.232,35 L75.768,35 L72.328,30.776 L75.752,27.272 L74.232,27.272 L70.168,31.384 L70.168,24.328 L68.968,24.328 L68.968,35 L70.168,35 L70.168,32.792 L71.448,31.528 L74.232,35 Z M76.744,31.128 C76.744,28.888 78.344,27.08 80.552,27.08 C82.888,27.08 84.264,28.904 84.264,31.224 L84.264,31.528 L78.008,31.528 C78.104,32.984 79.128,34.2 80.792,34.2 C81.672,34.2 82.568,33.848 83.176,33.224 L83.752,34.008 C82.984,34.776 81.944,35.192 80.68,35.192 C78.392,35.192 76.744,33.544 76.744,31.128 Z M80.536,28.072 C78.888,28.072 78.072,29.464 78.008,30.648 L83.08,30.648 C83.064,29.496 82.296,28.072 80.536,28.072 Z" id="60px-length-2px-stro" fill="#6A7792"></path>
                    <path d="M21.384,95 L28.712,95 L28.712,93.816 L23.48,93.816 C26.456,91.464 28.664,89.48 28.664,87.304 C28.664,85.176 26.856,84.168 25.08,84.168 C23.576,84.168 22.184,84.776 21.368,85.848 L22.184,86.696 C22.808,85.896 23.8,85.352 25.08,85.352 C26.184,85.352 27.304,85.944 27.304,87.304 C27.304,89.144 25.224,90.92 21.384,93.944 L21.384,95 Z M30.744,89.672 C30.744,87.064 31.896,84.168 34.824,84.168 C37.736,84.168 38.904,87.064 38.904,89.672 C38.904,92.264 37.736,95.192 34.824,95.192 C31.896,95.192 30.744,92.264 30.744,89.672 Z M37.544,89.672 C37.544,87.544 36.856,85.352 34.824,85.352 C32.792,85.352 32.104,87.544 32.104,89.672 C32.104,91.8 32.792,94.008 34.824,94.008 C36.856,94.008 37.544,91.8 37.544,89.672 Z M42.12,97.944 L40.92,97.944 L40.92,87.272 L42.12,87.272 L42.12,88.424 C42.68,87.64 43.64,87.08 44.728,87.08 C46.76,87.08 48.168,88.616 48.168,91.128 C48.168,93.624 46.76,95.192 44.728,95.192 C43.672,95.192 42.744,94.696 42.12,93.832 L42.12,97.944 Z M46.904,91.128 C46.904,89.416 45.976,88.152 44.424,88.152 C43.48,88.152 42.536,88.712 42.12,89.384 L42.12,92.872 C42.536,93.544 43.48,94.12 44.424,94.12 C45.976,94.12 46.904,92.84 46.904,91.128 Z M55.112,95 L56.504,95 L53.528,91.032 L56.328,87.272 L54.936,87.272 L52.792,90.216 L50.648,87.272 L49.256,87.272 L52.056,91.032 L49.096,95 L50.472,95 L52.792,91.832 L55.112,95 Z M63.96,95.192 C64.664,95.192 65.096,94.984 65.4,94.696 L65.048,93.8 C64.888,93.976 64.568,94.12 64.232,94.12 C63.704,94.12 63.448,93.704 63.448,93.128 L63.448,88.328 L65.016,88.328 L65.016,87.272 L63.448,87.272 L63.448,85.16 L62.248,85.16 L62.248,87.272 L60.968,87.272 L60.968,88.328 L62.248,88.328 L62.248,93.384 C62.248,94.536 62.824,95.192 63.96,95.192 Z M66.264,91.128 C66.264,88.888 67.864,87.08 70.072,87.08 C72.408,87.08 73.784,88.904 73.784,91.224 L73.784,91.528 L67.528,91.528 C67.624,92.984 68.648,94.2 70.312,94.2 C71.192,94.2 72.088,93.848 72.696,93.224 L73.272,94.008 C72.504,94.776 71.464,95.192 70.2,95.192 C67.912,95.192 66.264,93.544 66.264,91.128 Z M70.056,88.072 C68.408,88.072 67.592,89.464 67.528,90.648 L72.6,90.648 C72.584,89.496 71.816,88.072 70.056,88.072 Z M80.728,95 L82.12,95 L79.144,91.032 L81.944,87.272 L80.552,87.272 L78.408,90.216 L76.264,87.272 L74.872,87.272 L77.672,91.032 L74.712,95 L76.088,95 L78.408,91.832 L80.728,95 Z M85.448,95.192 C86.152,95.192 86.584,94.984 86.888,94.696 L86.536,93.8 C86.376,93.976 86.056,94.12 85.72,94.12 C85.192,94.12 84.936,93.704 84.936,93.128 L84.936,88.328 L86.504,88.328 L86.504,87.272 L84.936,87.272 L84.936,85.16 L83.736,85.16 L83.736,87.272 L82.456,87.272 L82.456,88.328 L83.736,88.328 L83.736,93.384 C83.736,94.536 84.312,95.192 85.448,95.192 Z" id="20px-text" fill="#6A7792"></path>
                    <path d="M258.357245,55.76 L259.097245,55.76 C259.097245,55.76 259.637245,51.66 259.637245,51.38 C259.637245,50.88 259.237245,50.46 258.717245,50.46 C258.217245,50.46 257.817245,50.88 257.817245,51.38 C257.817245,51.66 258.357245,55.76 258.357245,55.76 Z M261.257245,55.76 L261.997245,55.76 C261.997245,55.76 262.537245,51.66 262.537245,51.38 C262.537245,50.88 262.137245,50.46 261.637245,50.46 C261.117245,50.46 260.717245,50.88 260.717245,51.38 C260.717245,51.66 261.257245,55.76 261.257245,55.76 Z M268.457245,64 L270.117245,64 L270.117245,52.14 L274.357245,52.14 L274.357245,50.66 L264.237245,50.66 L264.237245,52.14 L268.457245,52.14 L268.457245,64 Z M283.037245,64 L284.537245,64 L284.537245,57.18 C284.537245,55.08 283.477245,54.1 281.457245,54.1 C279.997245,54.1 278.677245,54.94 277.997245,55.74 L277.997245,50.66 L276.497245,50.66 L276.497245,64 L277.997245,64 L277.997245,56.94 C278.577245,56.16 279.697245,55.44 280.857245,55.44 C282.157245,55.44 283.037245,55.94 283.037245,57.64 L283.037245,64 Z M286.977245,59.16 C286.977245,56.36 288.977245,54.1 291.737245,54.1 C294.657245,54.1 296.377245,56.38 296.377245,59.28 L296.377245,59.66 L288.557245,59.66 C288.677245,61.48 289.957245,63 292.037245,63 C293.137245,63 294.257245,62.56 295.017245,61.78 L295.737245,62.76 C294.777245,63.72 293.477245,64.24 291.897245,64.24 C289.037245,64.24 286.977245,62.18 286.977245,59.16 Z M291.717245,55.34 C289.657245,55.34 288.637245,57.08 288.557245,58.56 L294.897245,58.56 C294.877245,57.12 293.917245,55.34 291.717245,55.34 Z M312.437245,67.68 L310.937245,67.68 L310.937245,62.54 C310.157245,63.62 308.997245,64.24 307.697245,64.24 C305.157245,64.24 303.397245,62.28 303.397245,59.16 C303.397245,56.02 305.157245,54.1 307.697245,54.1 C309.057245,54.1 310.237245,54.8 310.937245,55.78 L310.937245,54.34 L312.437245,54.34 L312.437245,67.68 Z M310.937245,61.34 L310.937245,56.98 C310.417245,56.14 309.257245,55.44 308.057245,55.44 C306.117245,55.44 304.957245,57.02 304.957245,59.16 C304.957245,61.3 306.117245,62.9 308.057245,62.9 C309.257245,62.9 310.417245,62.18 310.937245,61.34 Z M321.957245,64 L323.457245,64 L323.457245,54.34 L321.957245,54.34 L321.957245,61.44 C321.397245,62.22 320.277245,62.9 319.097245,62.9 C317.797245,62.9 316.937245,62.4 316.937245,60.7 L316.937245,54.34 L315.437245,54.34 L315.437245,61.16 C315.437245,63.26 316.497245,64.24 318.517245,64.24 C319.957245,64.24 321.217245,63.48 321.957245,62.64 L321.957245,64 Z M332.497245,64 L332.497245,62.9 C331.697245,63.78 330.597245,64.24 329.297245,64.24 C327.657245,64.24 325.917245,63.14 325.917245,61.04 C325.917245,58.88 327.657245,57.86 329.297245,57.86 C330.617245,57.86 331.717245,58.28 332.497245,59.18 L332.497245,57.44 C332.497245,56.14 331.457245,55.4 330.057245,55.4 C328.897245,55.4 327.957245,55.82 327.097245,56.74 L326.397245,55.7 C327.437245,54.62 328.677245,54.1 330.257245,54.1 C332.297245,54.1 333.997245,55.02 333.997245,57.36 L333.997245,64 L332.497245,64 Z M332.497245,61.96 L332.497245,60.14 C331.917245,59.34 330.897245,58.94 329.837245,58.94 C328.437245,58.94 327.457245,59.82 327.457245,61.06 C327.457245,62.28 328.437245,63.16 329.837245,63.16 C330.897245,63.16 331.917245,62.76 332.497245,61.96 Z M336.997245,64 L338.497245,64 L338.497245,50.66 L336.997245,50.66 L336.997245,64 Z M342.237245,52.78 C342.797245,52.78 343.257245,52.34 343.257245,51.78 C343.257245,51.22 342.797245,50.76 342.237245,50.76 C341.697245,50.76 341.237245,51.22 341.237245,51.78 C341.237245,52.34 341.697245,52.78 342.237245,52.78 Z M341.497245,64 L342.997245,64 L342.997245,54.34 L341.497245,54.34 L341.497245,64 Z M348.437245,64.24 C349.317245,64.24 349.857245,63.98 350.237245,63.62 L349.797245,62.5 C349.597245,62.72 349.197245,62.9 348.777245,62.9 C348.117245,62.9 347.797245,62.38 347.797245,61.66 L347.797245,55.66 L349.757245,55.66 L349.757245,54.34 L347.797245,54.34 L347.797245,51.7 L346.297245,51.7 L346.297245,54.34 L344.697245,54.34 L344.697245,55.66 L346.297245,55.66 L346.297245,61.98 C346.297245,63.42 347.017245,64.24 348.437245,64.24 Z M351.577245,66.42 L351.337245,67.78 C351.617245,67.86 352.117245,67.92 352.437245,67.92 C353.717245,67.9 354.697245,67.36 355.277245,65.96 L360.117245,54.34 L358.477245,54.34 L355.277245,62.26 L352.057245,54.34 L350.437245,54.34 L354.477245,64.1 L353.837245,65.56 C353.497245,66.36 353.057245,66.58 352.397245,66.58 C352.157245,66.58 351.797245,66.52 351.577245,66.42 Z M371.057245,64.24 C368.117245,64.24 366.277245,61.96 366.277245,59.16 C366.277245,56.36 368.117245,54.1 371.057245,54.1 C373.997245,54.1 375.837245,56.36 375.837245,59.16 C375.837245,61.96 373.997245,64.24 371.057245,64.24 Z M371.057245,62.9 C373.117245,62.9 374.257245,61.14 374.257245,59.16 C374.257245,57.2 373.117245,55.44 371.057245,55.44 C368.997245,55.44 367.837245,57.2 367.837245,59.16 C367.837245,61.14 368.997245,62.9 371.057245,62.9 Z M378.697245,64 L380.197245,64 L380.197245,55.66 L382.157245,55.66 L382.157245,54.34 L380.197245,54.34 L380.197245,53.6 C380.197245,52.38 380.737245,51.7 381.717245,51.7 C382.057245,51.7 382.337245,51.78 382.577245,51.92 L382.957245,50.8 C382.577245,50.56 382.057245,50.46 381.497245,50.46 C379.817245,50.46 378.697245,51.6 378.697245,53.6 L378.697245,54.34 L377.097245,54.34 L377.097245,55.66 L378.697245,55.66 L378.697245,64 Z M391.537245,64.24 C392.417245,64.24 392.957245,63.98 393.337245,63.62 L392.897245,62.5 C392.697245,62.72 392.297245,62.9 391.877245,62.9 C391.217245,62.9 390.897245,62.38 390.897245,61.66 L390.897245,55.66 L392.857245,55.66 L392.857245,54.34 L390.897245,54.34 L390.897245,51.7 L389.397245,51.7 L389.397245,54.34 L387.797245,54.34 L387.797245,55.66 L389.397245,55.66 L389.397245,61.98 C389.397245,63.42 390.117245,64.24 391.537245,64.24 Z M401.517245,64 L403.017245,64 L403.017245,57.18 C403.017245,55.08 401.957245,54.1 399.937245,54.1 C398.477245,54.1 397.157245,54.94 396.477245,55.74 L396.477245,50.66 L394.977245,50.66 L394.977245,64 L396.477245,64 L396.477245,56.94 C397.057245,56.16 398.177245,55.44 399.337245,55.44 C400.637245,55.44 401.517245,55.94 401.517245,57.64 L401.517245,64 Z M405.457245,59.16 C405.457245,56.36 407.457245,54.1 410.217245,54.1 C413.137245,54.1 414.857245,56.38 414.857245,59.28 L414.857245,59.66 L407.037245,59.66 C407.157245,61.48 408.437245,63 410.517245,63 C411.617245,63 412.737245,62.56 413.497245,61.78 L414.217245,62.76 C413.257245,63.72 411.957245,64.24 410.377245,64.24 C407.517245,64.24 405.457245,62.18 405.457245,59.16 Z M410.197245,55.34 C408.137245,55.34 407.117245,57.08 407.037245,58.56 L413.377245,58.56 C413.357245,57.12 412.397245,55.34 410.197245,55.34 Z M421.597245,62.72 C422.577245,63.76 423.917245,64.24 425.497245,64.24 C427.997245,64.24 429.297245,62.94 429.297245,61.32 C429.297245,59.18 427.357245,58.7 425.677245,58.32 C424.417245,58.02 423.317245,57.72 423.317245,56.78 C423.317245,55.92 424.137245,55.32 425.457245,55.32 C426.697245,55.32 427.757245,55.84 428.337245,56.54 L429.037245,55.5 C428.257245,54.72 427.097245,54.1 425.457245,54.1 C423.157245,54.1 421.857245,55.38 421.857245,56.88 C421.857245,58.88 423.717245,59.32 425.357245,59.7 C426.657245,60.02 427.837245,60.36 427.837245,61.42 C427.837245,62.36 427.037245,63.02 425.557245,63.02 C424.237245,63.02 423.017245,62.38 422.377245,61.64 L421.597245,62.72 Z M434.177245,64.24 C435.057245,64.24 435.597245,63.98 435.977245,63.62 L435.537245,62.5 C435.337245,62.72 434.937245,62.9 434.517245,62.9 C433.857245,62.9 433.537245,62.38 433.537245,61.66 L433.537245,55.66 L435.497245,55.66 L435.497245,54.34 L433.537245,54.34 L433.537245,51.7 L432.037245,51.7 L432.037245,54.34 L430.437245,54.34 L430.437245,55.66 L432.037245,55.66 L432.037245,61.98 C432.037245,63.42 432.757245,64.24 434.177245,64.24 Z M443.657245,64 L443.657245,62.9 C442.857245,63.78 441.757245,64.24 440.457245,64.24 C438.817245,64.24 437.077245,63.14 437.077245,61.04 C437.077245,58.88 438.817245,57.86 440.457245,57.86 C441.777245,57.86 442.877245,58.28 443.657245,59.18 L443.657245,57.44 C443.657245,56.14 442.617245,55.4 441.217245,55.4 C440.057245,55.4 439.117245,55.82 438.257245,56.74 L437.557245,55.7 C438.597245,54.62 439.837245,54.1 441.417245,54.1 C443.457245,54.1 445.157245,55.02 445.157245,57.36 L445.157245,64 L443.657245,64 Z M443.657245,61.96 L443.657245,60.14 C443.077245,59.34 442.057245,58.94 440.997245,58.94 C439.597245,58.94 438.617245,59.82 438.617245,61.06 C438.617245,62.28 439.597245,63.16 440.997245,63.16 C442.057245,63.16 443.077245,62.76 443.657245,61.96 Z M448.577245,64 L448.577245,55.66 L446.977245,55.66 L446.977245,54.34 L448.577245,54.34 L448.577245,53.6 C448.577245,51.6 449.697245,50.46 451.377245,50.46 C451.937245,50.46 452.457245,50.56 452.837245,50.8 L452.457245,51.92 C452.217245,51.78 451.937245,51.7 451.597245,51.7 C450.617245,51.7 450.077245,52.38 450.077245,53.6 L450.077245,54.34 L452.037245,54.34 L452.037245,55.66 L450.077245,55.66 L450.077245,64 L448.577245,64 Z M454.237245,64 L454.237245,55.66 L452.637245,55.66 L452.637245,54.34 L454.237245,54.34 L454.237245,53.6 C454.237245,51.6 455.357245,50.46 457.037245,50.46 C457.597245,50.46 458.117245,50.56 458.497245,50.8 L458.117245,51.92 C457.877245,51.78 457.597245,51.7 457.257245,51.7 C456.277245,51.7 455.737245,52.38 455.737245,53.6 L455.737245,54.34 L457.697245,54.34 L457.697245,55.66 L455.737245,55.66 L455.737245,64 L454.237245,64 Z M470.677245,64 L470.677245,62.9 C469.877245,63.78 468.777245,64.24 467.477245,64.24 C465.837245,64.24 464.097245,63.14 464.097245,61.04 C464.097245,58.88 465.837245,57.86 467.477245,57.86 C468.797245,57.86 469.897245,58.28 470.677245,59.18 L470.677245,57.44 C470.677245,56.14 469.637245,55.4 468.237245,55.4 C467.077245,55.4 466.137245,55.82 465.277245,56.74 L464.577245,55.7 C465.617245,54.62 466.857245,54.1 468.437245,54.1 C470.477245,54.1 472.177245,55.02 472.177245,57.36 L472.177245,64 L470.677245,64 Z M470.677245,61.96 L470.677245,60.14 C470.097245,59.34 469.077245,58.94 468.017245,58.94 C466.617245,58.94 465.637245,59.82 465.637245,61.06 C465.637245,62.28 466.617245,63.16 468.017245,63.16 C469.077245,63.16 470.097245,62.76 470.677245,61.96 Z M477.617245,64.24 C478.497245,64.24 479.037245,63.98 479.417245,63.62 L478.977245,62.5 C478.777245,62.72 478.377245,62.9 477.957245,62.9 C477.297245,62.9 476.977245,62.38 476.977245,61.66 L476.977245,55.66 L478.937245,55.66 L478.937245,54.34 L476.977245,54.34 L476.977245,51.7 L475.477245,51.7 L475.477245,54.34 L473.877245,54.34 L473.877245,55.66 L475.477245,55.66 L475.477245,61.98 C475.477245,63.42 476.197245,64.24 477.617245,64.24 Z M497.677245,64 L499.337245,64 L499.337245,50.66 L496.957245,50.66 L492.797245,60.82 L488.657245,50.66 L486.277245,50.66 L486.277245,64 L487.937245,64 L487.937245,52.9 L492.457245,64 L493.137245,64 L497.677245,52.9 L497.677245,64 Z M508.437245,64 L508.437245,62.9 C507.637245,63.78 506.537245,64.24 505.237245,64.24 C503.597245,64.24 501.857245,63.14 501.857245,61.04 C501.857245,58.88 503.597245,57.86 505.237245,57.86 C506.557245,57.86 507.657245,58.28 508.437245,59.18 L508.437245,57.44 C508.437245,56.14 507.397245,55.4 505.997245,55.4 C504.837245,55.4 503.897245,55.82 503.037245,56.74 L502.337245,55.7 C503.377245,54.62 504.617245,54.1 506.197245,54.1 C508.237245,54.1 509.937245,55.02 509.937245,57.36 L509.937245,64 L508.437245,64 Z M508.437245,61.96 L508.437245,60.14 C507.857245,59.34 506.837245,58.94 505.777245,58.94 C504.377245,58.94 503.397245,59.82 503.397245,61.06 C503.397245,62.28 504.377245,63.16 505.777245,63.16 C506.837245,63.16 507.857245,62.76 508.437245,61.96 Z M519.197245,64 L520.937245,64 L517.217245,59.04 L520.717245,54.34 L518.977245,54.34 L516.297245,58.02 L513.617245,54.34 L511.877245,54.34 L515.377245,59.04 L511.677245,64 L513.397245,64 L516.297245,60.04 L519.197245,64 Z M522.717245,64 L522.717245,50.66 L528.077245,50.66 C530.757245,50.66 532.257245,52.5 532.257245,54.68 C532.257245,56.86 530.717245,58.7 528.077245,58.7 L524.377245,58.7 L524.377245,64 L522.717245,64 Z M530.537245,54.68 C530.537245,53.18 529.457245,52.14 527.877245,52.14 L524.377245,52.14 L524.377245,57.22 L527.877245,57.22 C529.457245,57.22 530.537245,56.18 530.537245,54.68 Z M538.617245,64.24 C535.677245,64.24 533.837245,61.96 533.837245,59.16 C533.837245,56.36 535.677245,54.1 538.617245,54.1 C541.557245,54.1 543.397245,56.36 543.397245,59.16 C543.397245,61.96 541.557245,64.24 538.617245,64.24 Z M538.617245,62.9 C540.677245,62.9 541.817245,61.14 541.817245,59.16 C541.817245,57.2 540.677245,55.44 538.617245,55.44 C536.557245,55.44 535.397245,57.2 535.397245,59.16 C535.397245,61.14 536.557245,62.9 538.617245,62.9 Z M546.577245,52.78 C547.137245,52.78 547.597245,52.34 547.597245,51.78 C547.597245,51.22 547.137245,50.76 546.577245,50.76 C546.037245,50.76 545.577245,51.22 545.577245,51.78 C545.577245,52.34 546.037245,52.78 546.577245,52.78 Z M545.837245,64 L547.337245,64 L547.337245,54.34 L545.837245,54.34 L545.837245,64 Z M556.857245,64 L558.357245,64 L558.357245,57.22 C558.357245,55.12 557.297245,54.1 555.277245,54.1 C553.837245,54.1 552.517245,54.94 551.837245,55.74 L551.837245,54.34 L550.337245,54.34 L550.337245,64 L551.837245,64 L551.837245,56.94 C552.397245,56.16 553.517245,55.44 554.697245,55.44 C555.997245,55.44 556.857245,55.98 556.857245,57.68 L556.857245,64 Z M563.797245,64.24 C564.677245,64.24 565.217245,63.98 565.597245,63.62 L565.157245,62.5 C564.957245,62.72 564.557245,62.9 564.137245,62.9 C563.477245,62.9 563.157245,62.38 563.157245,61.66 L563.157245,55.66 L565.117245,55.66 L565.117245,54.34 L563.157245,54.34 L563.157245,51.7 L561.657245,51.7 L561.657245,54.34 L560.057245,54.34 L560.057245,55.66 L561.657245,55.66 L561.657245,61.98 C561.657245,63.42 562.377245,64.24 563.797245,64.24 Z M573.137245,52.78 C573.697245,52.78 574.157245,52.34 574.157245,51.78 C574.157245,51.22 573.697245,50.76 573.137245,50.76 C572.597245,50.76 572.137245,51.22 572.137245,51.78 C572.137245,52.34 572.597245,52.78 573.137245,52.78 Z M572.397245,64 L573.897245,64 L573.897245,54.34 L572.397245,54.34 L572.397245,64 Z M576.057245,62.72 C577.037245,63.76 578.377245,64.24 579.957245,64.24 C582.457245,64.24 583.757245,62.94 583.757245,61.32 C583.757245,59.18 581.817245,58.7 580.137245,58.32 C578.877245,58.02 577.777245,57.72 577.777245,56.78 C577.777245,55.92 578.597245,55.32 579.917245,55.32 C581.157245,55.32 582.217245,55.84 582.797245,56.54 L583.497245,55.5 C582.717245,54.72 581.557245,54.1 579.917245,54.1 C577.617245,54.1 576.317245,55.38 576.317245,56.88 C576.317245,58.88 578.177245,59.32 579.817245,59.7 C581.117245,60.02 582.297245,60.36 582.297245,61.42 C582.297245,62.36 581.497245,63.02 580.017245,63.02 C578.697245,63.02 577.477245,62.38 576.837245,61.64 L576.057245,62.72 Z M275.967245,86.72 C276.947245,87.76 278.287245,88.24 279.867245,88.24 C282.367245,88.24 283.667245,86.94 283.667245,85.32 C283.667245,83.18 281.727245,82.7 280.047245,82.32 C278.787245,82.02 277.687245,81.72 277.687245,80.78 C277.687245,79.92 278.507245,79.32 279.827245,79.32 C281.067245,79.32 282.127245,79.84 282.707245,80.54 L283.407245,79.5 C282.627245,78.72 281.467245,78.1 279.827245,78.1 C277.527245,78.1 276.227245,79.38 276.227245,80.88 C276.227245,82.88 278.087245,83.32 279.727245,83.7 C281.027245,84.02 282.207245,84.36 282.207245,85.42 C282.207245,86.36 281.407245,87.02 279.927245,87.02 C278.607245,87.02 277.387245,86.38 276.747245,85.64 L275.967245,86.72 Z M285.547245,83.16 C285.547245,80.36 287.547245,78.1 290.307245,78.1 C293.227245,78.1 294.947245,80.38 294.947245,83.28 L294.947245,83.66 L287.127245,83.66 C287.247245,85.48 288.527245,87 290.607245,87 C291.707245,87 292.827245,86.56 293.587245,85.78 L294.307245,86.76 C293.347245,87.72 292.047245,88.24 290.467245,88.24 C287.607245,88.24 285.547245,86.18 285.547245,83.16 Z M290.287245,79.34 C288.227245,79.34 287.207245,81.08 287.127245,82.56 L293.467245,82.56 C293.447245,81.12 292.487245,79.34 290.287245,79.34 Z M296.807245,83.16 C296.807245,86.04 298.747245,88.24 301.627245,88.24 C303.387245,88.24 304.427245,87.52 305.167245,86.56 L304.167245,85.64 C303.527245,86.5 302.707245,86.9 301.707245,86.9 C299.647245,86.9 298.367245,85.3 298.367245,83.16 C298.367245,81.02 299.647245,79.44 301.707245,79.44 C302.707245,79.44 303.527245,79.82 304.167245,80.7 L305.167245,79.78 C304.427245,78.82 303.387245,78.1 301.627245,78.1 C298.747245,78.1 296.807245,80.3 296.807245,83.16 Z M311.487245,88.24 C308.547245,88.24 306.707245,85.96 306.707245,83.16 C306.707245,80.36 308.547245,78.1 311.487245,78.1 C314.427245,78.1 316.267245,80.36 316.267245,83.16 C316.267245,85.96 314.427245,88.24 311.487245,88.24 Z M311.487245,86.9 C313.547245,86.9 314.687245,85.14 314.687245,83.16 C314.687245,81.2 313.547245,79.44 311.487245,79.44 C309.427245,79.44 308.267245,81.2 308.267245,83.16 C308.267245,85.14 309.427245,86.9 311.487245,86.9 Z M325.227245,88 L326.727245,88 L326.727245,81.22 C326.727245,79.12 325.667245,78.1 323.647245,78.1 C322.207245,78.1 320.887245,78.94 320.207245,79.74 L320.207245,78.34 L318.707245,78.34 L318.707245,88 L320.207245,88 L320.207245,80.94 C320.767245,80.16 321.887245,79.44 323.067245,79.44 C324.367245,79.44 325.227245,79.98 325.227245,81.68 L325.227245,88 Z M336.727245,88 L336.727245,86.56 C336.007245,87.54 334.827245,88.24 333.467245,88.24 C330.947245,88.24 329.167245,86.32 329.167245,83.18 C329.167245,80.1 330.927245,78.1 333.467245,78.1 C334.767245,78.1 335.947245,78.74 336.727245,79.8 L336.727245,74.66 L338.227245,74.66 L338.227245,88 L336.727245,88 Z M336.727245,85.38 L336.727245,81 C336.187245,80.16 335.027245,79.44 333.827245,79.44 C331.887245,79.44 330.727245,81.04 330.727245,83.18 C330.727245,85.32 331.887245,86.9 333.827245,86.9 C335.027245,86.9 336.187245,86.22 336.727245,85.38 Z M348.827245,88.24 C349.707245,88.24 350.247245,87.98 350.627245,87.62 L350.187245,86.5 C349.987245,86.72 349.587245,86.9 349.167245,86.9 C348.507245,86.9 348.187245,86.38 348.187245,85.66 L348.187245,79.66 L350.147245,79.66 L350.147245,78.34 L348.187245,78.34 L348.187245,75.7 L346.687245,75.7 L346.687245,78.34 L345.087245,78.34 L345.087245,79.66 L346.687245,79.66 L346.687245,85.98 C346.687245,87.42 347.407245,88.24 348.827245,88.24 Z M356.487245,88.24 C353.547245,88.24 351.707245,85.96 351.707245,83.16 C351.707245,80.36 353.547245,78.1 356.487245,78.1 C359.427245,78.1 361.267245,80.36 361.267245,83.16 C361.267245,85.96 359.427245,88.24 356.487245,88.24 Z M356.487245,86.9 C358.547245,86.9 359.687245,85.14 359.687245,83.16 C359.687245,81.2 358.547245,79.44 356.487245,79.44 C354.427245,79.44 353.267245,81.2 353.267245,83.16 C353.267245,85.14 354.427245,86.9 356.487245,86.9 Z M375.387245,88 L376.887245,88 L376.887245,81.22 C376.887245,79.12 375.827245,78.1 373.807245,78.1 C372.367245,78.1 371.047245,78.94 370.367245,79.74 L370.367245,78.34 L368.867245,78.34 L368.867245,88 L370.367245,88 L370.367245,80.94 C370.927245,80.16 372.047245,79.44 373.227245,79.44 C374.527245,79.44 375.387245,79.98 375.387245,81.68 L375.387245,88 Z M384.107245,88.24 C381.167245,88.24 379.327245,85.96 379.327245,83.16 C379.327245,80.36 381.167245,78.1 384.107245,78.1 C387.047245,78.1 388.887245,80.36 388.887245,83.16 C388.887245,85.96 387.047245,88.24 384.107245,88.24 Z M384.107245,86.9 C386.167245,86.9 387.307245,85.14 387.307245,83.16 C387.307245,81.2 386.167245,79.44 384.107245,79.44 C382.047245,79.44 380.887245,81.2 380.887245,83.16 C380.887245,85.14 382.047245,86.9 384.107245,86.9 Z M397.847245,88 L399.347245,88 L399.347245,81.22 C399.347245,79.12 398.287245,78.1 396.267245,78.1 C394.827245,78.1 393.507245,78.94 392.827245,79.74 L392.827245,78.34 L391.327245,78.34 L391.327245,88 L392.827245,88 L392.827245,80.94 C393.387245,80.16 394.507245,79.44 395.687245,79.44 C396.987245,79.44 397.847245,79.98 397.847245,81.68 L397.847245,88 Z M401.787245,83.16 C401.787245,80.36 403.787245,78.1 406.547245,78.1 C409.467245,78.1 411.187245,80.38 411.187245,83.28 L411.187245,83.66 L403.367245,83.66 C403.487245,85.48 404.767245,87 406.847245,87 C407.947245,87 409.067245,86.56 409.827245,85.78 L410.547245,86.76 C409.587245,87.72 408.287245,88.24 406.707245,88.24 C403.847245,88.24 401.787245,86.18 401.787245,83.16 Z M406.527245,79.34 C404.467245,79.34 403.447245,81.08 403.367245,82.56 L409.707245,82.56 C409.687245,81.12 408.727245,79.34 406.527245,79.34 Z M413.307245,87.1 C413.307245,87.7 413.807245,88.2 414.407245,88.2 C415.007245,88.2 415.507245,87.7 415.507245,87.1 C415.507245,86.5 415.007245,86 414.407245,86 C413.807245,86 413.307245,86.5 413.307245,87.1 Z M423.427245,88 L425.087245,88 L425.087245,74.66 L423.427245,74.66 L423.427245,88 Z M433.307245,88 L434.807245,88 L434.807245,74.66 L433.307245,74.66 L433.307245,88 Z M442.027245,88.24 C439.087245,88.24 437.247245,85.96 437.247245,83.16 C437.247245,80.36 439.087245,78.1 442.027245,78.1 C444.967245,78.1 446.807245,80.36 446.807245,83.16 C446.807245,85.96 444.967245,88.24 442.027245,88.24 Z M442.027245,86.9 C444.087245,86.9 445.227245,85.14 445.227245,83.16 C445.227245,81.2 444.087245,79.44 442.027245,79.44 C439.967245,79.44 438.807245,81.2 438.807245,83.16 C438.807245,85.14 439.967245,86.9 442.027245,86.9 Z M451.827245,88 L453.467245,88 L457.487245,78.34 L455.847245,78.34 L452.647245,86.26 L449.427245,78.34 L447.807245,78.34 L451.827245,88 Z M458.487245,83.16 C458.487245,80.36 460.487245,78.1 463.247245,78.1 C466.167245,78.1 467.887245,80.38 467.887245,83.28 L467.887245,83.66 L460.067245,83.66 C460.187245,85.48 461.467245,87 463.547245,87 C464.647245,87 465.767245,86.56 466.527245,85.78 L467.247245,86.76 C466.287245,87.72 464.987245,88.24 463.407245,88.24 C460.547245,88.24 458.487245,86.18 458.487245,83.16 Z M463.227245,79.34 C461.167245,79.34 460.147245,81.08 460.067245,82.56 L466.407245,82.56 C466.387245,81.12 465.427245,79.34 463.227245,79.34 Z M474.627245,86.72 C475.607245,87.76 476.947245,88.24 478.527245,88.24 C481.027245,88.24 482.327245,86.94 482.327245,85.32 C482.327245,83.18 480.387245,82.7 478.707245,82.32 C477.447245,82.02 476.347245,81.72 476.347245,80.78 C476.347245,79.92 477.167245,79.32 478.487245,79.32 C479.727245,79.32 480.787245,79.84 481.367245,80.54 L482.067245,79.5 C481.287245,78.72 480.127245,78.1 478.487245,78.1 C476.187245,78.1 474.887245,79.38 474.887245,80.88 C474.887245,82.88 476.747245,83.32 478.387245,83.7 C479.687245,84.02 480.867245,84.36 480.867245,85.42 C480.867245,86.36 480.067245,87.02 478.587245,87.02 C477.267245,87.02 476.047245,86.38 475.407245,85.64 L474.627245,86.72 Z M484.207245,83.16 C484.207245,80.36 486.207245,78.1 488.967245,78.1 C491.887245,78.1 493.607245,80.38 493.607245,83.28 L493.607245,83.66 L485.787245,83.66 C485.907245,85.48 487.187245,87 489.267245,87 C490.367245,87 491.487245,86.56 492.247245,85.78 L492.967245,86.76 C492.007245,87.72 490.707245,88.24 489.127245,88.24 C486.267245,88.24 484.207245,86.18 484.207245,83.16 Z M488.947245,79.34 C486.887245,79.34 485.867245,81.08 485.787245,82.56 L492.127245,82.56 C492.107245,81.12 491.147245,79.34 488.947245,79.34 Z M495.467245,83.16 C495.467245,80.36 497.467245,78.1 500.227245,78.1 C503.147245,78.1 504.867245,80.38 504.867245,83.28 L504.867245,83.66 L497.047245,83.66 C497.167245,85.48 498.447245,87 500.527245,87 C501.627245,87 502.747245,86.56 503.507245,85.78 L504.227245,86.76 C503.267245,87.72 501.967245,88.24 500.387245,88.24 C497.527245,88.24 495.467245,86.18 495.467245,83.16 Z M500.207245,79.34 C498.147245,79.34 497.127245,81.08 497.047245,82.56 L503.387245,82.56 C503.367245,81.12 502.407245,79.34 500.207245,79.34 Z M508.027245,76.78 C508.587245,76.78 509.047245,76.34 509.047245,75.78 C509.047245,75.22 508.587245,74.76 508.027245,74.76 C507.487245,74.76 507.027245,75.22 507.027245,75.78 C507.027245,76.34 507.487245,76.78 508.027245,76.78 Z M507.287245,88 L508.787245,88 L508.787245,78.34 L507.287245,78.34 L507.287245,88 Z M518.307245,88 L519.807245,88 L519.807245,81.22 C519.807245,79.12 518.747245,78.1 516.727245,78.1 C515.287245,78.1 513.967245,78.94 513.287245,79.74 L513.287245,78.34 L511.787245,78.34 L511.787245,88 L513.287245,88 L513.287245,80.94 C513.847245,80.16 514.967245,79.44 516.147245,79.44 C517.447245,79.44 518.307245,79.98 518.307245,81.68 L518.307245,88 Z M522.787245,90.48 L523.547245,89.36 C524.347245,90.32 525.307245,90.68 526.687245,90.68 C528.287245,90.68 529.787245,89.9 529.787245,87.78 L529.787245,86.4 C529.087245,87.38 527.907245,88.12 526.547245,88.12 C524.027245,88.12 522.247245,86.24 522.247245,83.12 C522.247245,80.02 524.007245,78.1 526.547245,78.1 C527.847245,78.1 529.007245,78.74 529.787245,79.8 L529.787245,78.34 L531.287245,78.34 L531.287245,87.72 C531.287245,90.92 529.047245,91.92 526.687245,91.92 C525.047245,91.92 523.927245,91.6 522.787245,90.48 Z M529.787245,85.22 L529.787245,81 C529.267245,80.16 528.107245,79.44 526.907245,79.44 C524.967245,79.44 523.807245,80.98 523.807245,83.12 C523.807245,85.24 524.967245,86.8 526.907245,86.8 C528.107245,86.8 529.267245,86.06 529.787245,85.22 Z M541.887245,88.24 C542.767245,88.24 543.307245,87.98 543.687245,87.62 L543.247245,86.5 C543.047245,86.72 542.647245,86.9 542.227245,86.9 C541.567245,86.9 541.247245,86.38 541.247245,85.66 L541.247245,79.66 L543.207245,79.66 L543.207245,78.34 L541.247245,78.34 L541.247245,75.7 L539.747245,75.7 L539.747245,78.34 L538.147245,78.34 L538.147245,79.66 L539.747245,79.66 L539.747245,85.98 C539.747245,87.42 540.467245,88.24 541.887245,88.24 Z M551.867245,88 L553.367245,88 L553.367245,81.18 C553.367245,79.08 552.307245,78.1 550.287245,78.1 C548.827245,78.1 547.507245,78.94 546.827245,79.74 L546.827245,74.66 L545.327245,74.66 L545.327245,88 L546.827245,88 L546.827245,80.94 C547.407245,80.16 548.527245,79.44 549.687245,79.44 C550.987245,79.44 551.867245,79.94 551.867245,81.64 L551.867245,88 Z M555.807245,83.16 C555.807245,80.36 557.807245,78.1 560.567245,78.1 C563.487245,78.1 565.207245,80.38 565.207245,83.28 L565.207245,83.66 L557.387245,83.66 C557.507245,85.48 558.787245,87 560.867245,87 C561.967245,87 563.087245,86.56 563.847245,85.78 L564.567245,86.76 C563.607245,87.72 562.307245,88.24 560.727245,88.24 C557.867245,88.24 555.807245,86.18 555.807245,83.16 Z M560.547245,79.34 C558.487245,79.34 557.467245,81.08 557.387245,82.56 L563.727245,82.56 C563.707245,81.12 562.747245,79.34 560.547245,79.34 Z M256.297245,115.68 L254.797245,115.68 L254.797245,102.34 L256.297245,102.34 L256.297245,103.78 C256.997245,102.8 258.197245,102.1 259.557245,102.1 C262.097245,102.1 263.857245,104.02 263.857245,107.16 C263.857245,110.28 262.097245,112.24 259.557245,112.24 C258.237245,112.24 257.077245,111.62 256.297245,110.54 L256.297245,115.68 Z M262.277245,107.16 C262.277245,105.02 261.117245,103.44 259.177245,103.44 C257.997245,103.44 256.817245,104.14 256.297245,104.98 L256.297245,109.34 C256.817245,110.18 257.997245,110.9 259.177245,110.9 C261.117245,110.9 262.277245,109.3 262.277245,107.16 Z M272.317245,112 L272.317245,110.9 C271.517245,111.78 270.417245,112.24 269.117245,112.24 C267.477245,112.24 265.737245,111.14 265.737245,109.04 C265.737245,106.88 267.477245,105.86 269.117245,105.86 C270.437245,105.86 271.537245,106.28 272.317245,107.18 L272.317245,105.44 C272.317245,104.14 271.277245,103.4 269.877245,103.4 C268.717245,103.4 267.777245,103.82 266.917245,104.74 L266.217245,103.7 C267.257245,102.62 268.497245,102.1 270.077245,102.1 C272.117245,102.1 273.817245,103.02 273.817245,105.36 L273.817245,112 L272.317245,112 Z M272.317245,109.96 L272.317245,108.14 C271.737245,107.34 270.717245,106.94 269.657245,106.94 C268.257245,106.94 267.277245,107.82 267.277245,109.06 C267.277245,110.28 268.257245,111.16 269.657245,111.16 C270.717245,111.16 271.737245,110.76 272.317245,109.96 Z M275.977245,110.72 C276.957245,111.76 278.297245,112.24 279.877245,112.24 C282.377245,112.24 283.677245,110.94 283.677245,109.32 C283.677245,107.18 281.737245,106.7 280.057245,106.32 C278.797245,106.02 277.697245,105.72 277.697245,104.78 C277.697245,103.92 278.517245,103.32 279.837245,103.32 C281.077245,103.32 282.137245,103.84 282.717245,104.54 L283.417245,103.5 C282.637245,102.72 281.477245,102.1 279.837245,102.1 C277.537245,102.1 276.237245,103.38 276.237245,104.88 C276.237245,106.88 278.097245,107.32 279.737245,107.7 C281.037245,108.02 282.217245,108.36 282.217245,109.42 C282.217245,110.36 281.417245,111.02 279.937245,111.02 C278.617245,111.02 277.397245,110.38 276.757245,109.64 L275.977245,110.72 Z M285.277245,110.72 C286.257245,111.76 287.597245,112.24 289.177245,112.24 C291.677245,112.24 292.977245,110.94 292.977245,109.32 C292.977245,107.18 291.037245,106.7 289.357245,106.32 C288.097245,106.02 286.997245,105.72 286.997245,104.78 C286.997245,103.92 287.817245,103.32 289.137245,103.32 C290.377245,103.32 291.437245,103.84 292.017245,104.54 L292.717245,103.5 C291.937245,102.72 290.777245,102.1 289.137245,102.1 C286.837245,102.1 285.537245,103.38 285.537245,104.88 C285.537245,106.88 287.397245,107.32 289.037245,107.7 C290.337245,108.02 291.517245,108.36 291.517245,109.42 C291.517245,110.36 290.717245,111.02 289.237245,111.02 C287.917245,111.02 286.697245,110.38 286.057245,109.64 L285.277245,110.72 Z M296.157245,100.78 C296.717245,100.78 297.177245,100.34 297.177245,99.78 C297.177245,99.22 296.717245,98.76 296.157245,98.76 C295.617245,98.76 295.157245,99.22 295.157245,99.78 C295.157245,100.34 295.617245,100.78 296.157245,100.78 Z M295.417245,112 L296.917245,112 L296.917245,102.34 L295.417245,102.34 L295.417245,112 Z M304.137245,112.24 C301.197245,112.24 299.357245,109.96 299.357245,107.16 C299.357245,104.36 301.197245,102.1 304.137245,102.1 C307.077245,102.1 308.917245,104.36 308.917245,107.16 C308.917245,109.96 307.077245,112.24 304.137245,112.24 Z M304.137245,110.9 C306.197245,110.9 307.337245,109.14 307.337245,107.16 C307.337245,105.2 306.197245,103.44 304.137245,103.44 C302.077245,103.44 300.917245,105.2 300.917245,107.16 C300.917245,109.14 302.077245,110.9 304.137245,110.9 Z M317.877245,112 L319.377245,112 L319.377245,105.22 C319.377245,103.12 318.317245,102.1 316.297245,102.1 C314.857245,102.1 313.537245,102.94 312.857245,103.74 L312.857245,102.34 L311.357245,102.34 L311.357245,112 L312.857245,112 L312.857245,104.94 C313.417245,104.16 314.537245,103.44 315.717245,103.44 C317.017245,103.44 317.877245,103.98 317.877245,105.68 L317.877245,112 Z M331.757245,112.24 C328.817245,112.24 326.977245,109.96 326.977245,107.16 C326.977245,104.36 328.817245,102.1 331.757245,102.1 C334.697245,102.1 336.537245,104.36 336.537245,107.16 C336.537245,109.96 334.697245,112.24 331.757245,112.24 Z M331.757245,110.9 C333.817245,110.9 334.957245,109.14 334.957245,107.16 C334.957245,105.2 333.817245,103.44 331.757245,103.44 C329.697245,103.44 328.537245,105.2 328.537245,107.16 C328.537245,109.14 329.697245,110.9 331.757245,110.9 Z M339.397245,112 L340.897245,112 L340.897245,103.66 L342.857245,103.66 L342.857245,102.34 L340.897245,102.34 L340.897245,101.6 C340.897245,100.38 341.437245,99.7 342.417245,99.7 C342.757245,99.7 343.037245,99.78 343.277245,99.92 L343.657245,98.8 C343.277245,98.56 342.757245,98.46 342.197245,98.46 C340.517245,98.46 339.397245,99.6 339.397245,101.6 L339.397245,102.34 L337.797245,102.34 L337.797245,103.66 L339.397245,103.66 L339.397245,112 Z M352.237245,112.24 C353.117245,112.24 353.657245,111.98 354.037245,111.62 L353.597245,110.5 C353.397245,110.72 352.997245,110.9 352.577245,110.9 C351.917245,110.9 351.597245,110.38 351.597245,109.66 L351.597245,103.66 L353.557245,103.66 L353.557245,102.34 L351.597245,102.34 L351.597245,99.7 L350.097245,99.7 L350.097245,102.34 L348.497245,102.34 L348.497245,103.66 L350.097245,103.66 L350.097245,109.98 C350.097245,111.42 350.817245,112.24 352.237245,112.24 Z M362.217245,112 L363.717245,112 L363.717245,105.18 C363.717245,103.08 362.657245,102.1 360.637245,102.1 C359.177245,102.1 357.857245,102.94 357.177245,103.74 L357.177245,98.66 L355.677245,98.66 L355.677245,112 L357.177245,112 L357.177245,104.94 C357.757245,104.16 358.877245,103.44 360.037245,103.44 C361.337245,103.44 362.217245,103.94 362.217245,105.64 L362.217245,112 Z M366.157245,107.16 C366.157245,104.36 368.157245,102.1 370.917245,102.1 C373.837245,102.1 375.557245,104.38 375.557245,107.28 L375.557245,107.66 L367.737245,107.66 C367.857245,109.48 369.137245,111 371.217245,111 C372.317245,111 373.437245,110.56 374.197245,109.78 L374.917245,110.76 C373.957245,111.72 372.657245,112.24 371.077245,112.24 C368.217245,112.24 366.157245,110.18 366.157245,107.16 Z M370.897245,103.34 C368.837245,103.34 367.817245,105.08 367.737245,106.56 L374.077245,106.56 C374.057245,105.12 373.097245,103.34 370.897245,103.34 Z M385.577245,112.24 C386.457245,112.24 386.997245,111.98 387.377245,111.62 L386.937245,110.5 C386.737245,110.72 386.337245,110.9 385.917245,110.9 C385.257245,110.9 384.937245,110.38 384.937245,109.66 L384.937245,103.66 L386.897245,103.66 L386.897245,102.34 L384.937245,102.34 L384.937245,99.7 L383.437245,99.7 L383.437245,102.34 L381.837245,102.34 L381.837245,103.66 L383.437245,103.66 L383.437245,109.98 C383.437245,111.42 384.157245,112.24 385.577245,112.24 Z M388.457245,107.16 C388.457245,104.36 390.457245,102.1 393.217245,102.1 C396.137245,102.1 397.857245,104.38 397.857245,107.28 L397.857245,107.66 L390.037245,107.66 C390.157245,109.48 391.437245,111 393.517245,111 C394.617245,111 395.737245,110.56 396.497245,109.78 L397.217245,110.76 C396.257245,111.72 394.957245,112.24 393.377245,112.24 C390.517245,112.24 388.457245,110.18 388.457245,107.16 Z M393.197245,103.34 C391.137245,103.34 390.117245,105.08 390.037245,106.56 L396.377245,106.56 C396.357245,105.12 395.397245,103.34 393.197245,103.34 Z M406.317245,112 L406.317245,110.9 C405.517245,111.78 404.417245,112.24 403.117245,112.24 C401.477245,112.24 399.737245,111.14 399.737245,109.04 C399.737245,106.88 401.477245,105.86 403.117245,105.86 C404.437245,105.86 405.537245,106.28 406.317245,107.18 L406.317245,105.44 C406.317245,104.14 405.277245,103.4 403.877245,103.4 C402.717245,103.4 401.777245,103.82 400.917245,104.74 L400.217245,103.7 C401.257245,102.62 402.497245,102.1 404.077245,102.1 C406.117245,102.1 407.817245,103.02 407.817245,105.36 L407.817245,112 L406.317245,112 Z M406.317245,109.96 L406.317245,108.14 C405.737245,107.34 404.717245,106.94 403.657245,106.94 C402.257245,106.94 401.277245,107.82 401.277245,109.06 C401.277245,110.28 402.257245,111.16 403.657245,111.16 C404.717245,111.16 405.737245,110.76 406.317245,109.96 Z M422.477245,112 L423.977245,112 L423.977245,105.02 C423.977245,103.08 423.037245,102.1 421.277245,102.1 C419.877245,102.1 418.577245,103.02 418.037245,103.9 C417.757245,102.9 416.917245,102.1 415.437245,102.1 C414.017245,102.1 412.717245,103.12 412.317245,103.74 L412.317245,102.34 L410.817245,102.34 L410.817245,112 L412.317245,112 L412.317245,104.94 C412.837245,104.16 413.877245,103.44 414.857245,103.44 C416.117245,103.44 416.637245,104.22 416.637245,105.44 L416.637245,112 L418.137245,112 L418.137245,104.92 C418.637245,104.16 419.697245,103.44 420.697245,103.44 C421.937245,103.44 422.477245,104.22 422.477245,105.44 L422.477245,112 Z M426.137245,110.72 C427.117245,111.76 428.457245,112.24 430.037245,112.24 C432.537245,112.24 433.837245,110.94 433.837245,109.32 C433.837245,107.18 431.897245,106.7 430.217245,106.32 C428.957245,106.02 427.857245,105.72 427.857245,104.78 C427.857245,103.92 428.677245,103.32 429.997245,103.32 C431.237245,103.32 432.297245,103.84 432.877245,104.54 L433.577245,103.5 C432.797245,102.72 431.637245,102.1 429.997245,102.1 C427.697245,102.1 426.397245,103.38 426.397245,104.88 C426.397245,106.88 428.257245,107.32 429.897245,107.7 C431.197245,108.02 432.377245,108.36 432.377245,109.42 C432.377245,110.36 431.577245,111.02 430.097245,111.02 C428.777245,111.02 427.557245,110.38 426.917245,109.64 L426.137245,110.72 Z M447.477245,112 L447.477245,110.9 C446.677245,111.78 445.577245,112.24 444.277245,112.24 C442.637245,112.24 440.897245,111.14 440.897245,109.04 C440.897245,106.88 442.637245,105.86 444.277245,105.86 C445.597245,105.86 446.697245,106.28 447.477245,107.18 L447.477245,105.44 C447.477245,104.14 446.437245,103.4 445.037245,103.4 C443.877245,103.4 442.937245,103.82 442.077245,104.74 L441.377245,103.7 C442.417245,102.62 443.657245,102.1 445.237245,102.1 C447.277245,102.1 448.977245,103.02 448.977245,105.36 L448.977245,112 L447.477245,112 Z M447.477245,109.96 L447.477245,108.14 C446.897245,107.34 445.877245,106.94 444.817245,106.94 C443.417245,106.94 442.437245,107.82 442.437245,109.06 C442.437245,110.28 443.417245,111.16 444.817245,111.16 C445.877245,111.16 446.897245,110.76 447.477245,109.96 Z M451.137245,110.72 C452.117245,111.76 453.457245,112.24 455.037245,112.24 C457.537245,112.24 458.837245,110.94 458.837245,109.32 C458.837245,107.18 456.897245,106.7 455.217245,106.32 C453.957245,106.02 452.857245,105.72 452.857245,104.78 C452.857245,103.92 453.677245,103.32 454.997245,103.32 C456.237245,103.32 457.297245,103.84 457.877245,104.54 L458.577245,103.5 C457.797245,102.72 456.637245,102.1 454.997245,102.1 C452.697245,102.1 451.397245,103.38 451.397245,104.88 C451.397245,106.88 453.257245,107.32 454.897245,107.7 C456.197245,108.02 457.377245,108.36 457.377245,109.42 C457.377245,110.36 456.577245,111.02 455.097245,111.02 C453.777245,111.02 452.557245,110.38 451.917245,109.64 L451.137245,110.72 Z M468.877245,112.24 C469.757245,112.24 470.297245,111.98 470.677245,111.62 L470.237245,110.5 C470.037245,110.72 469.637245,110.9 469.217245,110.9 C468.557245,110.9 468.237245,110.38 468.237245,109.66 L468.237245,103.66 L470.197245,103.66 L470.197245,102.34 L468.237245,102.34 L468.237245,99.7 L466.737245,99.7 L466.737245,102.34 L465.137245,102.34 L465.137245,103.66 L466.737245,103.66 L466.737245,109.98 C466.737245,111.42 467.457245,112.24 468.877245,112.24 Z M478.857245,112 L480.357245,112 L480.357245,105.18 C480.357245,103.08 479.297245,102.1 477.277245,102.1 C475.817245,102.1 474.497245,102.94 473.817245,103.74 L473.817245,98.66 L472.317245,98.66 L472.317245,112 L473.817245,112 L473.817245,104.94 C474.397245,104.16 475.517245,103.44 476.677245,103.44 C477.977245,103.44 478.857245,103.94 478.857245,105.64 L478.857245,112 Z M482.797245,107.16 C482.797245,104.36 484.797245,102.1 487.557245,102.1 C490.477245,102.1 492.197245,104.38 492.197245,107.28 L492.197245,107.66 L484.377245,107.66 C484.497245,109.48 485.777245,111 487.857245,111 C488.957245,111 490.077245,110.56 490.837245,109.78 L491.557245,110.76 C490.597245,111.72 489.297245,112.24 487.717245,112.24 C484.857245,112.24 482.797245,110.18 482.797245,107.16 Z M487.537245,103.34 C485.477245,103.34 484.457245,105.08 484.377245,106.56 L490.717245,106.56 C490.697245,105.12 489.737245,103.34 487.537245,103.34 Z M494.317245,114.42 L494.077245,115.78 C494.357245,115.86 494.857245,115.92 495.177245,115.92 C496.457245,115.9 497.437245,115.36 498.017245,113.96 L502.857245,102.34 L501.217245,102.34 L498.017245,110.26 L494.797245,102.34 L493.177245,102.34 L497.217245,112.1 L496.577245,113.56 C496.237245,114.36 495.797245,114.58 495.137245,114.58 C494.897245,114.58 494.537245,114.52 494.317245,114.42 Z M510.317245,100.78 C510.877245,100.78 511.337245,100.34 511.337245,99.78 C511.337245,99.22 510.877245,98.76 510.317245,98.76 C509.777245,98.76 509.317245,99.22 509.317245,99.78 C509.317245,100.34 509.777245,100.78 510.317245,100.78 Z M509.577245,112 L511.077245,112 L511.077245,102.34 L509.577245,102.34 L509.577245,112 Z M520.597245,112 L522.097245,112 L522.097245,105.22 C522.097245,103.12 521.037245,102.1 519.017245,102.1 C517.577245,102.1 516.257245,102.94 515.577245,103.74 L515.577245,102.34 L514.077245,102.34 L514.077245,112 L515.577245,112 L515.577245,104.94 C516.137245,104.16 517.257245,103.44 518.437245,103.44 C519.737245,103.44 520.597245,103.98 520.597245,105.68 L520.597245,112 Z M531.617245,112 L533.117245,112 L533.117245,105.22 C533.117245,103.12 532.057245,102.1 530.037245,102.1 C528.597245,102.1 527.277245,102.94 526.597245,103.74 L526.597245,102.34 L525.097245,102.34 L525.097245,112 L526.597245,112 L526.597245,104.94 C527.157245,104.16 528.277245,103.44 529.457245,103.44 C530.757245,103.44 531.617245,103.98 531.617245,105.68 L531.617245,112 Z M540.337245,112.24 C537.397245,112.24 535.557245,109.96 535.557245,107.16 C535.557245,104.36 537.397245,102.1 540.337245,102.1 C543.277245,102.1 545.117245,104.36 545.117245,107.16 C545.117245,109.96 543.277245,112.24 540.337245,112.24 Z M540.337245,110.9 C542.397245,110.9 543.537245,109.14 543.537245,107.16 C543.537245,105.2 542.397245,103.44 540.337245,103.44 C538.277245,103.44 537.117245,105.2 537.117245,107.16 C537.117245,109.14 538.277245,110.9 540.337245,110.9 Z M550.137245,112 L551.777245,112 L555.797245,102.34 L554.157245,102.34 L550.957245,110.26 L547.737245,102.34 L546.117245,102.34 L550.137245,112 Z M563.397245,112 L563.397245,110.9 C562.597245,111.78 561.497245,112.24 560.197245,112.24 C558.557245,112.24 556.817245,111.14 556.817245,109.04 C556.817245,106.88 558.557245,105.86 560.197245,105.86 C561.517245,105.86 562.617245,106.28 563.397245,107.18 L563.397245,105.44 C563.397245,104.14 562.357245,103.4 560.957245,103.4 C559.797245,103.4 558.857245,103.82 557.997245,104.74 L557.297245,103.7 C558.337245,102.62 559.577245,102.1 561.157245,102.1 C563.197245,102.1 564.897245,103.02 564.897245,105.36 L564.897245,112 L563.397245,112 Z M563.397245,109.96 L563.397245,108.14 C562.817245,107.34 561.797245,106.94 560.737245,106.94 C559.337245,106.94 558.357245,107.82 558.357245,109.06 C558.357245,110.28 559.337245,111.16 560.737245,111.16 C561.797245,111.16 562.817245,110.76 563.397245,109.96 Z M570.337245,112.24 C571.217245,112.24 571.757245,111.98 572.137245,111.62 L571.697245,110.5 C571.497245,110.72 571.097245,110.9 570.677245,110.9 C570.017245,110.9 569.697245,110.38 569.697245,109.66 L569.697245,103.66 L571.657245,103.66 L571.657245,102.34 L569.697245,102.34 L569.697245,99.7 L568.197245,99.7 L568.197245,102.34 L566.597245,102.34 L566.597245,103.66 L568.197245,103.66 L568.197245,109.98 C568.197245,111.42 568.917245,112.24 570.337245,112.24 Z M573.217245,107.16 C573.217245,104.36 575.217245,102.1 577.977245,102.1 C580.897245,102.1 582.617245,104.38 582.617245,107.28 L582.617245,107.66 L574.797245,107.66 C574.917245,109.48 576.197245,111 578.277245,111 C579.377245,111 580.497245,110.56 581.257245,109.78 L581.977245,110.76 C581.017245,111.72 579.717245,112.24 578.137245,112.24 C575.277245,112.24 573.217245,110.18 573.217245,107.16 Z M577.957245,103.34 C575.897245,103.34 574.877245,105.08 574.797245,106.56 L581.137245,106.56 C581.117245,105.12 580.157245,103.34 577.957245,103.34 Z M585.417245,114.54 C586.337245,113.88 587.057245,112.74 587.057245,111.52 C587.057245,110.56 586.457245,110 585.797245,110 C585.197245,110 584.737245,110.5 584.737245,111.08 C584.737245,111.68 585.137245,112.1 585.697245,112.1 C585.797245,112.1 585.937245,112.08 585.977245,112.06 C585.897245,112.72 585.317245,113.5 584.677245,113.92 L585.417245,114.54 Z M259.397245,136 L259.397245,122.66 L260.897245,122.66 L260.897245,127.8 C261.677245,126.74 262.837245,126.1 264.157245,126.1 C266.677245,126.1 268.457245,128.1 268.457245,131.18 C268.457245,134.32 266.677245,136.24 264.157245,136.24 C262.797245,136.24 261.617245,135.54 260.897245,134.56 L260.897245,136 L259.397245,136 Z M260.897245,133.38 C261.417245,134.22 262.597245,134.9 263.777245,134.9 C265.737245,134.9 266.897245,133.32 266.897245,131.18 C266.897245,129.04 265.737245,127.44 263.777245,127.44 C262.597245,127.44 261.417245,128.16 260.897245,129 L260.897245,133.38 Z M277.417245,136 L278.917245,136 L278.917245,126.34 L277.417245,126.34 L277.417245,133.44 C276.857245,134.22 275.737245,134.9 274.557245,134.9 C273.257245,134.9 272.397245,134.4 272.397245,132.7 L272.397245,126.34 L270.897245,126.34 L270.897245,133.16 C270.897245,135.26 271.957245,136.24 273.977245,136.24 C275.417245,136.24 276.677245,135.48 277.417245,134.64 L277.417245,136 Z M282.657245,124.78 C283.217245,124.78 283.677245,124.34 283.677245,123.78 C283.677245,123.22 283.217245,122.76 282.657245,122.76 C282.117245,122.76 281.657245,123.22 281.657245,123.78 C281.657245,124.34 282.117245,124.78 282.657245,124.78 Z M281.917245,136 L283.417245,136 L283.417245,126.34 L281.917245,126.34 L281.917245,136 Z M286.417245,136 L287.917245,136 L287.917245,122.66 L286.417245,122.66 L286.417245,136 Z M297.917245,136 L297.917245,134.56 C297.197245,135.54 296.017245,136.24 294.657245,136.24 C292.137245,136.24 290.357245,134.32 290.357245,131.18 C290.357245,128.1 292.117245,126.1 294.657245,126.1 C295.957245,126.1 297.137245,126.74 297.917245,127.8 L297.917245,122.66 L299.417245,122.66 L299.417245,136 L297.917245,136 Z M297.917245,133.38 L297.917245,129 C297.377245,128.16 296.217245,127.44 295.017245,127.44 C293.077245,127.44 291.917245,129.04 291.917245,131.18 C291.917245,133.32 293.077245,134.9 295.017245,134.9 C296.217245,134.9 297.377245,134.22 297.917245,133.38 Z M302.797245,138.54 C303.717245,137.88 304.437245,136.74 304.437245,135.52 C304.437245,134.56 303.837245,134 303.177245,134 C302.577245,134 302.117245,134.5 302.117245,135.08 C302.117245,135.68 302.517245,136.1 303.077245,136.1 C303.177245,136.1 303.317245,136.08 303.357245,136.06 C303.277245,136.72 302.697245,137.5 302.057245,137.92 L302.797245,138.54 Z M318.217245,136 L318.217245,134.9 C317.417245,135.78 316.317245,136.24 315.017245,136.24 C313.377245,136.24 311.637245,135.14 311.637245,133.04 C311.637245,130.88 313.377245,129.86 315.017245,129.86 C316.337245,129.86 317.437245,130.28 318.217245,131.18 L318.217245,129.44 C318.217245,128.14 317.177245,127.4 315.777245,127.4 C314.617245,127.4 313.677245,127.82 312.817245,128.74 L312.117245,127.7 C313.157245,126.62 314.397245,126.1 315.977245,126.1 C318.017245,126.1 319.717245,127.02 319.717245,129.36 L319.717245,136 L318.217245,136 Z M318.217245,133.96 L318.217245,132.14 C317.637245,131.34 316.617245,130.94 315.557245,130.94 C314.157245,130.94 313.177245,131.82 313.177245,133.06 C313.177245,134.28 314.157245,135.16 315.557245,135.16 C316.617245,135.16 317.637245,134.76 318.217245,133.96 Z M329.237245,136 L330.737245,136 L330.737245,129.22 C330.737245,127.12 329.677245,126.1 327.657245,126.1 C326.217245,126.1 324.897245,126.94 324.217245,127.74 L324.217245,126.34 L322.717245,126.34 L322.717245,136 L324.217245,136 L324.217245,128.94 C324.777245,128.16 325.897245,127.44 327.077245,127.44 C328.377245,127.44 329.237245,127.98 329.237245,129.68 L329.237245,136 Z M340.737245,136 L340.737245,134.56 C340.017245,135.54 338.837245,136.24 337.477245,136.24 C334.957245,136.24 333.177245,134.32 333.177245,131.18 C333.177245,128.1 334.937245,126.1 337.477245,126.1 C338.777245,126.1 339.957245,126.74 340.737245,127.8 L340.737245,122.66 L342.237245,122.66 L342.237245,136 L340.737245,136 Z M340.737245,133.38 L340.737245,129 C340.197245,128.16 339.037245,127.44 337.837245,127.44 C335.897245,127.44 334.737245,129.04 334.737245,131.18 C334.737245,133.32 335.897245,134.9 337.837245,134.9 C339.037245,134.9 340.197245,134.22 340.737245,133.38 Z M350.397245,136 L351.897245,136 L351.897245,129.16 C352.337245,128.38 353.597245,127.62 354.517245,127.62 C354.757245,127.62 354.937245,127.64 355.117245,127.68 L355.117245,126.14 C353.797245,126.14 352.677245,126.88 351.897245,127.9 L351.897245,126.34 L350.397245,126.34 L350.397245,136 Z M356.437245,131.16 C356.437245,128.36 358.437245,126.1 361.197245,126.1 C364.117245,126.1 365.837245,128.38 365.837245,131.28 L365.837245,131.66 L358.017245,131.66 C358.137245,133.48 359.417245,135 361.497245,135 C362.597245,135 363.717245,134.56 364.477245,133.78 L365.197245,134.76 C364.237245,135.72 362.937245,136.24 361.357245,136.24 C358.497245,136.24 356.437245,134.18 356.437245,131.16 Z M361.177245,127.34 C359.117245,127.34 358.097245,129.08 358.017245,130.56 L364.357245,130.56 C364.337245,129.12 363.377245,127.34 361.177245,127.34 Z M368.257245,136 L369.757245,136 L369.757245,122.66 L368.257245,122.66 L368.257245,136 Z M372.197245,131.16 C372.197245,128.36 374.197245,126.1 376.957245,126.1 C379.877245,126.1 381.597245,128.38 381.597245,131.28 L381.597245,131.66 L373.777245,131.66 C373.897245,133.48 375.177245,135 377.257245,135 C378.357245,135 379.477245,134.56 380.237245,133.78 L380.957245,134.76 C379.997245,135.72 378.697245,136.24 377.117245,136.24 C374.257245,136.24 372.197245,134.18 372.197245,131.16 Z M376.937245,127.34 C374.877245,127.34 373.857245,129.08 373.777245,130.56 L380.117245,130.56 C380.097245,129.12 379.137245,127.34 376.937245,127.34 Z M390.057245,136 L390.057245,134.9 C389.257245,135.78 388.157245,136.24 386.857245,136.24 C385.217245,136.24 383.477245,135.14 383.477245,133.04 C383.477245,130.88 385.217245,129.86 386.857245,129.86 C388.177245,129.86 389.277245,130.28 390.057245,131.18 L390.057245,129.44 C390.057245,128.14 389.017245,127.4 387.617245,127.4 C386.457245,127.4 385.517245,127.82 384.657245,128.74 L383.957245,127.7 C384.997245,126.62 386.237245,126.1 387.817245,126.1 C389.857245,126.1 391.557245,127.02 391.557245,129.36 L391.557245,136 L390.057245,136 Z M390.057245,133.96 L390.057245,132.14 C389.477245,131.34 388.457245,130.94 387.397245,130.94 C385.997245,130.94 385.017245,131.82 385.017245,133.06 C385.017245,134.28 385.997245,135.16 387.397245,135.16 C388.457245,135.16 389.477245,134.76 390.057245,133.96 Z M393.717245,134.72 C394.697245,135.76 396.037245,136.24 397.617245,136.24 C400.117245,136.24 401.417245,134.94 401.417245,133.32 C401.417245,131.18 399.477245,130.7 397.797245,130.32 C396.537245,130.02 395.437245,129.72 395.437245,128.78 C395.437245,127.92 396.257245,127.32 397.577245,127.32 C398.817245,127.32 399.877245,127.84 400.457245,128.54 L401.157245,127.5 C400.377245,126.72 399.217245,126.1 397.577245,126.1 C395.277245,126.1 393.977245,127.38 393.977245,128.88 C393.977245,130.88 395.837245,131.32 397.477245,131.7 C398.777245,132.02 399.957245,132.36 399.957245,133.42 C399.957245,134.36 399.157245,135.02 397.677245,135.02 C396.357245,135.02 395.137245,134.38 394.497245,133.64 L393.717245,134.72 Z M403.297245,131.16 C403.297245,128.36 405.297245,126.1 408.057245,126.1 C410.977245,126.1 412.697245,128.38 412.697245,131.28 L412.697245,131.66 L404.877245,131.66 C404.997245,133.48 406.277245,135 408.357245,135 C409.457245,135 410.577245,134.56 411.337245,133.78 L412.057245,134.76 C411.097245,135.72 409.797245,136.24 408.217245,136.24 C405.357245,136.24 403.297245,134.18 403.297245,131.16 Z M408.037245,127.34 C405.977245,127.34 404.957245,129.08 404.877245,130.56 L411.217245,130.56 C411.197245,129.12 410.237245,127.34 408.037245,127.34 Z M426.797245,136 L428.297245,136 L428.297245,129.22 C428.297245,127.12 427.237245,126.1 425.217245,126.1 C423.777245,126.1 422.457245,126.94 421.777245,127.74 L421.777245,126.34 L420.277245,126.34 L420.277245,136 L421.777245,136 L421.777245,128.94 C422.337245,128.16 423.457245,127.44 424.637245,127.44 C425.937245,127.44 426.797245,127.98 426.797245,129.68 L426.797245,136 Z M430.737245,131.16 C430.737245,128.36 432.737245,126.1 435.497245,126.1 C438.417245,126.1 440.137245,128.38 440.137245,131.28 L440.137245,131.66 L432.317245,131.66 C432.437245,133.48 433.717245,135 435.797245,135 C436.897245,135 438.017245,134.56 438.777245,133.78 L439.497245,134.76 C438.537245,135.72 437.237245,136.24 435.657245,136.24 C432.797245,136.24 430.737245,134.18 430.737245,131.16 Z M435.477245,127.34 C433.417245,127.34 432.397245,129.08 432.317245,130.56 L438.657245,130.56 C438.637245,129.12 437.677245,127.34 435.477245,127.34 Z M450.917245,136 L452.417245,136 L455.497245,126.34 L453.937245,126.34 L451.577245,134.04 L449.037245,126.34 L447.757245,126.34 L445.217245,134.04 L442.857245,126.34 L441.297245,126.34 L444.377245,136 L445.877245,136 L448.397245,128.24 L450.917245,136 Z M463.137245,124.78 C463.697245,124.78 464.157245,124.34 464.157245,123.78 C464.157245,123.22 463.697245,122.76 463.137245,122.76 C462.597245,122.76 462.137245,123.22 462.137245,123.78 C462.137245,124.34 462.597245,124.78 463.137245,124.78 Z M462.397245,136 L463.897245,136 L463.897245,126.34 L462.397245,126.34 L462.397245,136 Z M473.897245,136 L473.897245,134.56 C473.177245,135.54 471.997245,136.24 470.637245,136.24 C468.117245,136.24 466.337245,134.32 466.337245,131.18 C466.337245,128.1 468.097245,126.1 470.637245,126.1 C471.937245,126.1 473.117245,126.74 473.897245,127.8 L473.897245,122.66 L475.397245,122.66 L475.397245,136 L473.897245,136 Z M473.897245,133.38 L473.897245,129 C473.357245,128.16 472.197245,127.44 470.997245,127.44 C469.057245,127.44 467.897245,129.04 467.897245,131.18 C467.897245,133.32 469.057245,134.9 470.997245,134.9 C472.197245,134.9 473.357245,134.22 473.897245,133.38 Z M477.837245,131.16 C477.837245,128.36 479.837245,126.1 482.597245,126.1 C485.517245,126.1 487.237245,128.38 487.237245,131.28 L487.237245,131.66 L479.417245,131.66 C479.537245,133.48 480.817245,135 482.897245,135 C483.997245,135 485.117245,134.56 485.877245,133.78 L486.597245,134.76 C485.637245,135.72 484.337245,136.24 482.757245,136.24 C479.897245,136.24 477.837245,134.18 477.837245,131.16 Z M482.577245,127.34 C480.517245,127.34 479.497245,129.08 479.417245,130.56 L485.757245,130.56 C485.737245,129.12 484.777245,127.34 482.577245,127.34 Z M495.697245,136 L495.697245,134.9 C494.897245,135.78 493.797245,136.24 492.497245,136.24 C490.857245,136.24 489.117245,135.14 489.117245,133.04 C489.117245,130.88 490.857245,129.86 492.497245,129.86 C493.817245,129.86 494.917245,130.28 495.697245,131.18 L495.697245,129.44 C495.697245,128.14 494.657245,127.4 493.257245,127.4 C492.097245,127.4 491.157245,127.82 490.297245,128.74 L489.597245,127.7 C490.637245,126.62 491.877245,126.1 493.457245,126.1 C495.497245,126.1 497.197245,127.02 497.197245,129.36 L497.197245,136 L495.697245,136 Z M495.697245,133.96 L495.697245,132.14 C495.117245,131.34 494.097245,130.94 493.037245,130.94 C491.637245,130.94 490.657245,131.82 490.657245,133.06 C490.657245,134.28 491.637245,135.16 493.037245,135.16 C494.097245,135.16 495.117245,134.76 495.697245,133.96 Z M499.357245,134.72 C500.337245,135.76 501.677245,136.24 503.257245,136.24 C505.757245,136.24 507.057245,134.94 507.057245,133.32 C507.057245,131.18 505.117245,130.7 503.437245,130.32 C502.177245,130.02 501.077245,129.72 501.077245,128.78 C501.077245,127.92 501.897245,127.32 503.217245,127.32 C504.457245,127.32 505.517245,127.84 506.097245,128.54 L506.797245,127.5 C506.017245,126.72 504.857245,126.1 503.217245,126.1 C500.917245,126.1 499.617245,127.38 499.617245,128.88 C499.617245,130.88 501.477245,131.32 503.117245,131.7 C504.417245,132.02 505.597245,132.36 505.597245,133.42 C505.597245,134.36 504.797245,135.02 503.317245,135.02 C501.997245,135.02 500.777245,134.38 500.137245,133.64 L499.357245,134.72 Z M514.657245,136 L516.157245,136 L516.157245,129.16 C516.597245,128.38 517.857245,127.62 518.777245,127.62 C519.017245,127.62 519.197245,127.64 519.377245,127.68 L519.377245,126.14 C518.057245,126.14 516.937245,126.88 516.157245,127.9 L516.157245,126.34 L514.657245,126.34 L514.657245,136 Z M527.297245,136 L527.297245,134.9 C526.497245,135.78 525.397245,136.24 524.097245,136.24 C522.457245,136.24 520.717245,135.14 520.717245,133.04 C520.717245,130.88 522.457245,129.86 524.097245,129.86 C525.417245,129.86 526.517245,130.28 527.297245,131.18 L527.297245,129.44 C527.297245,128.14 526.257245,127.4 524.857245,127.4 C523.697245,127.4 522.757245,127.82 521.897245,128.74 L521.197245,127.7 C522.237245,126.62 523.477245,126.1 525.057245,126.1 C527.097245,126.1 528.797245,127.02 528.797245,129.36 L528.797245,136 L527.297245,136 Z M527.297245,133.96 L527.297245,132.14 C526.717245,131.34 525.697245,130.94 524.637245,130.94 C523.237245,130.94 522.257245,131.82 522.257245,133.06 C522.257245,134.28 523.237245,135.16 524.637245,135.16 C525.697245,135.16 526.717245,134.76 527.297245,133.96 Z M533.297245,139.68 L531.797245,139.68 L531.797245,126.34 L533.297245,126.34 L533.297245,127.78 C533.997245,126.8 535.197245,126.1 536.557245,126.1 C539.097245,126.1 540.857245,128.02 540.857245,131.16 C540.857245,134.28 539.097245,136.24 536.557245,136.24 C535.237245,136.24 534.077245,135.62 533.297245,134.54 L533.297245,139.68 Z M539.277245,131.16 C539.277245,129.02 538.117245,127.44 536.177245,127.44 C534.997245,127.44 533.817245,128.14 533.297245,128.98 L533.297245,133.34 C533.817245,134.18 534.997245,134.9 536.177245,134.9 C538.117245,134.9 539.277245,133.3 539.277245,131.16 Z M544.017245,124.78 C544.577245,124.78 545.037245,124.34 545.037245,123.78 C545.037245,123.22 544.577245,122.76 544.017245,122.76 C543.477245,122.76 543.017245,123.22 543.017245,123.78 C543.017245,124.34 543.477245,124.78 544.017245,124.78 Z M543.277245,136 L544.777245,136 L544.777245,126.34 L543.277245,126.34 L543.277245,136 Z M554.777245,136 L554.777245,134.56 C554.057245,135.54 552.877245,136.24 551.517245,136.24 C548.997245,136.24 547.217245,134.32 547.217245,131.18 C547.217245,128.1 548.977245,126.1 551.517245,126.1 C552.817245,126.1 553.997245,126.74 554.777245,127.8 L554.777245,122.66 L556.277245,122.66 L556.277245,136 L554.777245,136 Z M554.777245,133.38 L554.777245,129 C554.237245,128.16 553.077245,127.44 551.877245,127.44 C549.937245,127.44 548.777245,129.04 548.777245,131.18 C548.777245,133.32 549.937245,134.9 551.877245,134.9 C553.077245,134.9 554.237245,134.22 554.777245,133.38 Z M559.277245,136 L560.777245,136 L560.777245,122.66 L559.277245,122.66 L559.277245,136 Z M563.477245,138.42 L563.237245,139.78 C563.517245,139.86 564.017245,139.92 564.337245,139.92 C565.617245,139.9 566.597245,139.36 567.177245,137.96 L572.017245,126.34 L570.377245,126.34 L567.177245,134.26 L563.957245,126.34 L562.337245,126.34 L566.377245,136.1 L565.737245,137.56 C565.397245,138.36 564.957245,138.58 564.297245,138.58 C564.057245,138.58 563.697245,138.52 563.477245,138.42 Z M573.277245,135.1 C573.277245,135.7 573.777245,136.2 574.377245,136.2 C574.977245,136.2 575.477245,135.7 575.477245,135.1 C575.477245,134.5 574.977245,134 574.377245,134 C573.777245,134 573.277245,134.5 573.277245,135.1 Z M578.297245,127.76 L579.037245,127.76 C579.037245,127.76 579.577245,123.66 579.577245,123.38 C579.577245,122.88 579.177245,122.46 578.657245,122.46 C578.157245,122.46 577.757245,122.88 577.757245,123.38 C577.757245,123.66 578.297245,127.76 578.297245,127.76 Z M581.197245,127.76 L581.937245,127.76 C581.937245,127.76 582.477245,123.66 582.477245,123.38 C582.477245,122.88 582.077245,122.46 581.577245,122.46 C581.057245,122.46 580.657245,122.88 580.657245,123.38 C580.657245,123.66 581.197245,127.76 581.197245,127.76 Z" id="&quot;The-quality-of-the" fill="#FFFFFF"></path>
                    <path d="M395.869745,180 L397.414745,180 L392.884745,174.75 L397.054745,169.995 L395.494745,169.995 L391.069745,175.17 L391.069745,169.995 L389.824745,169.995 L389.824745,180 L391.069745,180 L391.069745,176.64 L392.074745,175.5 L395.869745,180 Z M403.684745,180 L404.809745,180 L404.809745,172.755 L403.684745,172.755 L403.684745,178.08 C403.264745,178.665 402.424745,179.175 401.539745,179.175 C400.564745,179.175 399.919745,178.8 399.919745,177.525 L399.919745,172.755 L398.794745,172.755 L398.794745,177.87 C398.794745,179.445 399.589745,180.18 401.104745,180.18 C402.184745,180.18 403.129745,179.61 403.684745,178.98 L403.684745,180 Z M407.059745,180 L408.184745,180 L408.184745,174.87 C408.514745,174.285 409.459745,173.715 410.149745,173.715 C410.329745,173.715 410.464745,173.73 410.599745,173.76 L410.599745,172.605 C409.609745,172.605 408.769745,173.16 408.184745,173.925 L408.184745,172.755 L407.059745,172.755 L407.059745,180 Z M413.839745,180.18 C414.499745,180.18 414.904745,179.985 415.189745,179.715 L414.859745,178.875 C414.709745,179.04 414.409745,179.175 414.094745,179.175 C413.599745,179.175 413.359745,178.785 413.359745,178.245 L413.359745,173.745 L414.829745,173.745 L414.829745,172.755 L413.359745,172.755 L413.359745,170.775 L412.234745,170.775 L412.234745,172.755 L411.034745,172.755 L411.034745,173.745 L412.234745,173.745 L412.234745,178.485 C412.234745,179.565 412.774745,180.18 413.839745,180.18 Z M416.704745,181.905 C417.394745,181.41 417.934745,180.555 417.934745,179.64 C417.934745,178.92 417.484745,178.5 416.989745,178.5 C416.539745,178.5 416.194745,178.875 416.194745,179.31 C416.194745,179.76 416.494745,180.075 416.914745,180.075 C416.989745,180.075 417.094745,180.06 417.124745,180.045 C417.064745,180.54 416.629745,181.125 416.149745,181.44 L416.704745,181.905 Z M428.479745,180.18 C430.294745,180.18 431.494745,179.34 432.334745,178.2 L431.269745,177.615 C430.699745,178.47 429.664745,179.07 428.479745,179.07 C426.334745,179.07 424.669745,177.375 424.669745,175.005 C424.669745,172.62 426.334745,170.94 428.479745,170.94 C429.664745,170.94 430.699745,171.555 431.269745,172.395 L432.319745,171.81 C431.524745,170.685 430.294745,169.83 428.479745,169.83 C425.644745,169.83 423.379745,171.93 423.379745,175.005 C423.379745,178.08 425.644745,180.18 428.479745,180.18 Z M436.399745,180 L437.644745,180 L437.644745,171.105 L440.824745,171.105 L440.824745,169.995 L433.234745,169.995 L433.234745,171.105 L436.399745,171.105 L436.399745,180 Z M442.069745,175.005 C442.069745,172.05 444.064745,169.83 447.034745,169.83 C449.989745,169.83 451.999745,172.05 451.999745,175.005 C451.999745,177.96 449.989745,180.18 447.034745,180.18 C444.064745,180.18 442.069745,177.96 442.069745,175.005 Z M450.709745,175.005 C450.709745,172.665 449.269745,170.94 447.034745,170.94 C444.784745,170.94 443.359745,172.665 443.359745,175.005 C443.359745,177.33 444.784745,179.07 447.034745,179.07 C449.269745,179.07 450.709745,177.33 450.709745,175.005 Z" id="Kurt,-CTO" fill="#FFFFFF"></path>
                </g>
                <path d="M391,45 L451,45" id="Line-Copy-4" stroke="#FFFFFF" stroke-width="2" stroke-linecap="square"></path>
            </g>
        </g>
    </g>
</svg>