<?xml version="1.0" encoding="UTF-8"?>
<svg width="276px" height="85px" viewBox="0 0 276 85" version="1.1" xmlns="http://www.w3.org/2000/svg" xmlns:xlink="http://www.w3.org/1999/xlink">
    <!-- Generator: Sketch 45.2 (43514) - http://www.bohemiancoding.com/sketch -->
    <title>dash color 1</title>
    <desc>Created with Sketch.</desc>
    <defs></defs>
    <g id="Page-1" stroke="none" stroke-width="1" fill="none" fill-rule="evenodd">
        <g id="7-12-4" transform="translate(-373.000000, -4960.000000)">
            <g id="dash-color-1" transform="translate(374.000000, 4960.000000)">
                <path d="M0,84 L30,84" id="Line-Copy-3" stroke="#C8102E" stroke-width="2" stroke-linecap="square"></path>
                <path d="M2.21,19 L4.212,19 L4.212,1.008 L2.21,1.008 L2.21,19 Z M15.002,7.69 L15.002,6 L10.868,6 L10.868,2.022 L8.944,2.022 L8.944,6 L7.098,6 L7.098,7.69 L8.944,7.69 L8.944,14.528 C8.944,18.272 9.854,19.286 12.532,19.286 C13.442,19.286 15.184,19 15.184,19 L15.054,17.388 C15.054,17.388 13.468,17.544 12.74,17.544 C11.05,17.544 10.868,16.738 10.868,13.904 L10.868,7.69 L15.002,7.69 Z M16.9,6.286 L18.434,6.286 L20.098,0.592 L18.044,0.592 L16.9,6.286 Z M31.694,6.234 C31.694,6.234 28.938,5.74 26.988,5.74 C24.622,5.74 22.308,6.676 22.308,9.536 C22.308,12.136 23.712,12.682 26.65,13.15 C29.484,13.592 30.16,13.93 30.16,15.282 C30.16,17.05 29.016,17.518 26.884,17.518 C25.558,17.518 22.594,17.076 22.594,17.076 L22.49,18.766 C22.49,18.766 25.402,19.26 27.066,19.26 C30.186,19.26 32.11,18.246 32.11,15.204 C32.11,12.682 30.888,12.032 27.638,11.486 C24.882,11.018 24.258,10.68 24.258,9.458 C24.258,7.924 25.48,7.482 27.092,7.482 C28.756,7.482 31.642,7.898 31.642,7.898 L31.694,6.234 Z M39.286,2.802 L44.824,2.802 L44.824,19 L46.8,19 L46.8,2.802 L52.286,2.802 L52.286,1.008 L39.286,1.008 L39.286,2.802 Z M54.496,19 L56.446,19 L56.446,6 L54.496,6 L54.496,19 Z M54.496,3.062 L56.446,3.062 L56.446,0.8 L54.496,0.8 L54.496,3.062 Z M62.14,19 L62.14,8.444 C62.14,8.444 63.778,7.482 65.624,7.482 C67.99,7.482 68.354,8.704 68.354,12.292 L68.354,19 L70.304,19 L70.304,12.24 C70.304,10.68 70.2,9.042 69.966,8.444 C69.966,8.444 71.708,7.482 73.632,7.482 C75.972,7.482 76.362,8.756 76.362,12.188 L76.362,19 L78.312,19 L78.312,12.136 C78.312,7.43 77.454,5.74 73.918,5.74 C71.604,5.74 69.29,7.066 69.29,7.066 C68.614,6.13 67.652,5.74 65.91,5.74 C64.064,5.74 62.114,6.91 62.114,6.91 L62.114,6 L60.19,6 L60.19,19 L62.14,19 Z M86.736,17.544 C88.686,17.544 91.52,17.31 91.52,17.31 L91.572,18.844 C91.572,18.844 88.608,19.26 86.502,19.26 C82.628,19.26 81.354,16.998 81.354,12.578 C81.354,7.638 83.486,5.74 86.788,5.74 C90.246,5.74 92.014,7.56 92.014,11.824 L91.91,13.306 L83.33,13.306 C83.33,16.088 84.188,17.544 86.736,17.544 Z M83.304,11.746 L90.064,11.746 C90.064,8.522 89.076,7.378 86.788,7.378 C84.578,7.378 83.33,8.6 83.304,11.746 Z M103.272,7.69 L107.042,7.69 L107.042,6 L103.272,6 L103.272,4.856 C103.272,2.438 103.74,1.814 105.196,1.814 C105.976,1.814 107.432,1.866 107.432,1.866 L107.458,0.254 C107.458,0.254 105.716,0.072 104.832,0.072 C102.284,0.072 101.322,1.086 101.322,4.83 L101.322,6 L99.684,6 L99.684,7.69 L101.322,7.69 L101.322,19 L103.272,19 L103.272,7.69 Z M114.374,5.74 C118.508,5.74 119.938,7.872 119.938,12.344 C119.938,17.076 118.768,19.26 114.374,19.26 C110.006,19.26 108.81,17.076 108.81,12.344 C108.81,7.872 110.266,5.74 114.374,5.74 Z M114.374,17.57 C117.468,17.57 117.936,16.036 117.936,12.344 C117.936,8.73 117.156,7.43 114.374,7.43 C111.618,7.43 110.812,8.73 110.812,12.344 C110.812,16.036 111.306,17.57 114.374,17.57 Z M123.11,19 L125.06,19 L125.06,9.458 C125.06,9.458 127.348,8.184 129.792,7.69 L129.792,5.714 C127.296,6.208 125.034,7.768 125.034,7.768 L125.034,6 L123.11,6 L123.11,19 Z M138.164,19 L140.166,19 L140.166,3.14 L140.53,3.14 L145.756,18.35 L147.992,18.35 L153.218,3.14 L153.582,3.14 L153.582,19 L155.584,19 L155.584,1.008 L151.97,1.008 L146.874,16.218 L141.778,1.008 L138.164,1.008 L138.164,19 Z M168.844,9.926 L168.844,16.582 C168.896,17.336 169.52,17.622 170.352,17.726 L170.274,19.26 C168.896,19.26 167.96,19 167.18,18.22 C167.18,18.22 164.84,19.26 162.5,19.26 C160.134,19.26 158.834,17.908 158.834,15.282 C158.834,12.786 160.134,11.694 162.812,11.434 L166.894,11.044 L166.894,9.926 C166.894,8.106 166.114,7.456 164.554,7.456 C162.734,7.456 159.64,7.794 159.64,7.794 L159.562,6.312 C159.562,6.312 162.422,5.74 164.658,5.74 C167.596,5.74 168.844,7.092 168.844,9.926 Z M166.894,12.526 L163.046,12.89 C161.46,13.046 160.836,13.8 160.836,15.23 C160.836,16.738 161.486,17.622 162.812,17.622 C164.736,17.622 166.894,16.816 166.894,16.816 L166.894,12.526 Z M172.692,19 L174.642,19 L174.642,9.458 C174.642,9.458 176.93,8.184 179.374,7.69 L179.374,5.714 C176.878,6.208 174.616,7.768 174.616,7.768 L174.616,6 L172.692,6 L172.692,19 Z M183.638,19 L183.638,13.046 L185.692,12.968 L189.566,19 L191.776,19 L187.356,11.98 L191.594,6 L189.384,6 L185.666,11.252 L183.638,11.356 L183.638,0.332 L181.688,0.332 L181.688,19 L183.638,19 Z M198.952,17.544 C200.902,17.544 203.736,17.31 203.736,17.31 L203.788,18.844 C203.788,18.844 200.824,19.26 198.718,19.26 C194.844,19.26 193.57,16.998 193.57,12.578 C193.57,7.638 195.702,5.74 199.004,5.74 C202.462,5.74 204.23,7.56 204.23,11.824 L204.126,13.306 L195.546,13.306 C195.546,16.088 196.404,17.544 198.952,17.544 Z M195.52,11.746 L202.28,11.746 C202.28,8.522 201.292,7.378 199.004,7.378 C196.794,7.378 195.546,8.6 195.52,11.746 Z M214.006,7.69 L214.006,6 L209.872,6 L209.872,2.022 L207.948,2.022 L207.948,6 L206.102,6 L206.102,7.69 L207.948,7.69 L207.948,14.528 C207.948,18.272 208.858,19.286 211.536,19.286 C212.446,19.286 214.188,19 214.188,19 L214.058,17.388 C214.058,17.388 212.472,17.544 211.744,17.544 C210.054,17.544 209.872,16.738 209.872,13.904 L209.872,7.69 L214.006,7.69 Z M216.398,19 L218.348,19 L218.348,6 L216.398,6 L216.398,19 Z M216.398,3.062 L218.348,3.062 L218.348,0.8 L216.398,0.8 L216.398,3.062 Z M224.042,19 L224.042,8.444 C224.042,8.444 225.836,7.482 227.708,7.482 C230.126,7.482 230.516,8.756 230.516,12.188 L230.516,19 L232.44,19 L232.44,12.136 C232.44,7.508 231.634,5.74 228.046,5.74 C226.122,5.74 224.016,6.91 224.016,6.91 L224.016,6 L222.092,6 L222.092,19 L224.042,19 Z M241.072,25.11 C236.964,25.11 235.482,24.2 235.482,21.184 C235.482,19.676 236.184,18.974 237.536,17.96 C237.068,17.648 236.808,16.972 236.808,16.166 C236.808,15.672 237.692,14.112 237.692,14.112 C236.6,13.618 235.638,12.578 235.638,10.186 C235.638,6.988 237.614,5.74 240.5,5.74 C241.8,5.74 243.204,6.078 243.204,6.078 L247.052,5.974 L247.052,7.638 L244.582,7.586 C245.076,8.08 245.44,8.808 245.44,10.186 C245.44,13.566 243.75,14.58 240.422,14.58 C240.162,14.58 239.434,14.528 239.148,14.476 C239.148,14.476 238.68,15.62 238.68,15.958 C238.68,16.998 238.888,17.154 241.826,17.154 C245.518,17.154 246.844,17.882 246.844,20.976 C246.844,23.914 244.738,25.11 241.072,25.11 Z M241.67,18.87 C240.76,18.87 238.862,18.74 238.862,18.74 C237.77,19.546 237.406,20.014 237.406,21.028 C237.406,22.822 238.16,23.472 241.098,23.472 C243.698,23.472 244.868,22.77 244.868,21.054 C244.868,19.078 244.036,18.87 241.67,18.87 Z M240.5,13.02 C242.684,13.02 243.49,12.24 243.49,10.186 C243.49,8.132 242.684,7.326 240.5,7.326 C238.472,7.326 237.588,8.132 237.588,10.186 C237.588,12.24 238.472,13.02 240.5,13.02 Z M261.872,7.69 L261.872,6 L257.738,6 L257.738,2.022 L255.814,2.022 L255.814,6 L253.968,6 L253.968,7.69 L255.814,7.69 L255.814,14.528 C255.814,18.272 256.724,19.286 259.402,19.286 C260.312,19.286 262.054,19 262.054,19 L261.924,17.388 C261.924,17.388 260.338,17.544 259.61,17.544 C257.92,17.544 257.738,16.738 257.738,13.904 L257.738,7.69 L261.872,7.69 Z M269.256,5.74 C273.39,5.74 274.82,7.872 274.82,12.344 C274.82,17.076 273.65,19.26 269.256,19.26 C264.888,19.26 263.692,17.076 263.692,12.344 C263.692,7.872 265.148,5.74 269.256,5.74 Z M269.256,17.57 C272.35,17.57 272.818,16.036 272.818,12.344 C272.818,8.73 272.038,7.43 269.256,7.43 C266.5,7.43 265.694,8.73 265.694,12.344 C265.694,16.036 266.188,17.57 269.256,17.57 Z M2.21,50 L13.156,50 L13.156,48.232 L4.212,48.232 L4.212,41.732 L11.596,41.732 L11.596,39.99 L4.212,39.99 L4.212,33.776 L13.156,33.776 L13.156,32.008 L2.21,32.008 L2.21,50 Z M18.2,50 L18.2,39.444 C18.2,39.444 19.838,38.482 21.684,38.482 C24.05,38.482 24.414,39.704 24.414,43.292 L24.414,50 L26.364,50 L26.364,43.24 C26.364,41.68 26.26,40.042 26.026,39.444 C26.026,39.444 27.768,38.482 29.692,38.482 C32.032,38.482 32.422,39.756 32.422,43.188 L32.422,50 L34.372,50 L34.372,43.136 C34.372,38.43 33.514,36.74 29.978,36.74 C27.664,36.74 25.35,38.066 25.35,38.066 C24.674,37.13 23.712,36.74 21.97,36.74 C20.124,36.74 18.174,37.91 18.174,37.91 L18.174,37 L16.25,37 L16.25,50 L18.2,50 Z M43.732,36.74 C47.268,36.74 48.464,38.612 48.464,43.292 C48.464,48.466 47.06,50.26 42.328,50.26 C40.768,50.26 37.986,49.974 37.986,49.974 L37.986,31.332 L39.91,31.332 L39.91,37.65 C39.91,37.65 41.886,36.74 43.732,36.74 Z M42.302,48.518 C45.864,48.518 46.488,46.932 46.488,43.292 C46.488,39.938 45.812,38.482 43.524,38.482 C41.73,38.482 39.91,39.236 39.91,39.236 L39.91,48.388 C39.91,48.388 41.6,48.518 42.302,48.518 Z M51.662,50 L53.612,50 L53.612,40.458 C53.612,40.458 55.9,39.184 58.344,38.69 L58.344,36.714 C55.848,37.208 53.586,38.768 53.586,38.768 L53.586,37 L51.662,37 L51.662,50 Z M69.836,40.926 L69.836,47.582 C69.888,48.336 70.512,48.622 71.344,48.726 L71.266,50.26 C69.888,50.26 68.952,50 68.172,49.22 C68.172,49.22 65.832,50.26 63.492,50.26 C61.126,50.26 59.826,48.908 59.826,46.282 C59.826,43.786 61.126,42.694 63.804,42.434 L67.886,42.044 L67.886,40.926 C67.886,39.106 67.106,38.456 65.546,38.456 C63.726,38.456 60.632,38.794 60.632,38.794 L60.554,37.312 C60.554,37.312 63.414,36.74 65.65,36.74 C68.588,36.74 69.836,38.092 69.836,40.926 Z M67.886,43.526 L64.038,43.89 C62.452,44.046 61.828,44.8 61.828,46.23 C61.828,47.738 62.478,48.622 63.804,48.622 C65.728,48.622 67.886,47.816 67.886,47.816 L67.886,43.526 Z M78.546,36.74 C74.672,36.74 73.138,38.56 73.138,43.266 C73.138,48.362 74.36,50.26 78.494,50.26 C79.69,50.26 82.108,49.896 82.108,49.896 L82.03,48.284 C82.03,48.284 79.95,48.518 78.962,48.518 C75.738,48.518 75.14,47.114 75.14,43.266 C75.14,39.782 75.946,38.482 78.936,38.482 C79.924,38.482 82.004,38.716 82.004,38.716 L82.082,37.13 C82.082,37.13 79.742,36.74 78.546,36.74 Z M89.83,48.544 C91.78,48.544 94.614,48.31 94.614,48.31 L94.666,49.844 C94.666,49.844 91.702,50.26 89.596,50.26 C85.722,50.26 84.448,47.998 84.448,43.578 C84.448,38.638 86.58,36.74 89.882,36.74 C93.34,36.74 95.108,38.56 95.108,42.824 L95.004,44.306 L86.424,44.306 C86.424,47.088 87.282,48.544 89.83,48.544 Z M86.398,42.746 L93.158,42.746 C93.158,39.522 92.17,38.378 89.882,38.378 C87.672,38.378 86.424,39.6 86.398,42.746 Z M110.604,38.69 L110.604,37 L106.47,37 L106.47,33.022 L104.546,33.022 L104.546,37 L102.7,37 L102.7,38.69 L104.546,38.69 L104.546,45.528 C104.546,49.272 105.456,50.286 108.134,50.286 C109.044,50.286 110.786,50 110.786,50 L110.656,48.388 C110.656,48.388 109.07,48.544 108.342,48.544 C106.652,48.544 106.47,47.738 106.47,44.904 L106.47,38.69 L110.604,38.69 Z M114.946,50 L114.946,39.262 C114.946,39.262 116.766,38.482 118.612,38.482 C121.004,38.482 121.394,39.756 121.394,43.188 L121.394,50 L123.344,50 L123.344,43.136 C123.344,38.508 122.512,36.74 118.95,36.74 C117.026,36.74 114.946,37.728 114.946,37.728 L114.946,31.332 L112.996,31.332 L112.996,50 L114.946,50 Z M131.768,48.544 C133.718,48.544 136.552,48.31 136.552,48.31 L136.604,49.844 C136.604,49.844 133.64,50.26 131.534,50.26 C127.66,50.26 126.386,47.998 126.386,43.578 C126.386,38.638 128.518,36.74 131.82,36.74 C135.278,36.74 137.046,38.56 137.046,42.824 L136.942,44.306 L128.362,44.306 C128.362,47.088 129.22,48.544 131.768,48.544 Z M128.336,42.746 L135.096,42.746 C135.096,39.522 134.108,38.378 131.82,38.378 C129.61,38.378 128.362,39.6 128.336,42.746 Z M144.274,33.802 L149.812,33.802 L149.812,50 L151.788,50 L151.788,33.802 L157.274,33.802 L157.274,32.008 L144.274,32.008 L144.274,33.802 Z M159.484,50 L161.434,50 L161.434,40.458 C161.434,40.458 163.722,39.184 166.166,38.69 L166.166,36.714 C163.67,37.208 161.408,38.768 161.408,38.768 L161.408,37 L159.484,37 L159.484,50 Z M176.592,37 L176.592,47.556 C176.592,47.556 174.954,48.518 173.03,48.518 C170.612,48.518 170.3,47.348 170.3,43.76 L170.3,37 L168.35,37 L168.35,43.786 C168.35,48.57 169.104,50.26 172.744,50.26 C174.642,50.26 176.592,49.09 176.592,49.09 L176.592,50 L178.542,50 L178.542,37 L176.592,37 Z M187.096,48.544 C189.046,48.544 191.88,48.31 191.88,48.31 L191.932,49.844 C191.932,49.844 188.968,50.26 186.862,50.26 C182.988,50.26 181.714,47.998 181.714,43.578 C181.714,38.638 183.846,36.74 187.148,36.74 C190.606,36.74 192.374,38.56 192.374,42.824 L192.27,44.306 L183.69,44.306 C183.69,47.088 184.548,48.544 187.096,48.544 Z M183.664,42.746 L190.424,42.746 C190.424,39.522 189.436,38.378 187.148,38.378 C184.938,38.378 183.69,39.6 183.664,42.746 Z M207.272,42.434 L212.992,32.008 L210.73,32.008 L206.258,40.432 L201.786,32.008 L199.524,32.008 L205.27,42.434 L205.27,50 L207.272,50 L207.272,42.434 Z M220.116,36.74 C224.25,36.74 225.68,38.872 225.68,43.344 C225.68,48.076 224.51,50.26 220.116,50.26 C215.748,50.26 214.552,48.076 214.552,43.344 C214.552,38.872 216.008,36.74 220.116,36.74 Z M220.116,48.57 C223.21,48.57 223.678,47.036 223.678,43.344 C223.678,39.73 222.898,38.43 220.116,38.43 C217.36,38.43 216.554,39.73 216.554,43.344 C216.554,47.036 217.048,48.57 220.116,48.57 Z M236.964,37 L236.964,47.556 C236.964,47.556 235.326,48.518 233.402,48.518 C230.984,48.518 230.672,47.348 230.672,43.76 L230.672,37 L228.722,37 L228.722,43.786 C228.722,48.57 229.476,50.26 233.116,50.26 C235.014,50.26 236.964,49.09 236.964,49.09 L236.964,50 L238.914,50 L238.914,37 L236.964,37 Z" id="It’s-Time-for-Market" fill="#071D49"></path>
            </g>
        </g>
    </g>
</svg>