<?xml version="1.0" encoding="UTF-8"?>
<svg width="412px" height="140px" viewBox="0 0 412 140" version="1.1" xmlns="http://www.w3.org/2000/svg" xmlns:xlink="http://www.w3.org/1999/xlink">
    <!-- Generator: Sketch 45.2 (43514) - http://www.bohemiancoding.com/sketch -->
    <title>dash length export</title>
    <desc>Created with Sketch.</desc>
    <defs></defs>
    <g id="Page-1" stroke="none" stroke-width="1" fill="none" fill-rule="evenodd">
        <g id="7-12-4" transform="translate(-249.000000, -4033.000000)">
            <g id="dash-length-export" transform="translate(249.000000, 4033.000000)">
                <rect id="Rectangle-4" fill-opacity="0.1" fill="#0087B5" x="133" y="7" width="38" height="44"></rect>
                <path d="M137,113 L167,113" id="Line-Copy-3" stroke="#C8102E" stroke-width="2" stroke-linecap="square"></path>
                <path d="M134,7.75 L170.5,7.75" id="Line-Copy-5" stroke="#0087B5" stroke-width="1.5" stroke-linecap="square" stroke-dasharray="2,4,2,4"></path>
                <g id="outline">
                    <path d="M139.21,48 L141.212,48 L141.212,30.008 L139.21,30.008 L139.21,48 Z M152.002,36.69 L152.002,35 L147.868,35 L147.868,31.022 L145.944,31.022 L145.944,35 L144.098,35 L144.098,36.69 L145.944,36.69 L145.944,43.528 C145.944,47.272 146.854,48.286 149.532,48.286 C150.442,48.286 152.184,48 152.184,48 L152.054,46.388 C152.054,46.388 150.468,46.544 149.74,46.544 C148.05,46.544 147.868,45.738 147.868,42.904 L147.868,36.69 L152.002,36.69 Z M153.9,35.286 L155.434,35.286 L157.098,29.592 L155.044,29.592 L153.9,35.286 Z M168.694,35.234 C168.694,35.234 165.938,34.74 163.988,34.74 C161.622,34.74 159.308,35.676 159.308,38.536 C159.308,41.136 160.712,41.682 163.65,42.15 C166.484,42.592 167.16,42.93 167.16,44.282 C167.16,46.05 166.016,46.518 163.884,46.518 C162.558,46.518 159.594,46.076 159.594,46.076 L159.49,47.766 C159.49,47.766 162.402,48.26 164.066,48.26 C167.186,48.26 169.11,47.246 169.11,44.204 C169.11,41.682 167.888,41.032 164.638,40.486 C161.882,40.018 161.258,39.68 161.258,38.458 C161.258,36.924 162.48,36.482 164.092,36.482 C165.756,36.482 168.642,36.898 168.642,36.898 L168.694,35.234 Z M176.286,31.802 L181.824,31.802 L181.824,48 L183.8,48 L183.8,31.802 L189.286,31.802 L189.286,30.008 L176.286,30.008 L176.286,31.802 Z M191.496,48 L193.446,48 L193.446,35 L191.496,35 L191.496,48 Z M191.496,32.062 L193.446,32.062 L193.446,29.8 L191.496,29.8 L191.496,32.062 Z M199.14,48 L199.14,37.444 C199.14,37.444 200.778,36.482 202.624,36.482 C204.99,36.482 205.354,37.704 205.354,41.292 L205.354,48 L207.304,48 L207.304,41.24 C207.304,39.68 207.2,38.042 206.966,37.444 C206.966,37.444 208.708,36.482 210.632,36.482 C212.972,36.482 213.362,37.756 213.362,41.188 L213.362,48 L215.312,48 L215.312,41.136 C215.312,36.43 214.454,34.74 210.918,34.74 C208.604,34.74 206.29,36.066 206.29,36.066 C205.614,35.13 204.652,34.74 202.91,34.74 C201.064,34.74 199.114,35.91 199.114,35.91 L199.114,35 L197.19,35 L197.19,48 L199.14,48 Z M223.736,46.544 C225.686,46.544 228.52,46.31 228.52,46.31 L228.572,47.844 C228.572,47.844 225.608,48.26 223.502,48.26 C219.628,48.26 218.354,45.998 218.354,41.578 C218.354,36.638 220.486,34.74 223.788,34.74 C227.246,34.74 229.014,36.56 229.014,40.824 L228.91,42.306 L220.33,42.306 C220.33,45.088 221.188,46.544 223.736,46.544 Z M220.304,40.746 L227.064,40.746 C227.064,37.522 226.076,36.378 223.788,36.378 C221.578,36.378 220.33,37.6 220.304,40.746 Z M240.272,36.69 L244.042,36.69 L244.042,35 L240.272,35 L240.272,33.856 C240.272,31.438 240.74,30.814 242.196,30.814 C242.976,30.814 244.432,30.866 244.432,30.866 L244.458,29.254 C244.458,29.254 242.716,29.072 241.832,29.072 C239.284,29.072 238.322,30.086 238.322,33.83 L238.322,35 L236.684,35 L236.684,36.69 L238.322,36.69 L238.322,48 L240.272,48 L240.272,36.69 Z M251.374,34.74 C255.508,34.74 256.938,36.872 256.938,41.344 C256.938,46.076 255.768,48.26 251.374,48.26 C247.006,48.26 245.81,46.076 245.81,41.344 C245.81,36.872 247.266,34.74 251.374,34.74 Z M251.374,46.57 C254.468,46.57 254.936,45.036 254.936,41.344 C254.936,37.73 254.156,36.43 251.374,36.43 C248.618,36.43 247.812,37.73 247.812,41.344 C247.812,45.036 248.306,46.57 251.374,46.57 Z M260.11,48 L262.06,48 L262.06,38.458 C262.06,38.458 264.348,37.184 266.792,36.69 L266.792,34.714 C264.296,35.208 262.034,36.768 262.034,36.768 L262.034,35 L260.11,35 L260.11,48 Z M275.164,48 L277.166,48 L277.166,32.14 L277.53,32.14 L282.756,47.35 L284.992,47.35 L290.218,32.14 L290.582,32.14 L290.582,48 L292.584,48 L292.584,30.008 L288.97,30.008 L283.874,45.218 L278.778,30.008 L275.164,30.008 L275.164,48 Z M305.844,38.926 L305.844,45.582 C305.896,46.336 306.52,46.622 307.352,46.726 L307.274,48.26 C305.896,48.26 304.96,48 304.18,47.22 C304.18,47.22 301.84,48.26 299.5,48.26 C297.134,48.26 295.834,46.908 295.834,44.282 C295.834,41.786 297.134,40.694 299.812,40.434 L303.894,40.044 L303.894,38.926 C303.894,37.106 303.114,36.456 301.554,36.456 C299.734,36.456 296.64,36.794 296.64,36.794 L296.562,35.312 C296.562,35.312 299.422,34.74 301.658,34.74 C304.596,34.74 305.844,36.092 305.844,38.926 Z M303.894,41.526 L300.046,41.89 C298.46,42.046 297.836,42.8 297.836,44.23 C297.836,45.738 298.486,46.622 299.812,46.622 C301.736,46.622 303.894,45.816 303.894,45.816 L303.894,41.526 Z M309.692,48 L311.642,48 L311.642,38.458 C311.642,38.458 313.93,37.184 316.374,36.69 L316.374,34.714 C313.878,35.208 311.616,36.768 311.616,36.768 L311.616,35 L309.692,35 L309.692,48 Z M320.638,48 L320.638,42.046 L322.692,41.968 L326.566,48 L328.776,48 L324.356,40.98 L328.594,35 L326.384,35 L322.666,40.252 L320.638,40.356 L320.638,29.332 L318.688,29.332 L318.688,48 L320.638,48 Z M335.952,46.544 C337.902,46.544 340.736,46.31 340.736,46.31 L340.788,47.844 C340.788,47.844 337.824,48.26 335.718,48.26 C331.844,48.26 330.57,45.998 330.57,41.578 C330.57,36.638 332.702,34.74 336.004,34.74 C339.462,34.74 341.23,36.56 341.23,40.824 L341.126,42.306 L332.546,42.306 C332.546,45.088 333.404,46.544 335.952,46.544 Z M332.52,40.746 L339.28,40.746 C339.28,37.522 338.292,36.378 336.004,36.378 C333.794,36.378 332.546,37.6 332.52,40.746 Z M351.006,36.69 L351.006,35 L346.872,35 L346.872,31.022 L344.948,31.022 L344.948,35 L343.102,35 L343.102,36.69 L344.948,36.69 L344.948,43.528 C344.948,47.272 345.858,48.286 348.536,48.286 C349.446,48.286 351.188,48 351.188,48 L351.058,46.388 C351.058,46.388 349.472,46.544 348.744,46.544 C347.054,46.544 346.872,45.738 346.872,42.904 L346.872,36.69 L351.006,36.69 Z M353.398,48 L355.348,48 L355.348,35 L353.398,35 L353.398,48 Z M353.398,32.062 L355.348,32.062 L355.348,29.8 L353.398,29.8 L353.398,32.062 Z M361.042,48 L361.042,37.444 C361.042,37.444 362.836,36.482 364.708,36.482 C367.126,36.482 367.516,37.756 367.516,41.188 L367.516,48 L369.44,48 L369.44,41.136 C369.44,36.508 368.634,34.74 365.046,34.74 C363.122,34.74 361.016,35.91 361.016,35.91 L361.016,35 L359.092,35 L359.092,48 L361.042,48 Z M378.072,54.11 C373.964,54.11 372.482,53.2 372.482,50.184 C372.482,48.676 373.184,47.974 374.536,46.96 C374.068,46.648 373.808,45.972 373.808,45.166 C373.808,44.672 374.692,43.112 374.692,43.112 C373.6,42.618 372.638,41.578 372.638,39.186 C372.638,35.988 374.614,34.74 377.5,34.74 C378.8,34.74 380.204,35.078 380.204,35.078 L384.052,34.974 L384.052,36.638 L381.582,36.586 C382.076,37.08 382.44,37.808 382.44,39.186 C382.44,42.566 380.75,43.58 377.422,43.58 C377.162,43.58 376.434,43.528 376.148,43.476 C376.148,43.476 375.68,44.62 375.68,44.958 C375.68,45.998 375.888,46.154 378.826,46.154 C382.518,46.154 383.844,46.882 383.844,49.976 C383.844,52.914 381.738,54.11 378.072,54.11 Z M378.67,47.87 C377.76,47.87 375.862,47.74 375.862,47.74 C374.77,48.546 374.406,49.014 374.406,50.028 C374.406,51.822 375.16,52.472 378.098,52.472 C380.698,52.472 381.868,51.77 381.868,50.054 C381.868,48.078 381.036,47.87 378.67,47.87 Z M377.5,42.02 C379.684,42.02 380.49,41.24 380.49,39.186 C380.49,37.132 379.684,36.326 377.5,36.326 C375.472,36.326 374.588,37.132 374.588,39.186 C374.588,41.24 375.472,42.02 377.5,42.02 Z M398.872,36.69 L398.872,35 L394.738,35 L394.738,31.022 L392.814,31.022 L392.814,35 L390.968,35 L390.968,36.69 L392.814,36.69 L392.814,43.528 C392.814,47.272 393.724,48.286 396.402,48.286 C397.312,48.286 399.054,48 399.054,48 L398.924,46.388 C398.924,46.388 397.338,46.544 396.61,46.544 C394.92,46.544 394.738,45.738 394.738,42.904 L394.738,36.69 L398.872,36.69 Z M406.256,34.74 C410.39,34.74 411.82,36.872 411.82,41.344 C411.82,46.076 410.65,48.26 406.256,48.26 C401.888,48.26 400.692,46.076 400.692,41.344 C400.692,36.872 402.148,34.74 406.256,34.74 Z M406.256,46.57 C409.35,46.57 409.818,45.036 409.818,41.344 C409.818,37.73 409.038,36.43 406.256,36.43 C403.5,36.43 402.694,37.73 402.694,41.344 C402.694,45.036 403.188,46.57 406.256,46.57 Z M139.21,79 L150.156,79 L150.156,77.232 L141.212,77.232 L141.212,70.732 L148.596,70.732 L148.596,68.99 L141.212,68.99 L141.212,62.776 L150.156,62.776 L150.156,61.008 L139.21,61.008 L139.21,79 Z M155.2,79 L155.2,68.444 C155.2,68.444 156.838,67.482 158.684,67.482 C161.05,67.482 161.414,68.704 161.414,72.292 L161.414,79 L163.364,79 L163.364,72.24 C163.364,70.68 163.26,69.042 163.026,68.444 C163.026,68.444 164.768,67.482 166.692,67.482 C169.032,67.482 169.422,68.756 169.422,72.188 L169.422,79 L171.372,79 L171.372,72.136 C171.372,67.43 170.514,65.74 166.978,65.74 C164.664,65.74 162.35,67.066 162.35,67.066 C161.674,66.13 160.712,65.74 158.97,65.74 C157.124,65.74 155.174,66.91 155.174,66.91 L155.174,66 L153.25,66 L153.25,79 L155.2,79 Z M180.732,65.74 C184.268,65.74 185.464,67.612 185.464,72.292 C185.464,77.466 184.06,79.26 179.328,79.26 C177.768,79.26 174.986,78.974 174.986,78.974 L174.986,60.332 L176.91,60.332 L176.91,66.65 C176.91,66.65 178.886,65.74 180.732,65.74 Z M179.302,77.518 C182.864,77.518 183.488,75.932 183.488,72.292 C183.488,68.938 182.812,67.482 180.524,67.482 C178.73,67.482 176.91,68.236 176.91,68.236 L176.91,77.388 C176.91,77.388 178.6,77.518 179.302,77.518 Z M188.662,79 L190.612,79 L190.612,69.458 C190.612,69.458 192.9,68.184 195.344,67.69 L195.344,65.714 C192.848,66.208 190.586,67.768 190.586,67.768 L190.586,66 L188.662,66 L188.662,79 Z M206.836,69.926 L206.836,76.582 C206.888,77.336 207.512,77.622 208.344,77.726 L208.266,79.26 C206.888,79.26 205.952,79 205.172,78.22 C205.172,78.22 202.832,79.26 200.492,79.26 C198.126,79.26 196.826,77.908 196.826,75.282 C196.826,72.786 198.126,71.694 200.804,71.434 L204.886,71.044 L204.886,69.926 C204.886,68.106 204.106,67.456 202.546,67.456 C200.726,67.456 197.632,67.794 197.632,67.794 L197.554,66.312 C197.554,66.312 200.414,65.74 202.65,65.74 C205.588,65.74 206.836,67.092 206.836,69.926 Z M204.886,72.526 L201.038,72.89 C199.452,73.046 198.828,73.8 198.828,75.23 C198.828,76.738 199.478,77.622 200.804,77.622 C202.728,77.622 204.886,76.816 204.886,76.816 L204.886,72.526 Z M215.546,65.74 C211.672,65.74 210.138,67.56 210.138,72.266 C210.138,77.362 211.36,79.26 215.494,79.26 C216.69,79.26 219.108,78.896 219.108,78.896 L219.03,77.284 C219.03,77.284 216.95,77.518 215.962,77.518 C212.738,77.518 212.14,76.114 212.14,72.266 C212.14,68.782 212.946,67.482 215.936,67.482 C216.924,67.482 219.004,67.716 219.004,67.716 L219.082,66.13 C219.082,66.13 216.742,65.74 215.546,65.74 Z M226.83,77.544 C228.78,77.544 231.614,77.31 231.614,77.31 L231.666,78.844 C231.666,78.844 228.702,79.26 226.596,79.26 C222.722,79.26 221.448,76.998 221.448,72.578 C221.448,67.638 223.58,65.74 226.882,65.74 C230.34,65.74 232.108,67.56 232.108,71.824 L232.004,73.306 L223.424,73.306 C223.424,76.088 224.282,77.544 226.83,77.544 Z M223.398,71.746 L230.158,71.746 C230.158,68.522 229.17,67.378 226.882,67.378 C224.672,67.378 223.424,68.6 223.398,71.746 Z M247.604,67.69 L247.604,66 L243.47,66 L243.47,62.022 L241.546,62.022 L241.546,66 L239.7,66 L239.7,67.69 L241.546,67.69 L241.546,74.528 C241.546,78.272 242.456,79.286 245.134,79.286 C246.044,79.286 247.786,79 247.786,79 L247.656,77.388 C247.656,77.388 246.07,77.544 245.342,77.544 C243.652,77.544 243.47,76.738 243.47,73.904 L243.47,67.69 L247.604,67.69 Z M251.946,79 L251.946,68.262 C251.946,68.262 253.766,67.482 255.612,67.482 C258.004,67.482 258.394,68.756 258.394,72.188 L258.394,79 L260.344,79 L260.344,72.136 C260.344,67.508 259.512,65.74 255.95,65.74 C254.026,65.74 251.946,66.728 251.946,66.728 L251.946,60.332 L249.996,60.332 L249.996,79 L251.946,79 Z M268.768,77.544 C270.718,77.544 273.552,77.31 273.552,77.31 L273.604,78.844 C273.604,78.844 270.64,79.26 268.534,79.26 C264.66,79.26 263.386,76.998 263.386,72.578 C263.386,67.638 265.518,65.74 268.82,65.74 C272.278,65.74 274.046,67.56 274.046,71.824 L273.942,73.306 L265.362,73.306 C265.362,76.088 266.22,77.544 268.768,77.544 Z M265.336,71.746 L272.096,71.746 C272.096,68.522 271.108,67.378 268.82,67.378 C266.61,67.378 265.362,68.6 265.336,71.746 Z M281.274,62.802 L286.812,62.802 L286.812,79 L288.788,79 L288.788,62.802 L294.274,62.802 L294.274,61.008 L281.274,61.008 L281.274,62.802 Z M296.484,79 L298.434,79 L298.434,69.458 C298.434,69.458 300.722,68.184 303.166,67.69 L303.166,65.714 C300.67,66.208 298.408,67.768 298.408,67.768 L298.408,66 L296.484,66 L296.484,79 Z M313.592,66 L313.592,76.556 C313.592,76.556 311.954,77.518 310.03,77.518 C307.612,77.518 307.3,76.348 307.3,72.76 L307.3,66 L305.35,66 L305.35,72.786 C305.35,77.57 306.104,79.26 309.744,79.26 C311.642,79.26 313.592,78.09 313.592,78.09 L313.592,79 L315.542,79 L315.542,66 L313.592,66 Z M324.096,77.544 C326.046,77.544 328.88,77.31 328.88,77.31 L328.932,78.844 C328.932,78.844 325.968,79.26 323.862,79.26 C319.988,79.26 318.714,76.998 318.714,72.578 C318.714,67.638 320.846,65.74 324.148,65.74 C327.606,65.74 329.374,67.56 329.374,71.824 L329.27,73.306 L320.69,73.306 C320.69,76.088 321.548,77.544 324.096,77.544 Z M320.664,71.746 L327.424,71.746 C327.424,68.522 326.436,67.378 324.148,67.378 C321.938,67.378 320.69,68.6 320.664,71.746 Z M344.272,71.434 L349.992,61.008 L347.73,61.008 L343.258,69.432 L338.786,61.008 L336.524,61.008 L342.27,71.434 L342.27,79 L344.272,79 L344.272,71.434 Z M357.116,65.74 C361.25,65.74 362.68,67.872 362.68,72.344 C362.68,77.076 361.51,79.26 357.116,79.26 C352.748,79.26 351.552,77.076 351.552,72.344 C351.552,67.872 353.008,65.74 357.116,65.74 Z M357.116,77.57 C360.21,77.57 360.678,76.036 360.678,72.344 C360.678,68.73 359.898,67.43 357.116,67.43 C354.36,67.43 353.554,68.73 353.554,72.344 C353.554,76.036 354.048,77.57 357.116,77.57 Z M373.964,66 L373.964,76.556 C373.964,76.556 372.326,77.518 370.402,77.518 C367.984,77.518 367.672,76.348 367.672,72.76 L367.672,66 L365.722,66 L365.722,72.786 C365.722,77.57 366.476,79.26 370.116,79.26 C372.014,79.26 373.964,78.09 373.964,78.09 L373.964,79 L375.914,79 L375.914,66 L373.964,66 Z" id="It’s-Time-for-Market" fill="#071D49"></path>
                    <path d="M35.528,116.432 C36.184,117.392 37.512,118.192 39.32,118.192 C41.672,118.192 43.096,116.896 43.096,115.12 C43.096,113.408 41.608,112.576 40.632,112.496 C41.64,112.32 42.936,111.552 42.936,110.016 C42.936,108.208 41.368,107.168 39.32,107.168 C37.672,107.168 36.44,107.888 35.672,108.816 L36.408,109.648 C37.192,108.8 38.056,108.352 39.224,108.352 C40.52,108.352 41.608,108.992 41.608,110.176 C41.608,111.408 40.472,111.936 39.128,111.936 C38.696,111.936 38.2,111.936 38.024,111.92 L38.024,113.136 C38.184,113.12 38.68,113.12 39.128,113.12 C40.696,113.12 41.784,113.68 41.784,115.008 C41.784,116.24 40.84,117.008 39.288,117.008 C38.024,117.008 36.936,116.432 36.312,115.6 L35.528,116.432 Z M44.792,112.672 C44.792,110.064 45.944,107.168 48.872,107.168 C51.784,107.168 52.952,110.064 52.952,112.672 C52.952,115.264 51.784,118.192 48.872,118.192 C45.944,118.192 44.792,115.264 44.792,112.672 Z M51.592,112.672 C51.592,110.544 50.904,108.352 48.872,108.352 C46.84,108.352 46.152,110.544 46.152,112.672 C46.152,114.8 46.84,117.008 48.872,117.008 C50.904,117.008 51.592,114.8 51.592,112.672 Z M56.168,120.944 L54.968,120.944 L54.968,110.272 L56.168,110.272 L56.168,111.424 C56.728,110.64 57.688,110.08 58.776,110.08 C60.808,110.08 62.216,111.616 62.216,114.128 C62.216,116.624 60.808,118.192 58.776,118.192 C57.72,118.192 56.792,117.696 56.168,116.832 L56.168,120.944 Z M60.952,114.128 C60.952,112.416 60.024,111.152 58.472,111.152 C57.528,111.152 56.584,111.712 56.168,112.384 L56.168,115.872 C56.584,116.544 57.528,117.12 58.472,117.12 C60.024,117.12 60.952,115.84 60.952,114.128 Z M69.16,118 L70.552,118 L67.576,114.032 L70.376,110.272 L68.984,110.272 L66.84,113.216 L64.696,110.272 L63.304,110.272 L66.104,114.032 L63.144,118 L64.52,118 L66.84,114.832 L69.16,118 Z M76.056,118 L77.256,118 L77.256,107.328 L76.056,107.328 L76.056,118 Z M79.208,114.128 C79.208,111.888 80.808,110.08 83.016,110.08 C85.352,110.08 86.728,111.904 86.728,114.224 L86.728,114.528 L80.472,114.528 C80.568,115.984 81.592,117.2 83.256,117.2 C84.136,117.2 85.032,116.848 85.64,116.224 L86.216,117.008 C85.448,117.776 84.408,118.192 83.144,118.192 C80.856,118.192 79.208,116.544 79.208,114.128 Z M83,111.072 C81.352,111.072 80.536,112.464 80.472,113.648 L85.544,113.648 C85.528,112.496 84.76,111.072 83,111.072 Z M93.88,118 L95.08,118 L95.08,112.576 C95.08,110.896 94.232,110.08 92.616,110.08 C91.464,110.08 90.408,110.752 89.864,111.392 L89.864,110.272 L88.664,110.272 L88.664,118 L89.864,118 L89.864,112.352 C90.312,111.728 91.208,111.152 92.152,111.152 C93.192,111.152 93.88,111.584 93.88,112.944 L93.88,118 Z M97.464,119.984 L98.072,119.088 C98.712,119.856 99.48,120.144 100.584,120.144 C101.864,120.144 103.064,119.52 103.064,117.824 L103.064,116.72 C102.504,117.504 101.56,118.096 100.472,118.096 C98.456,118.096 97.032,116.592 97.032,114.096 C97.032,111.616 98.44,110.08 100.472,110.08 C101.512,110.08 102.44,110.592 103.064,111.44 L103.064,110.272 L104.264,110.272 L104.264,117.776 C104.264,120.336 102.472,121.136 100.584,121.136 C99.272,121.136 98.376,120.88 97.464,119.984 Z M103.064,115.776 L103.064,112.4 C102.648,111.728 101.72,111.152 100.76,111.152 C99.208,111.152 98.28,112.384 98.28,114.096 C98.28,115.792 99.208,117.04 100.76,117.04 C101.72,117.04 102.648,116.448 103.064,115.776 Z M108.616,118.192 C109.32,118.192 109.752,117.984 110.056,117.696 L109.704,116.8 C109.544,116.976 109.224,117.12 108.888,117.12 C108.36,117.12 108.104,116.704 108.104,116.128 L108.104,111.328 L109.672,111.328 L109.672,110.272 L108.104,110.272 L108.104,108.16 L106.904,108.16 L106.904,110.272 L105.624,110.272 L105.624,111.328 L106.904,111.328 L106.904,116.384 C106.904,117.536 107.48,118.192 108.616,118.192 Z M116.6,118 L117.8,118 L117.8,112.544 C117.8,110.864 116.952,110.08 115.336,110.08 C114.168,110.08 113.112,110.752 112.568,111.392 L112.568,107.328 L111.368,107.328 L111.368,118 L112.568,118 L112.568,112.352 C113.032,111.728 113.928,111.152 114.856,111.152 C115.896,111.152 116.6,111.552 116.6,112.912 L116.6,118 Z M45.56,137 L52.888,137 L52.888,135.816 L47.656,135.816 C50.632,133.464 52.84,131.48 52.84,129.304 C52.84,127.176 51.032,126.168 49.256,126.168 C47.752,126.168 46.36,126.776 45.544,127.848 L46.36,128.696 C46.984,127.896 47.976,127.352 49.256,127.352 C50.36,127.352 51.48,127.944 51.48,129.304 C51.48,131.144 49.4,132.92 45.56,135.944 L45.56,137 Z M56.504,139.944 L55.304,139.944 L55.304,129.272 L56.504,129.272 L56.504,130.424 C57.064,129.64 58.024,129.08 59.112,129.08 C61.144,129.08 62.552,130.616 62.552,133.128 C62.552,135.624 61.144,137.192 59.112,137.192 C58.056,137.192 57.128,136.696 56.504,135.832 L56.504,139.944 Z M61.288,133.128 C61.288,131.416 60.36,130.152 58.808,130.152 C57.864,130.152 56.92,130.712 56.504,131.384 L56.504,134.872 C56.92,135.544 57.864,136.12 58.808,136.12 C60.36,136.12 61.288,134.84 61.288,133.128 Z M69.496,137 L70.888,137 L67.912,133.032 L70.712,129.272 L69.32,129.272 L67.176,132.216 L65.032,129.272 L63.64,129.272 L66.44,133.032 L63.48,137 L64.856,137 L67.176,133.832 L69.496,137 Z M75.72,135.976 C76.504,136.808 77.576,137.192 78.84,137.192 C80.84,137.192 81.88,136.152 81.88,134.856 C81.88,133.144 80.328,132.76 78.984,132.456 C77.976,132.216 77.096,131.976 77.096,131.224 C77.096,130.536 77.752,130.056 78.808,130.056 C79.8,130.056 80.648,130.472 81.112,131.032 L81.672,130.2 C81.048,129.576 80.12,129.08 78.808,129.08 C76.968,129.08 75.928,130.104 75.928,131.304 C75.928,132.904 77.416,133.256 78.728,133.56 C79.768,133.816 80.712,134.088 80.712,134.936 C80.712,135.688 80.072,136.216 78.888,136.216 C77.832,136.216 76.856,135.704 76.344,135.112 L75.72,135.976 Z M85.784,137.192 C86.488,137.192 86.92,136.984 87.224,136.696 L86.872,135.8 C86.712,135.976 86.392,136.12 86.056,136.12 C85.528,136.12 85.272,135.704 85.272,135.128 L85.272,130.328 L86.84,130.328 L86.84,129.272 L85.272,129.272 L85.272,127.16 L84.072,127.16 L84.072,129.272 L82.792,129.272 L82.792,130.328 L84.072,130.328 L84.072,135.384 C84.072,136.536 84.648,137.192 85.784,137.192 Z M88.536,137 L89.736,137 L89.736,131.528 C90.088,130.904 91.096,130.296 91.832,130.296 C92.024,130.296 92.168,130.312 92.312,130.344 L92.312,129.112 C91.256,129.112 90.36,129.704 89.736,130.52 L89.736,129.272 L88.536,129.272 L88.536,137 Z M97.192,137.192 C94.84,137.192 93.368,135.368 93.368,133.128 C93.368,130.888 94.84,129.08 97.192,129.08 C99.544,129.08 101.016,130.888 101.016,133.128 C101.016,135.368 99.544,137.192 97.192,137.192 Z M97.192,136.12 C98.84,136.12 99.752,134.712 99.752,133.128 C99.752,131.56 98.84,130.152 97.192,130.152 C95.544,130.152 94.616,131.56 94.616,133.128 C94.616,134.712 95.544,136.12 97.192,136.12 Z M108.232,137 L109.768,137 L106.328,132.776 L109.752,129.272 L108.232,129.272 L104.168,133.384 L104.168,126.328 L102.968,126.328 L102.968,137 L104.168,137 L104.168,134.792 L105.448,133.528 L108.232,137 Z M110.744,133.128 C110.744,130.888 112.344,129.08 114.552,129.08 C116.888,129.08 118.264,130.904 118.264,133.224 L118.264,133.528 L112.008,133.528 C112.104,134.984 113.128,136.2 114.792,136.2 C115.672,136.2 116.568,135.848 117.176,135.224 L117.752,136.008 C116.984,136.776 115.944,137.192 114.68,137.192 C112.392,137.192 110.744,135.544 110.744,133.128 Z M114.536,130.072 C112.888,130.072 112.072,131.464 112.008,132.648 L117.08,132.648 C117.064,131.496 116.296,130.072 114.536,130.072 Z" id="30px-length-2px-stro" fill="#6A7792"></path>
                    <path d="M53.72,46 L61.048,46 L61.048,44.816 L55.816,44.816 C58.792,42.464 61,40.48 61,38.304 C61,36.176 59.192,35.168 57.416,35.168 C55.912,35.168 54.52,35.776 53.704,36.848 L54.52,37.696 C55.144,36.896 56.136,36.352 57.416,36.352 C58.52,36.352 59.64,36.944 59.64,38.304 C59.64,40.144 57.56,41.92 53.72,44.944 L53.72,46 Z M63.08,40.688 C63.08,37.792 64.424,35.168 67.416,35.168 C68.792,35.168 69.72,35.696 70.376,36.448 L69.704,37.44 C69.16,36.8 68.536,36.352 67.416,36.352 C65.352,36.352 64.408,38.448 64.408,40.544 C64.408,40.688 64.408,40.816 64.424,40.96 C64.888,40.224 66.072,39.296 67.448,39.296 C69.368,39.296 70.936,40.432 70.936,42.704 C70.936,44.56 69.528,46.192 67.192,46.192 C64.216,46.192 63.08,43.584 63.08,40.688 Z M69.592,42.752 C69.592,41.184 68.504,40.448 67.128,40.448 C66.072,40.448 65.048,41.104 64.456,42.048 C64.584,43.376 65.288,45.008 67.144,45.008 C68.792,45.008 69.592,43.776 69.592,42.752 Z M74.12,48.944 L72.92,48.944 L72.92,38.272 L74.12,38.272 L74.12,39.424 C74.68,38.64 75.64,38.08 76.728,38.08 C78.76,38.08 80.168,39.616 80.168,42.128 C80.168,44.624 78.76,46.192 76.728,46.192 C75.672,46.192 74.744,45.696 74.12,44.832 L74.12,48.944 Z M78.904,42.128 C78.904,40.416 77.976,39.152 76.424,39.152 C75.48,39.152 74.536,39.712 74.12,40.384 L74.12,43.872 C74.536,44.544 75.48,45.12 76.424,45.12 C77.976,45.12 78.904,43.84 78.904,42.128 Z M87.112,46 L88.504,46 L85.528,42.032 L88.328,38.272 L86.936,38.272 L84.792,41.216 L82.648,38.272 L81.256,38.272 L84.056,42.032 L81.096,46 L82.472,46 L84.792,42.832 L87.112,46 Z M95.96,46.192 C96.664,46.192 97.096,45.984 97.4,45.696 L97.048,44.8 C96.888,44.976 96.568,45.12 96.232,45.12 C95.704,45.12 95.448,44.704 95.448,44.128 L95.448,39.328 L97.016,39.328 L97.016,38.272 L95.448,38.272 L95.448,36.16 L94.248,36.16 L94.248,38.272 L92.968,38.272 L92.968,39.328 L94.248,39.328 L94.248,44.384 C94.248,45.536 94.824,46.192 95.96,46.192 Z M98.264,42.128 C98.264,39.888 99.864,38.08 102.072,38.08 C104.408,38.08 105.784,39.904 105.784,42.224 L105.784,42.528 L99.528,42.528 C99.624,43.984 100.648,45.2 102.312,45.2 C103.192,45.2 104.088,44.848 104.696,44.224 L105.272,45.008 C104.504,45.776 103.464,46.192 102.2,46.192 C99.912,46.192 98.264,44.544 98.264,42.128 Z M102.056,39.072 C100.408,39.072 99.592,40.464 99.528,41.648 L104.6,41.648 C104.584,40.496 103.816,39.072 102.056,39.072 Z M112.728,46 L114.12,46 L111.144,42.032 L113.944,38.272 L112.552,38.272 L110.408,41.216 L108.264,38.272 L106.872,38.272 L109.672,42.032 L106.712,46 L108.088,46 L110.408,42.832 L112.728,46 Z M117.448,46.192 C118.152,46.192 118.584,45.984 118.888,45.696 L118.536,44.8 C118.376,44.976 118.056,45.12 117.72,45.12 C117.192,45.12 116.936,44.704 116.936,44.128 L116.936,39.328 L118.504,39.328 L118.504,38.272 L116.936,38.272 L116.936,36.16 L115.736,36.16 L115.736,38.272 L114.456,38.272 L114.456,39.328 L115.736,39.328 L115.736,44.384 C115.736,45.536 116.312,46.192 117.448,46.192 Z" id="26px-text" fill="#6A7792"></path>
                    <path d="M0.6,11 L7.928,11 L7.928,9.816 L2.696,9.816 C5.672,7.464 7.88,5.48 7.88,3.304 C7.88,1.176 6.072,0.168 4.296,0.168 C2.792,0.168 1.4,0.776 0.584,1.848 L1.4,2.696 C2.024,1.896 3.016,1.352 4.296,1.352 C5.4,1.352 6.52,1.944 6.52,3.304 C6.52,5.144 4.44,6.92 0.6,9.944 L0.6,11 Z M9.624,7.656 L13.464,7.656 L13.464,6.6 L9.624,6.6 L9.624,7.656 Z M14.408,9.432 C15.064,10.392 16.392,11.192 18.2,11.192 C20.552,11.192 21.976,9.896 21.976,8.12 C21.976,6.408 20.488,5.576 19.512,5.496 C20.52,5.32 21.816,4.552 21.816,3.016 C21.816,1.208 20.248,0.168 18.2,0.168 C16.552,0.168 15.32,0.888 14.552,1.816 L15.288,2.648 C16.072,1.8 16.936,1.352 18.104,1.352 C19.4,1.352 20.488,1.992 20.488,3.176 C20.488,4.408 19.352,4.936 18.008,4.936 C17.576,4.936 17.08,4.936 16.904,4.92 L16.904,6.136 C17.064,6.12 17.56,6.12 18.008,6.12 C19.576,6.12 20.664,6.68 20.664,8.008 C20.664,9.24 19.72,10.008 18.168,10.008 C16.904,10.008 15.816,9.432 15.192,8.6 L14.408,9.432 Z M28.184,11 L29.384,11 L29.384,0.328 L28.184,0.328 L28.184,11 Z M31.336,7.128 C31.336,4.888 32.936,3.08 35.144,3.08 C37.48,3.08 38.856,4.904 38.856,7.224 L38.856,7.528 L32.6,7.528 C32.696,8.984 33.72,10.2 35.384,10.2 C36.264,10.2 37.16,9.848 37.768,9.224 L38.344,10.008 C37.576,10.776 36.536,11.192 35.272,11.192 C32.984,11.192 31.336,9.544 31.336,7.128 Z M35.128,4.072 C33.48,4.072 32.664,5.464 32.6,6.648 L37.672,6.648 C37.656,5.496 36.888,4.072 35.128,4.072 Z M42.744,11.192 C43.448,11.192 43.88,10.984 44.184,10.696 L43.832,9.8 C43.672,9.976 43.352,10.12 43.016,10.12 C42.488,10.12 42.232,9.704 42.232,9.128 L42.232,4.328 L43.8,4.328 L43.8,3.272 L42.232,3.272 L42.232,1.16 L41.032,1.16 L41.032,3.272 L39.752,3.272 L39.752,4.328 L41.032,4.328 L41.032,9.384 C41.032,10.536 41.608,11.192 42.744,11.192 Z M47.448,11.192 C48.152,11.192 48.584,10.984 48.888,10.696 L48.536,9.8 C48.376,9.976 48.056,10.12 47.72,10.12 C47.192,10.12 46.936,9.704 46.936,9.128 L46.936,4.328 L48.504,4.328 L48.504,3.272 L46.936,3.272 L46.936,1.16 L45.736,1.16 L45.736,3.272 L44.456,3.272 L44.456,4.328 L45.736,4.328 L45.736,9.384 C45.736,10.536 46.312,11.192 47.448,11.192 Z M49.752,7.128 C49.752,4.888 51.352,3.08 53.56,3.08 C55.896,3.08 57.272,4.904 57.272,7.224 L57.272,7.528 L51.016,7.528 C51.112,8.984 52.136,10.2 53.8,10.2 C54.68,10.2 55.576,9.848 56.184,9.224 L56.76,10.008 C55.992,10.776 54.952,11.192 53.688,11.192 C51.4,11.192 49.752,9.544 49.752,7.128 Z M53.544,4.072 C51.896,4.072 51.08,5.464 51.016,6.648 L56.088,6.648 C56.072,5.496 55.304,4.072 53.544,4.072 Z M59.208,11 L60.408,11 L60.408,5.528 C60.76,4.904 61.768,4.296 62.504,4.296 C62.696,4.296 62.84,4.312 62.984,4.344 L62.984,3.112 C61.928,3.112 61.032,3.704 60.408,4.52 L60.408,3.272 L59.208,3.272 L59.208,11 Z M63.816,9.976 C64.6,10.808 65.672,11.192 66.936,11.192 C68.936,11.192 69.976,10.152 69.976,8.856 C69.976,7.144 68.424,6.76 67.08,6.456 C66.072,6.216 65.192,5.976 65.192,5.224 C65.192,4.536 65.848,4.056 66.904,4.056 C67.896,4.056 68.744,4.472 69.208,5.032 L69.768,4.2 C69.144,3.576 68.216,3.08 66.904,3.08 C65.064,3.08 64.024,4.104 64.024,5.304 C64.024,6.904 65.512,7.256 66.824,7.56 C67.864,7.816 68.808,8.088 68.808,8.936 C68.808,9.688 68.168,10.216 66.984,10.216 C65.928,10.216 64.952,9.704 64.44,9.112 L63.816,9.976 Z M76.056,11 L77.256,11 L77.256,0.328 L76.056,0.328 L76.056,11 Z M79.208,7.128 C79.208,4.888 80.808,3.08 83.016,3.08 C85.352,3.08 86.728,4.904 86.728,7.224 L86.728,7.528 L80.472,7.528 C80.568,8.984 81.592,10.2 83.256,10.2 C84.136,10.2 85.032,9.848 85.64,9.224 L86.216,10.008 C85.448,10.776 84.408,11.192 83.144,11.192 C80.856,11.192 79.208,9.544 79.208,7.128 Z M83,4.072 C81.352,4.072 80.536,5.464 80.472,6.648 L85.544,6.648 C85.528,5.496 84.76,4.072 83,4.072 Z M93.88,11 L95.08,11 L95.08,5.576 C95.08,3.896 94.232,3.08 92.616,3.08 C91.464,3.08 90.408,3.752 89.864,4.392 L89.864,3.272 L88.664,3.272 L88.664,11 L89.864,11 L89.864,5.352 C90.312,4.728 91.208,4.152 92.152,4.152 C93.192,4.152 93.88,4.584 93.88,5.944 L93.88,11 Z M97.464,12.984 L98.072,12.088 C98.712,12.856 99.48,13.144 100.584,13.144 C101.864,13.144 103.064,12.52 103.064,10.824 L103.064,9.72 C102.504,10.504 101.56,11.096 100.472,11.096 C98.456,11.096 97.032,9.592 97.032,7.096 C97.032,4.616 98.44,3.08 100.472,3.08 C101.512,3.08 102.44,3.592 103.064,4.44 L103.064,3.272 L104.264,3.272 L104.264,10.776 C104.264,13.336 102.472,14.136 100.584,14.136 C99.272,14.136 98.376,13.88 97.464,12.984 Z M103.064,8.776 L103.064,5.4 C102.648,4.728 101.72,4.152 100.76,4.152 C99.208,4.152 98.28,5.384 98.28,7.096 C98.28,8.792 99.208,10.04 100.76,10.04 C101.72,10.04 102.648,9.448 103.064,8.776 Z M108.616,11.192 C109.32,11.192 109.752,10.984 110.056,10.696 L109.704,9.8 C109.544,9.976 109.224,10.12 108.888,10.12 C108.36,10.12 108.104,9.704 108.104,9.128 L108.104,4.328 L109.672,4.328 L109.672,3.272 L108.104,3.272 L108.104,1.16 L106.904,1.16 L106.904,3.272 L105.624,3.272 L105.624,4.328 L106.904,4.328 L106.904,9.384 C106.904,10.536 107.48,11.192 108.616,11.192 Z M116.6,11 L117.8,11 L117.8,5.544 C117.8,3.864 116.952,3.08 115.336,3.08 C114.168,3.08 113.112,3.752 112.568,4.392 L112.568,0.328 L111.368,0.328 L111.368,11 L112.568,11 L112.568,5.352 C113.032,4.728 113.928,4.152 114.856,4.152 C115.896,4.152 116.6,4.552 116.6,5.912 L116.6,11 Z" id="2-3-letters-length" fill="#6A7792"></path>
                </g>
            </g>
        </g>
    </g>
</svg>