<svg id="Layer_1" data-name="Layer 1" xmlns="http://www.w3.org/2000/svg" viewBox="0 0 32 55.65"><defs><style>.cls-1{fill:#c5c7c7;}.cls-2{fill:#9ea2a2;}.cls-3{fill:#3e4545;}.cls-4{fill:#c8102e;}.cls-5{fill:#e38796;}</style></defs><title>brandmark</title><g id="Layer_2" data-name="Layer 2"><path class="cls-1" d="M25.8,37.3A8.3,8.3,0,1,1,17.5,29a8.28,8.28,0,0,1,8.3,8.3" transform="translate(-2.2 -1.55)"/><path class="cls-1" d="M20.7,44.4l.5-.1A7,7,0,0,0,22.9,43h0l.3-.3,3.6,4.1-.3.2a11.6,11.6,0,0,1-2.1,1.6h0l-.3.2-3.1-4Z" transform="translate(-2.2 -1.55)"/><path class="cls-1" d="M32.7,48.9a5.28,5.28,0,0,0-4-1.9h-.1l-.1.1a11.82,11.82,0,0,1-4.3,3.4l-.1.1v.1a3.75,3.75,0,0,0-.1,1.1,5.42,5.42,0,0,0,5.4,5.4h0a5.1,5.1,0,0,0,3.1-1.1,4.8,4.8,0,0,0,1.7-3.7A8.47,8.47,0,0,0,32.7,48.9Z" transform="translate(-2.2 -1.55)"/><path class="cls-2" d="M23.5,43l-5.3-6h0a1.5,1.5,0,0,0-1.1-.4,1.1,1.1,0,0,0-.9.3,1.23,1.23,0,0,0-.4.8,1.08,1.08,0,0,0,.3.7L21,44.7A7.39,7.39,0,0,0,23.5,43Z" transform="translate(-2.2 -1.55)"/><path class="cls-3" d="M17.4,22.1A15.2,15.2,0,1,0,32.6,37.3,15.19,15.19,0,0,0,17.4,22.1Zm0,28.3A13.1,13.1,0,1,1,30.5,37.3,13.08,13.08,0,0,1,17.4,50.4Z" transform="translate(-2.2 -1.55)"/><path class="cls-3" d="M18.6,37.4c-.1.7-.7,1.3-1.3,1.2a1.36,1.36,0,0,1-1.1-1.5l1-20.1c.1-.8,1.7-1.2,2.4-1.1s2.2.8,2.1,1.6Z" transform="translate(-2.2 -1.55)"/><path class="cls-4" d="M28.8,10.9a8.45,8.45,0,1,1-7.5-9.3,8.57,8.57,0,0,1,7.5,9.3" transform="translate(-2.2 -1.55)"/><path class="cls-5" d="M23.5,4.8c.3,1.5-1.3,3.1-3.6,3.6s-4.4-.3-4.7-1.8S16.5,3.5,18.8,3s4.4.3,4.7,1.8" transform="translate(-2.2 -1.55)"/></g></svg>