<?xml version="1.0" encoding="UTF-8"?>
<svg width="514px" height="123px" viewBox="0 0 514 123" version="1.1" xmlns="http://www.w3.org/2000/svg" xmlns:xlink="http://www.w3.org/1999/xlink">
    <!-- Generator: Sketch 45.2 (43514) - http://www.bohemiancoding.com/sketch -->
    <title>dash length export 2</title>
    <desc>Created with Sketch.</desc>
    <defs>
        <linearGradient x1="82.0974414%" y1="50%" x2="40.86711%" y2="50%" id="linearGradient-1">
            <stop stop-color="#FFFFFF" offset="0%"></stop>
            <stop stop-color="#071D49" offset="100%"></stop>
        </linearGradient>
    </defs>
    <g id="Page-1" stroke="none" stroke-width="1" fill="none" fill-rule="evenodd">
        <g id="7-12-4" transform="translate(-741.000000, -4033.000000)">
            <g id="dash-length-export-2" transform="translate(740.000000, 4028.000000)">
                <g id="outline">
                    <path d="M1.6,16 L8.928,16 L8.928,14.816 L3.696,14.816 C6.672,12.464 8.88,10.48 8.88,8.304 C8.88,6.176 7.072,5.168 5.296,5.168 C3.792,5.168 2.4,5.776 1.584,6.848 L2.4,7.696 C3.024,6.896 4.016,6.352 5.296,6.352 C6.4,6.352 7.52,6.944 7.52,8.304 C7.52,10.144 5.44,11.92 1.6,14.944 L1.6,16 Z M10.624,12.656 L14.464,12.656 L14.464,11.6 L10.624,11.6 L10.624,12.656 Z M15.408,14.432 C16.064,15.392 17.392,16.192 19.2,16.192 C21.552,16.192 22.976,14.896 22.976,13.12 C22.976,11.408 21.488,10.576 20.512,10.496 C21.52,10.32 22.816,9.552 22.816,8.016 C22.816,6.208 21.248,5.168 19.2,5.168 C17.552,5.168 16.32,5.888 15.552,6.816 L16.288,7.648 C17.072,6.8 17.936,6.352 19.104,6.352 C20.4,6.352 21.488,6.992 21.488,8.176 C21.488,9.408 20.352,9.936 19.008,9.936 C18.576,9.936 18.08,9.936 17.904,9.92 L17.904,11.136 C18.064,11.12 18.56,11.12 19.008,11.12 C20.576,11.12 21.664,11.68 21.664,13.008 C21.664,14.24 20.72,15.008 19.168,15.008 C17.904,15.008 16.816,14.432 16.192,13.6 L15.408,14.432 Z M29.184,16 L30.384,16 L30.384,5.328 L29.184,5.328 L29.184,16 Z M32.336,12.128 C32.336,9.888 33.936,8.08 36.144,8.08 C38.48,8.08 39.856,9.904 39.856,12.224 L39.856,12.528 L33.6,12.528 C33.696,13.984 34.72,15.2 36.384,15.2 C37.264,15.2 38.16,14.848 38.768,14.224 L39.344,15.008 C38.576,15.776 37.536,16.192 36.272,16.192 C33.984,16.192 32.336,14.544 32.336,12.128 Z M36.128,9.072 C34.48,9.072 33.664,10.464 33.6,11.648 L38.672,11.648 C38.656,10.496 37.888,9.072 36.128,9.072 Z M43.744,16.192 C44.448,16.192 44.88,15.984 45.184,15.696 L44.832,14.8 C44.672,14.976 44.352,15.12 44.016,15.12 C43.488,15.12 43.232,14.704 43.232,14.128 L43.232,9.328 L44.8,9.328 L44.8,8.272 L43.232,8.272 L43.232,6.16 L42.032,6.16 L42.032,8.272 L40.752,8.272 L40.752,9.328 L42.032,9.328 L42.032,14.384 C42.032,15.536 42.608,16.192 43.744,16.192 Z M48.448,16.192 C49.152,16.192 49.584,15.984 49.888,15.696 L49.536,14.8 C49.376,14.976 49.056,15.12 48.72,15.12 C48.192,15.12 47.936,14.704 47.936,14.128 L47.936,9.328 L49.504,9.328 L49.504,8.272 L47.936,8.272 L47.936,6.16 L46.736,6.16 L46.736,8.272 L45.456,8.272 L45.456,9.328 L46.736,9.328 L46.736,14.384 C46.736,15.536 47.312,16.192 48.448,16.192 Z M50.752,12.128 C50.752,9.888 52.352,8.08 54.56,8.08 C56.896,8.08 58.272,9.904 58.272,12.224 L58.272,12.528 L52.016,12.528 C52.112,13.984 53.136,15.2 54.8,15.2 C55.68,15.2 56.576,14.848 57.184,14.224 L57.76,15.008 C56.992,15.776 55.952,16.192 54.688,16.192 C52.4,16.192 50.752,14.544 50.752,12.128 Z M54.544,9.072 C52.896,9.072 52.08,10.464 52.016,11.648 L57.088,11.648 C57.072,10.496 56.304,9.072 54.544,9.072 Z M60.208,16 L61.408,16 L61.408,10.528 C61.76,9.904 62.768,9.296 63.504,9.296 C63.696,9.296 63.84,9.312 63.984,9.344 L63.984,8.112 C62.928,8.112 62.032,8.704 61.408,9.52 L61.408,8.272 L60.208,8.272 L60.208,16 Z M64.816,14.976 C65.6,15.808 66.672,16.192 67.936,16.192 C69.936,16.192 70.976,15.152 70.976,13.856 C70.976,12.144 69.424,11.76 68.08,11.456 C67.072,11.216 66.192,10.976 66.192,10.224 C66.192,9.536 66.848,9.056 67.904,9.056 C68.896,9.056 69.744,9.472 70.208,10.032 L70.768,9.2 C70.144,8.576 69.216,8.08 67.904,8.08 C66.064,8.08 65.024,9.104 65.024,10.304 C65.024,11.904 66.512,12.256 67.824,12.56 C68.864,12.816 69.808,13.088 69.808,13.936 C69.808,14.688 69.168,15.216 67.984,15.216 C66.928,15.216 65.952,14.704 65.44,14.112 L64.816,14.976 Z M77.056,16 L78.256,16 L78.256,5.328 L77.056,5.328 L77.056,16 Z M80.208,12.128 C80.208,9.888 81.808,8.08 84.016,8.08 C86.352,8.08 87.728,9.904 87.728,12.224 L87.728,12.528 L81.472,12.528 C81.568,13.984 82.592,15.2 84.256,15.2 C85.136,15.2 86.032,14.848 86.64,14.224 L87.216,15.008 C86.448,15.776 85.408,16.192 84.144,16.192 C81.856,16.192 80.208,14.544 80.208,12.128 Z M84,9.072 C82.352,9.072 81.536,10.464 81.472,11.648 L86.544,11.648 C86.528,10.496 85.76,9.072 84,9.072 Z M94.88,16 L96.08,16 L96.08,10.576 C96.08,8.896 95.232,8.08 93.616,8.08 C92.464,8.08 91.408,8.752 90.864,9.392 L90.864,8.272 L89.664,8.272 L89.664,16 L90.864,16 L90.864,10.352 C91.312,9.728 92.208,9.152 93.152,9.152 C94.192,9.152 94.88,9.584 94.88,10.944 L94.88,16 Z M98.464,17.984 L99.072,17.088 C99.712,17.856 100.48,18.144 101.584,18.144 C102.864,18.144 104.064,17.52 104.064,15.824 L104.064,14.72 C103.504,15.504 102.56,16.096 101.472,16.096 C99.456,16.096 98.032,14.592 98.032,12.096 C98.032,9.616 99.44,8.08 101.472,8.08 C102.512,8.08 103.44,8.592 104.064,9.44 L104.064,8.272 L105.264,8.272 L105.264,15.776 C105.264,18.336 103.472,19.136 101.584,19.136 C100.272,19.136 99.376,18.88 98.464,17.984 Z M104.064,13.776 L104.064,10.4 C103.648,9.728 102.72,9.152 101.76,9.152 C100.208,9.152 99.28,10.384 99.28,12.096 C99.28,13.792 100.208,15.04 101.76,15.04 C102.72,15.04 103.648,14.448 104.064,13.776 Z M109.616,16.192 C110.32,16.192 110.752,15.984 111.056,15.696 L110.704,14.8 C110.544,14.976 110.224,15.12 109.888,15.12 C109.36,15.12 109.104,14.704 109.104,14.128 L109.104,9.328 L110.672,9.328 L110.672,8.272 L109.104,8.272 L109.104,6.16 L107.904,6.16 L107.904,8.272 L106.624,8.272 L106.624,9.328 L107.904,9.328 L107.904,14.384 C107.904,15.536 108.48,16.192 109.616,16.192 Z M117.6,16 L118.8,16 L118.8,10.544 C118.8,8.864 117.952,8.08 116.336,8.08 C115.168,8.08 114.112,8.752 113.568,9.392 L113.568,5.328 L112.368,5.328 L112.368,16 L113.568,16 L113.568,10.352 C114.032,9.728 114.928,9.152 115.856,9.152 C116.896,9.152 117.6,9.552 117.6,10.912 L117.6,16 Z" id="2-3-letters-length-copy" fill="#6A7792"></path>
                    <path d="M36.528,104.432 C37.184,105.392 38.512,106.192 40.32,106.192 C42.672,106.192 44.096,104.896 44.096,103.12 C44.096,101.408 42.608,100.576 41.632,100.496 C42.64,100.32 43.936,99.552 43.936,98.016 C43.936,96.208 42.368,95.168 40.32,95.168 C38.672,95.168 37.44,95.888 36.672,96.816 L37.408,97.648 C38.192,96.8 39.056,96.352 40.224,96.352 C41.52,96.352 42.608,96.992 42.608,98.176 C42.608,99.408 41.472,99.936 40.128,99.936 C39.696,99.936 39.2,99.936 39.024,99.92 L39.024,101.136 C39.184,101.12 39.68,101.12 40.128,101.12 C41.696,101.12 42.784,101.68 42.784,103.008 C42.784,104.24 41.84,105.008 40.288,105.008 C39.024,105.008 37.936,104.432 37.312,103.6 L36.528,104.432 Z M45.792,100.672 C45.792,98.064 46.944,95.168 49.872,95.168 C52.784,95.168 53.952,98.064 53.952,100.672 C53.952,103.264 52.784,106.192 49.872,106.192 C46.944,106.192 45.792,103.264 45.792,100.672 Z M52.592,100.672 C52.592,98.544 51.904,96.352 49.872,96.352 C47.84,96.352 47.152,98.544 47.152,100.672 C47.152,102.8 47.84,105.008 49.872,105.008 C51.904,105.008 52.592,102.8 52.592,100.672 Z M57.168,108.944 L55.968,108.944 L55.968,98.272 L57.168,98.272 L57.168,99.424 C57.728,98.64 58.688,98.08 59.776,98.08 C61.808,98.08 63.216,99.616 63.216,102.128 C63.216,104.624 61.808,106.192 59.776,106.192 C58.72,106.192 57.792,105.696 57.168,104.832 L57.168,108.944 Z M61.952,102.128 C61.952,100.416 61.024,99.152 59.472,99.152 C58.528,99.152 57.584,99.712 57.168,100.384 L57.168,103.872 C57.584,104.544 58.528,105.12 59.472,105.12 C61.024,105.12 61.952,103.84 61.952,102.128 Z M70.16,106 L71.552,106 L68.576,102.032 L71.376,98.272 L69.984,98.272 L67.84,101.216 L65.696,98.272 L64.304,98.272 L67.104,102.032 L64.144,106 L65.52,106 L67.84,102.832 L70.16,106 Z M77.056,106 L78.256,106 L78.256,95.328 L77.056,95.328 L77.056,106 Z M80.208,102.128 C80.208,99.888 81.808,98.08 84.016,98.08 C86.352,98.08 87.728,99.904 87.728,102.224 L87.728,102.528 L81.472,102.528 C81.568,103.984 82.592,105.2 84.256,105.2 C85.136,105.2 86.032,104.848 86.64,104.224 L87.216,105.008 C86.448,105.776 85.408,106.192 84.144,106.192 C81.856,106.192 80.208,104.544 80.208,102.128 Z M84,99.072 C82.352,99.072 81.536,100.464 81.472,101.648 L86.544,101.648 C86.528,100.496 85.76,99.072 84,99.072 Z M94.88,106 L96.08,106 L96.08,100.576 C96.08,98.896 95.232,98.08 93.616,98.08 C92.464,98.08 91.408,98.752 90.864,99.392 L90.864,98.272 L89.664,98.272 L89.664,106 L90.864,106 L90.864,100.352 C91.312,99.728 92.208,99.152 93.152,99.152 C94.192,99.152 94.88,99.584 94.88,100.944 L94.88,106 Z M98.464,107.984 L99.072,107.088 C99.712,107.856 100.48,108.144 101.584,108.144 C102.864,108.144 104.064,107.52 104.064,105.824 L104.064,104.72 C103.504,105.504 102.56,106.096 101.472,106.096 C99.456,106.096 98.032,104.592 98.032,102.096 C98.032,99.616 99.44,98.08 101.472,98.08 C102.512,98.08 103.44,98.592 104.064,99.44 L104.064,98.272 L105.264,98.272 L105.264,105.776 C105.264,108.336 103.472,109.136 101.584,109.136 C100.272,109.136 99.376,108.88 98.464,107.984 Z M104.064,103.776 L104.064,100.4 C103.648,99.728 102.72,99.152 101.76,99.152 C100.208,99.152 99.28,100.384 99.28,102.096 C99.28,103.792 100.208,105.04 101.76,105.04 C102.72,105.04 103.648,104.448 104.064,103.776 Z M109.616,106.192 C110.32,106.192 110.752,105.984 111.056,105.696 L110.704,104.8 C110.544,104.976 110.224,105.12 109.888,105.12 C109.36,105.12 109.104,104.704 109.104,104.128 L109.104,99.328 L110.672,99.328 L110.672,98.272 L109.104,98.272 L109.104,96.16 L107.904,96.16 L107.904,98.272 L106.624,98.272 L106.624,99.328 L107.904,99.328 L107.904,104.384 C107.904,105.536 108.48,106.192 109.616,106.192 Z M117.6,106 L118.8,106 L118.8,100.544 C118.8,98.864 117.952,98.08 116.336,98.08 C115.168,98.08 114.112,98.752 113.568,99.392 L113.568,95.328 L112.368,95.328 L112.368,106 L113.568,106 L113.568,100.352 C114.032,99.728 114.928,99.152 115.856,99.152 C116.896,99.152 117.6,99.552 117.6,100.912 L117.6,106 Z M46.56,125 L53.888,125 L53.888,123.816 L48.656,123.816 C51.632,121.464 53.84,119.48 53.84,117.304 C53.84,115.176 52.032,114.168 50.256,114.168 C48.752,114.168 47.36,114.776 46.544,115.848 L47.36,116.696 C47.984,115.896 48.976,115.352 50.256,115.352 C51.36,115.352 52.48,115.944 52.48,117.304 C52.48,119.144 50.4,120.92 46.56,123.944 L46.56,125 Z M57.504,127.944 L56.304,127.944 L56.304,117.272 L57.504,117.272 L57.504,118.424 C58.064,117.64 59.024,117.08 60.112,117.08 C62.144,117.08 63.552,118.616 63.552,121.128 C63.552,123.624 62.144,125.192 60.112,125.192 C59.056,125.192 58.128,124.696 57.504,123.832 L57.504,127.944 Z M62.288,121.128 C62.288,119.416 61.36,118.152 59.808,118.152 C58.864,118.152 57.92,118.712 57.504,119.384 L57.504,122.872 C57.92,123.544 58.864,124.12 59.808,124.12 C61.36,124.12 62.288,122.84 62.288,121.128 Z M70.496,125 L71.888,125 L68.912,121.032 L71.712,117.272 L70.32,117.272 L68.176,120.216 L66.032,117.272 L64.64,117.272 L67.44,121.032 L64.48,125 L65.856,125 L68.176,121.832 L70.496,125 Z M76.72,123.976 C77.504,124.808 78.576,125.192 79.84,125.192 C81.84,125.192 82.88,124.152 82.88,122.856 C82.88,121.144 81.328,120.76 79.984,120.456 C78.976,120.216 78.096,119.976 78.096,119.224 C78.096,118.536 78.752,118.056 79.808,118.056 C80.8,118.056 81.648,118.472 82.112,119.032 L82.672,118.2 C82.048,117.576 81.12,117.08 79.808,117.08 C77.968,117.08 76.928,118.104 76.928,119.304 C76.928,120.904 78.416,121.256 79.728,121.56 C80.768,121.816 81.712,122.088 81.712,122.936 C81.712,123.688 81.072,124.216 79.888,124.216 C78.832,124.216 77.856,123.704 77.344,123.112 L76.72,123.976 Z M86.784,125.192 C87.488,125.192 87.92,124.984 88.224,124.696 L87.872,123.8 C87.712,123.976 87.392,124.12 87.056,124.12 C86.528,124.12 86.272,123.704 86.272,123.128 L86.272,118.328 L87.84,118.328 L87.84,117.272 L86.272,117.272 L86.272,115.16 L85.072,115.16 L85.072,117.272 L83.792,117.272 L83.792,118.328 L85.072,118.328 L85.072,123.384 C85.072,124.536 85.648,125.192 86.784,125.192 Z M89.536,125 L90.736,125 L90.736,119.528 C91.088,118.904 92.096,118.296 92.832,118.296 C93.024,118.296 93.168,118.312 93.312,118.344 L93.312,117.112 C92.256,117.112 91.36,117.704 90.736,118.52 L90.736,117.272 L89.536,117.272 L89.536,125 Z M98.192,125.192 C95.84,125.192 94.368,123.368 94.368,121.128 C94.368,118.888 95.84,117.08 98.192,117.08 C100.544,117.08 102.016,118.888 102.016,121.128 C102.016,123.368 100.544,125.192 98.192,125.192 Z M98.192,124.12 C99.84,124.12 100.752,122.712 100.752,121.128 C100.752,119.56 99.84,118.152 98.192,118.152 C96.544,118.152 95.616,119.56 95.616,121.128 C95.616,122.712 96.544,124.12 98.192,124.12 Z M109.232,125 L110.768,125 L107.328,120.776 L110.752,117.272 L109.232,117.272 L105.168,121.384 L105.168,114.328 L103.968,114.328 L103.968,125 L105.168,125 L105.168,122.792 L106.448,121.528 L109.232,125 Z M111.744,121.128 C111.744,118.888 113.344,117.08 115.552,117.08 C117.888,117.08 119.264,118.904 119.264,121.224 L119.264,121.528 L113.008,121.528 C113.104,122.984 114.128,124.2 115.792,124.2 C116.672,124.2 117.568,123.848 118.176,123.224 L118.752,124.008 C117.984,124.776 116.944,125.192 115.68,125.192 C113.392,125.192 111.744,123.544 111.744,121.128 Z M115.536,118.072 C113.888,118.072 113.072,119.464 113.008,120.648 L118.08,120.648 C118.064,119.496 117.296,118.072 115.536,118.072 Z" id="30px-length-2px-stro-copy" fill="#6A7792"></path>
                    <path d="M54.72,50 L62.048,50 L62.048,48.816 L56.816,48.816 C59.792,46.464 62,44.48 62,42.304 C62,40.176 60.192,39.168 58.416,39.168 C56.912,39.168 55.52,39.776 54.704,40.848 L55.52,41.696 C56.144,40.896 57.136,40.352 58.416,40.352 C59.52,40.352 60.64,40.944 60.64,42.304 C60.64,44.144 58.56,45.92 54.72,48.944 L54.72,50 Z M64.08,44.688 C64.08,41.792 65.424,39.168 68.416,39.168 C69.792,39.168 70.72,39.696 71.376,40.448 L70.704,41.44 C70.16,40.8 69.536,40.352 68.416,40.352 C66.352,40.352 65.408,42.448 65.408,44.544 C65.408,44.688 65.408,44.816 65.424,44.96 C65.888,44.224 67.072,43.296 68.448,43.296 C70.368,43.296 71.936,44.432 71.936,46.704 C71.936,48.56 70.528,50.192 68.192,50.192 C65.216,50.192 64.08,47.584 64.08,44.688 Z M70.592,46.752 C70.592,45.184 69.504,44.448 68.128,44.448 C67.072,44.448 66.048,45.104 65.456,46.048 C65.584,47.376 66.288,49.008 68.144,49.008 C69.792,49.008 70.592,47.776 70.592,46.752 Z M75.12,52.944 L73.92,52.944 L73.92,42.272 L75.12,42.272 L75.12,43.424 C75.68,42.64 76.64,42.08 77.728,42.08 C79.76,42.08 81.168,43.616 81.168,46.128 C81.168,48.624 79.76,50.192 77.728,50.192 C76.672,50.192 75.744,49.696 75.12,48.832 L75.12,52.944 Z M79.904,46.128 C79.904,44.416 78.976,43.152 77.424,43.152 C76.48,43.152 75.536,43.712 75.12,44.384 L75.12,47.872 C75.536,48.544 76.48,49.12 77.424,49.12 C78.976,49.12 79.904,47.84 79.904,46.128 Z M88.112,50 L89.504,50 L86.528,46.032 L89.328,42.272 L87.936,42.272 L85.792,45.216 L83.648,42.272 L82.256,42.272 L85.056,46.032 L82.096,50 L83.472,50 L85.792,46.832 L88.112,50 Z M96.96,50.192 C97.664,50.192 98.096,49.984 98.4,49.696 L98.048,48.8 C97.888,48.976 97.568,49.12 97.232,49.12 C96.704,49.12 96.448,48.704 96.448,48.128 L96.448,43.328 L98.016,43.328 L98.016,42.272 L96.448,42.272 L96.448,40.16 L95.248,40.16 L95.248,42.272 L93.968,42.272 L93.968,43.328 L95.248,43.328 L95.248,48.384 C95.248,49.536 95.824,50.192 96.96,50.192 Z M99.264,46.128 C99.264,43.888 100.864,42.08 103.072,42.08 C105.408,42.08 106.784,43.904 106.784,46.224 L106.784,46.528 L100.528,46.528 C100.624,47.984 101.648,49.2 103.312,49.2 C104.192,49.2 105.088,48.848 105.696,48.224 L106.272,49.008 C105.504,49.776 104.464,50.192 103.2,50.192 C100.912,50.192 99.264,48.544 99.264,46.128 Z M103.056,43.072 C101.408,43.072 100.592,44.464 100.528,45.648 L105.6,45.648 C105.584,44.496 104.816,43.072 103.056,43.072 Z M113.728,50 L115.12,50 L112.144,46.032 L114.944,42.272 L113.552,42.272 L111.408,45.216 L109.264,42.272 L107.872,42.272 L110.672,46.032 L107.712,50 L109.088,50 L111.408,46.832 L113.728,50 Z M118.448,50.192 C119.152,50.192 119.584,49.984 119.888,49.696 L119.536,48.8 C119.376,48.976 119.056,49.12 118.72,49.12 C118.192,49.12 117.936,48.704 117.936,48.128 L117.936,43.328 L119.504,43.328 L119.504,42.272 L117.936,42.272 L117.936,40.16 L116.736,40.16 L116.736,42.272 L115.456,42.272 L115.456,43.328 L116.736,43.328 L116.736,48.384 C116.736,49.536 117.312,50.192 118.448,50.192 Z" id="26px-text-copy" fill="#6A7792"></path>
                    <path d="M139.91,61 L143.452,61 L143.452,29.168 L139.91,29.168 L139.91,61 Z M162.542,40.99 L162.542,38 L155.228,38 L155.228,30.962 L151.824,30.962 L151.824,38 L148.558,38 L148.558,40.99 L151.824,40.99 L151.824,53.088 C151.824,59.712 153.434,61.506 158.172,61.506 C159.782,61.506 162.864,61 162.864,61 L162.634,58.148 C162.634,58.148 159.828,58.424 158.54,58.424 C155.55,58.424 155.228,56.998 155.228,51.984 L155.228,40.99 L162.542,40.99 Z M165.9,38.506 L168.614,38.506 L171.558,28.432 L167.924,28.432 L165.9,38.506 Z M192.074,38.414 C192.074,38.414 187.198,37.54 183.748,37.54 C179.562,37.54 175.468,39.196 175.468,44.256 C175.468,48.856 177.952,49.822 183.15,50.65 C188.164,51.432 189.36,52.03 189.36,54.422 C189.36,57.55 187.336,58.378 183.564,58.378 C181.218,58.378 175.974,57.596 175.974,57.596 L175.79,60.586 C175.79,60.586 180.942,61.46 183.886,61.46 C189.406,61.46 192.81,59.666 192.81,54.284 C192.81,49.822 190.648,48.672 184.898,47.706 C180.022,46.878 178.918,46.28 178.918,44.118 C178.918,41.404 181.08,40.622 183.932,40.622 C186.876,40.622 191.982,41.358 191.982,41.358 L192.074,38.414 Z M205.506,32.342 L215.304,32.342 L215.304,61 L218.8,61 L218.8,32.342 L228.506,32.342 L228.506,29.168 L205.506,29.168 L205.506,32.342 Z M232.416,61 L235.866,61 L235.866,38 L232.416,38 L232.416,61 Z M232.416,32.802 L235.866,32.802 L235.866,28.8 L232.416,28.8 L232.416,32.802 Z M245.94,61 L245.94,42.324 C245.94,42.324 248.838,40.622 252.104,40.622 C256.29,40.622 256.934,42.784 256.934,49.132 L256.934,61 L260.384,61 L260.384,49.04 C260.384,46.28 260.2,43.382 259.786,42.324 C259.786,42.324 262.868,40.622 266.272,40.622 C270.412,40.622 271.102,42.876 271.102,48.948 L271.102,61 L274.552,61 L274.552,48.856 C274.552,40.53 273.034,37.54 266.778,37.54 C262.684,37.54 258.59,39.886 258.59,39.886 C257.394,38.23 255.692,37.54 252.61,37.54 C249.344,37.54 245.894,39.61 245.894,39.61 L245.894,38 L242.49,38 L242.49,61 L245.94,61 Z M289.456,58.424 C292.906,58.424 297.92,58.01 297.92,58.01 L298.012,60.724 C298.012,60.724 292.768,61.46 289.042,61.46 C282.188,61.46 279.934,57.458 279.934,49.638 C279.934,40.898 283.706,37.54 289.548,37.54 C295.666,37.54 298.794,40.76 298.794,48.304 L298.61,50.926 L283.43,50.926 C283.43,55.848 284.948,58.424 289.456,58.424 Z M283.384,48.166 L295.344,48.166 C295.344,42.462 293.596,40.438 289.548,40.438 C285.638,40.438 283.43,42.6 283.384,48.166 Z M318.712,40.99 L325.382,40.99 L325.382,38 L318.712,38 L318.712,35.976 C318.712,31.698 319.54,30.594 322.116,30.594 C323.496,30.594 326.072,30.686 326.072,30.686 L326.118,27.834 C326.118,27.834 323.036,27.512 321.472,27.512 C316.964,27.512 315.262,29.306 315.262,35.93 L315.262,38 L312.364,38 L312.364,40.99 L315.262,40.99 L315.262,61 L318.712,61 L318.712,40.99 Z M338.354,37.54 C345.668,37.54 348.198,41.312 348.198,49.224 C348.198,57.596 346.128,61.46 338.354,61.46 C330.626,61.46 328.51,57.596 328.51,49.224 C328.51,41.312 331.086,37.54 338.354,37.54 Z M338.354,58.47 C343.828,58.47 344.656,55.756 344.656,49.224 C344.656,42.83 343.276,40.53 338.354,40.53 C333.478,40.53 332.052,42.83 332.052,49.224 C332.052,55.756 332.926,58.47 338.354,58.47 Z M353.81,61 L357.26,61 L357.26,44.118 C357.26,44.118 361.308,41.864 365.632,40.99 L365.632,37.494 C361.216,38.368 357.214,41.128 357.214,41.128 L357.214,38 L353.81,38 L353.81,61 Z M380.444,61 L383.986,61 L383.986,32.94 L384.63,32.94 L393.876,59.85 L397.832,59.85 L407.078,32.94 L407.722,32.94 L407.722,61 L411.264,61 L411.264,29.168 L404.87,29.168 L395.854,56.078 L386.838,29.168 L380.444,29.168 L380.444,61 Z M434.724,44.946 L434.724,56.722 C434.816,58.056 435.92,58.562 437.392,58.746 L437.254,61.46 C434.816,61.46 433.16,61 431.78,59.62 C431.78,59.62 427.64,61.46 423.5,61.46 C419.314,61.46 417.014,59.068 417.014,54.422 C417.014,50.006 419.314,48.074 424.052,47.614 L431.274,46.924 L431.274,44.946 C431.274,41.726 429.894,40.576 427.134,40.576 C423.914,40.576 418.44,41.174 418.44,41.174 L418.302,38.552 C418.302,38.552 423.362,37.54 427.318,37.54 C432.516,37.54 434.724,39.932 434.724,44.946 Z M431.274,49.546 L424.466,50.19 C421.66,50.466 420.556,51.8 420.556,54.33 C420.556,56.998 421.706,58.562 424.052,58.562 C427.456,58.562 431.274,57.136 431.274,57.136 L431.274,49.546 Z M441.532,61 L444.982,61 L444.982,44.118 C444.982,44.118 449.03,41.864 453.354,40.99 L453.354,37.494 C448.938,38.368 444.936,41.128 444.936,41.128 L444.936,38 L441.532,38 L441.532,61 Z M460.898,61 L460.898,50.466 L464.532,50.328 L471.386,61 L475.296,61 L467.476,48.58 L474.974,38 L471.064,38 L464.486,47.292 L460.898,47.476 L460.898,27.972 L457.448,27.972 L457.448,61 L460.898,61 Z M487.992,58.424 C491.442,58.424 496.456,58.01 496.456,58.01 L496.548,60.724 C496.548,60.724 491.304,61.46 487.578,61.46 C480.724,61.46 478.47,57.458 478.47,49.638 C478.47,40.898 482.242,37.54 488.084,37.54 C494.202,37.54 497.33,40.76 497.33,48.304 L497.146,50.926 L481.966,50.926 C481.966,55.848 483.484,58.424 487.992,58.424 Z M481.92,48.166 L493.88,48.166 C493.88,42.462 492.132,40.438 488.084,40.438 C484.174,40.438 481.966,42.6 481.92,48.166 Z M514.626,40.99 L514.626,38 L507.312,38 L507.312,30.962 L503.908,30.962 L503.908,38 L500.642,38 L500.642,40.99 L503.908,40.99 L503.908,53.088 C503.908,59.712 505.518,61.506 510.256,61.506 C511.866,61.506 514.948,61 514.948,61 L514.718,58.148 C514.718,58.148 511.912,58.424 510.624,58.424 C507.634,58.424 507.312,56.998 507.312,51.984 L507.312,40.99 L514.626,40.99 Z" id="It’s-Time-for-Market" fill="url(#linearGradient-1)"></path>
                </g>
                <path d="M136,101 L196,101" id="Line-Copy-4" stroke="#C8102E" stroke-width="3" stroke-linecap="square"></path>
                <rect id="Rectangle-4" fill-opacity="0.1" fill="#0087B5" x="134" y="13" width="60.3086342" height="49.2400564"></rect>
                <path d="M136,12.875 L193.92803,12.875" id="Line-Copy-5" stroke="#0087B5" stroke-width="1.5" stroke-linecap="square" stroke-dasharray="2,4,2,4"></path>
            </g>
        </g>
    </g>
</svg>