<?xml version="1.0" encoding="UTF-8"?>
<svg width="346px" height="147px" viewBox="0 0 346 147" version="1.1" xmlns="http://www.w3.org/2000/svg" xmlns:xlink="http://www.w3.org/1999/xlink">
    <!-- Generator: Sketch 45.2 (43514) - http://www.bohemiancoding.com/sketch -->
    <title>dash color 4</title>
    <desc>Created with Sketch.</desc>
    <defs></defs>
    <g id="Page-1" stroke="none" stroke-width="1" fill="none" fill-rule="evenodd">
        <g id="7-12-4" transform="translate(-822.000000, -5092.000000)">
            <g id="dash-color-4" transform="translate(822.000000, 5092.000000)">
                <rect id="Rectangle-2" fill="#0087B5" x="0" y="0.437022762" width="346" height="145.661445"></rect>
                <path d="M31.21,50 L33.212,50 L33.212,32.008 L31.21,32.008 L31.21,50 Z M44.002,38.69 L44.002,37 L39.868,37 L39.868,33.022 L37.944,33.022 L37.944,37 L36.098,37 L36.098,38.69 L37.944,38.69 L37.944,45.528 C37.944,49.272 38.854,50.286 41.532,50.286 C42.442,50.286 44.184,50 44.184,50 L44.054,48.388 C44.054,48.388 42.468,48.544 41.74,48.544 C40.05,48.544 39.868,47.738 39.868,44.904 L39.868,38.69 L44.002,38.69 Z M45.9,37.286 L47.434,37.286 L49.098,31.592 L47.044,31.592 L45.9,37.286 Z M60.694,37.234 C60.694,37.234 57.938,36.74 55.988,36.74 C53.622,36.74 51.308,37.676 51.308,40.536 C51.308,43.136 52.712,43.682 55.65,44.15 C58.484,44.592 59.16,44.93 59.16,46.282 C59.16,48.05 58.016,48.518 55.884,48.518 C54.558,48.518 51.594,48.076 51.594,48.076 L51.49,49.766 C51.49,49.766 54.402,50.26 56.066,50.26 C59.186,50.26 61.11,49.246 61.11,46.204 C61.11,43.682 59.888,43.032 56.638,42.486 C53.882,42.018 53.258,41.68 53.258,40.458 C53.258,38.924 54.48,38.482 56.092,38.482 C57.756,38.482 60.642,38.898 60.642,38.898 L60.694,37.234 Z M68.286,33.802 L73.824,33.802 L73.824,50 L75.8,50 L75.8,33.802 L81.286,33.802 L81.286,32.008 L68.286,32.008 L68.286,33.802 Z M83.496,50 L85.446,50 L85.446,37 L83.496,37 L83.496,50 Z M83.496,34.062 L85.446,34.062 L85.446,31.8 L83.496,31.8 L83.496,34.062 Z M91.14,50 L91.14,39.444 C91.14,39.444 92.778,38.482 94.624,38.482 C96.99,38.482 97.354,39.704 97.354,43.292 L97.354,50 L99.304,50 L99.304,43.24 C99.304,41.68 99.2,40.042 98.966,39.444 C98.966,39.444 100.708,38.482 102.632,38.482 C104.972,38.482 105.362,39.756 105.362,43.188 L105.362,50 L107.312,50 L107.312,43.136 C107.312,38.43 106.454,36.74 102.918,36.74 C100.604,36.74 98.29,38.066 98.29,38.066 C97.614,37.13 96.652,36.74 94.91,36.74 C93.064,36.74 91.114,37.91 91.114,37.91 L91.114,37 L89.19,37 L89.19,50 L91.14,50 Z M115.736,48.544 C117.686,48.544 120.52,48.31 120.52,48.31 L120.572,49.844 C120.572,49.844 117.608,50.26 115.502,50.26 C111.628,50.26 110.354,47.998 110.354,43.578 C110.354,38.638 112.486,36.74 115.788,36.74 C119.246,36.74 121.014,38.56 121.014,42.824 L120.91,44.306 L112.33,44.306 C112.33,47.088 113.188,48.544 115.736,48.544 Z M112.304,42.746 L119.064,42.746 C119.064,39.522 118.076,38.378 115.788,38.378 C113.578,38.378 112.33,39.6 112.304,42.746 Z M132.272,38.69 L136.042,38.69 L136.042,37 L132.272,37 L132.272,35.856 C132.272,33.438 132.74,32.814 134.196,32.814 C134.976,32.814 136.432,32.866 136.432,32.866 L136.458,31.254 C136.458,31.254 134.716,31.072 133.832,31.072 C131.284,31.072 130.322,32.086 130.322,35.83 L130.322,37 L128.684,37 L128.684,38.69 L130.322,38.69 L130.322,50 L132.272,50 L132.272,38.69 Z M143.374,36.74 C147.508,36.74 148.938,38.872 148.938,43.344 C148.938,48.076 147.768,50.26 143.374,50.26 C139.006,50.26 137.81,48.076 137.81,43.344 C137.81,38.872 139.266,36.74 143.374,36.74 Z M143.374,48.57 C146.468,48.57 146.936,47.036 146.936,43.344 C146.936,39.73 146.156,38.43 143.374,38.43 C140.618,38.43 139.812,39.73 139.812,43.344 C139.812,47.036 140.306,48.57 143.374,48.57 Z M152.11,50 L154.06,50 L154.06,40.458 C154.06,40.458 156.348,39.184 158.792,38.69 L158.792,36.714 C156.296,37.208 154.034,38.768 154.034,38.768 L154.034,37 L152.11,37 L152.11,50 Z M167.164,50 L169.166,50 L169.166,34.14 L169.53,34.14 L174.756,49.35 L176.992,49.35 L182.218,34.14 L182.582,34.14 L182.582,50 L184.584,50 L184.584,32.008 L180.97,32.008 L175.874,47.218 L170.778,32.008 L167.164,32.008 L167.164,50 Z M197.844,40.926 L197.844,47.582 C197.896,48.336 198.52,48.622 199.352,48.726 L199.274,50.26 C197.896,50.26 196.96,50 196.18,49.22 C196.18,49.22 193.84,50.26 191.5,50.26 C189.134,50.26 187.834,48.908 187.834,46.282 C187.834,43.786 189.134,42.694 191.812,42.434 L195.894,42.044 L195.894,40.926 C195.894,39.106 195.114,38.456 193.554,38.456 C191.734,38.456 188.64,38.794 188.64,38.794 L188.562,37.312 C188.562,37.312 191.422,36.74 193.658,36.74 C196.596,36.74 197.844,38.092 197.844,40.926 Z M195.894,43.526 L192.046,43.89 C190.46,44.046 189.836,44.8 189.836,46.23 C189.836,47.738 190.486,48.622 191.812,48.622 C193.736,48.622 195.894,47.816 195.894,47.816 L195.894,43.526 Z M201.692,50 L203.642,50 L203.642,40.458 C203.642,40.458 205.93,39.184 208.374,38.69 L208.374,36.714 C205.878,37.208 203.616,38.768 203.616,38.768 L203.616,37 L201.692,37 L201.692,50 Z M212.638,50 L212.638,44.046 L214.692,43.968 L218.566,50 L220.776,50 L216.356,42.98 L220.594,37 L218.384,37 L214.666,42.252 L212.638,42.356 L212.638,31.332 L210.688,31.332 L210.688,50 L212.638,50 Z M227.952,48.544 C229.902,48.544 232.736,48.31 232.736,48.31 L232.788,49.844 C232.788,49.844 229.824,50.26 227.718,50.26 C223.844,50.26 222.57,47.998 222.57,43.578 C222.57,38.638 224.702,36.74 228.004,36.74 C231.462,36.74 233.23,38.56 233.23,42.824 L233.126,44.306 L224.546,44.306 C224.546,47.088 225.404,48.544 227.952,48.544 Z M224.52,42.746 L231.28,42.746 C231.28,39.522 230.292,38.378 228.004,38.378 C225.794,38.378 224.546,39.6 224.52,42.746 Z M243.006,38.69 L243.006,37 L238.872,37 L238.872,33.022 L236.948,33.022 L236.948,37 L235.102,37 L235.102,38.69 L236.948,38.69 L236.948,45.528 C236.948,49.272 237.858,50.286 240.536,50.286 C241.446,50.286 243.188,50 243.188,50 L243.058,48.388 C243.058,48.388 241.472,48.544 240.744,48.544 C239.054,48.544 238.872,47.738 238.872,44.904 L238.872,38.69 L243.006,38.69 Z M245.398,50 L247.348,50 L247.348,37 L245.398,37 L245.398,50 Z M245.398,34.062 L247.348,34.062 L247.348,31.8 L245.398,31.8 L245.398,34.062 Z M253.042,50 L253.042,39.444 C253.042,39.444 254.836,38.482 256.708,38.482 C259.126,38.482 259.516,39.756 259.516,43.188 L259.516,50 L261.44,50 L261.44,43.136 C261.44,38.508 260.634,36.74 257.046,36.74 C255.122,36.74 253.016,37.91 253.016,37.91 L253.016,37 L251.092,37 L251.092,50 L253.042,50 Z M270.072,56.11 C265.964,56.11 264.482,55.2 264.482,52.184 C264.482,50.676 265.184,49.974 266.536,48.96 C266.068,48.648 265.808,47.972 265.808,47.166 C265.808,46.672 266.692,45.112 266.692,45.112 C265.6,44.618 264.638,43.578 264.638,41.186 C264.638,37.988 266.614,36.74 269.5,36.74 C270.8,36.74 272.204,37.078 272.204,37.078 L276.052,36.974 L276.052,38.638 L273.582,38.586 C274.076,39.08 274.44,39.808 274.44,41.186 C274.44,44.566 272.75,45.58 269.422,45.58 C269.162,45.58 268.434,45.528 268.148,45.476 C268.148,45.476 267.68,46.62 267.68,46.958 C267.68,47.998 267.888,48.154 270.826,48.154 C274.518,48.154 275.844,48.882 275.844,51.976 C275.844,54.914 273.738,56.11 270.072,56.11 Z M270.67,49.87 C269.76,49.87 267.862,49.74 267.862,49.74 C266.77,50.546 266.406,51.014 266.406,52.028 C266.406,53.822 267.16,54.472 270.098,54.472 C272.698,54.472 273.868,53.77 273.868,52.054 C273.868,50.078 273.036,49.87 270.67,49.87 Z M269.5,44.02 C271.684,44.02 272.49,43.24 272.49,41.186 C272.49,39.132 271.684,38.326 269.5,38.326 C267.472,38.326 266.588,39.132 266.588,41.186 C266.588,43.24 267.472,44.02 269.5,44.02 Z M290.872,38.69 L290.872,37 L286.738,37 L286.738,33.022 L284.814,33.022 L284.814,37 L282.968,37 L282.968,38.69 L284.814,38.69 L284.814,45.528 C284.814,49.272 285.724,50.286 288.402,50.286 C289.312,50.286 291.054,50 291.054,50 L290.924,48.388 C290.924,48.388 289.338,48.544 288.61,48.544 C286.92,48.544 286.738,47.738 286.738,44.904 L286.738,38.69 L290.872,38.69 Z M298.256,36.74 C302.39,36.74 303.82,38.872 303.82,43.344 C303.82,48.076 302.65,50.26 298.256,50.26 C293.888,50.26 292.692,48.076 292.692,43.344 C292.692,38.872 294.148,36.74 298.256,36.74 Z M298.256,48.57 C301.35,48.57 301.818,47.036 301.818,43.344 C301.818,39.73 301.038,38.43 298.256,38.43 C295.5,38.43 294.694,39.73 294.694,43.344 C294.694,47.036 295.188,48.57 298.256,48.57 Z M31.21,81 L42.156,81 L42.156,79.232 L33.212,79.232 L33.212,72.732 L40.596,72.732 L40.596,70.99 L33.212,70.99 L33.212,64.776 L42.156,64.776 L42.156,63.008 L31.21,63.008 L31.21,81 Z M47.2,81 L47.2,70.444 C47.2,70.444 48.838,69.482 50.684,69.482 C53.05,69.482 53.414,70.704 53.414,74.292 L53.414,81 L55.364,81 L55.364,74.24 C55.364,72.68 55.26,71.042 55.026,70.444 C55.026,70.444 56.768,69.482 58.692,69.482 C61.032,69.482 61.422,70.756 61.422,74.188 L61.422,81 L63.372,81 L63.372,74.136 C63.372,69.43 62.514,67.74 58.978,67.74 C56.664,67.74 54.35,69.066 54.35,69.066 C53.674,68.13 52.712,67.74 50.97,67.74 C49.124,67.74 47.174,68.91 47.174,68.91 L47.174,68 L45.25,68 L45.25,81 L47.2,81 Z M72.732,67.74 C76.268,67.74 77.464,69.612 77.464,74.292 C77.464,79.466 76.06,81.26 71.328,81.26 C69.768,81.26 66.986,80.974 66.986,80.974 L66.986,62.332 L68.91,62.332 L68.91,68.65 C68.91,68.65 70.886,67.74 72.732,67.74 Z M71.302,79.518 C74.864,79.518 75.488,77.932 75.488,74.292 C75.488,70.938 74.812,69.482 72.524,69.482 C70.73,69.482 68.91,70.236 68.91,70.236 L68.91,79.388 C68.91,79.388 70.6,79.518 71.302,79.518 Z M80.662,81 L82.612,81 L82.612,71.458 C82.612,71.458 84.9,70.184 87.344,69.69 L87.344,67.714 C84.848,68.208 82.586,69.768 82.586,69.768 L82.586,68 L80.662,68 L80.662,81 Z M98.836,71.926 L98.836,78.582 C98.888,79.336 99.512,79.622 100.344,79.726 L100.266,81.26 C98.888,81.26 97.952,81 97.172,80.22 C97.172,80.22 94.832,81.26 92.492,81.26 C90.126,81.26 88.826,79.908 88.826,77.282 C88.826,74.786 90.126,73.694 92.804,73.434 L96.886,73.044 L96.886,71.926 C96.886,70.106 96.106,69.456 94.546,69.456 C92.726,69.456 89.632,69.794 89.632,69.794 L89.554,68.312 C89.554,68.312 92.414,67.74 94.65,67.74 C97.588,67.74 98.836,69.092 98.836,71.926 Z M96.886,74.526 L93.038,74.89 C91.452,75.046 90.828,75.8 90.828,77.23 C90.828,78.738 91.478,79.622 92.804,79.622 C94.728,79.622 96.886,78.816 96.886,78.816 L96.886,74.526 Z M107.546,67.74 C103.672,67.74 102.138,69.56 102.138,74.266 C102.138,79.362 103.36,81.26 107.494,81.26 C108.69,81.26 111.108,80.896 111.108,80.896 L111.03,79.284 C111.03,79.284 108.95,79.518 107.962,79.518 C104.738,79.518 104.14,78.114 104.14,74.266 C104.14,70.782 104.946,69.482 107.936,69.482 C108.924,69.482 111.004,69.716 111.004,69.716 L111.082,68.13 C111.082,68.13 108.742,67.74 107.546,67.74 Z M118.83,79.544 C120.78,79.544 123.614,79.31 123.614,79.31 L123.666,80.844 C123.666,80.844 120.702,81.26 118.596,81.26 C114.722,81.26 113.448,78.998 113.448,74.578 C113.448,69.638 115.58,67.74 118.882,67.74 C122.34,67.74 124.108,69.56 124.108,73.824 L124.004,75.306 L115.424,75.306 C115.424,78.088 116.282,79.544 118.83,79.544 Z M115.398,73.746 L122.158,73.746 C122.158,70.522 121.17,69.378 118.882,69.378 C116.672,69.378 115.424,70.6 115.398,73.746 Z M139.604,69.69 L139.604,68 L135.47,68 L135.47,64.022 L133.546,64.022 L133.546,68 L131.7,68 L131.7,69.69 L133.546,69.69 L133.546,76.528 C133.546,80.272 134.456,81.286 137.134,81.286 C138.044,81.286 139.786,81 139.786,81 L139.656,79.388 C139.656,79.388 138.07,79.544 137.342,79.544 C135.652,79.544 135.47,78.738 135.47,75.904 L135.47,69.69 L139.604,69.69 Z M143.946,81 L143.946,70.262 C143.946,70.262 145.766,69.482 147.612,69.482 C150.004,69.482 150.394,70.756 150.394,74.188 L150.394,81 L152.344,81 L152.344,74.136 C152.344,69.508 151.512,67.74 147.95,67.74 C146.026,67.74 143.946,68.728 143.946,68.728 L143.946,62.332 L141.996,62.332 L141.996,81 L143.946,81 Z M160.768,79.544 C162.718,79.544 165.552,79.31 165.552,79.31 L165.604,80.844 C165.604,80.844 162.64,81.26 160.534,81.26 C156.66,81.26 155.386,78.998 155.386,74.578 C155.386,69.638 157.518,67.74 160.82,67.74 C164.278,67.74 166.046,69.56 166.046,73.824 L165.942,75.306 L157.362,75.306 C157.362,78.088 158.22,79.544 160.768,79.544 Z M157.336,73.746 L164.096,73.746 C164.096,70.522 163.108,69.378 160.82,69.378 C158.61,69.378 157.362,70.6 157.336,73.746 Z M173.274,64.802 L178.812,64.802 L178.812,81 L180.788,81 L180.788,64.802 L186.274,64.802 L186.274,63.008 L173.274,63.008 L173.274,64.802 Z M188.484,81 L190.434,81 L190.434,71.458 C190.434,71.458 192.722,70.184 195.166,69.69 L195.166,67.714 C192.67,68.208 190.408,69.768 190.408,69.768 L190.408,68 L188.484,68 L188.484,81 Z M205.592,68 L205.592,78.556 C205.592,78.556 203.954,79.518 202.03,79.518 C199.612,79.518 199.3,78.348 199.3,74.76 L199.3,68 L197.35,68 L197.35,74.786 C197.35,79.57 198.104,81.26 201.744,81.26 C203.642,81.26 205.592,80.09 205.592,80.09 L205.592,81 L207.542,81 L207.542,68 L205.592,68 Z M216.096,79.544 C218.046,79.544 220.88,79.31 220.88,79.31 L220.932,80.844 C220.932,80.844 217.968,81.26 215.862,81.26 C211.988,81.26 210.714,78.998 210.714,74.578 C210.714,69.638 212.846,67.74 216.148,67.74 C219.606,67.74 221.374,69.56 221.374,73.824 L221.27,75.306 L212.69,75.306 C212.69,78.088 213.548,79.544 216.096,79.544 Z M212.664,73.746 L219.424,73.746 C219.424,70.522 218.436,69.378 216.148,69.378 C213.938,69.378 212.69,70.6 212.664,73.746 Z M236.272,73.434 L241.992,63.008 L239.73,63.008 L235.258,71.432 L230.786,63.008 L228.524,63.008 L234.27,73.434 L234.27,81 L236.272,81 L236.272,73.434 Z M249.116,67.74 C253.25,67.74 254.68,69.872 254.68,74.344 C254.68,79.076 253.51,81.26 249.116,81.26 C244.748,81.26 243.552,79.076 243.552,74.344 C243.552,69.872 245.008,67.74 249.116,67.74 Z M249.116,79.57 C252.21,79.57 252.678,78.036 252.678,74.344 C252.678,70.73 251.898,69.43 249.116,69.43 C246.36,69.43 245.554,70.73 245.554,74.344 C245.554,78.036 246.048,79.57 249.116,79.57 Z M265.964,68 L265.964,78.556 C265.964,78.556 264.326,79.518 262.402,79.518 C259.984,79.518 259.672,78.348 259.672,74.76 L259.672,68 L257.722,68 L257.722,74.786 C257.722,79.57 258.476,81.26 262.116,81.26 C264.014,81.26 265.964,80.09 265.964,80.09 L265.964,81 L267.914,81 L267.914,68 L265.964,68 Z" id="It’s-Time-for-Market-Copy-2" fill="#FFFFFF"></path>
                <path d="M29,115 L59,115" id="Line-Copy-3" stroke="#43CEBD" stroke-width="2" stroke-linecap="square"></path>
            </g>
        </g>
    </g>
</svg>