<?xml version="1.0" encoding="UTF-8"?>
<svg width="243px" height="80px" viewBox="0 0 243 80" version="1.1" xmlns="http://www.w3.org/2000/svg" xmlns:xlink="http://www.w3.org/1999/xlink">
    <!-- Generator: Sketch 44.1 (41455) - http://www.bohemiancoding.com/sketch -->
    <title>Group</title>
    <desc>Created with Sketch.</desc>
    <defs>
        <polygon id="path-1" points="10.8447 11 0.7327 11 0.7327 0.8875 10.8447 0.8875"></polygon>
        <polygon id="path-3" points="0.788054473 0.831 17.5239576 0.831 17.5239576 17.5825455 0.788054473 17.5825455"></polygon>
        <rect id="path-5" x="0" y="12" width="220" height="56"></rect>
        <mask id="mask-6" maskContentUnits="userSpaceOnUse" maskUnits="objectBoundingBox" x="0" y="0" width="220" height="56" fill="white">
            <use xlink:href="#path-5"></use>
        </mask>
    </defs>
    <g id="Page-1" stroke="none" stroke-width="1" fill="none" fill-rule="evenodd">
        <g id="6-14-1" transform="translate(0.000000, -1149.000000)">
            <g id="Group" transform="translate(0.000000, 1149.000000)">
                <g id="Do">
                    <g id="Page-1">
                        <g id="Full-Color-Logo" transform="translate(0.000000, 11.000000)">
                            <g>
                                <polygon id="Fill-1" fill="#C7212E" points="21.9096 22.0654 14.3746 34.2594 6.8406 22.0654 -0.0004 22.0654 -0.0004 50.8164 6.2456 50.8164 6.2456 32.1774 14.2756 44.3724 14.3746 44.3724 22.5046 32.0784 22.5046 50.8164 28.7496 50.8164 28.7496 22.0654"></polygon>
                                <path d="M50.6595,21.8674 L44.8105,21.8674 L32.5175,50.8154 L38.9615,50.8154 L41.6375,44.3714 L53.8315,44.3714 L56.4095,50.8154 L63.0515,50.8154 L50.6595,21.8674 Z M43.8185,38.8194 L47.5865,29.5014 L51.4525,38.8194 L43.8185,38.8194 Z" id="Fill-2" fill="#C7212E"></path>
                                <polygon id="Fill-3" fill="#C7212E" points="75.5431 36.2424 65.9271 22.0654 73.2631 22.0654 79.3101 31.3844 85.3581 22.0654 92.5951 22.0654 82.9781 36.1434 92.9911 50.8154 85.6551 50.8154 79.2111 41.0014 72.6681 50.8154 65.5301 50.8154"></polygon>
                                <g id="Group-15" transform="translate(100.000000, 21.169100)">
                                    <path d="M47.5172,15.2715 C47.5172,19.8315 43.8492,23.5005 39.2892,23.5005 C34.7282,23.5005 31.0602,19.8315 31.0602,15.2715 C31.0602,10.7115 34.7282,7.0435 39.2892,7.0435 C43.8492,7.0435 47.5172,10.7115 47.5172,15.2715" id="Fill-4" fill="#C5C7C7"></path>
                                    <path d="M42.4612,22.3103 L42.9572,22.2113 C43.5512,21.9133 44.1462,21.4183 44.6422,20.9223 L44.9392,20.6253 L48.5082,24.6893 L48.2112,24.8883 C47.6162,25.4823 46.9222,25.9783 46.1292,26.4743 L45.8322,26.6723 L42.7582,22.7073 L42.4612,22.3103 Z" id="Fill-6" fill="#C5C7C7"></path>
                                    <g id="Group-10" transform="translate(45.000000, 24.000000)">
                                        <mask id="mask-2" fill="white">
                                            <use xlink:href="#path-1"></use>
                                        </mask>
                                        <g id="Clip-9"></g>
                                        <path d="M9.3577,2.7715 C8.3667,1.5815 6.8797,0.8875 5.3927,0.8875 L5.2927,0.8875 L5.1937,0.9875 C4.0047,2.4745 2.6167,3.5645 0.9307,4.3575 L0.8317,4.4565 L0.8317,4.5555 C0.7327,4.8535 0.7327,5.2505 0.7327,5.6465 C0.7327,6.8365 1.1287,8.1255 2.0217,9.1165 C3.1117,10.4055 4.5987,11.0005 6.0867,11.0005 C7.1767,11.0005 8.2677,10.6035 9.1597,9.9095 C10.2497,9.0175 10.8447,7.6295 10.8447,6.2415 C10.5477,4.9525 10.1507,3.7625 9.3577,2.7715" id="Fill-8" fill="#C5C7C7" mask="url(#mask-2)"></path>
                                    </g>
                                    <path d="M45.2369,20.9224 L39.9829,14.9744 C39.6849,14.6764 39.2889,14.5774 38.8919,14.5774 C38.5949,14.5774 38.2969,14.5774 37.9999,14.8754 C37.8019,15.0734 37.6029,15.3704 37.6029,15.6684 C37.6029,15.8664 37.7029,16.1634 37.9009,16.3624 L42.7589,22.6074 C43.7499,22.2114 44.5429,21.6164 45.2369,20.9224" id="Fill-11" fill="#9EA1A1"></path>
                                    <path d="M20.4526,6.0517 C19.9566,4.9607 19.1636,4.0687 18.2716,3.2757 C17.2806,2.4827 16.1896,1.9867 14.9006,1.5907 C13.6116,1.1937 12.1246,0.9957 10.5386,0.9957 L0.1296,0.9957 L0.1296,29.7457 L2.3106,29.7457 L2.3106,18.9397 L10.0426,18.9397 C11.5306,18.9397 13.0176,18.7417 14.3056,18.3447 C15.6936,17.9487 16.8836,17.3537 17.8746,16.6597 C18.8666,15.8667 19.7586,14.9737 20.3536,13.7847 C20.9486,12.5947 21.2456,11.3057 21.2456,9.8187 L21.2456,9.7197 C21.2456,8.3317 21.0476,7.0427 20.4526,6.0517 M19.1636,9.9177 C19.1636,11.0087 18.9656,11.9997 18.4696,12.7927 C18.0736,13.6857 17.3796,14.3797 16.6856,14.9737 C15.8926,15.5687 14.9996,16.0647 13.9096,16.4607 C12.8186,16.7587 11.6296,16.9567 10.2416,16.9567 L2.3106,16.9567 L2.3106,2.8797 L10.4396,2.8797 C11.7286,2.8797 12.9176,3.0777 14.0086,3.3747 C15.0986,3.6727 15.9916,4.0687 16.7846,4.6637 C17.5776,5.2587 18.1726,5.9527 18.5686,6.8447 C18.9656,7.6377 19.1636,8.7287 19.1636,9.9177" id="Fill-13" fill="#3F4545"></path>
                                </g>
                                <polygon id="Fill-16" fill="#3F4545" points="159.513 50.8151 161.694 50.8151 161.694 22.0651 159.513 22.0651"></polygon>
                                <polygon id="Fill-17" fill="#3F4545" points="167.9396 22.0656 170.0216 22.0656 189.8496 47.0486 189.8496 22.0656 191.8316 22.0656 191.8316 50.8156 190.2456 50.8156 170.0216 25.3376 170.0216 50.8156 167.9396 50.8156"></polygon>
                                <polygon id="Fill-18" fill="#3F4545" points="206.7026 24.0484 196.6896 24.0484 196.6896 22.0654 218.7976 22.0654 218.7976 24.0484 208.7846 24.0484 208.7846 50.8154 206.7026 50.8154"></polygon>
                                <g id="Group-30" transform="translate(124.000000, 0.169100)">
                                    <path d="M15.1896,21.2026 C6.8616,21.2026 0.1206,27.9436 0.1206,36.2716 C0.1206,44.5986 6.8616,51.3406 15.1896,51.3406 C23.5176,51.3406 30.2586,44.5986 30.2586,36.2716 C30.2586,27.9436 23.5176,21.2026 15.1896,21.2026 M15.1896,49.2586 C7.9526,49.2586 2.2026,43.4096 2.2026,36.2716 C2.2026,29.0346 8.0516,23.2846 15.1896,23.2846 C22.4266,23.2846 28.1766,29.1336 28.1766,36.2716 C28.2756,43.4096 22.4266,49.2586 15.1896,49.2586" id="Fill-19" fill="#3F4545"></path>
                                    <path d="M16.3793,36.3707 C16.2803,37.0647 15.6853,37.6597 15.0903,37.5607 C14.3963,37.4617 14.0003,36.8667 14.0003,36.0737 L14.9913,16.1467 C15.0903,15.3537 16.6763,14.9567 17.3703,15.0557 C18.0643,15.1547 19.5513,15.8487 19.4523,16.6417 L16.3793,36.3707 Z" id="Fill-21" fill="#3F4545"></path>
                                    <g id="Group-25" transform="translate(9.000000, 0.000000)">
                                        <mask id="mask-4" fill="white">
                                            <use xlink:href="#path-3"></use>
                                        </mask>
                                        <g id="Clip-24"></g>
                                        <path d="M17.4915,10.0991 C16.9955,14.6591 12.9315,18.0301 8.2715,17.5341 C3.7115,17.0391 0.3405,12.9741 0.8365,8.3151 C1.3315,3.7541 5.3965,0.3841 10.0565,0.8791 C14.6165,1.3751 17.8875,5.5391 17.4915,10.0991" id="Fill-23" fill="#C7212E" mask="url(#mask-4)"></path>
                                    </g>
                                    <path d="M21.2369,4.0517 C21.5349,5.5387 19.9479,7.1247 17.6679,7.6207 C15.3879,8.1167 13.3059,7.3237 13.0089,5.8357 C12.7109,4.3487 14.2969,2.7627 16.5779,2.2667 C18.8579,1.7717 20.9399,2.5647 21.2369,4.0517" id="Fill-26" fill="#EE8599"></path>
                                    <path d="M106,22.8879 C106,24.5729 104.711,25.9609 102.927,25.9609 C101.241,25.9609 99.853,24.6719 99.853,22.8879 C99.853,21.1039 101.142,19.8149 102.927,19.8149 C104.711,19.9139 106,21.2029 106,22.8879 L106,22.8879 Z M100.349,22.8879 C100.349,24.3749 101.44,25.4659 102.927,25.4659 C104.414,25.4659 105.504,24.2759 105.504,22.8879 C105.504,21.4009 104.414,20.3099 102.927,20.3099 C101.44,20.3099 100.349,21.4999 100.349,22.8879 L100.349,22.8879 Z M102.233,24.6719 L101.836,24.6719 L101.836,21.2029 L103.224,21.2029 C104.017,21.2029 104.414,21.4999 104.414,22.1939 C104.414,22.7889 104.017,23.0859 103.522,23.1849 L104.612,24.7719 L104.017,24.7719 L103.026,23.1849 L102.332,23.1849 L102.332,24.6719 L102.233,24.6719 Z M102.828,22.7889 C103.323,22.7889 103.918,22.7889 103.918,22.1939 C103.918,21.6979 103.521,21.5989 103.125,21.5989 L102.332,21.5989 L102.332,22.7889 L102.828,22.7889 Z" id="Fill-28" fill="#3F4545"></path>
                                </g>
                            </g>
                        </g>
                        <use id="Rectangle-2" stroke="#43CEBD" mask="url(#mask-6)" stroke-width="2" stroke-dasharray="1,1,1" xlink:href="#path-5"></use>
                        <g id="Group-38" transform="translate(109.000000, 0.000000)" stroke="#00A894" stroke-dasharray="1.483,0.983">
                            <path d="M1,0.6 L1,79.6" id="Stroke-36"></path>
                        </g>
                        <polygon id="this-good" fill="#00A894" transform="translate(239.104996, 34.206500) scale(-1, 1) rotate(270.000000) translate(-239.104996, -34.206500) " points="232.898496 31.1015043 239.104158 37.3114957 245.311496 31.1041585"></polygon>
                    </g>
                </g>
            </g>
        </g>
    </g>
</svg>