<?xml version="1.0" encoding="UTF-8"?>
<svg width="40px" height="41px" viewBox="0 0 40 41" version="1.1" xmlns="http://www.w3.org/2000/svg" xmlns:xlink="http://www.w3.org/1999/xlink">
    <!-- Generator: Sketch 45 (43475) - http://www.bohemiancoding.com/sketch -->
    <title>Group 14</title>
    <desc>Created with Sketch.</desc>
    <defs></defs>
    <g id="Page-1" stroke="none" stroke-width="1" fill="none" fill-rule="evenodd" stroke-linejoin="round">
        <g id="6-14-5" transform="translate(-414.000000, -1325.000000)" stroke-width="1.5" stroke="#071D49">
            <g id="Product-Snapshot" transform="translate(155.000000, 1057.000000)">
                <g id="Snapshot-1" transform="translate(189.000000, 269.000000)">
                    <g id="Group-14" transform="translate(71.000000, 0.000000)">
                        <g id="icon-MS-bestcustomers-1.5">
                            <path d="M23.205022,20.9646844 L23.205022,23.0796101 C23.205022,29.2249604 29.5817328,26.5912388 33.1014943,29.2249604 C36.6212559,31.8586819 37.5011962,38.8450672 37.5011962,38.8450672 L18.8053201,38.8450672 L0.109444013,38.8450672 C0.109444013,38.8450672 0.989384392,31.8586819 4.50914591,29.2249604 C8.02890743,26.5912388 14.4056182,29.2249604 14.4056182,23.0796101 L14.4056182,21.1016379 M7.51613974,28.0714914 C9.84006152,28.0714914 2.9663933,-1.55076979 16.5056116,1.09178407 C36.0129952,-4.59738156 28.0069528,25.7957499 30.509406,28.0714914" id="Stroke-1279"></path>
                            <path d="M26.6472514,27.3502819 C26.6472514,27.3502819 25.5463076,32.4657153 19.1413984,32.4657153 C12.7364892,32.4657153 10.1534331,27.3506057 10.1534331,27.3506057" id="Stroke-1281"></path>
                            <path d="M15.5391313,21.6735314 C12.6439776,20.5091373 11.7640372,17.7096275 12.6439776,11.4659517" id="Stroke-1285" stroke-linecap="round"></path>
                            <path d="M21.6751134,22.0971527 C22.5018571,21.5704478 25.989623,21.3522414 25.2238964,13.169128" id="Stroke-1287" stroke-linecap="round"></path>
                            <path d="M17.5948793,7.05859843 C17.5948793,7.9365056 20.9704039,13.2308277 27.1384012,13.2308277" id="Stroke-1288" stroke-linecap="round"></path>
                        </g>
                    </g>
                </g>
            </g>
        </g>
    </g>
</svg>