<svg width="40" height="41" xmlns="http://www.w3.org/2000/svg"><g stroke-width="1.5" stroke="#071D49" fill="none" fill-rule="evenodd" stroke-linejoin="round"><path d="M24.205 21.965v2.115c0 6.145 6.377 3.511 9.896 6.145 3.52 2.634 4.4 9.62 4.4 9.62H1.11s.88-6.986 4.4-9.62c3.52-2.634 9.897 0 9.897-6.145v-1.978m-6.89 6.97c2.324 0-4.55-29.623 8.99-26.98 19.507-5.69 11.501 24.704 14.003 26.98"/><path d="M27.647 28.35s-1.1 5.116-7.506 5.116c-6.405 0-8.988-5.115-8.988-5.115"/><path d="M16.54 22.674c-2.896-1.165-3.776-3.964-2.896-10.208m9.031 10.631c.827-.527 4.315-.745 3.549-8.928m-7.629-6.11c0 .878 3.375 6.172 9.543 6.172" stroke-linecap="round"/></g></svg>