<?xml version="1.0" encoding="UTF-8"?>
<svg width="514px" height="123px" viewBox="0 0 514 123" version="1.1" xmlns="http://www.w3.org/2000/svg" xmlns:xlink="http://www.w3.org/1999/xlink">
    <!-- Generator: Sketch 45.2 (43514) - http://www.bohemiancoding.com/sketch -->
    <title>dash length export 2</title>
    <desc>Created with Sketch.</desc>
    <defs>
        <linearGradient x1="82.0974414%" y1="50%" x2="40.86711%" y2="50%" id="linearGradient-1">
            <stop stop-color="#FFFFFF" offset="0%"></stop>
            <stop stop-color="#071D49" offset="100%"></stop>
        </linearGradient>
    </defs>
    <g id="Page-1" stroke="none" stroke-width="1" fill="none" fill-rule="evenodd">
        <g id="7-12-4" transform="translate(-741.000000, -4033.000000)">
            <g id="dash-length-export-2" transform="translate(741.000000, 4033.000000)">
                <g id="outline">
                    <path d="M0.6,11 L7.928,11 L7.928,9.816 L2.696,9.816 C5.672,7.464 7.88,5.48 7.88,3.304 C7.88,1.176 6.072,0.168 4.296,0.168 C2.792,0.168 1.4,0.776 0.584,1.848 L1.4,2.696 C2.024,1.896 3.016,1.352 4.296,1.352 C5.4,1.352 6.52,1.944 6.52,3.304 C6.52,5.144 4.44,6.92 0.6,9.944 L0.6,11 Z M9.624,7.656 L13.464,7.656 L13.464,6.6 L9.624,6.6 L9.624,7.656 Z M14.408,9.432 C15.064,10.392 16.392,11.192 18.2,11.192 C20.552,11.192 21.976,9.896 21.976,8.12 C21.976,6.408 20.488,5.576 19.512,5.496 C20.52,5.32 21.816,4.552 21.816,3.016 C21.816,1.208 20.248,0.168 18.2,0.168 C16.552,0.168 15.32,0.888 14.552,1.816 L15.288,2.648 C16.072,1.8 16.936,1.352 18.104,1.352 C19.4,1.352 20.488,1.992 20.488,3.176 C20.488,4.408 19.352,4.936 18.008,4.936 C17.576,4.936 17.08,4.936 16.904,4.92 L16.904,6.136 C17.064,6.12 17.56,6.12 18.008,6.12 C19.576,6.12 20.664,6.68 20.664,8.008 C20.664,9.24 19.72,10.008 18.168,10.008 C16.904,10.008 15.816,9.432 15.192,8.6 L14.408,9.432 Z M28.184,11 L29.384,11 L29.384,0.328 L28.184,0.328 L28.184,11 Z M31.336,7.128 C31.336,4.888 32.936,3.08 35.144,3.08 C37.48,3.08 38.856,4.904 38.856,7.224 L38.856,7.528 L32.6,7.528 C32.696,8.984 33.72,10.2 35.384,10.2 C36.264,10.2 37.16,9.848 37.768,9.224 L38.344,10.008 C37.576,10.776 36.536,11.192 35.272,11.192 C32.984,11.192 31.336,9.544 31.336,7.128 Z M35.128,4.072 C33.48,4.072 32.664,5.464 32.6,6.648 L37.672,6.648 C37.656,5.496 36.888,4.072 35.128,4.072 Z M42.744,11.192 C43.448,11.192 43.88,10.984 44.184,10.696 L43.832,9.8 C43.672,9.976 43.352,10.12 43.016,10.12 C42.488,10.12 42.232,9.704 42.232,9.128 L42.232,4.328 L43.8,4.328 L43.8,3.272 L42.232,3.272 L42.232,1.16 L41.032,1.16 L41.032,3.272 L39.752,3.272 L39.752,4.328 L41.032,4.328 L41.032,9.384 C41.032,10.536 41.608,11.192 42.744,11.192 Z M47.448,11.192 C48.152,11.192 48.584,10.984 48.888,10.696 L48.536,9.8 C48.376,9.976 48.056,10.12 47.72,10.12 C47.192,10.12 46.936,9.704 46.936,9.128 L46.936,4.328 L48.504,4.328 L48.504,3.272 L46.936,3.272 L46.936,1.16 L45.736,1.16 L45.736,3.272 L44.456,3.272 L44.456,4.328 L45.736,4.328 L45.736,9.384 C45.736,10.536 46.312,11.192 47.448,11.192 Z M49.752,7.128 C49.752,4.888 51.352,3.08 53.56,3.08 C55.896,3.08 57.272,4.904 57.272,7.224 L57.272,7.528 L51.016,7.528 C51.112,8.984 52.136,10.2 53.8,10.2 C54.68,10.2 55.576,9.848 56.184,9.224 L56.76,10.008 C55.992,10.776 54.952,11.192 53.688,11.192 C51.4,11.192 49.752,9.544 49.752,7.128 Z M53.544,4.072 C51.896,4.072 51.08,5.464 51.016,6.648 L56.088,6.648 C56.072,5.496 55.304,4.072 53.544,4.072 Z M59.208,11 L60.408,11 L60.408,5.528 C60.76,4.904 61.768,4.296 62.504,4.296 C62.696,4.296 62.84,4.312 62.984,4.344 L62.984,3.112 C61.928,3.112 61.032,3.704 60.408,4.52 L60.408,3.272 L59.208,3.272 L59.208,11 Z M63.816,9.976 C64.6,10.808 65.672,11.192 66.936,11.192 C68.936,11.192 69.976,10.152 69.976,8.856 C69.976,7.144 68.424,6.76 67.08,6.456 C66.072,6.216 65.192,5.976 65.192,5.224 C65.192,4.536 65.848,4.056 66.904,4.056 C67.896,4.056 68.744,4.472 69.208,5.032 L69.768,4.2 C69.144,3.576 68.216,3.08 66.904,3.08 C65.064,3.08 64.024,4.104 64.024,5.304 C64.024,6.904 65.512,7.256 66.824,7.56 C67.864,7.816 68.808,8.088 68.808,8.936 C68.808,9.688 68.168,10.216 66.984,10.216 C65.928,10.216 64.952,9.704 64.44,9.112 L63.816,9.976 Z M76.056,11 L77.256,11 L77.256,0.328 L76.056,0.328 L76.056,11 Z M79.208,7.128 C79.208,4.888 80.808,3.08 83.016,3.08 C85.352,3.08 86.728,4.904 86.728,7.224 L86.728,7.528 L80.472,7.528 C80.568,8.984 81.592,10.2 83.256,10.2 C84.136,10.2 85.032,9.848 85.64,9.224 L86.216,10.008 C85.448,10.776 84.408,11.192 83.144,11.192 C80.856,11.192 79.208,9.544 79.208,7.128 Z M83,4.072 C81.352,4.072 80.536,5.464 80.472,6.648 L85.544,6.648 C85.528,5.496 84.76,4.072 83,4.072 Z M93.88,11 L95.08,11 L95.08,5.576 C95.08,3.896 94.232,3.08 92.616,3.08 C91.464,3.08 90.408,3.752 89.864,4.392 L89.864,3.272 L88.664,3.272 L88.664,11 L89.864,11 L89.864,5.352 C90.312,4.728 91.208,4.152 92.152,4.152 C93.192,4.152 93.88,4.584 93.88,5.944 L93.88,11 Z M97.464,12.984 L98.072,12.088 C98.712,12.856 99.48,13.144 100.584,13.144 C101.864,13.144 103.064,12.52 103.064,10.824 L103.064,9.72 C102.504,10.504 101.56,11.096 100.472,11.096 C98.456,11.096 97.032,9.592 97.032,7.096 C97.032,4.616 98.44,3.08 100.472,3.08 C101.512,3.08 102.44,3.592 103.064,4.44 L103.064,3.272 L104.264,3.272 L104.264,10.776 C104.264,13.336 102.472,14.136 100.584,14.136 C99.272,14.136 98.376,13.88 97.464,12.984 Z M103.064,8.776 L103.064,5.4 C102.648,4.728 101.72,4.152 100.76,4.152 C99.208,4.152 98.28,5.384 98.28,7.096 C98.28,8.792 99.208,10.04 100.76,10.04 C101.72,10.04 102.648,9.448 103.064,8.776 Z M108.616,11.192 C109.32,11.192 109.752,10.984 110.056,10.696 L109.704,9.8 C109.544,9.976 109.224,10.12 108.888,10.12 C108.36,10.12 108.104,9.704 108.104,9.128 L108.104,4.328 L109.672,4.328 L109.672,3.272 L108.104,3.272 L108.104,1.16 L106.904,1.16 L106.904,3.272 L105.624,3.272 L105.624,4.328 L106.904,4.328 L106.904,9.384 C106.904,10.536 107.48,11.192 108.616,11.192 Z M116.6,11 L117.8,11 L117.8,5.544 C117.8,3.864 116.952,3.08 115.336,3.08 C114.168,3.08 113.112,3.752 112.568,4.392 L112.568,0.328 L111.368,0.328 L111.368,11 L112.568,11 L112.568,5.352 C113.032,4.728 113.928,4.152 114.856,4.152 C115.896,4.152 116.6,4.552 116.6,5.912 L116.6,11 Z" id="2-3-letters-length-copy" fill="#6A7792"></path>
                    <path d="M58.92,45 L58.92,42.296 L53.848,42.296 L53.848,41.192 L58.424,34.328 L60.248,34.328 L60.248,41.128 L61.752,41.128 L61.752,42.296 L60.248,42.296 L60.248,45 L58.92,45 Z M58.92,35.56 L55.176,41.128 L58.92,41.128 L58.92,35.56 Z M63.08,39.688 C63.08,36.792 64.424,34.168 67.416,34.168 C68.792,34.168 69.72,34.696 70.376,35.448 L69.704,36.44 C69.16,35.8 68.536,35.352 67.416,35.352 C65.352,35.352 64.408,37.448 64.408,39.544 C64.408,39.688 64.408,39.816 64.424,39.96 C64.888,39.224 66.072,38.296 67.448,38.296 C69.368,38.296 70.936,39.432 70.936,41.704 C70.936,43.56 69.528,45.192 67.192,45.192 C64.216,45.192 63.08,42.584 63.08,39.688 Z M69.592,41.752 C69.592,40.184 68.504,39.448 67.128,39.448 C66.072,39.448 65.048,40.104 64.456,41.048 C64.584,42.376 65.288,44.008 67.144,44.008 C68.792,44.008 69.592,42.776 69.592,41.752 Z M74.12,47.944 L72.92,47.944 L72.92,37.272 L74.12,37.272 L74.12,38.424 C74.68,37.64 75.64,37.08 76.728,37.08 C78.76,37.08 80.168,38.616 80.168,41.128 C80.168,43.624 78.76,45.192 76.728,45.192 C75.672,45.192 74.744,44.696 74.12,43.832 L74.12,47.944 Z M78.904,41.128 C78.904,39.416 77.976,38.152 76.424,38.152 C75.48,38.152 74.536,38.712 74.12,39.384 L74.12,42.872 C74.536,43.544 75.48,44.12 76.424,44.12 C77.976,44.12 78.904,42.84 78.904,41.128 Z M87.112,45 L88.504,45 L85.528,41.032 L88.328,37.272 L86.936,37.272 L84.792,40.216 L82.648,37.272 L81.256,37.272 L84.056,41.032 L81.096,45 L82.472,45 L84.792,41.832 L87.112,45 Z M95.96,45.192 C96.664,45.192 97.096,44.984 97.4,44.696 L97.048,43.8 C96.888,43.976 96.568,44.12 96.232,44.12 C95.704,44.12 95.448,43.704 95.448,43.128 L95.448,38.328 L97.016,38.328 L97.016,37.272 L95.448,37.272 L95.448,35.16 L94.248,35.16 L94.248,37.272 L92.968,37.272 L92.968,38.328 L94.248,38.328 L94.248,43.384 C94.248,44.536 94.824,45.192 95.96,45.192 Z M98.264,41.128 C98.264,38.888 99.864,37.08 102.072,37.08 C104.408,37.08 105.784,38.904 105.784,41.224 L105.784,41.528 L99.528,41.528 C99.624,42.984 100.648,44.2 102.312,44.2 C103.192,44.2 104.088,43.848 104.696,43.224 L105.272,44.008 C104.504,44.776 103.464,45.192 102.2,45.192 C99.912,45.192 98.264,43.544 98.264,41.128 Z M102.056,38.072 C100.408,38.072 99.592,39.464 99.528,40.648 L104.6,40.648 C104.584,39.496 103.816,38.072 102.056,38.072 Z M112.728,45 L114.12,45 L111.144,41.032 L113.944,37.272 L112.552,37.272 L110.408,40.216 L108.264,37.272 L106.872,37.272 L109.672,41.032 L106.712,45 L108.088,45 L110.408,41.832 L112.728,45 Z M117.448,45.192 C118.152,45.192 118.584,44.984 118.888,44.696 L118.536,43.8 C118.376,43.976 118.056,44.12 117.72,44.12 C117.192,44.12 116.936,43.704 116.936,43.128 L116.936,38.328 L118.504,38.328 L118.504,37.272 L116.936,37.272 L116.936,35.16 L115.736,35.16 L115.736,37.272 L114.456,37.272 L114.456,38.328 L115.736,38.328 L115.736,43.384 C115.736,44.536 116.312,45.192 117.448,45.192 Z" id="46px-text-copy" fill="#6A7792"></path>
                    <path d="M35.528,99.432 C36.184,100.392 37.512,101.192 39.32,101.192 C41.672,101.192 43.096,99.896 43.096,98.12 C43.096,96.408 41.608,95.576 40.632,95.496 C41.64,95.32 42.936,94.552 42.936,93.016 C42.936,91.208 41.368,90.168 39.32,90.168 C37.672,90.168 36.44,90.888 35.672,91.816 L36.408,92.648 C37.192,91.8 38.056,91.352 39.224,91.352 C40.52,91.352 41.608,91.992 41.608,93.176 C41.608,94.408 40.472,94.936 39.128,94.936 C38.696,94.936 38.2,94.936 38.024,94.92 L38.024,96.136 C38.184,96.12 38.68,96.12 39.128,96.12 C40.696,96.12 41.784,96.68 41.784,98.008 C41.784,99.24 40.84,100.008 39.288,100.008 C38.024,100.008 36.936,99.432 36.312,98.6 L35.528,99.432 Z M44.792,95.672 C44.792,93.064 45.944,90.168 48.872,90.168 C51.784,90.168 52.952,93.064 52.952,95.672 C52.952,98.264 51.784,101.192 48.872,101.192 C45.944,101.192 44.792,98.264 44.792,95.672 Z M51.592,95.672 C51.592,93.544 50.904,91.352 48.872,91.352 C46.84,91.352 46.152,93.544 46.152,95.672 C46.152,97.8 46.84,100.008 48.872,100.008 C50.904,100.008 51.592,97.8 51.592,95.672 Z M56.168,103.944 L54.968,103.944 L54.968,93.272 L56.168,93.272 L56.168,94.424 C56.728,93.64 57.688,93.08 58.776,93.08 C60.808,93.08 62.216,94.616 62.216,97.128 C62.216,99.624 60.808,101.192 58.776,101.192 C57.72,101.192 56.792,100.696 56.168,99.832 L56.168,103.944 Z M60.952,97.128 C60.952,95.416 60.024,94.152 58.472,94.152 C57.528,94.152 56.584,94.712 56.168,95.384 L56.168,98.872 C56.584,99.544 57.528,100.12 58.472,100.12 C60.024,100.12 60.952,98.84 60.952,97.128 Z M69.16,101 L70.552,101 L67.576,97.032 L70.376,93.272 L68.984,93.272 L66.84,96.216 L64.696,93.272 L63.304,93.272 L66.104,97.032 L63.144,101 L64.52,101 L66.84,97.832 L69.16,101 Z M76.056,101 L77.256,101 L77.256,90.328 L76.056,90.328 L76.056,101 Z M79.208,97.128 C79.208,94.888 80.808,93.08 83.016,93.08 C85.352,93.08 86.728,94.904 86.728,97.224 L86.728,97.528 L80.472,97.528 C80.568,98.984 81.592,100.2 83.256,100.2 C84.136,100.2 85.032,99.848 85.64,99.224 L86.216,100.008 C85.448,100.776 84.408,101.192 83.144,101.192 C80.856,101.192 79.208,99.544 79.208,97.128 Z M83,94.072 C81.352,94.072 80.536,95.464 80.472,96.648 L85.544,96.648 C85.528,95.496 84.76,94.072 83,94.072 Z M93.88,101 L95.08,101 L95.08,95.576 C95.08,93.896 94.232,93.08 92.616,93.08 C91.464,93.08 90.408,93.752 89.864,94.392 L89.864,93.272 L88.664,93.272 L88.664,101 L89.864,101 L89.864,95.352 C90.312,94.728 91.208,94.152 92.152,94.152 C93.192,94.152 93.88,94.584 93.88,95.944 L93.88,101 Z M97.464,102.984 L98.072,102.088 C98.712,102.856 99.48,103.144 100.584,103.144 C101.864,103.144 103.064,102.52 103.064,100.824 L103.064,99.72 C102.504,100.504 101.56,101.096 100.472,101.096 C98.456,101.096 97.032,99.592 97.032,97.096 C97.032,94.616 98.44,93.08 100.472,93.08 C101.512,93.08 102.44,93.592 103.064,94.44 L103.064,93.272 L104.264,93.272 L104.264,100.776 C104.264,103.336 102.472,104.136 100.584,104.136 C99.272,104.136 98.376,103.88 97.464,102.984 Z M103.064,98.776 L103.064,95.4 C102.648,94.728 101.72,94.152 100.76,94.152 C99.208,94.152 98.28,95.384 98.28,97.096 C98.28,98.792 99.208,100.04 100.76,100.04 C101.72,100.04 102.648,99.448 103.064,98.776 Z M108.616,101.192 C109.32,101.192 109.752,100.984 110.056,100.696 L109.704,99.8 C109.544,99.976 109.224,100.12 108.888,100.12 C108.36,100.12 108.104,99.704 108.104,99.128 L108.104,94.328 L109.672,94.328 L109.672,93.272 L108.104,93.272 L108.104,91.16 L106.904,91.16 L106.904,93.272 L105.624,93.272 L105.624,94.328 L106.904,94.328 L106.904,99.384 C106.904,100.536 107.48,101.192 108.616,101.192 Z M116.6,101 L117.8,101 L117.8,95.544 C117.8,93.864 116.952,93.08 115.336,93.08 C114.168,93.08 113.112,93.752 112.568,94.392 L112.568,90.328 L111.368,90.328 L111.368,101 L112.568,101 L112.568,95.352 C113.032,94.728 113.928,94.152 114.856,94.152 C115.896,94.152 116.6,94.552 116.6,95.912 L116.6,101 Z M45.56,120 L52.888,120 L52.888,118.816 L47.656,118.816 C50.632,116.464 52.84,114.48 52.84,112.304 C52.84,110.176 51.032,109.168 49.256,109.168 C47.752,109.168 46.36,109.776 45.544,110.848 L46.36,111.696 C46.984,110.896 47.976,110.352 49.256,110.352 C50.36,110.352 51.48,110.944 51.48,112.304 C51.48,114.144 49.4,115.92 45.56,118.944 L45.56,120 Z M56.504,122.944 L55.304,122.944 L55.304,112.272 L56.504,112.272 L56.504,113.424 C57.064,112.64 58.024,112.08 59.112,112.08 C61.144,112.08 62.552,113.616 62.552,116.128 C62.552,118.624 61.144,120.192 59.112,120.192 C58.056,120.192 57.128,119.696 56.504,118.832 L56.504,122.944 Z M61.288,116.128 C61.288,114.416 60.36,113.152 58.808,113.152 C57.864,113.152 56.92,113.712 56.504,114.384 L56.504,117.872 C56.92,118.544 57.864,119.12 58.808,119.12 C60.36,119.12 61.288,117.84 61.288,116.128 Z M69.496,120 L70.888,120 L67.912,116.032 L70.712,112.272 L69.32,112.272 L67.176,115.216 L65.032,112.272 L63.64,112.272 L66.44,116.032 L63.48,120 L64.856,120 L67.176,116.832 L69.496,120 Z M75.72,118.976 C76.504,119.808 77.576,120.192 78.84,120.192 C80.84,120.192 81.88,119.152 81.88,117.856 C81.88,116.144 80.328,115.76 78.984,115.456 C77.976,115.216 77.096,114.976 77.096,114.224 C77.096,113.536 77.752,113.056 78.808,113.056 C79.8,113.056 80.648,113.472 81.112,114.032 L81.672,113.2 C81.048,112.576 80.12,112.08 78.808,112.08 C76.968,112.08 75.928,113.104 75.928,114.304 C75.928,115.904 77.416,116.256 78.728,116.56 C79.768,116.816 80.712,117.088 80.712,117.936 C80.712,118.688 80.072,119.216 78.888,119.216 C77.832,119.216 76.856,118.704 76.344,118.112 L75.72,118.976 Z M85.784,120.192 C86.488,120.192 86.92,119.984 87.224,119.696 L86.872,118.8 C86.712,118.976 86.392,119.12 86.056,119.12 C85.528,119.12 85.272,118.704 85.272,118.128 L85.272,113.328 L86.84,113.328 L86.84,112.272 L85.272,112.272 L85.272,110.16 L84.072,110.16 L84.072,112.272 L82.792,112.272 L82.792,113.328 L84.072,113.328 L84.072,118.384 C84.072,119.536 84.648,120.192 85.784,120.192 Z M88.536,120 L89.736,120 L89.736,114.528 C90.088,113.904 91.096,113.296 91.832,113.296 C92.024,113.296 92.168,113.312 92.312,113.344 L92.312,112.112 C91.256,112.112 90.36,112.704 89.736,113.52 L89.736,112.272 L88.536,112.272 L88.536,120 Z M97.192,120.192 C94.84,120.192 93.368,118.368 93.368,116.128 C93.368,113.888 94.84,112.08 97.192,112.08 C99.544,112.08 101.016,113.888 101.016,116.128 C101.016,118.368 99.544,120.192 97.192,120.192 Z M97.192,119.12 C98.84,119.12 99.752,117.712 99.752,116.128 C99.752,114.56 98.84,113.152 97.192,113.152 C95.544,113.152 94.616,114.56 94.616,116.128 C94.616,117.712 95.544,119.12 97.192,119.12 Z M108.232,120 L109.768,120 L106.328,115.776 L109.752,112.272 L108.232,112.272 L104.168,116.384 L104.168,109.328 L102.968,109.328 L102.968,120 L104.168,120 L104.168,117.792 L105.448,116.528 L108.232,120 Z M110.744,116.128 C110.744,113.888 112.344,112.08 114.552,112.08 C116.888,112.08 118.264,113.904 118.264,116.224 L118.264,116.528 L112.008,116.528 C112.104,117.984 113.128,119.2 114.792,119.2 C115.672,119.2 116.568,118.848 117.176,118.224 L117.752,119.008 C116.984,119.776 115.944,120.192 114.68,120.192 C112.392,120.192 110.744,118.544 110.744,116.128 Z M114.536,113.072 C112.888,113.072 112.072,114.464 112.008,115.648 L117.08,115.648 C117.064,114.496 116.296,113.072 114.536,113.072 Z" id="30px-length-2px-stro-copy" fill="#6A7792"></path>
                    <path d="M138.91,56 L142.452,56 L142.452,24.168 L138.91,24.168 L138.91,56 Z M161.542,35.99 L161.542,33 L154.228,33 L154.228,25.962 L150.824,25.962 L150.824,33 L147.558,33 L147.558,35.99 L150.824,35.99 L150.824,48.088 C150.824,54.712 152.434,56.506 157.172,56.506 C158.782,56.506 161.864,56 161.864,56 L161.634,53.148 C161.634,53.148 158.828,53.424 157.54,53.424 C154.55,53.424 154.228,51.998 154.228,46.984 L154.228,35.99 L161.542,35.99 Z M164.9,33.506 L167.614,33.506 L170.558,23.432 L166.924,23.432 L164.9,33.506 Z M191.074,33.414 C191.074,33.414 186.198,32.54 182.748,32.54 C178.562,32.54 174.468,34.196 174.468,39.256 C174.468,43.856 176.952,44.822 182.15,45.65 C187.164,46.432 188.36,47.03 188.36,49.422 C188.36,52.55 186.336,53.378 182.564,53.378 C180.218,53.378 174.974,52.596 174.974,52.596 L174.79,55.586 C174.79,55.586 179.942,56.46 182.886,56.46 C188.406,56.46 191.81,54.666 191.81,49.284 C191.81,44.822 189.648,43.672 183.898,42.706 C179.022,41.878 177.918,41.28 177.918,39.118 C177.918,36.404 180.08,35.622 182.932,35.622 C185.876,35.622 190.982,36.358 190.982,36.358 L191.074,33.414 Z M204.506,27.342 L214.304,27.342 L214.304,56 L217.8,56 L217.8,27.342 L227.506,27.342 L227.506,24.168 L204.506,24.168 L204.506,27.342 Z M231.416,56 L234.866,56 L234.866,33 L231.416,33 L231.416,56 Z M231.416,27.802 L234.866,27.802 L234.866,23.8 L231.416,23.8 L231.416,27.802 Z M244.94,56 L244.94,37.324 C244.94,37.324 247.838,35.622 251.104,35.622 C255.29,35.622 255.934,37.784 255.934,44.132 L255.934,56 L259.384,56 L259.384,44.04 C259.384,41.28 259.2,38.382 258.786,37.324 C258.786,37.324 261.868,35.622 265.272,35.622 C269.412,35.622 270.102,37.876 270.102,43.948 L270.102,56 L273.552,56 L273.552,43.856 C273.552,35.53 272.034,32.54 265.778,32.54 C261.684,32.54 257.59,34.886 257.59,34.886 C256.394,33.23 254.692,32.54 251.61,32.54 C248.344,32.54 244.894,34.61 244.894,34.61 L244.894,33 L241.49,33 L241.49,56 L244.94,56 Z M288.456,53.424 C291.906,53.424 296.92,53.01 296.92,53.01 L297.012,55.724 C297.012,55.724 291.768,56.46 288.042,56.46 C281.188,56.46 278.934,52.458 278.934,44.638 C278.934,35.898 282.706,32.54 288.548,32.54 C294.666,32.54 297.794,35.76 297.794,43.304 L297.61,45.926 L282.43,45.926 C282.43,50.848 283.948,53.424 288.456,53.424 Z M282.384,43.166 L294.344,43.166 C294.344,37.462 292.596,35.438 288.548,35.438 C284.638,35.438 282.43,37.6 282.384,43.166 Z M317.712,35.99 L324.382,35.99 L324.382,33 L317.712,33 L317.712,30.976 C317.712,26.698 318.54,25.594 321.116,25.594 C322.496,25.594 325.072,25.686 325.072,25.686 L325.118,22.834 C325.118,22.834 322.036,22.512 320.472,22.512 C315.964,22.512 314.262,24.306 314.262,30.93 L314.262,33 L311.364,33 L311.364,35.99 L314.262,35.99 L314.262,56 L317.712,56 L317.712,35.99 Z M337.354,32.54 C344.668,32.54 347.198,36.312 347.198,44.224 C347.198,52.596 345.128,56.46 337.354,56.46 C329.626,56.46 327.51,52.596 327.51,44.224 C327.51,36.312 330.086,32.54 337.354,32.54 Z M337.354,53.47 C342.828,53.47 343.656,50.756 343.656,44.224 C343.656,37.83 342.276,35.53 337.354,35.53 C332.478,35.53 331.052,37.83 331.052,44.224 C331.052,50.756 331.926,53.47 337.354,53.47 Z M352.81,56 L356.26,56 L356.26,39.118 C356.26,39.118 360.308,36.864 364.632,35.99 L364.632,32.494 C360.216,33.368 356.214,36.128 356.214,36.128 L356.214,33 L352.81,33 L352.81,56 Z M379.444,56 L382.986,56 L382.986,27.94 L383.63,27.94 L392.876,54.85 L396.832,54.85 L406.078,27.94 L406.722,27.94 L406.722,56 L410.264,56 L410.264,24.168 L403.87,24.168 L394.854,51.078 L385.838,24.168 L379.444,24.168 L379.444,56 Z M433.724,39.946 L433.724,51.722 C433.816,53.056 434.92,53.562 436.392,53.746 L436.254,56.46 C433.816,56.46 432.16,56 430.78,54.62 C430.78,54.62 426.64,56.46 422.5,56.46 C418.314,56.46 416.014,54.068 416.014,49.422 C416.014,45.006 418.314,43.074 423.052,42.614 L430.274,41.924 L430.274,39.946 C430.274,36.726 428.894,35.576 426.134,35.576 C422.914,35.576 417.44,36.174 417.44,36.174 L417.302,33.552 C417.302,33.552 422.362,32.54 426.318,32.54 C431.516,32.54 433.724,34.932 433.724,39.946 Z M430.274,44.546 L423.466,45.19 C420.66,45.466 419.556,46.8 419.556,49.33 C419.556,51.998 420.706,53.562 423.052,53.562 C426.456,53.562 430.274,52.136 430.274,52.136 L430.274,44.546 Z M440.532,56 L443.982,56 L443.982,39.118 C443.982,39.118 448.03,36.864 452.354,35.99 L452.354,32.494 C447.938,33.368 443.936,36.128 443.936,36.128 L443.936,33 L440.532,33 L440.532,56 Z M459.898,56 L459.898,45.466 L463.532,45.328 L470.386,56 L474.296,56 L466.476,43.58 L473.974,33 L470.064,33 L463.486,42.292 L459.898,42.476 L459.898,22.972 L456.448,22.972 L456.448,56 L459.898,56 Z M486.992,53.424 C490.442,53.424 495.456,53.01 495.456,53.01 L495.548,55.724 C495.548,55.724 490.304,56.46 486.578,56.46 C479.724,56.46 477.47,52.458 477.47,44.638 C477.47,35.898 481.242,32.54 487.084,32.54 C493.202,32.54 496.33,35.76 496.33,43.304 L496.146,45.926 L480.966,45.926 C480.966,50.848 482.484,53.424 486.992,53.424 Z M480.92,43.166 L492.88,43.166 C492.88,37.462 491.132,35.438 487.084,35.438 C483.174,35.438 480.966,37.6 480.92,43.166 Z M513.626,35.99 L513.626,33 L506.312,33 L506.312,25.962 L502.908,25.962 L502.908,33 L499.642,33 L499.642,35.99 L502.908,35.99 L502.908,48.088 C502.908,54.712 504.518,56.506 509.256,56.506 C510.866,56.506 513.948,56 513.948,56 L513.718,53.148 C513.718,53.148 510.912,53.424 509.624,53.424 C506.634,53.424 506.312,51.998 506.312,46.984 L506.312,35.99 L513.626,35.99 Z" id="It’s-Time-for-Market" fill="url(#linearGradient-1)"></path>
                </g>
                <path d="M135,96 L195,96" id="Line-Copy-4" stroke="#C8102E" stroke-width="3" stroke-linecap="square"></path>
                <rect id="Rectangle-4" fill-opacity="0.1" fill="#0087B5" x="133" y="8" width="60.3086342" height="49.2400564"></rect>
                <path d="M135,7.875 L192.92803,7.875" id="Line-Copy-5" stroke="#0087B5" stroke-width="1.5" stroke-linecap="square" stroke-dasharray="2,4,2,4"></path>
            </g>
        </g>
    </g>
</svg>