<svg width="514" height="123" xmlns="http://www.w3.org/2000/svg"><defs><linearGradient x1="82.097%" y1="50%" x2="40.867%" y2="50%" id="a"><stop stop-color="#FFF" offset="0%"/><stop stop-color="#071D49" offset="100%"/></linearGradient></defs><g fill="none" fill-rule="evenodd"><path d="M.6 11h7.328V9.816H2.696C5.672 7.464 7.88 5.48 7.88 3.304 7.88 1.176 6.072.168 4.296.168 2.792.168 1.4.776.584 1.848l.816.848c.624-.8 1.616-1.344 2.896-1.344 1.104 0 2.224.592 2.224 1.952 0 1.84-2.08 3.616-5.92 6.64V11zm9.024-3.344h3.84V6.6h-3.84v1.056zm4.784 1.776c.656.96 1.984 1.76 3.792 1.76 2.352 0 3.776-1.296 3.776-3.072 0-1.712-1.488-2.544-2.464-2.624 1.008-.176 2.304-.944 2.304-2.48 0-1.808-1.568-2.848-3.616-2.848-1.648 0-2.88.72-3.648 1.648l.736.832c.784-.848 1.648-1.296 2.816-1.296 1.296 0 2.384.64 2.384 1.824 0 1.232-1.136 1.76-2.48 1.76-.432 0-.928 0-1.104-.016v1.216c.16-.016.656-.016 1.104-.016 1.568 0 2.656.56 2.656 1.888 0 1.232-.944 2-2.496 2-1.264 0-2.352-.576-2.976-1.408l-.784.832zM28.184 11h1.2V.328h-1.2V11zm3.152-3.872c0-2.24 1.6-4.048 3.808-4.048 2.336 0 3.712 1.824 3.712 4.144v.304H32.6c.096 1.456 1.12 2.672 2.784 2.672.88 0 1.776-.352 2.384-.976l.576.784c-.768.768-1.808 1.184-3.072 1.184-2.288 0-3.936-1.648-3.936-4.064zm3.792-3.056c-1.648 0-2.464 1.392-2.528 2.576h5.072c-.016-1.152-.784-2.576-2.544-2.576zm7.616 7.12c.704 0 1.136-.208 1.44-.496l-.352-.896c-.16.176-.48.32-.816.32-.528 0-.784-.416-.784-.992v-4.8H43.8V3.272h-1.568V1.16h-1.2v2.112h-1.28v1.056h1.28v5.056c0 1.152.576 1.808 1.712 1.808zm4.704 0c.704 0 1.136-.208 1.44-.496l-.352-.896c-.16.176-.48.32-.816.32-.528 0-.784-.416-.784-.992v-4.8h1.568V3.272h-1.568V1.16h-1.2v2.112h-1.28v1.056h1.28v5.056c0 1.152.576 1.808 1.712 1.808zm2.304-4.064c0-2.24 1.6-4.048 3.808-4.048 2.336 0 3.712 1.824 3.712 4.144v.304h-6.256c.096 1.456 1.12 2.672 2.784 2.672.88 0 1.776-.352 2.384-.976l.576.784c-.768.768-1.808 1.184-3.072 1.184-2.288 0-3.936-1.648-3.936-4.064zm3.792-3.056c-1.648 0-2.464 1.392-2.528 2.576h5.072c-.016-1.152-.784-2.576-2.544-2.576zM59.208 11h1.2V5.528c.352-.624 1.36-1.232 2.096-1.232.192 0 .336.016.48.048V3.112c-1.056 0-1.952.592-2.576 1.408V3.272h-1.2V11zm4.608-1.024c.784.832 1.856 1.216 3.12 1.216 2 0 3.04-1.04 3.04-2.336 0-1.712-1.552-2.096-2.896-2.4-1.008-.24-1.888-.48-1.888-1.232 0-.688.656-1.168 1.712-1.168.992 0 1.84.416 2.304.976l.56-.832c-.624-.624-1.552-1.12-2.864-1.12-1.84 0-2.88 1.024-2.88 2.224 0 1.6 1.488 1.952 2.8 2.256 1.04.256 1.984.528 1.984 1.376 0 .752-.64 1.28-1.824 1.28-1.056 0-2.032-.512-2.544-1.104l-.624.864zM76.056 11h1.2V.328h-1.2V11zm3.152-3.872c0-2.24 1.6-4.048 3.808-4.048 2.336 0 3.712 1.824 3.712 4.144v.304h-6.256c.096 1.456 1.12 2.672 2.784 2.672.88 0 1.776-.352 2.384-.976l.576.784c-.768.768-1.808 1.184-3.072 1.184-2.288 0-3.936-1.648-3.936-4.064zM83 4.072c-1.648 0-2.464 1.392-2.528 2.576h5.072C85.528 5.496 84.76 4.072 83 4.072zM93.88 11h1.2V5.576c0-1.68-.848-2.496-2.464-2.496-1.152 0-2.208.672-2.752 1.312v-1.12h-1.2V11h1.2V5.352c.448-.624 1.344-1.2 2.288-1.2 1.04 0 1.728.432 1.728 1.792V11zm3.584 1.984l.608-.896c.64.768 1.408 1.056 2.512 1.056 1.28 0 2.48-.624 2.48-2.32V9.72c-.56.784-1.504 1.376-2.592 1.376-2.016 0-3.44-1.504-3.44-4 0-2.48 1.408-4.016 3.44-4.016 1.04 0 1.968.512 2.592 1.36V3.272h1.2v7.504c0 2.56-1.792 3.36-3.68 3.36-1.312 0-2.208-.256-3.12-1.152zm5.6-4.208V5.4c-.416-.672-1.344-1.248-2.304-1.248-1.552 0-2.48 1.232-2.48 2.944 0 1.696.928 2.944 2.48 2.944.96 0 1.888-.592 2.304-1.264zm5.552 2.416c.704 0 1.136-.208 1.44-.496l-.352-.896c-.16.176-.48.32-.816.32-.528 0-.784-.416-.784-.992v-4.8h1.568V3.272h-1.568V1.16h-1.2v2.112h-1.28v1.056h1.28v5.056c0 1.152.576 1.808 1.712 1.808zM116.6 11h1.2V5.544c0-1.68-.848-2.464-2.464-2.464-1.168 0-2.224.672-2.768 1.312V.328h-1.2V11h1.2V5.352c.464-.624 1.36-1.2 2.288-1.2 1.04 0 1.744.4 1.744 1.76V11zM58.92 45v-2.704h-5.072v-1.104l4.576-6.864h1.824v6.8h1.504v1.168h-1.504V45H58.92zm0-9.44l-3.744 5.568h3.744V35.56zm4.16 4.128c0-2.896 1.344-5.52 4.336-5.52 1.376 0 2.304.528 2.96 1.28l-.672.992c-.544-.64-1.168-1.088-2.288-1.088-2.064 0-3.008 2.096-3.008 4.192 0 .144 0 .272.016.416.464-.736 1.648-1.664 3.024-1.664 1.92 0 3.488 1.136 3.488 3.408 0 1.856-1.408 3.488-3.744 3.488-2.976 0-4.112-2.608-4.112-5.504zm6.512 2.064c0-1.568-1.088-2.304-2.464-2.304-1.056 0-2.08.656-2.672 1.6.128 1.328.832 2.96 2.688 2.96 1.648 0 2.448-1.232 2.448-2.256zm4.528 6.192h-1.2V37.272h1.2v1.152a3.23 3.23 0 012.608-1.344c2.032 0 3.44 1.536 3.44 4.048 0 2.496-1.408 4.064-3.44 4.064-1.056 0-1.984-.496-2.608-1.36v4.112zm4.784-6.816c0-1.712-.928-2.976-2.48-2.976-.944 0-1.888.56-2.304 1.232v3.488c.416.672 1.36 1.248 2.304 1.248 1.552 0 2.48-1.28 2.48-2.992zM87.112 45h1.392l-2.976-3.968 2.8-3.76h-1.392l-2.144 2.944-2.144-2.944h-1.392l2.8 3.76L81.096 45h1.376l2.32-3.168L87.112 45zm8.848.192c.704 0 1.136-.208 1.44-.496l-.352-.896c-.16.176-.48.32-.816.32-.528 0-.784-.416-.784-.992v-4.8h1.568v-1.056h-1.568V35.16h-1.2v2.112h-1.28v1.056h1.28v5.056c0 1.152.576 1.808 1.712 1.808zm2.304-4.064c0-2.24 1.6-4.048 3.808-4.048 2.336 0 3.712 1.824 3.712 4.144v.304h-6.256c.096 1.456 1.12 2.672 2.784 2.672.88 0 1.776-.352 2.384-.976l.576.784c-.768.768-1.808 1.184-3.072 1.184-2.288 0-3.936-1.648-3.936-4.064zm3.792-3.056c-1.648 0-2.464 1.392-2.528 2.576h5.072c-.016-1.152-.784-2.576-2.544-2.576zM112.728 45h1.392l-2.976-3.968 2.8-3.76h-1.392l-2.144 2.944-2.144-2.944h-1.392l2.8 3.76-2.96 3.968h1.376l2.32-3.168 2.32 3.168zm4.72.192c.704 0 1.136-.208 1.44-.496l-.352-.896c-.16.176-.48.32-.816.32-.528 0-.784-.416-.784-.992v-4.8h1.568v-1.056h-1.568V35.16h-1.2v2.112h-1.28v1.056h1.28v5.056c0 1.152.576 1.808 1.712 1.808zm-81.92 54.24c.656.96 1.984 1.76 3.792 1.76 2.352 0 3.776-1.296 3.776-3.072 0-1.712-1.488-2.544-2.464-2.624 1.008-.176 2.304-.944 2.304-2.48 0-1.808-1.568-2.848-3.616-2.848-1.648 0-2.88.72-3.648 1.648l.736.832c.784-.848 1.648-1.296 2.816-1.296 1.296 0 2.384.64 2.384 1.824 0 1.232-1.136 1.76-2.48 1.76-.432 0-.928 0-1.104-.016v1.216c.16-.016.656-.016 1.104-.016 1.568 0 2.656.56 2.656 1.888 0 1.232-.944 2-2.496 2-1.264 0-2.352-.576-2.976-1.408l-.784.832zm9.264-3.76c0-2.608 1.152-5.504 4.08-5.504 2.912 0 4.08 2.896 4.08 5.504 0 2.592-1.168 5.52-4.08 5.52-2.928 0-4.08-2.928-4.08-5.52zm6.8 0c0-2.128-.688-4.32-2.72-4.32s-2.72 2.192-2.72 4.32.688 4.336 2.72 4.336 2.72-2.208 2.72-4.336zm4.576 8.272h-1.2V93.272h1.2v1.152a3.23 3.23 0 012.608-1.344c2.032 0 3.44 1.536 3.44 4.048 0 2.496-1.408 4.064-3.44 4.064-1.056 0-1.984-.496-2.608-1.36v4.112zm4.784-6.816c0-1.712-.928-2.976-2.48-2.976-.944 0-1.888.56-2.304 1.232v3.488c.416.672 1.36 1.248 2.304 1.248 1.552 0 2.48-1.28 2.48-2.992zM69.16 101h1.392l-2.976-3.968 2.8-3.76h-1.392l-2.144 2.944-2.144-2.944h-1.392l2.8 3.76-2.96 3.968h1.376l2.32-3.168L69.16 101zm6.896 0h1.2V90.328h-1.2V101zm3.152-3.872c0-2.24 1.6-4.048 3.808-4.048 2.336 0 3.712 1.824 3.712 4.144v.304h-6.256c.096 1.456 1.12 2.672 2.784 2.672.88 0 1.776-.352 2.384-.976l.576.784c-.768.768-1.808 1.184-3.072 1.184-2.288 0-3.936-1.648-3.936-4.064zM83 94.072c-1.648 0-2.464 1.392-2.528 2.576h5.072c-.016-1.152-.784-2.576-2.544-2.576zM93.88 101h1.2v-5.424c0-1.68-.848-2.496-2.464-2.496-1.152 0-2.208.672-2.752 1.312v-1.12h-1.2V101h1.2v-5.648c.448-.624 1.344-1.2 2.288-1.2 1.04 0 1.728.432 1.728 1.792V101zm3.584 1.984l.608-.896c.64.768 1.408 1.056 2.512 1.056 1.28 0 2.48-.624 2.48-2.32V99.72c-.56.784-1.504 1.376-2.592 1.376-2.016 0-3.44-1.504-3.44-4 0-2.48 1.408-4.016 3.44-4.016 1.04 0 1.968.512 2.592 1.36v-1.168h1.2v7.504c0 2.56-1.792 3.36-3.68 3.36-1.312 0-2.208-.256-3.12-1.152zm5.6-4.208V95.4c-.416-.672-1.344-1.248-2.304-1.248-1.552 0-2.48 1.232-2.48 2.944 0 1.696.928 2.944 2.48 2.944.96 0 1.888-.592 2.304-1.264zm5.552 2.416c.704 0 1.136-.208 1.44-.496l-.352-.896c-.16.176-.48.32-.816.32-.528 0-.784-.416-.784-.992v-4.8h1.568v-1.056h-1.568V91.16h-1.2v2.112h-1.28v1.056h1.28v5.056c0 1.152.576 1.808 1.712 1.808zM116.6 101h1.2v-5.456c0-1.68-.848-2.464-2.464-2.464-1.168 0-2.224.672-2.768 1.312v-4.064h-1.2V101h1.2v-5.648c.464-.624 1.36-1.2 2.288-1.2 1.04 0 1.744.4 1.744 1.76V101zm-71.04 19h7.328v-1.184h-5.232c2.976-2.352 5.184-4.336 5.184-6.512 0-2.128-1.808-3.136-3.584-3.136-1.504 0-2.896.608-3.712 1.68l.816.848c.624-.8 1.616-1.344 2.896-1.344 1.104 0 2.224.592 2.224 1.952 0 1.84-2.08 3.616-5.92 6.64V120zm10.944 2.944h-1.2v-10.672h1.2v1.152a3.23 3.23 0 012.608-1.344c2.032 0 3.44 1.536 3.44 4.048 0 2.496-1.408 4.064-3.44 4.064-1.056 0-1.984-.496-2.608-1.36v4.112zm4.784-6.816c0-1.712-.928-2.976-2.48-2.976-.944 0-1.888.56-2.304 1.232v3.488c.416.672 1.36 1.248 2.304 1.248 1.552 0 2.48-1.28 2.48-2.992zM69.496 120h1.392l-2.976-3.968 2.8-3.76H69.32l-2.144 2.944-2.144-2.944H63.64l2.8 3.76L63.48 120h1.376l2.32-3.168 2.32 3.168zm6.224-1.024c.784.832 1.856 1.216 3.12 1.216 2 0 3.04-1.04 3.04-2.336 0-1.712-1.552-2.096-2.896-2.4-1.008-.24-1.888-.48-1.888-1.232 0-.688.656-1.168 1.712-1.168.992 0 1.84.416 2.304.976l.56-.832c-.624-.624-1.552-1.12-2.864-1.12-1.84 0-2.88 1.024-2.88 2.224 0 1.6 1.488 1.952 2.8 2.256 1.04.256 1.984.528 1.984 1.376 0 .752-.64 1.28-1.824 1.28-1.056 0-2.032-.512-2.544-1.104l-.624.864zm10.064 1.216c.704 0 1.136-.208 1.44-.496l-.352-.896c-.16.176-.48.32-.816.32-.528 0-.784-.416-.784-.992v-4.8h1.568v-1.056h-1.568v-2.112h-1.2v2.112h-1.28v1.056h1.28v5.056c0 1.152.576 1.808 1.712 1.808zm2.752-.192h1.2v-5.472c.352-.624 1.36-1.232 2.096-1.232.192 0 .336.016.48.048v-1.232c-1.056 0-1.952.592-2.576 1.408v-1.248h-1.2V120zm8.656.192c-2.352 0-3.824-1.824-3.824-4.064s1.472-4.048 3.824-4.048 3.824 1.808 3.824 4.048-1.472 4.064-3.824 4.064zm0-1.072c1.648 0 2.56-1.408 2.56-2.992 0-1.568-.912-2.976-2.56-2.976-1.648 0-2.576 1.408-2.576 2.976 0 1.584.928 2.992 2.576 2.992zm11.04.88h1.536l-3.44-4.224 3.424-3.504h-1.52l-4.064 4.112v-7.056h-1.2V120h1.2v-2.208l1.28-1.264 2.784 3.472zm2.512-3.872c0-2.24 1.6-4.048 3.808-4.048 2.336 0 3.712 1.824 3.712 4.144v.304h-6.256c.096 1.456 1.12 2.672 2.784 2.672.88 0 1.776-.352 2.384-.976l.576.784c-.768.768-1.808 1.184-3.072 1.184-2.288 0-3.936-1.648-3.936-4.064zm3.792-3.056c-1.648 0-2.464 1.392-2.528 2.576h5.072c-.016-1.152-.784-2.576-2.544-2.576z" fill="#6A7792"/><path d="M138.91 56h3.542V24.168h-3.542V56zm22.632-20.01V33h-7.314v-7.038h-3.404V33h-3.266v2.99h3.266v12.098c0 6.624 1.61 8.418 6.348 8.418 1.61 0 4.692-.506 4.692-.506l-.23-2.852s-2.806.276-4.094.276c-2.99 0-3.312-1.426-3.312-6.44V35.99h7.314zm3.358-2.484h2.714l2.944-10.074h-3.634L164.9 33.506zm26.174-.092s-4.876-.874-8.326-.874c-4.186 0-8.28 1.656-8.28 6.716 0 4.6 2.484 5.566 7.682 6.394 5.014.782 6.21 1.38 6.21 3.772 0 3.128-2.024 3.956-5.796 3.956-2.346 0-7.59-.782-7.59-.782l-.184 2.99s5.152.874 8.096.874c5.52 0 8.924-1.794 8.924-7.176 0-4.462-2.162-5.612-7.912-6.578-4.876-.828-5.98-1.426-5.98-3.588 0-2.714 2.162-3.496 5.014-3.496 2.944 0 8.05.736 8.05.736l.092-2.944zm13.432-6.072h9.798V56h3.496V27.342h9.706v-3.174h-23v3.174zM231.416 56h3.45V33h-3.45v23zm0-28.198h3.45V23.8h-3.45v4.002zM244.94 56V37.324s2.898-1.702 6.164-1.702c4.186 0 4.83 2.162 4.83 8.51V56h3.45V44.04c0-2.76-.184-5.658-.598-6.716 0 0 3.082-1.702 6.486-1.702 4.14 0 4.83 2.254 4.83 8.326V56h3.45V43.856c0-8.326-1.518-11.316-7.774-11.316-4.094 0-8.188 2.346-8.188 2.346-1.196-1.656-2.898-2.346-5.98-2.346-3.266 0-6.716 2.07-6.716 2.07V33h-3.404v23h3.45zm43.516-2.576c3.45 0 8.464-.414 8.464-.414l.092 2.714s-5.244.736-8.97.736c-6.854 0-9.108-4.002-9.108-11.822 0-8.74 3.772-12.098 9.614-12.098 6.118 0 9.246 3.22 9.246 10.764l-.184 2.622h-15.18c0 4.922 1.518 7.498 6.026 7.498zm-6.072-10.258h11.96c0-5.704-1.748-7.728-5.796-7.728-3.91 0-6.118 2.162-6.164 7.728zm35.328-7.176h6.67V33h-6.67v-2.024c0-4.278.828-5.382 3.404-5.382 1.38 0 3.956.092 3.956.092l.046-2.852s-3.082-.322-4.646-.322c-4.508 0-6.21 1.794-6.21 8.418V33h-2.898v2.99h2.898V56h3.45V35.99zm19.642-3.45c7.314 0 9.844 3.772 9.844 11.684 0 8.372-2.07 12.236-9.844 12.236-7.728 0-9.844-3.864-9.844-12.236 0-7.912 2.576-11.684 9.844-11.684zm0 20.93c5.474 0 6.302-2.714 6.302-9.246 0-6.394-1.38-8.694-6.302-8.694-4.876 0-6.302 2.3-6.302 8.694 0 6.532.874 9.246 6.302 9.246zM352.81 56h3.45V39.118s4.048-2.254 8.372-3.128v-3.496c-4.416.874-8.418 3.634-8.418 3.634V33h-3.404v23zm26.634 0h3.542V27.94h.644l9.246 26.91h3.956l9.246-26.91h.644V56h3.542V24.168h-6.394l-9.016 26.91-9.016-26.91h-6.394V56zm54.28-16.054v11.776c.092 1.334 1.196 1.84 2.668 2.024l-.138 2.714c-2.438 0-4.094-.46-5.474-1.84 0 0-4.14 1.84-8.28 1.84-4.186 0-6.486-2.392-6.486-7.038 0-4.416 2.3-6.348 7.038-6.808l7.222-.69v-1.978c0-3.22-1.38-4.37-4.14-4.37-3.22 0-8.694.598-8.694.598l-.138-2.622s5.06-1.012 9.016-1.012c5.198 0 7.406 2.392 7.406 7.406zm-3.45 4.6l-6.808.644c-2.806.276-3.91 1.61-3.91 4.14 0 2.668 1.15 4.232 3.496 4.232 3.404 0 7.222-1.426 7.222-1.426v-7.59zM440.532 56h3.45V39.118s4.048-2.254 8.372-3.128v-3.496c-4.416.874-8.418 3.634-8.418 3.634V33h-3.404v23zm19.366 0V45.466l3.634-.138L470.386 56h3.91l-7.82-12.42L473.974 33h-3.91l-6.578 9.292-3.588.184V22.972h-3.45V56h3.45zm27.094-2.576c3.45 0 8.464-.414 8.464-.414l.092 2.714s-5.244.736-8.97.736c-6.854 0-9.108-4.002-9.108-11.822 0-8.74 3.772-12.098 9.614-12.098 6.118 0 9.246 3.22 9.246 10.764l-.184 2.622h-15.18c0 4.922 1.518 7.498 6.026 7.498zm-6.072-10.258h11.96c0-5.704-1.748-7.728-5.796-7.728-3.91 0-6.118 2.162-6.164 7.728zm32.706-7.176V33h-7.314v-7.038h-3.404V33h-3.266v2.99h3.266v12.098c0 6.624 1.61 8.418 6.348 8.418 1.61 0 4.692-.506 4.692-.506l-.23-2.852s-2.806.276-4.094.276c-2.99 0-3.312-1.426-3.312-6.44V35.99h7.314z" fill="url(#a)"/><path d="M135 96h60" stroke="#C8102E" stroke-width="3" stroke-linecap="square"/><path fill-opacity=".1" fill="#0087B5" d="M133 8h60.309v49.24H133z"/><path d="M135 7.875h57.928" stroke="#0087B5" stroke-width="1.5" stroke-linecap="square" stroke-dasharray="2,4,2,4"/></g></svg>