<svg width="180" height="111" xmlns="http://www.w3.org/2000/svg"><g fill="none" fill-rule="evenodd"><path d="M2.404 107V94.994H7.75c2.088 0 3.366 1.26 3.366 3.06 0 1.512-1.008 2.52-2.106 2.754 1.278.198 2.34 1.512 2.34 2.952 0 1.926-1.278 3.24-3.474 3.24H2.404zm1.494-6.804h3.6c1.35 0 2.07-.828 2.07-1.926 0-1.08-.72-1.944-2.07-1.944h-3.6v3.87zm0 5.472H7.57c1.404 0 2.232-.792 2.232-2.07 0-1.098-.756-2.07-2.232-2.07H3.898v4.14zm13.572 1.548c-2.646 0-4.302-2.052-4.302-4.572s1.656-4.554 4.302-4.554 4.302 2.034 4.302 4.554c0 2.52-1.656 4.572-4.302 4.572zm0-1.206c1.854 0 2.88-1.584 2.88-3.366 0-1.764-1.026-3.348-2.88-3.348-1.854 0-2.898 1.584-2.898 3.348 0 1.782 1.044 3.366 2.898 3.366zm12.798.99v-1.296c-.648.882-1.71 1.512-2.934 1.512-2.268 0-3.87-1.728-3.87-4.554 0-2.772 1.584-4.572 3.87-4.572 1.17 0 2.232.576 2.934 1.53v-4.626h1.35V107h-1.35zm0-2.358V100.7c-.486-.756-1.53-1.404-2.61-1.404-1.746 0-2.79 1.44-2.79 3.366 0 1.926 1.044 3.348 2.79 3.348 1.08 0 2.124-.612 2.61-1.368zm3.78 4.536l-.216 1.224c.252.072.702.126.99.126 1.152-.018 2.034-.504 2.556-1.764l4.356-10.458h-1.476l-2.88 7.128-2.898-7.128h-1.458l3.636 8.784-.576 1.314c-.306.72-.702.918-1.296.918a2.07 2.07 0 01-.738-.144zM50.806 107H52.3V96.326h3.816v-1.332h-9.108v1.332h3.798V107zm6.732-4.356c0-2.52 1.8-4.554 4.284-4.554 2.628 0 4.176 2.052 4.176 4.662v.342H58.96c.108 1.638 1.26 3.006 3.132 3.006.99 0 1.998-.396 2.682-1.098l.648.882c-.864.864-2.034 1.332-3.456 1.332-2.574 0-4.428-1.854-4.428-4.572zm4.266-3.438c-1.854 0-2.772 1.566-2.844 2.898h5.706c-.018-1.296-.882-2.898-2.862-2.898zM73.81 107h1.566l-3.348-4.464 3.15-4.23h-1.566l-2.412 3.312-2.412-3.312h-1.566l3.15 4.23-3.33 4.464h1.548l2.61-3.564L73.81 107zm5.31.216c.792 0 1.278-.234 1.62-.558l-.396-1.008c-.18.198-.54.36-.918.36-.594 0-.882-.468-.882-1.116v-5.4h1.764v-1.188h-1.764V95.93h-1.35v2.376h-1.44v1.188h1.44v5.688c0 1.296.648 2.034 1.926 2.034zM1.416 3.064h6.816V23h2.432V3.064h6.752V.856h-16v2.208zM20.136 23h2.4V7h-2.4v16zm0-19.616h2.4V.6h-2.4v2.784zM35.432 9.08V7h-5.088V2.104h-2.368V7h-2.272v2.08h2.272v8.416c0 4.608 1.12 5.856 4.416 5.856 1.12 0 3.264-.352 3.264-.352l-.16-1.984s-1.952.192-2.848.192c-2.08 0-2.304-.992-2.304-4.48V9.08h5.088zM38.568 23h2.4V.024h-2.4V23zm13.12-1.792c2.4 0 5.888-.288 5.888-.288l.064 1.888s-3.648.512-6.24.512c-4.768 0-6.336-2.784-6.336-8.224 0-6.08 2.624-8.416 6.688-8.416 4.256 0 6.432 2.24 6.432 7.488l-.128 1.824h-10.56c0 3.424 1.056 5.216 4.192 5.216zm-4.224-7.136h8.32c0-3.968-1.216-5.376-4.032-5.376-2.72 0-4.256 1.504-4.288 5.376z" fill="#071D49"/><path d="M1 57h29" stroke="#C8102E" stroke-width="2" stroke-linecap="square"/><path fill="#D0021B" opacity=".05" d="M0 26h134v30H0zm0 32h134v30H0z"/><path d="M144.632 77.432c.656.96 1.984 1.76 3.792 1.76 2.352 0 3.776-1.296 3.776-3.072 0-1.712-1.488-2.544-2.464-2.624 1.008-.176 2.304-.944 2.304-2.48 0-1.808-1.568-2.848-3.616-2.848-1.648 0-2.88.72-3.648 1.648l.736.832c.784-.848 1.648-1.296 2.816-1.296 1.296 0 2.384.64 2.384 1.824 0 1.232-1.136 1.76-2.48 1.76-.432 0-.928 0-1.104-.016v1.216c.16-.016.656-.016 1.104-.016 1.568 0 2.656.56 2.656 1.888 0 1.232-.944 2-2.496 2-1.264 0-2.352-.576-2.976-1.408l-.784.832zm9.264-3.76c0-2.608 1.152-5.504 4.08-5.504 2.912 0 4.08 2.896 4.08 5.504 0 2.592-1.168 5.52-4.08 5.52-2.928 0-4.08-2.928-4.08-5.52zm6.8 0c0-2.128-.688-4.32-2.72-4.32s-2.72 2.192-2.72 4.32.688 4.336 2.72 4.336 2.72-2.208 2.72-4.336zm4.576 8.272h-1.2V71.272h1.2v1.152a3.23 3.23 0 012.608-1.344c2.032 0 3.44 1.536 3.44 4.048 0 2.496-1.408 4.064-3.44 4.064-1.056 0-1.984-.496-2.608-1.36v4.112zm4.784-6.816c0-1.712-.928-2.976-2.48-2.976-.944 0-1.888.56-2.304 1.232v3.488c.416.672 1.36 1.248 2.304 1.248 1.552 0 2.48-1.28 2.48-2.992zM178.264 79h1.392l-2.976-3.968 2.8-3.76h-1.392l-2.144 2.944-2.144-2.944h-1.392l2.8 3.76-2.96 3.968h1.376l2.32-3.168 2.32 3.168zm-33.632-33.568c.656.96 1.984 1.76 3.792 1.76 2.352 0 3.776-1.296 3.776-3.072 0-1.712-1.488-2.544-2.464-2.624 1.008-.176 2.304-.944 2.304-2.48 0-1.808-1.568-2.848-3.616-2.848-1.648 0-2.88.72-3.648 1.648l.736.832c.784-.848 1.648-1.296 2.816-1.296 1.296 0 2.384.64 2.384 1.824 0 1.232-1.136 1.76-2.48 1.76-.432 0-.928 0-1.104-.016v1.216c.16-.016.656-.016 1.104-.016 1.568 0 2.656.56 2.656 1.888 0 1.232-.944 2-2.496 2-1.264 0-2.352-.576-2.976-1.408l-.784.832zm9.264-3.76c0-2.608 1.152-5.504 4.08-5.504 2.912 0 4.08 2.896 4.08 5.504 0 2.592-1.168 5.52-4.08 5.52-2.928 0-4.08-2.928-4.08-5.52zm6.8 0c0-2.128-.688-4.32-2.72-4.32s-2.72 2.192-2.72 4.32.688 4.336 2.72 4.336 2.72-2.208 2.72-4.336zm4.576 8.272h-1.2V39.272h1.2v1.152a3.23 3.23 0 012.608-1.344c2.032 0 3.44 1.536 3.44 4.048 0 2.496-1.408 4.064-3.44 4.064-1.056 0-1.984-.496-2.608-1.36v4.112zm4.784-6.816c0-1.712-.928-2.976-2.48-2.976-.944 0-1.888.56-2.304 1.232v3.488c.416.672 1.36 1.248 2.304 1.248 1.552 0 2.48-1.28 2.48-2.992zM178.264 47h1.392l-2.976-3.968 2.8-3.76h-1.392l-2.144 2.944-2.144-2.944h-1.392l2.8 3.76-2.96 3.968h1.376l2.32-3.168 2.32 3.168z" fill="#C8102E" opacity=".7"/></g></svg>