<svg width="50" height="36" xmlns="http://www.w3.org/2000/svg"><g fill="none" fill-rule="evenodd"><g transform="translate(1 1.023)"><path d="M.068 20.62c0-1.107.894-2.006 1.997-2.006H34.25a2 2 0 011.997 2.007v10.637a2.002 2.002 0 01-1.997 2.007H2.065a1.999 1.999 0 01-1.997-2.007V20.621zm0-18.556C.068.956.962.057 2.065.057H34.25a2 2 0 011.997 2.007V12.7a2.002 2.002 0 01-1.997 2.007H2.065A1.999 1.999 0 01.068 12.7V2.064z" stroke="#071D49" stroke-width="1.5"/><ellipse fill="#071D49" cx="6.111" cy="25.856" rx="1.222" ry="1.221"/><ellipse fill="#071D49" cx="11.489" cy="25.856" rx="1.222" ry="1.221"/><ellipse fill="#071D49" cx="16.867" cy="25.856" rx="1.222" ry="1.221"/></g><g transform="translate(5.366 6.451)" fill="#071D49"><ellipse cx="1.745" cy="1.87" rx="1.222" ry="1.221"/><ellipse cx="7.123" cy="1.87" rx="1.222" ry="1.221"/><ellipse cx="12.501" cy="1.87" rx="1.222" ry="1.221"/></g><g transform="translate(22.512 6.86)" stroke="#071D49"><ellipse stroke-width="1.5" fill="#FFF" cx="10.86" cy="10.992" rx="10.56" ry="10.548"/><path d="M18.444 20.006l6.955 6.821" stroke-width="2.5" stroke-linecap="round"/></g></g></svg>