<?xml version="1.0" encoding="UTF-8"?>
<svg width="32px" height="37px" viewBox="0 0 32 37" version="1.1" xmlns="http://www.w3.org/2000/svg" xmlns:xlink="http://www.w3.org/1999/xlink">
    <!-- Generator: Sketch 45 (43475) - http://www.bohemiancoding.com/sketch -->
    <title>health icon</title>
    <desc>Created with Sketch.</desc>
    <defs></defs>
    <g id="Page-1" stroke="none" stroke-width="1" fill="none" fill-rule="evenodd" stroke-linecap="round" stroke-linejoin="round">
        <g id="6-14-5" transform="translate(-616.000000, -2582.000000)" stroke="#071D49">
            <g id="Product-Page-icons" transform="translate(153.000000, 2269.000000)">
                <g id="health-icon" transform="translate(464.000000, 314.000000)">
                    <path d="M29.9792744,15.0020935 C29.9792744,16.6578727 28.637885,18.0016935 26.9817561,18.0016935 C25.3271259,18.0016935 23.9842377,16.6578727 23.9842377,15.0020935 C23.9842377,13.3463143 25.3271259,12.0024935 26.9817561,12.0024935 C28.637885,12.0024935 29.9792744,13.3463143 29.9792744,15.0020935 L29.9792744,15.0020935 Z" id="Stroke-7212" stroke-width="1.5"></path>
                    <path d="M3.00160914,2.25379359 C1.346979,2.25379359 0.00409076828,3.59761438 0.00409076828,5.25339357 L0.00409076828,12.7523935 C0.00409076828,16.8948411 3.35831382,20.2513935 7.49788669,20.2513935 C11.6374596,20.2513935 14.9916826,16.8948411 14.9916826,12.7523935 L14.9916826,5.25339357 C14.9916826,3.59761438 13.6487944,2.25379359 11.9941642,2.25379359" id="Stroke-7213" stroke-width="1.5"></path>
                    <path d="M7.49788669,20.2513935 L7.49788669,31.4998934 C7.49788669,33.1556726 8.84077491,34.4994933 10.4954051,34.4994933 C12.151534,34.4994933 13.4929234,33.1556726 13.4929234,31.4998934 L13.4929234,24.0008934 C13.4929234,21.9296696 15.1700349,20.2513935 17.2398214,20.2513935 C19.3081091,20.2513935 20.9867193,21.9296696 20.9867193,24.0023932 L20.9867193,28.5002934 C20.9867193,30.1560726 22.3296076,31.4998934 23.9842377,31.4998934 C25.6403666,31.4998934 26.9817561,30.1560726 26.9817561,28.5002934 L26.9817561,18.0016935" id="Stroke-7214" stroke-width="1.5"></path>
                    <path d="M5.24974791,2.25379359 C5.24974791,4.50349357 3.00160914,4.50349357 3.00160914,4.50349357 L3.00160914,0.00409360909 C3.00160914,0.00409360909 5.24974791,0.00409360909 5.24974791,2.25379359 L5.24974791,2.25379359 Z" id="Stroke-7215"></path>
                    <path d="M9.74602546,2.25379359 C9.74602546,0.00409360909 11.9941642,0.00409360909 11.9941642,0.00409360909 L11.9941642,4.50349357 C11.9941642,4.50349357 9.74602546,4.50349357 9.74602546,2.25379359 L9.74602546,2.25379359 Z" id="Stroke-7216"></path>
                </g>
            </g>
        </g>
    </g>
</svg>