<svg width="32" height="37" xmlns="http://www.w3.org/2000/svg"><g stroke="#071D49" fill="none" fill-rule="evenodd" stroke-linecap="round" stroke-linejoin="round"><path d="M30.98 16.002a2.999 2.999 0 11-2.998-3 2.999 2.999 0 012.997 3h0zM4.002 3.254a3 3 0 00-2.998 3v7.498a7.495 7.495 0 007.494 7.5 7.495 7.495 0 007.494-7.5V6.253a3 3 0 00-2.998-3" stroke-width="1.5"/><path d="M8.498 21.251V32.5a2.999 2.999 0 105.995 0V25a3.748 3.748 0 117.494.002V29.5a2.999 2.999 0 105.995 0V19.002" stroke-width="1.5"/><path d="M6.25 3.254c0 2.25-2.248 2.25-2.248 2.25v-4.5s2.248 0 2.248 2.25h0zm4.496 0c0-2.25 2.248-2.25 2.248-2.25v4.5s-2.248 0-2.248-2.25h0z"/></g></svg>