<?xml version="1.0" encoding="UTF-8"?>
<svg width="140px" height="217px" viewBox="0 0 140 217" version="1.1" xmlns="http://www.w3.org/2000/svg" xmlns:xlink="http://www.w3.org/1999/xlink">
    <!-- Generator: Sketch 45.1 (43504) - http://www.bohemiancoding.com/sketch -->
    <title>Group 10</title>
    <desc>Created with Sketch.</desc>
    <defs>
        <rect id="path-1" x="-37.999386" y="39.4392445" width="216.445885" height="138.675626"></rect>
    </defs>
    <g id="Page-1" stroke="none" stroke-width="1" fill="none" fill-rule="evenodd">
        <g id="7-12-4" transform="translate(-1062.000000, -1244.000000)">
            <g id="Group-10" transform="translate(1062.000000, 1244.000000)">
                <g id="portrait-copy-3">
                    <g id="Rectangle-8-Copy-10">
                        <mask id="mask-2" fill="white">
                            <use xlink:href="#path-1"></use>
                        </mask>
                        <rect stroke="#979797" x="-37.499386" y="39.9392445" width="215.445885" height="137.675626"></rect>
                        <rect id="Rectangle-3-Copy-8" fill-opacity="0.5" fill="#C7CFD9" mask="url(#mask-2)" x="29.3441783" y="34" width="27.9691289" height="4.52781163"></rect>
                        <rect id="Rectangle-3-Copy-13" fill-opacity="0.5" fill="#C7CFD9" mask="url(#mask-2)" x="29" y="94" width="56.3506595" height="4.52781163"></rect>
                        <rect id="Rectangle-3-Copy-14" fill-opacity="0.5" fill="#C7CFD9" mask="url(#mask-2)" x="29" y="105" width="56.3506595" height="4.52781163"></rect>
                        <rect id="Rectangle-3-Copy-15" fill-opacity="0.5" fill="#C7CFD9" mask="url(#mask-2)" x="29" y="115" width="56.3506595" height="4.52781163"></rect>
                        <rect id="Rectangle-3-Copy-12" fill-opacity="0.5" fill="#C7CFD9" mask="url(#mask-2)" x="29.3441783" y="54" width="93.8856947" height="9.80776795"></rect>
                        <rect id="Rectangle-3-Copy-16" fill-opacity="0.5" fill="#C7CFD9" mask="url(#mask-2)" x="29.3441783" y="68" width="87.7910319" height="9.80776795"></rect>
                        <rect id="Rectangle-8-Copy-7" fill-opacity="0.8" fill="#071D49" mask="url(#mask-2)" transform="translate(43.631153, 277.073479) scale(-1, 1) rotate(15.000000) translate(-43.631153, -277.073479) " x="-162.073183" y="161.073479" width="411.408672" height="232"></rect>
                    </g>
                    <g id="Degree-Copy" transform="translate(66.000000, 144.000000)">
                        <path d="M20.8603516,33 L22.4423828,33 L22.4423828,20.3173828 L20.8691406,20.3173828 L20.359375,20.6821289 C20.0195296,20.9252942 19.6269554,21.2080062 19.1816406,21.5302734 C18.7363259,21.8525407 18.3437517,22.1352527 18.0039062,22.378418 L17.4941406,22.7431641 L17.4941406,24.4130859 L17.9819336,24.0615234 C18.3071305,23.8271473 18.6821268,23.5546891 19.1069336,23.2441406 C19.5317404,22.9335922 19.9067367,22.661134 20.2319336,22.4267578 L20.7197266,22.0751953 L20.8603516,22.0751953 L20.8603516,33 Z M29.9746094,33.2988281 C31.2871159,33.2988281 32.3535115,32.8989298 33.1738281,32.0991211 C33.9941447,31.2993124 34.4042969,30.2548893 34.4042969,28.9658203 C34.4042969,27.7177672 34.0234413,26.6982461 33.2617188,25.9072266 C32.4999962,25.116207 31.515631,24.7207031 30.3085938,24.7207031 C29.7226533,24.7207031 29.2070335,24.8100577 28.7617188,24.9887695 C28.316404,25.1674814 27.9384781,25.4384747 27.6279297,25.8017578 L27.4873047,25.8017578 L27.8476562,21.7324219 L33.6835938,21.7324219 L33.6835938,20.3173828 L26.6083984,20.3173828 L25.9140625,27.5068359 L27.3994141,27.5068359 C27.6572279,27.0556618 28.0146462,26.7055677 28.4716797,26.456543 C28.9287132,26.2075183 29.4443331,26.0830078 30.0185547,26.0830078 C30.8505901,26.0830078 31.5258763,26.3525364 32.0444336,26.8916016 C32.5629909,27.4306668 32.8222656,28.1367144 32.8222656,29.0097656 C32.8222656,29.8769575 32.5629909,30.5771458 32.0444336,31.1103516 C31.5258763,31.6435574 30.8418011,31.9101562 29.9921875,31.9101562 C29.2480432,31.9101562 28.6254908,31.7006857 28.1245117,31.2817383 C27.6235327,30.8627909 27.337891,30.3105503 27.2675781,29.625 L25.7119141,29.625 C25.7822269,30.7207086 26.209957,31.6069302 26.9951172,32.2836914 C27.7802774,32.9604526 28.7734315,33.2988281 29.9746094,33.2988281 Z M39.0361328,25.8544922 C38.2099568,25.8544922 37.5288113,25.5761747 36.9926758,25.0195312 C36.4565403,24.4628878 36.1884766,23.7890665 36.1884766,22.9980469 C36.1884766,22.2070273 36.4565403,21.5332059 36.9926758,20.9765625 C37.5288113,20.4199191 38.2099568,20.1416016 39.0361328,20.1416016 C39.8623088,20.1416016 40.5449192,20.4199191 41.0839844,20.9765625 C41.6230496,21.5332059 41.8925781,22.2070273 41.8925781,22.9980469 C41.8925781,23.7890665 41.6230496,24.4628878 41.0839844,25.0195312 C40.5449192,25.5761747 39.8623088,25.8544922 39.0361328,25.8544922 Z M39.0361328,24.7294922 C39.5693386,24.7294922 39.994139,24.5581072 40.3105469,24.215332 C40.6269547,23.8725569 40.7851562,23.4667992 40.7851562,22.9980469 C40.7851562,22.5175757 40.6254899,22.1088884 40.3061523,21.7719727 C39.9868148,21.4350569 39.5634792,21.2666016 39.0361328,21.2666016 C38.5087864,21.2666016 38.0883805,21.4350569 37.7749023,21.7719727 C37.4614242,22.1088884 37.3046875,22.5175757 37.3046875,22.9980469 C37.3046875,23.4667992 37.4599594,23.8725569 37.7705078,24.215332 C38.0810562,24.5581072 38.502927,24.7294922 39.0361328,24.7294922 Z" id="15°" fill="#FFFFFF"></path>
                        <g id="arrow" transform="translate(41.322920, 0.928383)" stroke="#FFFFFF" stroke-linecap="square">
                            <path d="M2.54632432,2.75122509 C19.4595299,15.5255097 12.9560916,36.7208481 12.9560916,36.7208481" id="Line"></path>
                            <path d="M25.5,37.5 L1.4791757,37.5" id="Line-2"></path>
                            <polyline id="Line" transform="translate(2.879398, 2.854741) rotate(-50.000000) translate(-2.879398, -2.854741) " points="0.703269256 4.12759191 2.87939823 1.5818892 5.05552721 4.12759191"></polyline>
                        </g>
                    </g>
                </g>
            </g>
        </g>
    </g>
</svg>