<svg width="34" height="34" xmlns="http://www.w3.org/2000/svg"><path d="M10.39 16.865a6.49 6.49 0 016.493-6.485 6.49 6.49 0 016.492 6.485 6.49 6.49 0 01-6.492 6.484 6.49 6.49 0 01-6.492-6.484h0zM7.43 7.578c-1.61 1.35-3.791 1.09-4.518 1.038a.546.546 0 00-.468.26l-1.402 3.527c-.104.208 0 .415.156.519 1.921 1.193 2.285 3.06 2.389 3.683v.363c-.26 1.972-1.818 3.373-2.39 3.84-.155.103-.207.31-.103.518l1.454 3.476c.104.208.312.311.52.26 2.18-.52 3.635.466 4.05.83.104.051.156.155.26.259 1.247 1.608 1.247 3.943 1.143 4.669 0 .207.104.363.26.467l3.531 1.4c.208.104.416 0 .52-.155 1.246-1.971 3.272-2.283 3.895-2.335h.26c2.025.208 3.48 1.816 3.999 2.387.104.155.312.207.52.104l3.48-1.505c.207-.104.31-.311.259-.519-.468-2.075.571-3.787 1.039-4.357a1.2 1.2 0 01.363-.364c1.558-1.193 3.48-1.141 4.207-1.09a.546.546 0 00.468-.258l1.402-3.528c.104-.208 0-.415-.156-.519-1.766-1.09-2.233-2.646-2.337-3.372a1.06 1.06 0 010-.57c.26-1.972 1.818-3.373 2.389-3.84.156-.103.208-.311.104-.519l-1.506-3.475c-.104-.208-.312-.312-.52-.26-2.649.623-4.83-1.4-4.83-1.4-1.454-1.453-.883-3.32-.83-4.099a.545.545 0 00-.26-.467l-3.48-1.504c-.208-.104-.416 0-.52.155-1.506 2.283-3.791 2.387-3.791 2.387h0c-2.078 0-3.428-1.66-3.896-2.231-.104-.156-.311-.207-.519-.156L9.04 2.598c-.208.104-.311.311-.26.519.572 2.75-1.35 4.461-1.35 4.461h0z" stroke="#0087B5" stroke-width="1.5" fill="none"/></svg>