<?xml version="1.0" encoding="UTF-8"?>
<svg width="34px" height="34px" viewBox="0 0 34 34" version="1.1" xmlns="http://www.w3.org/2000/svg" xmlns:xlink="http://www.w3.org/1999/xlink">
    <!-- Generator: Sketch 45 (43475) - http://www.bohemiancoding.com/sketch -->
    <title>Shape</title>
    <desc>Created with Sketch.</desc>
    <defs></defs>
    <g id="Page-1" stroke="none" stroke-width="1" fill="none" fill-rule="evenodd">
        <g id="6-14-5" transform="translate(-727.000000, -1791.000000)" stroke="#0087B5" stroke-width="1.5">
            <g id="Example-2" transform="translate(153.000000, 1632.000000)">
                <g id="icons" transform="translate(0.000000, 149.000000)">
                    <g id="how-it-works-icon-1.5x" transform="translate(575.000000, 0.000000)">
                        <path d="M9.39060798,26.864661 C9.39060798,23.2850551 12.299122,20.3798677 15.8828267,20.3798677 C19.4665314,20.3798677 22.3750453,23.2850551 22.3750453,26.864661 C22.3750453,30.4442669 19.4665314,33.3494544 15.8828267,33.3494544 C12.299122,33.3494544 9.39060798,30.4442669 9.39060798,26.864661 L9.39060798,26.864661 Z M6.43015626,17.5784369 C4.82008603,18.927274 2.63870055,18.6678822 1.91157206,18.6160039 C1.70382106,18.6160039 1.54800781,18.7197606 1.44413232,18.8753956 L0.0418130808,22.4031232 C-0.0620624181,22.6106366 0.0418130808,22.81815 0.197626329,22.9219067 C2.11932306,24.1151086 2.4828873,25.9827291 2.5867628,26.6052693 L2.5867628,26.9684177 C2.32707406,28.9397949 0.768941573,30.3405103 0.197626329,30.8074154 C0.0418130808,30.9111721 -0.0101246687,31.1186855 0.0937508302,31.3261988 L1.54800781,34.8020481 C1.65188331,35.0095615 1.85963431,35.1133182 2.06738531,35.0614398 C4.24877079,34.5426563 5.70302777,35.5283449 6.11852977,35.8914934 C6.22240527,35.9433717 6.27434301,36.0471284 6.37821851,36.1508851 C7.6247245,37.7591138 7.6247245,40.0936394 7.520849,40.8199363 C7.520849,41.0274497 7.6247245,41.1830847 7.78053775,41.2868414 L11.3123047,42.6875568 C11.5200557,42.7913135 11.7278067,42.6875568 11.8316822,42.5319217 C13.0781882,40.5605446 15.1037604,40.2492745 15.7270134,40.1973961 L15.9867022,40.1973961 C18.0122744,40.4049095 19.4665314,42.0131383 19.9859089,42.5838001 C20.0897844,42.7394351 20.2975354,42.7913135 20.5052864,42.6875568 L23.9851156,41.1830847 C24.1928666,41.079328 24.2967421,40.8718146 24.2448043,40.6643013 C23.7773646,38.5891674 24.8161196,36.8771819 25.2835593,36.3065201 C25.3874348,36.1508851 25.4913103,36.0471284 25.6471236,35.9433717 C27.205256,34.7501697 29.1269528,34.8020481 29.8540813,34.8539264 C30.0618323,34.8539264 30.2176455,34.7501697 30.321521,34.5945347 L31.7238402,31.0668071 C31.8277157,30.8592937 31.7238402,30.6517803 31.568027,30.5480236 C29.8021435,29.4585784 29.3347038,27.902228 29.2308283,27.1759311 C29.1788905,26.9684177 29.1788905,26.7609043 29.2308283,26.6052693 C29.490517,24.6338921 31.0486495,23.2331767 31.6199647,22.7662716 C31.775778,22.6625149 31.8277157,22.4550015 31.7238402,22.2474882 L30.2176455,18.7716389 C30.11377,18.5641255 29.906019,18.4603688 29.698268,18.5122472 C27.0494428,19.1347874 24.8680573,17.1115318 24.8680573,17.1115318 C23.4138003,15.6589381 23.9851156,13.7913176 24.0370533,13.0131424 C24.0370533,12.805629 23.9331778,12.649994 23.7773646,12.5462373 L20.2975354,11.0417653 C20.0897844,10.9380086 19.8820334,11.0417653 19.7781579,11.1974003 C18.2719631,13.4800476 15.9867022,13.5838042 15.9867022,13.5838042 L15.9867022,13.5838042 C13.9091922,13.5838042 12.5588107,11.9236972 12.091371,11.3530353 C11.9874955,11.1974003 11.7797445,11.145522 11.5719935,11.1974003 L8.0402265,12.5981157 C7.8324755,12.7018724 7.7286,12.9093857 7.78053775,13.1168991 C8.35185299,15.8664515 6.43015626,17.5784369 6.43015626,17.5784369 L6.43015626,17.5784369 L6.43015626,17.5784369 Z" id="Shape"></path>
                    </g>
                </g>
            </g>
        </g>
    </g>
</svg>