<?xml version="1.0" encoding="UTF-8"?>
<svg width="45px" height="44px" viewBox="0 0 45 44" version="1.1" xmlns="http://www.w3.org/2000/svg" xmlns:xlink="http://www.w3.org/1999/xlink">
    <!-- Generator: Sketch 45 (43475) - http://www.bohemiancoding.com/sketch -->
    <title>Group 9</title>
    <desc>Created with Sketch.</desc>
    <defs></defs>
    <g id="Page-1" stroke="none" stroke-width="1" fill="none" fill-rule="evenodd">
        <g id="6-14-5" transform="translate(-609.000000, -1153.000000)" stroke="#071D49">
            <g id="Product-Snapshot" transform="translate(155.000000, 1057.000000)">
                <g id="Snapshot-7" transform="translate(415.000000, 96.000000)">
                    <g id="Group-9" transform="translate(40.000000, 0.000000)">
                        <g id="how-it-works-icon-1.5x">
                            <path d="M9.69829941,27.3949909 C9.69829941,23.815385 12.6068134,20.9101975 16.1905181,20.9101975 C19.7742228,20.9101975 22.6827368,23.815385 22.6827368,27.3949909 C22.6827368,30.9745968 19.7742228,33.8797842 16.1905181,33.8797842 C12.6068134,33.8797842 9.69829941,30.9745968 9.69829941,27.3949909 L9.69829941,27.3949909 Z M6.73784769,18.1087668 C5.12777746,19.4576038 2.94639198,19.1982121 2.21926349,19.1463338 C2.01151249,19.1463338 1.85569924,19.2500905 1.75182374,19.4057255 L0.349504507,22.9334531 C0.245629008,23.1409665 0.349504507,23.3484798 0.505317755,23.4522365 C2.42701448,24.6454385 2.79057873,26.513059 2.89445423,27.1355992 L2.89445423,27.4987476 C2.63476548,29.4701248 1.076633,30.8708401 0.505317755,31.3377452 C0.349504507,31.4415019 0.297566757,31.6490153 0.401442256,31.8565287 L1.85569924,35.3323779 C1.95957474,35.5398913 2.16732574,35.643648 2.37507674,35.5917697 C4.55646221,35.0729862 6.0107192,36.0586748 6.42622119,36.4218232 C6.53009669,36.4737016 6.58203444,36.5774583 6.68590994,36.681215 C7.93241593,38.2894437 7.93241593,40.6239693 7.82854043,41.3502662 C7.82854043,41.5577796 7.93241593,41.7134146 8.08822917,41.8171713 L11.6199961,43.2178867 C11.8277471,43.3216433 12.0354981,43.2178867 12.1393736,43.0622516 C13.3858796,41.0908744 15.4114518,40.7796044 16.0347048,40.727726 L16.2943936,40.727726 C18.3199658,40.9352394 19.7742228,42.5434681 20.2936003,43.11413 C20.3974758,43.269765 20.6052268,43.3216433 20.8129778,43.2178867 L24.292807,41.7134146 C24.500558,41.6096579 24.6044335,41.4021445 24.5524957,41.1946311 C24.085056,39.1194973 25.123811,37.4075118 25.5912507,36.83685 C25.6951262,36.681215 25.7990017,36.5774583 25.954815,36.4737016 C27.5129475,35.2804996 29.4346442,35.3323779 30.1617727,35.3842563 C30.3695237,35.3842563 30.5253369,35.2804996 30.6292124,35.1248646 L32.0315317,31.597137 C32.1354072,31.3896236 32.0315317,31.1821102 31.8757184,31.0783535 C30.1098349,29.9889082 29.6423952,28.4325578 29.5385197,27.706261 C29.4865819,27.4987476 29.4865819,27.2912342 29.5385197,27.1355992 C29.7982084,25.164222 31.3563409,23.7635066 31.9276562,23.2966015 C32.0834694,23.1928448 32.1354072,22.9853314 32.0315317,22.777818 L30.5253369,19.3019688 C30.4214614,19.0944554 30.2137104,18.9906987 30.0059594,19.0425771 C27.3571342,19.6651172 25.1757487,17.6418617 25.1757487,17.6418617 C23.7214918,16.189268 24.292807,14.3216475 24.3447448,13.5434723 C24.3447448,13.3359589 24.2408693,13.1803239 24.085056,13.0765672 L20.6052268,11.5720951 C20.3974758,11.4683384 20.1897248,11.5720951 20.0858493,11.7277302 C18.5796546,14.0103774 16.2943936,14.1141341 16.2943936,14.1141341 L16.2943936,14.1141341 C14.2168836,14.1141341 12.8665021,12.454027 12.3990624,11.8833652 C12.2951869,11.7277302 12.0874359,11.6758518 11.8796849,11.7277302 L8.34791792,13.1284455 C8.14016692,13.2322022 8.03629143,13.4397156 8.08822917,13.647229 C8.65954442,16.3967814 6.73784769,18.1087668 6.73784769,18.1087668 L6.73784769,18.1087668 L6.73784769,18.1087668 Z" id="Shape" stroke-width="1.5"></path>
                            <path d="M31.4082787,10.2232581 C30.7850257,8.51127267 31.6679674,6.59177384 33.3819132,5.96923368 C35.0958589,5.34669352 37.0175556,6.22862542 37.6408086,7.94061086 C38.2640616,9.6525963 37.3811199,11.5720951 35.6671741,12.1946353 C33.9532284,12.8171755 32.0315317,11.9352436 31.4082787,10.2232581 L31.4082787,10.2232581 Z M28.3958892,6.28050376 C27.8765117,7.214314 26.785819,7.47370574 26.4222547,7.57746243 C26.3183792,7.62934078 26.2664415,7.68121912 26.2664415,7.78497582 L26.2145037,9.70447465 C26.2145037,9.80823134 26.2664415,9.91198804 26.370317,9.91198804 C27.4610097,10.1713798 27.9803872,10.949555 28.1362005,11.2608251 C28.1881382,11.3127034 28.1881382,11.3645817 28.1881382,11.4683384 C28.3958892,12.454027 27.8765117,13.3878373 27.7206985,13.6991073 C27.6687607,13.802864 27.6687607,13.9066207 27.7726362,13.9584991 L29.07108,15.3592144 C29.1230177,15.4629711 29.2788309,15.4629711 29.3307687,15.4110928 C30.2656482,14.7885526 31.1485899,14.996066 31.4082787,15.0998227 C31.4602164,15.0998227 31.5121542,15.1517011 31.5640919,15.1517011 C32.4470337,15.7223629 32.8625357,16.8118082 32.9144734,17.1749566 C32.9664112,17.2787133 33.0183489,17.3305916 33.1222244,17.3305916 L35.0439211,17.38247 C35.1477966,17.38247 35.2516721,17.3305916 35.2516721,17.2268349 C35.5113609,16.0855113 36.4462404,15.5667278 36.7059291,15.4110928 C36.7578669,15.4110928 36.8098046,15.3592144 36.8098046,15.3592144 C37.7966219,15.0998227 38.7834391,15.6186062 39.1470033,15.8261196 C39.2508788,15.8779979 39.3547543,15.8779979 39.4066921,15.7742412 L40.8090113,14.4772826 C40.9128868,14.4254042 40.9128868,14.2697692 40.8609491,14.2178908 C40.2376961,13.2840806 40.4973848,12.298392 40.6012603,11.9352436 C40.6531981,11.8314869 40.6531981,11.7796085 40.7051358,11.6758518 C41.2245133,10.8457983 42.1593928,10.5345282 42.5229571,10.4307715 C42.6268326,10.3788932 42.6787703,10.3270148 42.6787703,10.2232581 L42.7307081,8.30375929 C42.7307081,8.20000259 42.6787703,8.0962459 42.5748948,8.0962459 C41.5361398,7.88873251 41.0687001,7.214314 40.8609491,6.90304392 C40.8090113,6.79928723 40.7570736,6.69553054 40.7570736,6.64365219 C40.5493226,5.6579636 41.0167623,4.72415336 41.2245133,4.36100493 C41.2764511,4.25724824 41.2764511,4.15349155 41.1725756,4.1016132 L39.8741318,2.70089784 C39.8221941,2.59714114 39.6663808,2.59714114 39.5625053,2.64901949 C38.4198749,3.42719469 37.0175556,2.85653288 37.0175556,2.85653288 C36.0826761,2.38962776 36.0307384,1.40393917 35.9268629,1.04079074 C35.9268629,0.937034046 35.8229874,0.885155699 35.7191119,0.885155699 L33.7974152,0.781399006 C33.6935397,0.781399006 33.5896642,0.833277352 33.5896642,0.937034046 C33.3299754,2.28587106 32.2912204,2.75277618 32.2912204,2.75277618 L32.2912204,2.75277618 C31.3044032,3.11592461 30.3695237,2.5452628 30.0578972,2.38962776 C29.9540217,2.33774941 29.8501462,2.33774941 29.7982084,2.38962776 L28.3439515,3.63470808 C28.240076,3.68658642 28.240076,3.84222146 28.2920137,3.94597816 C29.0191422,5.13918013 28.3958892,6.28050376 28.3958892,6.28050376 L28.3958892,6.28050376 L28.3958892,6.28050376 Z" id="Shape"></path>
                        </g>
                    </g>
                </g>
            </g>
        </g>
    </g>
</svg>