<svg width="45" height="44" xmlns="http://www.w3.org/2000/svg"><g stroke="#071D49" fill="none" fill-rule="evenodd"><path d="M10.698 27.395a6.49 6.49 0 016.493-6.485 6.49 6.49 0 016.492 6.485 6.49 6.49 0 01-6.492 6.485 6.49 6.49 0 01-6.493-6.485h0zm-2.96-9.286c-1.61 1.349-3.792 1.09-4.519 1.037a.546.546 0 00-.467.26L1.35 22.933c-.104.208 0 .415.155.52 1.922 1.192 2.286 3.06 2.39 3.683v.363c-.26 1.971-1.818 3.372-2.39 3.839-.155.104-.207.311-.104.519l1.455 3.475c.104.208.311.312.52.26 2.18-.519 3.635.467 4.05.83.104.052.156.155.26.26 1.246 1.607 1.246 3.942 1.143 4.668 0 .208.103.363.26.467l3.531 1.4c.208.105.415 0 .52-.155 1.246-1.971 3.271-2.282 3.895-2.334h.26c2.025.207 3.48 1.815 3.999 2.386.103.156.311.208.519.104l3.48-1.505c.208-.103.311-.31.26-.518-.468-2.076.57-3.787 1.038-4.358a1.2 1.2 0 01.364-.363c1.558-1.194 3.48-1.142 4.207-1.09a.546.546 0 00.467-.26l1.403-3.527c.103-.207 0-.415-.156-.519-1.766-1.09-2.234-2.645-2.337-3.372a1.06 1.06 0 010-.57c.26-1.972 1.817-3.372 2.389-3.84.155-.103.207-.31.104-.518l-1.507-3.476c-.104-.208-.311-.311-.519-.26-2.649.623-4.83-1.4-4.83-1.4-1.455-1.453-.883-3.32-.831-4.099a.545.545 0 00-.26-.466l-3.48-1.505c-.208-.104-.415 0-.52.156-1.505 2.282-3.79 2.386-3.79 2.386h0c-2.078 0-3.428-1.66-3.896-2.23-.104-.156-.312-.208-.52-.156l-3.531 1.4c-.208.104-.312.312-.26.52.572 2.749-1.35 4.46-1.35 4.46h0z" stroke-width="1.5"/><path d="M32.408 10.223c-.623-1.712.26-3.631 1.974-4.254 1.714-.622 3.636.26 4.259 1.972.623 1.712-.26 3.631-1.974 4.254-1.714.622-3.635-.26-4.259-1.972h0zm-3.012-3.942c-.52.933-1.61 1.193-1.974 1.296-.104.052-.156.104-.156.208l-.051 1.92c0 .103.051.207.155.207a2.675 2.675 0 011.766 1.349c.052.052.052.104.052.207.208.986-.311 1.92-.467 2.231-.052.104-.052.208.052.26l1.298 1.4c.052.104.208.104.26.052.935-.622 1.818-.415 2.077-.311.052 0 .104.052.156.052.883.57 1.299 1.66 1.35 2.023.052.104.104.156.208.156l1.922.051c.104 0 .208-.051.208-.155.26-1.141 1.194-1.66 1.454-1.816.052 0 .104-.052.104-.052.987-.26 1.973.26 2.337.467.104.052.208.052.26-.052l1.402-1.297c.104-.052.104-.207.052-.26-.623-.933-.364-1.919-.26-2.282.052-.104.052-.155.104-.26.52-.83 1.454-1.14 1.818-1.244.104-.052.156-.104.156-.208l.052-1.92c0-.103-.052-.207-.156-.207-1.039-.207-1.506-.882-1.714-1.193-.052-.104-.104-.207-.104-.26-.208-.985.26-1.919.468-2.282.051-.104.051-.208-.052-.26l-1.299-1.4c-.052-.104-.208-.104-.311-.052-1.143.778-2.545.208-2.545.208-.935-.467-.987-1.453-1.091-1.816 0-.104-.104-.156-.208-.156L34.797.781c-.103 0-.207.052-.207.156-.26 1.349-1.299 1.816-1.299 1.816h0c-.987.363-1.921-.208-2.233-.363-.104-.052-.208-.052-.26 0l-1.454 1.245c-.104.052-.104.207-.052.311.727 1.193.104 2.335.104 2.335h0z"/></g></svg>