<svg width="787" height="101" xmlns="http://www.w3.org/2000/svg" xmlns:xlink="http://www.w3.org/1999/xlink"><defs><path id="a" d="M0 48.892h68.862V0H0z"/><path id="b" d="M0 101h68.862V52.108H0z"/><path id="c" d="M73.392 48.892h68.862V0H73.392z"/><path id="d" d="M73.392 101h68.862V52.108H73.392z"/><path id="e" d="M146.785 48.892h68.861V0h-68.861z"/><path id="f" d="M146.785 101h68.861V52.108h-68.861z"/><path id="g" d="M220.177 48.892h68.862V0h-68.862z"/><path id="h" d="M220.177 101h68.862V52.108h-68.862z"/><path id="i" d="M293.57 48.892h68.86V0h-68.86z"/><path id="j" d="M293.57 101h68.86V52.108h-68.86z"/><path id="k" d="M366.961 48.892h68.862V0h-68.862z"/><path id="l" d="M366.961 101h68.862V52.108h-68.862z"/><path id="m" d="M440.354 48.892h68.861V0h-68.861z"/><path id="n" d="M440.354 101h68.861V52.108h-68.861z"/><path id="o" d="M513.746 48.892h68.862V0h-68.862z"/><path id="p" d="M513.746 101h68.862V52.108h-68.862z"/><path id="q" d="M587.138 48.892H656V0h-68.862z"/><path id="r" d="M587.138 101H656V52.108h-68.862z"/></defs><g fill="none" fill-rule="evenodd"><g transform="translate(131)"><use fill="#5173D1" xlink:href="#a"/><use fill-opacity=".1" fill="#FFF" xlink:href="#a"/></g><g transform="translate(131)"><use fill="#5173D1" xlink:href="#b"/><use fill-opacity=".1" fill="#000" xlink:href="#b"/></g><g transform="translate(131)"><use fill="#5173D1" xlink:href="#c"/><use fill-opacity=".2" fill="#FFF" xlink:href="#c"/></g><g transform="translate(131)"><use fill="#5173D1" xlink:href="#d"/><use fill-opacity=".2" fill="#000" xlink:href="#d"/></g><g transform="translate(131)"><use fill="#5173D1" xlink:href="#e"/><use fill-opacity=".3" fill="#FFF" xlink:href="#e"/></g><g transform="translate(131)"><use fill="#5173D1" xlink:href="#f"/><use fill-opacity=".3" fill="#000" xlink:href="#f"/></g><g transform="translate(131)"><use fill="#5173D1" xlink:href="#g"/><use fill-opacity=".4" fill="#FFF" xlink:href="#g"/></g><g transform="translate(131)"><use fill="#5173D1" xlink:href="#h"/><use fill-opacity=".4" fill="#000" xlink:href="#h"/></g><g transform="translate(131)"><use fill="#5173D1" xlink:href="#i"/><use fill-opacity=".5" fill="#FFF" xlink:href="#i"/></g><g transform="translate(131)"><use fill="#5173D1" xlink:href="#j"/><use fill-opacity=".5" fill="#000" xlink:href="#j"/></g><g transform="translate(131)"><use fill="#5173D1" xlink:href="#k"/><use fill-opacity=".6" fill="#FFF" xlink:href="#k"/></g><g transform="translate(131)"><use fill="#5173D1" xlink:href="#l"/><use fill-opacity=".6" fill="#000" xlink:href="#l"/></g><g transform="translate(131)"><use fill="#5173D1" xlink:href="#m"/><use fill-opacity=".7" fill="#FFF" xlink:href="#m"/></g><g transform="translate(131)"><use fill="#5173D1" xlink:href="#n"/><use fill-opacity=".7" fill="#000" xlink:href="#n"/></g><g transform="translate(131)"><use fill="#5173D1" xlink:href="#o"/><use fill-opacity=".8" fill="#FFF" xlink:href="#o"/></g><g transform="translate(131)"><use fill="#5173D1" xlink:href="#p"/><use fill-opacity=".8" fill="#000" xlink:href="#p"/></g><g transform="translate(131)"><use fill="#5173D1" xlink:href="#q"/><use fill-opacity=".9" fill="#FFF" xlink:href="#q"/></g><g transform="translate(131)"><use fill="#5173D1" xlink:href="#r"/><use fill-opacity=".9" fill="#000" xlink:href="#r"/></g><path d="M160.373 33h1.411V21.661h-1.24l-2.84 2.924.85.867 1.82-1.921V33zm3.604-5.661c0-2.771 1.224-5.848 4.335-5.848 3.094 0 4.335 3.077 4.335 5.848 0 2.754-1.24 5.865-4.335 5.865-3.11 0-4.335-3.111-4.335-5.865zm7.225 0c0-2.261-.73-4.59-2.89-4.59-2.159 0-2.89 2.329-2.89 4.59 0 2.261.731 4.607 2.89 4.607 2.16 0 2.89-2.346 2.89-4.607zM229.541 33h7.786v-1.258h-5.559c3.162-2.499 5.508-4.607 5.508-6.919 0-2.261-1.92-3.332-3.808-3.332-1.598 0-3.077.646-3.944 1.785l.867.901c.663-.85 1.717-1.428 3.077-1.428 1.173 0 2.363.629 2.363 2.074 0 1.955-2.21 3.842-6.29 7.055V33zm9.945-5.661c0-2.771 1.224-5.848 4.335-5.848 3.094 0 4.335 3.077 4.335 5.848 0 2.754-1.24 5.865-4.335 5.865-3.11 0-4.335-3.111-4.335-5.865zm7.225 0c0-2.261-.73-4.59-2.89-4.59-2.159 0-2.89 2.329-2.89 4.59 0 2.261.731 4.607 2.89 4.607 2.16 0 2.89-2.346 2.89-4.607zm56.061 3.995c.697 1.02 2.108 1.87 4.029 1.87 2.499 0 4.012-1.377 4.012-3.264 0-1.819-1.581-2.703-2.618-2.788 1.071-.187 2.448-1.003 2.448-2.635 0-1.921-1.666-3.026-3.842-3.026-1.751 0-3.06.765-3.876 1.751l.782.884c.833-.901 1.751-1.377 2.992-1.377 1.377 0 2.533.68 2.533 1.938 0 1.309-1.207 1.87-2.635 1.87-.459 0-.986 0-1.173-.017v1.292c.17-.017.697-.017 1.173-.017 1.666 0 2.822.595 2.822 2.006 0 1.309-1.003 2.125-2.652 2.125-1.343 0-2.499-.612-3.162-1.496l-.833.884zm9.843-3.995c0-2.771 1.224-5.848 4.335-5.848 3.094 0 4.335 3.077 4.335 5.848 0 2.754-1.241 5.865-4.335 5.865-3.111 0-4.335-3.111-4.335-5.865zm7.225 0c0-2.261-.731-4.59-2.89-4.59-2.159 0-2.89 2.329-2.89 4.59 0 2.261.731 4.607 2.89 4.607 2.159 0 2.89-2.346 2.89-4.607zM381.596 33v-2.873h-5.39v-1.173l4.863-7.293h1.938v7.225h1.598v1.241h-1.598V33h-1.411zm0-10.03l-3.978 5.916h3.978V22.97zm4.42 4.369c0-2.771 1.224-5.848 4.335-5.848 3.094 0 4.335 3.077 4.335 5.848 0 2.754-1.241 5.865-4.335 5.865-3.111 0-4.335-3.111-4.335-5.865zm7.225 0c0-2.261-.731-4.59-2.89-4.59-2.16 0-2.89 2.329-2.89 4.59 0 2.261.73 4.607 2.89 4.607 2.159 0 2.89-2.346 2.89-4.607zm56.664 4.046c.85 1.122 2.074 1.819 3.995 1.819 2.278 0 4.029-1.428 4.029-3.74 0-2.329-1.717-3.621-3.604-3.621-1.139 0-2.108.476-2.652 1.02v-3.944h5.525v-1.258h-6.936v6.12l1.037.357c.765-.748 1.615-1.071 2.618-1.071 1.53 0 2.601.952 2.601 2.448 0 1.377-1.071 2.431-2.618 2.431-1.394 0-2.38-.544-3.128-1.496l-.867.935zm9.775-4.046c0-2.771 1.224-5.848 4.335-5.848 3.094 0 4.335 3.077 4.335 5.848 0 2.754-1.241 5.865-4.335 5.865-3.111 0-4.335-3.111-4.335-5.865zm7.225 0c0-2.261-.731-4.59-2.89-4.59-2.159 0-2.89 2.329-2.89 4.59 0 2.261.731 4.607 2.89 4.607 2.159 0 2.89-2.346 2.89-4.607z" fill="#FFF"/><path d="M523.034 27.356c0-3.077 1.428-5.865 4.607-5.865 1.462 0 2.448.561 3.145 1.36l-.714 1.054c-.578-.68-1.241-1.156-2.431-1.156-2.193 0-3.196 2.227-3.196 4.454 0 .153 0 .289.017.442.493-.782 1.75-1.768 3.213-1.768 2.04 0 3.706 1.207 3.706 3.621 0 1.972-1.496 3.706-3.978 3.706-3.162 0-4.37-2.771-4.37-5.848zm6.919 2.193c0-1.666-1.156-2.448-2.618-2.448-1.122 0-2.21.697-2.84 1.7.137 1.411.885 3.145 2.857 3.145 1.75 0 2.6-1.309 2.6-2.397zm3.128-2.21c0-2.771 1.224-5.848 4.335-5.848 3.094 0 4.335 3.077 4.335 5.848 0 2.754-1.241 5.865-4.335 5.865-3.111 0-4.335-3.111-4.335-5.865zm7.225 0c0-2.261-.731-4.59-2.89-4.59-2.16 0-2.89 2.329-2.89 4.59 0 2.261.73 4.607 2.89 4.607 2.159 0 2.89-2.346 2.89-4.607zM598.262 33h1.564l4.641-10.37v-.969h-7.735v1.258h6.103L598.262 33zm7.565-5.661c0-2.771 1.224-5.848 4.335-5.848 3.094 0 4.335 3.077 4.335 5.848 0 2.754-1.241 5.865-4.335 5.865-3.111 0-4.335-3.111-4.335-5.865zm7.225 0c0-2.261-.731-4.59-2.89-4.59-2.159 0-2.89 2.329-2.89 4.59 0 2.261.731 4.607 2.89 4.607 2.159 0 2.89-2.346 2.89-4.607zm56.868 2.788c0-1.513 1.292-2.55 2.703-2.975-1.309-.374-2.516-1.224-2.516-2.72 0-2.04 1.99-2.941 3.876-2.941 1.87 0 3.893.901 3.893 2.941 0 1.496-1.224 2.346-2.533 2.72 1.411.425 2.703 1.462 2.703 2.975 0 1.921-1.836 3.077-4.063 3.077-2.244 0-4.063-1.139-4.063-3.077zm6.528-5.508c0-1.173-1.105-1.87-2.465-1.87-1.377 0-2.465.697-2.465 1.87 0 1.377 1.785 1.836 2.465 1.955.697-.119 2.465-.578 2.465-1.955zm.17 5.355c0-1.479-1.938-2.108-2.635-2.193-.697.085-2.652.714-2.652 2.193 0 1.224 1.241 1.972 2.652 1.972 1.394 0 2.635-.748 2.635-1.972zm3.162-2.635c0-2.771 1.224-5.848 4.335-5.848 3.094 0 4.335 3.077 4.335 5.848 0 2.754-1.24 5.865-4.335 5.865-3.11 0-4.335-3.111-4.335-5.865zm7.225 0c0-2.261-.73-4.59-2.89-4.59-2.159 0-2.89 2.329-2.89 4.59 0 2.261.731 4.607 2.89 4.607 2.16 0 2.89-2.346 2.89-4.607z" fill="#04112B"/><path d="M743.772 31.827l.714-1.054c.578.68 1.258 1.156 2.43 1.156 2.296 0 3.197-2.295 3.197-4.437 0-.153 0-.306-.017-.459-.493.782-1.751 1.768-3.196 1.768-2.04 0-3.723-1.207-3.723-3.621 0-1.955 1.496-3.706 3.96-3.706 3.18 0 4.387 2.771 4.387 5.865 0 3.06-1.428 5.848-4.607 5.848-1.445 0-2.431-.544-3.145-1.36zm6.273-5.933c-.12-1.411-.867-3.162-2.84-3.162-1.733 0-2.6 1.326-2.6 2.397 0 1.666 1.156 2.448 2.618 2.448 1.122 0 2.227-.68 2.822-1.683zm3.213 1.445c0-2.771 1.224-5.848 4.335-5.848 3.094 0 4.335 3.077 4.335 5.848 0 2.754-1.241 5.865-4.335 5.865-3.111 0-4.335-3.111-4.335-5.865zm7.225 0c0-2.261-.731-4.59-2.89-4.59-2.16 0-2.89 2.329-2.89 4.59 0 2.261.73 4.607 2.89 4.607 2.159 0 2.89-2.346 2.89-4.607z" fill="#04112B" opacity=".9"/><path d="M160.373 83h1.411V71.661h-1.24l-2.84 2.924.85.867 1.82-1.921V83zm3.604-5.661c0-2.771 1.224-5.848 4.335-5.848 3.094 0 4.335 3.077 4.335 5.848 0 2.754-1.24 5.865-4.335 5.865-3.11 0-4.335-3.111-4.335-5.865zm7.225 0c0-2.261-.73-4.59-2.89-4.59-2.159 0-2.89 2.329-2.89 4.59 0 2.261.731 4.607 2.89 4.607 2.16 0 2.89-2.346 2.89-4.607zM229.541 83h7.786v-1.258h-5.559c3.162-2.499 5.508-4.607 5.508-6.919 0-2.261-1.92-3.332-3.808-3.332-1.598 0-3.077.646-3.944 1.785l.867.901c.663-.85 1.717-1.428 3.077-1.428 1.173 0 2.363.629 2.363 2.074 0 1.955-2.21 3.842-6.29 7.055V83zm9.945-5.661c0-2.771 1.224-5.848 4.335-5.848 3.094 0 4.335 3.077 4.335 5.848 0 2.754-1.24 5.865-4.335 5.865-3.11 0-4.335-3.111-4.335-5.865zm7.225 0c0-2.261-.73-4.59-2.89-4.59-2.159 0-2.89 2.329-2.89 4.59 0 2.261.731 4.607 2.89 4.607 2.16 0 2.89-2.346 2.89-4.607zm56.061 3.995c.697 1.02 2.108 1.87 4.029 1.87 2.499 0 4.012-1.377 4.012-3.264 0-1.819-1.581-2.703-2.618-2.788 1.071-.187 2.448-1.003 2.448-2.635 0-1.921-1.666-3.026-3.842-3.026-1.751 0-3.06.765-3.876 1.751l.782.884c.833-.901 1.751-1.377 2.992-1.377 1.377 0 2.533.68 2.533 1.938 0 1.309-1.207 1.87-2.635 1.87-.459 0-.986 0-1.173-.017v1.292c.17-.017.697-.017 1.173-.017 1.666 0 2.822.595 2.822 2.006 0 1.309-1.003 2.125-2.652 2.125-1.343 0-2.499-.612-3.162-1.496l-.833.884zm9.843-3.995c0-2.771 1.224-5.848 4.335-5.848 3.094 0 4.335 3.077 4.335 5.848 0 2.754-1.241 5.865-4.335 5.865-3.111 0-4.335-3.111-4.335-5.865zm7.225 0c0-2.261-.731-4.59-2.89-4.59-2.159 0-2.89 2.329-2.89 4.59 0 2.261.731 4.607 2.89 4.607 2.159 0 2.89-2.346 2.89-4.607zM381.596 83v-2.873h-5.39v-1.173l4.863-7.293h1.938v7.225h1.598v1.241h-1.598V83h-1.411zm0-10.03l-3.978 5.916h3.978V72.97zm4.42 4.369c0-2.771 1.224-5.848 4.335-5.848 3.094 0 4.335 3.077 4.335 5.848 0 2.754-1.241 5.865-4.335 5.865-3.111 0-4.335-3.111-4.335-5.865zm7.225 0c0-2.261-.731-4.59-2.89-4.59-2.16 0-2.89 2.329-2.89 4.59 0 2.261.73 4.607 2.89 4.607 2.159 0 2.89-2.346 2.89-4.607zm56.664 4.046c.85 1.122 2.074 1.819 3.995 1.819 2.278 0 4.029-1.428 4.029-3.74 0-2.329-1.717-3.621-3.604-3.621-1.139 0-2.108.476-2.652 1.02v-3.944h5.525v-1.258h-6.936v6.12l1.037.357c.765-.748 1.615-1.071 2.618-1.071 1.53 0 2.601.952 2.601 2.448 0 1.377-1.071 2.431-2.618 2.431-1.394 0-2.38-.544-3.128-1.496l-.867.935zm9.775-4.046c0-2.771 1.224-5.848 4.335-5.848 3.094 0 4.335 3.077 4.335 5.848 0 2.754-1.241 5.865-4.335 5.865-3.111 0-4.335-3.111-4.335-5.865zm7.225 0c0-2.261-.731-4.59-2.89-4.59-2.159 0-2.89 2.329-2.89 4.59 0 2.261.731 4.607 2.89 4.607 2.159 0 2.89-2.346 2.89-4.607zm56.129.017c0-3.077 1.428-5.865 4.607-5.865 1.462 0 2.448.561 3.145 1.36l-.714 1.054c-.578-.68-1.241-1.156-2.431-1.156-2.193 0-3.196 2.227-3.196 4.454 0 .153 0 .289.017.442.493-.782 1.75-1.768 3.213-1.768 2.04 0 3.706 1.207 3.706 3.621 0 1.972-1.496 3.706-3.978 3.706-3.162 0-4.37-2.771-4.37-5.848zm6.919 2.193c0-1.666-1.156-2.448-2.618-2.448-1.122 0-2.21.697-2.84 1.7.137 1.411.885 3.145 2.857 3.145 1.75 0 2.6-1.309 2.6-2.397zm3.128-2.21c0-2.771 1.224-5.848 4.335-5.848 3.094 0 4.335 3.077 4.335 5.848 0 2.754-1.241 5.865-4.335 5.865-3.111 0-4.335-3.111-4.335-5.865zm7.225 0c0-2.261-.731-4.59-2.89-4.59-2.16 0-2.89 2.329-2.89 4.59 0 2.261.73 4.607 2.89 4.607 2.159 0 2.89-2.346 2.89-4.607zM598.262 83h1.564l4.641-10.37v-.969h-7.735v1.258h6.103L598.262 83zm7.565-5.661c0-2.771 1.224-5.848 4.335-5.848 3.094 0 4.335 3.077 4.335 5.848 0 2.754-1.241 5.865-4.335 5.865-3.111 0-4.335-3.111-4.335-5.865zm7.225 0c0-2.261-.731-4.59-2.89-4.59-2.159 0-2.89 2.329-2.89 4.59 0 2.261.731 4.607 2.89 4.607 2.159 0 2.89-2.346 2.89-4.607zm56.868 2.788c0-1.513 1.292-2.55 2.703-2.975-1.309-.374-2.516-1.224-2.516-2.72 0-2.04 1.99-2.941 3.876-2.941 1.87 0 3.893.901 3.893 2.941 0 1.496-1.224 2.346-2.533 2.72 1.411.425 2.703 1.462 2.703 2.975 0 1.921-1.836 3.077-4.063 3.077-2.244 0-4.063-1.139-4.063-3.077zm6.528-5.508c0-1.173-1.105-1.87-2.465-1.87-1.377 0-2.465.697-2.465 1.87 0 1.377 1.785 1.836 2.465 1.955.697-.119 2.465-.578 2.465-1.955zm.17 5.355c0-1.479-1.938-2.108-2.635-2.193-.697.085-2.652.714-2.652 2.193 0 1.224 1.241 1.972 2.652 1.972 1.394 0 2.635-.748 2.635-1.972zm3.162-2.635c0-2.771 1.224-5.848 4.335-5.848 3.094 0 4.335 3.077 4.335 5.848 0 2.754-1.24 5.865-4.335 5.865-3.11 0-4.335-3.111-4.335-5.865zm7.225 0c0-2.261-.73-4.59-2.89-4.59-2.159 0-2.89 2.329-2.89 4.59 0 2.261.731 4.607 2.89 4.607 2.16 0 2.89-2.346 2.89-4.607z" fill="#FFF"/><path d="M743.772 81.827l.714-1.054c.578.68 1.258 1.156 2.43 1.156 2.296 0 3.197-2.295 3.197-4.437 0-.153 0-.306-.017-.459-.493.782-1.751 1.768-3.196 1.768-2.04 0-3.723-1.207-3.723-3.621 0-1.955 1.496-3.706 3.96-3.706 3.18 0 4.387 2.771 4.387 5.865 0 3.06-1.428 5.848-4.607 5.848-1.445 0-2.431-.544-3.145-1.36zm6.273-5.933c-.12-1.411-.867-3.162-2.84-3.162-1.733 0-2.6 1.326-2.6 2.397 0 1.666 1.156 2.448 2.618 2.448 1.122 0 2.227-.68 2.822-1.683zm3.213 1.445c0-2.771 1.224-5.848 4.335-5.848 3.094 0 4.335 3.077 4.335 5.848 0 2.754-1.241 5.865-4.335 5.865-3.111 0-4.335-3.111-4.335-5.865zm7.225 0c0-2.261-.731-4.59-2.89-4.59-2.16 0-2.89 2.329-2.89 4.59 0 2.261.73 4.607 2.89 4.607 2.159 0 2.89-2.346 2.89-4.607z" fill="#FFF" opacity=".9"/><path d="M3.204 36h1.494V23.994H3.384L.378 27.09l.9.918 1.926-2.034V36zm3.816-5.994c0-2.934 1.296-6.192 4.59-6.192 3.276 0 4.59 3.258 4.59 6.192 0 2.916-1.314 6.21-4.59 6.21-3.294 0-4.59-3.294-4.59-6.21zm7.65 0c0-2.394-.774-4.86-3.06-4.86s-3.06 2.466-3.06 4.86.774 4.878 3.06 4.878 3.06-2.484 3.06-4.878zm3.006-3.204c0-1.692 1.17-2.988 2.88-2.988 1.728 0 2.916 1.296 2.916 2.988 0 1.674-1.188 2.934-2.916 2.934-1.71 0-2.88-1.26-2.88-2.934zM19.422 36l7.668-12.006h.99L20.394 36h-.972zm2.97-9.198c0-1.188-.756-2.07-1.836-2.07-1.062 0-1.8.882-1.8 2.07 0 1.134.738 2.034 1.8 2.034 1.08 0 1.836-.9 1.836-2.034zm1.548 6.48c0-1.692 1.17-2.988 2.88-2.988s2.898 1.296 2.898 2.988c0 1.674-1.188 2.934-2.898 2.934-1.71 0-2.88-1.26-2.88-2.934zm4.716 0c0-1.188-.756-2.07-1.836-2.07s-1.818.882-1.818 2.07c0 1.134.738 2.034 1.818 2.034s1.836-.9 1.836-2.034zM39.294 36h1.494V25.326h3.816v-1.332h-9.108v1.332h3.798V36zm7.902-10.098a.907.907 0 00.918-.9.922.922 0 00-.918-.918c-.486 0-.9.414-.9.918s.414.9.9.9zM46.53 36h1.35v-8.694h-1.35V36zm9.918 0h1.35v-6.102c0-1.89-.954-2.808-2.772-2.808-1.296 0-2.484.756-3.096 1.476v-1.26h-1.35V36h1.35v-6.354c.504-.702 1.512-1.35 2.574-1.35 1.17 0 1.944.486 1.944 2.016V36zm6.246.216c.792 0 1.278-.234 1.62-.558l-.396-1.008c-.18.198-.54.36-.918.36-.594 0-.882-.468-.882-1.116v-5.4h1.764v-1.188h-1.764V24.93h-1.35v2.376h-1.44v1.188h1.44v5.688c0 1.296.648 2.034 1.926 2.034zM3.204 83h1.494V70.994H3.384L.378 74.09l.9.918 1.926-2.034V83zm3.816-5.994c0-2.934 1.296-6.192 4.59-6.192 3.276 0 4.59 3.258 4.59 6.192 0 2.916-1.314 6.21-4.59 6.21-3.294 0-4.59-3.294-4.59-6.21zm7.65 0c0-2.394-.774-4.86-3.06-4.86s-3.06 2.466-3.06 4.86.774 4.878 3.06 4.878 3.06-2.484 3.06-4.878zm3.006-3.204c0-1.692 1.17-2.988 2.88-2.988 1.728 0 2.916 1.296 2.916 2.988 0 1.674-1.188 2.934-2.916 2.934-1.71 0-2.88-1.26-2.88-2.934zM19.422 83l7.668-12.006h.99L20.394 83h-.972zm2.97-9.198c0-1.188-.756-2.07-1.836-2.07-1.062 0-1.8.882-1.8 2.07 0 1.134.738 2.034 1.8 2.034 1.08 0 1.836-.9 1.836-2.034zm1.548 6.48c0-1.692 1.17-2.988 2.88-2.988s2.898 1.296 2.898 2.988c0 1.674-1.188 2.934-2.898 2.934-1.71 0-2.88-1.26-2.88-2.934zm4.716 0c0-1.188-.756-2.07-1.836-2.07s-1.818.882-1.818 2.07c0 1.134.738 2.034 1.818 2.034s1.836-.9 1.836-2.034zm6.948 1.026c.99 1.116 2.52 1.908 4.608 1.908 3.24 0 4.428-1.782 4.428-3.528 0-2.52-2.232-3.132-4.194-3.654-1.53-.414-2.916-.774-2.916-1.98 0-1.134 1.026-1.908 2.466-1.908 1.314 0 2.574.45 3.474 1.44l.9-1.098c-1.008-1.062-2.43-1.674-4.266-1.674-2.358 0-4.122 1.35-4.122 3.33 0 2.358 2.142 2.898 4.068 3.402 1.584.432 3.042.828 3.042 2.268 0 .918-.684 2.07-2.826 2.07-1.692 0-2.988-.828-3.78-1.71l-.882 1.134zM52.704 83h1.35v-6.138c0-1.89-.954-2.772-2.772-2.772-1.314 0-2.502.756-3.114 1.476v-4.572h-1.35V83h1.35v-6.354c.522-.702 1.53-1.35 2.574-1.35 1.17 0 1.962.45 1.962 1.98V83zm9.486 0v-.99c-.72.792-1.71 1.206-2.88 1.206-1.476 0-3.042-.99-3.042-2.88 0-1.944 1.566-2.862 3.042-2.862 1.188 0 2.178.378 2.88 1.188v-1.566c0-1.17-.936-1.836-2.196-1.836-1.044 0-1.89.378-2.664 1.206l-.63-.936c.936-.972 2.052-1.44 3.474-1.44 1.836 0 3.366.828 3.366 2.934V83h-1.35zm0-1.836v-1.638c-.522-.72-1.44-1.08-2.394-1.08-1.26 0-2.142.792-2.142 1.908 0 1.098.882 1.89 2.142 1.89.954 0 1.872-.36 2.394-1.08zM72.54 83v-1.296c-.648.882-1.71 1.512-2.934 1.512-2.268 0-3.87-1.728-3.87-4.554 0-2.772 1.584-4.572 3.87-4.572 1.17 0 2.232.576 2.934 1.53v-4.626h1.35V83h-1.35zm0-2.358V76.7c-.486-.756-1.53-1.404-2.61-1.404-1.746 0-2.79 1.44-2.79 3.366 0 1.926 1.044 3.348 2.79 3.348 1.08 0 2.124-.612 2.61-1.368zm3.546-1.998c0-2.52 1.8-4.554 4.284-4.554 2.628 0 4.176 2.052 4.176 4.662v.342h-7.038c.108 1.638 1.26 3.006 3.132 3.006.99 0 1.998-.396 2.682-1.098l.648.882c-.864.864-2.034 1.332-3.456 1.332-2.574 0-4.428-1.854-4.428-4.572zm4.266-3.438c-1.854 0-2.772 1.566-2.844 2.898h5.706c-.018-1.296-.882-2.898-2.862-2.898zM110.68 25l6.68 6.68-6.68 6.68-1.18-1.18 4.66-4.68H104v-1.64h10.16l-4.66-4.68zm0 47l6.68 6.68-6.68 6.68-1.18-1.18 4.66-4.68H104v-1.64h10.16l-4.66-4.68z" fill="#071D49"/></g></svg>