<svg width="41" height="50" xmlns="http://www.w3.org/2000/svg"><g stroke="#071D49" fill="none" fill-rule="evenodd"><path d="M30.617 25.312c.67-1.46-.178-2.88-.348-3.333a3.966 3.966 0 00.926-2.548 4.025 4.025 0 00-1.342-2.99c.01-.095.01-.199.01-.293 0-2.236-1.833-4.058-4.09-4.058h-2.557a4.057 4.057 0 00-2.995-1.311c-1.152 0-3.132.472-3.907 1.311H14.67c-2.257 0-4.09 1.822-4.09 4.058 0 .094 0 .188.01.292a4.025 4.025 0 00-1.342 2.991c0 .944.183 1.618.788 2.335-.17.453-.955 2.429 0 3.546-.624 0-2.03-.249-2.059.751-.123 3.954 1.778 8.113 4.97 10.472 1.871 1.387 2.712 2.84 2.712 4.718v2.174l.056 1.548a4.583 4.583 0 004.525 3.868c2.286 0 4.176-1.68 4.525-3.868l.057-1.548v-1.23l-.01-.944c0-1.887.822-3.302 2.75-4.746 3.088-2.312 4.904-6.334 4.904-10.165 0-1.132-.416-1.03-1.849-1.03z" stroke-width="1.5"/><path d="M20.222 12.251v12.681m0 7.435V41.7M17.15 31.255h6.144m-6.803 10.902h7.28M9.84 25.316h20.185" stroke-width="1.5" stroke-linecap="square"/><path d="M17.285 15.893c-.683-.341-2.39-.341-2.73 1.705m9.896-1.298c1.072.12 1.953.98 1.832 2.05m-1.988 5.803c.682 0 2.048 0 2.048-2.046m-12.813-.529c0 .34-.34 1.364.683 2.046" stroke-linecap="round"/><path d="M20.222 5.613v-4.09M36.165 18.23l3.361-.591m-34.804.591l-3.361-.591m29.886-8.154l2.655-2.652M9.656 9.485L7 6.833" stroke-width="1.5" stroke-linecap="round"/></g></svg>