<?xml version="1.0" encoding="UTF-8"?>
<svg width="41px" height="50px" viewBox="0 0 41 50" version="1.1" xmlns="http://www.w3.org/2000/svg" xmlns:xlink="http://www.w3.org/1999/xlink">
    <!-- Generator: Sketch 45 (43475) - http://www.bohemiancoding.com/sketch -->
    <title>Group 17</title>
    <desc>Created with Sketch.</desc>
    <defs></defs>
    <g id="Page-1" stroke="none" stroke-width="1" fill="none" fill-rule="evenodd">
        <g id="6-14-5" transform="translate(-985.000000, -1316.000000)" stroke="#071D49">
            <g id="Product-Snapshot" transform="translate(155.000000, 1057.000000)">
                <g id="Snapshot-4" transform="translate(762.000000, 260.000000)">
                    <g id="Group-17" transform="translate(69.000000, 0.000000)">
                        <g id="insights-1.5">
                            <path d="M29.6170505,24.3116164 C30.2877386,22.8512578 29.4388832,21.4317798 29.2688496,20.9788755 C29.8639672,20.2617769 30.1945881,19.3748392 30.1945881,18.4312884 C30.1945881,17.289592 29.7033799,16.2045086 28.8532119,15.4402324 C28.8626582,15.3458774 28.8626582,15.2420868 28.8626582,15.1477317 C28.8626582,12.9115164 27.0300737,11.0904634 24.7724052,11.0904634 L22.215853,11.0904634 C21.4412554,10.2507032 20.3643759,9.77892781 19.2213722,9.77892781 C18.0689221,9.77892781 16.0885949,10.2507032 15.3139974,11.0904634 L13.6703391,11.0904634 C11.4126706,11.0904634 9.58008613,12.9115164 9.58008613,15.1477317 C9.58008613,15.2420868 9.58008613,15.3364419 9.58953244,15.4402324 C8.73936438,16.2045086 8.24815617,17.289592 8.24815617,18.4312884 C8.24815617,19.3748392 8.43106578,20.0489296 9.03562973,20.7660282 C8.86559612,21.2189326 8.08128109,23.1947339 9.03562973,24.3116164 C8.41232402,24.3116164 7.00549971,24.0630906 6.97716077,25.0632544 C6.85435872,29.0167321 8.75485875,33.1763402 11.9477121,35.5352171 C13.8180818,36.9222367 14.6588036,38.3753049 14.6588036,40.252971 L14.6588036,40.4228101 L14.6588036,41.1965217 L14.6588036,42.4274014 L14.7154815,43.9748246 C15.0555487,46.1638624 16.9542573,47.8433828 19.2402648,47.8433828 C21.5262722,47.8433828 23.4155346,46.1638624 23.7650481,43.9748246 L23.821726,42.4274014 L23.821726,41.1965217 L23.8122797,40.252971 C23.8122797,38.3658694 24.6341088,36.9505433 26.5611564,35.5069106 C29.6501003,33.1952112 31.4655717,29.1729387 31.4655717,25.3421225 C31.4655717,24.2098616 31.0495282,24.3116164 29.6170505,24.3116164 Z" id="Path-Copy" stroke-width="1.5"></path>
                            <path d="M19.2216236,11.2511181 L19.2216236,23.9321242" id="Line-Copy-24" stroke-width="1.5" stroke-linecap="square"></path>
                            <path d="M19.2216236,31.3674978 L19.2216236,40.6988126" id="Line-Copy-25" stroke-width="1.5" stroke-linecap="square"></path>
                            <path d="M16.1496777,30.2545844 L22.2935696,30.2545844" id="Line" stroke-width="1.5" stroke-linecap="square"></path>
                            <path d="M15.4913043,41.1571374 L22.7702663,41.1571374" id="Line-Copy-26" stroke-width="1.5" stroke-linecap="square"></path>
                            <path d="M8.83964875,24.3157756 L29.0252463,24.3157756" id="Line" stroke-width="1.5" stroke-linecap="square"></path>
                            <path d="M16.285047,14.892982 C15.6023923,14.552045 13.8957557,14.552045 13.5544283,16.5976667" id="Path-19" stroke-linecap="round"></path>
                            <path d="M23.6831603,15.122958 C24.7071423,15.4638949 25.3897969,16.4867058 25.0484696,17.5095166" id="Path-20" stroke-linecap="round" transform="translate(24.410210, 16.316237) rotate(-12.000000) translate(-24.410210, -16.316237) "></path>
                            <path d="M23.2947677,23.1526738 C23.9774224,23.1526738 25.3427317,23.1526738 25.3427317,21.1070522" id="Path-21" stroke-linecap="round"></path>
                            <path d="M12.5304463,20.5779491 C12.5304463,20.9188861 12.189119,21.9416969 13.213101,22.6235708" id="Path-22" stroke-linecap="round"></path>
                            <path d="M19.2216236,4.61330305 L19.2216236,0.522059698" id="Path-23" stroke-width="1.5" stroke-linecap="round"></path>
                            <path d="M35.164611,17.2308132 L38.5260291,16.6387824" id="Path-23-Copy-3" stroke-width="1.5" stroke-linecap="round"></path>
                            <path d="M0.360988503,17.2308132 L3.72240653,16.6387824" id="Path-23-Copy-4" stroke-width="1.5" stroke-linecap="round" transform="translate(2.041698, 16.979719) scale(-1, 1) translate(-2.041698, -16.979719) "></path>
                            <path d="M30.2467715,8.48513872 L32.9016751,5.83327163" id="Path-23-Copy" stroke-width="1.5" stroke-linecap="round"></path>
                            <path d="M8.65551342,8.48513872 L6.00060984,5.83327163" id="Path-23-Copy-2" stroke-width="1.5" stroke-linecap="round"></path>
                        </g>
                    </g>
                </g>
            </g>
        </g>
    </g>
</svg>