<?xml version="1.0" encoding="UTF-8"?>
<svg width="464px" height="230px" viewBox="0 0 464 230" version="1.1" xmlns="http://www.w3.org/2000/svg" xmlns:xlink="http://www.w3.org/1999/xlink">
    <!-- Generator: Sketch 45.2 (43514) - http://www.bohemiancoding.com/sketch -->
    <title>Do img</title>
    <desc>Created with Sketch.</desc>
    <defs></defs>
    <g id="Page-1" stroke="none" stroke-width="1" fill="none" fill-rule="evenodd">
        <g id="7-12-1" transform="translate(-248.000000, -2831.000000)">
            <g id="Do-img" transform="translate(248.000000, 2831.000000)">
                <g id="Page-1">
                    <rect id="Rectangle" fill="#0087B5" style="mix-blend-mode: multiply;" x="0" y="0" width="464" height="230"></rect>
                    <g id="One-Color-Logo" transform="translate(125.000000, 89.000000)" fill="#FEFEFE">
                        <g>
                            <polygon id="Fill-2" points="20.9332726 19.5121356 14.0136922 30.7164003 7.09503015 19.5121356 0.81276745 19.5121356 0.81276745 45.92862 6.54862666 45.92862 6.54862666 28.8024686 13.922778 40.0076521 14.0136922 40.0076521 21.4796761 28.711504 21.4796761 45.92862 27.214617 45.92862 27.214617 19.5121356"></polygon>
                            <path d="M41.0527676,34.9067439 L44.513017,26.3441276 L48.0632622,34.9067439 L41.0527676,34.9067439 Z M47.3350303,19.329747 L41.9637462,19.329747 L30.6747745,45.9281605 L36.5924621,45.9281605 L39.0508187,40.0071927 L50.2479579,40.0071927 L52.6154002,45.9281605 L58.7149162,45.9281605 L47.3350303,19.329747 Z" id="Fill-3"></path>
                            <polygon id="Fill-4" points="70.1862673 32.5379892 61.3556522 19.5116762 68.0924859 19.5116762 73.6455984 28.0742925 79.1996292 19.5116762 85.8455487 19.5116762 77.0140152 32.4470246 86.2092054 45.9281605 79.4723718 45.9281605 73.5546842 36.9107213 67.5460824 45.9281605 60.9910771 45.9281605"></polygon>
                            <path d="M110.24398,27.8008474 C110.24398,28.8032955 110.062152,29.7138603 109.606662,30.4424958 C109.243005,31.2630148 108.605688,31.9006858 107.96837,32.4464733 C107.240138,32.9931797 106.420074,33.4489215 105.419099,33.8127798 C104.417207,34.0865924 103.325318,34.2685216 102.050683,34.2685216 L94.7674453,34.2685216 L94.7674453,21.334092 L102.232511,21.334092 C103.416232,21.334092 104.508121,21.5160212 105.510014,21.788915 C106.511906,22.0627276 107.331052,22.4265859 108.059284,22.9732923 C108.787516,23.5199987 109.33392,24.1576696 109.697576,24.9772698 C110.062152,25.7059053 110.24398,26.7083535 110.24398,27.8008474 M111.427701,24.2486342 C110.972212,23.2461861 110.24398,22.4265859 109.424834,21.6979504 C108.514774,20.9693148 107.512881,20.513573 106.32916,20.1497147 C105.146357,19.7849375 103.779889,19.6030083 102.323425,19.6030083 L92.7645781,19.6030083 L92.7645781,46.0194927 L94.7674453,46.0194927 L94.7674453,36.0905699 L101.868854,36.0905699 C103.234404,36.0905699 104.599953,35.9086407 105.782756,35.5438635 C107.057392,35.1800052 108.150198,34.6332988 109.060259,33.9956278 C109.971237,33.2669923 110.790383,32.4464733 111.336787,31.3539794 C111.88319,30.2605666 112.155933,29.0761893 112.155933,27.7098828 L112.155933,27.6189182 C112.155933,26.3435763 111.974105,25.159199 111.427701,24.2486342" id="Fill-5"></path>
                            <polygon id="Fill-7" points="147.297667 45.9284362 149.300534 45.9284362 149.300534 19.5119518 147.297667 19.5119518"></polygon>
                            <polygon id="Fill-8" points="155.036302 19.51186 156.948255 19.51186 175.156807 42.4670957 175.156807 19.51186 176.976928 19.51186 176.976928 45.9283443 175.520464 45.9283443 156.948255 22.5182856 156.948255 45.9283443 155.036302 45.9283443"></polygon>
                            <polygon id="Fill-9" points="190.633342 21.3337245 181.438151 21.3337245 181.438151 19.5116762 201.740485 19.5116762 201.740485 21.3337245 192.545295 21.3337245 192.545295 45.9281605 190.633342 45.9281605"></polygon>
                            <g id="Group-22" transform="translate(114.685184, 0.156040)">
                                <path d="M20.0194894,37.186625 C21.0057707,35.9094454 21.5962538,34.3106738 21.5962538,32.5639699 C21.5962538,29.3949107 19.6677708,26.6972133 16.9155502,25.5698037 L15.8457014,32.4592228 L20.0194894,37.186625 Z" id="Fill-12"></path>
                                <path d="M16.2328673,39.2785349 L12.4484491,34.4133076 C11.9801033,33.8739519 11.9801033,32.8558836 11.9902048,32.6519024 C11.9902048,32.3670638 12.0306111,32.1428682 12.1123421,31.9600202 L12.4475308,25.1735105 C9.0304427,25.9012272 6.48392692,28.9214354 6.48392692,32.5646131 C6.48392692,36.7544973 9.85234376,40.1238624 14.0399067,40.1238624 C14.9068057,40.1238624 15.7360533,39.9722548 16.5102015,39.7067117 L16.3449029,39.4926233 C16.2934767,39.4310614 16.263172,39.3603112 16.2328673,39.2785349" id="Fill-14"></path>
                                <path d="M94.4297275,20.1757873 C94.8842985,20.1757873 95.430702,20.1757873 95.430702,19.6290809 C95.430702,19.1733392 95.0670452,19.0823746 94.7024701,19.0823746 L93.9742382,19.0823746 L93.9742382,20.1757873 L94.4297275,20.1757873 Z M93.883324,21.9059522 L93.5187489,21.9059522 L93.5187489,18.7185162 L94.7933843,18.7185162 C95.5216162,18.7185162 95.8861913,18.99141 95.8861913,19.6290809 C95.8861913,20.1757873 95.5216162,20.4486811 95.0670452,20.5396457 L96.0680197,21.9978356 L95.5216162,21.9978356 L94.6115559,20.5396457 L93.9742382,20.5396457 L93.9742382,21.9059522 L93.883324,21.9059522 Z M92.1531993,20.2667519 C92.1531993,21.6330584 93.1550921,22.6355066 94.5206417,22.6355066 C95.8861913,22.6355066 96.8871657,21.5420938 96.8871657,20.2667519 C96.8871657,18.9004454 95.8861913,17.8979972 94.5206417,17.8979972 C93.1550921,17.8979972 92.1531993,18.99141 92.1531993,20.2667519 L92.1531993,20.2667519 Z M97.342655,20.2667519 C97.342655,21.8149876 96.1589339,23.0903295 94.5206417,23.0903295 C92.9723454,23.0903295 91.6986284,21.9059522 91.6986284,20.2667519 C91.6986284,18.6275516 92.8814312,17.4431743 94.5206417,17.4431743 C96.1589339,17.5341389 97.342655,18.7185162 97.342655,20.2667519 L97.342655,20.2667519 Z" id="Fill-18"></path>
                                <path d="M29.4170785,45.4573276 C29.3968754,44.7856598 28.7760875,43.6858152 28.2370306,43.0453877 C27.3976814,42.0466149 25.894383,41.5072592 24.583933,41.4236453 C26.5831269,39.0227315 27.7879696,35.9363672 27.7879696,32.5642456 C27.7879696,26.2830947 23.6141816,20.9924472 17.8902606,19.2953604 L17.5945599,21.1982661 C22.4258688,22.7400699 25.8760165,27.2634909 25.8760165,32.5642456 C25.9173412,35.5899667 24.7878012,38.354739 22.9153361,40.4643824 L22.9566607,40.5103241 C22.8042187,40.6123147 22.621472,40.7749483 22.3974007,41.0294654 L15.0214127,32.6827752 C15.0425341,32.672668 15.0425341,32.672668 15.0425341,32.6625609 L17.7378186,15.3177269 C18.0123978,15.2772982 18.2768755,15.2258435 18.5312516,15.1652005 C21.6039677,14.4117564 23.974165,11.7958353 24.3304752,8.51835357 C24.696887,4.32387528 21.6856986,0.496930673 17.504564,0.049458399 C13.2214953,-0.409039886 9.48758499,2.68559383 9.02934071,6.87915329 C8.69415201,10.0858848 10.3526473,12.9866445 12.9772208,14.4319707 C13.2113937,14.5642829 13.4657698,14.6864878 13.7293291,14.7884784 L12.8651851,32.1939554 L12.8550835,32.2040626 C12.6714185,32.3777222 12.7329463,33.5988529 13.0378302,33.9140131 L19.9316975,42.8974554 L19.9316975,42.8974554 L19.9353708,42.9020496 C19.5790606,43.0858165 19.3660092,43.1675927 19.2539735,43.2686645 L19.2539735,43.2686645 L19.2457086,43.2585573 C17.6487411,44.0432417 15.8552519,44.4971458 13.9497271,44.4971458 C7.30380766,44.4971458 2.02343775,39.1228844 2.02343775,32.5642456 C2.02343775,26.353845 6.70873293,21.3388477 12.6677452,20.7020956 L12.763251,18.7780567 C5.6728621,19.3808119 0.111484679,25.3128058 0.111484679,32.5642456 C0.111484679,40.2153783 6.30191486,46.4101587 13.9497271,46.4101587 C16.1261579,46.4101587 18.1758597,45.8946927 20.0079185,44.9997482 C19.9693488,45.2358886 19.9564923,45.4986752 19.9564923,45.7734066 C19.9564923,46.8723323 20.3118841,48.0530343 21.1356218,48.9590049 C22.1430246,50.1498141 23.5067375,50.6891698 24.8695321,50.6891698 C25.8769349,50.6891698 26.8733177,50.3225549 27.6979737,49.6913158 C28.124995,49.3357269 28.4408988,49.091317 28.9689358,48.0934631 C29.3968754,47.2793759 29.4675864,46.7096987 29.4170785,45.4573276 M13.1158879,5.95940022 C12.503365,5.65159075 12.0680788,5.18941713 11.9496149,4.59860671 C11.8320692,4.01698464 12.0442024,3.42341772 12.4712236,2.89325037 C13.0451768,2.180235 14.0204382,1.58666808 15.2197709,1.32296265 C15.2216075,1.32204382 15.2234442,1.32204382 15.2252808,1.32112498 L15.2252808,1.32112498 C17.320899,0.863545534 19.2337704,1.59585642 19.498248,2.96032527 C19.7728272,4.32387528 18.3182001,5.78022754 16.222582,6.23780699 L16.222582,6.23780699 C16.1582993,6.25158951 16.0967715,6.25434601 16.0324887,6.26629086 C14.9148869,6.47394739 13.8753428,6.3425541 13.1158879,5.95940022" id="Fill-20"></path>
                            </g>
                        </g>
                    </g>
                </g>
            </g>
        </g>
    </g>
</svg>