<?xml version="1.0" encoding="UTF-8"?>
<svg width="464px" height="230px" viewBox="0 0 464 230" version="1.1" xmlns="http://www.w3.org/2000/svg" xmlns:xlink="http://www.w3.org/1999/xlink">
    <!-- Generator: Sketch 45.2 (43514) - http://www.bohemiancoding.com/sketch -->
    <title>Dont img</title>
    <desc>Created with Sketch.</desc>
    <defs>
        <polygon id="path-1" points="10.0431352 10.2280702 0.678543913 10.2280702 0.678543913 0.825219298 10.0431352 0.825219298"></polygon>
        <polygon id="path-3" points="0.729806968 0.772684211 16.2287086 0.772684211 16.2287086 16.3486827 0.729806968 16.3486827"></polygon>
    </defs>
    <g id="Page-1" stroke="none" stroke-width="1" fill="none" fill-rule="evenodd">
        <g id="7-12-1" transform="translate(-822.000000, -2831.000000)">
            <g id="Dont-img" transform="translate(822.000000, 2831.000000)">
                <g id="Page-1">
                    <rect id="Rectangle-5" fill="#0087B5" x="0" y="0" width="464" height="230"></rect>
                    <g id="Full-Color-Logo" transform="translate(126.000000, 89.000000)">
                        <g>
                            <polygon id="Fill-1" fill="#C7212E" points="20.2901948 20.5169509 13.3121296 31.8552316 6.33499043 20.5169509 -0.000370434783 20.5169509 -0.000370434783 47.2503368 5.7839687 47.2503368 5.7839687 29.9193368 13.220447 41.2585474 13.3121296 41.2585474 20.8412165 29.8272842 20.8412165 47.2503368 26.6246296 47.2503368 26.6246296 20.5169509"></polygon>
                            <path d="M46.9151022,20.3328456 L41.4984196,20.3328456 L30.1140326,47.249407 L36.081737,47.249407 L38.5599457,41.2576175 L49.85265,41.2576175 L52.2401022,47.249407 L58.3911717,47.249407 L46.9151022,20.3328456 Z M40.5797413,36.0952316 L44.069237,27.4311263 L47.6494891,36.0952316 L40.5797413,36.0952316 Z" id="Fill-2" fill="#C7212E"></path>
                            <polygon id="Fill-3" fill="#C7212E" points="69.9594796 33.6990737 61.0542274 20.5169509 67.8480013 20.5169509 73.4480491 29.181986 79.049023 20.5169509 85.7511143 20.5169509 76.8449361 33.6070211 86.1178448 47.249407 79.3240709 47.249407 73.3563665 38.1241088 67.2969796 47.249407 60.6865709 47.249407"></polygon>
                            <g id="Group-15" transform="translate(92.608696, 19.683549)">
                                <path d="M44.0050591,14.1998158 C44.0050591,18.4398158 40.6081722,21.8513421 36.3852157,21.8513421 C32.161333,21.8513421 28.7644461,18.4398158 28.7644461,14.1998158 C28.7644461,9.95981579 32.161333,6.5492193 36.3852157,6.5492193 C40.6081722,6.5492193 44.0050591,9.95981579 44.0050591,14.1998158" id="Fill-4" fill="#C4C7C7"></path>
                                <path d="M39.3227635,20.7446649 L39.7821026,20.6526123 C40.3321983,20.3755246 40.88322,19.9152614 41.3425591,19.4540684 L41.617607,19.1779105 L44.9228113,22.9567175 L44.6477635,23.1417526 C44.0967417,23.6940684 43.4540374,24.1552614 42.7196504,24.6164544 L42.4446026,24.8005596 L39.5978113,21.1138053 L39.3227635,20.7446649 Z" id="Fill-6" fill="#C4C7C7"></path>
                                <g id="Group-10" transform="translate(41.673913, 22.315789)">
                                    <mask id="mask-2" fill="white">
                                        <use xlink:href="#path-1"></use>
                                    </mask>
                                    <g id="Clip-9"></g>
                                    <path d="M8.66604391,2.57700877 C7.74829174,1.47051754 6.37120043,0.825219298 4.99410913,0.825219298 L4.90150043,0.825219298 L4.80981783,0.918201754 C3.70870043,2.30085088 2.42329174,3.31435965 0.86190913,4.05171053 L0.770226522,4.14376316 L0.770226522,4.23581579 C0.678543913,4.51290351 0.678543913,4.88204386 0.678543913,5.25025439 C0.678543913,6.35674561 1.04527435,7.55528947 1.87227,8.47674561 C2.88170478,9.67528947 4.25879609,10.2285351 5.63681348,10.2285351 C6.64624826,10.2285351 7.65660913,9.85939474 8.4826787,9.21409649 C9.49211348,8.38469298 10.0431352,7.09409649 10.0431352,5.8035 C9.76808739,4.60495614 9.40043087,3.49846491 8.66604391,2.57700877" id="Fill-8" fill="#C4C7C7" mask="url(#mask-2)"></path>
                                </g>
                                <path d="M41.893303,19.4541614 L37.0276422,13.9235649 C36.7516683,13.6464772 36.3849378,13.5544246 36.0172813,13.5544246 C35.7422335,13.5544246 35.4662596,13.5544246 35.1912117,13.8315123 C35.0078465,14.0156175 34.8235552,14.2917754 34.8235552,14.5688632 C34.8235552,14.7529684 34.9161639,15.0291263 35.0995291,15.2141614 L39.5984596,21.0209158 C40.5162117,20.6527053 41.2505987,20.0994596 41.893303,19.4541614" id="Fill-11" fill="#9EA1A1"></path>
                                <path d="M18.9408861,5.6270193 C18.481547,4.6125807 17.74716,3.78317719 16.9210904,3.04582632 C16.0033383,2.30847544 14.9929774,1.84728246 13.7992513,1.47907193 C12.6055252,1.10993158 11.2284339,0.925826316 9.75966,0.925826316 L0.12002087,0.925826316 L0.12002087,27.6582825 L2.13981652,27.6582825 L2.13981652,17.6105982 L9.30032087,17.6105982 C10.6783383,17.6105982 12.0554296,17.426493 13.2482296,17.0573526 C14.5336383,16.6891421 15.6356817,16.1358965 16.5534339,15.4905982 C17.4721122,14.7532474 18.2981817,13.922914 18.8492035,12.8173526 C19.4002252,11.7108614 19.675273,10.5123175 19.675273,9.12966842 L19.675273,9.03761579 C19.675273,7.7470193 19.4919078,6.54847544 18.9408861,5.6270193 M17.74716,9.22172105 C17.74716,10.2361596 17.5637948,11.1576158 17.1044557,11.8949667 C16.7377252,12.7253 16.0950209,13.3705982 15.4523165,13.922914 C14.7179296,14.4761596 13.8909339,14.9373526 12.8814991,15.3055632 C11.8711383,15.5826509 10.7700209,15.7667561 9.48461217,15.7667561 L2.13981652,15.7667561 L2.13981652,2.67761579 L9.66797739,2.67761579 C10.8617035,2.67761579 11.9628209,2.86172105 12.9731817,3.13787895 C13.9826165,3.41496667 14.8096122,3.78317719 15.5439991,4.33642281 C16.2783861,4.88966842 16.8294078,5.53496667 17.1961383,6.36437018 C17.5637948,7.10172105 17.74716,8.11615965 17.74716,9.22172105" id="Fill-13" fill="#404545"></path>
                            </g>
                            <polygon id="Fill-16" fill="#404545" points="147.722909 47.2491281 149.742704 47.2491281 149.742704 20.5166719 147.722909 20.5166719"></polygon>
                            <polygon id="Fill-17" fill="#404545" points="155.526673 20.5171368 157.454786 20.5171368 175.817238 43.7469439 175.817238 20.5171368 177.652743 20.5171368 177.652743 47.249593 176.183969 47.249593 157.454786 23.5595228 157.454786 47.249593 155.526673 47.249593"></polygon>
                            <polygon id="Fill-18" fill="#404545" points="191.424582 22.360793 182.151673 22.360793 182.151673 20.5169509 202.625603 20.5169509 202.625603 22.360793 193.352695 22.360793 193.352695 47.249407 191.424582 47.249407"></polygon>
                            <g id="Group-30" transform="translate(114.834783, 0.157233)">
                                <path d="M14.0668904,19.7146982 C6.35443826,19.7146982 0.111686087,25.9826456 0.111686087,33.7262246 C0.111686087,41.4688737 6.35443826,47.7377509 14.0668904,47.7377509 C21.7793426,47.7377509 28.0220948,41.4688737 28.0220948,33.7262246 C28.0220948,25.9826456 21.7793426,19.7146982 14.0668904,19.7146982 M14.0668904,45.8018561 C7.36479913,45.8018561 2.03979913,40.3633123 2.03979913,33.7262246 C2.03979913,26.9970842 7.45648174,21.650593 14.0668904,21.650593 C20.7689817,21.650593 26.0939817,27.0891368 26.0939817,33.7262246 C26.1856643,40.3633123 20.7689817,45.8018561 14.0668904,45.8018561" id="Fill-19" fill="#404545"></path>
                                <path d="M15.1686561,33.8183702 C15.0769735,34.4636684 14.5259517,35.016914 13.97493,34.9248614 C13.3322257,34.8328088 12.9654952,34.2795632 12.9654952,33.5422123 L13.8832474,15.0135982 C13.97493,14.2762474 15.4437039,13.907107 16.0864083,13.9991596 C16.7291126,14.0912123 18.1062039,14.7365105 18.0145213,15.4738614 L15.1686561,33.8183702 Z" id="Fill-21" fill="#404545"></path>
                                <g id="Group-25" transform="translate(8.334783, 0.000000)">
                                    <mask id="mask-4" fill="white">
                                        <use xlink:href="#path-3"></use>
                                    </mask>
                                    <g id="Clip-24"></g>
                                    <path d="M16.19865,9.39039123 C15.7393109,13.6303912 11.9756935,16.7648298 7.66012826,16.3036368 C3.43717174,15.8433737 0.315332609,12.0636368 0.774671739,7.73158421 C1.23308478,3.49065439 4.99762826,0.357145614 9.31319348,0.817408772 C13.53615,1.27860175 16.5653804,5.15039123 16.19865,9.39039123" id="Fill-23" fill="#C7212E" mask="url(#mask-4)"></path>
                                </g>
                                <path d="M19.6672161,3.76737018 C19.94319,5.1500193 18.47349,6.62472105 16.3620117,7.08591404 C14.2505335,7.54710702 12.3224204,6.80975614 12.0473726,5.42617719 C11.7713987,4.04352807 13.2401726,2.56882632 15.352577,2.10763333 C17.4640552,1.64737018 19.3921683,2.38472105 19.6672161,3.76737018" id="Fill-26" fill="#ED8599"></path>
                                <path d="M98.1652174,21.2817316 C98.1652174,22.848486 96.9714913,24.1390825 95.3193522,24.1390825 C93.7579696,24.1390825 92.4725609,22.9405386 92.4725609,21.2817316 C92.4725609,19.6229246 93.666287,18.4243807 95.3193522,18.4243807 C96.9714913,18.5164333 98.1652174,19.7149772 98.1652174,21.2817316 L98.1652174,21.2817316 Z M92.9319,21.2817316 C92.9319,22.6643807 93.9422609,23.6788193 95.3193522,23.6788193 C96.6964435,23.6788193 97.7058783,22.5723281 97.7058783,21.2817316 C97.7058783,19.8990825 96.6964435,18.8846439 95.3193522,18.8846439 C93.9422609,18.8846439 92.9319,19.9911351 92.9319,21.2817316 L92.9319,21.2817316 Z M94.6766478,22.9405386 L94.3089913,22.9405386 L94.3089913,19.7149772 L95.5944,19.7149772 C96.328787,19.7149772 96.6964435,19.9911351 96.6964435,20.6364333 C96.6964435,21.1896789 96.328787,21.4658368 95.8703739,21.5578895 L96.8798087,23.0335211 L96.328787,23.0335211 L95.4110348,21.5578895 L94.7683304,21.5578895 L94.7683304,22.9405386 L94.6766478,22.9405386 Z M95.2276696,21.1896789 C95.6860826,21.1896789 96.2371043,21.1896789 96.2371043,20.6364333 C96.2371043,20.1752404 95.8694478,20.0831877 95.5027174,20.0831877 L94.7683304,20.0831877 L94.7683304,21.1896789 L95.2276696,21.1896789 Z" id="Fill-28" fill="#404545"></path>
                            </g>
                        </g>
                    </g>
                </g>
            </g>
        </g>
    </g>
</svg>