<svg width="42" height="31" xmlns="http://www.w3.org/2000/svg"><g stroke-width="1.5" stroke="#071D49" fill="none" fill-rule="evenodd"><path d="M6.056 24.406l5.454-8.636m5.455-1.364l8.182 2.727m10.909-10l-5.725 8.58" stroke-linecap="round" stroke-linejoin="round"/><path d="M7.4 26.934a3.2 3.2 0 11-6.4 0 3.2 3.2 0 013.2-3.2c1.77 0 3.2 1.43 3.2 3.2h0zm9.6-13.6a3.2 3.2 0 11-6.4 0 3.2 3.2 0 013.2-3.2c1.77 0 3.2 1.43 3.2 3.2h0zm14.4 4.8a3.2 3.2 0 11-6.4 0 3.2 3.2 0 013.2-3.2c1.77 0 3.2 1.43 3.2 3.2h0zm9.6-13.6a3.2 3.2 0 11-6.4 0 3.2 3.2 0 013.2-3.2c1.77 0 3.2 1.43 3.2 3.2h0z"/></g></svg>