<?xml version="1.0" encoding="UTF-8"?>
<svg width="42px" height="31px" viewBox="0 0 42 31" version="1.1" xmlns="http://www.w3.org/2000/svg" xmlns:xlink="http://www.w3.org/1999/xlink">
    <!-- Generator: Sketch 45 (43475) - http://www.bohemiancoding.com/sketch -->
    <title>Group 2</title>
    <desc>Created with Sketch.</desc>
    <defs></defs>
    <g id="Page-1" stroke="none" stroke-width="1" fill="none" fill-rule="evenodd">
        <g id="6-14-5" transform="translate(-412.000000, -794.000000)" stroke-width="1.5" stroke="#071D49">
            <g id="Section-1" transform="translate(153.000000, 677.000000)">
                <g id="measurement" transform="translate(191.000000, 118.000000)">
                    <g id="Group-2" transform="translate(69.000000, 0.000000)">
                        <g id="measurement">
                            <path d="M5.05584126,23.4058789 L10.5103867,14.7695152" id="Stroke-4517" stroke-linecap="round" stroke-linejoin="round"></path>
                            <path d="M15.9649322,13.4058789 L24.1467504,16.1331516" id="Stroke-4518" stroke-linecap="round" stroke-linejoin="round"></path>
                            <path d="M35.0558413,6.13315158 L29.3310061,14.7127471" id="Stroke-4519" stroke-linecap="round" stroke-linejoin="round"></path>
                            <path d="M6.4,25.9342692 C6.4,27.7006692 4.9696,29.1342692 3.2,29.1342692 C1.4336,29.1342692 0,27.7006692 0,25.9342692 C0,24.1646692 1.4336,22.7342692 3.2,22.7342692 C4.9696,22.7342692 6.4,24.1646692 6.4,25.9342692 L6.4,25.9342692 Z" id="Stroke-4513"></path>
                            <path d="M16,12.3342692 C16,14.1006692 14.5696,15.5342692 12.8,15.5342692 C11.0336,15.5342692 9.6,14.1006692 9.6,12.3342692 C9.6,10.5646692 11.0336,9.13426923 12.8,9.13426923 C14.5696,9.13426923 16,10.5646692 16,12.3342692 L16,12.3342692 Z" id="Stroke-4513-Copy"></path>
                            <path d="M30.4,17.1342692 C30.4,18.9006692 28.9696,20.3342692 27.2,20.3342692 C25.4336,20.3342692 24,18.9006692 24,17.1342692 C24,15.3646692 25.4336,13.9342692 27.2,13.9342692 C28.9696,13.9342692 30.4,15.3646692 30.4,17.1342692 L30.4,17.1342692 Z" id="Stroke-4513-Copy-2"></path>
                            <path d="M40,3.53426923 C40,5.30066923 38.5696,6.73426923 36.8,6.73426923 C35.0336,6.73426923 33.6,5.30066923 33.6,3.53426923 C33.6,1.76466923 35.0336,0.334269231 36.8,0.334269231 C38.5696,0.334269231 40,1.76466923 40,3.53426923 L40,3.53426923 Z" id="Stroke-4513-Copy-3"></path>
                        </g>
                    </g>
                </g>
            </g>
        </g>
    </g>
</svg>