<svg width="102" height="26" xmlns="http://www.w3.org/2000/svg"><g fill="none" fill-rule="evenodd"><path fill="#FEFEFE" d="M10.024 9.756l-3.313 5.602-3.313-5.602H.389v13.208h2.747v-8.563l3.531 5.603h.044l3.575-5.648v8.608h2.746V9.756zm9.636 7.697l1.656-4.28 1.7 4.28H19.66zm3.007-7.788h-2.572l-5.406 13.3h2.834l1.177-2.961h5.362l1.134 2.96h2.921l-5.45-13.3zm10.943 6.604l-4.228-6.513h3.226l2.659 4.281 2.66-4.281h3.182l-4.229 6.468 4.403 6.74h-3.226l-2.834-4.509-2.877 4.51h-3.139zM52.793 13.9c0 .502-.087.957-.305 1.321-.174.41-.48.73-.785 1.002a4.565 4.565 0 01-1.22.683 5.765 5.765 0 01-1.614.228h-3.487v-6.467h3.574c.567 0 1.09.091 1.57.227.48.137.872.32 1.22.593.35.273.611.592.785 1.002.175.364.262.865.262 1.411m.567-1.776c-.218-.5-.567-.91-.96-1.275-.435-.364-.915-.592-1.482-.774-.566-.183-1.22-.273-1.918-.273h-4.578V23.01h.96v-4.965h3.4c.654 0 1.308-.09 1.875-.273a5.133 5.133 0 001.569-.774c.436-.365.829-.775 1.09-1.321.262-.547.392-1.139.392-1.822v-.046c0-.637-.087-1.23-.348-1.685m17.177 10.84h.959V9.756h-.96zm3.706-13.208h.915l8.72 11.478V9.756h.872v13.208h-.698L75.158 11.26v11.705h-.915zm17.047.911h-4.404v-.911h9.722v.91h-4.403v12.298h-.916z"/><path d="M61.25 12.603l-.17 3.572-.004.005c-.088.087-.059.697.087.855l1.9 2.555-.024.005.127.178.007.011a3.608 3.608 0 001.081-.806l-.007-.009c.01-.005.01-.005.015-.015l-2.149-2.535c.01-.005.01-.005.01-.01l.547-3.673a3.5 3.5 0 00-1.42-.133" fill="#C6202E"/><path d="M64.506 18.671a3.872 3.872 0 00.756-2.311c0-1.585-.924-2.933-2.242-3.497l-.512 3.445 1.998 2.363zm-1.813 1.046l-1.812-2.432c-.224-.27-.224-.779-.22-.881 0-.142.02-.255.059-.346l.16-3.393c-1.636.364-2.855 1.874-2.855 3.695 0 2.095 1.613 3.78 3.618 3.78.415 0 .812-.076 1.183-.209l-.08-.107a.354.354 0 01-.053-.107" fill="#FEFEFE"/><path d="M61.6 10.394c.482 0 .946.068 1.391.184l.141-.947a6.348 6.348 0 00-1.532-.194c-.068 0-.133.008-.2.01l-.045.96c.081-.004.162-.013.245-.013" fill="#C6202E"/><path d="M100.14 10.166c.217 0 .479 0 .479-.273 0-.228-.174-.274-.349-.274h-.349v.547h.219zm-.262.865h-.175V9.437h.61c.35 0 .524.137.524.456 0 .273-.175.41-.392.455l.48.729h-.263l-.435-.73h-.306v.684h-.043zm-.829-.82c0 .684.48 1.185 1.134 1.185.654 0 1.133-.547 1.133-1.185 0-.683-.479-1.184-1.133-1.184s-1.134.547-1.134 1.184zm2.485 0c0 .775-.566 1.412-1.35 1.412-.742 0-1.352-.592-1.352-1.412s.566-1.411 1.351-1.411c.785.045 1.351.637 1.351 1.411zM69.007 22.807c-.01-.336-.307-.886-.565-1.206-.402-.5-1.122-.77-1.75-.811a7.084 7.084 0 001.535-4.43c0-3.14-2-5.786-4.74-6.634l-.142.951c2.314.771 3.966 3.033 3.966 5.683a5.96 5.96 0 01-1.418 3.95l.02.023a1.47 1.47 0 00-.268.26l-3.532-4.174c.01-.005.01-.005.01-.01l1.29-8.672c.132-.02.259-.046.38-.076 1.472-.377 2.607-1.685 2.778-3.324.175-2.097-1.267-4.01-3.269-4.234-2.05-.23-3.839 1.318-4.058 3.415-.16 1.603.633 3.053 1.89 3.776.112.066.234.127.36.178l-.414 8.703-.004.005c-.088.087-.059.697.087.855l3.301 4.492.002.002c-.17.092-.272.133-.326.183l-.004-.005a5.535 5.535 0 01-2.536.62c-3.183 0-5.711-2.688-5.711-5.967 0-3.105 2.243-5.613 5.097-5.93l.046-.963c-3.396.301-6.059 3.267-6.059 6.893 0 3.826 2.964 6.923 6.627 6.923a6.36 6.36 0 002.9-.705c-.018.118-.024.25-.024.387 0 .55.17 1.14.565 1.593a2.267 2.267 0 001.788.865c.482 0 .96-.184 1.354-.5.205-.177.356-.3.61-.798.204-.407.238-.692.214-1.318M61.2 3.057c-.294-.153-.502-.384-.559-.68-.056-.29.045-.587.25-.852.275-.357.742-.654 1.316-.785l.003-.001c1.003-.23 1.92.137 2.046.82.131.681-.565 1.41-1.569 1.638-.03.007-.06.008-.09.014-.536.104-1.034.038-1.397-.153" fill="#FEFEFE"/></g></svg>