<?xml version="1.0" encoding="UTF-8"?>
<svg width="102px" height="26px" viewBox="0 0 102 26" version="1.1" xmlns="http://www.w3.org/2000/svg" xmlns:xlink="http://www.w3.org/1999/xlink">
    <!-- Generator: Sketch 45.1 (43504) - http://www.bohemiancoding.com/sketch -->
    <title>One Color Logo</title>
    <desc>Created with Sketch.</desc>
    <defs></defs>
    <g id="Symbols" stroke="none" stroke-width="1" fill="none" fill-rule="evenodd">
        <g id="footer" transform="translate(-153.000000, -19.000000)">
            <g transform="translate(0.000000, 1.000000)" id="One-Color-Logo">
                <g transform="translate(153.000000, 18.000000)">
                    <g>
                        <polygon id="Fill-2" fill="#FEFEFE" points="10.0243841 9.7560678 6.71078219 15.3582002 3.39762007 9.7560678 0.389212582 9.7560678 0.389212582 22.96431 3.13596206 22.96431 3.13596206 14.4012343 6.66724582 20.0038261 6.71078219 20.0038261 10.2860421 14.355752 10.2860421 22.96431 13.0323518 22.96431 13.0323518 9.7560678"></polygon>
                        <path d="M19.6590718,17.4533719 L21.3160926,13.1720638 L23.0162101,17.4533719 L19.6590718,17.4533719 Z M22.6674793,9.66487351 L20.0953151,9.66487351 L14.6893286,22.9640803 L17.5231509,22.9640803 L18.700392,20.0035964 L24.0624024,20.0035964 L25.1961072,22.9640803 L28.1170021,22.9640803 L22.6674793,9.66487351 Z" id="Fill-3" fill="#FEFEFE"></path>
                        <polygon id="Fill-4" fill="#FEFEFE" points="33.6103252 16.2689946 29.3815799 9.7558381 32.6076693 9.7558381 35.2669063 14.0371462 37.926583 9.7558381 41.109136 9.7558381 36.8799509 16.2235123 41.2832815 22.9640803 38.0571921 22.9640803 35.2233699 18.4553607 32.3460113 22.9640803 29.2069947 22.9640803"></polygon>
                        <path d="M52.7928918,13.9004237 C52.7928918,14.4016478 52.7058191,14.8569301 52.4876974,15.2212479 C52.3135519,15.6315074 52.0083575,15.9503429 51.7031631,16.2232366 C51.3544324,16.4965898 50.9617255,16.7244607 50.4823856,16.9063899 C50.002606,17.0432962 49.4797297,17.1342608 48.8693409,17.1342608 L45.3815935,17.1342608 L45.3815935,10.667046 L48.9564137,10.667046 C49.5232661,10.667046 50.0461423,10.7580106 50.525922,10.8944575 C51.0057016,11.0313638 51.3979688,11.213293 51.7466995,11.4866462 C52.0954303,11.7599993 52.3570883,12.0788348 52.5312338,12.4886349 C52.7058191,12.8529527 52.7928918,13.3541767 52.7928918,13.9004237 M53.3597442,12.1243171 C53.1416226,11.623093 52.7928918,11.213293 52.4006247,10.8489752 C51.9648212,10.4846574 51.4850415,10.2567865 50.9181891,10.0748573 C50.3517765,9.89246875 49.6974116,9.80150416 48.99995,9.80150416 L44.422474,9.80150416 L44.422474,23.0097463 L45.3815935,23.0097463 L45.3815935,18.0452849 L48.7822682,18.0452849 C49.4361933,18.0452849 50.0901185,17.9543204 50.6565311,17.7719318 C51.2669199,17.5900026 51.7902359,17.3166494 52.2260394,16.9978139 C52.6622827,16.6334961 53.0545498,16.2232366 53.3162078,15.6769897 C53.5778658,15.1302833 53.708475,14.5380947 53.708475,13.8549414 L53.708475,13.8094591 C53.708475,13.1717881 53.6214022,12.5795995 53.3597442,12.1243171" id="Fill-5" fill="#FEFEFE"></path>
                        <polygon id="Fill-7" fill="#FEFEFE" points="70.536911 22.9642181 71.4960306 22.9642181 71.4960306 9.75597592 70.536911 9.75597592"></polygon>
                        <polygon id="Fill-8" fill="#FEFEFE" points="74.2427361 9.75592998 75.1583192 9.75592998 83.8779076 21.2335479 83.8779076 9.75592998 84.7495146 9.75592998 84.7495146 22.9641722 84.0520531 22.9641722 75.1583192 11.2591428 75.1583192 22.9641722 74.2427361 22.9641722"></polygon>
                        <polygon id="Fill-9" fill="#FEFEFE" points="91.2892058 10.6668622 86.8858753 10.6668622 86.8858753 9.7558381 96.6081195 9.7558381 96.6081195 10.6668622 92.204789 10.6668622 92.204789 22.9640803 91.2892058 22.9640803"></polygon>
                        <g id="Group-22" transform="translate(54.919666, 0.078020)">
                            <path d="M6.33071665,12.5248258 L6.16096876,16.0972533 L6.15613138,16.1023069 C6.06817911,16.1886774 6.09764312,16.7992427 6.2436439,16.9572822 L8.14385275,19.5121008 L8.11922611,19.5171544 L8.24587739,19.6954082 L8.25379309,19.7064342 C8.66189164,19.507966 9.02777309,19.2346129 9.33472653,18.9001572 L9.32725058,18.8914283 C9.33736509,18.8859153 9.33736509,18.8859153 9.34220247,18.8758081 L7.19352844,16.3412038 C7.20364295,16.3361502 7.20364295,16.3361502 7.20364295,16.3310967 L7.75026633,12.6575974 C7.42484292,12.5579039 7.08050977,12.501855 6.72342354,12.501855 C6.59061561,12.501855 6.45956673,12.5105839 6.33071665,12.5248258" id="Fill-10" fill="#C6202E"></path>
                            <path d="M9.58679774,18.5933125 C10.0591014,17.9547227 10.341868,17.1553369 10.341868,16.281985 C10.341868,14.6974553 9.41836914,13.3486067 8.10040433,12.7849019 L7.58808234,16.2296114 L9.58679774,18.5933125 Z" id="Fill-12" fill="#FEFEFE"></path>
                            <path d="M7.77348573,19.6392675 L5.96122915,17.2066538 C5.73695085,16.936976 5.73695085,16.4279418 5.74178823,16.3259512 C5.74178823,16.1835319 5.76113773,16.0714341 5.80027649,15.9800101 L5.96078939,12.5867553 C4.32443735,12.9506136 3.10497909,14.4607177 3.10497909,16.2823066 C3.10497909,18.3772486 4.71802377,20.0619312 6.72333559,20.0619312 C7.13847032,20.0619312 7.53557483,19.9861274 7.90629366,19.8533558 L7.82713662,19.7463116 C7.80250998,19.7155307 7.78799786,19.6801556 7.77348573,19.6392675" id="Fill-14" fill="#FEFEFE"></path>
                            <path d="M6.67997512,10.3156267 C7.16195358,10.3156267 7.62590182,10.3840799 8.07138008,10.499853 L8.21254348,9.55253489 C7.72001075,9.43032994 7.20856828,9.35912028 6.67997512,9.35912028 C6.61269163,9.35912028 6.54760695,9.36738979 6.48076322,9.36968688 L6.43502804,10.3284904 C6.51682366,10.3248151 6.59729999,10.3156267 6.67997512,10.3156267" id="Fill-16" fill="#C6202E"></path>
                            <path d="M45.2198695,10.0878937 C45.4375514,10.0878937 45.6992094,10.0878937 45.6992094,9.81454047 C45.6992094,9.58666958 45.5250639,9.54118729 45.3504786,9.54118729 L45.0017479,9.54118729 L45.0017479,10.0878937 L45.2198695,10.0878937 Z M44.9582115,10.9529761 L44.7836262,10.9529761 L44.7836262,9.35925811 L45.394015,9.35925811 C45.7427458,9.35925811 45.917331,9.49570499 45.917331,9.81454047 C45.917331,10.0878937 45.7427458,10.2243405 45.5250639,10.2698228 L46.0044038,10.9989178 L45.7427458,10.9989178 L45.3069423,10.2698228 L45.0017479,10.2698228 L45.0017479,10.9529761 L44.9582115,10.9529761 Z M44.1297011,10.133376 C44.1297011,10.8165292 44.6094807,11.3177533 45.2634059,11.3177533 C45.917331,11.3177533 46.3966709,10.7710469 46.3966709,10.133376 C46.3966709,9.4502227 45.917331,8.94899862 45.2634059,8.94899862 C44.6094807,8.94899862 44.1297011,9.49570499 44.1297011,10.133376 L44.1297011,10.133376 Z M46.6147926,10.133376 C46.6147926,10.9074938 46.0479402,11.5451648 45.2634059,11.5451648 C44.5219682,11.5451648 43.9120192,10.9529761 43.9120192,10.133376 C43.9120192,9.31377582 44.4784318,8.72158715 45.2634059,8.72158715 C46.0479402,8.76706944 46.6147926,9.35925811 46.6147926,10.133376 L46.6147926,10.133376 Z" id="Fill-18" fill="#FEFEFE"></path>
                            <path d="M14.0870517,22.7286638 C14.0773769,22.3928299 13.7800983,21.8429076 13.5219583,21.5226939 C13.1200164,21.0233075 12.4001271,20.7536296 11.7725876,20.7118227 C12.7299481,19.5113657 13.306915,17.9681836 13.306915,16.2821228 C13.306915,13.1415474 11.3081996,10.4962236 8.56716704,9.64768018 L8.42556388,10.599133 C10.7391484,11.370035 12.3913319,13.6317454 12.3913319,16.2821228 C12.4111211,17.7949834 11.8702146,19.1773695 10.9735412,20.2321912 L10.9933305,20.255162 C10.9203301,20.3061573 10.8328176,20.3874742 10.7255158,20.5147327 L7.19335254,16.3413876 C7.20346705,16.336334 7.20346705,16.336334 7.20346705,16.3312804 L8.49416665,7.65886347 C8.6256553,7.63864912 8.75230657,7.61292176 8.87412047,7.58260023 C10.345562,7.20587819 11.4805861,5.89791765 11.6512135,4.25917679 C11.8266783,2.16193764 10.3847008,0.248465337 8.38246727,0.0247291995 C6.33142026,-0.204519943 4.54335056,1.34279691 4.32390964,3.43957665 C4.16339674,5.04294239 4.95760576,6.49332224 6.21444374,7.21598537 C6.32658289,7.28214143 6.44839679,7.34324391 6.5746083,7.39423921 L6.16079286,16.0969777 L6.15595548,16.1020313 C6.06800321,16.1888611 6.09746722,16.7994265 6.24346799,16.9570065 L9.54475655,21.4487277 L9.54475655,21.4487277 L9.5465156,21.4510248 C9.37588819,21.5429082 9.27386355,21.5837964 9.22021267,21.6343322 L9.22021267,21.6343322 L9.21625481,21.6292786 C8.4515098,22.0216209 7.59265586,22.2485729 6.68015103,22.2485729 C3.49759803,22.2485729 0.96897019,19.5614422 0.96897019,16.2821228 C0.96897019,13.1769225 3.21263267,10.6694239 6.06624416,10.3510478 L6.11197934,9.38902834 C2.71658185,9.69040597 0.0533870296,12.6564029 0.0533870296,16.2821228 C0.0533870296,20.1076891 3.01781839,23.2050794 6.68015103,23.2050794 C7.72238546,23.2050794 8.70393282,22.9473464 9.58125675,22.4998741 C9.56278677,22.6179443 9.55663011,22.7493376 9.55663011,22.8867033 C9.55663011,23.4361662 9.72681776,24.0265172 10.1212837,24.4795025 C10.6037019,25.074907 11.2567475,25.3445849 11.9093534,25.3445849 C12.3917716,25.3445849 12.8689127,25.1612775 13.2638184,24.8456579 C13.4683074,24.6678635 13.6195854,24.5456585 13.8724481,24.0467315 C14.0773769,23.639688 14.1112386,23.3548493 14.0870517,22.7286638 M6.28084771,2.97970011 C5.98752688,2.82579537 5.77907999,2.59470856 5.72235078,2.29930336 C5.66606132,2.00849232 5.7676462,1.71170886 5.97213523,1.44662518 C6.24698608,1.0901175 6.71401265,0.79333404 7.28834099,0.661481327 C7.28922052,0.66102191 7.29010004,0.66102191 7.29097956,0.660562492 L7.29097956,0.660562492 C8.29451499,0.431772767 9.21053792,0.797928211 9.33718919,1.48016263 C9.46867784,2.16193764 8.77209584,2.89011377 7.7685604,3.1189035 L7.7685604,3.1189035 C7.73777711,3.12579475 7.7083131,3.12717301 7.6775298,3.13314543 C7.14234022,3.2369737 6.64453036,3.17127705 6.28084771,2.97970011" id="Fill-20" fill="#FEFEFE"></path>
                        </g>
                    </g>
                </g>
            </g>
        </g>
    </g>
</svg>