<?xml version="1.0" encoding="UTF-8"?>
<svg width="31px" height="32px" viewBox="0 0 31 32" version="1.1" xmlns="http://www.w3.org/2000/svg" xmlns:xlink="http://www.w3.org/1999/xlink">
    <!-- Generator: Sketch 45 (43475) - http://www.bohemiancoding.com/sketch -->
    <title>Group 4</title>
    <desc>Created with Sketch.</desc>
    <defs></defs>
    <g id="Page-1" stroke="none" stroke-width="1" fill="none" fill-rule="evenodd">
        <g id="6-14-5" transform="translate(-797.000000, -789.000000)" stroke-width="1.5" stroke="#071D49">
            <g id="Section-1" transform="translate(153.000000, 677.000000)">
                <g id="pp" transform="translate(573.000000, 112.000000)">
                    <g id="Group-4" transform="translate(72.000000, 0.000000)">
                        <g id="pathpoint">
                            <path d="M9.07188431,5.03125 C16.3824312,5.03125 10.5020752,5.08203125 19.5718843,5.03125 C24.0937699,5.00593227 27.1153827,6.84425577 27.0718843,9.53125 C27.0263528,12.3438319 24.1945362,13.03125 17.5718843,14.53125 C10.9492324,16.03125 9.79488651,19.019506 11.0718843,22.53125 C13.0718843,28.03125 24.5718843,27.03125 24.5718843,27.03125" id="Path-4-Copy" transform="translate(18.072116, 16.066676) rotate(-360.000000) translate(-18.072116, -16.066676) "></path>
                            <circle id="Oval-2-Copy-2" cx="4.69841159" cy="5.00537109" r="4.23974609"></circle>
                            <g id="x" transform="translate(24.675293, 26.815430) rotate(-315.000000) translate(-24.675293, -26.815430) translate(19.175293, 21.315430)" stroke-linecap="round">
                                <path d="M6,0.58203125 L6,10.5820312" id="Line"></path>
                                <path d="M5.75,0.58203125 L5.75,10.5820312" id="Line-Copy-35" transform="translate(5.750000, 5.582031) rotate(-270.000000) translate(-5.750000, -5.582031) "></path>
                            </g>
                        </g>
                    </g>
                </g>
            </g>
        </g>
    </g>
</svg>