<?xml version="1.0" encoding="UTF-8"?>
<svg width="86px" height="40px" viewBox="0 0 86 40" version="1.1" xmlns="http://www.w3.org/2000/svg" xmlns:xlink="http://www.w3.org/1999/xlink">
    <!-- Generator: Sketch 44.1 (41455) - http://www.bohemiancoding.com/sketch -->
    <title>Print 1 inch wide</title>
    <desc>Created with Sketch.</desc>
    <defs></defs>
    <g id="Page-1" stroke="none" stroke-width="1" fill="none" fill-rule="evenodd">
        <g id="6-14-1" transform="translate(-248.000000, -4682.000000)" fill="#071D49">
            <g id="MIN-SIZE" transform="translate(153.000000, 4476.000000)">
                <path d="M96.188,219 L96.188,206.994 L101.804,206.994 C104.414,206.994 105.836,208.758 105.836,210.864 C105.836,212.952 104.396,214.698 101.804,214.698 L98.744,214.698 L98.744,219 L96.188,219 Z M103.226,210.846 C103.226,209.856 102.47,209.19 101.462,209.19 L98.744,209.19 L98.744,212.502 L101.462,212.502 C102.47,212.502 103.226,211.854 103.226,210.846 Z M107.366,219 L109.652,219 L109.652,213.258 C110.03,212.7 111.038,212.286 111.794,212.286 C112.046,212.286 112.262,212.304 112.424,212.34 L112.424,210.108 C111.344,210.108 110.264,210.72 109.652,211.494 L109.652,210.306 L107.366,210.306 L107.366,219 Z M114.98,209.19 C115.736,209.19 116.348,208.578 116.348,207.822 C116.348,207.066 115.736,206.454 114.98,206.454 C114.242,206.454 113.612,207.066 113.612,207.822 C113.612,208.578 114.242,209.19 114.98,209.19 Z M113.846,219 L116.132,219 L116.132,210.306 L113.846,210.306 L113.846,219 Z M124.268,219 L126.554,219 L126.554,212.862 C126.554,211.17 125.636,210.09 123.728,210.09 C122.306,210.09 121.244,210.774 120.686,211.44 L120.686,210.306 L118.4,210.306 L118.4,219 L120.686,219 L120.686,213.15 C121.064,212.628 121.766,212.124 122.666,212.124 C123.638,212.124 124.268,212.538 124.268,213.744 L124.268,219 Z M131.738,219.216 C132.692,219.216 133.304,218.964 133.646,218.658 L133.16,216.93 C133.034,217.056 132.71,217.182 132.368,217.182 C131.864,217.182 131.576,216.768 131.576,216.228 L131.576,212.304 L133.34,212.304 L133.34,210.306 L131.576,210.306 L131.576,207.93 L129.272,207.93 L129.272,210.306 L127.832,210.306 L127.832,212.304 L129.272,212.304 L129.272,216.84 C129.272,218.388 130.136,219.216 131.738,219.216 Z M98.204,245 L99.698,245 L99.698,232.994 L98.384,232.994 L95.378,236.09 L96.278,237.008 L98.204,234.974 L98.204,245 Z M107.762,234.902 C108.266,234.902 108.68,234.506 108.68,234.002 C108.68,233.498 108.266,233.084 107.762,233.084 C107.276,233.084 106.862,233.498 106.862,234.002 C106.862,234.506 107.276,234.902 107.762,234.902 Z M107.096,245 L108.446,245 L108.446,236.306 L107.096,236.306 L107.096,245 Z M117.014,245 L118.364,245 L118.364,238.898 C118.364,237.008 117.41,236.09 115.592,236.09 C114.296,236.09 113.108,236.846 112.496,237.566 L112.496,236.306 L111.146,236.306 L111.146,245 L112.496,245 L112.496,238.646 C113,237.944 114.008,237.296 115.07,237.296 C116.24,237.296 117.014,237.782 117.014,239.312 L117.014,245 Z M120.56,240.644 C120.56,243.236 122.306,245.216 124.898,245.216 C126.482,245.216 127.418,244.568 128.084,243.704 L127.184,242.876 C126.608,243.65 125.87,244.01 124.97,244.01 C123.116,244.01 121.964,242.57 121.964,240.644 C121.964,238.718 123.116,237.296 124.97,237.296 C125.87,237.296 126.608,237.638 127.184,238.43 L128.084,237.602 C127.418,236.738 126.482,236.09 124.898,236.09 C122.306,236.09 120.56,238.07 120.56,240.644 Z M135.86,245 L137.21,245 L137.21,238.862 C137.21,236.972 136.256,236.09 134.438,236.09 C133.124,236.09 131.936,236.846 131.324,237.566 L131.324,232.994 L129.974,232.994 L129.974,245 L131.324,245 L131.324,238.646 C131.846,237.944 132.854,237.296 133.898,237.296 C135.068,237.296 135.86,237.746 135.86,239.276 L135.86,245 Z M152.078,245 L153.428,245 L156.2,236.306 L154.796,236.306 L152.672,243.236 L150.386,236.306 L149.234,236.306 L146.948,243.236 L144.824,236.306 L143.42,236.306 L146.192,245 L147.542,245 L149.81,238.016 L152.078,245 Z M158.432,234.902 C158.936,234.902 159.35,234.506 159.35,234.002 C159.35,233.498 158.936,233.084 158.432,233.084 C157.946,233.084 157.532,233.498 157.532,234.002 C157.532,234.506 157.946,234.902 158.432,234.902 Z M157.766,245 L159.116,245 L159.116,236.306 L157.766,236.306 L157.766,245 Z M168.116,245 L168.116,243.704 C167.468,244.586 166.406,245.216 165.182,245.216 C162.914,245.216 161.312,243.488 161.312,240.662 C161.312,237.89 162.896,236.09 165.182,236.09 C166.352,236.09 167.414,236.666 168.116,237.62 L168.116,232.994 L169.466,232.994 L169.466,245 L168.116,245 Z M168.116,242.642 L168.116,238.7 C167.63,237.944 166.586,237.296 165.506,237.296 C163.76,237.296 162.716,238.736 162.716,240.662 C162.716,242.588 163.76,244.01 165.506,244.01 C166.586,244.01 167.63,243.398 168.116,242.642 Z M171.662,240.644 C171.662,238.124 173.462,236.09 175.946,236.09 C178.574,236.09 180.122,238.142 180.122,240.752 L180.122,241.094 L173.084,241.094 C173.192,242.732 174.344,244.1 176.216,244.1 C177.206,244.1 178.214,243.704 178.898,243.002 L179.546,243.884 C178.682,244.748 177.512,245.216 176.09,245.216 C173.516,245.216 171.662,243.362 171.662,240.644 Z M175.928,237.206 C174.074,237.206 173.156,238.772 173.084,240.104 L178.79,240.104 C178.772,238.808 177.908,237.206 175.928,237.206 Z" id="Print-1-inch-wide"></path>
            </g>
        </g>
    </g>
</svg>