<svg width="86" height="40" xmlns="http://www.w3.org/2000/svg"><path d="M1.188 13V.994h5.616c2.61 0 4.032 1.764 4.032 3.87 0 2.088-1.44 3.834-4.032 3.834h-3.06V13H1.188zm7.038-8.154c0-.99-.756-1.656-1.764-1.656H3.744v3.312h2.718c1.008 0 1.764-.648 1.764-1.656zM12.366 13h2.286V7.258c.378-.558 1.386-.972 2.142-.972.252 0 .468.018.63.054V4.108c-1.08 0-2.16.612-2.772 1.386V4.306h-2.286V13zm7.614-9.81a1.367 1.367 0 100-2.736c-.738 0-1.368.612-1.368 1.368 0 .756.63 1.368 1.368 1.368zM18.846 13h2.286V4.306h-2.286V13zm10.422 0h2.286V6.862c0-1.692-.918-2.772-2.826-2.772-1.422 0-2.484.684-3.042 1.35V4.306H23.4V13h2.286V7.15c.378-.522 1.08-1.026 1.98-1.026.972 0 1.602.414 1.602 1.62V13zm7.47.216c.954 0 1.566-.252 1.908-.558l-.486-1.728c-.126.126-.45.252-.792.252-.504 0-.792-.414-.792-.954V6.304h1.764V4.306h-1.764V1.93h-2.304v2.376h-1.44v1.998h1.44v4.536c0 1.548.864 2.376 2.466 2.376zM3.204 39h1.494V26.994H3.384L.378 30.09l.9.918 1.926-2.034V39zm9.558-10.098a.907.907 0 00.918-.9.922.922 0 00-.918-.918c-.486 0-.9.414-.9.918s.414.9.9.9zM12.096 39h1.35v-8.694h-1.35V39zm9.918 0h1.35v-6.102c0-1.89-.954-2.808-2.772-2.808-1.296 0-2.484.756-3.096 1.476v-1.26h-1.35V39h1.35v-6.354c.504-.702 1.512-1.35 2.574-1.35 1.17 0 1.944.486 1.944 2.016V39zm3.546-4.356c0 2.592 1.746 4.572 4.338 4.572 1.584 0 2.52-.648 3.186-1.512l-.9-.828c-.576.774-1.314 1.134-2.214 1.134-1.854 0-3.006-1.44-3.006-3.366 0-1.926 1.152-3.348 3.006-3.348.9 0 1.638.342 2.214 1.134l.9-.828c-.666-.864-1.602-1.512-3.186-1.512-2.592 0-4.338 1.98-4.338 4.554zM40.86 39h1.35v-6.138c0-1.89-.954-2.772-2.772-2.772-1.314 0-2.502.756-3.114 1.476v-4.572h-1.35V39h1.35v-6.354c.522-.702 1.53-1.35 2.574-1.35 1.17 0 1.962.45 1.962 1.98V39zm16.218 0h1.35l2.772-8.694h-1.404l-2.124 6.93-2.286-6.93h-1.152l-2.286 6.93-2.124-6.93H48.42L51.192 39h1.35l2.268-6.984L57.078 39zm6.354-10.098a.907.907 0 00.918-.9.922.922 0 00-.918-.918c-.486 0-.9.414-.9.918s.414.9.9.9zM62.766 39h1.35v-8.694h-1.35V39zm10.35 0v-1.296c-.648.882-1.71 1.512-2.934 1.512-2.268 0-3.87-1.728-3.87-4.554 0-2.772 1.584-4.572 3.87-4.572 1.17 0 2.232.576 2.934 1.53v-4.626h1.35V39h-1.35zm0-2.358V32.7c-.486-.756-1.53-1.404-2.61-1.404-1.746 0-2.79 1.44-2.79 3.366 0 1.926 1.044 3.348 2.79 3.348 1.08 0 2.124-.612 2.61-1.368zm3.546-1.998c0-2.52 1.8-4.554 4.284-4.554 2.628 0 4.176 2.052 4.176 4.662v.342h-7.038c.108 1.638 1.26 3.006 3.132 3.006.99 0 1.998-.396 2.682-1.098l.648.882c-.864.864-2.034 1.332-3.456 1.332-2.574 0-4.428-1.854-4.428-4.572zm4.266-3.438c-1.854 0-2.772 1.566-2.844 2.898h5.706c-.018-1.296-.882-2.898-2.862-2.898z" fill="#071D49" fill-rule="evenodd"/></svg>