<?xml version="1.0" encoding="UTF-8"?>
<svg width="32px" height="38px" viewBox="0 0 32 38" version="1.1" xmlns="http://www.w3.org/2000/svg" xmlns:xlink="http://www.w3.org/1999/xlink">
    <!-- Generator: Sketch 45 (43475) - http://www.bohemiancoding.com/sketch -->
    <title>Group 16</title>
    <desc>Created with Sketch.</desc>
    <defs></defs>
    <g id="Page-1" stroke="none" stroke-width="1" fill="none" fill-rule="evenodd" stroke-linejoin="round">
        <g id="6-14-5" transform="translate(-799.000000, -1328.000000)" stroke-width="1.5" stroke="#071D49">
            <g id="Product-Snapshot" transform="translate(155.000000, 1057.000000)">
                <g id="Snapshot-3" transform="translate(571.000000, 272.000000)">
                    <g id="Group-16" transform="translate(74.000000, 0.000000)">
                        <g id="brand-protection-1.5">
                            <path d="M15.0184221,0 C13.2791081,2.28541211 10.6664923,3.74801329 7.73458908,3.74801329 C5.17008501,3.74801329 2.84468195,2.67022483 0.428887043,0.855660797 L0.428887043,16.6681074 C0.390892446,31.0567807 13.5574118,34.0478409 15.0082166,35.9784247 C16.1076066,34.2527783 29.5845587,32.1491654 29.5875462,16.7572713 L29.5875462,0.946388998 C26.857391,3.12271521 24.8434323,3.74801329 22.2774703,3.74801329 C19.3470251,3.74801329 16.7329513,2.28541211 15.0184221,0 Z" id="Stroke-6609" stroke-linecap="round"></path>
                            <path d="M0.857610033,16.9677073 L29.5118747,16.9310234" id="Stroke-6610" stroke-linecap="round"></path>
                            <path d="M15.0081756,0 L15.0081756,35.0908432" id="Stroke-6611" stroke-linecap="round"></path>
                            <path d="M5.29700315,2.82183723 L5.29700315,16.9310234" id="Stroke-6613"></path>
                            <path d="M10.3291561,3.52729654 L10.3291561,16.9310234" id="Stroke-6614"></path>
                            <path d="M19.5989116,16.9310234 L19.5989116,33.0054176" id="Stroke-6616"></path>
                            <path d="M24.441886,16.9310234 L24.441886,30.2729081" id="Stroke-6618"></path>
                        </g>
                    </g>
                </g>
            </g>
        </g>
    </g>
</svg>