<svg width="32" height="38" xmlns="http://www.w3.org/2000/svg"><g stroke-width="1.5" stroke="#071D49" fill="none" fill-rule="evenodd" stroke-linejoin="round"><path d="M16.018 1c-1.739 2.285-4.352 3.748-7.283 3.748-2.565 0-4.89-1.078-7.306-2.892v15.812c-.038 14.389 13.128 17.38 14.58 19.31 1.099-1.725 14.576-3.829 14.579-19.22V1.945c-2.73 2.177-4.745 2.802-7.31 2.802-2.931 0-5.545-1.463-7.26-3.748zM1.858 17.968l28.654-.037M16.008 1v35.09" stroke-linecap="round"/><path d="M6.297 3.822V17.93M11.33 4.527v13.404m9.269 0v16.074m4.843-16.074v13.342"/></g></svg>