<?xml version="1.0" encoding="UTF-8"?>
<svg width="787px" height="101px" viewBox="0 0 787 101" version="1.1" xmlns="http://www.w3.org/2000/svg" xmlns:xlink="http://www.w3.org/1999/xlink">
    <!-- Generator: Sketch 46 (44423) - http://www.bohemiancoding.com/sketch -->
    <title>Red Swatches</title>
    <desc>Created with Sketch.</desc>
    <defs>
        <polygon id="path-1" points="0 47.3638535 68.7956651 47.3638535 68.7956651 0 0 0"></polygon>
        <polygon id="path-2" points="0 100.231041 68.7956651 100.231041 68.7956651 52.8671875 0 52.8671875"></polygon>
        <polygon id="path-3" points="73.3216957 47.3638535 142.117361 47.3638535 142.117361 0 73.3216957 0"></polygon>
        <polygon id="path-4" points="73.1692308 100.231041 141.964896 100.231041 141.964896 52.8671875 73.1692308 52.8671875"></polygon>
        <polygon id="path-5" points="146.643391 47.3638535 215.439057 47.3638535 215.439057 0 146.643391 0"></polygon>
        <polygon id="path-6" points="146.969231 100.231041 215.764896 100.231041 215.764896 52.8671875 146.969231 52.8671875"></polygon>
        <polygon id="path-7" points="219.965087 47.3638535 288.760752 47.3638535 288.760752 0 219.965087 0"></polygon>
        <polygon id="path-8" points="220.138462 100.231041 288.934127 100.231041 288.934127 52.8671875 220.138462 52.8671875"></polygon>
        <polygon id="path-9" points="293.286783 47.3638535 362.082448 47.3638535 362.082448 0 293.286783 0"></polygon>
        <polygon id="path-10" points="293.307692 100.231041 362.103357 100.231041 362.103357 52.8671875 293.307692 52.8671875"></polygon>
        <polygon id="path-11" points="366.608479 47.3638535 435.404144 47.3638535 435.404144 0 366.608479 0"></polygon>
        <polygon id="path-12" points="366.476923 100.231041 435.272588 100.231041 435.272588 52.8671875 366.476923 52.8671875"></polygon>
        <polygon id="path-13" points="439.930174 47.3638535 508.725839 47.3638535 508.725839 0 439.930174 0"></polygon>
        <polygon id="path-14" points="440.276923 100.231041 509.072588 100.231041 509.072588 52.8671875 440.276923 52.8671875"></polygon>
        <polygon id="path-15" points="513.25187 47.3638535 582.047535 47.3638535 582.047535 0 513.25187 0"></polygon>
        <polygon id="path-16" points="513.446154 100.231041 582.241819 100.231041 582.241819 52.8671875 513.446154 52.8671875"></polygon>
        <polygon id="path-17" points="586.573566 47.3638535 655.369231 47.3638535 655.369231 0 586.573566 0"></polygon>
        <polygon id="path-18" points="586.615385 100.231041 655.41105 100.231041 655.41105 52.8671875 586.615385 52.8671875"></polygon>
    </defs>
    <g id="Page-1" stroke="none" stroke-width="1" fill="none" fill-rule="evenodd">
        <g id="Artboard" transform="translate(-127.000000, -136.000000)">
            <g id="Red-Swatches" transform="translate(127.000000, 136.000000)">
                <g id="swatches" transform="translate(131.000000, 0.000000)">
                    <g id="Fill-27-Copy-23">
                        <use fill="#C8102E" xlink:href="#path-1"></use>
                        <use fill-opacity="0.1" fill="#FFFFFF" xlink:href="#path-1"></use>
                    </g>
                    <g id="Fill-27-Copy-24">
                        <use fill="#C8102E" xlink:href="#path-2"></use>
                        <use fill-opacity="0.1" fill="#000000" xlink:href="#path-2"></use>
                    </g>
                    <g id="Fill-27-Copy-27">
                        <use fill="#C8102E" xlink:href="#path-3"></use>
                        <use fill-opacity="0.2" fill="#FFFFFF" xlink:href="#path-3"></use>
                    </g>
                    <g id="Fill-27-Copy-28">
                        <use fill="#C8102E" xlink:href="#path-4"></use>
                        <use fill-opacity="0.2" fill="#000000" xlink:href="#path-4"></use>
                    </g>
                    <g id="Fill-27-Copy-29">
                        <use fill="#C8102E" xlink:href="#path-5"></use>
                        <use fill-opacity="0.3" fill="#FFFFFF" xlink:href="#path-5"></use>
                    </g>
                    <g id="Fill-27-Copy-30">
                        <use fill="#C8102E" xlink:href="#path-6"></use>
                        <use fill-opacity="0.3" fill="#000000" xlink:href="#path-6"></use>
                    </g>
                    <g id="Fill-27-Copy-31">
                        <use fill="#C8102E" xlink:href="#path-7"></use>
                        <use fill-opacity="0.4" fill="#FFFFFF" xlink:href="#path-7"></use>
                    </g>
                    <g id="Fill-27-Copy-32">
                        <use fill="#C8102E" xlink:href="#path-8"></use>
                        <use fill-opacity="0.4" fill="#000000" xlink:href="#path-8"></use>
                    </g>
                    <g id="Fill-27-Copy-33">
                        <use fill="#C8102E" xlink:href="#path-9"></use>
                        <use fill-opacity="0.5" fill="#FFFFFF" xlink:href="#path-9"></use>
                    </g>
                    <g id="Fill-27-Copy-34">
                        <use fill="#C8102E" xlink:href="#path-10"></use>
                        <use fill-opacity="0.5" fill="#000000" xlink:href="#path-10"></use>
                    </g>
                    <g id="Fill-27-Copy-35">
                        <use fill="#C8102E" xlink:href="#path-11"></use>
                        <use fill-opacity="0.6" fill="#FFFFFF" xlink:href="#path-11"></use>
                    </g>
                    <g id="Fill-27-Copy-36">
                        <use fill="#C8102E" xlink:href="#path-12"></use>
                        <use fill-opacity="0.6" fill="#000000" xlink:href="#path-12"></use>
                    </g>
                    <g id="Fill-27-Copy-37">
                        <use fill="#C8102E" xlink:href="#path-13"></use>
                        <use fill-opacity="0.7" fill="#FFFFFF" xlink:href="#path-13"></use>
                    </g>
                    <g id="Fill-27-Copy-38">
                        <use fill="#C8102E" xlink:href="#path-14"></use>
                        <use fill-opacity="0.7" fill="#000000" xlink:href="#path-14"></use>
                    </g>
                    <g id="Fill-27-Copy-39">
                        <use fill="#C8102E" xlink:href="#path-15"></use>
                        <use fill-opacity="0.8" fill="#FFFFFF" xlink:href="#path-15"></use>
                    </g>
                    <g id="Fill-27-Copy-40">
                        <use fill="#C8102E" xlink:href="#path-16"></use>
                        <use fill-opacity="0.8" fill="#000000" xlink:href="#path-16"></use>
                    </g>
                    <g id="Fill-27-Copy-41">
                        <use fill="#C8102E" xlink:href="#path-17"></use>
                        <use fill-opacity="0.9" fill="#FFFFFF" xlink:href="#path-17"></use>
                    </g>
                    <g id="Fill-27-Copy-42">
                        <use fill="#C8102E" xlink:href="#path-18"></use>
                        <use fill-opacity="0.9" fill="#000000" xlink:href="#path-18"></use>
                    </g>
                </g>
                <g id="Outlines" transform="translate(0.000000, 16.000000)">
                    <path d="M160.373439,16 L161.784439,16 L161.784439,4.661 L160.543439,4.661 L157.704439,7.585 L158.554439,8.452 L160.373439,6.531 L160.373439,16 Z M163.977439,10.339 C163.977439,7.568 165.201439,4.491 168.312439,4.491 C171.406439,4.491 172.647439,7.568 172.647439,10.339 C172.647439,13.093 171.406439,16.204 168.312439,16.204 C165.201439,16.204 163.977439,13.093 163.977439,10.339 Z M171.202439,10.339 C171.202439,8.078 170.471439,5.749 168.312439,5.749 C166.153439,5.749 165.422439,8.078 165.422439,10.339 C165.422439,12.6 166.153439,14.946 168.312439,14.946 C170.471439,14.946 171.202439,12.6 171.202439,10.339 Z" id="10" fill="#FFFFFF"></path>
                    <path d="M229.541204,16 L237.327204,16 L237.327204,14.742 L231.768204,14.742 C234.930204,12.243 237.276204,10.135 237.276204,7.823 C237.276204,5.562 235.355204,4.491 233.468204,4.491 C231.870204,4.491 230.391204,5.137 229.524204,6.276 L230.391204,7.177 C231.054204,6.327 232.108204,5.749 233.468204,5.749 C234.641204,5.749 235.831204,6.378 235.831204,7.823 C235.831204,9.778 233.621204,11.665 229.541204,14.878 L229.541204,16 Z M239.486204,10.339 C239.486204,7.568 240.710204,4.491 243.821204,4.491 C246.915204,4.491 248.156204,7.568 248.156204,10.339 C248.156204,13.093 246.915204,16.204 243.821204,16.204 C240.710204,16.204 239.486204,13.093 239.486204,10.339 Z M246.711204,10.339 C246.711204,8.078 245.980204,5.749 243.821204,5.749 C241.662204,5.749 240.931204,8.078 240.931204,10.339 C240.931204,12.6 241.662204,14.946 243.821204,14.946 C245.980204,14.946 246.711204,12.6 246.711204,10.339 Z" id="20" fill="#FFFFFF"></path>
                    <path d="M302.77197,14.334 C303.46897,15.354 304.87997,16.204 306.80097,16.204 C309.29997,16.204 310.81297,14.827 310.81297,12.94 C310.81297,11.121 309.23197,10.237 308.19497,10.152 C309.26597,9.965 310.64297,9.149 310.64297,7.517 C310.64297,5.596 308.97697,4.491 306.80097,4.491 C305.04997,4.491 303.74097,5.256 302.92497,6.242 L303.70697,7.126 C304.53997,6.225 305.45797,5.749 306.69897,5.749 C308.07597,5.749 309.23197,6.429 309.23197,7.687 C309.23197,8.996 308.02497,9.557 306.59697,9.557 C306.13797,9.557 305.61097,9.557 305.42397,9.54 L305.42397,10.832 C305.59397,10.815 306.12097,10.815 306.59697,10.815 C308.26297,10.815 309.41897,11.41 309.41897,12.821 C309.41897,14.13 308.41597,14.946 306.76697,14.946 C305.42397,14.946 304.26797,14.334 303.60497,13.45 L302.77197,14.334 Z M312.61497,10.339 C312.61497,7.568 313.83897,4.491 316.94997,4.491 C320.04397,4.491 321.28497,7.568 321.28497,10.339 C321.28497,13.093 320.04397,16.204 316.94997,16.204 C313.83897,16.204 312.61497,13.093 312.61497,10.339 Z M319.83997,10.339 C319.83997,8.078 319.10897,5.749 316.94997,5.749 C314.79097,5.749 314.05997,8.078 314.05997,10.339 C314.05997,12.6 314.79097,14.946 316.94997,14.946 C319.10897,14.946 319.83997,12.6 319.83997,10.339 Z" id="30" fill="#FFFFFF"></path>
                    <path d="M381.595735,16 L381.595735,13.127 L376.206735,13.127 L376.206735,11.954 L381.068735,4.661 L383.006735,4.661 L383.006735,11.886 L384.604735,11.886 L384.604735,13.127 L383.006735,13.127 L383.006735,16 L381.595735,16 Z M381.595735,5.97 L377.617735,11.886 L381.595735,11.886 L381.595735,5.97 Z M386.015735,10.339 C386.015735,7.568 387.239735,4.491 390.350735,4.491 C393.444735,4.491 394.685735,7.568 394.685735,10.339 C394.685735,13.093 393.444735,16.204 390.350735,16.204 C387.239735,16.204 386.015735,13.093 386.015735,10.339 Z M393.240735,10.339 C393.240735,8.078 392.509735,5.749 390.350735,5.749 C388.191735,5.749 387.460735,8.078 387.460735,10.339 C387.460735,12.6 388.191735,14.946 390.350735,14.946 C392.509735,14.946 393.240735,12.6 393.240735,10.339 Z" id="40" fill="#FFFFFF"></path>
                    <path d="M449.905,14.385 C450.755,15.507 451.979,16.204 453.9,16.204 C456.178,16.204 457.929,14.776 457.929,12.464 C457.929,10.135 456.212,8.843 454.325,8.843 C453.186,8.843 452.217,9.319 451.673,9.863 L451.673,5.919 L457.198,5.919 L457.198,4.661 L450.262,4.661 L450.262,10.781 L451.299,11.138 C452.064,10.39 452.914,10.067 453.917,10.067 C455.447,10.067 456.518,11.019 456.518,12.515 C456.518,13.892 455.447,14.946 453.9,14.946 C452.506,14.946 451.52,14.402 450.772,13.45 L449.905,14.385 Z M459.68,10.339 C459.68,7.568 460.904,4.491 464.015,4.491 C467.109,4.491 468.35,7.568 468.35,10.339 C468.35,13.093 467.109,16.204 464.015,16.204 C460.904,16.204 459.68,13.093 459.68,10.339 Z M466.905,10.339 C466.905,8.078 466.174,5.749 464.015,5.749 C461.856,5.749 461.125,8.078 461.125,10.339 C461.125,12.6 461.856,14.946 464.015,14.946 C466.174,14.946 466.905,12.6 466.905,10.339 Z" id="50" fill="#FFFFFF"></path>
                    <path d="M523.033765,10.356 C523.033765,7.279 524.461765,4.491 527.640765,4.491 C529.102765,4.491 530.088765,5.052 530.785765,5.851 L530.071765,6.905 C529.493765,6.225 528.830765,5.749 527.640765,5.749 C525.447765,5.749 524.444765,7.976 524.444765,10.203 C524.444765,10.356 524.444765,10.492 524.461765,10.645 C524.954765,9.863 526.212765,8.877 527.674765,8.877 C529.714765,8.877 531.380765,10.084 531.380765,12.498 C531.380765,14.47 529.884765,16.204 527.402765,16.204 C524.240765,16.204 523.033765,13.433 523.033765,10.356 Z M529.952765,12.549 C529.952765,10.883 528.796765,10.101 527.334765,10.101 C526.212765,10.101 525.124765,10.798 524.495765,11.801 C524.631765,13.212 525.379765,14.946 527.351765,14.946 C529.102765,14.946 529.952765,13.637 529.952765,12.549 Z M533.080765,10.339 C533.080765,7.568 534.304765,4.491 537.415765,4.491 C540.509765,4.491 541.750765,7.568 541.750765,10.339 C541.750765,13.093 540.509765,16.204 537.415765,16.204 C534.304765,16.204 533.080765,13.093 533.080765,10.339 Z M540.305765,10.339 C540.305765,8.078 539.574765,5.749 537.415765,5.749 C535.256765,5.749 534.525765,8.078 534.525765,10.339 C534.525765,12.6 535.256765,14.946 537.415765,14.946 C539.574765,14.946 540.305765,12.6 540.305765,10.339 Z" id="60" fill="#04112B"></path>
                    <path d="M598.26203,16 L599.82603,16 L604.46703,5.63 L604.46703,4.661 L596.73203,4.661 L596.73203,5.919 L602.83503,5.919 L598.26203,16 Z M605.82703,10.339 C605.82703,7.568 607.05103,4.491 610.16203,4.491 C613.25603,4.491 614.49703,7.568 614.49703,10.339 C614.49703,13.093 613.25603,16.204 610.16203,16.204 C607.05103,16.204 605.82703,13.093 605.82703,10.339 Z M613.05203,10.339 C613.05203,8.078 612.32103,5.749 610.16203,5.749 C608.00303,5.749 607.27203,8.078 607.27203,10.339 C607.27203,12.6 608.00303,14.946 610.16203,14.946 C612.32103,14.946 613.05203,12.6 613.05203,10.339 Z" id="70" fill="#04112B"></path>
                    <path d="M669.920296,13.127 C669.920296,11.614 671.212296,10.577 672.623296,10.152 C671.314296,9.778 670.107296,8.928 670.107296,7.432 C670.107296,5.392 672.096296,4.491 673.983296,4.491 C675.853296,4.491 677.876296,5.392 677.876296,7.432 C677.876296,8.928 676.652296,9.778 675.343296,10.152 C676.754296,10.577 678.046296,11.614 678.046296,13.127 C678.046296,15.048 676.210296,16.204 673.983296,16.204 C671.739296,16.204 669.920296,15.065 669.920296,13.127 Z M676.448296,7.619 C676.448296,6.446 675.343296,5.749 673.983296,5.749 C672.606296,5.749 671.518296,6.446 671.518296,7.619 C671.518296,8.996 673.303296,9.455 673.983296,9.574 C674.680296,9.455 676.448296,8.996 676.448296,7.619 Z M676.618296,12.974 C676.618296,11.495 674.680296,10.866 673.983296,10.781 C673.286296,10.866 671.331296,11.495 671.331296,12.974 C671.331296,14.198 672.572296,14.946 673.983296,14.946 C675.377296,14.946 676.618296,14.198 676.618296,12.974 Z M679.780296,10.339 C679.780296,7.568 681.004296,4.491 684.115296,4.491 C687.209296,4.491 688.450296,7.568 688.450296,10.339 C688.450296,13.093 687.209296,16.204 684.115296,16.204 C681.004296,16.204 679.780296,13.093 679.780296,10.339 Z M687.005296,10.339 C687.005296,8.078 686.274296,5.749 684.115296,5.749 C681.956296,5.749 681.225296,8.078 681.225296,10.339 C681.225296,12.6 681.956296,14.946 684.115296,14.946 C686.274296,14.946 687.005296,12.6 687.005296,10.339 Z" id="80" fill="#04112B"></path>
                    <path d="M743.771561,14.827 L744.485561,13.773 C745.063561,14.453 745.743561,14.929 746.916561,14.929 C749.211561,14.929 750.112561,12.634 750.112561,10.492 C750.112561,10.339 750.112561,10.186 750.095561,10.033 C749.602561,10.815 748.344561,11.801 746.899561,11.801 C744.859561,11.801 743.176561,10.594 743.176561,8.18 C743.176561,6.225 744.672561,4.474 747.137561,4.474 C750.316561,4.474 751.523561,7.245 751.523561,10.339 C751.523561,13.399 750.095561,16.187 746.916561,16.187 C745.471561,16.187 744.485561,15.643 743.771561,14.827 Z M750.044561,8.894 C749.925561,7.483 749.177561,5.732 747.205561,5.732 C745.471561,5.732 744.604561,7.058 744.604561,8.129 C744.604561,9.795 745.760561,10.577 747.222561,10.577 C748.344561,10.577 749.449561,9.897 750.044561,8.894 Z M753.257561,10.339 C753.257561,7.568 754.481561,4.491 757.592561,4.491 C760.686561,4.491 761.927561,7.568 761.927561,10.339 C761.927561,13.093 760.686561,16.204 757.592561,16.204 C754.481561,16.204 753.257561,13.093 753.257561,10.339 Z M760.482561,10.339 C760.482561,8.078 759.751561,5.749 757.592561,5.749 C755.433561,5.749 754.702561,8.078 754.702561,10.339 C754.702561,12.6 755.433561,14.946 757.592561,14.946 C759.751561,14.946 760.482561,12.6 760.482561,10.339 Z" id="90" fill="#04112B" opacity="0.899999976"></path>
                    <path d="M160.373439,66 L161.784439,66 L161.784439,54.661 L160.543439,54.661 L157.704439,57.585 L158.554439,58.452 L160.373439,56.531 L160.373439,66 Z M163.977439,60.339 C163.977439,57.568 165.201439,54.491 168.312439,54.491 C171.406439,54.491 172.647439,57.568 172.647439,60.339 C172.647439,63.093 171.406439,66.204 168.312439,66.204 C165.201439,66.204 163.977439,63.093 163.977439,60.339 Z M171.202439,60.339 C171.202439,58.078 170.471439,55.749 168.312439,55.749 C166.153439,55.749 165.422439,58.078 165.422439,60.339 C165.422439,62.6 166.153439,64.946 168.312439,64.946 C170.471439,64.946 171.202439,62.6 171.202439,60.339 Z" id="10" fill="#FFFFFF"></path>
                    <path d="M229.541204,66 L237.327204,66 L237.327204,64.742 L231.768204,64.742 C234.930204,62.243 237.276204,60.135 237.276204,57.823 C237.276204,55.562 235.355204,54.491 233.468204,54.491 C231.870204,54.491 230.391204,55.137 229.524204,56.276 L230.391204,57.177 C231.054204,56.327 232.108204,55.749 233.468204,55.749 C234.641204,55.749 235.831204,56.378 235.831204,57.823 C235.831204,59.778 233.621204,61.665 229.541204,64.878 L229.541204,66 Z M239.486204,60.339 C239.486204,57.568 240.710204,54.491 243.821204,54.491 C246.915204,54.491 248.156204,57.568 248.156204,60.339 C248.156204,63.093 246.915204,66.204 243.821204,66.204 C240.710204,66.204 239.486204,63.093 239.486204,60.339 Z M246.711204,60.339 C246.711204,58.078 245.980204,55.749 243.821204,55.749 C241.662204,55.749 240.931204,58.078 240.931204,60.339 C240.931204,62.6 241.662204,64.946 243.821204,64.946 C245.980204,64.946 246.711204,62.6 246.711204,60.339 Z" id="20" fill="#FFFFFF"></path>
                    <path d="M302.77197,64.334 C303.46897,65.354 304.87997,66.204 306.80097,66.204 C309.29997,66.204 310.81297,64.827 310.81297,62.94 C310.81297,61.121 309.23197,60.237 308.19497,60.152 C309.26597,59.965 310.64297,59.149 310.64297,57.517 C310.64297,55.596 308.97697,54.491 306.80097,54.491 C305.04997,54.491 303.74097,55.256 302.92497,56.242 L303.70697,57.126 C304.53997,56.225 305.45797,55.749 306.69897,55.749 C308.07597,55.749 309.23197,56.429 309.23197,57.687 C309.23197,58.996 308.02497,59.557 306.59697,59.557 C306.13797,59.557 305.61097,59.557 305.42397,59.54 L305.42397,60.832 C305.59397,60.815 306.12097,60.815 306.59697,60.815 C308.26297,60.815 309.41897,61.41 309.41897,62.821 C309.41897,64.13 308.41597,64.946 306.76697,64.946 C305.42397,64.946 304.26797,64.334 303.60497,63.45 L302.77197,64.334 Z M312.61497,60.339 C312.61497,57.568 313.83897,54.491 316.94997,54.491 C320.04397,54.491 321.28497,57.568 321.28497,60.339 C321.28497,63.093 320.04397,66.204 316.94997,66.204 C313.83897,66.204 312.61497,63.093 312.61497,60.339 Z M319.83997,60.339 C319.83997,58.078 319.10897,55.749 316.94997,55.749 C314.79097,55.749 314.05997,58.078 314.05997,60.339 C314.05997,62.6 314.79097,64.946 316.94997,64.946 C319.10897,64.946 319.83997,62.6 319.83997,60.339 Z" id="30" fill="#FFFFFF"></path>
                    <path d="M381.595735,66 L381.595735,63.127 L376.206735,63.127 L376.206735,61.954 L381.068735,54.661 L383.006735,54.661 L383.006735,61.886 L384.604735,61.886 L384.604735,63.127 L383.006735,63.127 L383.006735,66 L381.595735,66 Z M381.595735,55.97 L377.617735,61.886 L381.595735,61.886 L381.595735,55.97 Z M386.015735,60.339 C386.015735,57.568 387.239735,54.491 390.350735,54.491 C393.444735,54.491 394.685735,57.568 394.685735,60.339 C394.685735,63.093 393.444735,66.204 390.350735,66.204 C387.239735,66.204 386.015735,63.093 386.015735,60.339 Z M393.240735,60.339 C393.240735,58.078 392.509735,55.749 390.350735,55.749 C388.191735,55.749 387.460735,58.078 387.460735,60.339 C387.460735,62.6 388.191735,64.946 390.350735,64.946 C392.509735,64.946 393.240735,62.6 393.240735,60.339 Z" id="40" fill="#FFFFFF"></path>
                    <path d="M449.905,64.385 C450.755,65.507 451.979,66.204 453.9,66.204 C456.178,66.204 457.929,64.776 457.929,62.464 C457.929,60.135 456.212,58.843 454.325,58.843 C453.186,58.843 452.217,59.319 451.673,59.863 L451.673,55.919 L457.198,55.919 L457.198,54.661 L450.262,54.661 L450.262,60.781 L451.299,61.138 C452.064,60.39 452.914,60.067 453.917,60.067 C455.447,60.067 456.518,61.019 456.518,62.515 C456.518,63.892 455.447,64.946 453.9,64.946 C452.506,64.946 451.52,64.402 450.772,63.45 L449.905,64.385 Z M459.68,60.339 C459.68,57.568 460.904,54.491 464.015,54.491 C467.109,54.491 468.35,57.568 468.35,60.339 C468.35,63.093 467.109,66.204 464.015,66.204 C460.904,66.204 459.68,63.093 459.68,60.339 Z M466.905,60.339 C466.905,58.078 466.174,55.749 464.015,55.749 C461.856,55.749 461.125,58.078 461.125,60.339 C461.125,62.6 461.856,64.946 464.015,64.946 C466.174,64.946 466.905,62.6 466.905,60.339 Z" id="50" fill="#FFFFFF"></path>
                    <path d="M523.033765,60.356 C523.033765,57.279 524.461765,54.491 527.640765,54.491 C529.102765,54.491 530.088765,55.052 530.785765,55.851 L530.071765,56.905 C529.493765,56.225 528.830765,55.749 527.640765,55.749 C525.447765,55.749 524.444765,57.976 524.444765,60.203 C524.444765,60.356 524.444765,60.492 524.461765,60.645 C524.954765,59.863 526.212765,58.877 527.674765,58.877 C529.714765,58.877 531.380765,60.084 531.380765,62.498 C531.380765,64.47 529.884765,66.204 527.402765,66.204 C524.240765,66.204 523.033765,63.433 523.033765,60.356 Z M529.952765,62.549 C529.952765,60.883 528.796765,60.101 527.334765,60.101 C526.212765,60.101 525.124765,60.798 524.495765,61.801 C524.631765,63.212 525.379765,64.946 527.351765,64.946 C529.102765,64.946 529.952765,63.637 529.952765,62.549 Z M533.080765,60.339 C533.080765,57.568 534.304765,54.491 537.415765,54.491 C540.509765,54.491 541.750765,57.568 541.750765,60.339 C541.750765,63.093 540.509765,66.204 537.415765,66.204 C534.304765,66.204 533.080765,63.093 533.080765,60.339 Z M540.305765,60.339 C540.305765,58.078 539.574765,55.749 537.415765,55.749 C535.256765,55.749 534.525765,58.078 534.525765,60.339 C534.525765,62.6 535.256765,64.946 537.415765,64.946 C539.574765,64.946 540.305765,62.6 540.305765,60.339 Z" id="60" fill="#FFFFFF"></path>
                    <path d="M598.26203,66 L599.82603,66 L604.46703,55.63 L604.46703,54.661 L596.73203,54.661 L596.73203,55.919 L602.83503,55.919 L598.26203,66 Z M605.82703,60.339 C605.82703,57.568 607.05103,54.491 610.16203,54.491 C613.25603,54.491 614.49703,57.568 614.49703,60.339 C614.49703,63.093 613.25603,66.204 610.16203,66.204 C607.05103,66.204 605.82703,63.093 605.82703,60.339 Z M613.05203,60.339 C613.05203,58.078 612.32103,55.749 610.16203,55.749 C608.00303,55.749 607.27203,58.078 607.27203,60.339 C607.27203,62.6 608.00303,64.946 610.16203,64.946 C612.32103,64.946 613.05203,62.6 613.05203,60.339 Z" id="70" fill="#FFFFFF"></path>
                    <path d="M669.920296,63.127 C669.920296,61.614 671.212296,60.577 672.623296,60.152 C671.314296,59.778 670.107296,58.928 670.107296,57.432 C670.107296,55.392 672.096296,54.491 673.983296,54.491 C675.853296,54.491 677.876296,55.392 677.876296,57.432 C677.876296,58.928 676.652296,59.778 675.343296,60.152 C676.754296,60.577 678.046296,61.614 678.046296,63.127 C678.046296,65.048 676.210296,66.204 673.983296,66.204 C671.739296,66.204 669.920296,65.065 669.920296,63.127 Z M676.448296,57.619 C676.448296,56.446 675.343296,55.749 673.983296,55.749 C672.606296,55.749 671.518296,56.446 671.518296,57.619 C671.518296,58.996 673.303296,59.455 673.983296,59.574 C674.680296,59.455 676.448296,58.996 676.448296,57.619 Z M676.618296,62.974 C676.618296,61.495 674.680296,60.866 673.983296,60.781 C673.286296,60.866 671.331296,61.495 671.331296,62.974 C671.331296,64.198 672.572296,64.946 673.983296,64.946 C675.377296,64.946 676.618296,64.198 676.618296,62.974 Z M679.780296,60.339 C679.780296,57.568 681.004296,54.491 684.115296,54.491 C687.209296,54.491 688.450296,57.568 688.450296,60.339 C688.450296,63.093 687.209296,66.204 684.115296,66.204 C681.004296,66.204 679.780296,63.093 679.780296,60.339 Z M687.005296,60.339 C687.005296,58.078 686.274296,55.749 684.115296,55.749 C681.956296,55.749 681.225296,58.078 681.225296,60.339 C681.225296,62.6 681.956296,64.946 684.115296,64.946 C686.274296,64.946 687.005296,62.6 687.005296,60.339 Z" id="80" fill="#FFFFFF"></path>
                    <path d="M743.771561,64.827 L744.485561,63.773 C745.063561,64.453 745.743561,64.929 746.916561,64.929 C749.211561,64.929 750.112561,62.634 750.112561,60.492 C750.112561,60.339 750.112561,60.186 750.095561,60.033 C749.602561,60.815 748.344561,61.801 746.899561,61.801 C744.859561,61.801 743.176561,60.594 743.176561,58.18 C743.176561,56.225 744.672561,54.474 747.137561,54.474 C750.316561,54.474 751.523561,57.245 751.523561,60.339 C751.523561,63.399 750.095561,66.187 746.916561,66.187 C745.471561,66.187 744.485561,65.643 743.771561,64.827 Z M750.044561,58.894 C749.925561,57.483 749.177561,55.732 747.205561,55.732 C745.471561,55.732 744.604561,57.058 744.604561,58.129 C744.604561,59.795 745.760561,60.577 747.222561,60.577 C748.344561,60.577 749.449561,59.897 750.044561,58.894 Z M753.257561,60.339 C753.257561,57.568 754.481561,54.491 757.592561,54.491 C760.686561,54.491 761.927561,57.568 761.927561,60.339 C761.927561,63.093 760.686561,66.204 757.592561,66.204 C754.481561,66.204 753.257561,63.093 753.257561,60.339 Z M760.482561,60.339 C760.482561,58.078 759.751561,55.749 757.592561,55.749 C755.433561,55.749 754.702561,58.078 754.702561,60.339 C754.702561,62.6 755.433561,64.946 757.592561,64.946 C759.751561,64.946 760.482561,62.6 760.482561,60.339 Z" id="90" fill="#FFFFFF" opacity="0.899999976"></path>
                    <path d="M3.204,19 L4.698,19 L4.698,6.994 L3.384,6.994 L0.378,10.09 L1.278,11.008 L3.204,8.974 L3.204,19 Z M7.02,13.006 C7.02,10.072 8.316,6.814 11.61,6.814 C14.886,6.814 16.2,10.072 16.2,13.006 C16.2,15.922 14.886,19.216 11.61,19.216 C8.316,19.216 7.02,15.922 7.02,13.006 Z M14.67,13.006 C14.67,10.612 13.896,8.146 11.61,8.146 C9.324,8.146 8.55,10.612 8.55,13.006 C8.55,15.4 9.324,17.884 11.61,17.884 C13.896,17.884 14.67,15.4 14.67,13.006 Z M17.676,9.802 C17.676,8.11 18.846,6.814 20.556,6.814 C22.284,6.814 23.472,8.11 23.472,9.802 C23.472,11.476 22.284,12.736 20.556,12.736 C18.846,12.736 17.676,11.476 17.676,9.802 Z M19.422,19 L27.09,6.994 L28.08,6.994 L20.394,19 L19.422,19 Z M22.392,9.802 C22.392,8.614 21.636,7.732 20.556,7.732 C19.494,7.732 18.756,8.614 18.756,9.802 C18.756,10.936 19.494,11.836 20.556,11.836 C21.636,11.836 22.392,10.936 22.392,9.802 Z M23.94,16.282 C23.94,14.59 25.11,13.294 26.82,13.294 C28.53,13.294 29.718,14.59 29.718,16.282 C29.718,17.956 28.53,19.216 26.82,19.216 C25.11,19.216 23.94,17.956 23.94,16.282 Z M28.656,16.282 C28.656,15.094 27.9,14.212 26.82,14.212 C25.74,14.212 25.002,15.094 25.002,16.282 C25.002,17.416 25.74,18.316 26.82,18.316 C27.9,18.316 28.656,17.416 28.656,16.282 Z M39.294,19 L40.788,19 L40.788,8.326 L44.604,8.326 L44.604,6.994 L35.496,6.994 L35.496,8.326 L39.294,8.326 L39.294,19 Z M47.196,8.902 C47.7,8.902 48.114,8.506 48.114,8.002 C48.114,7.498 47.7,7.084 47.196,7.084 C46.71,7.084 46.296,7.498 46.296,8.002 C46.296,8.506 46.71,8.902 47.196,8.902 Z M46.53,19 L47.88,19 L47.88,10.306 L46.53,10.306 L46.53,19 Z M56.448,19 L57.798,19 L57.798,12.898 C57.798,11.008 56.844,10.09 55.026,10.09 C53.73,10.09 52.542,10.846 51.93,11.566 L51.93,10.306 L50.58,10.306 L50.58,19 L51.93,19 L51.93,12.646 C52.434,11.944 53.442,11.296 54.504,11.296 C55.674,11.296 56.448,11.782 56.448,13.312 L56.448,19 Z M62.694,19.216 C63.486,19.216 63.972,18.982 64.314,18.658 L63.918,17.65 C63.738,17.848 63.378,18.01 63,18.01 C62.406,18.01 62.118,17.542 62.118,16.894 L62.118,11.494 L63.882,11.494 L63.882,10.306 L62.118,10.306 L62.118,7.93 L60.768,7.93 L60.768,10.306 L59.328,10.306 L59.328,11.494 L60.768,11.494 L60.768,17.182 C60.768,18.478 61.416,19.216 62.694,19.216 Z" id="10%-Tint" fill="#071D49"></path>
                    <path d="M3.204,66 L4.698,66 L4.698,53.994 L3.384,53.994 L0.378,57.09 L1.278,58.008 L3.204,55.974 L3.204,66 Z M7.02,60.006 C7.02,57.072 8.316,53.814 11.61,53.814 C14.886,53.814 16.2,57.072 16.2,60.006 C16.2,62.922 14.886,66.216 11.61,66.216 C8.316,66.216 7.02,62.922 7.02,60.006 Z M14.67,60.006 C14.67,57.612 13.896,55.146 11.61,55.146 C9.324,55.146 8.55,57.612 8.55,60.006 C8.55,62.4 9.324,64.884 11.61,64.884 C13.896,64.884 14.67,62.4 14.67,60.006 Z M17.676,56.802 C17.676,55.11 18.846,53.814 20.556,53.814 C22.284,53.814 23.472,55.11 23.472,56.802 C23.472,58.476 22.284,59.736 20.556,59.736 C18.846,59.736 17.676,58.476 17.676,56.802 Z M19.422,66 L27.09,53.994 L28.08,53.994 L20.394,66 L19.422,66 Z M22.392,56.802 C22.392,55.614 21.636,54.732 20.556,54.732 C19.494,54.732 18.756,55.614 18.756,56.802 C18.756,57.936 19.494,58.836 20.556,58.836 C21.636,58.836 22.392,57.936 22.392,56.802 Z M23.94,63.282 C23.94,61.59 25.11,60.294 26.82,60.294 C28.53,60.294 29.718,61.59 29.718,63.282 C29.718,64.956 28.53,66.216 26.82,66.216 C25.11,66.216 23.94,64.956 23.94,63.282 Z M28.656,63.282 C28.656,62.094 27.9,61.212 26.82,61.212 C25.74,61.212 25.002,62.094 25.002,63.282 C25.002,64.416 25.74,65.316 26.82,65.316 C27.9,65.316 28.656,64.416 28.656,63.282 Z M35.604,64.308 C36.594,65.424 38.124,66.216 40.212,66.216 C43.452,66.216 44.64,64.434 44.64,62.688 C44.64,60.168 42.408,59.556 40.446,59.034 C38.916,58.62 37.53,58.26 37.53,57.054 C37.53,55.92 38.556,55.146 39.996,55.146 C41.31,55.146 42.57,55.596 43.47,56.586 L44.37,55.488 C43.362,54.426 41.94,53.814 40.104,53.814 C37.746,53.814 35.982,55.164 35.982,57.144 C35.982,59.502 38.124,60.042 40.05,60.546 C41.634,60.978 43.092,61.374 43.092,62.814 C43.092,63.732 42.408,64.884 40.266,64.884 C38.574,64.884 37.278,64.056 36.486,63.174 L35.604,64.308 Z M52.704,66 L54.054,66 L54.054,59.862 C54.054,57.972 53.1,57.09 51.282,57.09 C49.968,57.09 48.78,57.846 48.168,58.566 L48.168,53.994 L46.818,53.994 L46.818,66 L48.168,66 L48.168,59.646 C48.69,58.944 49.698,58.296 50.742,58.296 C51.912,58.296 52.704,58.746 52.704,60.276 L52.704,66 Z M62.19,66 L62.19,65.01 C61.47,65.802 60.48,66.216 59.31,66.216 C57.834,66.216 56.268,65.226 56.268,63.336 C56.268,61.392 57.834,60.474 59.31,60.474 C60.498,60.474 61.488,60.852 62.19,61.662 L62.19,60.096 C62.19,58.926 61.254,58.26 59.994,58.26 C58.95,58.26 58.104,58.638 57.33,59.466 L56.7,58.53 C57.636,57.558 58.752,57.09 60.174,57.09 C62.01,57.09 63.54,57.918 63.54,60.024 L63.54,66 L62.19,66 Z M62.19,64.164 L62.19,62.526 C61.668,61.806 60.75,61.446 59.796,61.446 C58.536,61.446 57.654,62.238 57.654,63.354 C57.654,64.452 58.536,65.244 59.796,65.244 C60.75,65.244 61.668,64.884 62.19,64.164 Z M72.54,66 L72.54,64.704 C71.892,65.586 70.83,66.216 69.606,66.216 C67.338,66.216 65.736,64.488 65.736,61.662 C65.736,58.89 67.32,57.09 69.606,57.09 C70.776,57.09 71.838,57.666 72.54,58.62 L72.54,53.994 L73.89,53.994 L73.89,66 L72.54,66 Z M72.54,63.642 L72.54,59.7 C72.054,58.944 71.01,58.296 69.93,58.296 C68.184,58.296 67.14,59.736 67.14,61.662 C67.14,63.588 68.184,65.01 69.93,65.01 C71.01,65.01 72.054,64.398 72.54,63.642 Z M76.086,61.644 C76.086,59.124 77.886,57.09 80.37,57.09 C82.998,57.09 84.546,59.142 84.546,61.752 L84.546,62.094 L77.508,62.094 C77.616,63.732 78.768,65.1 80.64,65.1 C81.63,65.1 82.638,64.704 83.322,64.002 L83.97,64.884 C83.106,65.748 81.936,66.216 80.514,66.216 C77.94,66.216 76.086,64.362 76.086,61.644 Z M80.352,58.206 C78.498,58.206 77.58,59.772 77.508,61.104 L83.214,61.104 C83.196,59.808 82.332,58.206 80.352,58.206 Z" id="10%-Shade" fill="#071D49"></path>
                </g>
                <polygon id="arrow_forward---material" fill="#071D49" points="110.68 24 117.36 30.68 110.68 37.36 109.5 36.18 114.16 31.5 104 31.5 104 29.86 114.16 29.86 109.5 25.18"></polygon>
                <polygon id="arrow_forward---material-copy" fill="#071D49" points="110.68 71 117.36 77.68 110.68 84.36 109.5 83.18 114.16 78.5 104 78.5 104 76.86 114.16 76.86 109.5 72.18"></polygon>
            </g>
        </g>
    </g>
</svg>