<?xml version="1.0" encoding="UTF-8"?>
<svg width="429px" height="213px" viewBox="0 0 429 213" version="1.1" xmlns="http://www.w3.org/2000/svg" xmlns:xlink="http://www.w3.org/1999/xlink">
    <!-- Generator: Sketch 46.2 (44496) - http://www.bohemiancoding.com/sketch -->
    <title>RepeatingLogos_Do</title>
    <desc>Created with Sketch.</desc>
    <defs>
        <polygon id="path-1" points="4.52648348 4.63157895 0.305822609 4.63157895 0.305822609 0.373684211 4.52648348 0.373684211"></polygon>
        <polygon id="path-3" points="0.328927084 0.349894737 7.31434753 0.349894737 7.31434753 7.40317706 0.328927084 7.40317706"></polygon>
        <polygon id="path-5" points="3.81922043 3.85964912 0.258037826 3.85964912 0.258037826 0.311403509 3.81922043 0.311403509"></polygon>
        <polygon id="path-7" points="0.277532227 0.291578947 6.17148073 0.291578947 6.17148073 6.16931422 0.277532227 6.16931422"></polygon>
    </defs>
    <g id="Page-1" stroke="none" stroke-width="1" fill="none" fill-rule="evenodd">
        <g id="Logo-2" transform="translate(-254.000000, -3800.000000)">
            <g id="RepeatingLogos_Do" transform="translate(254.000000, 3800.000000)">
                <g id="Group-3">
                    <g id="Full-Color-Logo" transform="translate(18.000000, 18.000000)">
                        <g>
                            <polygon id="Fill-1" fill="#C7212E" points="9.14487652 9.29069474 5.99983304 14.4250105 2.85520696 9.29069474 -0.000166956522 9.29069474 -0.000166956522 21.3963789 2.60685913 21.3963789 2.60685913 13.5483789 5.9585113 18.6831158 5.99983304 18.6831158 9.39322435 13.5066947 9.39322435 21.3963789 11.999833 21.3963789 11.999833 9.29069474"></polygon>
                            <path d="M21.1448348,9.20732632 L18.703513,9.20732632 L13.5725217,21.3959579 L16.2621913,21.3959579 L17.3791304,18.6826947 L22.4688,18.6826947 L23.5448348,21.3959579 L26.3171478,21.3959579 L21.1448348,9.20732632 Z M18.2894609,16.3450105 L19.8621913,12.4216421 L21.4758261,16.3450105 L18.2894609,16.3450105 Z" id="Fill-2" fill="#C7212E"></path>
                            <polygon id="Fill-3" fill="#C7212E" points="31.531033 15.2599579 27.5173983 9.29069474 30.5793809 9.29069474 33.1033461 13.2144842 35.6277287 9.29069474 38.6483896 9.29069474 34.6343374 15.2182737 38.8136765 21.3959579 35.7516939 21.3959579 33.0620243 17.2637474 30.331033 21.3959579 27.3516939 21.3959579"></polygon>
                            <g id="Group-15" transform="translate(41.739130, 8.913305)">
                                <path d="M19.8332661,6.43010526 C19.8332661,8.35010526 18.3022748,9.89494737 16.3989704,9.89494737 C14.4952487,9.89494737 12.9642574,8.35010526 12.9642574,6.43010526 C12.9642574,4.51010526 14.4952487,2.96568421 16.3989704,2.96568421 C18.3022748,2.96568421 19.8332661,4.51010526 19.8332661,6.43010526" id="Fill-4" fill="#C4C7C7"></path>
                                <path d="M17.7229357,9.39381053 L17.9299617,9.35212632 C18.1778922,9.22665263 18.42624,9.01823158 18.6332661,8.80938947 L18.7572313,8.68433684 L20.2469009,10.3954947 L20.1229357,10.4792842 C19.8745878,10.7293895 19.5849183,10.9382316 19.253927,11.1470737 L19.1299617,11.2304421 L17.8469009,9.56096842 L17.7229357,9.39381053 Z" id="Fill-6" fill="#C4C7C7"></path>
                                <g id="Group-10" transform="translate(18.782609, 10.105263)">
                                    <mask id="mask-2" fill="white">
                                        <use xlink:href="#path-1"></use>
                                    </mask>
                                    <g id="Clip-9"></g>
                                    <path d="M3.90582261,1.16694737 C3.49218783,0.665894737 2.87152696,0.373684211 2.25086609,0.373684211 L2.20912696,0.373684211 L2.16780522,0.415789474 C1.67152696,1.04189474 1.09218783,1.50084211 0.388466087,1.83473684 L0.347144348,1.87642105 L0.347144348,1.91810526 C0.305822609,2.04357895 0.305822609,2.21073684 0.305822609,2.37747368 C0.305822609,2.87852632 0.471109565,3.42126316 0.84384,3.83852632 C1.29879652,4.38126316 1.91945739,4.63178947 2.54053565,4.63178947 C2.99549217,4.63178947 3.45086609,4.46463158 3.82317913,4.17242105 C4.27813565,3.79684211 4.52648348,3.21242105 4.52648348,2.628 C4.40251826,2.08526316 4.23681391,1.58421053 3.90582261,1.16694737" id="Fill-8" fill="#C4C7C7" mask="url(#mask-2)"></path>
                                </g>
                                <path d="M18.8814887,8.80943158 L16.6885148,6.30501053 C16.5641322,6.17953684 16.3988452,6.13785263 16.2331409,6.13785263 C16.1091757,6.13785263 15.984793,6.13785263 15.8608278,6.26332632 C15.7781843,6.34669474 15.6951235,6.47174737 15.6951235,6.59722105 C15.6951235,6.68058947 15.7368626,6.80564211 15.8195061,6.88943158 L17.847193,9.51890526 C18.2608278,9.35216842 18.5918191,9.10164211 18.8814887,8.80943158" id="Fill-11" fill="#9EA1A1"></path>
                                <path d="M8.53673739,2.54808421 C8.3297113,2.08871579 7.99872,1.71313684 7.62640696,1.37924211 C7.21277217,1.04534737 6.75739826,0.836505263 6.21938087,0.669768421 C5.68136348,0.502610526 5.06070261,0.419242105 4.39872,0.419242105 L0.054093913,0.419242105 L0.054093913,12.5245053 L0.964424348,12.5245053 L0.964424348,7.97461053 L4.19169391,7.97461053 C4.81277217,7.97461053 5.43343304,7.89124211 5.97103304,7.72408421 C6.55037217,7.55734737 7.04706783,7.30682105 7.46070261,7.01461053 C7.87475478,6.68071579 8.24706783,6.30471579 8.49541565,5.80408421 C8.74376348,5.30303158 8.8677287,4.76029474 8.8677287,4.13418947 L8.8677287,4.09250526 C8.8677287,3.50808421 8.78508522,2.96534737 8.53673739,2.54808421 M7.99872,4.17587368 C7.99872,4.63524211 7.91607652,5.05250526 7.70905043,5.3864 C7.54376348,5.7624 7.25409391,6.05461053 6.96442435,6.30471579 C6.63343304,6.55524211 6.26070261,6.76408421 5.80574609,6.93082105 C5.35037217,7.05629474 4.85409391,7.13966316 4.27475478,7.13966316 L0.964424348,7.13966316 L0.964424348,1.21250526 L4.35739826,1.21250526 C4.89541565,1.21250526 5.39169391,1.29587368 5.84706783,1.42092632 C6.30202435,1.5464 6.67475478,1.71313684 7.00574609,1.96366316 C7.33673739,2.21418947 7.58508522,2.5064 7.75037217,2.88197895 C7.91607652,3.21587368 7.99872,3.67524211 7.99872,4.17587368" id="Fill-13" fill="#404545"></path>
                            </g>
                            <polygon id="Fill-16" fill="#404545" points="66.5793391 21.3958316 67.4896696 21.3958316 67.4896696 9.29056842 66.5793391 9.29056842"></polygon>
                            <polygon id="Fill-17" fill="#404545" points="70.0965287 9.29077895 70.9655374 9.29077895 79.2415722 19.8099368 79.2415722 9.29077895 80.0688417 9.29077895 80.0688417 21.3960421 79.4068591 21.3960421 70.9655374 10.6684632 70.9655374 21.3960421 70.0965287 21.3960421"></polygon>
                            <polygon id="Fill-18" fill="#404545" points="86.2758678 10.1256421 82.0965287 10.1256421 82.0965287 9.29069474 91.3242157 9.29069474 91.3242157 10.1256421 87.1448765 10.1256421 87.1448765 21.3959579 86.2758678 21.3959579"></polygon>
                            <g id="Group-30" transform="translate(51.756522, 0.071200)">
                                <path d="M6.34000696,8.92741053 C2.86397217,8.92741053 0.0503373913,11.7657263 0.0503373913,15.2722526 C0.0503373913,18.7783579 2.86397217,21.6170947 6.34000696,21.6170947 C9.81604174,21.6170947 12.6296765,18.7783579 12.6296765,15.2722526 C12.6296765,11.7657263 9.81604174,8.92741053 6.34000696,8.92741053 M6.34000696,20.7404632 C3.31934609,20.7404632 0.919346087,18.2777263 0.919346087,15.2722526 C0.919346087,12.2250947 3.36066783,9.80404211 6.34000696,9.80404211 C9.36066783,9.80404211 11.7606678,12.2667789 11.7606678,15.2722526 C11.8019896,18.2777263 9.36066783,20.7404632 6.34000696,20.7404632" id="Fill-19" fill="#404545"></path>
                                <path d="M6.83657739,15.3139789 C6.79525565,15.6061895 6.54690783,15.8567158 6.29856,15.8150316 C6.00889043,15.7733474 5.84360348,15.5228211 5.84360348,15.1889263 L6.25723826,6.79861053 C6.29856,6.46471579 6.96054261,6.29755789 7.25021217,6.33924211 C7.53988174,6.38092632 8.16054261,6.67313684 8.11922087,7.00703158 L6.83657739,15.3139789 Z" id="Fill-21" fill="#404545"></path>
                                <g id="Group-25" transform="translate(3.756522, 0.000000)">
                                    <mask id="mask-4" fill="white">
                                        <use xlink:href="#path-3"></use>
                                    </mask>
                                    <g id="Clip-24"></g>
                                    <path d="M7.3008,4.25225263 C7.09377391,6.17225263 5.39749565,7.59162105 3.45245217,7.38277895 C1.54914783,7.17435789 0.142121739,5.46277895 0.349147826,3.50109474 C0.555756522,1.58067368 2.25245217,0.161726316 4.19749565,0.370147368 C6.1008,0.578989474 7.46608696,2.33225263 7.3008,4.25225263" id="Fill-23" fill="#C7212E" mask="url(#mask-4)"></path>
                                </g>
                                <path d="M8.86409739,1.70597895 C8.98848,2.33208421 8.32608,2.99987368 7.37442783,3.20871579 C6.42277565,3.41755789 5.55376696,3.08366316 5.42980174,2.45713684 C5.30541913,1.83103158 5.96740174,1.16324211 6.9194713,0.9544 C7.87112348,0.745978947 8.74013217,1.07987368 8.86409739,1.70597895" id="Fill-26" fill="#ED8599"></path>
                                <path d="M44.2434783,9.63701053 C44.2434783,10.3464842 43.7054609,10.9309053 42.9608348,10.9309053 C42.257113,10.9309053 41.6777739,10.3881684 41.6777739,9.63701053 C41.6777739,8.88585263 42.2157913,8.34311579 42.9608348,8.34311579 C43.7054609,8.3848 44.2434783,8.92753684 44.2434783,9.63701053 L44.2434783,9.63701053 Z M41.8848,9.63701053 C41.8848,10.2631158 42.3401739,10.7224842 42.9608348,10.7224842 C43.5814957,10.7224842 44.0364522,10.2214316 44.0364522,9.63701053 C44.0364522,9.01090526 43.5814957,8.55153684 42.9608348,8.55153684 C42.3401739,8.55153684 41.8848,9.05258947 41.8848,9.63701053 L41.8848,9.63701053 Z M42.6711652,10.3881684 L42.5054609,10.3881684 L42.5054609,8.92753684 L43.0848,8.92753684 C43.4157913,8.92753684 43.5814957,9.05258947 43.5814957,9.3448 C43.5814957,9.59532632 43.4157913,9.72037895 43.2091826,9.76206316 L43.6641391,10.4302737 L43.4157913,10.4302737 L43.0021565,9.76206316 L42.712487,9.76206316 L42.712487,10.3881684 L42.6711652,10.3881684 Z M42.919513,9.59532632 C43.1261217,9.59532632 43.3744696,9.59532632 43.3744696,9.3448 C43.3744696,9.13595789 43.2087652,9.09427368 43.0434783,9.09427368 L42.712487,9.09427368 L42.712487,9.59532632 L42.919513,9.59532632 Z" id="Fill-28" fill="#404545"></path>
                            </g>
                        </g>
                    </g>
                    <rect id="Rectangle-4-Copy-2" stroke="#C7CFD9" x="0.5" y="0.5" width="162" height="211.056766"></rect>
                    <rect id="Rectangle-11" fill-opacity="0.709999979" fill="#C7CFD9" x="14" y="70" width="114" height="8"></rect>
                    <rect id="Rectangle-11-Copy" fill-opacity="0.709999979" fill="#C7CFD9" x="14" y="90" width="114" height="6"></rect>
                    <rect id="Rectangle-11-Copy-2" fill-opacity="0.709999979" fill="#C7CFD9" x="14" y="100" width="130" height="6"></rect>
                    <rect id="Rectangle-11-Copy-3" fill-opacity="0.709999979" fill="#C7CFD9" x="14" y="110" width="45" height="6"></rect>
                </g>
                <g id="Group-4" transform="translate(183.000000, 0.000000)">
                    <g id="Full-Color-Logo" transform="translate(148.000000, 18.000000)">
                        <g>
                            <polygon id="Fill-1" fill="#C7212E" points="7.71598957 7.74224561 5.06235913 12.0208421 2.40908087 7.74224561 -0.000140869565 7.74224561 -0.000140869565 17.8303158 2.19953739 17.8303158 2.19953739 11.2903158 5.02749391 15.5692632 5.06235913 15.5692632 7.92553304 11.2555789 7.92553304 17.8303158 10.1248591 17.8303158 10.1248591 7.74224561"></polygon>
                            <path d="M17.8409543,7.67277193 L15.7810891,7.67277193 L11.4518152,17.8299649 L13.7212239,17.8299649 L14.6636413,15.5689123 L18.95805,15.5689123 L19.8659543,17.8299649 L22.2050935,17.8299649 L17.8409543,7.67277193 Z M15.4317326,13.6208421 L16.7587239,10.3513684 L18.1202283,13.6208421 L15.4317326,13.6208421 Z" id="Fill-2" fill="#C7212E"></path>
                            <polygon id="Fill-3" fill="#C7212E" points="26.6043091 12.7166316 23.2178048 7.74224561 25.8013526 7.74224561 27.9309483 11.0120702 30.0608961 7.74224561 32.6095787 7.74224561 29.2227222 12.6818947 32.7490396 17.8299649 30.1654917 17.8299649 27.896083 14.3864561 25.5918091 17.8299649 23.0779917 17.8299649"></polygon>
                            <g id="Group-15" transform="translate(35.217391, 7.427754)">
                                <path d="M16.7343183,5.35842105 C16.7343183,6.95842105 15.4425443,8.24578947 13.8366313,8.24578947 C12.2303661,8.24578947 10.9385922,6.95842105 10.9385922,5.35842105 C10.9385922,3.75842105 12.2303661,2.47140351 13.8366313,2.47140351 C15.4425443,2.47140351 16.7343183,3.75842105 16.7343183,5.35842105" id="Fill-4" fill="#C4C7C7"></path>
                                <path d="M14.953727,7.82817544 L15.1284052,7.7934386 C15.3375965,7.68887719 15.54714,7.51519298 15.7218183,7.34115789 L15.8264139,7.23694737 L17.0833226,8.66291228 L16.978727,8.73273684 C16.7691835,8.94115789 16.5247748,9.11519298 16.2455009,9.28922807 L16.1409052,9.35870175 L15.0583226,7.96747368 L14.953727,7.82817544 Z" id="Fill-6" fill="#C4C7C7"></path>
                                <g id="Group-10" transform="translate(15.847826, 8.421053)">
                                    <mask id="mask-6" fill="white">
                                        <use xlink:href="#path-5"></use>
                                    </mask>
                                    <g id="Clip-9"></g>
                                    <path d="M3.29553783,0.97245614 C2.94653348,0.554912281 2.42285087,0.311403509 1.89916826,0.311403509 L1.86395087,0.311403509 L1.82908565,0.346491228 C1.41035087,0.868245614 0.921533478,1.25070175 0.327768261,1.52894737 L0.292903043,1.56368421 L0.292903043,1.59842105 C0.258037826,1.70298246 0.258037826,1.8422807 0.258037826,1.98122807 C0.258037826,2.39877193 0.397498696,2.85105263 0.71199,3.19877193 C1.09585957,3.65105263 1.61954217,3.85982456 2.14357696,3.85982456 C2.52744652,3.85982456 2.91166826,3.72052632 3.22580739,3.47701754 C3.60967696,3.16403509 3.81922043,2.67701754 3.81922043,2.19 C3.71462478,1.7377193 3.57481174,1.32017544 3.29553783,0.97245614" id="Fill-8" fill="#C4C7C7" mask="url(#mask-6)"></path>
                                </g>
                                <path d="M15.9312561,7.34119298 L14.0809343,5.25417544 C13.9759865,5.14961404 13.8365257,5.11487719 13.6967126,5.11487719 C13.592117,5.11487719 13.4871691,5.11487719 13.3825735,5.2194386 C13.312843,5.28891228 13.2427604,5.39312281 13.2427604,5.49768421 C13.2427604,5.56715789 13.2779778,5.67136842 13.3477083,5.74119298 L15.0585691,7.93242105 C15.4075735,7.79347368 15.6868474,7.58470175 15.9312561,7.34119298" id="Fill-11" fill="#9EA1A1"></path>
                                <path d="M7.20287217,2.12340351 C7.02819391,1.74059649 6.74892,1.42761404 6.43478087,1.14936842 C6.08577652,0.871122807 5.70155478,0.697087719 5.24760261,0.558140351 C4.79365043,0.418842105 4.26996783,0.349368421 3.71142,0.349368421 L0.0456417391,0.349368421 L0.0456417391,10.4370877 L0.813733043,10.4370877 L0.813733043,6.64550877 L3.53674174,6.64550877 C4.06077652,6.64550877 4.58445913,6.57603509 5.03805913,6.43673684 C5.52687652,6.29778947 5.94596348,6.08901754 6.29496783,5.84550877 C6.64432435,5.56726316 6.95846348,5.25392982 7.16800696,4.83673684 C7.37755043,4.41919298 7.48214609,3.96691228 7.48214609,3.44515789 L7.48214609,3.41042105 C7.48214609,2.92340351 7.41241565,2.47112281 7.20287217,2.12340351 M6.74892,3.47989474 C6.74892,3.86270175 6.67918957,4.21042105 6.5045113,4.48866667 C6.36505043,4.802 6.12064174,5.04550877 5.87623304,5.25392982 C5.59695913,5.46270175 5.28246783,5.63673684 4.89859826,5.77568421 C4.51437652,5.88024561 4.09564174,5.9497193 3.60682435,5.9497193 L0.813733043,5.9497193 L0.813733043,1.01042105 L3.67655478,1.01042105 C4.13050696,1.01042105 4.54924174,1.07989474 4.93346348,1.18410526 C5.31733304,1.28866667 5.63182435,1.42761404 5.91109826,1.63638596 C6.19037217,1.84515789 6.39991565,2.08866667 6.53937652,2.40164912 C6.67918957,2.67989474 6.74892,3.06270175 6.74892,3.47989474" id="Fill-13" fill="#404545"></path>
                            </g>
                            <polygon id="Fill-16" fill="#404545" points="56.1763174 17.8298596 56.9444087 17.8298596 56.9444087 7.74214035 56.1763174 7.74214035"></polygon>
                            <polygon id="Fill-17" fill="#404545" points="59.1439461 7.74231579 59.8771722 7.74231579 66.8600765 16.5082807 66.8600765 7.74231579 67.5580852 7.74231579 67.5580852 17.8300351 66.9995374 17.8300351 59.8771722 8.89038596 59.8771722 17.8300351 59.1439461 17.8300351"></polygon>
                            <polygon id="Fill-18" fill="#404545" points="72.7952635 8.43803509 69.2689461 8.43803509 69.2689461 7.74224561 77.054807 7.74224561 77.054807 8.43803509 73.5284896 8.43803509 73.5284896 17.8299649 72.7952635 17.8299649"></polygon>
                            <g id="Group-30" transform="translate(43.669565, 0.059333)">
                                <path d="M5.34938087,7.43950877 C2.41647652,7.43950877 0.0424721739,9.80477193 0.0424721739,12.7268772 C0.0424721739,15.6486316 2.41647652,18.0142456 5.34938087,18.0142456 C8.28228522,18.0142456 10.6562896,15.6486316 10.6562896,12.7268772 C10.6562896,9.80477193 8.28228522,7.43950877 5.34938087,7.43950877 M5.34938087,17.2837193 C2.80069826,17.2837193 0.775698261,15.2314386 0.775698261,12.7268772 C0.775698261,10.1875789 2.83556348,8.17003509 5.34938087,8.17003509 C7.89806348,8.17003509 9.92306348,10.2223158 9.92306348,12.7268772 C9.9579287,15.2314386 7.89806348,17.2837193 5.34938087,17.2837193" id="Fill-19" fill="#404545"></path>
                                <path d="M5.76836217,12.7616491 C5.73349696,13.0051579 5.52395348,13.2139298 5.31441,13.179193 C5.0700013,13.1444561 4.93054043,12.9356842 4.93054043,12.6574386 L5.27954478,5.66550877 C5.31441,5.38726316 5.87295783,5.24796491 6.11736652,5.28270175 C6.36177522,5.3174386 6.88545783,5.56094737 6.85059261,5.83919298 L5.76836217,12.7616491 Z" id="Fill-21" fill="#404545"></path>
                                <g id="Group-25" transform="translate(3.169565, 0.000000)">
                                    <mask id="mask-8" fill="white">
                                        <use xlink:href="#path-7"></use>
                                    </mask>
                                    <g id="Clip-24"></g>
                                    <path d="M6.16005,3.54354386 C5.98537174,5.14354386 4.55413696,6.32635088 2.91300652,6.15231579 C1.30709348,5.97863158 0.119915217,4.55231579 0.294593478,2.91757895 C0.468919565,1.31722807 1.90050652,0.13477193 3.54163696,0.30845614 C5.14755,0.482491228 6.29951087,1.94354386 6.16005,3.54354386" id="Fill-23" fill="#C7212E" mask="url(#mask-8)"></path>
                                </g>
                                <path d="M7.47908217,1.42164912 C7.58403,1.94340351 7.02513,2.49989474 6.22217348,2.67392982 C5.41921696,2.84796491 4.68599087,2.5697193 4.58139522,2.04761404 C4.47644739,1.52585965 5.03499522,0.969368421 5.83830391,0.795333333 C6.64126043,0.621649123 7.37448652,0.899894737 7.47908217,1.42164912" id="Fill-26" fill="#ED8599"></path>
                                <path d="M37.3304348,8.03084211 C37.3304348,8.62207018 36.8764826,9.10908772 36.2482043,9.10908772 C35.6544391,9.10908772 35.1656217,8.65680702 35.1656217,8.03084211 C35.1656217,7.40487719 35.6195739,6.95259649 36.2482043,6.95259649 C36.8764826,6.98733333 37.3304348,7.43961404 37.3304348,8.03084211 L37.3304348,8.03084211 Z M35.3403,8.03084211 C35.3403,8.55259649 35.7245217,8.93540351 36.2482043,8.93540351 C36.771887,8.93540351 37.1557565,8.51785965 37.1557565,8.03084211 C37.1557565,7.50908772 36.771887,7.1262807 36.2482043,7.1262807 C35.7245217,7.1262807 35.3403,7.54382456 35.3403,8.03084211 L35.3403,8.03084211 Z M36.0037957,8.65680702 L35.8639826,8.65680702 L35.8639826,7.43961404 L36.3528,7.43961404 C36.6320739,7.43961404 36.771887,7.54382456 36.771887,7.78733333 C36.771887,7.99610526 36.6320739,8.10031579 36.4577478,8.13505263 L36.8416174,8.69189474 L36.6320739,8.69189474 L36.2830696,8.13505263 L36.0386609,8.13505263 L36.0386609,8.65680702 L36.0037957,8.65680702 Z M36.2133391,7.99610526 C36.3876652,7.99610526 36.5972087,7.99610526 36.5972087,7.78733333 C36.5972087,7.61329825 36.4573957,7.5785614 36.3179348,7.5785614 L36.0386609,7.5785614 L36.0386609,7.99610526 L36.2133391,7.99610526 Z" id="Fill-28" fill="#404545"></path>
                            </g>
                        </g>
                    </g>
                    <rect id="Rectangle-4-Copy-4" stroke="#C7CFD9" x="0.5" y="0.5" width="245" height="176"></rect>
                    <rect id="Rectangle-11-Copy-6" fill-opacity="0.709999979" fill="#C7CFD9" x="18" y="86" width="57" height="7"></rect>
                    <rect id="Rectangle-11-Copy-7" fill-opacity="0.709999979" fill="#C7CFD9" x="95" y="86" width="57" height="7"></rect>
                    <rect id="Rectangle-11-Copy-10" fill-opacity="0.709999979" fill="#C7CFD9" x="172" y="86" width="57" height="7"></rect>
                    <rect id="Rectangle-11-Copy-5" fill-opacity="0.709999979" fill="#C7CFD9" x="18" y="98" width="57" height="7"></rect>
                    <rect id="Rectangle-11-Copy-8" fill-opacity="0.709999979" fill="#C7CFD9" x="95" y="98" width="57" height="7"></rect>
                    <rect id="Rectangle-11-Copy-11" fill-opacity="0.709999979" fill="#C7CFD9" x="172" y="98" width="57" height="7"></rect>
                    <rect id="Rectangle-11-Copy-4" fill-opacity="0.709999979" fill="#C7CFD9" x="18" y="110" width="34" height="7"></rect>
                    <rect id="Rectangle-11-Copy-9" fill-opacity="0.709999979" fill="#C7CFD9" x="95" y="110" width="34" height="7"></rect>
                    <rect id="Rectangle-11-Copy-12" fill-opacity="0.709999979" fill="#C7CFD9" x="172" y="110" width="34" height="7"></rect>
                </g>
            </g>
        </g>
    </g>
</svg>