<svg id="Layer_1" data-name="Layer 1" xmlns="http://www.w3.org/2000/svg" viewBox="0 0 232 55.65"><defs><style>.cls-1{fill:#c8102e;}.cls-2{fill:#c5c7c7;}.cls-3{fill:#9ea2a2;}.cls-4{fill:#3e4545;}.cls-5{fill:#ef869b;}</style></defs><title>rgb-Valassis Digital-logo</title><g id="Layer_2" data-name="Layer 2"><polygon class="cls-1" points="0 21.25 6.9 21.25 14.5 33.55 22.1 21.25 29 21.25 29 50.25 22.7 50.25 22.7 31.35 14.5 43.75 14.4 43.75 6.3 31.45 6.3 50.25 0 50.25 0 21.25"/><path class="cls-1" d="M51.6,21.85H45.7L33.3,51.05h6.5l2.7-6.5H54.8l2.6,6.5h6.7Zm-6.9,17.1,3.8-9.4,3.9,9.4Z" transform="translate(-0.5 -0.8)"/><polygon class="cls-1" points="76.2 35.55 66.5 21.25 73.9 21.25 80 30.65 86.1 21.25 93.4 21.25 83.7 35.45 93.8 50.25 86.4 50.25 79.9 40.35 73.3 50.25 66.1 50.25 76.2 35.55"/><path class="cls-2" d="M149.3,36.55a8.3,8.3,0,1,1-8.3-8.3,8.28,8.28,0,0,1,8.3,8.3" transform="translate(-0.5 -0.8)"/><path class="cls-2" d="M144.2,43.65l.5-.1a7,7,0,0,0,1.7-1.3h0l.3-.3,3.6,4.1-.3.2a11.6,11.6,0,0,1-2.1,1.6h0l-.3.2-3.1-4Z" transform="translate(-0.5 -0.8)"/><path class="cls-2" d="M156.2,48.15a5.28,5.28,0,0,0-4-1.9h-.1l-.1.1a11.82,11.82,0,0,1-4.3,3.4l-.1.1v.1a3.75,3.75,0,0,0-.1,1.1,5.42,5.42,0,0,0,5.4,5.4h0a5.1,5.1,0,0,0,3.1-1.1,4.8,4.8,0,0,0,1.7-3.7A8.47,8.47,0,0,0,156.2,48.15Z" transform="translate(-0.5 -0.8)"/><path class="cls-3" d="M147,42.25l-5.3-6h0a1.5,1.5,0,0,0-1.1-.4,1.1,1.1,0,0,0-.9.3,1.23,1.23,0,0,0-.4.8,1.08,1.08,0,0,0,.3.7l4.9,6.3A7.39,7.39,0,0,0,147,42.25Z" transform="translate(-0.5 -0.8)"/><path class="cls-4" d="M122,27.25a8.55,8.55,0,0,0-2.2-2.8,9.88,9.88,0,0,0-3.4-1.7,15.1,15.1,0,0,0-4.4-.6H101.5v29h2.2V40.25h7.8a14.9,14.9,0,0,0,4.3-.6,12,12,0,0,0,3.6-1.7,8.17,8.17,0,0,0,3.4-6.9V31A7.23,7.23,0,0,0,122,27.25Zm-1.3,3.9a5.43,5.43,0,0,1-.7,2.9,6.46,6.46,0,0,1-1.8,2.2,10.62,10.62,0,0,1-2.8,1.5,13.8,13.8,0,0,1-3.7.5h-8V24h8.2a13.61,13.61,0,0,1,3.6.5,8,8,0,0,1,2.8,1.3,5.49,5.49,0,0,1,1.8,2.2,7.14,7.14,0,0,1,.6,3.1Z" transform="translate(-0.5 -0.8)"/><rect class="cls-4" x="160.9" y="21.25" width="2.2" height="29"/><polygon class="cls-4" points="169.4 21.25 171.5 21.25 191.5 46.45 191.5 21.25 193.5 21.25 193.5 50.25 191.9 50.25 171.5 24.55 171.5 50.25 169.4 50.25 169.4 21.25"/><polygon class="cls-4" points="208.5 23.25 198.4 23.25 198.4 21.25 220.7 21.25 220.7 23.25 210.6 23.25 210.6 50.25 208.5 50.25 208.5 23.25"/><path class="cls-4" d="M140.9,21.35a15.2,15.2,0,1,0,15.2,15.2A15.19,15.19,0,0,0,140.9,21.35Zm0,28.3A13.1,13.1,0,1,1,154,36.55,13.08,13.08,0,0,1,140.9,49.65Z" transform="translate(-0.5 -0.8)"/><path class="cls-4" d="M142.1,36.65c-.1.7-.7,1.3-1.3,1.2a1.36,1.36,0,0,1-1.1-1.5l1-20.1c.1-.8,1.7-1.2,2.4-1.1s2.2.8,2.1,1.6Z" transform="translate(-0.5 -0.8)"/><path class="cls-1" d="M152.3,10.15a8.45,8.45,0,1,1-7.5-9.3,8.57,8.57,0,0,1,7.5,9.3" transform="translate(-0.5 -0.8)"/><path class="cls-5" d="M147,4c.3,1.5-1.3,3.1-3.6,3.6s-4.4-.3-4.7-1.8,1.3-3.1,3.6-3.6,4.4.3,4.7,1.8" transform="translate(-0.5 -0.8)"/><path class="cls-4" d="M232.5,23a3.1,3.1,0,0,1-6.2,0,3,3,0,0,1,3.1-3.1A3.11,3.11,0,0,1,232.5,23Zm-5.7,0a2.52,2.52,0,0,0,2.6,2.6A2.58,2.58,0,0,0,232,23a2.52,2.52,0,0,0-2.6-2.6A2.58,2.58,0,0,0,226.8,23Zm1.9,1.8h-.4v-3.5h1.4c.8,0,1.2.3,1.2,1a1,1,0,0,1-.9,1l1.1,1.6h-.6l-1-1.6h-.7v1.5Zm.6-1.9c.5,0,1.1,0,1.1-.6s-.4-.6-.8-.6h-.8V23Z" transform="translate(-0.5 -0.8)"/></g></svg>