<?xml version="1.0" encoding="utf-8"?>
<!-- Generator: Adobe Illustrator 21.1.0, SVG Export Plug-In . SVG Version: 6.00 Build 0)  -->
<svg version="1.1" id="Layer_1" xmlns="http://www.w3.org/2000/svg" xmlns:xlink="http://www.w3.org/1999/xlink" x="0px" y="0px"
	 width="37.3px" height="59px" viewBox="0 0 37.3 59" style="enable-background:new 0 0 37.3 59;" xml:space="preserve">
<style type="text/css">
	.st0{display:none;}
	.st1{display:inline;}
	.st2{fill:#C5C7C7;}
	.st3{fill:#9EA2A2;}
	.st4{fill:#9C3022;}
	.st5{fill:#3E4545;}
	.st6{fill:#CD9790;}
	.st7{fill:#58595B;}
	.st8{fill:#C8102E;}
	.st9{fill:#E38796;}
</style>
<g id="Layer_1_1_" class="st0">
	<g class="st1">
		<g>
			<g>
				<path class="st2" d="M27.5,31.7c0,4.5-3.7,8.2-8.2,8.2s-8.2-3.7-8.2-8.2s3.7-8.2,8.2-8.2C23.8,23.5,27.5,27.2,27.5,31.7"/>
				<g>
					<path class="st2" d="M22.5,38.6l0.5-0.1c0.6-0.3,1.2-0.8,1.7-1.2l0,0L25,37l3.5,4l-0.3,0.2c-0.6,0.6-1.3,1.1-2,1.6l0,0L26,43
						l-3-3.9L22.5,38.6z"/>
				</g>
				<path class="st2" d="M34.2,43c-1-1.2-2.5-1.9-3.9-1.9h-0.1l-0.1,0.1c-1.1,1.4-2.6,2.6-4.3,3.3l-0.1,0.1v0.1
					c-0.1,0.3-0.1,0.7-0.1,1c0,1.2,0.4,2.4,1.3,3.4c1.1,1.2,2.5,1.9,4,1.9l0,0c1.1,0,2.1-0.4,3-1.1c1.1-0.9,1.6-2.3,1.6-3.6
					C35.5,45.2,35,44,34.2,43z"/>
				<path class="st3" d="M25.2,37.3L20,31.4l0,0c-0.3-0.3-0.7-0.4-1-0.4s-0.6,0-0.8,0.3c-0.2,0.2-0.4,0.5-0.4,0.8
					c0,0.2,0.1,0.5,0.3,0.7l4.8,6.2C23.8,38.6,24.6,38,25.2,37.3z"/>
				<g>
					<polygon class="st4" points="-118.1,17.5 -111.4,17.5 -103.9,29.5 -96.5,17.5 -89.8,17.5 -89.8,45.9 -95.9,45.9 -95.9,27.4
						-103.9,39.5 -104.1,39.5 -111.9,27.5 -111.9,45.9 -118.1,45.9 					"/>
					<path class="st4" d="M-73.9,17.3h5.8L-56,45.9h-6.5l-2.6-6.4h-12l-2.6,6.4H-86L-73.9,17.3z M-67.3,34.1l-3.8-9.2l-3.8,9.2
						H-67.3z"/>
					<polygon class="st4" points="-43.6,31.5 -53.1,17.5 -45.8,17.5 -39.8,26.7 -33.8,17.5 -26.7,17.5 -36.2,31.4 -26.3,45.9
						-33.6,45.9 -40,36.2 -46.4,45.9 -53.5,45.9 					"/>
					<path class="st5" d="M-19.2,17.5h10.3c1.6,0,3,0.2,4.3,0.6c1.3,0.4,2.4,1,3.3,1.7c0.9,0.7,1.6,1.6,2.2,2.7
						c0.5,1.1,0.8,2.3,0.8,3.7v0.1c0,1.5-0.3,2.8-0.9,3.9c-0.6,1.1-1.4,2.1-2.4,2.8c-1,0.8-2.2,1.3-3.5,1.7
						c-1.3,0.4-2.7,0.6-4.2,0.6H-17v10.6h-2.1L-19.2,17.5L-19.2,17.5z M-9.3,33.4c1.3,0,2.5-0.2,3.6-0.5s2-0.8,2.8-1.4
						s1.4-1.4,1.8-2.2c0.4-0.9,0.6-1.8,0.6-2.9v-0.1c0-1.1-0.2-2.1-0.6-3c-0.4-0.9-1-1.6-1.8-2.1c-0.8-0.6-1.7-1-2.7-1.3
						c-1.1-0.3-2.2-0.5-3.5-0.5h-8v14C-17.1,33.4-9.3,33.4-9.3,33.4z"/>
					<rect x="39.3" y="17.5" class="st5" width="2.1" height="28.4"/>
					<polygon class="st5" points="47.7,17.5 49.7,17.5 69.3,42.2 69.3,17.5 71.2,17.5 71.2,45.9 69.7,45.9 49.7,20.7 49.7,45.9
						47.7,45.9 					"/>
					<polygon class="st5" points="85.9,19.4 76,19.4 76,17.5 97.9,17.5 97.9,19.4 88,19.4 88,45.9 85.9,45.9 					"/>
					<path class="st5" d="M19.3,16.8c-8.2,0-14.8,6.6-14.8,14.8s6.6,14.8,14.8,14.8s14.8-6.6,14.8-14.8S27.5,16.8,19.3,16.8z
						 M19.3,44.5c-7.1,0-12.9-5.8-12.9-12.9s5.8-12.9,12.9-12.9c7.1,0,12.9,5.8,12.9,12.9S26.4,44.5,19.3,44.5z"/>
				</g>
				<g>
					<path class="st5" d="M20.4,31.8c-0.1,0.7-0.7,1.2-1.3,1.2c-0.6-0.1-1.1-0.7-1-1.4l1-19.7c0.1-0.7,1.7-1.1,2.3-1.1
						c0.6,0.1,2.2,0.8,2.1,1.5L20.4,31.8z"/>
					<g>
						<path class="st4" d="M30.4,5.9c-0.5,4.5-4.5,7.8-9.1,7.3c-4.5-0.5-7.8-4.5-7.4-9.1c0.5-4.5,4.5-7.8,9.1-7.3S30.9,1.3,30.4,5.9
							"/>
						<path class="st6" d="M25.3-0.1c0.3,1.5-1.2,3.1-3.5,3.5c-2.2,0.5-4.3-0.3-4.6-1.8s1.2-3.1,3.5-3.5C22.9-2.4,25-1.6,25.3-0.1"
							/>
					</g>
				</g>
			</g>
		</g>
	</g>
	<g class="st1">
		<path class="st7" d="M108.9,16.5c0,1.7-1.3,3-3,3s-3-1.3-3-3s1.3-3,3-3S108.9,14.8,108.9,16.5z M103.4,16.5c0,1.4,1.1,2.6,2.5,2.6
			c1.5,0,2.5-1.1,2.5-2.6c0-1.4-1.1-2.6-2.5-2.6C104.4,13.9,103.4,15.1,103.4,16.5z M105.2,18.3h-0.4v-3.5h1.3c0.8,0,1.1,0.3,1.1,1
			c0,0.6-0.4,0.9-0.9,1l1,1.5h-0.5l-1-1.5h-0.7v1.5H105.2z M105.8,16.4c0.5,0,1,0,1-0.6c0-0.5-0.4-0.6-0.8-0.6h-0.8v1.2
			C105.2,16.4,105.8,16.4,105.8,16.4z"/>
	</g>
</g>
<g id="Layer_2">
	<g>
		<g>
			<path class="st2" d="M25.8,37.3c0,4.6-3.7,8.3-8.3,8.3s-8.3-3.7-8.3-8.3c0-4.6,3.7-8.3,8.3-8.3S25.8,32.7,25.8,37.3"/>
			<g>
				<path class="st2" d="M20.7,44.4l0.5-0.1c0.6-0.3,1.2-0.8,1.7-1.3l0,0l0.3-0.3l3.6,4.1L26.5,47c-0.6,0.6-1.3,1.1-2.1,1.6l0,0
					l-0.3,0.2l-3.1-4L20.7,44.4z"/>
			</g>
			<path class="st2" d="M32.7,48.9c-1-1.2-2.5-1.9-4-1.9h-0.1l-0.1,0.1c-1.2,1.5-2.6,2.6-4.3,3.4l-0.1,0.1v0.1
				C24,51,24,51.4,24,51.8c0,1.2,0.4,2.5,1.3,3.5c1.1,1.3,2.6,1.9,4.1,1.9l0,0c1.1,0,2.2-0.4,3.1-1.1c1.1-0.9,1.7-2.3,1.7-3.7
				C33.9,51.1,33.5,49.9,32.7,48.9z"/>
			<path class="st3" d="M23.5,43l-5.3-6l0,0c-0.3-0.3-0.7-0.4-1.1-0.4c-0.3,0-0.6,0-0.9,0.3c-0.2,0.2-0.4,0.5-0.4,0.8
				c0,0.2,0.1,0.5,0.3,0.7l4.9,6.3C22,44.3,22.8,43.7,23.5,43z"/>
			<path class="st5" d="M17.4,22.1C9,22.1,2.2,28.9,2.2,37.3S9,52.5,17.4,52.5s15.2-6.8,15.2-15.2C32.6,28.9,25.8,22.1,17.4,22.1z
				 M17.4,50.4c-7.3,0-13.1-5.9-13.1-13.1c0-7.3,5.9-13.1,13.1-13.1c7.3,0,13.1,5.9,13.1,13.1C30.6,44.5,24.7,50.4,17.4,50.4z"/>
			<g>
				<path class="st5" d="M18.6,37.4c-0.1,0.7-0.7,1.3-1.3,1.2c-0.7-0.1-1.1-0.7-1.1-1.5l1-20.1c0.1-0.8,1.7-1.2,2.4-1.1
					c0.7,0.1,2.2,0.8,2.1,1.6L18.6,37.4z"/>
				<g>
					<path class="st8" d="M28.8,10.9c-0.5,4.6-4.6,8-9.3,7.5c-4.6-0.5-8-4.6-7.5-9.3c0.5-4.6,4.6-8,9.3-7.5
						C25.9,2.1,29.2,6.3,28.8,10.9"/>
					<path class="st9" d="M23.5,4.8c0.3,1.5-1.3,3.1-3.6,3.6s-4.4-0.3-4.7-1.8s1.3-3.1,3.6-3.6S23.2,3.3,23.5,4.8"/>
				</g>
			</g>
		</g>
	</g>
</g>
</svg>
