<svg width="373" height="103" xmlns="http://www.w3.org/2000/svg"><g fill="none"><path fill="#A0A4B8" d="M0 0h84v84H0z"/><path fill="#B8BBCA" d="M96 0h84v84H96z"/><path fill="#CFD1DB" d="M193 0h84v84h-84z"/><path fill="#E6E7ED" d="M289 0h84v84h-84z"/><path fill="#FF4141" d="M0 95h373v8H0z"/><path d="M26.952 41.688c0-3.088 1.616-5.52 4.704-5.52 1.328 0 2.352.48 3.072 1.184l-.88 1.424c-.56-.592-1.168-.944-2.192-.944-1.776 0-2.816 1.648-2.816 3.52 0 .112 0 .208.016.304.48-.72 1.6-1.488 2.864-1.488 1.92 0 3.568 1.168 3.568 3.44 0 1.984-1.552 3.584-3.936 3.584-3.136 0-4.4-2.544-4.4-5.504zm6.448 1.984c0-1.312-1.024-1.904-2.192-1.904-.912 0-1.792.496-2.336 1.264.112 1.152.736 2.496 2.384 2.496 1.408 0 2.144-.992 2.144-1.856zm3.168-2c0-2.688 1.28-5.504 4.272-5.504s4.272 2.816 4.272 5.504c0 2.688-1.28 5.52-4.272 5.52s-4.272-2.832-4.272-5.52zm6.64 0c0-2.032-.624-3.84-2.368-3.84-1.744 0-2.368 1.808-2.368 3.84s.624 3.856 2.368 3.856c1.744 0 2.368-1.824 2.368-3.856zm3.008-2.832c0-1.504 1.056-2.672 2.64-2.672 1.6 0 2.672 1.168 2.672 2.672 0 1.488-1.072 2.624-2.672 2.624-1.584 0-2.64-1.136-2.64-2.624zM47.832 47l6.816-10.672h1.072L48.888 47h-1.056zm2.448-8.16c0-.96-.592-1.6-1.424-1.6-.816 0-1.408.64-1.408 1.6 0 .912.592 1.568 1.408 1.568.832 0 1.424-.656 1.424-1.568zm1.68 5.728c0-1.504 1.056-2.672 2.64-2.672s2.656 1.168 2.656 2.672c0 1.488-1.072 2.624-2.656 2.624s-2.64-1.136-2.64-2.624zm4.064 0c0-.96-.592-1.6-1.424-1.6s-1.408.64-1.408 1.6c0 .928.576 1.568 1.408 1.568s1.424-.64 1.424-1.568zM124.784 47l4.032-9.024h-5.536v-1.648h7.696v1.296L126.832 47h-2.048zm7.232-5.328c0-2.688 1.28-5.504 4.272-5.504s4.272 2.816 4.272 5.504c0 2.688-1.28 5.52-4.272 5.52s-4.272-2.832-4.272-5.52zm6.64 0c0-2.032-.624-3.84-2.368-3.84-1.744 0-2.368 1.808-2.368 3.84s.624 3.856 2.368 3.856c1.744 0 2.368-1.824 2.368-3.856zm3.008-2.832c0-1.504 1.056-2.672 2.64-2.672 1.6 0 2.672 1.168 2.672 2.672 0 1.488-1.072 2.624-2.672 2.624-1.584 0-2.64-1.136-2.64-2.624zM143.28 47l6.816-10.672h1.072L144.336 47h-1.056zm2.448-8.16c0-.96-.592-1.6-1.424-1.6-.816 0-1.408.64-1.408 1.6 0 .912.592 1.568 1.408 1.568.832 0 1.424-.656 1.424-1.568zm1.68 5.728c0-1.504 1.056-2.672 2.64-2.672s2.656 1.168 2.656 2.672c0 1.488-1.072 2.624-2.656 2.624s-2.64-1.136-2.64-2.624zm4.064 0c0-.96-.592-1.6-1.424-1.6s-1.408.64-1.408 1.6c0 .928.576 1.568 1.408 1.568s1.424-.64 1.424-1.568zm68.544-.304c0-1.36 1.104-2.336 2.4-2.768-1.2-.384-2.224-1.168-2.224-2.528 0-1.968 2.016-2.8 3.92-2.8 1.872 0 3.92.832 3.92 2.8 0 1.36-1.04 2.144-2.24 2.528 1.296.432 2.4 1.408 2.4 2.768 0 1.904-1.904 2.928-4.08 2.928-2.192 0-4.096-1.008-4.096-2.928zm6.112-5.008c0-.896-.88-1.424-2.016-1.424-1.168 0-2.032.528-2.032 1.424 0 1.008 1.376 1.392 2.032 1.504.656-.112 2.016-.496 2.016-1.504zm.176 4.768c0-1.104-1.536-1.6-2.192-1.68-.672.08-2.208.576-2.208 1.68 0 .928.992 1.504 2.208 1.504 1.184 0 2.192-.576 2.192-1.504zm3.216-2.352c0-2.688 1.28-5.504 4.272-5.504s4.272 2.816 4.272 5.504c0 2.688-1.28 5.52-4.272 5.52s-4.272-2.832-4.272-5.52zm6.64 0c0-2.032-.624-3.84-2.368-3.84-1.744 0-2.368 1.808-2.368 3.84s.624 3.856 2.368 3.856c1.744 0 2.368-1.824 2.368-3.856zm3.008-2.832c0-1.504 1.056-2.672 2.64-2.672 1.6 0 2.672 1.168 2.672 2.672 0 1.488-1.072 2.624-2.672 2.624-1.584 0-2.64-1.136-2.64-2.624zm1.616 8.16l6.816-10.672h1.072L241.84 47h-1.056zm2.448-8.16c0-.96-.592-1.6-1.424-1.6-.816 0-1.408.64-1.408 1.6 0 .912.592 1.568 1.408 1.568.832 0 1.424-.656 1.424-1.568zm1.68 5.728c0-1.504 1.056-2.672 2.64-2.672s2.656 1.168 2.656 2.672c0 1.488-1.072 2.624-2.656 2.624s-2.64-1.136-2.64-2.624zm4.064 0c0-.96-.592-1.6-1.424-1.6s-1.408.64-1.408 1.6c0 .928.576 1.568 1.408 1.568s1.424-.64 1.424-1.568zm67.504 1.424l.864-1.408c.56.576 1.184.928 2.192.928 1.936 0 2.816-1.76 2.816-3.504v-.32c-.496.72-1.616 1.504-2.864 1.504-1.92 0-3.584-1.184-3.584-3.456 0-1.968 1.552-3.584 3.936-3.584 3.136 0 4.4 2.544 4.4 5.52 0 3.072-1.616 5.504-4.704 5.504-1.312 0-2.336-.464-3.056-1.184zm5.84-5.664c-.096-1.152-.736-2.512-2.384-2.512-1.392 0-2.128 1.008-2.128 1.856 0 1.312 1.024 1.904 2.176 1.904.912 0 1.808-.48 2.336-1.248zm3.248 1.344c0-2.688 1.28-5.504 4.272-5.504s4.272 2.816 4.272 5.504c0 2.688-1.28 5.52-4.272 5.52s-4.272-2.832-4.272-5.52zm6.64 0c0-2.032-.624-3.84-2.368-3.84-1.744 0-2.368 1.808-2.368 3.84s.624 3.856 2.368 3.856c1.744 0 2.368-1.824 2.368-3.856zm3.008-2.832c0-1.504 1.056-2.672 2.64-2.672 1.6 0 2.672 1.168 2.672 2.672 0 1.488-1.072 2.624-2.672 2.624-1.584 0-2.64-1.136-2.64-2.624zm1.616 8.16l6.816-10.672h1.072L337.888 47h-1.056zm2.448-8.16c0-.96-.592-1.6-1.424-1.6-.816 0-1.408.64-1.408 1.6 0 .912.592 1.568 1.408 1.568.832 0 1.424-.656 1.424-1.568zm1.68 5.728c0-1.504 1.056-2.672 2.64-2.672s2.656 1.168 2.656 2.672c0 1.488-1.072 2.624-2.656 2.624s-2.64-1.136-2.64-2.624zm4.064 0c0-.96-.592-1.6-1.424-1.6s-1.408.64-1.408 1.6c0 .928.576 1.568 1.408 1.568s1.424-.64 1.424-1.568z" fill="#FFF"/></g></svg>