<svg width="565" height="103" xmlns="http://www.w3.org/2000/svg"><g fill="none"><path fill="#121C4F" d="M0 0h84v84H0z"/><path fill="#293260" d="M96 0h84v84H96z"/><path fill="#585F83" d="M289 0h84v84h-84z"/><path fill="#414972" d="M192 0h84v84h-84z"/><path fill="#707695" d="M385 0h84v84h-84z"/><path fill="#888DA7" d="M481 0h84v84h-84z"/><path fill="#3452F4" d="M0 95h565v8H0z"/><path d="M31.76 41.672c0-2.688 1.28-5.504 4.272-5.504s4.272 2.816 4.272 5.504c0 2.688-1.28 5.52-4.272 5.52s-4.272-2.832-4.272-5.52zm6.64 0c0-2.032-.624-3.84-2.368-3.84-1.744 0-2.368 1.808-2.368 3.84s.624 3.856 2.368 3.856c1.744 0 2.368-1.824 2.368-3.856zm3.008-2.832c0-1.504 1.056-2.672 2.64-2.672 1.6 0 2.672 1.168 2.672 2.672 0 1.488-1.072 2.624-2.672 2.624-1.584 0-2.64-1.136-2.64-2.624zM43.024 47l6.816-10.672h1.072L44.08 47h-1.056zm2.448-8.16c0-.96-.592-1.6-1.424-1.6-.816 0-1.408.64-1.408 1.6 0 .912.592 1.568 1.408 1.568.832 0 1.424-.656 1.424-1.568zm1.68 5.728c0-1.504 1.056-2.672 2.64-2.672s2.656 1.168 2.656 2.672c0 1.488-1.072 2.624-2.656 2.624s-2.64-1.136-2.64-2.624zm4.064 0c0-.96-.592-1.6-1.424-1.6s-1.408.64-1.408 1.6c0 .928.576 1.568 1.408 1.568s1.424-.64 1.424-1.568zM127.136 47v-8.24l-1.744 1.808-1.088-1.136 3.072-3.104h1.632V47h-1.872zm3.664-5.328c0-2.688 1.28-5.504 4.272-5.504s4.272 2.816 4.272 5.504c0 2.688-1.28 5.52-4.272 5.52s-4.272-2.832-4.272-5.52zm6.64 0c0-2.032-.624-3.84-2.368-3.84-1.744 0-2.368 1.808-2.368 3.84s.624 3.856 2.368 3.856c1.744 0 2.368-1.824 2.368-3.856zm3.008-2.832c0-1.504 1.056-2.672 2.64-2.672 1.6 0 2.672 1.168 2.672 2.672 0 1.488-1.072 2.624-2.672 2.624-1.584 0-2.64-1.136-2.64-2.624zm1.616 8.16l6.816-10.672h1.072L143.12 47h-1.056zm2.448-8.16c0-.96-.592-1.6-1.424-1.6-.816 0-1.408.64-1.408 1.6 0 .912.592 1.568 1.408 1.568.832 0 1.424-.656 1.424-1.568zm1.68 5.728c0-1.504 1.056-2.672 2.64-2.672s2.656 1.168 2.656 2.672c0 1.488-1.072 2.624-2.656 2.624s-2.64-1.136-2.64-2.624zm4.064 0c0-.96-.592-1.6-1.424-1.6s-1.408.64-1.408 1.6c0 .928.576 1.568 1.408 1.568s1.424-.64 1.424-1.568zm165.64.896l1.008-1.232c.688.8 1.824 1.296 2.96 1.296 1.408 0 2.224-.64 2.224-1.632 0-1.056-.848-1.504-2.368-1.504-.448 0-1.072 0-1.232.016v-1.68c.192.016.816.016 1.232.016 1.248 0 2.192-.432 2.192-1.408 0-.992-.96-1.504-2.16-1.504-1.088 0-1.984.416-2.752 1.184l-.96-1.168c.816-.96 2.112-1.68 3.888-1.68 2.304 0 3.856 1.088 3.856 2.88 0 1.424-1.216 2.256-2.32 2.448 1.04.096 2.48.944 2.48 2.592 0 1.808-1.552 3.104-4.016 3.104-1.904 0-3.312-.768-4.032-1.728zm9.456-3.792c0-2.688 1.28-5.504 4.272-5.504s4.272 2.816 4.272 5.504c0 2.688-1.28 5.52-4.272 5.52s-4.272-2.832-4.272-5.52zm6.64 0c0-2.032-.624-3.84-2.368-3.84-1.744 0-2.368 1.808-2.368 3.84s.624 3.856 2.368 3.856c1.744 0 2.368-1.824 2.368-3.856zM335 38.84c0-1.504 1.056-2.672 2.64-2.672 1.6 0 2.672 1.168 2.672 2.672 0 1.488-1.072 2.624-2.672 2.624-1.584 0-2.64-1.136-2.64-2.624zm1.616 8.16l6.816-10.672h1.072L337.672 47h-1.056zm2.448-8.16c0-.96-.592-1.6-1.424-1.6-.816 0-1.408.64-1.408 1.6 0 .912.592 1.568 1.408 1.568.832 0 1.424-.656 1.424-1.568zm1.68 5.728c0-1.504 1.056-2.672 2.64-2.672s2.656 1.168 2.656 2.672c0 1.488-1.072 2.624-2.656 2.624s-2.64-1.136-2.64-2.624zm4.064 0c0-.96-.592-1.6-1.424-1.6s-1.408.64-1.408 1.6c0 .928.576 1.568 1.408 1.568s1.424-.64 1.424-1.568zM219.144 47v-1.472c4.144-3.136 5.76-4.528 5.76-6.064 0-1.12-.96-1.632-1.936-1.632-1.248 0-2.208.512-2.88 1.28L219 37.88c.944-1.136 2.448-1.712 3.936-1.712 2.064 0 3.872 1.168 3.872 3.296 0 1.968-1.808 3.728-4.672 5.888h4.736V47h-7.728zm9.376-5.328c0-2.688 1.28-5.504 4.272-5.504s4.272 2.816 4.272 5.504c0 2.688-1.28 5.52-4.272 5.52s-4.272-2.832-4.272-5.52zm6.64 0c0-2.032-.624-3.84-2.368-3.84-1.744 0-2.368 1.808-2.368 3.84s.624 3.856 2.368 3.856c1.744 0 2.368-1.824 2.368-3.856zm3.008-2.832c0-1.504 1.056-2.672 2.64-2.672 1.6 0 2.672 1.168 2.672 2.672 0 1.488-1.072 2.624-2.672 2.624-1.584 0-2.64-1.136-2.64-2.624zm1.616 8.16l6.816-10.672h1.072L240.84 47h-1.056zm2.448-8.16c0-.96-.592-1.6-1.424-1.6-.816 0-1.408.64-1.408 1.6 0 .912.592 1.568 1.408 1.568.832 0 1.424-.656 1.424-1.568zm1.68 5.728c0-1.504 1.056-2.672 2.64-2.672s2.656 1.168 2.656 2.672c0 1.488-1.072 2.624-2.656 2.624s-2.64-1.136-2.64-2.624zm4.064 0c0-.96-.592-1.6-1.424-1.6s-1.408.64-1.408 1.6c0 .928.576 1.568 1.408 1.568s1.424-.64 1.424-1.568zM417 47v-2.416h-5.088V43.08l4.384-6.752h2.576v6.608h1.424v1.648h-1.424V47H417zm0-8.992l-3.248 4.928H417v-4.928zm4.4 3.664c0-2.688 1.28-5.504 4.272-5.504s4.272 2.816 4.272 5.504c0 2.688-1.28 5.52-4.272 5.52s-4.272-2.832-4.272-5.52zm6.64 0c0-2.032-.624-3.84-2.368-3.84-1.744 0-2.368 1.808-2.368 3.84s.624 3.856 2.368 3.856c1.744 0 2.368-1.824 2.368-3.856zm3.008-2.832c0-1.504 1.056-2.672 2.64-2.672 1.6 0 2.672 1.168 2.672 2.672 0 1.488-1.072 2.624-2.672 2.624-1.584 0-2.64-1.136-2.64-2.624zm1.616 8.16l6.816-10.672h1.072L433.72 47h-1.056zm2.448-8.16c0-.96-.592-1.6-1.424-1.6-.816 0-1.408.64-1.408 1.6 0 .912.592 1.568 1.408 1.568.832 0 1.424-.656 1.424-1.568zm1.68 5.728c0-1.504 1.056-2.672 2.64-2.672s2.656 1.168 2.656 2.672c0 1.488-1.072 2.624-2.656 2.624s-2.64-1.136-2.64-2.624zm4.064 0c0-.96-.592-1.6-1.424-1.6s-1.408.64-1.408 1.6c0 .928.576 1.568 1.408 1.568s1.424-.64 1.424-1.568zm67.344.976l1.072-1.28c.72.816 1.68 1.264 2.88 1.264 1.344 0 2.192-.832 2.192-1.872 0-1.152-.832-1.904-2.144-1.904-.912 0-1.664.288-2.336.928l-1.328-.384v-5.968h6.992v1.648h-5.12v3.088c.512-.512 1.392-.928 2.416-.928 1.792 0 3.408 1.264 3.408 3.44 0 2.224-1.68 3.616-4.064 3.616-1.84 0-3.104-.624-3.968-1.648zm9.36-3.872c0-2.688 1.28-5.504 4.272-5.504s4.272 2.816 4.272 5.504c0 2.688-1.28 5.52-4.272 5.52s-4.272-2.832-4.272-5.52zm6.64 0c0-2.032-.624-3.84-2.368-3.84-1.744 0-2.368 1.808-2.368 3.84s.624 3.856 2.368 3.856c1.744 0 2.368-1.824 2.368-3.856zm3.008-2.832c0-1.504 1.056-2.672 2.64-2.672 1.6 0 2.672 1.168 2.672 2.672 0 1.488-1.072 2.624-2.672 2.624-1.584 0-2.64-1.136-2.64-2.624zm1.616 8.16l6.816-10.672h1.072L529.88 47h-1.056zm2.448-8.16c0-.96-.592-1.6-1.424-1.6-.816 0-1.408.64-1.408 1.6 0 .912.592 1.568 1.408 1.568.832 0 1.424-.656 1.424-1.568zm1.68 5.728c0-1.504 1.056-2.672 2.64-2.672s2.656 1.168 2.656 2.672c0 1.488-1.072 2.624-2.656 2.624s-2.64-1.136-2.64-2.624zm4.064 0c0-.96-.592-1.6-1.424-1.6s-1.408.64-1.408 1.6c0 .928.576 1.568 1.408 1.568s1.424-.64 1.424-1.568z" fill="#FFF"/></g></svg>