<?xml version="1.0" encoding="UTF-8"?>
<svg width="373px" height="103px" viewBox="0 0 373 103" version="1.1" xmlns="http://www.w3.org/2000/svg" xmlns:xlink="http://www.w3.org/1999/xlink">
    <!-- Generator: Sketch 50.2 (55047) - http://www.bohemiancoding.com/sketch -->
    <title>Group 2</title>
    <desc>Created with Sketch.</desc>
    <defs></defs>
    <g id="Page-1" stroke="none" stroke-width="1" fill="none" fill-rule="evenodd">
        <g id="tints-do-dont-export" transform="translate(-578.000000, -38.000000)" fill-rule="nonzero">
            <g id="Group-2" transform="translate(578.000000, 38.000000)">
                <polygon id="Shape" fill="#A0A4B8" points="0 0 84 0 84 84 0 84"></polygon>
                <polygon id="Shape" fill="#B8BBCA" points="96 0 180 0 180 84 96 84"></polygon>
                <polygon id="Shape" fill="#CFD1DB" points="193 0 277 0 277 84 193 84"></polygon>
                <polygon id="Shape" fill="#E6E7ED" points="289 0 373 0 373 84 289 84"></polygon>
                <polygon id="Shape" fill="#FF4141" points="0 95 373 95 373 103 0 103"></polygon>
                <g id="Group" transform="translate(26.000000, 36.000000)" fill="#FFFFFF">
                    <path d="M0.952,5.688 C0.952,2.6 2.568,0.168 5.656,0.168 C6.984,0.168 8.008,0.648 8.728,1.352 L7.848,2.776 C7.288,2.184 6.68,1.832 5.656,1.832 C3.88,1.832 2.84,3.48 2.84,5.352 C2.84,5.464 2.84,5.56 2.856,5.656 C3.336,4.936 4.456,4.168 5.72,4.168 C7.64,4.168 9.288,5.336 9.288,7.608 C9.288,9.592 7.736,11.192 5.352,11.192 C2.216,11.192 0.952,8.648 0.952,5.688 Z M7.4,7.672 C7.4,6.36 6.376,5.768 5.208,5.768 C4.296,5.768 3.416,6.264 2.872,7.032 C2.984,8.184 3.608,9.528 5.256,9.528 C6.664,9.528 7.4,8.536 7.4,7.672 Z M10.568,5.672 C10.568,2.984 11.848,0.168 14.84,0.168 C17.832,0.168 19.112,2.984 19.112,5.672 C19.112,8.36 17.832,11.192 14.84,11.192 C11.848,11.192 10.568,8.36 10.568,5.672 Z M17.208,5.672 C17.208,3.64 16.584,1.832 14.84,1.832 C13.096,1.832 12.472,3.64 12.472,5.672 C12.472,7.704 13.096,9.528 14.84,9.528 C16.584,9.528 17.208,7.704 17.208,5.672 Z M20.216,2.84 C20.216,1.336 21.272,0.168 22.856,0.168 C24.456,0.168 25.528,1.336 25.528,2.84 C25.528,4.328 24.456,5.464 22.856,5.464 C21.272,5.464 20.216,4.328 20.216,2.84 Z M21.832,11 L28.648,0.328 L29.72,0.328 L22.888,11 L21.832,11 Z M24.28,2.84 C24.28,1.88 23.688,1.24 22.856,1.24 C22.04,1.24 21.448,1.88 21.448,2.84 C21.448,3.752 22.04,4.408 22.856,4.408 C23.688,4.408 24.28,3.752 24.28,2.84 Z M25.96,8.568 C25.96,7.064 27.016,5.896 28.6,5.896 C30.184,5.896 31.256,7.064 31.256,8.568 C31.256,10.056 30.184,11.192 28.6,11.192 C27.016,11.192 25.96,10.056 25.96,8.568 Z M30.024,8.568 C30.024,7.608 29.432,6.968 28.6,6.968 C27.768,6.968 27.192,7.608 27.192,8.568 C27.192,9.496 27.768,10.136 28.6,10.136 C29.432,10.136 30.024,9.496 30.024,8.568 Z" id="Shape"></path>
                    <path d="M98.784,11 L102.816,1.976 L97.28,1.976 L97.28,0.328 L104.976,0.328 L104.976,1.624 L100.832,11 L98.784,11 Z M106.016,5.672 C106.016,2.984 107.296,0.168 110.288,0.168 C113.28,0.168 114.56,2.984 114.56,5.672 C114.56,8.36 113.28,11.192 110.288,11.192 C107.296,11.192 106.016,8.36 106.016,5.672 Z M112.656,5.672 C112.656,3.64 112.032,1.832 110.288,1.832 C108.544,1.832 107.92,3.64 107.92,5.672 C107.92,7.704 108.544,9.528 110.288,9.528 C112.032,9.528 112.656,7.704 112.656,5.672 Z M115.664,2.84 C115.664,1.336 116.72,0.168 118.304,0.168 C119.904,0.168 120.976,1.336 120.976,2.84 C120.976,4.328 119.904,5.464 118.304,5.464 C116.72,5.464 115.664,4.328 115.664,2.84 Z M117.28,11 L124.096,0.328 L125.168,0.328 L118.336,11 L117.28,11 Z M119.728,2.84 C119.728,1.88 119.136,1.24 118.304,1.24 C117.488,1.24 116.896,1.88 116.896,2.84 C116.896,3.752 117.488,4.408 118.304,4.408 C119.136,4.408 119.728,3.752 119.728,2.84 Z M121.408,8.568 C121.408,7.064 122.464,5.896 124.048,5.896 C125.632,5.896 126.704,7.064 126.704,8.568 C126.704,10.056 125.632,11.192 124.048,11.192 C122.464,11.192 121.408,10.056 121.408,8.568 Z M125.472,8.568 C125.472,7.608 124.88,6.968 124.048,6.968 C123.216,6.968 122.64,7.608 122.64,8.568 C122.64,9.496 123.216,10.136 124.048,10.136 C124.88,10.136 125.472,9.496 125.472,8.568 Z" id="Shape"></path>
                    <path d="M194.016,8.264 C194.016,6.904 195.12,5.928 196.416,5.496 C195.216,5.112 194.192,4.328 194.192,2.968 C194.192,1 196.208,0.168 198.112,0.168 C199.984,0.168 202.032,1 202.032,2.968 C202.032,4.328 200.992,5.112 199.792,5.496 C201.088,5.928 202.192,6.904 202.192,8.264 C202.192,10.168 200.288,11.192 198.112,11.192 C195.92,11.192 194.016,10.184 194.016,8.264 Z M200.128,3.256 C200.128,2.36 199.248,1.832 198.112,1.832 C196.944,1.832 196.08,2.36 196.08,3.256 C196.08,4.264 197.456,4.648 198.112,4.76 C198.768,4.648 200.128,4.264 200.128,3.256 Z M200.304,8.024 C200.304,6.92 198.768,6.424 198.112,6.344 C197.44,6.424 195.904,6.92 195.904,8.024 C195.904,8.952 196.896,9.528 198.112,9.528 C199.296,9.528 200.304,8.952 200.304,8.024 Z M203.52,5.672 C203.52,2.984 204.8,0.168 207.792,0.168 C210.784,0.168 212.064,2.984 212.064,5.672 C212.064,8.36 210.784,11.192 207.792,11.192 C204.8,11.192 203.52,8.36 203.52,5.672 Z M210.16,5.672 C210.16,3.64 209.536,1.832 207.792,1.832 C206.048,1.832 205.424,3.64 205.424,5.672 C205.424,7.704 206.048,9.528 207.792,9.528 C209.536,9.528 210.16,7.704 210.16,5.672 Z M213.168,2.84 C213.168,1.336 214.224,0.168 215.808,0.168 C217.408,0.168 218.48,1.336 218.48,2.84 C218.48,4.328 217.408,5.464 215.808,5.464 C214.224,5.464 213.168,4.328 213.168,2.84 Z M214.784,11 L221.6,0.328 L222.672,0.328 L215.84,11 L214.784,11 Z M217.232,2.84 C217.232,1.88 216.64,1.24 215.808,1.24 C214.992,1.24 214.4,1.88 214.4,2.84 C214.4,3.752 214.992,4.408 215.808,4.408 C216.64,4.408 217.232,3.752 217.232,2.84 Z M218.912,8.568 C218.912,7.064 219.968,5.896 221.552,5.896 C223.136,5.896 224.208,7.064 224.208,8.568 C224.208,10.056 223.136,11.192 221.552,11.192 C219.968,11.192 218.912,10.056 218.912,8.568 Z M222.976,8.568 C222.976,7.608 222.384,6.968 221.552,6.968 C220.72,6.968 220.144,7.608 220.144,8.568 C220.144,9.496 220.72,10.136 221.552,10.136 C222.384,10.136 222.976,9.496 222.976,8.568 Z" id="Shape"></path>
                    <path d="M290.48,9.992 L291.344,8.584 C291.904,9.16 292.528,9.512 293.536,9.512 C295.472,9.512 296.352,7.752 296.352,6.008 L296.352,5.688 C295.856,6.408 294.736,7.192 293.488,7.192 C291.568,7.192 289.904,6.008 289.904,3.736 C289.904,1.768 291.456,0.152 293.84,0.152 C296.976,0.152 298.24,2.696 298.24,5.672 C298.24,8.744 296.624,11.176 293.536,11.176 C292.224,11.176 291.2,10.712 290.48,9.992 Z M296.32,4.328 C296.224,3.176 295.584,1.816 293.936,1.816 C292.544,1.816 291.808,2.824 291.808,3.672 C291.808,4.984 292.832,5.576 293.984,5.576 C294.896,5.576 295.792,5.096 296.32,4.328 Z M299.568,5.672 C299.568,2.984 300.848,0.168 303.84,0.168 C306.832,0.168 308.112,2.984 308.112,5.672 C308.112,8.36 306.832,11.192 303.84,11.192 C300.848,11.192 299.568,8.36 299.568,5.672 Z M306.208,5.672 C306.208,3.64 305.584,1.832 303.84,1.832 C302.096,1.832 301.472,3.64 301.472,5.672 C301.472,7.704 302.096,9.528 303.84,9.528 C305.584,9.528 306.208,7.704 306.208,5.672 Z M309.216,2.84 C309.216,1.336 310.272,0.168 311.856,0.168 C313.456,0.168 314.528,1.336 314.528,2.84 C314.528,4.328 313.456,5.464 311.856,5.464 C310.272,5.464 309.216,4.328 309.216,2.84 Z M310.832,11 L317.648,0.328 L318.72,0.328 L311.888,11 L310.832,11 Z M313.28,2.84 C313.28,1.88 312.688,1.24 311.856,1.24 C311.04,1.24 310.448,1.88 310.448,2.84 C310.448,3.752 311.04,4.408 311.856,4.408 C312.688,4.408 313.28,3.752 313.28,2.84 Z M314.96,8.568 C314.96,7.064 316.016,5.896 317.6,5.896 C319.184,5.896 320.256,7.064 320.256,8.568 C320.256,10.056 319.184,11.192 317.6,11.192 C316.016,11.192 314.96,10.056 314.96,8.568 Z M319.024,8.568 C319.024,7.608 318.432,6.968 317.6,6.968 C316.768,6.968 316.192,7.608 316.192,8.568 C316.192,9.496 316.768,10.136 317.6,10.136 C318.432,10.136 319.024,9.496 319.024,8.568 Z" id="Shape"></path>
                </g>
            </g>
        </g>
    </g>
</svg>