<?xml version="1.0" encoding="UTF-8"?>
<svg width="565px" height="103px" viewBox="0 0 565 103" version="1.1" xmlns="http://www.w3.org/2000/svg" xmlns:xlink="http://www.w3.org/1999/xlink">
    <!-- Generator: Sketch 50.2 (55047) - http://www.bohemiancoding.com/sketch -->
    <title>Group 2</title>
    <desc>Created with Sketch.</desc>
    <defs></defs>
    <g id="Page-1" stroke="none" stroke-width="1" fill="none" fill-rule="evenodd">
        <g id="tints-do-dont-export" transform="translate(0.000000, -38.000000)" fill-rule="nonzero">
            <g id="Group-2" transform="translate(0.000000, 38.000000)">
                <polygon id="Shape" fill="#121C4F" points="0 0 84 0 84 84 0 84"></polygon>
                <polygon id="Shape" fill="#293260" points="96 0 180 0 180 84 96 84"></polygon>
                <polygon id="Shape" fill="#585F83" points="289 0 373 0 373 84 289 84"></polygon>
                <polygon id="Shape" fill="#414972" points="192 0 276 0 276 84 192 84"></polygon>
                <polygon id="Shape" fill="#707695" points="385 0 469 0 469 84 385 84"></polygon>
                <polygon id="Shape" fill="#888DA7" points="481 0 565 0 565 84 481 84"></polygon>
                <polygon id="Shape" fill="#3452F4" points="0 95 565 95 565 103 0 103"></polygon>
                <g id="Group" transform="translate(31.000000, 36.000000)" fill="#FFFFFF">
                    <path d="M0.76,5.672 C0.76,2.984 2.04,0.168 5.032,0.168 C8.024,0.168 9.304,2.984 9.304,5.672 C9.304,8.36 8.024,11.192 5.032,11.192 C2.04,11.192 0.76,8.36 0.76,5.672 Z M7.4,5.672 C7.4,3.64 6.776,1.832 5.032,1.832 C3.288,1.832 2.664,3.64 2.664,5.672 C2.664,7.704 3.288,9.528 5.032,9.528 C6.776,9.528 7.4,7.704 7.4,5.672 Z M10.408,2.84 C10.408,1.336 11.464,0.168 13.048,0.168 C14.648,0.168 15.72,1.336 15.72,2.84 C15.72,4.328 14.648,5.464 13.048,5.464 C11.464,5.464 10.408,4.328 10.408,2.84 Z M12.024,11 L18.84,0.328 L19.912,0.328 L13.08,11 L12.024,11 Z M14.472,2.84 C14.472,1.88 13.88,1.24 13.048,1.24 C12.232,1.24 11.64,1.88 11.64,2.84 C11.64,3.752 12.232,4.408 13.048,4.408 C13.88,4.408 14.472,3.752 14.472,2.84 Z M16.152,8.568 C16.152,7.064 17.208,5.896 18.792,5.896 C20.376,5.896 21.448,7.064 21.448,8.568 C21.448,10.056 20.376,11.192 18.792,11.192 C17.208,11.192 16.152,10.056 16.152,8.568 Z M20.216,8.568 C20.216,7.608 19.624,6.968 18.792,6.968 C17.96,6.968 17.384,7.608 17.384,8.568 C17.384,9.496 17.96,10.136 18.792,10.136 C19.624,10.136 20.216,9.496 20.216,8.568 Z" id="Shape"></path>
                    <path d="M96.136,11 L96.136,2.76 L94.392,4.568 L93.304,3.432 L96.376,0.328 L98.008,0.328 L98.008,11 L96.136,11 Z M99.8,5.672 C99.8,2.984 101.08,0.168 104.072,0.168 C107.064,0.168 108.344,2.984 108.344,5.672 C108.344,8.36 107.064,11.192 104.072,11.192 C101.08,11.192 99.8,8.36 99.8,5.672 Z M106.44,5.672 C106.44,3.64 105.816,1.832 104.072,1.832 C102.328,1.832 101.704,3.64 101.704,5.672 C101.704,7.704 102.328,9.528 104.072,9.528 C105.816,9.528 106.44,7.704 106.44,5.672 Z M109.448,2.84 C109.448,1.336 110.504,0.168 112.088,0.168 C113.688,0.168 114.76,1.336 114.76,2.84 C114.76,4.328 113.688,5.464 112.088,5.464 C110.504,5.464 109.448,4.328 109.448,2.84 Z M111.064,11 L117.88,0.328 L118.952,0.328 L112.12,11 L111.064,11 Z M113.512,2.84 C113.512,1.88 112.92,1.24 112.088,1.24 C111.272,1.24 110.68,1.88 110.68,2.84 C110.68,3.752 111.272,4.408 112.088,4.408 C112.92,4.408 113.512,3.752 113.512,2.84 Z M115.192,8.568 C115.192,7.064 116.248,5.896 117.832,5.896 C119.416,5.896 120.488,7.064 120.488,8.568 C120.488,10.056 119.416,11.192 117.832,11.192 C116.248,11.192 115.192,10.056 115.192,8.568 Z M119.256,8.568 C119.256,7.608 118.664,6.968 117.832,6.968 C117,6.968 116.424,7.608 116.424,8.568 C116.424,9.496 117,10.136 117.832,10.136 C118.664,10.136 119.256,9.496 119.256,8.568 Z" id="Shape"></path>
                    <path d="M284.896,9.464 L285.904,8.232 C286.592,9.032 287.728,9.528 288.864,9.528 C290.272,9.528 291.088,8.888 291.088,7.896 C291.088,6.84 290.24,6.392 288.72,6.392 C288.272,6.392 287.648,6.392 287.488,6.408 L287.488,4.728 C287.68,4.744 288.304,4.744 288.72,4.744 C289.968,4.744 290.912,4.312 290.912,3.336 C290.912,2.344 289.952,1.832 288.752,1.832 C287.664,1.832 286.768,2.248 286,3.016 L285.04,1.848 C285.856,0.888 287.152,0.168 288.928,0.168 C291.232,0.168 292.784,1.256 292.784,3.048 C292.784,4.472 291.568,5.304 290.464,5.496 C291.504,5.592 292.944,6.44 292.944,8.088 C292.944,9.896 291.392,11.192 288.928,11.192 C287.024,11.192 285.616,10.424 284.896,9.464 Z M294.352,5.672 C294.352,2.984 295.632,0.168 298.624,0.168 C301.616,0.168 302.896,2.984 302.896,5.672 C302.896,8.36 301.616,11.192 298.624,11.192 C295.632,11.192 294.352,8.36 294.352,5.672 Z M300.992,5.672 C300.992,3.64 300.368,1.832 298.624,1.832 C296.88,1.832 296.256,3.64 296.256,5.672 C296.256,7.704 296.88,9.528 298.624,9.528 C300.368,9.528 300.992,7.704 300.992,5.672 Z M304,2.84 C304,1.336 305.056,0.168 306.64,0.168 C308.24,0.168 309.312,1.336 309.312,2.84 C309.312,4.328 308.24,5.464 306.64,5.464 C305.056,5.464 304,4.328 304,2.84 Z M305.616,11 L312.432,0.328 L313.504,0.328 L306.672,11 L305.616,11 Z M308.064,2.84 C308.064,1.88 307.472,1.24 306.64,1.24 C305.824,1.24 305.232,1.88 305.232,2.84 C305.232,3.752 305.824,4.408 306.64,4.408 C307.472,4.408 308.064,3.752 308.064,2.84 Z M309.744,8.568 C309.744,7.064 310.8,5.896 312.384,5.896 C313.968,5.896 315.04,7.064 315.04,8.568 C315.04,10.056 313.968,11.192 312.384,11.192 C310.8,11.192 309.744,10.056 309.744,8.568 Z M313.808,8.568 C313.808,7.608 313.216,6.968 312.384,6.968 C311.552,6.968 310.976,7.608 310.976,8.568 C310.976,9.496 311.552,10.136 312.384,10.136 C313.216,10.136 313.808,9.496 313.808,8.568 Z" id="Shape"></path>
                    <path d="M188.144,11 L188.144,9.528 C192.288,6.392 193.904,5 193.904,3.464 C193.904,2.344 192.944,1.832 191.968,1.832 C190.72,1.832 189.76,2.344 189.088,3.112 L188,1.88 C188.944,0.744 190.448,0.168 191.936,0.168 C194,0.168 195.808,1.336 195.808,3.464 C195.808,5.432 194,7.192 191.136,9.352 L195.872,9.352 L195.872,11 L188.144,11 Z M197.52,5.672 C197.52,2.984 198.8,0.168 201.792,0.168 C204.784,0.168 206.064,2.984 206.064,5.672 C206.064,8.36 204.784,11.192 201.792,11.192 C198.8,11.192 197.52,8.36 197.52,5.672 Z M204.16,5.672 C204.16,3.64 203.536,1.832 201.792,1.832 C200.048,1.832 199.424,3.64 199.424,5.672 C199.424,7.704 200.048,9.528 201.792,9.528 C203.536,9.528 204.16,7.704 204.16,5.672 Z M207.168,2.84 C207.168,1.336 208.224,0.168 209.808,0.168 C211.408,0.168 212.48,1.336 212.48,2.84 C212.48,4.328 211.408,5.464 209.808,5.464 C208.224,5.464 207.168,4.328 207.168,2.84 Z M208.784,11 L215.6,0.328 L216.672,0.328 L209.84,11 L208.784,11 Z M211.232,2.84 C211.232,1.88 210.64,1.24 209.808,1.24 C208.992,1.24 208.4,1.88 208.4,2.84 C208.4,3.752 208.992,4.408 209.808,4.408 C210.64,4.408 211.232,3.752 211.232,2.84 Z M212.912,8.568 C212.912,7.064 213.968,5.896 215.552,5.896 C217.136,5.896 218.208,7.064 218.208,8.568 C218.208,10.056 217.136,11.192 215.552,11.192 C213.968,11.192 212.912,10.056 212.912,8.568 Z M216.976,8.568 C216.976,7.608 216.384,6.968 215.552,6.968 C214.72,6.968 214.144,7.608 214.144,8.568 C214.144,9.496 214.72,10.136 215.552,10.136 C216.384,10.136 216.976,9.496 216.976,8.568 Z" id="Shape"></path>
                    <path d="M386,11 L386,8.584 L380.912,8.584 L380.912,7.08 L385.296,0.328 L387.872,0.328 L387.872,6.936 L389.296,6.936 L389.296,8.584 L387.872,8.584 L387.872,11 L386,11 Z M386,2.008 L382.752,6.936 L386,6.936 L386,2.008 Z M390.4,5.672 C390.4,2.984 391.68,0.168 394.672,0.168 C397.664,0.168 398.944,2.984 398.944,5.672 C398.944,8.36 397.664,11.192 394.672,11.192 C391.68,11.192 390.4,8.36 390.4,5.672 Z M397.04,5.672 C397.04,3.64 396.416,1.832 394.672,1.832 C392.928,1.832 392.304,3.64 392.304,5.672 C392.304,7.704 392.928,9.528 394.672,9.528 C396.416,9.528 397.04,7.704 397.04,5.672 Z M400.048,2.84 C400.048,1.336 401.104,0.168 402.688,0.168 C404.288,0.168 405.36,1.336 405.36,2.84 C405.36,4.328 404.288,5.464 402.688,5.464 C401.104,5.464 400.048,4.328 400.048,2.84 Z M401.664,11 L408.48,0.328 L409.552,0.328 L402.72,11 L401.664,11 Z M404.112,2.84 C404.112,1.88 403.52,1.24 402.688,1.24 C401.872,1.24 401.28,1.88 401.28,2.84 C401.28,3.752 401.872,4.408 402.688,4.408 C403.52,4.408 404.112,3.752 404.112,2.84 Z M405.792,8.568 C405.792,7.064 406.848,5.896 408.432,5.896 C410.016,5.896 411.088,7.064 411.088,8.568 C411.088,10.056 410.016,11.192 408.432,11.192 C406.848,11.192 405.792,10.056 405.792,8.568 Z M409.856,8.568 C409.856,7.608 409.264,6.968 408.432,6.968 C407.6,6.968 407.024,7.608 407.024,8.568 C407.024,9.496 407.6,10.136 408.432,10.136 C409.264,10.136 409.856,9.496 409.856,8.568 Z" id="Shape"></path>
                    <path d="M477.2,9.544 L478.272,8.264 C478.992,9.08 479.952,9.528 481.152,9.528 C482.496,9.528 483.344,8.696 483.344,7.656 C483.344,6.504 482.512,5.752 481.2,5.752 C480.288,5.752 479.536,6.04 478.864,6.68 L477.536,6.296 L477.536,0.328 L484.528,0.328 L484.528,1.976 L479.408,1.976 L479.408,5.064 C479.92,4.552 480.8,4.136 481.824,4.136 C483.616,4.136 485.232,5.4 485.232,7.576 C485.232,9.8 483.552,11.192 481.168,11.192 C479.328,11.192 478.064,10.568 477.2,9.544 Z M486.56,5.672 C486.56,2.984 487.84,0.168 490.832,0.168 C493.824,0.168 495.104,2.984 495.104,5.672 C495.104,8.36 493.824,11.192 490.832,11.192 C487.84,11.192 486.56,8.36 486.56,5.672 Z M493.2,5.672 C493.2,3.64 492.576,1.832 490.832,1.832 C489.088,1.832 488.464,3.64 488.464,5.672 C488.464,7.704 489.088,9.528 490.832,9.528 C492.576,9.528 493.2,7.704 493.2,5.672 Z M496.208,2.84 C496.208,1.336 497.264,0.168 498.848,0.168 C500.448,0.168 501.52,1.336 501.52,2.84 C501.52,4.328 500.448,5.464 498.848,5.464 C497.264,5.464 496.208,4.328 496.208,2.84 Z M497.824,11 L504.64,0.328 L505.712,0.328 L498.88,11 L497.824,11 Z M500.272,2.84 C500.272,1.88 499.68,1.24 498.848,1.24 C498.032,1.24 497.44,1.88 497.44,2.84 C497.44,3.752 498.032,4.408 498.848,4.408 C499.68,4.408 500.272,3.752 500.272,2.84 Z M501.952,8.568 C501.952,7.064 503.008,5.896 504.592,5.896 C506.176,5.896 507.248,7.064 507.248,8.568 C507.248,10.056 506.176,11.192 504.592,11.192 C503.008,11.192 501.952,10.056 501.952,8.568 Z M506.016,8.568 C506.016,7.608 505.424,6.968 504.592,6.968 C503.76,6.968 503.184,7.608 503.184,8.568 C503.184,9.496 503.76,10.136 504.592,10.136 C505.424,10.136 506.016,9.496 506.016,8.568 Z" id="Shape"></path>
                </g>
            </g>
        </g>
    </g>
</svg>