<svg width="418" height="179" xmlns="http://www.w3.org/2000/svg"><g fill="none" fill-rule="evenodd"><path fill="#6A7792" d="M0 0h418v151.941H0z"/><path d="M40.566 49h1.116V37.642h.252l3.924 10.944h1.314l3.924-10.944h.252V49h1.116V36.49h-2.088l-3.852 10.944-3.87-10.944h-2.088V49zm18.216-9.18c2.772 0 3.762 1.368 3.762 4.554 0 3.402-.756 4.806-3.762 4.806-3.024 0-3.78-1.404-3.78-4.806 0-3.186.99-4.554 3.78-4.554zm0 8.406c2.322 0 2.664-1.098 2.664-3.852 0-2.7-.612-3.6-2.664-3.6-2.07 0-2.664.9-2.664 3.6 0 2.754.324 3.852 2.664 3.852zm9.954-8.406c2.448 0 3.204 1.35 3.204 4.536 0 3.492-.9 4.824-4.212 4.824-1.134 0-2.88-.18-2.88-.18V36.004h1.08v4.482s1.404-.666 2.808-.666zm-1.008 8.388c2.664 0 3.096-1.188 3.096-3.852 0-2.448-.45-3.564-2.178-3.564-1.386 0-2.718.612-2.718.612V48.1s1.26.108 1.8.108zm6.516.792h1.062v-9h-1.062v9zm0-11.25h1.062V36.4h-1.062v1.35zM78.114 49h1.062V36.004h-1.062V49zm7.074-.792c1.314 0 3.294-.162 3.294-.162l.036.882s-2.034.252-3.438.252c-2.682-.018-3.492-1.638-3.492-4.644 0-3.474 1.512-4.716 3.708-4.716 2.322 0 3.546 1.242 3.546 4.266l-.036.864h-6.12c0 2.124.612 3.258 2.502 3.258zm-2.502-4.158h5.076c0-2.43-.774-3.294-2.466-3.294-1.638 0-2.61.9-2.61 3.294zm15.732-4.23c2.772 0 3.762 1.368 3.762 4.554 0 3.402-.756 4.806-3.762 4.806-3.024 0-3.78-1.404-3.78-4.806 0-3.186.99-4.554 3.78-4.554zm0 8.406c2.322 0 2.664-1.098 2.664-3.852 0-2.7-.612-3.6-2.664-3.6-2.07 0-2.664.9-2.664 3.6 0 2.754.324 3.852 2.664 3.852zm7.146.774v-7.452s1.368-.756 2.772-.756c1.8 0 2.088.882 2.088 3.528V49h1.08v-4.734c0-3.294-.54-4.446-3.006-4.446-1.422 0-2.934.846-2.934.846V40h-1.062v9h1.062zm17.046-8.046V40h-3.006v-2.826h-1.08V40h-1.332v.954h1.332v4.986c0 2.592.648 3.258 2.43 3.258.63 0 1.818-.18 1.818-.18l-.072-.918s-1.152.126-1.656.126c-1.296 0-1.44-.576-1.44-2.826v-4.446h3.006zM125.364 49v-7.596s1.368-.612 2.772-.612c1.782 0 2.07.882 2.07 3.528V49h1.08v-4.734c0-3.294-.54-4.446-3.006-4.446-1.404 0-2.916.702-2.916.702v-4.518h-1.062V49h1.062zm11.736-.792c1.314 0 3.294-.162 3.294-.162l.036.882s-2.034.252-3.438.252c-2.682-.018-3.492-1.638-3.492-4.644 0-3.474 1.512-4.716 3.708-4.716 2.322 0 3.546 1.242 3.546 4.266l-.036.864h-6.12c0 2.124.612 3.258 2.502 3.258zm-2.502-4.158h5.076c0-2.43-.774-3.294-2.466-3.294-1.638 0-2.61.9-2.61 3.294zm12.546-7.56h4.446c2.43 0 3.69.972 3.69 3.15 0 1.674-.648 2.484-1.656 2.916 1.098.342 2.07 1.116 2.07 2.97 0 2.664-1.512 3.474-3.834 3.474h-4.716V36.49zm4.59 6.624h-3.474v4.896h3.582c1.62 0 2.718-.54 2.718-2.52 0-2.178-1.89-2.376-2.826-2.376zm-.18-5.634h-3.294v4.662h3.456c1.71 0 2.43-.81 2.43-2.43 0-1.548-.846-2.232-2.592-2.232zM163.722 40v7.452s-1.224.756-2.646.756c-1.8 0-2.07-.846-2.07-3.528V40h-1.062v4.698c0 3.366.504 4.482 3.006 4.482 1.386 0 2.772-.846 2.772-.846V49h1.062v-9h-1.062zm2.898 0l2.646 9h1.242l-1.206 4.05h1.08L174.27 40h-1.098l-2.412 8.064h-.648L167.718 40h-1.098zm12.672 8.208c1.314 0 3.294-.162 3.294-.162l.036.882s-2.034.252-3.438.252c-2.682-.018-3.492-1.638-3.492-4.644 0-3.474 1.512-4.716 3.708-4.716 2.322 0 3.546 1.242 3.546 4.266l-.036.864h-6.12c0 2.124.612 3.258 2.502 3.258zm-2.502-4.158h5.076c0-2.43-.774-3.294-2.466-3.294-1.638 0-2.61.9-2.61 3.294zm8.37 4.95h1.062v-6.75s1.674-.99 3.402-1.35v-1.08c-1.836.342-3.402 1.476-3.402 1.476V40h-1.062v9zm5.778-9.054h.864l1.044-3.798h-1.152l-.756 3.798zm9.918.198s-1.836-.306-3.186-.306c-1.566 0-3.186.576-3.186 2.538 0 1.746.954 2.124 3.024 2.448 2.016.306 2.556.54 2.556 1.62 0 1.404-.9 1.764-2.448 1.764-.918 0-2.934-.306-2.934-.306l-.072.954s1.98.324 3.078.324c2.16 0 3.474-.684 3.474-2.79 0-1.728-.864-2.142-3.168-2.52-1.962-.324-2.412-.594-2.412-1.53 0-1.224 1.008-1.53 2.124-1.53 1.188 0 3.114.288 3.114.288l.036-.954zm11.232 4.5h-3.456V49h-1.116V36.49h4.572c2.682 0 3.888 1.296 3.888 3.96 0 2.682-1.206 4.194-3.888 4.194zm-3.456-.99h3.456c1.944 0 2.736-1.17 2.736-3.204 0-2.016-.792-2.97-2.736-2.97h-3.456v6.174zm15.534-.972v4.824c.054.54.576.72 1.17.792l-.054.864c-.882 0-1.548-.18-2.034-.72 0 0-1.692.738-3.384.738-1.584 0-2.466-.918-2.466-2.718 0-1.656.828-2.448 2.646-2.628l3.06-.306v-.846c0-1.368-.612-1.89-1.764-1.89-1.296 0-3.402.27-3.402.27l-.054-.864s1.98-.378 3.492-.378c1.962 0 2.79.954 2.79 2.862zm-1.062 1.692l-2.934.306c-1.206.108-1.656.684-1.656 1.764 0 1.152.504 1.818 1.494 1.818 1.458 0 3.096-.63 3.096-.63v-3.258zm8.406-3.42V40h-3.006v-2.826h-1.08V40h-1.332v.954h1.332v4.986c0 2.592.648 3.258 2.43 3.258.63 0 1.818-.18 1.818-.18l-.072-.918s-1.152.126-1.656.126c-1.296 0-1.44-.576-1.44-2.826v-4.446h3.006zM234.264 49v-7.596s1.368-.612 2.772-.612c1.782 0 2.07.882 2.07 3.528V49h1.08v-4.734c0-3.294-.54-4.446-3.006-4.446-1.404 0-2.916.702-2.916.702v-4.518h-1.062V49h1.062zm8.442-5.94h1.188v-1.836h-1.188v1.836zm0 5.94h1.188v-1.818h-1.188V49zm15.408-1.17c-.882.162-2.178.342-3.222.342-3.024 0-3.492-1.854-3.492-5.382 0-3.564.45-5.472 3.474-5.472 1.008 0 2.448.198 3.24.342l.054-.972c-.81-.162-2.124-.378-3.384-.378-3.798 0-4.536 2.376-4.536 6.48 0 4.068.81 6.39 4.536 6.39 1.188 0 2.502-.198 3.384-.378l-.054-.972zm2.16 1.17h1.062v-6.75s1.674-.99 3.402-1.35v-1.08c-1.836.342-3.402 1.476-3.402 1.476V40h-1.062v9zm9.306-.792c1.314 0 3.294-.162 3.294-.162l.036.882s-2.034.252-3.438.252c-2.682-.018-3.492-1.638-3.492-4.644 0-3.474 1.512-4.716 3.708-4.716 2.322 0 3.546 1.242 3.546 4.266l-.036.864h-6.12c0 2.124.612 3.258 2.502 3.258zm-2.502-4.158h5.076c0-2.43-.774-3.294-2.466-3.294-1.638 0-2.61.9-2.61 3.294zm14.562-1.368v4.824c.054.54.576.72 1.17.792l-.054.864c-.882 0-1.548-.18-2.034-.72 0 0-1.692.738-3.384.738-1.584 0-2.466-.918-2.466-2.718 0-1.656.828-2.448 2.646-2.628l3.06-.306v-.846c0-1.368-.612-1.89-1.764-1.89-1.296 0-3.402.27-3.402.27l-.054-.864s1.98-.378 3.492-.378c1.962 0 2.79.954 2.79 2.862zm-1.062 1.692l-2.934.306c-1.206.108-1.656.684-1.656 1.764 0 1.152.504 1.818 1.494 1.818 1.458 0 3.096-.63 3.096-.63v-3.258zm8.406-3.42V40h-3.006v-2.826h-1.08V40h-1.332v.954h1.332v4.986c0 2.592.648 3.258 2.43 3.258.63 0 1.818-.18 1.818-.18l-.072-.918s-1.152.126-1.656.126c-1.296 0-1.44-.576-1.44-2.826v-4.446h3.006zM290.676 49h1.062v-9h-1.062v9zm0-11.25h1.062V36.4h-1.062v1.35zM295.5 49v-7.452s1.368-.756 2.772-.756c1.8 0 2.088.882 2.088 3.528V49h1.08v-4.734c0-3.294-.54-4.446-3.006-4.446-1.422 0-2.934.846-2.934.846V40h-1.062v9h1.062zm11.88 4.266c-2.898 0-3.744-.684-3.744-2.772 0-1.098.504-1.566 1.458-2.268-.306-.198-.45-.666-.45-1.224 0-.306.576-1.404.576-1.404-.774-.324-1.476-1.044-1.476-2.718 0-2.196 1.296-3.06 3.258-3.06.936 0 1.89.234 1.89.234l2.61-.054v.954l-1.8-.036c.378.378.648.9.648 1.962 0 2.286-1.134 3.006-3.402 3.006-.162 0-.72-.036-.918-.072 0 0-.36.882-.36 1.116 0 .774.144.864 2.286.882 2.448 0 3.366.432 3.366 2.61 0 2.016-1.35 2.844-3.942 2.844zm.504-4.5c-.684 0-2.034-.072-2.034-.072-.864.612-1.134.954-1.134 1.728 0 1.404.486 1.908 2.682 1.908 1.98 0 2.826-.54 2.826-1.872 0-1.53-.648-1.692-2.34-1.692zm-.882-3.78c1.656 0 2.25-.558 2.25-2.106 0-1.566-.594-2.16-2.25-2.16-1.512 0-2.16.594-2.16 2.16 0 1.548.648 2.106 2.16 2.106zm16.344-2.304v4.824c.054.54.576.72 1.17.792l-.054.864c-.882 0-1.548-.18-2.034-.72 0 0-1.692.738-3.384.738-1.584 0-2.466-.918-2.466-2.718 0-1.656.828-2.448 2.646-2.628l3.06-.306v-.846c0-1.368-.612-1.89-1.764-1.89-1.296 0-3.402.27-3.402.27l-.054-.864s1.98-.378 3.492-.378c1.962 0 2.79.954 2.79 2.862zm-1.062 1.692l-2.934.306c-1.206.108-1.656.684-1.656 1.764 0 1.152.504 1.818 1.494 1.818 1.458 0 3.096-.63 3.096-.63v-3.258zM40.566 76h1.116v-5.346h5.328v-.99h-5.328v-5.166h6.264V63.49h-7.38V76zm9.234 0h1.062v-6.75s1.674-.99 3.402-1.35v-1.08c-1.836.342-3.402 1.476-3.402 1.476V67H49.8v9zm12.294-6.318v4.824c.054.54.576.72 1.17.792l-.054.864c-.882 0-1.548-.18-2.034-.72 0 0-1.692.738-3.384.738-1.584 0-2.466-.918-2.466-2.718 0-1.656.828-2.448 2.646-2.628l3.06-.306v-.846c0-1.368-.612-1.89-1.764-1.89-1.296 0-3.402.27-3.402.27l-.054-.864s1.98-.378 3.492-.378c1.962 0 2.79.954 2.79 2.862zm-1.062 1.692l-2.934.306c-1.206.108-1.656.684-1.656 1.764 0 1.152.504 1.818 1.494 1.818 1.458 0 3.096-.63 3.096-.63v-3.258zM65.946 76v-7.452s1.224-.756 2.628-.756c1.764 0 2.052.864 2.052 3.564V76h1.08v-4.68c0-1.188-.072-2.268-.27-2.772 0 0 1.26-.756 2.736-.756 1.782 0 2.07.882 2.07 3.528V76h1.062v-4.734c0-3.33-.558-4.446-3.006-4.446-1.656 0-3.24.954-3.24.954-.45-.666-1.116-.954-2.358-.954-1.386 0-2.754.846-2.754.846V67h-1.062v9h1.062zm17.172-.792c1.314 0 3.294-.162 3.294-.162l.036.882s-2.034.252-3.438.252c-2.682-.018-3.492-1.638-3.492-4.644 0-3.474 1.512-4.716 3.708-4.716 2.322 0 3.546 1.242 3.546 4.266l-.036.864h-6.12c0 2.124.612 3.258 2.502 3.258zm-2.502-4.158h5.076c0-2.43-.774-3.294-2.466-3.294-1.638 0-2.61.9-2.61 3.294zM88.23 67l2.25 9h1.854l2.142-7.416L96.6 76h1.872l2.25-9h-1.098l-1.98 8.064h-.27l-2.34-7.884H93.9l-2.34 7.884h-.252L89.328 67H88.23zm17.838-.18c2.772 0 3.762 1.368 3.762 4.554 0 3.402-.756 4.806-3.762 4.806-3.024 0-3.78-1.404-3.78-4.806 0-3.186.99-4.554 3.78-4.554zm0 8.406c2.322 0 2.664-1.098 2.664-3.852 0-2.7-.612-3.6-2.664-3.6-2.07 0-2.664.9-2.664 3.6 0 2.754.324 3.852 2.664 3.852zm6.084.774h1.062v-6.75s1.674-.99 3.402-1.35v-1.08c-1.836.342-3.402 1.476-3.402 1.476V67h-1.062v9zm7.164 0v-4.302l1.548-.036 2.88 4.338h1.26l-3.222-4.878L124.86 67h-1.242l-2.772 3.708-1.53.036v-7.74h-1.062V76h1.062zm14.76-9.18c2.772 0 3.762 1.368 3.762 4.554 0 3.402-.756 4.806-3.762 4.806-3.024 0-3.78-1.404-3.78-4.806 0-3.186.99-4.554 3.78-4.554zm0 8.406c2.322 0 2.664-1.098 2.664-3.852 0-2.7-.612-3.6-2.664-3.6-2.07 0-2.664.9-2.664 3.6 0 2.754.324 3.852 2.664 3.852zm7.524-7.272h2.718V67H141.6v-.9c0-1.854.36-2.304 1.458-2.304.522 0 1.584.036 1.584.036v-.918s-1.134-.09-1.746-.09c-1.728 0-2.376.666-2.376 3.258V67h-1.17v.954h1.17V76h1.08v-8.046zm12.906 0V67H151.5v-2.826h-1.08V67h-1.332v.954h1.332v4.986c0 2.592.648 3.258 2.43 3.258.63 0 1.818-.18 1.818-.18l-.072-.918s-1.152.126-1.656.126c-1.296 0-1.44-.576-1.44-2.826v-4.446h3.006zM157.26 76v-7.596s1.368-.612 2.772-.612c1.782 0 2.07.882 2.07 3.528V76h1.08v-4.734c0-3.294-.54-4.446-3.006-4.446-1.404 0-2.916.702-2.916.702v-4.518h-1.062V76h1.062zm11.736-.792c1.314 0 3.294-.162 3.294-.162l.036.882s-2.034.252-3.438.252c-2.682-.018-3.492-1.638-3.492-4.644 0-3.474 1.512-4.716 3.708-4.716 2.322 0 3.546 1.242 3.546 4.266l-.036.864h-6.12c0 2.124.612 3.258 2.502 3.258zm-2.502-4.158h5.076c0-2.43-.774-3.294-2.466-3.294-1.638 0-2.61.9-2.61 3.294zm19.962 3.78c-.882.162-2.178.342-3.222.342-3.024 0-3.492-1.854-3.492-5.382 0-3.564.45-5.472 3.474-5.472 1.008 0 2.448.198 3.24.342l.054-.972c-.81-.162-2.124-.378-3.384-.378-3.798 0-4.536 2.376-4.536 6.48 0 4.068.81 6.39 4.536 6.39 1.188 0 2.502-.198 3.384-.378l-.054-.972zm5.562-8.01c2.772 0 3.762 1.368 3.762 4.554 0 3.402-.756 4.806-3.762 4.806-3.024 0-3.78-1.404-3.78-4.806 0-3.186.99-4.554 3.78-4.554zm0 8.406c2.322 0 2.664-1.098 2.664-3.852 0-2.7-.612-3.6-2.664-3.6-2.07 0-2.664.9-2.664 3.6 0 2.754.324 3.852 2.664 3.852zm7.146.774v-7.452s1.224-.756 2.628-.756c1.764 0 2.052.864 2.052 3.564V76h1.08v-4.68c0-1.188-.072-2.268-.27-2.772 0 0 1.26-.756 2.736-.756 1.782 0 2.07.882 2.07 3.528V76h1.062v-4.734c0-3.33-.558-4.446-3.006-4.446-1.656 0-3.24.954-3.24.954-.45-.666-1.116-.954-2.358-.954-1.386 0-2.754.846-2.754.846V67h-1.062v9h1.062zm13.968 4.05V67h1.062v.684s1.404-.864 2.844-.864c2.25 0 3.204 1.422 3.204 4.554 0 3.474-1.098 4.806-3.888 4.806-.9 0-1.836-.162-2.16-.234v4.104h-1.062zm3.798-12.258c-1.35 0-2.736.81-2.736.81v6.408c.306.054 1.26.216 2.124.216 2.088 0 2.808-1.08 2.808-3.852 0-2.628-.792-3.582-2.196-3.582zM222.654 76h1.062V63.004h-1.062V76zm7.074-.792c1.314 0 3.294-.162 3.294-.162l.036.882s-2.034.252-3.438.252c-2.682-.018-3.492-1.638-3.492-4.644 0-3.474 1.512-4.716 3.708-4.716 2.322 0 3.546 1.242 3.546 4.266l-.036.864h-6.12c0 2.124.612 3.258 2.502 3.258zm-2.502-4.158h5.076c0-2.43-.774-3.294-2.466-3.294-1.638 0-2.61.9-2.61 3.294zm12.924-3.096V67h-3.006v-2.826h-1.08V67h-1.332v.954h1.332v4.986c0 2.592.648 3.258 2.43 3.258.63 0 1.818-.18 1.818-.18l-.072-.918s-1.152.126-1.656.126c-1.296 0-1.44-.576-1.44-2.826v-4.446h3.006zm4.896 7.254c1.314 0 3.294-.162 3.294-.162l.036.882s-2.034.252-3.438.252c-2.682-.018-3.492-1.638-3.492-4.644 0-3.474 1.512-4.716 3.708-4.716 2.322 0 3.546 1.242 3.546 4.266l-.036.864h-6.12c0 2.124.612 3.258 2.502 3.258zm-2.502-4.158h5.076c0-2.43-.774-3.294-2.466-3.294-1.638 0-2.61.9-2.61 3.294zm19.962 3.78c-.882.162-2.178.342-3.222.342-3.024 0-3.492-1.854-3.492-5.382 0-3.564.45-5.472 3.474-5.472 1.008 0 2.448.198 3.24.342l.054-.972c-.81-.162-2.124-.378-3.384-.378-3.798 0-4.536 2.376-4.536 6.48 0 4.068.81 6.39 4.536 6.39 1.188 0 2.502-.198 3.384-.378l-.054-.972zm7.848-7.83v7.452s-1.224.756-2.646.756c-1.8 0-2.07-.846-2.07-3.528V67h-1.062v4.698c0 3.366.504 4.482 3.006 4.482 1.386 0 2.772-.846 2.772-.846V76h1.062v-9h-1.062zm9.63.144s-1.836-.306-3.186-.306c-1.566 0-3.186.576-3.186 2.538 0 1.746.954 2.124 3.024 2.448 2.016.306 2.556.54 2.556 1.62 0 1.404-.9 1.764-2.448 1.764-.918 0-2.934-.306-2.934-.306l-.072.954s1.98.324 3.078.324c2.16 0 3.474-.684 3.474-2.79 0-1.728-.864-2.142-3.168-2.52-1.962-.324-2.412-.594-2.412-1.53 0-1.224 1.008-1.53 2.124-1.53 1.188 0 3.114.288 3.114.288l.036-.954zm7.038.81V67h-3.006v-2.826h-1.08V67h-1.332v.954h1.332v4.986c0 2.592.648 3.258 2.43 3.258.63 0 1.818-.18 1.818-.18l-.072-.918s-1.152.126-1.656.126c-1.296 0-1.44-.576-1.44-2.826v-4.446h3.006zm5.094-1.134c2.772 0 3.762 1.368 3.762 4.554 0 3.402-.756 4.806-3.762 4.806-3.024 0-3.78-1.404-3.78-4.806 0-3.186.99-4.554 3.78-4.554zm0 8.406c2.322 0 2.664-1.098 2.664-3.852 0-2.7-.612-3.6-2.664-3.6-2.07 0-2.664.9-2.664 3.6 0 2.754.324 3.852 2.664 3.852zm7.146.774v-7.452s1.224-.756 2.628-.756c1.764 0 2.052.864 2.052 3.564V76h1.08v-4.68c0-1.188-.072-2.268-.27-2.772 0 0 1.26-.756 2.736-.756 1.782 0 2.07.882 2.07 3.528V76h1.062v-4.734c0-3.33-.558-4.446-3.006-4.446-1.656 0-3.24.954-3.24.954-.45-.666-1.116-.954-2.358-.954-1.386 0-2.754.846-2.754.846V67H298.2v9h1.062zm17.172-.792c1.314 0 3.294-.162 3.294-.162l.036.882s-2.034.252-3.438.252c-2.682-.018-3.492-1.638-3.492-4.644 0-3.474 1.512-4.716 3.708-4.716 2.322 0 3.546 1.242 3.546 4.266l-.036.864h-6.12c0 2.124.612 3.258 2.502 3.258zm-2.502-4.158h5.076c0-2.43-.774-3.294-2.466-3.294-1.638 0-2.61.9-2.61 3.294zm8.37 4.95h1.062v-6.75s1.674-.99 3.402-1.35v-1.08c-1.836.342-3.402 1.476-3.402 1.476V67h-1.062v9zM40.53 118h1.386v-10.98h.252l3.618 10.53h1.548l3.618-10.53h.252V118h1.386v-12.456h-2.502l-3.528 10.53-3.528-10.53H40.53V118zm21.24-6.282v4.608c.036.522.468.72 1.044.792l-.054 1.062c-.954 0-1.602-.18-2.142-.72 0 0-1.62.72-3.24.72-1.638 0-2.538-.936-2.538-2.754 0-1.728.9-2.484 2.754-2.664l2.826-.27v-.774c0-1.26-.54-1.71-1.62-1.71-1.26 0-3.402.234-3.402.234l-.054-1.026s1.98-.396 3.528-.396c2.034 0 2.898.936 2.898 2.898zm-1.35 1.8l-2.664.252c-1.098.108-1.53.63-1.53 1.62 0 1.044.45 1.656 1.368 1.656 1.332 0 2.826-.558 2.826-.558v-2.97zM63.588 109l2.556 9h1.332l-1.17 3.996h1.35L71.4 109h-1.35l-2.268 7.83h-.594l-2.25-7.83h-1.35zm14.13-.36l.63 1.044 3.06-2.016V118h1.386v-11.88h-1.296l-3.78 2.52zm16.956-2.394l-.126 1.134s-1.62-.216-3.132-.216c-2.07 0-3.204 1.476-3.204 4.104 0 .018 1.674-.702 2.97-.702 2.628 0 3.996 1.188 3.996 3.69 0 2.52-1.512 3.924-4.158 3.924-2.952 0-4.248-2.322-4.248-6.174 0-4.302 1.818-6.066 4.644-6.066 1.512 0 3.258.306 3.258.306zm-3.582 5.562c-1.386 0-2.898.684-2.898.684.018 2.538.774 4.464 2.826 4.464 1.764 0 2.718-.954 2.718-2.7 0-1.656-.99-2.448-2.646-2.448zm5.472 8.406h1.116l1.206-4.14h-1.494l-.828 4.14zm16.2-2.214v-1.206h-5.958l3.168-3.222c1.674-1.62 2.484-2.664 2.484-4.446 0-2.232-1.26-3.186-3.762-3.186-1.728 0-3.438.486-3.438.486l.108 1.152s1.764-.396 3.078-.396c1.71 0 2.592.504 2.592 2.088 0 1.404-.918 2.376-2.394 3.906l-3.474 3.654V118h7.596zm6.264-12.078c2.808 0 4.338 1.422 4.338 6.318 0 4.554-1.602 5.94-4.32 5.94s-4.338-1.35-4.338-5.922c0-4.896 1.584-6.336 4.32-6.336zm.018 1.242c-1.944 0-2.898 1.044-2.898 5.094 0 3.726 1.026 4.698 2.898 4.698s2.898-.99 2.898-4.716c0-3.996-.918-5.076-2.898-5.076zm6.966 1.476l.63 1.044 3.06-2.016V118h1.386v-11.88h-1.296l-3.78 2.52zm9.54-1.26h5.976v.468l-4.482 9.918 1.314.414 4.572-10.242v-1.818h-7.38v1.26z" fill="#FFF"/><path d="M1.404 178v-12.006h4.824c2.412 0 3.762 1.656 3.762 3.618s-1.386 3.618-3.762 3.618h-3.33V178H1.404zm7.038-8.388c0-1.35-.972-2.286-2.394-2.286h-3.15v4.572h3.15c1.422 0 2.394-.936 2.394-2.286zM11.916 178h1.35v-6.156c.396-.702 1.53-1.386 2.358-1.386.216 0 .378.018.54.054v-1.386c-1.188 0-2.196.666-2.898 1.584v-1.404h-1.35V178zm6.606-10.098a.907.907 0 00.918-.9.922.922 0 00-.918-.918c-.486 0-.9.414-.9.918s.414.9.9.9zM17.856 178h1.35v-8.694h-1.35V178zm9.918 0h1.35v-6.102c0-1.89-.954-2.808-2.772-2.808-1.296 0-2.484.756-3.096 1.476v-1.26h-1.35V178h1.35v-6.354c.504-.702 1.512-1.35 2.574-1.35 1.17 0 1.944.486 1.944 2.016V178zm6.246.216c.792 0 1.278-.234 1.62-.558l-.396-1.008c-.18.198-.54.36-.918.36-.594 0-.882-.468-.882-1.116v-5.4h1.764v-1.188h-1.764v-2.376h-1.35v2.376h-1.44v1.188h1.44v5.688c0 1.296.648 2.034 1.926 2.034z" fill="#071D49"/></g></svg>