<?xml version="1.0" encoding="UTF-8"?>
<svg width="418px" height="179px" viewBox="0 0 418 179" version="1.1" xmlns="http://www.w3.org/2000/svg" xmlns:xlink="http://www.w3.org/1999/xlink">
    <!-- Generator: Sketch 45.2 (43514) - http://www.bohemiancoding.com/sketch -->
    <title>Group 4</title>
    <desc>Created with Sketch.</desc>
    <defs></defs>
    <g id="Page-1" stroke="none" stroke-width="1" fill="none" fill-rule="evenodd">
        <g id="7-12-3" transform="translate(-292.000000, -2514.000000)">
            <g id="Group-2" transform="translate(292.000000, 2514.000000)">
                <g id="Group-4">
                    <rect id="Rectangle-2-Copy" fill="#FFFFFF" x="0" y="0" width="418" height="151.941202"></rect>
                    <path d="M47.568,36.634 C47.568,36.634 45.336,36.292 43.878,36.292 C41.466,36.292 39.918,37.192 39.918,39.568 C39.918,42.052 41.268,42.592 43.806,43.078 C45.894,43.456 46.704,43.852 46.704,45.418 C46.704,47.344 45.75,48.154 43.878,48.154 C42.6,48.154 40.134,47.848 40.134,47.848 L40.008,48.802 C40.008,48.802 42.492,49.144 43.914,49.144 C46.38,49.144 47.838,48.118 47.838,45.346 C47.838,43.132 46.668,42.538 44.22,42.052 C42.006,41.62 41.052,41.35 41.052,39.496 C41.052,37.948 42.078,37.282 43.95,37.282 C44.994,37.282 47.478,37.588 47.478,37.588 L47.568,36.634 Z M55.776,40 L55.776,47.452 C55.776,47.452 54.552,48.208 53.13,48.208 C51.33,48.208 51.06,47.362 51.06,44.68 L51.06,40 L49.998,40 L49.998,44.698 C49.998,48.064 50.502,49.18 53.004,49.18 C54.39,49.18 55.776,48.334 55.776,48.334 L55.776,49 L56.838,49 L56.838,40 L55.776,40 Z M65.406,40.144 C65.406,40.144 63.57,39.838 62.22,39.838 C60.654,39.838 59.034,40.414 59.034,42.376 C59.034,44.122 59.988,44.5 62.058,44.824 C64.074,45.13 64.614,45.364 64.614,46.444 C64.614,47.848 63.714,48.208 62.166,48.208 C61.248,48.208 59.232,47.902 59.232,47.902 L59.16,48.856 C59.16,48.856 61.14,49.18 62.238,49.18 C64.398,49.18 65.712,48.496 65.712,46.39 C65.712,44.662 64.848,44.248 62.544,43.87 C60.582,43.546 60.132,43.276 60.132,42.34 C60.132,41.116 61.14,40.81 62.256,40.81 C63.444,40.81 65.37,41.098 65.37,41.098 L65.406,40.144 Z M67.89,49 L68.952,49 L68.952,40 L67.89,40 L67.89,49 Z M67.89,37.75 L68.952,37.75 L68.952,36.4 L67.89,36.4 L67.89,37.75 Z M74.856,48.208 C76.17,48.208 78.15,48.046 78.15,48.046 L78.186,48.928 C78.186,48.928 76.152,49.18 74.748,49.18 C72.066,49.162 71.256,47.542 71.256,44.536 C71.256,41.062 72.768,39.82 74.964,39.82 C77.286,39.82 78.51,41.062 78.51,44.086 L78.474,44.95 L72.354,44.95 C72.354,47.074 72.966,48.208 74.856,48.208 Z M72.354,44.05 L77.43,44.05 C77.43,41.62 76.656,40.756 74.964,40.756 C73.326,40.756 72.354,41.656 72.354,44.05 Z M92.55,51.574 L90.984,48.982 C90.534,49.108 89.94,49.18 89.292,49.18 C85.422,49.18 84.414,46.984 84.414,42.808 C84.414,38.686 85.44,36.31 89.292,36.31 C93.144,36.31 94.188,38.668 94.188,42.808 C94.188,45.814 93.684,47.686 92.082,48.586 L93.612,51.07 L92.55,51.574 Z M89.292,48.172 C92.406,48.172 93.036,46.498 93.036,42.808 C93.036,39.298 92.334,37.318 89.292,37.318 C86.232,37.318 85.566,39.28 85.566,42.808 C85.566,46.354 86.178,48.172 89.292,48.172 Z M102.288,40 L102.288,47.452 C102.288,47.452 101.064,48.208 99.642,48.208 C97.842,48.208 97.572,47.362 97.572,44.68 L97.572,40 L96.51,40 L96.51,44.698 C96.51,48.064 97.014,49.18 99.516,49.18 C100.902,49.18 102.288,48.334 102.288,48.334 L102.288,49 L103.35,49 L103.35,40 L102.288,40 Z M109.254,48.208 C110.568,48.208 112.548,48.046 112.548,48.046 L112.584,48.928 C112.584,48.928 110.55,49.18 109.146,49.18 C106.464,49.162 105.654,47.542 105.654,44.536 C105.654,41.062 107.166,39.82 109.362,39.82 C111.684,39.82 112.908,41.062 112.908,44.086 L112.872,44.95 L106.752,44.95 C106.752,47.074 107.364,48.208 109.254,48.208 Z M106.752,44.05 L111.828,44.05 C111.828,41.62 111.054,40.756 109.362,40.756 C107.724,40.756 106.752,41.656 106.752,44.05 Z M123.132,53.05 L124.212,53.05 L124.212,36.004 L123.132,36.004 L123.132,53.05 Z M135.156,49 L136.272,49 L136.272,37.642 L136.524,37.642 L140.448,48.586 L141.762,48.586 L145.686,37.642 L145.938,37.642 L145.938,49 L147.054,49 L147.054,36.49 L144.966,36.49 L141.114,47.434 L137.244,36.49 L135.156,36.49 L135.156,49 Z M156.162,42.682 L156.162,47.506 C156.216,48.046 156.738,48.226 157.332,48.298 L157.278,49.162 C156.396,49.162 155.73,48.982 155.244,48.442 C155.244,48.442 153.552,49.18 151.86,49.18 C150.276,49.18 149.394,48.262 149.394,46.462 C149.394,44.806 150.222,44.014 152.04,43.834 L155.1,43.528 L155.1,42.682 C155.1,41.314 154.488,40.792 153.336,40.792 C152.04,40.792 149.934,41.062 149.934,41.062 L149.88,40.198 C149.88,40.198 151.86,39.82 153.372,39.82 C155.334,39.82 156.162,40.774 156.162,42.682 Z M155.1,44.374 L152.166,44.68 C150.96,44.788 150.51,45.364 150.51,46.444 C150.51,47.596 151.014,48.262 152.004,48.262 C153.462,48.262 155.1,47.632 155.1,47.632 L155.1,44.374 Z M158.088,40 L160.734,49 L161.976,49 L160.77,53.05 L161.85,53.05 L165.738,40 L164.64,40 L162.228,48.064 L161.58,48.064 L159.186,40 L158.088,40 Z M172.236,39.604 L172.758,40.468 L175.926,38.344 L175.926,49 L177.024,49 L177.024,37.12 L175.98,37.12 L172.236,39.604 Z M188.958,37.21 L188.85,38.128 C188.85,38.128 187.284,37.948 185.772,37.948 C183.612,37.948 182.37,39.496 182.37,42.376 C182.37,42.394 184.116,41.62 185.52,41.62 C188.13,41.62 189.48,42.808 189.48,45.256 C189.48,47.74 188.022,49.18 185.376,49.18 C182.478,49.18 181.218,46.84 181.218,42.988 C181.218,38.722 183,36.94 185.772,36.94 C187.284,36.94 188.958,37.21 188.958,37.21 Z M185.448,42.61 C183.972,42.61 182.352,43.384 182.352,43.384 C182.388,46.138 183.18,48.172 185.376,48.172 C187.302,48.172 188.328,47.146 188.328,45.256 C188.328,43.456 187.248,42.61 185.448,42.61 Z M191.01,51.214 L191.91,51.214 L193.008,47.218 L191.802,47.218 L191.01,51.214 Z M206.958,49 L206.958,48.028 L200.73,48.028 L204.186,44.464 C205.77,42.898 206.616,41.854 206.616,40.072 C206.616,37.84 205.338,36.94 202.89,36.94 C201.18,36.94 199.488,37.426 199.488,37.426 L199.578,38.38 C199.578,38.38 201.378,37.948 202.71,37.948 C204.51,37.948 205.464,38.506 205.464,40.162 C205.464,41.638 204.546,42.61 203.088,44.14 L199.38,48.064 L199.38,49 L206.958,49 Z M213.222,36.94 C215.994,36.94 217.488,38.29 217.488,43.276 C217.488,47.83 215.886,49.18 213.24,49.18 C210.576,49.18 208.974,47.884 208.974,43.276 C208.974,38.29 210.54,36.94 213.222,36.94 Z M213.222,37.93 C211.152,37.93 210.126,38.992 210.126,43.294 C210.126,47.218 211.26,48.172 213.24,48.172 C215.22,48.172 216.336,47.2 216.336,43.276 C216.336,39.046 215.346,37.93 213.222,37.93 Z M220.35,39.604 L220.872,40.468 L224.04,38.344 L224.04,49 L225.138,49 L225.138,37.12 L224.094,37.12 L220.35,39.604 Z M229.782,38.128 L235.974,38.128 L235.974,38.596 L231.384,48.82 L232.446,49.18 L237.108,38.704 L237.108,37.12 L229.782,37.12 L229.782,38.128 Z" id="Susie-Que-|-May-16,-Copy-3" fill="#C8102E"></path>
                    <path d="M41.55,98 L43.86,98 L43.86,79.7 L44.28,79.7 L50.31,97.25 L52.89,97.25 L58.92,79.7 L59.34,79.7 L59.34,98 L61.65,98 L61.65,77.24 L57.48,77.24 L51.6,94.79 L45.72,77.24 L41.55,77.24 L41.55,98 Z M72.12,82.7 C76.89,82.7 78.54,85.16 78.54,90.32 C78.54,95.78 77.19,98.3 72.12,98.3 C67.08,98.3 65.7,95.78 65.7,90.32 C65.7,85.16 67.38,82.7 72.12,82.7 Z M72.12,96.35 C75.69,96.35 76.23,94.58 76.23,90.32 C76.23,86.15 75.33,84.65 72.12,84.65 C68.94,84.65 68.01,86.15 68.01,90.32 C68.01,94.58 68.58,96.35 72.12,96.35 Z M88.83,82.7 C92.91,82.7 94.29,84.86 94.29,90.26 C94.29,96.23 92.67,98.3 87.21,98.3 C85.41,98.3 82.2,97.97 82.2,97.97 L82.2,76.46 L84.42,76.46 L84.42,83.75 C84.42,83.75 86.7,82.7 88.83,82.7 Z M87.18,96.29 C91.29,96.29 92.01,94.46 92.01,90.26 C92.01,86.39 91.23,84.71 88.59,84.71 C86.52,84.71 84.42,85.58 84.42,85.58 L84.42,96.14 C84.42,96.14 86.37,96.29 87.18,96.29 Z M97.98,98 L100.23,98 L100.23,83 L97.98,83 L97.98,98 Z M97.98,79.61 L100.23,79.61 L100.23,77 L97.98,77 L97.98,79.61 Z M104.73,98 L106.98,98 L106.98,76.46 L104.73,76.46 L104.73,98 Z M117.03,96.32 C119.28,96.32 122.55,96.05 122.55,96.05 L122.61,97.82 C122.61,97.82 119.19,98.3 116.76,98.3 C112.29,98.3 110.82,95.69 110.82,90.59 C110.82,84.89 113.28,82.7 117.09,82.7 C121.08,82.7 123.12,84.8 123.12,89.72 L123,91.43 L113.1,91.43 C113.1,94.64 114.09,96.32 117.03,96.32 Z M113.07,89.63 L120.87,89.63 C120.87,85.91 119.73,84.59 117.09,84.59 C114.54,84.59 113.1,86 113.07,89.63 Z M138.99,82.7 C143.76,82.7 145.41,85.16 145.41,90.32 C145.41,95.78 144.06,98.3 138.99,98.3 C133.95,98.3 132.57,95.78 132.57,90.32 C132.57,85.16 134.25,82.7 138.99,82.7 Z M138.99,96.35 C142.56,96.35 143.1,94.58 143.1,90.32 C143.1,86.15 142.2,84.65 138.99,84.65 C135.81,84.65 134.88,86.15 134.88,90.32 C134.88,94.58 135.45,96.35 138.99,96.35 Z M151.32,98 L151.32,85.82 C151.32,85.82 153.39,84.71 155.55,84.71 C158.34,84.71 158.79,86.18 158.79,90.14 L158.79,98 L161.01,98 L161.01,90.08 C161.01,84.74 160.08,82.7 155.94,82.7 C153.72,82.7 151.29,84.05 151.29,84.05 L151.29,83 L149.07,83 L149.07,98 L151.32,98 Z M179.55,84.95 L179.55,83 L174.78,83 L174.78,78.41 L172.56,78.41 L172.56,83 L170.43,83 L170.43,84.95 L172.56,84.95 L172.56,92.84 C172.56,97.16 173.61,98.33 176.7,98.33 C177.75,98.33 179.76,98 179.76,98 L179.61,96.14 C179.61,96.14 177.78,96.32 176.94,96.32 C174.99,96.32 174.78,95.39 174.78,92.12 L174.78,84.95 L179.55,84.95 Z M184.56,98 L184.56,85.61 C184.56,85.61 186.66,84.71 188.79,84.71 C191.55,84.71 192,86.18 192,90.14 L192,98 L194.25,98 L194.25,90.08 C194.25,84.74 193.29,82.7 189.18,82.7 C186.96,82.7 184.56,83.84 184.56,83.84 L184.56,76.46 L182.31,76.46 L182.31,98 L184.56,98 Z M203.97,96.32 C206.22,96.32 209.49,96.05 209.49,96.05 L209.55,97.82 C209.55,97.82 206.13,98.3 203.7,98.3 C199.23,98.3 197.76,95.69 197.76,90.59 C197.76,84.89 200.22,82.7 204.03,82.7 C208.02,82.7 210.06,84.8 210.06,89.72 L209.94,91.43 L200.04,91.43 C200.04,94.64 201.03,96.32 203.97,96.32 Z M200.01,89.63 L207.81,89.63 C207.81,85.91 206.67,84.59 204.03,84.59 C201.48,84.59 200.04,86 200.01,89.63 Z M220.56,77.24 L228.09,77.24 C232.14,77.24 234.27,78.83 234.27,82.52 C234.27,85.22 233.28,86.51 231.6,87.29 C233.43,87.92 234.9,89.18 234.9,92.18 C234.9,96.56 232.38,98 228.48,98 L220.56,98 L220.56,77.24 Z M228.24,88.46 L222.87,88.46 L222.87,95.96 L228.39,95.96 C230.91,95.96 232.56,95.15 232.56,92.09 C232.56,88.88 229.83,88.46 228.24,88.46 Z M228,79.28 L222.87,79.28 L222.87,86.45 L228.21,86.45 C230.82,86.45 231.9,85.22 231.9,82.73 C231.9,80.3 230.64,79.28 228,79.28 Z M248.01,83 L248.01,95.18 C248.01,95.18 246.12,96.29 243.9,96.29 C241.11,96.29 240.75,94.94 240.75,90.8 L240.75,83 L238.5,83 L238.5,90.83 C238.5,96.35 239.37,98.3 243.57,98.3 C245.76,98.3 248.01,96.95 248.01,96.95 L248.01,98 L250.26,98 L250.26,83 L248.01,83 Z M253.17,83 L257.43,98 L259.65,98 L257.7,104.66 L259.95,104.66 L266.19,83 L263.94,83 L260.16,96.05 L259.17,96.05 L255.42,83 L253.17,83 Z M274.62,96.32 C276.87,96.32 280.14,96.05 280.14,96.05 L280.2,97.82 C280.2,97.82 276.78,98.3 274.35,98.3 C269.88,98.3 268.41,95.69 268.41,90.59 C268.41,84.89 270.87,82.7 274.68,82.7 C278.67,82.7 280.71,84.8 280.71,89.72 L280.59,91.43 L270.69,91.43 C270.69,94.64 271.68,96.32 274.62,96.32 Z M270.66,89.63 L278.46,89.63 C278.46,85.91 277.32,84.59 274.68,84.59 C272.13,84.59 270.69,86 270.66,89.63 Z M284.22,98 L286.47,98 L286.47,86.99 C286.47,86.99 289.11,85.52 291.93,84.95 L291.93,82.67 C289.05,83.24 286.44,85.04 286.44,85.04 L286.44,83 L284.22,83 L284.22,98 Z M294.03,83.33 L295.8,83.33 L297.72,76.76 L295.35,76.76 L294.03,83.33 Z M311.1,83.27 C311.1,83.27 307.92,82.7 305.67,82.7 C302.94,82.7 300.27,83.78 300.27,87.08 C300.27,90.08 301.89,90.71 305.28,91.25 C308.55,91.76 309.33,92.15 309.33,93.71 C309.33,95.75 308.01,96.29 305.55,96.29 C304.02,96.29 300.6,95.78 300.6,95.78 L300.48,97.73 C300.48,97.73 303.84,98.3 305.76,98.3 C309.36,98.3 311.58,97.13 311.58,93.62 C311.58,90.71 310.17,89.96 306.42,89.33 C303.24,88.79 302.52,88.4 302.52,86.99 C302.52,85.22 303.93,84.71 305.79,84.71 C307.71,84.71 311.04,85.19 311.04,85.19 L311.1,83.27 Z M329.61,91.01 L324.33,91.01 L324.33,98 L322.02,98 L322.02,77.24 L329.61,77.24 C334.14,77.24 336.24,79.43 336.24,83.93 C336.24,88.46 334.14,91.01 329.61,91.01 Z M324.33,88.97 L329.58,88.97 C332.61,88.97 333.87,87.14 333.87,83.93 C333.87,80.75 332.61,79.28 329.58,79.28 L324.33,79.28 L324.33,88.97 Z M350.01,87.53 L350.01,95.21 C350.07,96.08 350.79,96.41 351.75,96.53 L351.66,98.3 C350.07,98.3 348.99,98 348.09,97.1 C348.09,97.1 345.39,98.3 342.69,98.3 C339.96,98.3 338.46,96.74 338.46,93.71 C338.46,90.83 339.96,89.57 343.05,89.27 L347.76,88.82 L347.76,87.53 C347.76,85.43 346.86,84.68 345.06,84.68 C342.96,84.68 339.39,85.07 339.39,85.07 L339.3,83.36 C339.3,83.36 342.6,82.7 345.18,82.7 C348.57,82.7 350.01,84.26 350.01,87.53 Z M347.76,90.53 L343.32,90.95 C341.49,91.13 340.77,92 340.77,93.65 C340.77,95.39 341.52,96.41 343.05,96.41 C345.27,96.41 347.76,95.48 347.76,95.48 L347.76,90.53 Z M362.22,84.95 L362.22,83 L357.45,83 L357.45,78.41 L355.23,78.41 L355.23,83 L353.1,83 L353.1,84.95 L355.23,84.95 L355.23,92.84 C355.23,97.16 356.28,98.33 359.37,98.33 C360.42,98.33 362.43,98 362.43,98 L362.28,96.14 C362.28,96.14 360.45,96.32 359.61,96.32 C357.66,96.32 357.45,95.39 357.45,92.12 L357.45,84.95 L362.22,84.95 Z M367.23,98 L367.23,85.61 C367.23,85.61 369.33,84.71 371.46,84.71 C374.22,84.71 374.67,86.18 374.67,90.14 L374.67,98 L376.92,98 L376.92,90.08 C376.92,84.74 375.96,82.7 371.85,82.7 C369.63,82.7 367.23,83.84 367.23,83.84 L367.23,76.46 L364.98,76.46 L364.98,98 L367.23,98 Z" id="Mobile-on-the-Buyer’-Copy-3" fill="#071D49"></path>
                    <path d="M10.584,178 L12.204,178 L15.624,165.994 L13.968,165.994 L11.322,176.002 L8.568,165.994 L7.326,165.994 L4.572,176.002 L1.908,165.994 L0.252,165.994 L3.672,178 L5.292,178 L7.938,168.316 L10.584,178 Z M16.74,173.644 C16.74,171.124 18.54,169.09 21.024,169.09 C23.652,169.09 25.2,171.142 25.2,173.752 L25.2,174.094 L18.162,174.094 C18.27,175.732 19.422,177.1 21.294,177.1 C22.284,177.1 23.292,176.704 23.976,176.002 L24.624,176.884 C23.76,177.748 22.59,178.216 21.168,178.216 C18.594,178.216 16.74,176.362 16.74,173.644 Z M21.006,170.206 C19.152,170.206 18.234,171.772 18.162,173.104 L23.868,173.104 C23.85,171.808 22.986,170.206 21.006,170.206 Z M27.378,178 L27.378,165.994 L28.728,165.994 L28.728,170.62 C29.43,169.666 30.474,169.09 31.662,169.09 C33.93,169.09 35.532,170.89 35.532,173.662 C35.532,176.488 33.93,178.216 31.662,178.216 C30.438,178.216 29.376,177.586 28.728,176.704 L28.728,178 L27.378,178 Z M28.728,175.642 C29.196,176.398 30.258,177.01 31.32,177.01 C33.084,177.01 34.128,175.588 34.128,173.662 C34.128,171.736 33.084,170.296 31.32,170.296 C30.258,170.296 29.196,170.944 28.728,171.7 L28.728,175.642 Z" id="Web-outline" fill="#071D49"></path>
                </g>
            </g>
        </g>
    </g>
</svg>