<?xml version="1.0" encoding="UTF-8"?>
<svg width="418px" height="179px" viewBox="0 0 418 179" version="1.1" xmlns="http://www.w3.org/2000/svg" xmlns:xlink="http://www.w3.org/1999/xlink">
    <!-- Generator: Sketch 45.2 (43514) - http://www.bohemiancoding.com/sketch -->
    <title>Group 6</title>
    <desc>Created with Sketch.</desc>
    <defs></defs>
    <g id="Page-1" stroke="none" stroke-width="1" fill="none" fill-rule="evenodd">
        <g id="7-12-3" transform="translate(-822.000000, -2514.000000)">
            <g id="Group-3" transform="translate(822.000000, 2514.000000)">
                <g id="Group-6">
                    <rect id="Rectangle-2-Copy-2" fill="#6A7792" x="0" y="0" width="418" height="151.941202"></rect>
                    <path d="M40.566,49 L41.682,49 L41.682,37.642 L41.934,37.642 L45.858,48.586 L47.172,48.586 L51.096,37.642 L51.348,37.642 L51.348,49 L52.464,49 L52.464,36.49 L50.376,36.49 L46.524,47.434 L42.654,36.49 L40.566,36.49 L40.566,49 Z M58.782,39.82 C61.554,39.82 62.544,41.188 62.544,44.374 C62.544,47.776 61.788,49.18 58.782,49.18 C55.758,49.18 55.002,47.776 55.002,44.374 C55.002,41.188 55.992,39.82 58.782,39.82 Z M58.782,48.226 C61.104,48.226 61.446,47.128 61.446,44.374 C61.446,41.674 60.834,40.774 58.782,40.774 C56.712,40.774 56.118,41.674 56.118,44.374 C56.118,47.128 56.442,48.226 58.782,48.226 Z M68.736,39.82 C71.184,39.82 71.94,41.17 71.94,44.356 C71.94,47.848 71.04,49.18 67.728,49.18 C66.594,49.18 64.848,49 64.848,49 L64.848,36.004 L65.928,36.004 L65.928,40.486 C65.928,40.486 67.332,39.82 68.736,39.82 Z M67.728,48.208 C70.392,48.208 70.824,47.02 70.824,44.356 C70.824,41.908 70.374,40.792 68.646,40.792 C67.26,40.792 65.928,41.404 65.928,41.404 L65.928,48.1 C65.928,48.1 67.188,48.208 67.728,48.208 Z M74.244,49 L75.306,49 L75.306,40 L74.244,40 L74.244,49 Z M74.244,37.75 L75.306,37.75 L75.306,36.4 L74.244,36.4 L74.244,37.75 Z M78.114,49 L79.176,49 L79.176,36.004 L78.114,36.004 L78.114,49 Z M85.188,48.208 C86.502,48.208 88.482,48.046 88.482,48.046 L88.518,48.928 C88.518,48.928 86.484,49.18 85.08,49.18 C82.398,49.162 81.588,47.542 81.588,44.536 C81.588,41.062 83.1,39.82 85.296,39.82 C87.618,39.82 88.842,41.062 88.842,44.086 L88.806,44.95 L82.686,44.95 C82.686,47.074 83.298,48.208 85.188,48.208 Z M82.686,44.05 L87.762,44.05 C87.762,41.62 86.988,40.756 85.296,40.756 C83.658,40.756 82.686,41.656 82.686,44.05 Z M98.418,39.82 C101.19,39.82 102.18,41.188 102.18,44.374 C102.18,47.776 101.424,49.18 98.418,49.18 C95.394,49.18 94.638,47.776 94.638,44.374 C94.638,41.188 95.628,39.82 98.418,39.82 Z M98.418,48.226 C100.74,48.226 101.082,47.128 101.082,44.374 C101.082,41.674 100.47,40.774 98.418,40.774 C96.348,40.774 95.754,41.674 95.754,44.374 C95.754,47.128 96.078,48.226 98.418,48.226 Z M105.564,49 L105.564,41.548 C105.564,41.548 106.932,40.792 108.336,40.792 C110.136,40.792 110.424,41.674 110.424,44.32 L110.424,49 L111.504,49 L111.504,44.266 C111.504,40.972 110.964,39.82 108.498,39.82 C107.076,39.82 105.564,40.666 105.564,40.666 L105.564,40 L104.502,40 L104.502,49 L105.564,49 Z M122.61,40.954 L122.61,40 L119.604,40 L119.604,37.174 L118.524,37.174 L118.524,40 L117.192,40 L117.192,40.954 L118.524,40.954 L118.524,45.94 C118.524,48.532 119.172,49.198 120.954,49.198 C121.584,49.198 122.772,49.018 122.772,49.018 L122.7,48.1 C122.7,48.1 121.548,48.226 121.044,48.226 C119.748,48.226 119.604,47.65 119.604,45.4 L119.604,40.954 L122.61,40.954 Z M125.364,49 L125.364,41.404 C125.364,41.404 126.732,40.792 128.136,40.792 C129.918,40.792 130.206,41.674 130.206,44.32 L130.206,49 L131.286,49 L131.286,44.266 C131.286,40.972 130.746,39.82 128.28,39.82 C126.876,39.82 125.364,40.522 125.364,40.522 L125.364,36.004 L124.302,36.004 L124.302,49 L125.364,49 Z M137.1,48.208 C138.414,48.208 140.394,48.046 140.394,48.046 L140.43,48.928 C140.43,48.928 138.396,49.18 136.992,49.18 C134.31,49.162 133.5,47.542 133.5,44.536 C133.5,41.062 135.012,39.82 137.208,39.82 C139.53,39.82 140.754,41.062 140.754,44.086 L140.718,44.95 L134.598,44.95 C134.598,47.074 135.21,48.208 137.1,48.208 Z M134.598,44.05 L139.674,44.05 C139.674,41.62 138.9,40.756 137.208,40.756 C135.57,40.756 134.598,41.656 134.598,44.05 Z M147.144,36.49 L151.59,36.49 C154.02,36.49 155.28,37.462 155.28,39.64 C155.28,41.314 154.632,42.124 153.624,42.556 C154.722,42.898 155.694,43.672 155.694,45.526 C155.694,48.19 154.182,49 151.86,49 L147.144,49 L147.144,36.49 Z M151.734,43.114 L148.26,43.114 L148.26,48.01 L151.842,48.01 C153.462,48.01 154.56,47.47 154.56,45.49 C154.56,43.312 152.67,43.114 151.734,43.114 Z M151.554,37.48 L148.26,37.48 L148.26,42.142 L151.716,42.142 C153.426,42.142 154.146,41.332 154.146,39.712 C154.146,38.164 153.3,37.48 151.554,37.48 Z M163.722,40 L163.722,47.452 C163.722,47.452 162.498,48.208 161.076,48.208 C159.276,48.208 159.006,47.362 159.006,44.68 L159.006,40 L157.944,40 L157.944,44.698 C157.944,48.064 158.448,49.18 160.95,49.18 C162.336,49.18 163.722,48.334 163.722,48.334 L163.722,49 L164.784,49 L164.784,40 L163.722,40 Z M166.62,40 L169.266,49 L170.508,49 L169.302,53.05 L170.382,53.05 L174.27,40 L173.172,40 L170.76,48.064 L170.112,48.064 L167.718,40 L166.62,40 Z M179.292,48.208 C180.606,48.208 182.586,48.046 182.586,48.046 L182.622,48.928 C182.622,48.928 180.588,49.18 179.184,49.18 C176.502,49.162 175.692,47.542 175.692,44.536 C175.692,41.062 177.204,39.82 179.4,39.82 C181.722,39.82 182.946,41.062 182.946,44.086 L182.91,44.95 L176.79,44.95 C176.79,47.074 177.402,48.208 179.292,48.208 Z M176.79,44.05 L181.866,44.05 C181.866,41.62 181.092,40.756 179.4,40.756 C177.762,40.756 176.79,41.656 176.79,44.05 Z M185.16,49 L186.222,49 L186.222,42.25 C186.222,42.25 187.896,41.26 189.624,40.9 L189.624,39.82 C187.788,40.162 186.222,41.296 186.222,41.296 L186.222,40 L185.16,40 L185.16,49 Z M190.938,39.946 L191.802,39.946 L192.846,36.148 L191.694,36.148 L190.938,39.946 Z M200.856,40.144 C200.856,40.144 199.02,39.838 197.67,39.838 C196.104,39.838 194.484,40.414 194.484,42.376 C194.484,44.122 195.438,44.5 197.508,44.824 C199.524,45.13 200.064,45.364 200.064,46.444 C200.064,47.848 199.164,48.208 197.616,48.208 C196.698,48.208 194.682,47.902 194.682,47.902 L194.61,48.856 C194.61,48.856 196.59,49.18 197.688,49.18 C199.848,49.18 201.162,48.496 201.162,46.39 C201.162,44.662 200.298,44.248 197.994,43.87 C196.032,43.546 195.582,43.276 195.582,42.34 C195.582,41.116 196.59,40.81 197.706,40.81 C198.894,40.81 200.82,41.098 200.82,41.098 L200.856,40.144 Z M212.088,44.644 L208.632,44.644 L208.632,49 L207.516,49 L207.516,36.49 L212.088,36.49 C214.77,36.49 215.976,37.786 215.976,40.45 C215.976,43.132 214.77,44.644 212.088,44.644 Z M208.632,43.654 L212.088,43.654 C214.032,43.654 214.824,42.484 214.824,40.45 C214.824,38.434 214.032,37.48 212.088,37.48 L208.632,37.48 L208.632,43.654 Z M224.166,42.682 L224.166,47.506 C224.22,48.046 224.742,48.226 225.336,48.298 L225.282,49.162 C224.4,49.162 223.734,48.982 223.248,48.442 C223.248,48.442 221.556,49.18 219.864,49.18 C218.28,49.18 217.398,48.262 217.398,46.462 C217.398,44.806 218.226,44.014 220.044,43.834 L223.104,43.528 L223.104,42.682 C223.104,41.314 222.492,40.792 221.34,40.792 C220.044,40.792 217.938,41.062 217.938,41.062 L217.884,40.198 C217.884,40.198 219.864,39.82 221.376,39.82 C223.338,39.82 224.166,40.774 224.166,42.682 Z M223.104,44.374 L220.17,44.68 C218.964,44.788 218.514,45.364 218.514,46.444 C218.514,47.596 219.018,48.262 220.008,48.262 C221.466,48.262 223.104,47.632 223.104,47.632 L223.104,44.374 Z M231.51,40.954 L231.51,40 L228.504,40 L228.504,37.174 L227.424,37.174 L227.424,40 L226.092,40 L226.092,40.954 L227.424,40.954 L227.424,45.94 C227.424,48.532 228.072,49.198 229.854,49.198 C230.484,49.198 231.672,49.018 231.672,49.018 L231.6,48.1 C231.6,48.1 230.448,48.226 229.944,48.226 C228.648,48.226 228.504,47.65 228.504,45.4 L228.504,40.954 L231.51,40.954 Z M234.264,49 L234.264,41.404 C234.264,41.404 235.632,40.792 237.036,40.792 C238.818,40.792 239.106,41.674 239.106,44.32 L239.106,49 L240.186,49 L240.186,44.266 C240.186,40.972 239.646,39.82 237.18,39.82 C235.776,39.82 234.264,40.522 234.264,40.522 L234.264,36.004 L233.202,36.004 L233.202,49 L234.264,49 Z M242.706,43.06 L243.894,43.06 L243.894,41.224 L242.706,41.224 L242.706,43.06 Z M242.706,49 L243.894,49 L243.894,47.182 L242.706,47.182 L242.706,49 Z M258.114,47.83 C257.232,47.992 255.936,48.172 254.892,48.172 C251.868,48.172 251.4,46.318 251.4,42.79 C251.4,39.226 251.85,37.318 254.874,37.318 C255.882,37.318 257.322,37.516 258.114,37.66 L258.168,36.688 C257.358,36.526 256.044,36.31 254.784,36.31 C250.986,36.31 250.248,38.686 250.248,42.79 C250.248,46.858 251.058,49.18 254.784,49.18 C255.972,49.18 257.286,48.982 258.168,48.802 L258.114,47.83 Z M260.274,49 L261.336,49 L261.336,42.25 C261.336,42.25 263.01,41.26 264.738,40.9 L264.738,39.82 C262.902,40.162 261.336,41.296 261.336,41.296 L261.336,40 L260.274,40 L260.274,49 Z M269.58,48.208 C270.894,48.208 272.874,48.046 272.874,48.046 L272.91,48.928 C272.91,48.928 270.876,49.18 269.472,49.18 C266.79,49.162 265.98,47.542 265.98,44.536 C265.98,41.062 267.492,39.82 269.688,39.82 C272.01,39.82 273.234,41.062 273.234,44.086 L273.198,44.95 L267.078,44.95 C267.078,47.074 267.69,48.208 269.58,48.208 Z M267.078,44.05 L272.154,44.05 C272.154,41.62 271.38,40.756 269.688,40.756 C268.05,40.756 267.078,41.656 267.078,44.05 Z M281.64,42.682 L281.64,47.506 C281.694,48.046 282.216,48.226 282.81,48.298 L282.756,49.162 C281.874,49.162 281.208,48.982 280.722,48.442 C280.722,48.442 279.03,49.18 277.338,49.18 C275.754,49.18 274.872,48.262 274.872,46.462 C274.872,44.806 275.7,44.014 277.518,43.834 L280.578,43.528 L280.578,42.682 C280.578,41.314 279.966,40.792 278.814,40.792 C277.518,40.792 275.412,41.062 275.412,41.062 L275.358,40.198 C275.358,40.198 277.338,39.82 278.85,39.82 C280.812,39.82 281.64,40.774 281.64,42.682 Z M280.578,44.374 L277.644,44.68 C276.438,44.788 275.988,45.364 275.988,46.444 C275.988,47.596 276.492,48.262 277.482,48.262 C278.94,48.262 280.578,47.632 280.578,47.632 L280.578,44.374 Z M288.984,40.954 L288.984,40 L285.978,40 L285.978,37.174 L284.898,37.174 L284.898,40 L283.566,40 L283.566,40.954 L284.898,40.954 L284.898,45.94 C284.898,48.532 285.546,49.198 287.328,49.198 C287.958,49.198 289.146,49.018 289.146,49.018 L289.074,48.1 C289.074,48.1 287.922,48.226 287.418,48.226 C286.122,48.226 285.978,47.65 285.978,45.4 L285.978,40.954 L288.984,40.954 Z M290.676,49 L291.738,49 L291.738,40 L290.676,40 L290.676,49 Z M290.676,37.75 L291.738,37.75 L291.738,36.4 L290.676,36.4 L290.676,37.75 Z M295.5,49 L295.5,41.548 C295.5,41.548 296.868,40.792 298.272,40.792 C300.072,40.792 300.36,41.674 300.36,44.32 L300.36,49 L301.44,49 L301.44,44.266 C301.44,40.972 300.9,39.82 298.434,39.82 C297.012,39.82 295.5,40.666 295.5,40.666 L295.5,40 L294.438,40 L294.438,49 L295.5,49 Z M307.38,53.266 C304.482,53.266 303.636,52.582 303.636,50.494 C303.636,49.396 304.14,48.928 305.094,48.226 C304.788,48.028 304.644,47.56 304.644,47.002 C304.644,46.696 305.22,45.598 305.22,45.598 C304.446,45.274 303.744,44.554 303.744,42.88 C303.744,40.684 305.04,39.82 307.002,39.82 C307.938,39.82 308.892,40.054 308.892,40.054 L311.502,40 L311.502,40.954 L309.702,40.918 C310.08,41.296 310.35,41.818 310.35,42.88 C310.35,45.166 309.216,45.886 306.948,45.886 C306.786,45.886 306.228,45.85 306.03,45.814 C306.03,45.814 305.67,46.696 305.67,46.93 C305.67,47.704 305.814,47.794 307.956,47.812 C310.404,47.812 311.322,48.244 311.322,50.422 C311.322,52.438 309.972,53.266 307.38,53.266 Z M307.884,48.766 C307.2,48.766 305.85,48.694 305.85,48.694 C304.986,49.306 304.716,49.648 304.716,50.422 C304.716,51.826 305.202,52.33 307.398,52.33 C309.378,52.33 310.224,51.79 310.224,50.458 C310.224,48.928 309.576,48.766 307.884,48.766 Z M307.002,44.986 C308.658,44.986 309.252,44.428 309.252,42.88 C309.252,41.314 308.658,40.72 307.002,40.72 C305.49,40.72 304.842,41.314 304.842,42.88 C304.842,44.428 305.49,44.986 307.002,44.986 Z M323.346,42.682 L323.346,47.506 C323.4,48.046 323.922,48.226 324.516,48.298 L324.462,49.162 C323.58,49.162 322.914,48.982 322.428,48.442 C322.428,48.442 320.736,49.18 319.044,49.18 C317.46,49.18 316.578,48.262 316.578,46.462 C316.578,44.806 317.406,44.014 319.224,43.834 L322.284,43.528 L322.284,42.682 C322.284,41.314 321.672,40.792 320.52,40.792 C319.224,40.792 317.118,41.062 317.118,41.062 L317.064,40.198 C317.064,40.198 319.044,39.82 320.556,39.82 C322.518,39.82 323.346,40.774 323.346,42.682 Z M322.284,44.374 L319.35,44.68 C318.144,44.788 317.694,45.364 317.694,46.444 C317.694,47.596 318.198,48.262 319.188,48.262 C320.646,48.262 322.284,47.632 322.284,47.632 L322.284,44.374 Z M40.566,76 L41.682,76 L41.682,70.654 L47.01,70.654 L47.01,69.664 L41.682,69.664 L41.682,64.498 L47.946,64.498 L47.946,63.49 L40.566,63.49 L40.566,76 Z M49.8,76 L50.862,76 L50.862,69.25 C50.862,69.25 52.536,68.26 54.264,67.9 L54.264,66.82 C52.428,67.162 50.862,68.296 50.862,68.296 L50.862,67 L49.8,67 L49.8,76 Z M62.094,69.682 L62.094,74.506 C62.148,75.046 62.67,75.226 63.264,75.298 L63.21,76.162 C62.328,76.162 61.662,75.982 61.176,75.442 C61.176,75.442 59.484,76.18 57.792,76.18 C56.208,76.18 55.326,75.262 55.326,73.462 C55.326,71.806 56.154,71.014 57.972,70.834 L61.032,70.528 L61.032,69.682 C61.032,68.314 60.42,67.792 59.268,67.792 C57.972,67.792 55.866,68.062 55.866,68.062 L55.812,67.198 C55.812,67.198 57.792,66.82 59.304,66.82 C61.266,66.82 62.094,67.774 62.094,69.682 Z M61.032,71.374 L58.098,71.68 C56.892,71.788 56.442,72.364 56.442,73.444 C56.442,74.596 56.946,75.262 57.936,75.262 C59.394,75.262 61.032,74.632 61.032,74.632 L61.032,71.374 Z M65.946,76 L65.946,68.548 C65.946,68.548 67.17,67.792 68.574,67.792 C70.338,67.792 70.626,68.656 70.626,71.356 L70.626,76 L71.706,76 L71.706,71.32 C71.706,70.132 71.634,69.052 71.436,68.548 C71.436,68.548 72.696,67.792 74.172,67.792 C75.954,67.792 76.242,68.674 76.242,71.32 L76.242,76 L77.304,76 L77.304,71.266 C77.304,67.936 76.746,66.82 74.298,66.82 C72.642,66.82 71.058,67.774 71.058,67.774 C70.608,67.108 69.942,66.82 68.7,66.82 C67.314,66.82 65.946,67.666 65.946,67.666 L65.946,67 L64.884,67 L64.884,76 L65.946,76 Z M83.118,75.208 C84.432,75.208 86.412,75.046 86.412,75.046 L86.448,75.928 C86.448,75.928 84.414,76.18 83.01,76.18 C80.328,76.162 79.518,74.542 79.518,71.536 C79.518,68.062 81.03,66.82 83.226,66.82 C85.548,66.82 86.772,68.062 86.772,71.086 L86.736,71.95 L80.616,71.95 C80.616,74.074 81.228,75.208 83.118,75.208 Z M80.616,71.05 L85.692,71.05 C85.692,68.62 84.918,67.756 83.226,67.756 C81.588,67.756 80.616,68.656 80.616,71.05 Z M88.23,67 L90.48,76 L92.334,76 L94.476,68.584 L96.6,76 L98.472,76 L100.722,67 L99.624,67 L97.644,75.064 L97.374,75.064 L95.034,67.18 L93.9,67.18 L91.56,75.064 L91.308,75.064 L89.328,67 L88.23,67 Z M106.068,66.82 C108.84,66.82 109.83,68.188 109.83,71.374 C109.83,74.776 109.074,76.18 106.068,76.18 C103.044,76.18 102.288,74.776 102.288,71.374 C102.288,68.188 103.278,66.82 106.068,66.82 Z M106.068,75.226 C108.39,75.226 108.732,74.128 108.732,71.374 C108.732,68.674 108.12,67.774 106.068,67.774 C103.998,67.774 103.404,68.674 103.404,71.374 C103.404,74.128 103.728,75.226 106.068,75.226 Z M112.152,76 L113.214,76 L113.214,69.25 C113.214,69.25 114.888,68.26 116.616,67.9 L116.616,66.82 C114.78,67.162 113.214,68.296 113.214,68.296 L113.214,67 L112.152,67 L112.152,76 Z M119.316,76 L119.316,71.698 L120.864,71.662 L123.744,76 L125.004,76 L121.782,71.122 L124.86,67 L123.618,67 L120.846,70.708 L119.316,70.744 L119.316,63.004 L118.254,63.004 L118.254,76 L119.316,76 Z M134.076,66.82 C136.848,66.82 137.838,68.188 137.838,71.374 C137.838,74.776 137.082,76.18 134.076,76.18 C131.052,76.18 130.296,74.776 130.296,71.374 C130.296,68.188 131.286,66.82 134.076,66.82 Z M134.076,75.226 C136.398,75.226 136.74,74.128 136.74,71.374 C136.74,68.674 136.128,67.774 134.076,67.774 C132.006,67.774 131.412,68.674 131.412,71.374 C131.412,74.128 131.736,75.226 134.076,75.226 Z M141.6,67.954 L144.318,67.954 L144.318,67 L141.6,67 L141.6,66.1 C141.6,64.246 141.96,63.796 143.058,63.796 C143.58,63.796 144.642,63.832 144.642,63.832 L144.642,62.914 C144.642,62.914 143.508,62.824 142.896,62.824 C141.168,62.824 140.52,63.49 140.52,66.082 L140.52,67 L139.35,67 L139.35,67.954 L140.52,67.954 L140.52,76 L141.6,76 L141.6,67.954 Z M154.506,67.954 L154.506,67 L151.5,67 L151.5,64.174 L150.42,64.174 L150.42,67 L149.088,67 L149.088,67.954 L150.42,67.954 L150.42,72.94 C150.42,75.532 151.068,76.198 152.85,76.198 C153.48,76.198 154.668,76.018 154.668,76.018 L154.596,75.1 C154.596,75.1 153.444,75.226 152.94,75.226 C151.644,75.226 151.5,74.65 151.5,72.4 L151.5,67.954 L154.506,67.954 Z M157.26,76 L157.26,68.404 C157.26,68.404 158.628,67.792 160.032,67.792 C161.814,67.792 162.102,68.674 162.102,71.32 L162.102,76 L163.182,76 L163.182,71.266 C163.182,67.972 162.642,66.82 160.176,66.82 C158.772,66.82 157.26,67.522 157.26,67.522 L157.26,63.004 L156.198,63.004 L156.198,76 L157.26,76 Z M168.996,75.208 C170.31,75.208 172.29,75.046 172.29,75.046 L172.326,75.928 C172.326,75.928 170.292,76.18 168.888,76.18 C166.206,76.162 165.396,74.542 165.396,71.536 C165.396,68.062 166.908,66.82 169.104,66.82 C171.426,66.82 172.65,68.062 172.65,71.086 L172.614,71.95 L166.494,71.95 C166.494,74.074 167.106,75.208 168.996,75.208 Z M166.494,71.05 L171.57,71.05 C171.57,68.62 170.796,67.756 169.104,67.756 C167.466,67.756 166.494,68.656 166.494,71.05 Z M186.456,74.83 C185.574,74.992 184.278,75.172 183.234,75.172 C180.21,75.172 179.742,73.318 179.742,69.79 C179.742,66.226 180.192,64.318 183.216,64.318 C184.224,64.318 185.664,64.516 186.456,64.66 L186.51,63.688 C185.7,63.526 184.386,63.31 183.126,63.31 C179.328,63.31 178.59,65.686 178.59,69.79 C178.59,73.858 179.4,76.18 183.126,76.18 C184.314,76.18 185.628,75.982 186.51,75.802 L186.456,74.83 Z M192.018,66.82 C194.79,66.82 195.78,68.188 195.78,71.374 C195.78,74.776 195.024,76.18 192.018,76.18 C188.994,76.18 188.238,74.776 188.238,71.374 C188.238,68.188 189.228,66.82 192.018,66.82 Z M192.018,75.226 C194.34,75.226 194.682,74.128 194.682,71.374 C194.682,68.674 194.07,67.774 192.018,67.774 C189.948,67.774 189.354,68.674 189.354,71.374 C189.354,74.128 189.678,75.226 192.018,75.226 Z M199.164,76 L199.164,68.548 C199.164,68.548 200.388,67.792 201.792,67.792 C203.556,67.792 203.844,68.656 203.844,71.356 L203.844,76 L204.924,76 L204.924,71.32 C204.924,70.132 204.852,69.052 204.654,68.548 C204.654,68.548 205.914,67.792 207.39,67.792 C209.172,67.792 209.46,68.674 209.46,71.32 L209.46,76 L210.522,76 L210.522,71.266 C210.522,67.936 209.964,66.82 207.516,66.82 C205.86,66.82 204.276,67.774 204.276,67.774 C203.826,67.108 203.16,66.82 201.918,66.82 C200.532,66.82 199.164,67.666 199.164,67.666 L199.164,67 L198.102,67 L198.102,76 L199.164,76 Z M213.132,80.05 L213.132,67 L214.194,67 L214.194,67.684 C214.194,67.684 215.598,66.82 217.038,66.82 C219.288,66.82 220.242,68.242 220.242,71.374 C220.242,74.848 219.144,76.18 216.354,76.18 C215.454,76.18 214.518,76.018 214.194,75.946 L214.194,80.05 L213.132,80.05 Z M216.93,67.792 C215.58,67.792 214.194,68.602 214.194,68.602 L214.194,75.01 C214.5,75.064 215.454,75.226 216.318,75.226 C218.406,75.226 219.126,74.146 219.126,71.374 C219.126,68.746 218.334,67.792 216.93,67.792 Z M222.654,76 L223.716,76 L223.716,63.004 L222.654,63.004 L222.654,76 Z M229.728,75.208 C231.042,75.208 233.022,75.046 233.022,75.046 L233.058,75.928 C233.058,75.928 231.024,76.18 229.62,76.18 C226.938,76.162 226.128,74.542 226.128,71.536 C226.128,68.062 227.64,66.82 229.836,66.82 C232.158,66.82 233.382,68.062 233.382,71.086 L233.346,71.95 L227.226,71.95 C227.226,74.074 227.838,75.208 229.728,75.208 Z M227.226,71.05 L232.302,71.05 C232.302,68.62 231.528,67.756 229.836,67.756 C228.198,67.756 227.226,68.656 227.226,71.05 Z M240.15,67.954 L240.15,67 L237.144,67 L237.144,64.174 L236.064,64.174 L236.064,67 L234.732,67 L234.732,67.954 L236.064,67.954 L236.064,72.94 C236.064,75.532 236.712,76.198 238.494,76.198 C239.124,76.198 240.312,76.018 240.312,76.018 L240.24,75.1 C240.24,75.1 239.088,75.226 238.584,75.226 C237.288,75.226 237.144,74.65 237.144,72.4 L237.144,67.954 L240.15,67.954 Z M245.046,75.208 C246.36,75.208 248.34,75.046 248.34,75.046 L248.376,75.928 C248.376,75.928 246.342,76.18 244.938,76.18 C242.256,76.162 241.446,74.542 241.446,71.536 C241.446,68.062 242.958,66.82 245.154,66.82 C247.476,66.82 248.7,68.062 248.7,71.086 L248.664,71.95 L242.544,71.95 C242.544,74.074 243.156,75.208 245.046,75.208 Z M242.544,71.05 L247.62,71.05 C247.62,68.62 246.846,67.756 245.154,67.756 C243.516,67.756 242.544,68.656 242.544,71.05 Z M262.506,74.83 C261.624,74.992 260.328,75.172 259.284,75.172 C256.26,75.172 255.792,73.318 255.792,69.79 C255.792,66.226 256.242,64.318 259.266,64.318 C260.274,64.318 261.714,64.516 262.506,64.66 L262.56,63.688 C261.75,63.526 260.436,63.31 259.176,63.31 C255.378,63.31 254.64,65.686 254.64,69.79 C254.64,73.858 255.45,76.18 259.176,76.18 C260.364,76.18 261.678,75.982 262.56,75.802 L262.506,74.83 Z M270.354,67 L270.354,74.452 C270.354,74.452 269.13,75.208 267.708,75.208 C265.908,75.208 265.638,74.362 265.638,71.68 L265.638,67 L264.576,67 L264.576,71.698 C264.576,75.064 265.08,76.18 267.582,76.18 C268.968,76.18 270.354,75.334 270.354,75.334 L270.354,76 L271.416,76 L271.416,67 L270.354,67 Z M279.984,67.144 C279.984,67.144 278.148,66.838 276.798,66.838 C275.232,66.838 273.612,67.414 273.612,69.376 C273.612,71.122 274.566,71.5 276.636,71.824 C278.652,72.13 279.192,72.364 279.192,73.444 C279.192,74.848 278.292,75.208 276.744,75.208 C275.826,75.208 273.81,74.902 273.81,74.902 L273.738,75.856 C273.738,75.856 275.718,76.18 276.816,76.18 C278.976,76.18 280.29,75.496 280.29,73.39 C280.29,71.662 279.426,71.248 277.122,70.87 C275.16,70.546 274.71,70.276 274.71,69.34 C274.71,68.116 275.718,67.81 276.834,67.81 C278.022,67.81 279.948,68.098 279.948,68.098 L279.984,67.144 Z M287.022,67.954 L287.022,67 L284.016,67 L284.016,64.174 L282.936,64.174 L282.936,67 L281.604,67 L281.604,67.954 L282.936,67.954 L282.936,72.94 C282.936,75.532 283.584,76.198 285.366,76.198 C285.996,76.198 287.184,76.018 287.184,76.018 L287.112,75.1 C287.112,75.1 285.96,75.226 285.456,75.226 C284.16,75.226 284.016,74.65 284.016,72.4 L284.016,67.954 L287.022,67.954 Z M292.116,66.82 C294.888,66.82 295.878,68.188 295.878,71.374 C295.878,74.776 295.122,76.18 292.116,76.18 C289.092,76.18 288.336,74.776 288.336,71.374 C288.336,68.188 289.326,66.82 292.116,66.82 Z M292.116,75.226 C294.438,75.226 294.78,74.128 294.78,71.374 C294.78,68.674 294.168,67.774 292.116,67.774 C290.046,67.774 289.452,68.674 289.452,71.374 C289.452,74.128 289.776,75.226 292.116,75.226 Z M299.262,76 L299.262,68.548 C299.262,68.548 300.486,67.792 301.89,67.792 C303.654,67.792 303.942,68.656 303.942,71.356 L303.942,76 L305.022,76 L305.022,71.32 C305.022,70.132 304.95,69.052 304.752,68.548 C304.752,68.548 306.012,67.792 307.488,67.792 C309.27,67.792 309.558,68.674 309.558,71.32 L309.558,76 L310.62,76 L310.62,71.266 C310.62,67.936 310.062,66.82 307.614,66.82 C305.958,66.82 304.374,67.774 304.374,67.774 C303.924,67.108 303.258,66.82 302.016,66.82 C300.63,66.82 299.262,67.666 299.262,67.666 L299.262,67 L298.2,67 L298.2,76 L299.262,76 Z M316.434,75.208 C317.748,75.208 319.728,75.046 319.728,75.046 L319.764,75.928 C319.764,75.928 317.73,76.18 316.326,76.18 C313.644,76.162 312.834,74.542 312.834,71.536 C312.834,68.062 314.346,66.82 316.542,66.82 C318.864,66.82 320.088,68.062 320.088,71.086 L320.052,71.95 L313.932,71.95 C313.932,74.074 314.544,75.208 316.434,75.208 Z M313.932,71.05 L319.008,71.05 C319.008,68.62 318.234,67.756 316.542,67.756 C314.904,67.756 313.932,68.656 313.932,71.05 Z M322.302,76 L323.364,76 L323.364,69.25 C323.364,69.25 325.038,68.26 326.766,67.9 L326.766,66.82 C324.93,67.162 323.364,68.296 323.364,68.296 L323.364,67 L322.302,67 L322.302,76 Z" id="Mobile-on-the-Buyer’-Copy" fill="#FFFFFF"></path>
                    <path d="M40.53,118 L41.916,118 L41.916,107.02 L42.168,107.02 L45.786,117.55 L47.334,117.55 L50.952,107.02 L51.204,107.02 L51.204,118 L52.59,118 L52.59,105.544 L50.088,105.544 L46.56,116.074 L43.032,105.544 L40.53,105.544 L40.53,118 Z M61.77,111.718 L61.77,116.326 C61.806,116.848 62.238,117.046 62.814,117.118 L62.76,118.18 C61.806,118.18 61.158,118 60.618,117.46 C60.618,117.46 58.998,118.18 57.378,118.18 C55.74,118.18 54.84,117.244 54.84,115.426 C54.84,113.698 55.74,112.942 57.594,112.762 L60.42,112.492 L60.42,111.718 C60.42,110.458 59.88,110.008 58.8,110.008 C57.54,110.008 55.398,110.242 55.398,110.242 L55.344,109.216 C55.344,109.216 57.324,108.82 58.872,108.82 C60.906,108.82 61.77,109.756 61.77,111.718 Z M60.42,113.518 L57.756,113.77 C56.658,113.878 56.226,114.4 56.226,115.39 C56.226,116.434 56.676,117.046 57.594,117.046 C58.926,117.046 60.42,116.488 60.42,116.488 L60.42,113.518 Z M63.588,109 L66.144,118 L67.476,118 L66.306,121.996 L67.656,121.996 L71.4,109 L70.05,109 L67.782,116.83 L67.188,116.83 L64.938,109 L63.588,109 Z M77.718,108.64 L78.348,109.684 L81.408,107.668 L81.408,118 L82.794,118 L82.794,106.12 L81.498,106.12 L77.718,108.64 Z M94.674,106.246 L94.548,107.38 C94.548,107.38 92.928,107.164 91.416,107.164 C89.346,107.164 88.212,108.64 88.212,111.268 C88.212,111.286 89.886,110.566 91.182,110.566 C93.81,110.566 95.178,111.754 95.178,114.256 C95.178,116.776 93.666,118.18 91.02,118.18 C88.068,118.18 86.772,115.858 86.772,112.006 C86.772,107.704 88.59,105.94 91.416,105.94 C92.928,105.94 94.674,106.246 94.674,106.246 Z M91.092,111.808 C89.706,111.808 88.194,112.492 88.194,112.492 C88.212,115.03 88.968,116.956 91.02,116.956 C92.784,116.956 93.738,116.002 93.738,114.256 C93.738,112.6 92.748,111.808 91.092,111.808 Z M96.564,120.214 L97.68,120.214 L98.886,116.074 L97.392,116.074 L96.564,120.214 Z M112.764,118 L112.764,116.794 L106.806,116.794 L109.974,113.572 C111.648,111.952 112.458,110.908 112.458,109.126 C112.458,106.894 111.198,105.94 108.696,105.94 C106.968,105.94 105.258,106.426 105.258,106.426 L105.366,107.578 C105.366,107.578 107.13,107.182 108.444,107.182 C110.154,107.182 111.036,107.686 111.036,109.27 C111.036,110.674 110.118,111.646 108.642,113.176 L105.168,116.83 L105.168,118 L112.764,118 Z M119.028,105.922 C121.836,105.922 123.366,107.344 123.366,112.24 C123.366,116.794 121.764,118.18 119.046,118.18 C116.328,118.18 114.708,116.83 114.708,112.258 C114.708,107.362 116.292,105.922 119.028,105.922 Z M119.046,107.164 C117.102,107.164 116.148,108.208 116.148,112.258 C116.148,115.984 117.174,116.956 119.046,116.956 C120.918,116.956 121.944,115.966 121.944,112.24 C121.944,108.244 121.026,107.164 119.046,107.164 Z M126.012,108.64 L126.642,109.684 L129.702,107.668 L129.702,118 L131.088,118 L131.088,106.12 L129.792,106.12 L126.012,108.64 Z M135.552,107.38 L141.528,107.38 L141.528,107.848 L137.046,117.766 L138.36,118.18 L142.932,107.938 L142.932,106.12 L135.552,106.12 L135.552,107.38 Z" id="May-16,-2017-Copy" fill="#FFFFFF"></path>
                    <path d="M1.404,178 L1.404,165.994 L6.228,165.994 C8.64,165.994 9.99,167.65 9.99,169.612 C9.99,171.574 8.604,173.23 6.228,173.23 L2.898,173.23 L2.898,178 L1.404,178 Z M8.442,169.612 C8.442,168.262 7.47,167.326 6.048,167.326 L2.898,167.326 L2.898,171.898 L6.048,171.898 C7.47,171.898 8.442,170.962 8.442,169.612 Z M11.916,178 L13.266,178 L13.266,171.844 C13.662,171.142 14.796,170.458 15.624,170.458 C15.84,170.458 16.002,170.476 16.164,170.512 L16.164,169.126 C14.976,169.126 13.968,169.792 13.266,170.71 L13.266,169.306 L11.916,169.306 L11.916,178 Z M18.522,167.902 C19.026,167.902 19.44,167.506 19.44,167.002 C19.44,166.498 19.026,166.084 18.522,166.084 C18.036,166.084 17.622,166.498 17.622,167.002 C17.622,167.506 18.036,167.902 18.522,167.902 Z M17.856,178 L19.206,178 L19.206,169.306 L17.856,169.306 L17.856,178 Z M27.774,178 L29.124,178 L29.124,171.898 C29.124,170.008 28.17,169.09 26.352,169.09 C25.056,169.09 23.868,169.846 23.256,170.566 L23.256,169.306 L21.906,169.306 L21.906,178 L23.256,178 L23.256,171.646 C23.76,170.944 24.768,170.296 25.83,170.296 C27,170.296 27.774,170.782 27.774,172.312 L27.774,178 Z M34.02,178.216 C34.812,178.216 35.298,177.982 35.64,177.658 L35.244,176.65 C35.064,176.848 34.704,177.01 34.326,177.01 C33.732,177.01 33.444,176.542 33.444,175.894 L33.444,170.494 L35.208,170.494 L35.208,169.306 L33.444,169.306 L33.444,166.93 L32.094,166.93 L32.094,169.306 L30.654,169.306 L30.654,170.494 L32.094,170.494 L32.094,176.182 C32.094,177.478 32.742,178.216 34.02,178.216 Z" id="Print-Copy" fill="#071D49"></path>
                </g>
            </g>
        </g>
    </g>
</svg>