<svg width="418" height="179" xmlns="http://www.w3.org/2000/svg"><g fill="none" fill-rule="evenodd"><path fill="#FFF" d="M0 0h418v151.941H0z"/><path d="M47.568 36.634s-2.232-.342-3.69-.342c-2.412 0-3.96.9-3.96 3.276 0 2.484 1.35 3.024 3.888 3.51 2.088.378 2.898.774 2.898 2.34 0 1.926-.954 2.736-2.826 2.736-1.278 0-3.744-.306-3.744-.306l-.126.954s2.484.342 3.906.342c2.466 0 3.924-1.026 3.924-3.798 0-2.214-1.17-2.808-3.618-3.294-2.214-.432-3.168-.702-3.168-2.556 0-1.548 1.026-2.214 2.898-2.214 1.044 0 3.528.306 3.528.306l.09-.954zM55.776 40v7.452s-1.224.756-2.646.756c-1.8 0-2.07-.846-2.07-3.528V40h-1.062v4.698c0 3.366.504 4.482 3.006 4.482 1.386 0 2.772-.846 2.772-.846V49h1.062v-9h-1.062zm9.63.144s-1.836-.306-3.186-.306c-1.566 0-3.186.576-3.186 2.538 0 1.746.954 2.124 3.024 2.448 2.016.306 2.556.54 2.556 1.62 0 1.404-.9 1.764-2.448 1.764-.918 0-2.934-.306-2.934-.306l-.072.954s1.98.324 3.078.324c2.16 0 3.474-.684 3.474-2.79 0-1.728-.864-2.142-3.168-2.52-1.962-.324-2.412-.594-2.412-1.53 0-1.224 1.008-1.53 2.124-1.53 1.188 0 3.114.288 3.114.288l.036-.954zM67.89 49h1.062v-9H67.89v9zm0-11.25h1.062V36.4H67.89v1.35zm6.966 10.458c1.314 0 3.294-.162 3.294-.162l.036.882s-2.034.252-3.438.252c-2.682-.018-3.492-1.638-3.492-4.644 0-3.474 1.512-4.716 3.708-4.716 2.322 0 3.546 1.242 3.546 4.266l-.036.864h-6.12c0 2.124.612 3.258 2.502 3.258zm-2.502-4.158h5.076c0-2.43-.774-3.294-2.466-3.294-1.638 0-2.61.9-2.61 3.294zm20.196 7.524l-1.566-2.592c-.45.126-1.044.198-1.692.198-3.87 0-4.878-2.196-4.878-6.372 0-4.122 1.026-6.498 4.878-6.498 3.852 0 4.896 2.358 4.896 6.498 0 3.006-.504 4.878-2.106 5.778l1.53 2.484-1.062.504zm-3.258-3.402c3.114 0 3.744-1.674 3.744-5.364 0-3.51-.702-5.49-3.744-5.49-3.06 0-3.726 1.962-3.726 5.49 0 3.546.612 5.364 3.726 5.364zM102.288 40v7.452s-1.224.756-2.646.756c-1.8 0-2.07-.846-2.07-3.528V40H96.51v4.698c0 3.366.504 4.482 3.006 4.482 1.386 0 2.772-.846 2.772-.846V49h1.062v-9h-1.062zm6.966 8.208c1.314 0 3.294-.162 3.294-.162l.036.882s-2.034.252-3.438.252c-2.682-.018-3.492-1.638-3.492-4.644 0-3.474 1.512-4.716 3.708-4.716 2.322 0 3.546 1.242 3.546 4.266l-.036.864h-6.12c0 2.124.612 3.258 2.502 3.258zm-2.502-4.158h5.076c0-2.43-.774-3.294-2.466-3.294-1.638 0-2.61.9-2.61 3.294zm16.38 9h1.08V36.004h-1.08V53.05zM135.156 49h1.116V37.642h.252l3.924 10.944h1.314l3.924-10.944h.252V49h1.116V36.49h-2.088l-3.852 10.944-3.87-10.944h-2.088V49zm21.006-6.318v4.824c.054.54.576.72 1.17.792l-.054.864c-.882 0-1.548-.18-2.034-.72 0 0-1.692.738-3.384.738-1.584 0-2.466-.918-2.466-2.718 0-1.656.828-2.448 2.646-2.628l3.06-.306v-.846c0-1.368-.612-1.89-1.764-1.89-1.296 0-3.402.27-3.402.27l-.054-.864s1.98-.378 3.492-.378c1.962 0 2.79.954 2.79 2.862zm-1.062 1.692l-2.934.306c-1.206.108-1.656.684-1.656 1.764 0 1.152.504 1.818 1.494 1.818 1.458 0 3.096-.63 3.096-.63v-3.258zM158.088 40l2.646 9h1.242l-1.206 4.05h1.08L165.738 40h-1.098l-2.412 8.064h-.648L159.186 40h-1.098zm14.148-.396l.522.864 3.168-2.124V49h1.098V37.12h-1.044l-3.744 2.484zm16.722-2.394l-.108.918s-1.566-.18-3.078-.18c-2.16 0-3.402 1.548-3.402 4.428 0 .018 1.746-.756 3.15-.756 2.61 0 3.96 1.188 3.96 3.636 0 2.484-1.458 3.924-4.104 3.924-2.898 0-4.158-2.34-4.158-6.192 0-4.266 1.782-6.048 4.554-6.048 1.512 0 3.186.27 3.186.27zm-3.51 5.4c-1.476 0-3.096.774-3.096.774.036 2.754.828 4.788 3.024 4.788 1.926 0 2.952-1.026 2.952-2.916 0-1.8-1.08-2.646-2.88-2.646zm5.562 8.604h.9l1.098-3.996h-1.206l-.792 3.996zM206.958 49v-.972h-6.228l3.456-3.564c1.584-1.566 2.43-2.61 2.43-4.392 0-2.232-1.278-3.132-3.726-3.132-1.71 0-3.402.486-3.402.486l.09.954s1.8-.432 3.132-.432c1.8 0 2.754.558 2.754 2.214 0 1.476-.918 2.448-2.376 3.978l-3.708 3.924V49h7.578zm6.264-12.06c2.772 0 4.266 1.35 4.266 6.336 0 4.554-1.602 5.904-4.248 5.904-2.664 0-4.266-1.296-4.266-5.904 0-4.986 1.566-6.336 4.248-6.336zm0 .99c-2.07 0-3.096 1.062-3.096 5.364 0 3.924 1.134 4.878 3.114 4.878s3.096-.972 3.096-4.896c0-4.23-.99-5.346-3.114-5.346zm7.128 1.674l.522.864 3.168-2.124V49h1.098V37.12h-1.044l-3.744 2.484zm9.432-1.476h6.192v.468l-4.59 10.224 1.062.36 4.662-10.476V37.12h-7.326v1.008z" fill="#C8102E"/><path d="M41.55 98h2.31V79.7h.42l6.03 17.55h2.58l6.03-17.55h.42V98h2.31V77.24h-4.17L51.6 94.79l-5.88-17.55h-4.17V98zm30.57-15.3c4.77 0 6.42 2.46 6.42 7.62 0 5.46-1.35 7.98-6.42 7.98-5.04 0-6.42-2.52-6.42-7.98 0-5.16 1.68-7.62 6.42-7.62zm0 13.65c3.57 0 4.11-1.77 4.11-6.03 0-4.17-.9-5.67-4.11-5.67-3.18 0-4.11 1.5-4.11 5.67 0 4.26.57 6.03 4.11 6.03zM88.83 82.7c4.08 0 5.46 2.16 5.46 7.56 0 5.97-1.62 8.04-7.08 8.04-1.8 0-5.01-.33-5.01-.33V76.46h2.22v7.29s2.28-1.05 4.41-1.05zm-1.65 13.59c4.11 0 4.83-1.83 4.83-6.03 0-3.87-.78-5.55-3.42-5.55-2.07 0-4.17.87-4.17.87v10.56s1.95.15 2.76.15zM97.98 98h2.25V83h-2.25v15zm0-18.39h2.25V77h-2.25v2.61zM104.73 98h2.25V76.46h-2.25V98zm12.3-1.68c2.25 0 5.52-.27 5.52-.27l.06 1.77s-3.42.48-5.85.48c-4.47 0-5.94-2.61-5.94-7.71 0-5.7 2.46-7.89 6.27-7.89 3.99 0 6.03 2.1 6.03 7.02l-.12 1.71h-9.9c0 3.21.99 4.89 3.93 4.89zm-3.96-6.69h7.8c0-3.72-1.14-5.04-3.78-5.04-2.55 0-3.99 1.41-4.02 5.04zm25.92-6.93c4.77 0 6.42 2.46 6.42 7.62 0 5.46-1.35 7.98-6.42 7.98-5.04 0-6.42-2.52-6.42-7.98 0-5.16 1.68-7.62 6.42-7.62zm0 13.65c3.57 0 4.11-1.77 4.11-6.03 0-4.17-.9-5.67-4.11-5.67-3.18 0-4.11 1.5-4.11 5.67 0 4.26.57 6.03 4.11 6.03zM151.32 98V85.82s2.07-1.11 4.23-1.11c2.79 0 3.24 1.47 3.24 5.43V98h2.22v-7.92c0-5.34-.93-7.38-5.07-7.38-2.22 0-4.65 1.35-4.65 1.35V83h-2.22v15h2.25zm28.23-13.05V83h-4.77v-4.59h-2.22V83h-2.13v1.95h2.13v7.89c0 4.32 1.05 5.49 4.14 5.49 1.05 0 3.06-.33 3.06-.33l-.15-1.86s-1.83.18-2.67.18c-1.95 0-2.16-.93-2.16-4.2v-7.17h4.77zM184.56 98V85.61s2.1-.9 4.23-.9c2.76 0 3.21 1.47 3.21 5.43V98h2.25v-7.92c0-5.34-.96-7.38-5.07-7.38-2.22 0-4.62 1.14-4.62 1.14v-7.38h-2.25V98h2.25zm19.41-1.68c2.25 0 5.52-.27 5.52-.27l.06 1.77s-3.42.48-5.85.48c-4.47 0-5.94-2.61-5.94-7.71 0-5.7 2.46-7.89 6.27-7.89 3.99 0 6.03 2.1 6.03 7.02l-.12 1.71h-9.9c0 3.21.99 4.89 3.93 4.89zm-3.96-6.69h7.8c0-3.72-1.14-5.04-3.78-5.04-2.55 0-3.99 1.41-4.02 5.04zm20.55-12.39h7.53c4.05 0 6.18 1.59 6.18 5.28 0 2.7-.99 3.99-2.67 4.77 1.83.63 3.3 1.89 3.3 4.89 0 4.38-2.52 5.82-6.42 5.82h-7.92V77.24zm7.68 11.22h-5.37v7.5h5.52c2.52 0 4.17-.81 4.17-3.87 0-3.21-2.73-3.63-4.32-3.63zm-.24-9.18h-5.13v7.17h5.34c2.61 0 3.69-1.23 3.69-3.72 0-2.43-1.26-3.45-3.9-3.45zM248.01 83v12.18s-1.89 1.11-4.11 1.11c-2.79 0-3.15-1.35-3.15-5.49V83h-2.25v7.83c0 5.52.87 7.47 5.07 7.47 2.19 0 4.44-1.35 4.44-1.35V98h2.25V83h-2.25zm5.16 0l4.26 15h2.22l-1.95 6.66h2.25L266.19 83h-2.25l-3.78 13.05h-.99L255.42 83h-2.25zm21.45 13.32c2.25 0 5.52-.27 5.52-.27l.06 1.77s-3.42.48-5.85.48c-4.47 0-5.94-2.61-5.94-7.71 0-5.7 2.46-7.89 6.27-7.89 3.99 0 6.03 2.1 6.03 7.02l-.12 1.71h-9.9c0 3.21.99 4.89 3.93 4.89zm-3.96-6.69h7.8c0-3.72-1.14-5.04-3.78-5.04-2.55 0-3.99 1.41-4.02 5.04zM284.22 98h2.25V86.99s2.64-1.47 5.46-2.04v-2.28c-2.88.57-5.49 2.37-5.49 2.37V83h-2.22v15zm9.81-14.67h1.77l1.92-6.57h-2.37l-1.32 6.57zm17.07-.06s-3.18-.57-5.43-.57c-2.73 0-5.4 1.08-5.4 4.38 0 3 1.62 3.63 5.01 4.17 3.27.51 4.05.9 4.05 2.46 0 2.04-1.32 2.58-3.78 2.58-1.53 0-4.95-.51-4.95-.51l-.12 1.95s3.36.57 5.28.57c3.6 0 5.82-1.17 5.82-4.68 0-2.91-1.41-3.66-5.16-4.29-3.18-.54-3.9-.93-3.9-2.34 0-1.77 1.41-2.28 3.27-2.28 1.92 0 5.25.48 5.25.48l.06-1.92zm18.51 7.74h-5.28V98h-2.31V77.24h7.59c4.53 0 6.63 2.19 6.63 6.69 0 4.53-2.1 7.08-6.63 7.08zm-5.28-2.04h5.25c3.03 0 4.29-1.83 4.29-5.04 0-3.18-1.26-4.65-4.29-4.65h-5.25v9.69zm25.68-1.44v7.68c.06.87.78 1.2 1.74 1.32l-.09 1.77c-1.59 0-2.67-.3-3.57-1.2 0 0-2.7 1.2-5.4 1.2-2.73 0-4.23-1.56-4.23-4.59 0-2.88 1.5-4.14 4.59-4.44l4.71-.45v-1.29c0-2.1-.9-2.85-2.7-2.85-2.1 0-5.67.39-5.67.39l-.09-1.71s3.3-.66 5.88-.66c3.39 0 4.83 1.56 4.83 4.83zm-2.25 3l-4.44.42c-1.83.18-2.55 1.05-2.55 2.7 0 1.74.75 2.76 2.28 2.76 2.22 0 4.71-.93 4.71-.93v-4.95zm14.46-5.58V83h-4.77v-4.59h-2.22V83h-2.13v1.95h2.13v7.89c0 4.32 1.05 5.49 4.14 5.49 1.05 0 3.06-.33 3.06-.33l-.15-1.86s-1.83.18-2.67.18c-1.95 0-2.16-.93-2.16-4.2v-7.17h4.77zM367.23 98V85.61s2.1-.9 4.23-.9c2.76 0 3.21 1.47 3.21 5.43V98h2.25v-7.92c0-5.34-.96-7.38-5.07-7.38-2.22 0-4.62 1.14-4.62 1.14v-7.38h-2.25V98h2.25zM10.584 178h1.62l3.42-12.006h-1.656l-2.646 10.008-2.754-10.008H7.326l-2.754 10.008-2.664-10.008H.252L3.672 178h1.62l2.646-9.684L10.584 178zm6.156-4.356c0-2.52 1.8-4.554 4.284-4.554 2.628 0 4.176 2.052 4.176 4.662v.342h-7.038c.108 1.638 1.26 3.006 3.132 3.006.99 0 1.998-.396 2.682-1.098l.648.882c-.864.864-2.034 1.332-3.456 1.332-2.574 0-4.428-1.854-4.428-4.572zm4.266-3.438c-1.854 0-2.772 1.566-2.844 2.898h5.706c-.018-1.296-.882-2.898-2.862-2.898zM27.378 178v-12.006h1.35v4.626c.702-.954 1.746-1.53 2.934-1.53 2.268 0 3.87 1.8 3.87 4.572 0 2.826-1.602 4.554-3.87 4.554-1.224 0-2.286-.63-2.934-1.512V178h-1.35zm1.35-2.358c.468.756 1.53 1.368 2.592 1.368 1.764 0 2.808-1.422 2.808-3.348s-1.044-3.366-2.808-3.366c-1.062 0-2.124.648-2.592 1.404v3.942z" fill="#071D49"/></g></svg>