<?xml version="1.0" encoding="UTF-8"?>
<svg width="370px" height="134px" viewBox="0 0 370 134" version="1.1" xmlns="http://www.w3.org/2000/svg" xmlns:xlink="http://www.w3.org/1999/xlink">
    <!-- Generator: Sketch 45.1 (43504) - http://www.bohemiancoding.com/sketch -->
    <title>Group 8</title>
    <desc>Created with Sketch.</desc>
    <defs>
        <rect id="path-1" x="0" y="0" width="370" height="133.725853"></rect>
    </defs>
    <g id="Page-1" stroke="none" stroke-width="1" fill="none" fill-rule="evenodd">
        <g id="7-12-4" transform="translate(-248.000000, -1485.000000)">
            <g id="Group-8" transform="translate(248.000000, 1485.000000)">
                <g id="landscape-2">
                    <g id="Rectangle-8-Copy-2">
                        <mask id="mask-2" fill="white">
                            <use xlink:href="#path-1"></use>
                        </mask>
                        <rect stroke="#979797" x="0.5" y="0.5" width="369" height="132.725853"></rect>
                        <rect fill-opacity="0.8" fill="#071D49" mask="url(#mask-2)" transform="translate(44.390427, 96.687002) scale(-1, 1) rotate(75.000000) translate(-44.390427, -96.687002) " x="-140.109573" y="-94.4646458" width="369" height="382.303295"></rect>
                    </g>
                    <g id="Degree" transform="translate(253.000000, 69.000000)">
                        <path d="M20.4238281,45 L22.0849609,45 L27.7275391,33.7851562 L27.7275391,32.3173828 L19.3339844,32.3173828 L19.3339844,33.7324219 L26.1191406,33.7324219 L26.1191406,33.8554688 L25.7060547,34.659668 C25.4306627,35.1958035 25.0776389,35.8872028 24.6469727,36.7338867 C24.2163064,37.5805706 23.7578149,38.4785109 23.2714844,39.4277344 C22.7851538,40.3769579 22.3266623,41.2748981 21.8959961,42.121582 C21.4653299,42.968266 21.1123061,43.6596653 20.8369141,44.1958008 L20.4238281,45 Z M33.90625,45.2988281 C35.2187566,45.2988281 36.2851521,44.8989298 37.1054687,44.0991211 C37.9257854,43.2993124 38.3359375,42.2548893 38.3359375,40.9658203 C38.3359375,39.7177672 37.9550819,38.6982461 37.1933594,37.9072266 C36.4316368,37.116207 35.4472717,36.7207031 34.2402344,36.7207031 C33.6542939,36.7207031 33.1386741,36.8100577 32.6933594,36.9887695 C32.2480446,37.1674814 31.8701187,37.4384747 31.5595703,37.8017578 L31.4189453,37.8017578 L31.7792969,33.7324219 L37.6152344,33.7324219 L37.6152344,32.3173828 L30.5400391,32.3173828 L29.8457031,39.5068359 L31.3310547,39.5068359 C31.5888685,39.0556618 31.9462868,38.7055677 32.4033203,38.456543 C32.8603538,38.2075183 33.3759737,38.0830078 33.9501953,38.0830078 C34.7822307,38.0830078 35.4575169,38.3525364 35.9760742,38.8916016 C36.4946315,39.4306668 36.7539062,40.1367144 36.7539062,41.0097656 C36.7539062,41.8769575 36.4946315,42.5771458 35.9760742,43.1103516 C35.4575169,43.6435574 34.7734417,43.9101562 33.9238281,43.9101562 C33.1796838,43.9101562 32.5571314,43.7006857 32.0561523,43.2817383 C31.5551733,42.8627909 31.2695316,42.3105503 31.1992187,41.625 L29.6435547,41.625 C29.7138675,42.7207086 30.1415976,43.6069302 30.9267578,44.2836914 C31.711918,44.9604526 32.7050721,45.2988281 33.90625,45.2988281 Z M42.9677734,37.8544922 C42.1415974,37.8544922 41.4604519,37.5761747 40.9243164,37.0195312 C40.3881809,36.4628878 40.1201172,35.7890665 40.1201172,34.9980469 C40.1201172,34.2070273 40.3881809,33.5332059 40.9243164,32.9765625 C41.4604519,32.4199191 42.1415974,32.1416016 42.9677734,32.1416016 C43.7939494,32.1416016 44.4765598,32.4199191 45.015625,32.9765625 C45.5546902,33.5332059 45.8242187,34.2070273 45.8242187,34.9980469 C45.8242187,35.7890665 45.5546902,36.4628878 45.015625,37.0195312 C44.4765598,37.5761747 43.7939494,37.8544922 42.9677734,37.8544922 Z M42.9677734,36.7294922 C43.5009792,36.7294922 43.9257797,36.5581072 44.2421875,36.215332 C44.5585953,35.8725569 44.7167969,35.4667992 44.7167969,34.9980469 C44.7167969,34.5175757 44.5571305,34.1088884 44.237793,33.7719727 C43.9184554,33.4350569 43.4951198,33.2666016 42.9677734,33.2666016 C42.4404271,33.2666016 42.0200211,33.4350569 41.706543,33.7719727 C41.3930648,34.1088884 41.2363281,34.5175757 41.2363281,34.9980469 C41.2363281,35.4667992 41.3916,35.8725569 41.7021484,36.215332 C42.0126969,36.5581072 42.4345676,36.7294922 42.9677734,36.7294922 Z" id="75°" fill="#071D49"></path>
                        <g id="arrow" stroke="#979797" stroke-width="1.5" stroke-linecap="square">
                            <path d="M3,6.05932693 C3,6.05932693 33.4355103,-7.79783678 57.7125783,10.5382601 C81.9896463,28.8743569 72.6546675,59.297961 72.6546675,59.297961" id="Line"></path>
                            <polyline id="Line" transform="translate(4.196916, 5.686549) rotate(-113.000000) translate(-4.196916, -5.686549) " points="-0.137861307 8.22202653 4.19691563 3.15107096 8.53169256 8.22202653"></polyline>
                        </g>
                    </g>
                    <g id="content" transform="translate(33.000000, 28.514324)" fill="#C7CFD9" fill-opacity="0.5">
                        <rect id="Rectangle-3-Copy" x="0" y="48.2086109" width="95.248777" height="5.71853853"></rect>
                        <rect id="Rectangle-3-Copy-10" x="0" y="0.559185125" width="40.3804114" height="6.88557165"></rect>
                        <rect id="Rectangle-3-Copy-11" x="0" y="15.1866514" width="108.602662" height="8.43898791"></rect>
                        <rect id="Rectangle-3-Copy-2" x="0" y="60.8384175" width="95.248777" height="5.71853853"></rect>
                        <rect id="Rectangle-3-Copy-4" x="0" y="73.4682241" width="77.4000232" height="5.71853853"></rect>
                    </g>
                </g>
            </g>
        </g>
    </g>
</svg>