<?xml version="1.0" encoding="UTF-8"?>
<svg width="370px" height="194px" viewBox="0 0 370 194" version="1.1" xmlns="http://www.w3.org/2000/svg" xmlns:xlink="http://www.w3.org/1999/xlink">
    <!-- Generator: Sketch 45.1 (43504) - http://www.bohemiancoding.com/sketch -->
    <title>Group 7</title>
    <desc>Created with Sketch.</desc>
    <defs>
        <rect id="path-1" x="0" y="0" width="370" height="194"></rect>
    </defs>
    <g id="Page-1" stroke="none" stroke-width="1" fill="none" fill-rule="evenodd">
        <g id="7-12-4" transform="translate(-248.000000, -1245.000000)">
            <g id="Group-7" transform="translate(248.000000, 1245.000000)">
                <g id="landscape-1">
                    <g id="Rectangle-8-Copy-2">
                        <mask id="mask-2" fill="white">
                            <use xlink:href="#path-1"></use>
                        </mask>
                        <rect stroke="#979797" x="0.5" y="0.5" width="369" height="193"></rect>
                        <rect fill-opacity="0.8" fill="#071D49" mask="url(#mask-2)" transform="translate(390.390427, 68.687002) scale(-1, 1) rotate(75.000000) translate(-390.390427, -68.687002) " x="205.890427" y="-122.464646" width="369" height="382.303295"></rect>
                    </g>
                    <g id="Degree" transform="translate(179.000000, 129.000000)">
                        <path d="M18.4238281,46 L20.0849609,46 L25.7275391,34.7851562 L25.7275391,33.3173828 L17.3339844,33.3173828 L17.3339844,34.7324219 L24.1191406,34.7324219 L24.1191406,34.8554688 L23.7060547,35.659668 C23.4306627,36.1958035 23.0776389,36.8872028 22.6469727,37.7338867 C22.2163064,38.5805706 21.7578149,39.4785109 21.2714844,40.4277344 C20.7851538,41.3769579 20.3266623,42.2748981 19.8959961,43.121582 C19.4653299,43.968266 19.1123061,44.6596653 18.8369141,45.1958008 L18.4238281,46 Z M31.90625,46.2988281 C33.2187566,46.2988281 34.2851521,45.8989298 35.1054687,45.0991211 C35.9257854,44.2993124 36.3359375,43.2548893 36.3359375,41.9658203 C36.3359375,40.7177672 35.9550819,39.6982461 35.1933594,38.9072266 C34.4316368,38.116207 33.4472717,37.7207031 32.2402344,37.7207031 C31.6542939,37.7207031 31.1386741,37.8100577 30.6933594,37.9887695 C30.2480446,38.1674814 29.8701187,38.4384747 29.5595703,38.8017578 L29.4189453,38.8017578 L29.7792969,34.7324219 L35.6152344,34.7324219 L35.6152344,33.3173828 L28.5400391,33.3173828 L27.8457031,40.5068359 L29.3310547,40.5068359 C29.5888685,40.0556618 29.9462868,39.7055677 30.4033203,39.456543 C30.8603538,39.2075183 31.3759737,39.0830078 31.9501953,39.0830078 C32.7822307,39.0830078 33.4575169,39.3525364 33.9760742,39.8916016 C34.4946315,40.4306668 34.7539062,41.1367144 34.7539062,42.0097656 C34.7539062,42.8769575 34.4946315,43.5771458 33.9760742,44.1103516 C33.4575169,44.6435574 32.7734417,44.9101562 31.9238281,44.9101562 C31.1796838,44.9101562 30.5571314,44.7006857 30.0561523,44.2817383 C29.5551733,43.8627909 29.2695316,43.3105503 29.1992187,42.625 L27.6435547,42.625 C27.7138675,43.7207086 28.1415976,44.6069302 28.9267578,45.2836914 C29.711918,45.9604526 30.7050721,46.2988281 31.90625,46.2988281 Z M40.9677734,38.8544922 C40.1415974,38.8544922 39.4604519,38.5761747 38.9243164,38.0195312 C38.3881809,37.4628878 38.1201172,36.7890665 38.1201172,35.9980469 C38.1201172,35.2070273 38.3881809,34.5332059 38.9243164,33.9765625 C39.4604519,33.4199191 40.1415974,33.1416016 40.9677734,33.1416016 C41.7939494,33.1416016 42.4765598,33.4199191 43.015625,33.9765625 C43.5546902,34.5332059 43.8242187,35.2070273 43.8242187,35.9980469 C43.8242187,36.7890665 43.5546902,37.4628878 43.015625,38.0195312 C42.4765598,38.5761747 41.7939494,38.8544922 40.9677734,38.8544922 Z M40.9677734,37.7294922 C41.5009792,37.7294922 41.9257797,37.5581072 42.2421875,37.215332 C42.5585953,36.8725569 42.7167969,36.4667992 42.7167969,35.9980469 C42.7167969,35.5175757 42.5571305,35.1088884 42.237793,34.7719727 C41.9184554,34.4350569 41.4951198,34.2666016 40.9677734,34.2666016 C40.4404271,34.2666016 40.0200211,34.4350569 39.706543,34.7719727 C39.3930648,35.1088884 39.2363281,35.5175757 39.2363281,35.9980469 C39.2363281,36.4667992 39.3916,36.8725569 39.7021484,37.215332 C40.0126969,37.5581072 40.4345676,37.7294922 40.9677734,37.7294922 Z" id="75°" fill="#FFFFFF"></path>
                        <g id="arrow" stroke="#FFFFFF" stroke-width="1.5" stroke-linecap="square">
                            <path d="M3,6.05932693 C3,6.05932693 33.4355103,-7.79783678 57.7125783,10.5382601 C81.9896463,28.8743569 72.6546675,59.297961 72.6546675,59.297961" id="Line"></path>
                            <polyline id="Line" transform="translate(4.196916, 5.686549) rotate(-113.000000) translate(-4.196916, -5.686549) " points="-0.137861307 8.22202653 4.19691563 3.15107096 8.53169256 8.22202653"></polyline>
                        </g>
                    </g>
                    <rect id="Rectangle-3" fill-opacity="0.5" fill="#C7CFD9" x="33" y="97" width="60.4860299" height="9.80776795"></rect>
                    <rect id="Rectangle-3-Copy-9" fill-opacity="0.5" fill="#C7CFD9" x="33" y="27" width="30.4899998" height="9.80776795"></rect>
                    <rect id="Rectangle-3-Copy" fill-opacity="0.5" fill="#C7CFD9" x="33" y="120" width="74.4343495" height="4.52781163"></rect>
                    <rect id="Rectangle-3-Copy-2" fill-opacity="0.5" fill="#C7CFD9" x="33" y="130" width="74.4343495" height="4.52781163"></rect>
                    <rect id="Rectangle-3-Copy-4" fill-opacity="0.5" fill="#C7CFD9" x="33" y="140" width="60.4860299" height="4.52781163"></rect>
                </g>
            </g>
        </g>
    </g>
</svg>