<?xml version="1.0" encoding="UTF-8"?>
<svg width="35px" height="28px" viewBox="0 0 35 28" version="1.1" xmlns="http://www.w3.org/2000/svg" xmlns:xlink="http://www.w3.org/1999/xlink">
    <!-- Generator: Sketch 45 (43475) - http://www.bohemiancoding.com/sketch -->
    <title>visit freq copy</title>
    <desc>Created with Sketch.</desc>
    <defs></defs>
    <g id="Page-1" stroke="none" stroke-width="1" fill="none" fill-rule="evenodd" stroke-linecap="round" stroke-linejoin="round">
        <g id="6-14-5" transform="translate(-729.000000, -3109.000000)" stroke="#3FADDC" stroke-width="1.5" fill="#EEF4FA">
            <g id="Example-1" transform="translate(153.000000, 2830.000000)">
                <g id="Example" transform="translate(286.000000, 54.000000)">
                    <g id="visit-freq-copy" transform="translate(290.000000, 225.000000)">
                        <path d="M2.2826087,10.1111111 L6.23608696,24.9293333 C6.59673913,26.2826667 7.80043478,27.2222222 9.17304348,27.2222222 L25.8269565,27.2222222 C27.1995652,27.2222222 28.4032609,26.2826667 28.763913,24.9293333 L32.7173913,10.1111111" id="Stroke-30"></path>
                        <path d="M9.89130435,10.1111111 L15.9782609,0.777777778" id="Stroke-32"></path>
                        <path d="M25.1086957,10.1111111 L19.0217391,0.777777778" id="Stroke-34"></path>
                        <path d="M17.5,13.2222222 L17.5,24.1111111" id="Stroke-36"></path>
                        <path d="M21.3043478,24.1111111 L22.826087,13.2222222" id="Stroke-38"></path>
                        <path d="M13.6956522,24.1111111 L12.173913,13.2222222" id="Stroke-40"></path>
                        <path d="M25.1086957,24.1111111 L28.1521739,13.2222222" id="Stroke-42"></path>
                        <path d="M9.89130435,24.1111111 L6.84782609,13.2222222" id="Stroke-44"></path>
                        <path d="M0.760869565,10.1111111 L34.2391304,10.1111111" id="Stroke-29"></path>
                    </g>
                </g>
            </g>
        </g>
    </g>
</svg>