<svg width="112" height="43" xmlns="http://www.w3.org/2000/svg"><path d="M10.368 13h2.718L16.506.994h-2.88L11.538 9.67 9.27.994H7.272L4.986 9.67 2.88.994H.018L3.456 13h2.718l2.088-8.244L10.368 13zM17.1 8.644c0-2.52 1.854-4.554 4.5-4.554 2.592 0 4.356 1.944 4.356 4.788v.504h-6.462c.144 1.098 1.026 2.016 2.502 2.016.81 0 1.764-.324 2.322-.864l1.008 1.476c-.882.81-2.232 1.206-3.582 1.206-2.646 0-4.644-1.782-4.644-4.572zm4.5-2.736c-1.422 0-2.034 1.062-2.142 1.926h4.284c-.054-.828-.63-1.926-2.142-1.926zM27.612 13V.994h2.286v4.428c.684-.882 1.656-1.332 2.682-1.332 2.214 0 3.852 1.728 3.852 4.572 0 2.898-1.656 4.554-3.852 4.554-1.044 0-1.998-.468-2.682-1.314V13h-2.286zm2.286-2.79c.378.558 1.224.972 1.962.972 1.332 0 2.214-1.008 2.214-2.52s-.882-2.538-2.214-2.538c-.738 0-1.584.432-1.962 1.008v3.078zM2.178 39h1.656l4.914-10.98v-1.026H.558v1.332H7.02L2.178 39zm8.064 0h8.244v-1.332H12.6c3.348-2.646 5.832-4.878 5.832-7.326 0-2.394-2.034-3.528-4.032-3.528-1.692 0-3.258.684-4.176 1.89l.918.954c.702-.9 1.818-1.512 3.258-1.512 1.242 0 2.502.666 2.502 2.196 0 2.07-2.34 4.068-6.66 7.47V39zm16.956 3.312h-1.35V30.306h1.35v1.296a3.634 3.634 0 012.934-1.512c2.286 0 3.87 1.728 3.87 4.554 0 2.808-1.584 4.572-3.87 4.572-1.188 0-2.232-.558-2.934-1.53v4.626zm5.382-7.668c0-1.926-1.044-3.348-2.79-3.348-1.062 0-2.124.63-2.592 1.386v3.924c.468.756 1.53 1.404 2.592 1.404 1.746 0 2.79-1.44 2.79-3.366zm4.266-5.742a.907.907 0 00.918-.9.922.922 0 00-.918-.918c-.486 0-.9.414-.9.918s.414.9.9.9zM36.18 39h1.35v-8.694h-1.35V39zm9.684 0h1.566l-3.348-4.464 3.15-4.23h-1.566l-2.412 3.312-2.412-3.312h-1.566l3.15 4.23L39.096 39h1.548l2.61-3.564L45.864 39zm2.61-4.356c0-2.52 1.8-4.554 4.284-4.554 2.628 0 4.176 2.052 4.176 4.662v.342h-7.038c.108 1.638 1.26 3.006 3.132 3.006.99 0 1.998-.396 2.682-1.098l.648.882c-.864.864-2.034 1.332-3.456 1.332-2.574 0-4.428-1.854-4.428-4.572zm4.266-3.438c-1.854 0-2.772 1.566-2.844 2.898h5.706c-.018-1.296-.882-2.898-2.862-2.898zM59.112 39h1.35V26.994h-1.35V39zm3.294-1.152c.882.936 2.088 1.368 3.51 1.368 2.25 0 3.42-1.17 3.42-2.628 0-1.926-1.746-2.358-3.258-2.7-1.134-.27-2.124-.54-2.124-1.386 0-.774.738-1.314 1.926-1.314 1.116 0 2.07.468 2.592 1.098l.63-.936c-.702-.702-1.746-1.26-3.222-1.26-2.07 0-3.24 1.152-3.24 2.502 0 1.8 1.674 2.196 3.15 2.538 1.17.288 2.232.594 2.232 1.548 0 .846-.72 1.44-2.052 1.44-1.188 0-2.286-.576-2.862-1.242l-.702.972zM83.7 39h1.35l2.772-8.694h-1.404l-2.124 6.93-2.286-6.93h-1.152l-2.286 6.93-2.124-6.93h-1.404L77.814 39h1.35l2.268-6.984L83.7 39zm6.354-10.098a.907.907 0 00.918-.9.922.922 0 00-.918-.918c-.486 0-.9.414-.9.918s.414.9.9.9zM89.388 39h1.35v-8.694h-1.35V39zm10.35 0v-1.296c-.648.882-1.71 1.512-2.934 1.512-2.268 0-3.87-1.728-3.87-4.554 0-2.772 1.584-4.572 3.87-4.572 1.17 0 2.232.576 2.934 1.53v-4.626h1.35V39h-1.35zm0-2.358V32.7c-.486-.756-1.53-1.404-2.61-1.404-1.746 0-2.79 1.44-2.79 3.366 0 1.926 1.044 3.348 2.79 3.348 1.08 0 2.124-.612 2.61-1.368zm3.546-1.998c0-2.52 1.8-4.554 4.284-4.554 2.628 0 4.176 2.052 4.176 4.662v.342h-7.038c.108 1.638 1.26 3.006 3.132 3.006.99 0 1.998-.396 2.682-1.098l.648.882c-.864.864-2.034 1.332-3.456 1.332-2.574 0-4.428-1.854-4.428-4.572zm4.266-3.438c-1.854 0-2.772 1.566-2.844 2.898h5.706c-.018-1.296-.882-2.898-2.862-2.898z" fill="#071D49" fill-rule="evenodd"/></svg>