<?xml version="1.0" encoding="UTF-8"?>
<svg width="112px" height="43px" viewBox="0 0 112 43" version="1.1" xmlns="http://www.w3.org/2000/svg" xmlns:xlink="http://www.w3.org/1999/xlink">
    <!-- Generator: Sketch 44.1 (41455) - http://www.bohemiancoding.com/sketch -->
    <title>Web 72 pixels wide</title>
    <desc>Created with Sketch.</desc>
    <defs></defs>
    <g id="Page-1" stroke="none" stroke-width="1" fill="none" fill-rule="evenodd">
        <g id="6-14-1" transform="translate(-374.000000, -4682.000000)" fill="#071D49">
            <g id="MIN-SIZE" transform="translate(153.000000, 4476.000000)">
                <path d="M231.368,219 L234.086,219 L237.506,206.994 L234.626,206.994 L232.538,215.67 L230.27,206.994 L228.272,206.994 L225.986,215.67 L223.88,206.994 L221.018,206.994 L224.456,219 L227.174,219 L229.262,210.756 L231.368,219 Z M238.1,214.644 C238.1,212.124 239.954,210.09 242.6,210.09 C245.192,210.09 246.956,212.034 246.956,214.878 L246.956,215.382 L240.494,215.382 C240.638,216.48 241.52,217.398 242.996,217.398 C243.806,217.398 244.76,217.074 245.318,216.534 L246.326,218.01 C245.444,218.82 244.094,219.216 242.744,219.216 C240.098,219.216 238.1,217.434 238.1,214.644 Z M242.6,211.908 C241.178,211.908 240.566,212.97 240.458,213.834 L244.742,213.834 C244.688,213.006 244.112,211.908 242.6,211.908 Z M248.612,219 L248.612,206.994 L250.898,206.994 L250.898,211.422 C251.582,210.54 252.554,210.09 253.58,210.09 C255.794,210.09 257.432,211.818 257.432,214.662 C257.432,217.56 255.776,219.216 253.58,219.216 C252.536,219.216 251.582,218.748 250.898,217.902 L250.898,219 L248.612,219 Z M250.898,216.21 C251.276,216.768 252.122,217.182 252.86,217.182 C254.192,217.182 255.074,216.174 255.074,214.662 C255.074,213.15 254.192,212.124 252.86,212.124 C252.122,212.124 251.276,212.556 250.898,213.132 L250.898,216.21 Z M223.178,245 L224.834,245 L229.748,234.02 L229.748,232.994 L221.558,232.994 L221.558,234.326 L228.02,234.326 L223.178,245 Z M231.242,245 L239.486,245 L239.486,243.668 L233.6,243.668 C236.948,241.022 239.432,238.79 239.432,236.342 C239.432,233.948 237.398,232.814 235.4,232.814 C233.708,232.814 232.142,233.498 231.224,234.704 L232.142,235.658 C232.844,234.758 233.96,234.146 235.4,234.146 C236.642,234.146 237.902,234.812 237.902,236.342 C237.902,238.412 235.562,240.41 231.242,243.812 L231.242,245 Z M248.198,248.312 L246.848,248.312 L246.848,236.306 L248.198,236.306 L248.198,237.602 C248.828,236.72 249.908,236.09 251.132,236.09 C253.418,236.09 255.002,237.818 255.002,240.644 C255.002,243.452 253.418,245.216 251.132,245.216 C249.944,245.216 248.9,244.658 248.198,243.686 L248.198,248.312 Z M253.58,240.644 C253.58,238.718 252.536,237.296 250.79,237.296 C249.728,237.296 248.666,237.926 248.198,238.682 L248.198,242.606 C248.666,243.362 249.728,244.01 250.79,244.01 C252.536,244.01 253.58,242.57 253.58,240.644 Z M257.846,234.902 C258.35,234.902 258.764,234.506 258.764,234.002 C258.764,233.498 258.35,233.084 257.846,233.084 C257.36,233.084 256.946,233.498 256.946,234.002 C256.946,234.506 257.36,234.902 257.846,234.902 Z M257.18,245 L258.53,245 L258.53,236.306 L257.18,236.306 L257.18,245 Z M266.864,245 L268.43,245 L265.082,240.536 L268.232,236.306 L266.666,236.306 L264.254,239.618 L261.842,236.306 L260.276,236.306 L263.426,240.536 L260.096,245 L261.644,245 L264.254,241.436 L266.864,245 Z M269.474,240.644 C269.474,238.124 271.274,236.09 273.758,236.09 C276.386,236.09 277.934,238.142 277.934,240.752 L277.934,241.094 L270.896,241.094 C271.004,242.732 272.156,244.1 274.028,244.1 C275.018,244.1 276.026,243.704 276.71,243.002 L277.358,243.884 C276.494,244.748 275.324,245.216 273.902,245.216 C271.328,245.216 269.474,243.362 269.474,240.644 Z M273.74,237.206 C271.886,237.206 270.968,238.772 270.896,240.104 L276.602,240.104 C276.584,238.808 275.72,237.206 273.74,237.206 Z M280.112,245 L281.462,245 L281.462,232.994 L280.112,232.994 L280.112,245 Z M283.406,243.848 C284.288,244.784 285.494,245.216 286.916,245.216 C289.166,245.216 290.336,244.046 290.336,242.588 C290.336,240.662 288.59,240.23 287.078,239.888 C285.944,239.618 284.954,239.348 284.954,238.502 C284.954,237.728 285.692,237.188 286.88,237.188 C287.996,237.188 288.95,237.656 289.472,238.286 L290.102,237.35 C289.4,236.648 288.356,236.09 286.88,236.09 C284.81,236.09 283.64,237.242 283.64,238.592 C283.64,240.392 285.314,240.788 286.79,241.13 C287.96,241.418 289.022,241.724 289.022,242.678 C289.022,243.524 288.302,244.118 286.97,244.118 C285.782,244.118 284.684,243.542 284.108,242.876 L283.406,243.848 Z M304.7,245 L306.05,245 L308.822,236.306 L307.418,236.306 L305.294,243.236 L303.008,236.306 L301.856,236.306 L299.57,243.236 L297.446,236.306 L296.042,236.306 L298.814,245 L300.164,245 L302.432,238.016 L304.7,245 Z M311.054,234.902 C311.558,234.902 311.972,234.506 311.972,234.002 C311.972,233.498 311.558,233.084 311.054,233.084 C310.568,233.084 310.154,233.498 310.154,234.002 C310.154,234.506 310.568,234.902 311.054,234.902 Z M310.388,245 L311.738,245 L311.738,236.306 L310.388,236.306 L310.388,245 Z M320.738,245 L320.738,243.704 C320.09,244.586 319.028,245.216 317.804,245.216 C315.536,245.216 313.934,243.488 313.934,240.662 C313.934,237.89 315.518,236.09 317.804,236.09 C318.974,236.09 320.036,236.666 320.738,237.62 L320.738,232.994 L322.088,232.994 L322.088,245 L320.738,245 Z M320.738,242.642 L320.738,238.7 C320.252,237.944 319.208,237.296 318.128,237.296 C316.382,237.296 315.338,238.736 315.338,240.662 C315.338,242.588 316.382,244.01 318.128,244.01 C319.208,244.01 320.252,243.398 320.738,242.642 Z M324.284,240.644 C324.284,238.124 326.084,236.09 328.568,236.09 C331.196,236.09 332.744,238.142 332.744,240.752 L332.744,241.094 L325.706,241.094 C325.814,242.732 326.966,244.1 328.838,244.1 C329.828,244.1 330.836,243.704 331.52,243.002 L332.168,243.884 C331.304,244.748 330.134,245.216 328.712,245.216 C326.138,245.216 324.284,243.362 324.284,240.644 Z M328.55,237.206 C326.696,237.206 325.778,238.772 325.706,240.104 L331.412,240.104 C331.394,238.808 330.53,237.206 328.55,237.206 Z" id="Web-72-pixels-wide"></path>
            </g>
        </g>
    </g>
</svg>